<?xml version="1.0" standalone="no"?>
<!DOCTYPE svg PUBLIC "-//W3C//DTD SVG 1.1//EN" "http://www.w3.org/Graphics/SVG/1.1/DTD/svg11.dtd">
<svg xmlns="http://www.w3.org/2000/svg" xmlns:inkscape="http://www.inkscape.org/namespaces/inkscape" xmlns:xlink="http://www.w3.org/1999/xlink" viewBox = "300 0 600 600" version = "1.1">
	<style type="text/css">
   .st0, .st1, .st2
    {
        stroke: #d0d0d0;
        stroke-miterlimit: 7;
		fill:#fff;
		cursor:pointer;
    }
    .st4
    {
        font-size: 7.0514px;
		fill:#000;
    }
    .st0:hover, .st1:hover, .st2:hover{fill:#32C787;}
</style>

<!-- svg generated using QGIS www.qgis.org -->
<g id="block" inkscape:groupmode="layer" inkscape:label="block">
<g stroke="rgb(0,0,0)" fill="#fff" stroke-linejoin="round" stroke-width="0.56">
<g id="15" class="st0 dist-block"  inkscape:label="Bahanaga">
<path d="M 551,358 L 552,358 L 552,359 L 551,359 L 550,359 L 549,359 L 549,358 L 550,358 L 550,357 L 551,357 L 551,358 " />
<path d="M 514,306 L 513,306 L 513,305 L 513,304 L 513,303 L 513,302 L 514,302 L 515,302 L 516,302 L 516,303 L 516,304 L 515,304 L 515,305 L 514,305 L 514,306 " />
<path d="M 512,300 L 513,300 L 513,301 L 514,301 L 513,301 L 513,302 L 512,302 L 512,301 L 512,300 " />
<path d="M 517,298 L 518,298 L 519,297 L 520,297 L 521,297 L 522,297 L 523,297 L 523,298 L 524,298 L 524,297 L 525,297 L 524,297 L 525,297 L 525,296 L 525,297 L 526,297 L 527,297 L 527,298 L 526,298 L 526,299 L 526,300 L 526,301 L 526,302 L 526,303 L 527,303 L 528,303 L 529,303 L 529,302 L 530,302 L 531,302 L 531,303 L 532,303 L 533,304 L 534,305 L 534,306 L 534,307 L 534,308 L 533,308 L 532,308 L 531,308 L 531,309 L 531,310 L 532,311 L 533,311 L 533,312 L 534,312 L 535,312 L 535,313 L 535,314 L 535,315 L 534,315 L 534,316 L 534,317 L 534,318 L 534,319 L 534,320 L 534,321 L 533,321 L 533,322 L 533,323 L 532,323 L 531,324 L 531,325 L 532,325 L 532,326 L 532,327 L 531,327 L 531,328 L 531,329 L 530,329 L 530,330 L 530,331 L 530,332 L 530,333 L 530,334 L 530,335 L 530,336 L 531,336 L 532,335 L 532,334 L 532,333 L 533,333 L 534,333 L 535,333 L 536,333 L 536,334 L 537,334 L 538,334 L 539,334 L 540,334 L 541,335 L 542,335 L 543,335 L 543,334 L 544,334 L 544,335 L 545,335 L 545,334 L 546,334 L 546,335 L 545,335 L 544,335 L 544,336 L 543,336 L 543,337 L 542,338 L 542,339 L 542,340 L 542,341 L 543,341 L 544,341 L 545,340 L 546,340 L 547,341 L 548,341 L 548,342 L 548,343 L 548,344 L 547,344 L 547,345 L 548,345 L 548,346 L 549,346 L 549,347 L 550,347 L 551,347 L 551,348 L 552,348 L 552,349 L 552,350 L 551,350 L 551,351 L 551,352 L 551,353 L 551,354 L 551,355 L 551,356 L 550,356 L 550,357 L 549,357 L 549,358 L 548,359 L 548,358 L 547,358 L 547,359 L 548,359 L 549,359 L 550,360 L 551,360 L 552,361 L 553,362 L 554,362 L 554,363 L 555,363 L 555,364 L 556,363 L 557,363 L 558,363 L 559,363 L 565,366 L 567,368 L 566,370 L 564,375 L 563,376 L 561,381 L 560,383 L 559,384 L 558,385 L 557,387 L 557,388 L 556,388 L 555,390 L 554,391 L 553,392 L 552,393 L 551,394 L 550,395 L 550,396 L 549,397 L 549,398 L 548,399 L 548,400 L 548,401 L 547,401 L 547,402 L 547,403 L 547,404 L 547,405 L 546,406 L 546,407 L 545,407 L 544,407 L 544,408 L 543,408 L 542,408 L 542,409 L 541,409 L 540,410 L 539,410 L 538,411 L 537,411 L 536,411 L 536,410 L 535,410 L 534,410 L 533,410 L 533,409 L 532,409 L 532,408 L 531,408 L 531,407 L 530,406 L 530,405 L 529,405 L 528,405 L 528,406 L 527,406 L 527,405 L 527,404 L 526,404 L 526,403 L 527,402 L 528,402 L 529,402 L 528,402 L 528,401 L 527,401 L 526,402 L 525,402 L 525,401 L 525,400 L 524,400 L 523,400 L 522,400 L 522,399 L 522,398 L 521,398 L 521,399 L 520,399 L 520,400 L 519,400 L 519,399 L 519,398 L 519,397 L 518,397 L 518,398 L 518,399 L 517,399 L 517,400 L 516,400 L 515,400 L 515,399 L 514,399 L 514,400 L 513,401 L 512,401 L 512,400 L 512,399 L 511,399 L 511,400 L 511,401 L 510,401 L 511,401 L 511,402 L 510,402 L 509,401 L 508,401 L 507,401 L 507,402 L 506,401 L 506,400 L 505,400 L 504,400 L 503,399 L 503,400 L 503,399 L 502,399 L 502,398 L 502,397 L 501,397 L 500,396 L 499,396 L 498,396 L 497,396 L 497,395 L 497,394 L 498,394 L 498,393 L 499,393 L 499,392 L 500,392 L 500,391 L 500,390 L 499,389 L 499,388 L 498,388 L 497,388 L 496,388 L 495,388 L 495,387 L 494,387 L 494,386 L 493,386 L 492,386 L 492,385 L 491,385 L 490,385 L 490,384 L 489,384 L 488,384 L 488,383 L 487,383 L 487,382 L 487,381 L 488,381 L 488,380 L 488,379 L 489,379 L 489,378 L 490,377 L 491,377 L 491,376 L 492,376 L 492,375 L 492,374 L 491,374 L 491,373 L 490,372 L 490,371 L 489,371 L 489,370 L 489,369 L 488,369 L 488,368 L 487,368 L 488,367 L 488,366 L 488,365 L 489,364 L 489,363 L 489,362 L 489,361 L 489,360 L 489,359 L 488,359 L 487,359 L 486,359 L 486,358 L 485,358 L 485,357 L 484,357 L 485,357 L 485,356 L 485,355 L 484,355 L 484,354 L 483,354 L 482,354 L 482,353 L 481,353 L 481,352 L 481,351 L 482,351 L 482,350 L 482,349 L 482,348 L 483,348 L 483,347 L 484,347 L 484,346 L 484,345 L 485,345 L 485,344 L 486,344 L 486,343 L 486,342 L 486,341 L 487,341 L 487,340 L 488,340 L 488,339 L 489,339 L 489,338 L 488,338 L 488,337 L 487,337 L 487,336 L 486,336 L 486,335 L 485,335 L 485,334 L 485,333 L 486,333 L 486,332 L 487,332 L 487,331 L 488,330 L 488,329 L 489,329 L 490,329 L 490,328 L 490,327 L 491,327 L 492,327 L 492,328 L 493,328 L 493,329 L 494,329 L 495,328 L 496,327 L 497,327 L 497,326 L 496,325 L 496,324 L 495,324 L 495,323 L 494,323 L 494,322 L 493,322 L 493,321 L 492,321 L 492,320 L 491,320 L 492,319 L 493,318 L 494,317 L 494,316 L 494,315 L 495,315 L 495,314 L 496,314 L 496,313 L 495,313 L 496,313 L 496,312 L 495,312 L 494,312 L 494,311 L 494,310 L 494,309 L 495,309 L 496,309 L 497,309 L 498,309 L 498,308 L 498,307 L 499,307 L 499,306 L 500,306 L 500,305 L 500,304 L 500,303 L 500,302 L 501,302 L 501,301 L 500,301 L 501,301 L 502,300 L 503,300 L 504,300 L 505,300 L 505,301 L 505,302 L 506,302 L 506,303 L 507,303 L 507,304 L 507,305 L 508,305 L 509,305 L 510,306 L 511,306 L 511,307 L 512,307 L 513,307 L 513,308 L 512,308 L 512,309 L 513,309 L 513,310 L 513,311 L 514,311 L 514,310 L 514,309 L 514,308 L 514,307 L 515,307 L 515,306 L 516,306 L 517,306 L 517,305 L 517,304 L 517,303 L 518,303 L 518,302 L 517,302 L 516,302 L 515,302 L 515,301 L 514,301 L 514,300 L 513,300 L 513,299 L 512,299 L 511,298 L 510,298 L 510,297 L 511,297 L 512,297 L 513,297 L 513,298 L 514,298 L 514,297 L 514,296 L 515,296 L 516,296 L 516,297 L 516,298 L 517,298 " />
<path d="M 490,350 L 491,350 L 492,350 L 492,349 L 491,349 L 491,348 L 491,349 L 490,349 L 490,350 " />
<path d="M 518,293 L 519,293 L 518,293 L 518,294 L 517,294 L 516,293 L 515,293 L 515,292 L 515,291 L 516,290 L 517,290 L 517,291 L 518,292 L 518,293 " />
</g>
<g id="17" class="st0 dist-block"   inkscape:label="Baleswar">
<path d="M 662,192 L 662,193 L 663,195 L 662,195 L 662,196 L 663,197 L 664,196 L 664,197 L 665,197 L 665,198 L 665,199 L 665,200 L 665,201 L 665,202 L 666,202 L 666,203 L 667,203 L 668,204 L 669,203 L 670,203 L 672,203 L 673,203 L 673,204 L 672,204 L 671,204 L 670,204 L 669,205 L 668,206 L 667,206 L 667,207 L 668,208 L 668,209 L 668,210 L 667,210 L 668,211 L 669,212 L 670,213 L 671,213 L 672,214 L 673,214 L 674,213 L 675,213 L 675,214 L 674,214 L 674,215 L 674,216 L 673,216 L 673,217 L 673,218 L 674,218 L 675,218 L 676,218 L 677,218 L 677,219 L 678,220 L 679,221 L 679,222 L 679,223 L 680,223 L 679,224 L 679,225 L 679,226 L 679,227 L 680,227 L 681,227 L 681,228 L 682,228 L 683,228 L 683,229 L 683,230 L 683,231 L 684,231 L 684,232 L 684,233 L 685,233 L 686,234 L 687,234 L 688,234 L 688,235 L 689,235 L 690,235 L 690,234 L 691,233 L 691,232 L 692,232 L 693,232 L 693,233 L 693,234 L 694,234 L 694,235 L 695,235 L 696,235 L 696,236 L 697,236 L 697,237 L 697,238 L 697,239 L 698,239 L 698,240 L 699,240 L 700,239 L 701,239 L 701,238 L 702,238 L 702,237 L 702,236 L 703,236 L 704,235 L 704,236 L 705,236 L 709,236 L 708,237 L 707,238 L 706,238 L 705,238 L 704,239 L 703,239 L 702,239 L 701,240 L 700,240 L 699,241 L 698,241 L 697,241 L 696,242 L 695,242 L 694,242 L 693,243 L 692,243 L 692,244 L 691,244 L 690,244 L 689,244 L 689,245 L 688,245 L 687,246 L 686,246 L 686,247 L 685,247 L 684,247 L 684,248 L 683,248 L 682,248 L 682,249 L 681,249 L 680,250 L 679,250 L 678,251 L 677,251 L 676,251 L 676,252 L 675,252 L 674,252 L 673,252 L 672,252 L 672,251 L 672,250 L 671,249 L 670,249 L 670,250 L 670,251 L 669,251 L 669,252 L 669,253 L 669,254 L 669,255 L 668,256 L 667,257 L 666,257 L 666,258 L 665,258 L 665,259 L 665,260 L 665,261 L 665,262 L 664,263 L 662,264 L 661,264 L 660,265 L 660,266 L 659,267 L 658,268 L 657,269 L 657,270 L 656,270 L 655,271 L 653,272 L 652,272 L 651,272 L 650,273 L 649,274 L 648,275 L 647,275 L 646,275 L 646,274 L 645,274 L 645,273 L 644,272 L 643,272 L 643,273 L 643,274 L 642,274 L 642,275 L 642,276 L 641,277 L 641,278 L 639,279 L 639,280 L 638,281 L 637,282 L 636,283 L 635,283 L 634,284 L 633,285 L 632,286 L 631,286 L 631,287 L 630,287 L 629,288 L 629,289 L 629,290 L 628,291 L 628,292 L 627,293 L 626,294 L 625,295 L 624,296 L 623,296 L 621,297 L 620,298 L 619,299 L 619,300 L 617,301 L 617,302 L 616,303 L 615,304 L 615,306 L 614,307 L 613,307 L 612,308 L 611,309 L 610,310 L 609,312 L 608,312 L 607,313 L 605,316 L 604,318 L 603,319 L 602,319 L 600,321 L 599,322 L 598,323 L 597,325 L 595,326 L 594,328 L 593,328 L 592,329 L 591,329 L 590,330 L 589,331 L 588,333 L 587,334 L 586,335 L 585,336 L 585,337 L 584,336 L 581,333 L 580,333 L 579,333 L 579,332 L 578,332 L 577,332 L 577,331 L 576,331 L 575,331 L 575,330 L 574,330 L 573,329 L 572,329 L 572,330 L 573,330 L 573,331 L 573,332 L 572,332 L 571,332 L 571,331 L 570,331 L 570,330 L 569,330 L 568,330 L 568,329 L 567,329 L 566,329 L 566,328 L 565,328 L 564,328 L 563,328 L 563,327 L 562,327 L 561,327 L 561,326 L 560,326 L 560,325 L 560,324 L 561,324 L 561,323 L 561,322 L 562,322 L 562,321 L 561,321 L 561,320 L 560,320 L 560,319 L 559,319 L 558,319 L 558,318 L 557,318 L 557,317 L 558,317 L 557,316 L 558,316 L 558,315 L 557,315 L 556,316 L 556,315 L 556,314 L 556,313 L 555,313 L 555,312 L 555,311 L 555,310 L 556,310 L 556,309 L 555,309 L 554,309 L 554,308 L 555,308 L 555,307 L 554,307 L 555,307 L 555,306 L 555,305 L 554,305 L 553,304 L 553,303 L 553,302 L 554,302 L 554,301 L 554,300 L 554,299 L 554,298 L 555,298 L 554,298 L 554,297 L 553,297 L 553,296 L 552,295 L 551,295 L 551,294 L 551,293 L 551,292 L 550,292 L 550,291 L 549,291 L 549,290 L 549,289 L 549,288 L 549,287 L 548,286 L 548,285 L 548,284 L 548,283 L 548,282 L 547,282 L 548,281 L 549,281 L 549,282 L 550,282 L 551,282 L 551,281 L 552,281 L 553,281 L 554,281 L 555,281 L 556,281 L 557,281 L 557,280 L 558,280 L 558,279 L 558,278 L 558,277 L 559,277 L 559,276 L 559,275 L 560,275 L 561,275 L 562,275 L 563,275 L 564,275 L 565,275 L 566,275 L 566,276 L 567,276 L 568,276 L 568,275 L 568,274 L 569,274 L 570,274 L 570,273 L 571,273 L 572,273 L 573,273 L 574,273 L 574,274 L 575,274 L 576,274 L 577,274 L 577,273 L 577,272 L 577,271 L 577,270 L 578,270 L 577,269 L 576,269 L 576,268 L 576,267 L 577,267 L 577,268 L 578,268 L 579,267 L 580,267 L 580,266 L 579,266 L 579,265 L 578,265 L 577,265 L 576,265 L 576,266 L 575,266 L 575,267 L 574,267 L 574,268 L 573,268 L 572,268 L 572,269 L 571,269 L 570,269 L 570,270 L 569,270 L 568,270 L 567,270 L 567,269 L 568,269 L 568,268 L 569,268 L 569,267 L 569,266 L 570,265 L 570,264 L 570,263 L 569,263 L 569,262 L 567,262 L 566,262 L 565,263 L 564,263 L 564,262 L 563,261 L 563,262 L 563,263 L 563,264 L 563,265 L 563,266 L 564,266 L 564,267 L 564,268 L 563,268 L 561,268 L 560,268 L 560,267 L 560,266 L 561,265 L 561,264 L 560,264 L 560,263 L 559,263 L 558,263 L 557,263 L 557,262 L 557,261 L 557,260 L 557,259 L 558,259 L 558,258 L 558,257 L 558,256 L 559,256 L 560,256 L 561,256 L 562,256 L 563,255 L 564,255 L 565,254 L 566,253 L 566,252 L 567,251 L 568,250 L 569,250 L 569,249 L 570,249 L 571,249 L 571,250 L 572,250 L 573,250 L 574,250 L 575,250 L 575,251 L 576,251 L 576,250 L 577,250 L 577,249 L 578,249 L 578,248 L 578,247 L 578,246 L 578,245 L 578,244 L 578,243 L 579,242 L 579,241 L 580,241 L 581,241 L 581,240 L 580,239 L 579,238 L 579,237 L 580,237 L 580,236 L 580,235 L 581,235 L 582,235 L 583,236 L 583,235 L 583,234 L 583,233 L 583,232 L 583,231 L 583,230 L 583,229 L 582,229 L 581,229 L 580,229 L 580,228 L 580,227 L 581,227 L 582,227 L 583,227 L 584,227 L 585,228 L 586,228 L 587,228 L 587,229 L 587,230 L 587,231 L 588,230 L 588,229 L 588,228 L 589,228 L 590,228 L 591,228 L 591,229 L 592,229 L 593,229 L 593,230 L 593,231 L 592,231 L 592,232 L 592,233 L 593,233 L 593,232 L 594,232 L 594,231 L 594,230 L 594,229 L 594,228 L 594,227 L 595,227 L 596,227 L 597,227 L 598,227 L 599,227 L 600,226 L 601,225 L 601,224 L 602,224 L 603,224 L 604,224 L 605,224 L 605,225 L 606,225 L 607,226 L 608,226 L 609,227 L 610,227 L 611,227 L 612,227 L 612,228 L 613,228 L 614,229 L 615,229 L 615,228 L 616,228 L 616,227 L 617,228 L 617,227 L 617,226 L 616,226 L 616,225 L 616,224 L 616,223 L 615,222 L 614,220 L 613,219 L 612,218 L 611,217 L 610,217 L 610,216 L 609,216 L 609,215 L 608,216 L 608,217 L 607,217 L 607,218 L 606,218 L 605,218 L 605,217 L 604,217 L 603,217 L 602,217 L 602,216 L 603,216 L 603,215 L 603,214 L 602,214 L 603,213 L 604,213 L 605,213 L 605,212 L 606,212 L 607,212 L 607,211 L 608,211 L 609,211 L 609,210 L 610,209 L 611,209 L 610,209 L 610,210 L 609,210 L 609,211 L 610,211 L 610,210 L 611,210 L 612,210 L 612,209 L 613,209 L 614,209 L 614,208 L 615,208 L 615,207 L 616,207 L 617,207 L 617,206 L 617,205 L 616,205 L 615,205 L 615,204 L 615,203 L 614,203 L 614,202 L 614,201 L 613,201 L 612,201 L 612,200 L 613,200 L 614,200 L 614,199 L 615,199 L 616,199 L 616,198 L 617,198 L 617,199 L 618,199 L 619,199 L 620,199 L 620,198 L 621,198 L 621,197 L 621,196 L 621,195 L 621,194 L 621,193 L 620,193 L 620,192 L 621,192 L 621,191 L 620,191 L 620,190 L 621,190 L 622,190 L 622,189 L 623,189 L 624,189 L 625,189 L 626,189 L 627,189 L 628,189 L 629,189 L 630,189 L 631,190 L 632,190 L 633,190 L 634,190 L 635,190 L 636,191 L 637,191 L 638,191 L 640,191 L 641,191 L 641,192 L 641,193 L 642,193 L 643,193 L 644,193 L 644,192 L 644,191 L 643,190 L 643,189 L 644,188 L 645,189 L 646,189 L 647,189 L 648,190 L 649,190 L 650,190 L 651,191 L 651,192 L 652,193 L 652,192 L 652,191 L 653,190 L 654,190 L 655,189 L 656,189 L 657,188 L 658,188 L 659,188 L 659,189 L 660,189 L 660,190 L 661,190 L 662,191 L 662,192 " />
<path d="M 583,251 L 584,252 L 584,253 L 585,253 L 585,252 L 585,251 L 586,251 L 587,250 L 588,250 L 588,249 L 589,249 L 589,248 L 589,247 L 589,246 L 589,245 L 589,244 L 588,244 L 587,244 L 586,245 L 585,245 L 585,246 L 584,246 L 583,247 L 582,247 L 582,248 L 582,249 L 582,250 L 582,251 L 583,251 " />
</g>
<g id="19" class="st0 dist-block"  inkscape:label="Baliapal">
<path d="M 762,165 L 762,166 L 762,167 L 763,167 L 763,168 L 763,169 L 763,170 L 764,170 L 764,171 L 764,172 L 765,172 L 765,173 L 766,173 L 767,173 L 768,173 L 768,172 L 769,172 L 770,172 L 771,172 L 772,172 L 773,172 L 773,173 L 774,173 L 775,174 L 776,175 L 776,176 L 775,176 L 775,177 L 774,177 L 773,178 L 772,178 L 772,179 L 772,180 L 772,181 L 773,181 L 773,180 L 774,180 L 774,179 L 775,178 L 775,179 L 775,180 L 776,180 L 776,181 L 777,182 L 778,182 L 778,183 L 778,184 L 779,185 L 779,186 L 779,187 L 780,188 L 780,189 L 780,191 L 780,192 L 779,193 L 779,194 L 778,195 L 777,196 L 776,197 L 776,198 L 775,198 L 775,199 L 774,199 L 774,200 L 773,200 L 772,201 L 772,202 L 771,203 L 770,203 L 769,203 L 768,204 L 767,204 L 767,203 L 766,202 L 765,202 L 764,202 L 764,203 L 763,203 L 762,204 L 762,205 L 762,206 L 762,207 L 761,207 L 761,208 L 761,210 L 762,210 L 762,211 L 762,212 L 763,212 L 764,213 L 764,214 L 765,214 L 765,215 L 766,216 L 767,216 L 768,217 L 769,218 L 770,219 L 771,219 L 772,220 L 773,220 L 774,221 L 775,221 L 776,221 L 777,222 L 778,222 L 780,222 L 781,222 L 782,222 L 783,222 L 784,223 L 785,223 L 786,223 L 787,223 L 787,224 L 788,224 L 789,225 L 791,228 L 791,229 L 791,230 L 790,230 L 789,230 L 788,230 L 787,230 L 786,230 L 785,230 L 784,229 L 783,229 L 782,229 L 781,229 L 780,229 L 779,229 L 778,229 L 777,229 L 776,229 L 774,229 L 773,229 L 771,229 L 770,229 L 768,229 L 767,229 L 766,229 L 765,229 L 764,229 L 763,229 L 762,229 L 761,229 L 760,229 L 759,229 L 758,229 L 757,229 L 756,229 L 755,229 L 754,229 L 753,230 L 752,230 L 751,230 L 749,230 L 748,230 L 747,230 L 746,230 L 744,230 L 743,230 L 741,230 L 740,230 L 739,230 L 738,230 L 737,230 L 735,231 L 734,231 L 733,231 L 732,231 L 731,232 L 730,232 L 729,232 L 728,233 L 727,233 L 726,233 L 725,233 L 725,234 L 724,234 L 722,234 L 721,234 L 719,234 L 718,234 L 717,235 L 716,235 L 715,235 L 714,235 L 713,236 L 712,236 L 711,236 L 711,235 L 710,235 L 710,234 L 710,235 L 709,235 L 709,236 L 705,236 L 704,236 L 704,235 L 703,236 L 702,236 L 702,237 L 702,238 L 701,238 L 701,239 L 700,239 L 699,240 L 698,240 L 698,239 L 697,239 L 697,238 L 697,237 L 697,236 L 696,236 L 696,235 L 695,235 L 694,235 L 694,234 L 693,234 L 693,233 L 693,232 L 692,232 L 691,232 L 691,233 L 690,234 L 690,235 L 689,235 L 688,235 L 688,234 L 687,234 L 686,234 L 685,233 L 684,233 L 684,232 L 684,231 L 683,231 L 683,230 L 683,229 L 683,228 L 682,228 L 681,228 L 681,227 L 680,227 L 679,227 L 679,226 L 679,225 L 679,224 L 680,223 L 679,223 L 679,222 L 679,221 L 678,220 L 677,219 L 677,218 L 676,218 L 675,218 L 674,218 L 673,218 L 673,217 L 673,216 L 674,216 L 674,215 L 674,214 L 675,214 L 675,213 L 674,213 L 673,214 L 672,214 L 671,213 L 670,213 L 669,212 L 668,211 L 667,210 L 668,210 L 668,209 L 668,208 L 667,207 L 667,206 L 668,206 L 669,206 L 670,206 L 671,207 L 672,207 L 673,207 L 674,207 L 675,207 L 676,207 L 677,207 L 678,207 L 679,206 L 679,205 L 680,204 L 681,204 L 681,203 L 682,203 L 682,202 L 683,202 L 684,202 L 685,202 L 686,201 L 686,200 L 687,199 L 688,199 L 689,199 L 689,200 L 690,200 L 690,201 L 691,200 L 692,199 L 693,198 L 693,197 L 694,196 L 693,196 L 693,195 L 692,195 L 692,194 L 692,193 L 692,192 L 693,192 L 694,192 L 695,192 L 696,192 L 697,191 L 698,191 L 699,190 L 700,190 L 700,191 L 701,191 L 701,192 L 702,192 L 703,192 L 704,192 L 704,191 L 705,191 L 705,190 L 705,189 L 705,188 L 705,187 L 705,186 L 705,185 L 706,185 L 707,185 L 708,185 L 709,185 L 709,186 L 710,186 L 711,186 L 711,185 L 711,184 L 711,183 L 711,182 L 710,182 L 711,181 L 712,181 L 712,182 L 712,183 L 713,183 L 714,183 L 715,183 L 715,182 L 716,182 L 717,182 L 717,181 L 717,180 L 716,180 L 716,179 L 716,178 L 716,177 L 715,176 L 715,175 L 716,175 L 716,174 L 716,173 L 716,172 L 716,171 L 716,170 L 716,169 L 716,168 L 716,167 L 716,166 L 716,165 L 716,164 L 716,163 L 716,162 L 716,161 L 717,160 L 717,159 L 717,158 L 717,157 L 718,157 L 719,157 L 720,157 L 721,156 L 722,156 L 722,155 L 723,155 L 724,155 L 724,154 L 725,154 L 725,155 L 726,155 L 726,156 L 727,156 L 727,157 L 728,157 L 728,158 L 729,158 L 729,159 L 730,159 L 731,159 L 732,160 L 733,160 L 733,159 L 734,159 L 735,159 L 736,159 L 737,159 L 737,160 L 737,161 L 737,162 L 737,163 L 737,164 L 737,165 L 738,166 L 739,168 L 739,169 L 740,169 L 741,169 L 742,168 L 743,168 L 744,168 L 745,167 L 745,166 L 745,165 L 745,164 L 745,163 L 745,162 L 746,161 L 747,161 L 747,162 L 748,163 L 748,164 L 749,165 L 749,166 L 750,166 L 751,165 L 752,165 L 752,164 L 753,164 L 753,163 L 754,163 L 755,162 L 756,161 L 756,160 L 755,159 L 754,158 L 753,158 L 753,157 L 754,157 L 754,156 L 755,156 L 756,156 L 756,155 L 757,155 L 758,154 L 759,155 L 760,155 L 760,156 L 761,156 L 761,157 L 762,157 L 763,158 L 763,159 L 763,160 L 763,161 L 763,162 L 763,163 L 762,164 L 762,165 " />
</g>
<g id="40" class="st0 dist-block"  inkscape:label="Basta">
<path d="M 671,110 L 670,110 L 671,111 L 671,112 L 671,111 L 670,111 L 669,110 L 668,110 L 668,111 L 668,112 L 669,112 L 670,112 L 670,111 L 670,112 L 671,112 L 672,112 L 673,112 L 673,113 L 673,114 L 673,115 L 673,116 L 673,117 L 673,118 L 674,118 L 675,118 L 675,117 L 675,116 L 675,115 L 676,115 L 677,115 L 678,115 L 679,115 L 679,116 L 680,116 L 681,117 L 682,117 L 683,117 L 684,117 L 685,118 L 686,118 L 687,118 L 688,118 L 689,118 L 690,119 L 691,119 L 691,118 L 692,119 L 692,120 L 693,122 L 694,123 L 695,125 L 695,126 L 696,126 L 698,126 L 700,126 L 701,125 L 702,125 L 703,125 L 704,125 L 706,126 L 708,126 L 710,127 L 711,127 L 713,128 L 714,129 L 716,129 L 716,130 L 717,130 L 717,131 L 718,131 L 718,132 L 717,133 L 717,134 L 717,135 L 717,136 L 716,136 L 716,137 L 715,138 L 714,138 L 713,139 L 713,140 L 712,140 L 712,141 L 711,141 L 710,142 L 709,143 L 708,143 L 708,144 L 708,145 L 709,146 L 710,146 L 711,146 L 712,147 L 713,147 L 713,146 L 714,146 L 715,146 L 716,145 L 717,145 L 717,144 L 718,144 L 719,143 L 720,143 L 721,143 L 721,142 L 722,141 L 722,140 L 723,140 L 723,139 L 724,139 L 725,140 L 725,141 L 726,141 L 727,141 L 727,142 L 726,143 L 726,144 L 725,145 L 725,146 L 724,147 L 724,148 L 723,149 L 723,150 L 722,150 L 720,151 L 719,151 L 718,151 L 717,151 L 717,152 L 716,152 L 715,152 L 714,153 L 713,154 L 713,155 L 713,156 L 713,157 L 714,157 L 715,156 L 716,156 L 717,156 L 717,157 L 717,158 L 717,159 L 717,160 L 716,161 L 716,162 L 716,163 L 716,164 L 716,165 L 716,166 L 716,167 L 716,168 L 716,169 L 716,170 L 716,171 L 716,172 L 716,173 L 716,174 L 716,175 L 715,175 L 715,176 L 716,177 L 716,178 L 716,179 L 716,180 L 717,180 L 717,181 L 717,182 L 716,182 L 715,182 L 715,183 L 714,183 L 713,183 L 712,183 L 712,182 L 712,181 L 711,181 L 710,182 L 711,182 L 711,183 L 711,184 L 711,185 L 711,186 L 710,186 L 709,186 L 709,185 L 708,185 L 707,185 L 706,185 L 705,185 L 705,186 L 705,187 L 705,188 L 705,189 L 705,190 L 705,191 L 704,191 L 704,192 L 703,192 L 702,192 L 701,192 L 701,191 L 700,191 L 700,190 L 699,190 L 698,191 L 697,191 L 696,192 L 695,192 L 694,192 L 693,192 L 692,192 L 692,193 L 692,194 L 692,195 L 693,195 L 693,196 L 694,196 L 693,197 L 693,198 L 692,199 L 691,200 L 690,201 L 690,200 L 689,200 L 689,199 L 688,199 L 687,199 L 686,200 L 686,201 L 685,202 L 684,202 L 683,202 L 682,202 L 682,203 L 681,203 L 681,204 L 680,204 L 679,205 L 679,206 L 678,207 L 677,207 L 676,207 L 675,207 L 674,207 L 673,207 L 672,207 L 671,207 L 670,206 L 669,206 L 668,206 L 669,205 L 670,204 L 671,204 L 672,204 L 673,204 L 673,203 L 672,203 L 670,203 L 669,203 L 668,204 L 667,203 L 666,203 L 666,202 L 665,202 L 665,201 L 665,200 L 665,199 L 665,198 L 665,197 L 664,197 L 664,196 L 663,197 L 662,196 L 662,195 L 663,195 L 662,193 L 662,192 L 662,191 L 661,190 L 660,190 L 660,189 L 659,189 L 659,188 L 658,188 L 657,188 L 656,189 L 655,189 L 654,190 L 653,190 L 652,191 L 652,192 L 652,193 L 651,192 L 651,191 L 650,190 L 649,190 L 648,190 L 647,189 L 646,189 L 645,189 L 644,188 L 643,189 L 643,190 L 644,191 L 644,192 L 644,193 L 643,193 L 642,193 L 641,193 L 641,192 L 641,191 L 640,191 L 638,191 L 637,191 L 636,191 L 635,190 L 634,190 L 633,190 L 632,190 L 631,190 L 630,189 L 629,189 L 628,189 L 627,189 L 626,189 L 625,189 L 624,189 L 623,189 L 622,189 L 622,190 L 621,190 L 620,190 L 620,191 L 621,191 L 621,192 L 620,192 L 620,193 L 621,193 L 621,194 L 621,195 L 621,196 L 621,197 L 621,198 L 620,198 L 620,199 L 619,199 L 618,199 L 617,199 L 617,198 L 616,198 L 616,199 L 615,199 L 614,199 L 615,199 L 614,198 L 613,198 L 612,197 L 611,197 L 609,197 L 610,196 L 611,196 L 611,195 L 611,194 L 611,193 L 610,193 L 609,192 L 608,192 L 607,192 L 608,192 L 609,192 L 608,192 L 608,191 L 609,190 L 610,190 L 610,189 L 611,189 L 611,188 L 611,189 L 612,189 L 613,189 L 613,190 L 612,192 L 612,193 L 611,194 L 612,193 L 612,194 L 613,194 L 613,195 L 612,195 L 613,195 L 614,195 L 614,194 L 614,193 L 615,193 L 616,194 L 616,193 L 616,192 L 617,191 L 617,190 L 618,190 L 619,190 L 619,189 L 620,188 L 620,187 L 620,186 L 620,185 L 620,184 L 620,183 L 620,182 L 620,181 L 619,181 L 619,182 L 618,182 L 618,181 L 618,180 L 617,180 L 616,180 L 615,180 L 614,180 L 613,180 L 613,181 L 612,181 L 612,180 L 611,181 L 610,180 L 609,180 L 609,179 L 609,178 L 609,177 L 609,176 L 610,176 L 610,175 L 610,174 L 610,173 L 609,173 L 609,172 L 608,172 L 609,171 L 608,171 L 609,171 L 609,170 L 610,170 L 610,169 L 611,169 L 612,169 L 613,169 L 614,168 L 615,167 L 615,168 L 616,168 L 616,167 L 616,168 L 617,168 L 618,168 L 618,169 L 618,168 L 619,169 L 619,168 L 620,168 L 620,167 L 621,167 L 622,168 L 623,168 L 623,169 L 623,170 L 622,170 L 623,170 L 623,171 L 624,170 L 624,169 L 625,169 L 626,169 L 626,170 L 626,171 L 626,172 L 625,171 L 625,172 L 625,173 L 625,174 L 626,174 L 627,175 L 628,175 L 629,175 L 629,174 L 629,173 L 629,172 L 629,171 L 629,170 L 630,169 L 631,169 L 631,170 L 632,170 L 633,170 L 633,169 L 633,168 L 634,168 L 634,167 L 634,166 L 635,166 L 635,167 L 636,167 L 637,167 L 638,167 L 639,166 L 639,165 L 639,164 L 639,163 L 639,162 L 638,162 L 637,162 L 637,161 L 636,161 L 636,160 L 635,160 L 635,159 L 635,158 L 634,158 L 633,158 L 633,157 L 632,157 L 632,156 L 632,155 L 632,154 L 631,153 L 631,152 L 631,151 L 632,151 L 633,151 L 633,150 L 633,149 L 632,149 L 632,148 L 632,147 L 632,146 L 633,146 L 632,146 L 632,145 L 632,144 L 631,144 L 631,145 L 630,145 L 629,145 L 629,144 L 629,143 L 629,142 L 628,142 L 628,141 L 629,141 L 629,140 L 628,140 L 628,139 L 629,139 L 628,138 L 628,137 L 627,137 L 626,137 L 626,136 L 626,135 L 625,135 L 626,135 L 626,134 L 626,133 L 627,133 L 628,133 L 629,133 L 629,134 L 630,134 L 631,134 L 632,134 L 633,134 L 634,134 L 635,135 L 636,135 L 636,136 L 635,136 L 635,137 L 635,138 L 636,138 L 636,139 L 635,140 L 635,141 L 635,142 L 635,143 L 635,144 L 635,145 L 636,146 L 636,147 L 636,148 L 637,148 L 637,149 L 638,149 L 638,150 L 639,150 L 640,151 L 641,151 L 642,152 L 643,152 L 644,152 L 645,152 L 645,151 L 646,151 L 647,151 L 648,151 L 649,151 L 649,150 L 648,150 L 648,149 L 649,149 L 650,150 L 650,149 L 651,149 L 651,150 L 652,150 L 652,149 L 651,148 L 651,147 L 652,147 L 653,146 L 654,145 L 654,146 L 655,146 L 655,147 L 656,147 L 656,145 L 656,144 L 657,144 L 657,143 L 656,143 L 656,142 L 656,141 L 656,140 L 657,140 L 658,141 L 658,142 L 659,142 L 659,141 L 659,140 L 659,139 L 658,139 L 658,138 L 657,138 L 657,139 L 656,139 L 656,138 L 656,137 L 655,137 L 655,136 L 655,135 L 656,135 L 657,135 L 657,136 L 657,137 L 658,137 L 659,138 L 660,138 L 660,137 L 660,136 L 659,135 L 659,134 L 659,133 L 659,132 L 659,131 L 660,131 L 661,131 L 661,130 L 662,130 L 663,129 L 664,129 L 664,128 L 664,127 L 665,127 L 666,127 L 667,128 L 668,128 L 669,128 L 669,127 L 670,127 L 671,127 L 672,128 L 673,128 L 673,127 L 673,126 L 672,126 L 672,125 L 671,125 L 671,124 L 670,124 L 670,123 L 669,123 L 669,122 L 668,122 L 668,121 L 667,121 L 666,120 L 665,120 L 665,119 L 664,119 L 663,118 L 664,117 L 664,116 L 663,115 L 664,114 L 665,114 L 665,113 L 664,112 L 665,112 L 666,112 L 666,113 L 666,112 L 667,112 L 667,111 L 667,110 L 668,110 L 669,110 L 670,110 L 670,109 L 671,109 L 671,110 " />
</g>
<g id="54" class="st0 dist-block"  inkscape:label="Bhograi">
<path d="M 774,107 L 775,107 L 776,107 L 776,108 L 776,109 L 776,110 L 777,111 L 778,111 L 778,110 L 778,109 L 779,109 L 780,109 L 780,108 L 781,108 L 781,107 L 782,107 L 783,107 L 784,107 L 785,107 L 785,108 L 786,109 L 785,109 L 785,110 L 785,111 L 786,111 L 787,111 L 787,112 L 787,113 L 788,113 L 789,113 L 790,113 L 791,113 L 791,114 L 792,114 L 793,114 L 793,115 L 793,116 L 794,116 L 794,117 L 793,117 L 793,118 L 793,119 L 793,120 L 792,120 L 792,121 L 793,122 L 794,122 L 794,121 L 794,120 L 794,119 L 794,118 L 795,118 L 795,117 L 796,117 L 796,118 L 796,117 L 797,117 L 797,116 L 798,116 L 799,116 L 800,116 L 801,116 L 802,116 L 803,116 L 803,117 L 804,117 L 804,118 L 803,118 L 802,118 L 802,119 L 803,119 L 804,119 L 804,120 L 804,121 L 805,121 L 806,121 L 806,120 L 807,120 L 808,120 L 808,119 L 808,118 L 809,118 L 810,119 L 811,119 L 812,119 L 813,119 L 814,119 L 815,119 L 816,119 L 817,119 L 818,119 L 818,118 L 819,118 L 820,118 L 820,119 L 821,119 L 822,119 L 823,119 L 824,119 L 825,119 L 826,119 L 827,119 L 828,119 L 828,120 L 829,120 L 828,121 L 828,122 L 828,123 L 828,124 L 828,125 L 828,126 L 828,127 L 828,128 L 829,128 L 829,129 L 828,129 L 828,130 L 829,130 L 829,131 L 829,132 L 829,133 L 830,133 L 831,133 L 831,134 L 832,134 L 833,134 L 833,135 L 833,136 L 832,135 L 832,136 L 831,136 L 830,136 L 830,135 L 829,135 L 828,135 L 828,136 L 828,137 L 828,138 L 829,138 L 829,137 L 830,137 L 830,138 L 831,137 L 832,137 L 832,138 L 833,138 L 834,138 L 835,138 L 836,138 L 837,138 L 837,139 L 838,139 L 839,139 L 839,138 L 840,138 L 840,139 L 840,140 L 839,140 L 839,141 L 838,141 L 838,140 L 837,141 L 837,142 L 838,143 L 839,143 L 839,144 L 839,145 L 839,146 L 840,146 L 841,146 L 841,147 L 842,147 L 842,148 L 842,149 L 842,150 L 842,151 L 842,152 L 841,152 L 841,153 L 841,154 L 841,155 L 841,156 L 842,156 L 842,157 L 841,157 L 841,158 L 841,159 L 842,159 L 842,160 L 841,160 L 841,161 L 840,161 L 841,161 L 841,162 L 841,163 L 840,163 L 840,164 L 840,165 L 840,166 L 839,166 L 839,167 L 839,168 L 839,169 L 839,170 L 839,171 L 839,172 L 839,173 L 839,174 L 838,174 L 837,174 L 837,175 L 837,176 L 837,177 L 836,177 L 836,178 L 836,179 L 837,179 L 837,180 L 838,180 L 839,180 L 840,180 L 841,180 L 842,179 L 842,180 L 842,181 L 842,182 L 843,182 L 844,182 L 844,183 L 843,183 L 843,184 L 844,184 L 844,185 L 844,186 L 845,186 L 845,187 L 845,188 L 846,188 L 846,189 L 846,190 L 847,190 L 848,190 L 848,191 L 848,192 L 848,193 L 847,194 L 847,195 L 847,196 L 847,197 L 847,198 L 847,199 L 847,200 L 847,201 L 846,202 L 845,202 L 844,203 L 843,203 L 842,203 L 842,204 L 841,204 L 840,204 L 840,205 L 839,205 L 838,205 L 838,206 L 837,206 L 836,206 L 835,206 L 834,207 L 833,207 L 831,208 L 830,208 L 829,208 L 828,208 L 828,209 L 827,209 L 827,210 L 826,211 L 826,212 L 825,212 L 824,213 L 824,214 L 823,214 L 823,215 L 822,215 L 822,216 L 821,216 L 821,217 L 820,217 L 820,218 L 820,219 L 819,219 L 819,220 L 818,221 L 818,222 L 817,223 L 816,224 L 815,225 L 815,226 L 815,227 L 814,227 L 814,228 L 814,229 L 813,229 L 813,230 L 813,231 L 813,232 L 812,232 L 811,233 L 810,233 L 809,233 L 808,233 L 807,232 L 806,232 L 805,231 L 805,230 L 803,229 L 801,228 L 798,228 L 796,228 L 795,228 L 794,228 L 793,229 L 792,229 L 791,229 L 791,228 L 789,225 L 788,224 L 787,224 L 787,223 L 786,223 L 785,223 L 784,223 L 783,222 L 782,222 L 781,222 L 780,222 L 778,222 L 777,222 L 776,221 L 775,221 L 774,221 L 773,220 L 772,220 L 771,219 L 770,219 L 769,218 L 768,217 L 767,216 L 766,216 L 765,215 L 765,214 L 764,214 L 764,213 L 763,212 L 762,212 L 762,211 L 762,210 L 761,210 L 761,208 L 761,207 L 762,207 L 762,206 L 762,205 L 762,204 L 763,203 L 764,203 L 764,202 L 765,202 L 766,202 L 767,203 L 767,204 L 768,204 L 769,203 L 770,203 L 771,203 L 772,202 L 772,201 L 773,200 L 774,200 L 774,199 L 775,199 L 775,198 L 776,198 L 776,197 L 777,196 L 778,195 L 779,194 L 779,193 L 780,192 L 780,191 L 780,189 L 780,188 L 779,187 L 779,186 L 779,185 L 778,184 L 778,183 L 778,182 L 777,182 L 776,181 L 776,180 L 775,180 L 775,179 L 775,178 L 774,179 L 774,180 L 773,180 L 773,181 L 772,181 L 772,180 L 772,179 L 772,178 L 773,178 L 774,177 L 775,177 L 775,176 L 776,176 L 776,175 L 775,174 L 774,173 L 773,173 L 773,172 L 772,172 L 771,172 L 770,172 L 769,172 L 768,172 L 768,173 L 767,173 L 766,173 L 765,173 L 765,172 L 764,172 L 764,171 L 764,170 L 763,170 L 763,169 L 763,168 L 763,167 L 762,167 L 762,166 L 762,165 L 762,164 L 763,163 L 763,162 L 763,161 L 763,160 L 763,159 L 763,158 L 762,157 L 761,157 L 761,156 L 760,156 L 760,155 L 759,155 L 758,154 L 758,153 L 758,152 L 757,152 L 758,151 L 759,151 L 759,150 L 760,150 L 759,150 L 759,149 L 758,149 L 758,148 L 759,148 L 760,148 L 760,147 L 759,147 L 758,147 L 758,146 L 758,145 L 759,145 L 760,145 L 761,144 L 761,143 L 761,142 L 761,141 L 761,140 L 761,139 L 761,138 L 762,138 L 762,137 L 763,136 L 762,135 L 762,134 L 763,134 L 763,133 L 764,133 L 765,132 L 766,132 L 766,131 L 767,130 L 768,129 L 767,129 L 768,128 L 768,127 L 769,127 L 769,126 L 770,126 L 770,125 L 770,124 L 771,124 L 771,123 L 770,123 L 770,122 L 770,121 L 770,120 L 771,120 L 771,119 L 770,119 L 769,119 L 768,119 L 767,119 L 766,119 L 766,118 L 766,117 L 766,116 L 767,116 L 767,115 L 767,114 L 768,114 L 768,113 L 768,112 L 768,111 L 768,110 L 768,109 L 768,108 L 769,108 L 770,108 L 771,108 L 772,108 L 772,109 L 773,108 L 773,107 L 774,107 " />
</g>
<g id="129" class="st0 dist-block"  inkscape:label="Jaleswar">
<path d="M 708,22 L 709,22 L 710,22 L 710,21 L 711,21 L 711,20 L 712,20 L 713,20 L 714,20 L 715,20 L 715,19 L 716,19 L 717,20 L 718,21 L 719,21 L 720,22 L 721,22 L 722,23 L 723,22 L 724,22 L 725,22 L 726,22 L 726,23 L 726,24 L 726,25 L 727,26 L 727,27 L 728,28 L 728,29 L 729,30 L 729,31 L 730,32 L 731,32 L 731,33 L 732,33 L 733,33 L 734,33 L 734,34 L 734,35 L 734,36 L 733,36 L 733,37 L 732,37 L 732,38 L 732,39 L 732,40 L 733,40 L 733,41 L 734,41 L 734,42 L 734,43 L 734,44 L 734,45 L 733,45 L 732,46 L 731,46 L 731,47 L 730,47 L 729,47 L 728,48 L 727,49 L 727,50 L 727,51 L 727,52 L 728,53 L 729,54 L 729,55 L 730,55 L 730,56 L 731,56 L 731,57 L 732,58 L 732,59 L 733,60 L 733,61 L 734,61 L 734,62 L 735,63 L 735,64 L 735,65 L 736,65 L 736,66 L 735,66 L 735,67 L 735,68 L 735,69 L 735,70 L 734,70 L 734,71 L 734,72 L 733,72 L 733,73 L 734,74 L 734,75 L 734,76 L 734,77 L 735,77 L 736,77 L 737,77 L 737,78 L 738,78 L 739,78 L 739,79 L 739,80 L 738,80 L 738,81 L 739,81 L 739,82 L 740,82 L 740,83 L 741,83 L 742,84 L 741,85 L 742,85 L 742,86 L 742,87 L 742,88 L 743,88 L 743,89 L 744,89 L 744,90 L 744,91 L 743,92 L 742,92 L 741,92 L 741,93 L 741,94 L 742,94 L 743,94 L 743,95 L 744,95 L 745,95 L 746,95 L 747,95 L 746,96 L 747,96 L 747,97 L 747,98 L 746,98 L 746,99 L 747,99 L 747,100 L 747,101 L 748,101 L 749,101 L 750,101 L 750,102 L 751,102 L 752,102 L 752,101 L 753,101 L 753,100 L 754,100 L 754,99 L 754,98 L 755,98 L 756,98 L 757,98 L 757,99 L 757,100 L 756,101 L 757,101 L 758,101 L 758,102 L 758,103 L 759,103 L 759,104 L 760,104 L 761,104 L 762,104 L 763,104 L 763,105 L 763,106 L 763,107 L 764,107 L 764,106 L 765,106 L 766,106 L 766,107 L 766,106 L 767,105 L 768,105 L 769,105 L 768,105 L 768,106 L 768,107 L 768,108 L 768,109 L 768,110 L 768,111 L 768,112 L 768,113 L 768,114 L 767,114 L 767,115 L 767,116 L 766,116 L 766,117 L 766,118 L 766,119 L 767,119 L 768,119 L 769,119 L 770,119 L 771,119 L 771,120 L 770,120 L 770,121 L 770,122 L 770,123 L 771,123 L 771,124 L 770,124 L 770,125 L 770,126 L 769,126 L 769,127 L 768,127 L 768,128 L 767,129 L 768,129 L 767,130 L 766,131 L 766,132 L 765,132 L 764,133 L 763,133 L 763,134 L 762,134 L 762,135 L 763,136 L 762,137 L 762,138 L 761,138 L 761,139 L 761,140 L 761,141 L 761,142 L 761,143 L 761,144 L 760,145 L 759,145 L 758,145 L 758,146 L 758,147 L 759,147 L 760,147 L 760,148 L 759,148 L 758,148 L 758,149 L 759,149 L 759,150 L 760,150 L 759,150 L 759,151 L 758,151 L 757,152 L 758,152 L 758,153 L 758,154 L 757,155 L 756,155 L 756,156 L 755,156 L 754,156 L 754,157 L 753,157 L 753,158 L 754,158 L 755,159 L 756,160 L 756,161 L 755,162 L 754,163 L 753,163 L 753,164 L 752,164 L 752,165 L 751,165 L 750,166 L 749,166 L 749,165 L 748,164 L 748,163 L 747,162 L 747,161 L 746,161 L 745,162 L 745,163 L 745,164 L 745,165 L 745,166 L 745,167 L 744,168 L 743,168 L 742,168 L 741,169 L 740,169 L 739,169 L 739,168 L 738,166 L 737,165 L 737,164 L 737,163 L 737,162 L 737,161 L 737,160 L 737,159 L 736,159 L 735,159 L 734,159 L 733,159 L 733,160 L 732,160 L 731,159 L 730,159 L 729,159 L 729,158 L 728,158 L 728,157 L 727,157 L 727,156 L 726,156 L 726,155 L 725,155 L 725,154 L 724,154 L 724,155 L 723,155 L 722,155 L 722,156 L 721,156 L 720,157 L 719,157 L 718,157 L 717,157 L 717,156 L 716,156 L 715,156 L 714,157 L 713,157 L 713,156 L 713,155 L 713,154 L 714,153 L 715,152 L 716,152 L 717,152 L 717,151 L 718,151 L 719,151 L 720,151 L 722,150 L 723,150 L 723,149 L 724,148 L 724,147 L 725,146 L 725,145 L 726,144 L 726,143 L 727,142 L 727,141 L 726,141 L 725,141 L 725,140 L 724,139 L 723,139 L 723,140 L 722,140 L 722,141 L 721,142 L 721,143 L 720,143 L 719,143 L 718,144 L 717,144 L 717,145 L 716,145 L 715,146 L 714,146 L 713,146 L 713,147 L 712,147 L 711,146 L 710,146 L 709,146 L 708,145 L 708,144 L 708,143 L 709,143 L 710,142 L 711,141 L 712,141 L 712,140 L 713,140 L 713,139 L 714,138 L 715,138 L 716,137 L 716,136 L 717,136 L 717,135 L 717,134 L 717,133 L 718,132 L 718,131 L 717,131 L 717,130 L 716,130 L 716,129 L 714,129 L 713,128 L 711,127 L 710,127 L 708,126 L 706,126 L 704,125 L 703,125 L 702,125 L 701,125 L 700,126 L 698,126 L 696,126 L 695,126 L 695,125 L 694,123 L 693,122 L 692,120 L 692,119 L 691,118 L 692,118 L 692,117 L 692,116 L 692,115 L 692,114 L 693,113 L 693,112 L 693,111 L 692,110 L 693,110 L 694,111 L 695,111 L 696,110 L 697,109 L 697,108 L 697,107 L 697,106 L 696,106 L 696,105 L 696,104 L 696,103 L 696,102 L 696,101 L 696,100 L 695,100 L 695,99 L 696,99 L 696,98 L 697,97 L 698,97 L 698,98 L 699,99 L 699,100 L 699,101 L 699,102 L 700,102 L 700,103 L 700,104 L 700,105 L 701,105 L 701,106 L 701,107 L 701,108 L 702,108 L 703,108 L 703,107 L 703,106 L 703,105 L 702,104 L 702,103 L 702,102 L 701,102 L 700,102 L 700,101 L 700,100 L 700,99 L 700,98 L 699,98 L 699,97 L 698,96 L 697,96 L 697,95 L 696,95 L 695,94 L 694,94 L 693,93 L 692,93 L 692,92 L 691,92 L 690,91 L 689,91 L 688,90 L 687,90 L 687,89 L 686,89 L 685,89 L 684,89 L 684,88 L 683,88 L 682,87 L 681,87 L 680,86 L 679,86 L 678,85 L 677,84 L 676,84 L 676,83 L 675,83 L 673,82 L 673,80 L 673,79 L 672,78 L 671,77 L 671,76 L 671,75 L 670,75 L 669,75 L 668,75 L 667,74 L 666,74 L 665,74 L 664,73 L 663,73 L 663,72 L 662,71 L 662,70 L 661,70 L 661,69 L 661,68 L 661,67 L 660,67 L 660,66 L 660,65 L 660,64 L 660,63 L 660,62 L 660,61 L 660,60 L 660,59 L 661,59 L 661,58 L 661,57 L 661,56 L 661,55 L 660,54 L 660,53 L 659,53 L 657,52 L 657,51 L 657,50 L 658,50 L 658,49 L 659,48 L 659,47 L 660,46 L 660,45 L 661,44 L 662,44 L 663,44 L 664,44 L 664,43 L 663,43 L 664,43 L 664,42 L 664,41 L 665,41 L 665,40 L 666,40 L 667,40 L 668,40 L 669,40 L 669,39 L 670,39 L 671,39 L 673,39 L 674,39 L 675,39 L 676,39 L 677,40 L 678,40 L 679,40 L 680,40 L 681,40 L 682,39 L 683,39 L 684,38 L 684,37 L 685,37 L 685,36 L 686,36 L 687,35 L 688,35 L 689,34 L 690,34 L 691,33 L 692,33 L 693,32 L 692,32 L 692,31 L 692,30 L 691,30 L 691,29 L 692,29 L 692,28 L 692,27 L 692,26 L 691,26 L 691,25 L 692,24 L 693,23 L 693,22 L 693,21 L 693,20 L 692,20 L 692,19 L 692,18 L 692,17 L 693,16 L 694,15 L 695,15 L 695,14 L 695,13 L 695,12 L 696,12 L 696,11 L 697,11 L 697,12 L 697,13 L 698,13 L 698,14 L 699,14 L 699,15 L 699,16 L 700,16 L 702,17 L 702,18 L 703,18 L 704,19 L 705,19 L 706,20 L 707,20 L 708,21 L 708,22 " />
</g>
<g id="163" class="st0 dist-block"  inkscape:label="Khaira">
<path d="M 396,342 L 397,342 L 398,343 L 399,343 L 400,343 L 401,343 L 401,344 L 401,343 L 402,343 L 402,344 L 403,344 L 404,345 L 404,346 L 404,347 L 405,347 L 406,347 L 407,347 L 407,348 L 407,349 L 408,349 L 408,348 L 408,347 L 409,347 L 410,347 L 411,347 L 411,346 L 411,345 L 412,346 L 413,347 L 414,348 L 415,348 L 416,349 L 417,349 L 417,350 L 418,350 L 419,351 L 419,352 L 420,352 L 421,353 L 422,354 L 423,355 L 423,356 L 422,356 L 422,357 L 421,357 L 421,358 L 421,359 L 421,360 L 421,361 L 421,362 L 421,363 L 421,364 L 421,365 L 421,366 L 420,366 L 420,367 L 420,368 L 419,368 L 419,369 L 419,370 L 419,371 L 420,372 L 420,373 L 420,374 L 421,375 L 422,376 L 423,376 L 423,377 L 423,378 L 423,379 L 424,380 L 424,381 L 423,381 L 423,382 L 423,383 L 424,383 L 424,384 L 424,385 L 424,386 L 424,387 L 424,388 L 424,389 L 424,390 L 424,391 L 424,392 L 424,393 L 424,394 L 424,395 L 424,396 L 425,397 L 425,398 L 425,399 L 424,399 L 424,398 L 424,397 L 423,397 L 422,397 L 422,398 L 421,398 L 421,397 L 421,398 L 420,398 L 420,397 L 419,397 L 419,398 L 418,397 L 418,398 L 417,398 L 416,398 L 416,397 L 415,397 L 415,396 L 416,396 L 415,396 L 414,396 L 413,396 L 413,395 L 412,395 L 412,394 L 411,394 L 411,395 L 410,395 L 410,396 L 409,396 L 409,395 L 409,396 L 408,395 L 407,395 L 406,395 L 406,394 L 406,393 L 405,393 L 405,394 L 405,393 L 404,393 L 403,393 L 403,394 L 403,395 L 403,394 L 402,394 L 402,395 L 402,396 L 401,395 L 401,394 L 400,394 L 400,393 L 399,393 L 400,393 L 400,392 L 399,392 L 398,392 L 398,393 L 398,394 L 398,395 L 397,395 L 396,395 L 396,394 L 396,395 L 396,396 L 395,396 L 395,397 L 394,398 L 393,398 L 392,398 L 392,397 L 392,396 L 391,396 L 391,397 L 391,398 L 390,398 L 390,399 L 389,399 L 388,398 L 388,399 L 387,399 L 387,400 L 386,400 L 386,399 L 386,400 L 385,400 L 384,400 L 384,401 L 383,401 L 383,402 L 382,402 L 382,403 L 382,404 L 381,404 L 381,405 L 382,405 L 381,406 L 381,407 L 381,408 L 380,408 L 380,409 L 379,409 L 379,410 L 380,411 L 380,412 L 380,413 L 381,413 L 382,414 L 382,415 L 383,415 L 383,416 L 382,417 L 381,417 L 381,418 L 380,419 L 381,419 L 382,419 L 382,420 L 383,420 L 382,421 L 382,422 L 382,423 L 382,424 L 381,425 L 381,426 L 380,426 L 379,426 L 378,426 L 378,427 L 378,428 L 377,428 L 377,429 L 377,430 L 378,431 L 379,431 L 380,432 L 381,432 L 382,433 L 383,433 L 384,434 L 385,434 L 385,435 L 386,435 L 386,436 L 385,437 L 384,438 L 384,439 L 383,439 L 383,440 L 382,440 L 381,441 L 381,442 L 380,442 L 379,443 L 379,444 L 378,444 L 378,445 L 377,445 L 377,444 L 376,444 L 375,444 L 375,443 L 374,443 L 373,443 L 373,442 L 372,442 L 371,442 L 370,442 L 370,441 L 369,441 L 368,441 L 368,440 L 367,440 L 367,439 L 366,439 L 365,438 L 364,437 L 364,438 L 363,438 L 362,438 L 362,437 L 361,437 L 360,436 L 359,436 L 358,435 L 357,435 L 356,434 L 355,434 L 354,433 L 353,433 L 352,432 L 351,432 L 350,433 L 350,434 L 349,434 L 349,435 L 349,436 L 348,436 L 347,436 L 347,435 L 346,434 L 345,434 L 344,434 L 343,433 L 342,433 L 341,433 L 340,433 L 340,432 L 339,432 L 338,432 L 338,431 L 339,431 L 340,431 L 341,430 L 342,430 L 342,429 L 343,429 L 344,428 L 344,427 L 344,426 L 344,425 L 344,424 L 344,423 L 344,422 L 343,422 L 342,422 L 341,423 L 341,424 L 340,424 L 339,424 L 338,424 L 338,423 L 337,423 L 337,422 L 338,422 L 338,421 L 339,421 L 340,420 L 341,420 L 341,419 L 341,418 L 342,418 L 342,417 L 343,417 L 343,416 L 344,416 L 345,416 L 346,416 L 346,415 L 347,415 L 346,415 L 346,414 L 346,413 L 346,412 L 346,411 L 345,411 L 344,411 L 343,410 L 342,410 L 342,409 L 343,408 L 343,407 L 342,407 L 342,406 L 342,405 L 342,404 L 342,403 L 341,403 L 341,402 L 340,402 L 339,402 L 339,401 L 338,401 L 337,401 L 336,401 L 335,401 L 334,402 L 334,403 L 334,404 L 334,405 L 333,405 L 333,406 L 333,407 L 334,408 L 335,408 L 335,409 L 334,409 L 334,410 L 333,410 L 333,411 L 333,410 L 333,409 L 332,408 L 331,408 L 330,408 L 330,407 L 330,406 L 329,406 L 329,405 L 328,405 L 328,404 L 328,403 L 327,402 L 326,402 L 325,402 L 324,402 L 323,402 L 322,402 L 321,402 L 320,402 L 319,402 L 318,402 L 317,401 L 316,401 L 315,401 L 314,401 L 314,400 L 313,400 L 312,400 L 312,399 L 311,399 L 311,398 L 311,397 L 311,396 L 310,396 L 309,395 L 309,394 L 309,393 L 308,393 L 307,393 L 307,392 L 308,392 L 309,392 L 309,391 L 310,391 L 310,390 L 310,389 L 310,388 L 310,387 L 310,386 L 310,385 L 310,384 L 311,384 L 311,383 L 311,382 L 310,381 L 310,380 L 310,379 L 309,379 L 308,379 L 307,379 L 306,379 L 305,379 L 305,378 L 305,377 L 305,376 L 305,375 L 304,375 L 304,374 L 303,374 L 303,373 L 303,372 L 302,371 L 302,370 L 302,369 L 302,368 L 302,367 L 303,366 L 303,365 L 303,364 L 303,363 L 304,363 L 304,362 L 304,361 L 304,360 L 305,360 L 306,360 L 306,359 L 307,359 L 308,359 L 308,358 L 309,358 L 310,357 L 311,357 L 312,357 L 313,357 L 314,357 L 314,356 L 315,356 L 316,355 L 317,355 L 318,354 L 319,353 L 319,352 L 320,352 L 320,351 L 321,351 L 322,351 L 322,350 L 323,350 L 324,350 L 325,350 L 326,350 L 327,350 L 328,349 L 328,348 L 329,348 L 330,347 L 331,347 L 331,346 L 332,346 L 333,346 L 334,345 L 335,345 L 336,345 L 337,346 L 337,347 L 337,348 L 338,348 L 338,349 L 339,350 L 340,350 L 340,351 L 341,351 L 341,350 L 342,350 L 342,351 L 343,351 L 344,352 L 345,353 L 345,354 L 346,354 L 346,355 L 347,355 L 348,356 L 349,356 L 349,357 L 350,357 L 351,358 L 352,358 L 352,359 L 353,359 L 354,359 L 355,359 L 355,360 L 356,360 L 356,361 L 356,362 L 356,363 L 357,363 L 357,364 L 358,364 L 359,364 L 359,363 L 359,362 L 359,361 L 359,360 L 359,359 L 358,359 L 358,358 L 357,358 L 357,357 L 357,356 L 358,356 L 359,355 L 359,354 L 359,353 L 359,352 L 359,351 L 359,350 L 359,349 L 360,349 L 360,348 L 361,349 L 362,350 L 363,350 L 363,351 L 364,351 L 365,352 L 366,352 L 367,352 L 368,352 L 368,353 L 369,353 L 369,354 L 370,354 L 370,355 L 371,355 L 371,356 L 372,356 L 372,355 L 373,355 L 374,355 L 374,354 L 374,353 L 375,353 L 376,353 L 376,352 L 377,352 L 377,351 L 378,351 L 378,350 L 378,349 L 379,349 L 379,348 L 378,348 L 378,347 L 377,347 L 377,346 L 377,345 L 377,344 L 377,343 L 377,342 L 378,342 L 379,342 L 380,342 L 380,343 L 381,343 L 382,344 L 383,344 L 383,345 L 384,345 L 385,344 L 385,343 L 386,343 L 386,342 L 386,341 L 387,341 L 387,342 L 387,343 L 387,344 L 388,345 L 388,344 L 389,345 L 390,345 L 390,344 L 390,343 L 390,344 L 391,344 L 391,343 L 392,342 L 392,341 L 393,340 L 393,339 L 394,339 L 394,340 L 395,340 L 395,341 L 395,342 L 396,342 " />
</g>
<g id="272" class="st0 dist-block"   inkscape:label="Remuna">
<path d="M 585,253 L 584,253 L 584,252 L 583,251 L 582,251 L 582,250 L 582,249 L 582,248 L 582,247 L 583,247 L 584,246 L 585,246 L 585,245 L 586,245 L 587,244 L 588,244 L 589,244 L 589,245 L 589,246 L 589,247 L 589,248 L 589,249 L 588,249 L 588,250 L 587,250 L 586,251 L 585,251 L 585,252 L 585,253 " />
<path d="M 557,194 L 558,193 L 559,193 L 559,194 L 560,194 L 561,195 L 560,195 L 560,196 L 560,197 L 560,198 L 561,198 L 561,199 L 561,200 L 562,200 L 563,200 L 564,201 L 565,201 L 565,200 L 566,200 L 566,201 L 565,201 L 565,202 L 566,202 L 566,203 L 567,204 L 567,205 L 568,205 L 568,206 L 568,207 L 569,207 L 569,208 L 568,208 L 568,207 L 567,207 L 567,208 L 567,209 L 567,210 L 568,210 L 568,209 L 568,208 L 569,208 L 569,209 L 569,210 L 570,210 L 571,211 L 571,212 L 571,213 L 570,213 L 570,214 L 570,215 L 570,216 L 570,217 L 571,217 L 571,216 L 572,216 L 573,216 L 574,216 L 574,215 L 574,214 L 575,214 L 575,213 L 576,212 L 576,211 L 577,212 L 578,212 L 578,213 L 579,213 L 579,214 L 579,215 L 580,215 L 581,215 L 581,216 L 582,216 L 582,217 L 583,217 L 584,217 L 585,217 L 586,218 L 586,219 L 587,219 L 588,219 L 589,219 L 590,220 L 591,220 L 592,220 L 593,220 L 594,220 L 594,219 L 593,219 L 593,218 L 592,218 L 592,217 L 591,217 L 591,216 L 591,215 L 592,215 L 593,215 L 593,214 L 593,213 L 592,213 L 592,212 L 592,211 L 592,210 L 592,209 L 593,209 L 594,209 L 594,208 L 595,209 L 595,210 L 596,210 L 596,211 L 595,211 L 595,212 L 595,213 L 594,213 L 594,214 L 594,215 L 594,216 L 594,217 L 595,217 L 595,216 L 596,216 L 596,215 L 597,215 L 597,214 L 597,213 L 598,213 L 598,212 L 598,213 L 599,213 L 599,212 L 599,213 L 600,213 L 600,214 L 601,214 L 602,214 L 603,214 L 603,215 L 603,216 L 602,216 L 602,217 L 603,217 L 604,217 L 605,217 L 605,218 L 606,218 L 607,218 L 607,217 L 608,217 L 608,216 L 609,215 L 609,216 L 610,216 L 610,217 L 611,217 L 612,218 L 613,219 L 614,220 L 615,222 L 616,223 L 616,224 L 616,225 L 616,226 L 617,226 L 617,227 L 617,228 L 616,227 L 616,228 L 615,228 L 615,229 L 614,229 L 613,228 L 612,228 L 612,227 L 611,227 L 610,227 L 609,227 L 608,226 L 607,226 L 606,225 L 605,225 L 605,224 L 604,224 L 603,224 L 602,224 L 601,224 L 601,225 L 600,226 L 599,227 L 598,227 L 597,227 L 596,227 L 595,227 L 594,227 L 594,228 L 594,229 L 594,230 L 594,231 L 594,232 L 593,232 L 593,233 L 592,233 L 592,232 L 592,231 L 593,231 L 593,230 L 593,229 L 592,229 L 591,229 L 591,228 L 590,228 L 589,228 L 588,228 L 588,229 L 588,230 L 587,231 L 587,230 L 587,229 L 587,228 L 586,228 L 585,228 L 584,227 L 583,227 L 582,227 L 581,227 L 580,227 L 580,228 L 580,229 L 581,229 L 582,229 L 583,229 L 583,230 L 583,231 L 583,232 L 583,233 L 583,234 L 583,235 L 583,236 L 582,235 L 581,235 L 580,235 L 580,236 L 580,237 L 579,237 L 579,238 L 580,239 L 581,240 L 581,241 L 580,241 L 579,241 L 579,242 L 578,243 L 578,244 L 578,245 L 578,246 L 578,247 L 578,248 L 578,249 L 577,249 L 577,250 L 576,250 L 576,251 L 575,251 L 575,250 L 574,250 L 573,250 L 572,250 L 571,250 L 571,249 L 570,249 L 569,249 L 569,250 L 568,250 L 567,251 L 566,252 L 566,253 L 565,254 L 564,255 L 563,255 L 562,256 L 561,256 L 560,256 L 559,256 L 558,256 L 558,257 L 558,258 L 558,259 L 557,259 L 557,260 L 557,261 L 557,262 L 557,263 L 558,263 L 559,263 L 560,263 L 560,264 L 561,264 L 561,265 L 560,266 L 560,267 L 560,268 L 561,268 L 563,268 L 564,268 L 564,267 L 564,266 L 563,266 L 563,265 L 563,264 L 563,263 L 563,262 L 563,261 L 564,262 L 564,263 L 565,263 L 566,262 L 567,262 L 569,262 L 569,263 L 570,263 L 570,264 L 570,265 L 569,266 L 569,267 L 569,268 L 568,268 L 568,269 L 567,269 L 567,270 L 568,270 L 569,270 L 570,270 L 570,269 L 571,269 L 572,269 L 572,268 L 573,268 L 574,268 L 574,267 L 575,267 L 575,266 L 576,266 L 576,265 L 577,265 L 578,265 L 579,265 L 579,266 L 580,266 L 580,267 L 579,267 L 578,268 L 577,268 L 577,267 L 576,267 L 576,268 L 576,269 L 577,269 L 578,270 L 577,270 L 577,271 L 577,272 L 577,273 L 577,274 L 576,274 L 575,274 L 574,274 L 574,273 L 573,273 L 572,273 L 571,273 L 570,273 L 570,274 L 569,274 L 568,274 L 568,275 L 568,276 L 567,276 L 566,276 L 566,275 L 565,275 L 564,275 L 563,275 L 562,275 L 561,275 L 560,275 L 559,275 L 559,276 L 559,277 L 558,277 L 558,278 L 558,279 L 558,280 L 557,280 L 557,281 L 556,281 L 555,281 L 554,281 L 553,281 L 552,281 L 551,281 L 551,282 L 550,282 L 549,282 L 549,281 L 548,281 L 547,282 L 548,282 L 548,283 L 548,284 L 548,285 L 548,286 L 549,287 L 549,288 L 549,289 L 549,290 L 549,291 L 550,291 L 550,292 L 551,292 L 551,293 L 551,294 L 551,295 L 552,295 L 553,296 L 553,297 L 554,297 L 554,298 L 555,298 L 554,298 L 554,299 L 554,300 L 554,301 L 554,302 L 553,302 L 553,303 L 553,304 L 554,305 L 555,305 L 555,306 L 555,307 L 554,307 L 555,307 L 555,308 L 554,308 L 554,309 L 555,309 L 556,309 L 556,310 L 555,310 L 555,311 L 555,312 L 555,313 L 556,313 L 556,314 L 556,315 L 556,316 L 557,315 L 558,315 L 558,316 L 557,316 L 558,317 L 557,317 L 557,318 L 558,318 L 558,319 L 559,319 L 560,319 L 560,320 L 561,320 L 561,321 L 562,321 L 562,322 L 561,322 L 561,323 L 561,324 L 560,324 L 560,325 L 560,326 L 561,326 L 561,327 L 562,327 L 563,327 L 563,328 L 564,328 L 565,328 L 566,328 L 566,329 L 567,329 L 568,329 L 568,330 L 569,330 L 570,330 L 570,331 L 571,331 L 571,332 L 572,332 L 573,332 L 573,331 L 573,330 L 572,330 L 572,329 L 573,329 L 574,330 L 575,330 L 575,331 L 576,331 L 577,331 L 577,332 L 578,332 L 579,332 L 579,333 L 580,333 L 581,333 L 584,336 L 585,337 L 584,338 L 583,339 L 582,340 L 582,341 L 581,342 L 581,343 L 580,344 L 579,345 L 579,346 L 578,347 L 577,349 L 576,352 L 575,354 L 574,355 L 573,357 L 572,358 L 572,359 L 571,361 L 570,362 L 569,365 L 568,366 L 567,368 L 565,366 L 559,363 L 558,363 L 557,363 L 556,363 L 555,364 L 555,363 L 554,363 L 554,362 L 553,362 L 552,361 L 551,360 L 550,360 L 549,359 L 548,359 L 547,359 L 547,358 L 548,358 L 548,359 L 549,358 L 549,357 L 550,357 L 550,356 L 551,356 L 551,355 L 551,354 L 551,353 L 551,352 L 551,351 L 551,350 L 552,350 L 552,349 L 552,348 L 551,348 L 551,347 L 550,347 L 549,347 L 549,346 L 548,346 L 548,345 L 547,345 L 547,344 L 548,344 L 548,343 L 548,342 L 548,341 L 547,341 L 546,340 L 545,340 L 544,341 L 543,341 L 542,341 L 542,340 L 542,339 L 542,338 L 543,337 L 543,336 L 544,336 L 544,335 L 545,335 L 546,335 L 546,334 L 545,334 L 545,335 L 544,335 L 544,334 L 543,334 L 543,335 L 542,335 L 541,335 L 540,334 L 539,334 L 538,334 L 537,334 L 536,334 L 536,333 L 535,333 L 534,333 L 533,333 L 532,333 L 532,334 L 532,335 L 531,336 L 530,336 L 530,335 L 530,334 L 530,333 L 530,332 L 530,331 L 530,330 L 530,329 L 531,329 L 531,328 L 531,327 L 532,327 L 532,326 L 532,325 L 531,325 L 531,324 L 532,323 L 533,323 L 533,322 L 533,321 L 534,321 L 534,320 L 534,319 L 534,318 L 534,317 L 534,316 L 534,315 L 535,315 L 535,314 L 535,313 L 535,312 L 534,312 L 533,312 L 533,311 L 532,311 L 531,310 L 531,309 L 531,308 L 532,308 L 533,308 L 534,308 L 534,307 L 534,306 L 534,305 L 533,304 L 532,303 L 531,303 L 531,302 L 530,302 L 529,302 L 529,303 L 528,303 L 527,303 L 526,303 L 526,302 L 526,301 L 526,300 L 526,299 L 526,298 L 527,298 L 527,297 L 526,297 L 525,297 L 525,296 L 525,297 L 524,297 L 524,296 L 523,296 L 522,296 L 521,296 L 521,295 L 520,295 L 520,294 L 519,294 L 519,293 L 518,293 L 518,292 L 517,291 L 517,290 L 516,290 L 516,289 L 516,288 L 516,287 L 517,287 L 517,286 L 516,286 L 517,285 L 517,284 L 518,284 L 518,283 L 518,282 L 518,281 L 518,280 L 519,280 L 520,280 L 521,279 L 521,278 L 521,277 L 522,276 L 522,277 L 523,277 L 524,277 L 523,276 L 523,275 L 522,275 L 522,274 L 523,274 L 523,273 L 523,272 L 523,271 L 522,270 L 521,270 L 520,270 L 519,270 L 518,270 L 518,269 L 519,269 L 519,268 L 518,268 L 517,268 L 517,267 L 518,267 L 518,266 L 518,265 L 518,264 L 519,264 L 520,263 L 520,262 L 521,262 L 521,261 L 522,261 L 522,260 L 522,259 L 523,259 L 523,258 L 524,257 L 524,256 L 523,255 L 524,254 L 523,254 L 522,254 L 521,254 L 521,255 L 520,255 L 519,255 L 519,256 L 517,256 L 516,256 L 516,255 L 516,254 L 517,254 L 517,253 L 518,253 L 519,252 L 520,252 L 520,251 L 519,251 L 519,250 L 520,250 L 520,249 L 521,249 L 521,248 L 521,247 L 522,247 L 523,247 L 524,247 L 525,247 L 525,248 L 525,247 L 526,247 L 526,246 L 525,246 L 525,245 L 524,245 L 524,244 L 524,243 L 525,243 L 525,242 L 526,242 L 526,241 L 525,241 L 524,241 L 524,240 L 524,239 L 524,238 L 523,236 L 523,235 L 523,234 L 524,234 L 525,234 L 525,233 L 525,232 L 525,231 L 525,230 L 526,230 L 527,230 L 527,231 L 528,230 L 528,229 L 528,228 L 528,227 L 528,226 L 529,225 L 529,224 L 528,223 L 528,222 L 528,221 L 529,221 L 529,220 L 529,219 L 530,219 L 530,218 L 529,217 L 529,216 L 528,216 L 527,216 L 527,217 L 526,216 L 525,217 L 524,217 L 523,217 L 522,217 L 521,217 L 520,216 L 519,216 L 519,217 L 519,218 L 520,218 L 520,219 L 520,220 L 520,221 L 519,221 L 518,221 L 517,221 L 516,221 L 515,221 L 514,221 L 513,221 L 513,220 L 513,219 L 513,218 L 514,217 L 514,216 L 515,215 L 515,214 L 515,213 L 515,212 L 515,211 L 515,210 L 515,209 L 515,208 L 516,208 L 516,207 L 516,206 L 515,206 L 515,205 L 515,204 L 516,204 L 517,204 L 518,203 L 519,203 L 520,202 L 521,202 L 522,202 L 523,202 L 524,203 L 525,203 L 526,203 L 526,204 L 527,204 L 528,204 L 529,204 L 530,204 L 531,204 L 532,204 L 532,203 L 532,202 L 533,202 L 533,203 L 534,203 L 534,204 L 535,204 L 535,205 L 536,205 L 536,206 L 537,206 L 538,207 L 539,207 L 539,206 L 540,205 L 540,204 L 541,204 L 541,205 L 542,206 L 542,205 L 543,205 L 544,205 L 544,206 L 545,206 L 545,207 L 546,207 L 546,208 L 547,208 L 548,208 L 549,208 L 548,209 L 548,210 L 548,211 L 549,211 L 550,211 L 550,210 L 550,209 L 551,209 L 551,208 L 551,207 L 552,206 L 552,205 L 553,204 L 553,205 L 554,205 L 554,204 L 555,204 L 555,203 L 555,202 L 556,201 L 556,200 L 557,200 L 558,200 L 559,200 L 560,200 L 559,200 L 559,199 L 558,199 L 558,198 L 557,198 L 557,197 L 556,197 L 555,197 L 554,196 L 553,196 L 553,195 L 553,194 L 553,193 L 553,192 L 553,191 L 553,190 L 553,189 L 553,188 L 554,188 L 554,187 L 555,187 L 555,188 L 556,188 L 555,188 L 555,189 L 555,190 L 556,190 L 556,191 L 557,191 L 556,192 L 557,192 L 557,193 L 557,194 " />
<path d="M 523,264 L 524,264 L 525,264 L 526,264 L 526,265 L 526,264 L 527,263 L 527,262 L 526,262 L 525,262 L 525,261 L 524,261 L 523,261 L 523,262 L 522,262 L 522,263 L 522,264 L 523,264 " />
<path d="M 549,359 L 550,359 L 551,359 L 552,359 L 552,358 L 551,358 L 551,357 L 550,357 L 550,358 L 549,358 L 549,359 " />
</g>
<g id="283" class="st0 dist-block"  inkscape:label="Simulia">
<path d="M 399,392 L 400,392 L 400,393 L 399,393 L 400,393 L 400,394 L 401,394 L 401,395 L 402,396 L 402,395 L 402,394 L 403,394 L 403,395 L 403,394 L 403,393 L 404,393 L 405,393 L 405,394 L 405,393 L 406,393 L 406,394 L 406,395 L 407,395 L 408,395 L 409,396 L 409,395 L 409,396 L 410,396 L 410,395 L 411,395 L 411,394 L 412,394 L 412,395 L 413,395 L 413,396 L 414,396 L 415,396 L 416,396 L 415,396 L 415,397 L 416,397 L 416,398 L 417,398 L 418,398 L 418,397 L 419,398 L 419,397 L 420,397 L 420,398 L 421,398 L 421,397 L 421,398 L 422,398 L 422,397 L 423,397 L 424,397 L 424,398 L 424,399 L 425,399 L 425,398 L 425,397 L 426,397 L 426,398 L 426,397 L 427,397 L 428,397 L 428,398 L 428,399 L 429,399 L 430,399 L 430,400 L 431,400 L 432,400 L 433,400 L 433,401 L 434,401 L 434,402 L 434,401 L 435,401 L 435,400 L 436,400 L 437,401 L 437,400 L 438,400 L 438,401 L 439,401 L 440,401 L 441,401 L 441,402 L 442,402 L 442,401 L 443,401 L 443,402 L 444,402 L 443,401 L 444,401 L 444,402 L 445,402 L 445,401 L 446,401 L 446,402 L 447,402 L 448,402 L 448,403 L 447,403 L 447,404 L 448,404 L 449,404 L 449,405 L 449,406 L 450,406 L 451,405 L 452,405 L 452,404 L 453,404 L 453,405 L 452,405 L 453,405 L 454,405 L 453,405 L 453,404 L 454,404 L 455,403 L 455,402 L 456,402 L 456,403 L 457,403 L 457,402 L 458,402 L 458,403 L 457,404 L 458,404 L 459,404 L 459,405 L 459,406 L 460,406 L 461,407 L 461,406 L 462,406 L 462,407 L 461,407 L 462,408 L 463,408 L 463,409 L 464,409 L 464,408 L 465,408 L 465,409 L 466,409 L 466,408 L 465,408 L 465,407 L 466,407 L 466,406 L 467,406 L 468,406 L 468,405 L 468,406 L 467,407 L 467,408 L 468,408 L 468,407 L 469,407 L 469,408 L 468,408 L 468,409 L 468,410 L 469,410 L 469,409 L 470,409 L 471,409 L 472,409 L 473,410 L 473,411 L 474,411 L 475,411 L 475,410 L 476,410 L 476,409 L 477,409 L 478,409 L 479,410 L 478,410 L 477,410 L 477,411 L 476,411 L 475,411 L 475,412 L 476,413 L 477,413 L 477,412 L 478,412 L 479,412 L 479,413 L 480,413 L 481,413 L 481,414 L 481,415 L 482,415 L 482,416 L 482,417 L 482,418 L 482,419 L 482,420 L 482,421 L 483,421 L 483,422 L 484,422 L 484,423 L 485,423 L 485,424 L 484,424 L 484,425 L 483,424 L 482,424 L 481,424 L 480,424 L 480,423 L 479,423 L 478,423 L 477,423 L 477,422 L 476,422 L 475,422 L 474,422 L 473,421 L 472,421 L 471,421 L 470,421 L 469,421 L 469,422 L 468,423 L 468,424 L 468,425 L 467,425 L 467,426 L 466,426 L 466,427 L 465,427 L 465,428 L 465,429 L 464,429 L 464,430 L 463,430 L 462,429 L 462,428 L 461,428 L 460,428 L 459,428 L 458,428 L 457,428 L 456,428 L 456,429 L 455,429 L 455,430 L 454,431 L 454,432 L 453,433 L 453,434 L 452,434 L 452,435 L 451,436 L 451,437 L 451,438 L 452,438 L 452,439 L 453,439 L 453,440 L 453,441 L 452,442 L 452,443 L 452,444 L 451,444 L 450,445 L 450,446 L 449,446 L 449,447 L 448,447 L 448,448 L 448,449 L 447,449 L 447,450 L 448,450 L 449,451 L 450,452 L 449,452 L 449,453 L 449,454 L 448,454 L 448,455 L 447,456 L 447,457 L 447,458 L 446,458 L 446,459 L 446,460 L 446,461 L 446,462 L 446,463 L 446,464 L 447,464 L 448,464 L 449,464 L 450,465 L 451,465 L 452,465 L 452,466 L 452,467 L 452,468 L 451,469 L 451,470 L 451,471 L 451,472 L 450,472 L 449,472 L 448,472 L 447,472 L 446,471 L 445,471 L 444,471 L 444,470 L 444,471 L 443,472 L 442,473 L 442,474 L 441,474 L 442,474 L 442,475 L 442,476 L 443,476 L 443,477 L 444,477 L 444,478 L 444,479 L 444,480 L 443,480 L 444,481 L 444,482 L 444,483 L 444,484 L 443,484 L 442,484 L 442,483 L 441,483 L 440,483 L 439,484 L 439,483 L 438,483 L 437,483 L 437,482 L 436,482 L 436,481 L 435,480 L 434,480 L 434,479 L 433,479 L 433,478 L 433,477 L 433,476 L 434,476 L 434,475 L 434,474 L 434,473 L 435,473 L 435,472 L 435,471 L 435,470 L 436,470 L 436,469 L 435,469 L 435,468 L 435,469 L 435,468 L 435,467 L 434,467 L 434,468 L 433,468 L 433,467 L 432,467 L 431,467 L 431,466 L 430,466 L 430,465 L 429,466 L 429,465 L 428,465 L 427,465 L 426,465 L 425,465 L 424,465 L 423,465 L 422,465 L 421,465 L 420,465 L 419,465 L 419,466 L 418,466 L 417,466 L 417,465 L 416,465 L 415,464 L 416,464 L 416,463 L 416,462 L 416,461 L 416,460 L 416,459 L 416,458 L 415,458 L 415,457 L 414,457 L 414,456 L 414,455 L 413,455 L 412,455 L 411,455 L 411,454 L 411,453 L 411,452 L 412,452 L 411,452 L 411,451 L 410,451 L 409,451 L 408,451 L 408,450 L 408,449 L 408,448 L 408,447 L 407,447 L 407,446 L 406,446 L 406,445 L 405,445 L 405,444 L 404,444 L 404,443 L 403,443 L 402,442 L 402,441 L 402,440 L 402,439 L 403,439 L 403,438 L 403,437 L 402,437 L 402,436 L 402,435 L 401,435 L 401,434 L 400,434 L 399,434 L 398,434 L 397,433 L 396,433 L 395,433 L 394,433 L 393,433 L 392,433 L 391,434 L 390,433 L 389,433 L 389,434 L 388,434 L 388,433 L 387,433 L 387,434 L 386,434 L 386,435 L 385,435 L 385,434 L 384,434 L 383,433 L 382,433 L 381,432 L 380,432 L 379,431 L 378,431 L 377,430 L 377,429 L 377,428 L 378,428 L 378,427 L 378,426 L 379,426 L 380,426 L 381,426 L 381,425 L 382,424 L 382,423 L 382,422 L 382,421 L 383,420 L 382,420 L 382,419 L 381,419 L 380,419 L 381,418 L 381,417 L 382,417 L 383,416 L 383,415 L 382,415 L 382,414 L 381,413 L 380,413 L 380,412 L 380,411 L 379,410 L 379,409 L 380,409 L 380,408 L 381,408 L 381,407 L 381,406 L 382,405 L 381,405 L 381,404 L 382,404 L 382,403 L 382,402 L 383,402 L 383,401 L 384,401 L 384,400 L 385,400 L 386,400 L 386,399 L 386,400 L 387,400 L 387,399 L 388,399 L 388,398 L 389,399 L 390,399 L 390,398 L 391,398 L 391,397 L 391,396 L 392,396 L 392,397 L 392,398 L 393,398 L 394,398 L 395,397 L 395,396 L 396,396 L 396,395 L 396,394 L 396,395 L 397,395 L 398,395 L 398,394 L 398,393 L 398,392 L 399,392 " />
</g>
<g id="287" class="st0 dist-block"  inkscape:label="Soro">
<path d="M 448,311 L 449,311 L 450,311 L 451,311 L 452,311 L 452,312 L 452,313 L 453,313 L 453,314 L 452,315 L 452,316 L 453,316 L 453,317 L 453,318 L 453,319 L 453,320 L 453,321 L 454,321 L 454,322 L 454,323 L 454,324 L 454,325 L 454,326 L 454,327 L 455,327 L 456,327 L 457,327 L 458,327 L 459,326 L 460,326 L 461,326 L 461,327 L 462,328 L 463,328 L 463,329 L 464,329 L 464,330 L 465,331 L 466,332 L 467,333 L 468,333 L 468,334 L 469,334 L 469,335 L 470,335 L 471,335 L 471,336 L 471,337 L 471,338 L 470,339 L 470,340 L 469,340 L 469,341 L 469,342 L 469,343 L 468,343 L 468,344 L 468,345 L 467,345 L 467,346 L 468,346 L 468,347 L 468,348 L 469,348 L 469,349 L 470,349 L 470,350 L 470,349 L 471,349 L 471,348 L 472,348 L 472,347 L 473,347 L 474,347 L 474,348 L 475,348 L 475,347 L 476,347 L 477,347 L 477,348 L 478,348 L 479,348 L 479,349 L 480,349 L 480,350 L 479,350 L 479,351 L 480,351 L 480,352 L 481,352 L 481,353 L 482,353 L 482,354 L 483,354 L 484,354 L 484,355 L 485,355 L 485,356 L 485,357 L 484,357 L 485,357 L 485,358 L 486,358 L 486,359 L 487,359 L 488,359 L 489,359 L 489,360 L 489,361 L 489,362 L 489,363 L 489,364 L 488,365 L 488,366 L 488,367 L 487,368 L 488,368 L 488,369 L 489,369 L 489,370 L 489,371 L 490,371 L 490,372 L 491,373 L 491,374 L 492,374 L 492,375 L 492,376 L 491,376 L 491,377 L 490,377 L 489,378 L 489,379 L 488,379 L 488,380 L 488,381 L 487,381 L 487,382 L 487,383 L 488,383 L 488,384 L 489,384 L 490,384 L 490,385 L 491,385 L 492,385 L 492,386 L 493,386 L 494,386 L 494,387 L 495,387 L 495,388 L 496,388 L 497,388 L 498,388 L 499,388 L 499,389 L 500,390 L 500,391 L 500,392 L 499,392 L 499,393 L 498,393 L 498,394 L 497,394 L 497,395 L 497,396 L 498,396 L 499,396 L 500,396 L 501,397 L 502,397 L 502,398 L 502,399 L 503,399 L 503,400 L 503,401 L 503,402 L 503,403 L 503,404 L 503,405 L 503,406 L 502,407 L 502,408 L 502,409 L 501,410 L 501,411 L 500,411 L 500,412 L 499,413 L 499,414 L 498,414 L 497,414 L 497,415 L 498,415 L 499,416 L 500,416 L 500,417 L 499,418 L 498,418 L 498,419 L 499,420 L 500,421 L 501,422 L 502,422 L 503,422 L 503,423 L 503,424 L 503,425 L 504,425 L 505,425 L 504,426 L 503,426 L 503,427 L 502,427 L 501,427 L 500,427 L 499,426 L 498,426 L 496,425 L 495,425 L 493,424 L 492,424 L 492,423 L 491,423 L 490,422 L 489,422 L 489,423 L 488,423 L 488,422 L 487,422 L 486,422 L 485,423 L 485,424 L 485,423 L 484,423 L 484,422 L 483,422 L 483,421 L 482,421 L 482,420 L 482,419 L 482,418 L 482,417 L 482,416 L 482,415 L 481,415 L 481,414 L 481,413 L 480,413 L 479,413 L 479,412 L 478,412 L 477,412 L 477,413 L 476,413 L 475,412 L 475,411 L 476,411 L 477,411 L 477,410 L 478,410 L 479,410 L 478,409 L 477,409 L 476,409 L 476,410 L 475,410 L 475,411 L 474,411 L 473,411 L 473,410 L 472,409 L 471,409 L 470,409 L 469,409 L 469,410 L 468,410 L 468,409 L 468,408 L 469,408 L 469,407 L 468,407 L 468,408 L 467,408 L 467,407 L 468,406 L 468,405 L 468,406 L 467,406 L 466,406 L 466,407 L 465,407 L 465,408 L 466,408 L 466,409 L 465,409 L 465,408 L 464,408 L 464,409 L 463,409 L 463,408 L 462,408 L 461,407 L 462,407 L 462,406 L 461,406 L 461,407 L 460,406 L 459,406 L 459,405 L 459,404 L 458,404 L 457,404 L 458,403 L 458,402 L 457,402 L 457,403 L 456,403 L 456,402 L 455,402 L 455,403 L 454,404 L 453,404 L 453,405 L 454,405 L 453,405 L 452,405 L 453,405 L 453,404 L 452,404 L 452,405 L 451,405 L 450,406 L 449,406 L 449,405 L 449,404 L 448,404 L 447,404 L 447,403 L 448,403 L 448,402 L 447,402 L 446,402 L 446,401 L 445,401 L 445,402 L 444,402 L 444,401 L 443,401 L 444,402 L 443,402 L 443,401 L 442,401 L 442,402 L 441,402 L 441,401 L 440,401 L 439,401 L 438,401 L 438,400 L 437,400 L 437,401 L 436,400 L 435,400 L 435,401 L 434,401 L 434,402 L 434,401 L 433,401 L 433,400 L 432,400 L 431,400 L 430,400 L 430,399 L 429,399 L 428,399 L 428,398 L 428,397 L 427,397 L 426,397 L 426,398 L 426,397 L 425,397 L 424,396 L 424,395 L 424,394 L 424,393 L 424,392 L 424,391 L 424,390 L 424,389 L 424,388 L 424,387 L 424,386 L 424,385 L 424,384 L 424,383 L 423,383 L 423,382 L 423,381 L 424,381 L 424,380 L 423,379 L 423,378 L 423,377 L 423,376 L 422,376 L 421,375 L 420,374 L 420,373 L 420,372 L 419,371 L 419,370 L 419,369 L 419,368 L 420,368 L 420,367 L 420,366 L 421,366 L 421,365 L 421,364 L 421,363 L 421,362 L 421,361 L 421,360 L 421,359 L 421,358 L 421,357 L 422,357 L 422,356 L 423,356 L 423,355 L 422,354 L 421,353 L 420,352 L 419,352 L 419,351 L 418,350 L 417,350 L 417,349 L 416,348 L 417,348 L 417,347 L 417,346 L 418,345 L 418,343 L 419,342 L 419,341 L 419,340 L 419,339 L 420,339 L 420,338 L 420,337 L 420,336 L 420,335 L 419,335 L 419,334 L 419,333 L 419,332 L 420,332 L 421,332 L 422,332 L 423,331 L 424,331 L 425,330 L 425,329 L 425,328 L 426,328 L 427,328 L 427,327 L 428,327 L 429,326 L 430,326 L 431,326 L 431,325 L 432,325 L 433,324 L 433,323 L 434,322 L 434,321 L 435,320 L 436,319 L 436,318 L 437,317 L 438,317 L 439,317 L 440,316 L 441,315 L 442,315 L 443,315 L 443,314 L 444,313 L 444,312 L 445,311 L 445,310 L 445,309 L 446,309 L 447,309 L 448,310 L 448,311 " />
</g>
<g id="225" class="st0 dist-block"  inkscape:label="Nilagiri">
<path d="M 526,264 L 526,265 L 526,264 L 525,264 L 524,264 L 523,264 L 522,264 L 522,263 L 522,262 L 523,262 L 523,261 L 524,261 L 525,261 L 525,262 L 526,262 L 527,262 L 527,263 L 526,264 " />
<path d="M 498,204 L 499,204 L 499,205 L 500,205 L 500,206 L 501,206 L 502,206 L 503,206 L 503,205 L 504,205 L 504,206 L 504,205 L 505,205 L 506,205 L 506,206 L 507,206 L 508,206 L 508,205 L 509,205 L 509,206 L 510,206 L 511,206 L 512,207 L 513,207 L 514,207 L 514,208 L 515,208 L 515,209 L 515,210 L 515,211 L 515,212 L 515,213 L 515,214 L 515,215 L 514,216 L 514,217 L 513,218 L 513,219 L 513,220 L 513,221 L 514,221 L 515,221 L 516,221 L 517,221 L 518,221 L 519,221 L 520,221 L 520,220 L 520,219 L 520,218 L 519,218 L 519,217 L 519,216 L 520,216 L 521,217 L 522,217 L 523,217 L 524,217 L 525,217 L 526,216 L 527,217 L 527,216 L 528,216 L 529,216 L 529,217 L 530,218 L 530,219 L 529,219 L 529,220 L 529,221 L 528,221 L 528,222 L 528,223 L 529,224 L 529,225 L 528,226 L 528,227 L 528,228 L 528,229 L 528,230 L 527,231 L 527,230 L 526,230 L 525,230 L 525,231 L 525,232 L 525,233 L 525,234 L 524,234 L 523,234 L 523,235 L 523,236 L 524,238 L 524,239 L 524,240 L 524,241 L 525,241 L 526,241 L 526,242 L 525,242 L 525,243 L 524,243 L 524,244 L 524,245 L 525,245 L 525,246 L 526,246 L 526,247 L 525,247 L 525,248 L 525,247 L 524,247 L 523,247 L 522,247 L 521,247 L 521,248 L 521,249 L 520,249 L 520,250 L 519,250 L 519,251 L 520,251 L 520,252 L 519,252 L 518,253 L 517,253 L 517,254 L 516,254 L 516,255 L 516,256 L 517,256 L 519,256 L 519,255 L 520,255 L 521,255 L 521,254 L 522,254 L 523,254 L 524,254 L 523,255 L 524,256 L 524,257 L 523,258 L 523,259 L 522,259 L 522,260 L 522,261 L 521,261 L 521,262 L 520,262 L 520,263 L 519,264 L 518,264 L 518,265 L 518,266 L 518,267 L 517,267 L 517,268 L 518,268 L 519,268 L 519,269 L 518,269 L 518,270 L 519,270 L 520,270 L 521,270 L 522,270 L 523,271 L 523,272 L 523,273 L 523,274 L 522,274 L 522,275 L 523,275 L 523,276 L 524,277 L 523,277 L 522,277 L 522,276 L 521,277 L 521,278 L 521,279 L 520,280 L 519,280 L 518,280 L 518,281 L 518,282 L 518,283 L 518,284 L 517,284 L 517,285 L 516,286 L 517,286 L 517,287 L 516,287 L 516,286 L 515,286 L 514,286 L 513,286 L 512,286 L 511,285 L 511,284 L 510,284 L 510,283 L 509,283 L 509,284 L 508,284 L 508,283 L 508,284 L 508,285 L 507,286 L 506,286 L 505,286 L 505,287 L 504,287 L 503,287 L 503,288 L 503,289 L 503,290 L 504,290 L 504,291 L 503,291 L 503,290 L 502,290 L 501,290 L 501,289 L 500,289 L 500,288 L 499,288 L 499,287 L 499,286 L 498,286 L 498,285 L 497,285 L 496,285 L 495,285 L 495,286 L 496,286 L 495,287 L 494,287 L 494,286 L 493,286 L 493,287 L 493,288 L 492,288 L 492,289 L 491,290 L 491,291 L 490,292 L 489,292 L 488,292 L 487,293 L 487,294 L 487,295 L 487,297 L 486,298 L 486,299 L 486,300 L 486,301 L 485,302 L 485,303 L 484,303 L 484,304 L 483,304 L 482,304 L 481,304 L 481,305 L 481,306 L 480,307 L 480,308 L 479,309 L 478,309 L 478,310 L 477,310 L 476,310 L 476,311 L 475,311 L 474,311 L 473,310 L 473,309 L 472,309 L 472,308 L 473,307 L 473,306 L 473,305 L 472,304 L 472,302 L 471,301 L 471,300 L 471,299 L 470,298 L 469,299 L 469,300 L 468,300 L 467,300 L 467,301 L 466,302 L 465,302 L 464,303 L 463,304 L 462,304 L 462,303 L 461,303 L 461,302 L 460,302 L 460,301 L 459,301 L 458,300 L 457,300 L 456,300 L 455,300 L 454,301 L 454,302 L 453,302 L 453,303 L 452,303 L 452,304 L 452,305 L 451,305 L 451,306 L 450,306 L 449,306 L 448,306 L 448,307 L 447,307 L 446,308 L 446,309 L 445,309 L 445,310 L 445,311 L 444,312 L 444,313 L 443,314 L 443,315 L 442,315 L 441,315 L 440,316 L 439,315 L 438,314 L 437,313 L 436,312 L 435,311 L 434,311 L 434,310 L 433,310 L 432,309 L 432,308 L 430,307 L 429,307 L 428,306 L 427,305 L 426,304 L 425,304 L 424,303 L 422,302 L 421,301 L 420,301 L 419,300 L 418,300 L 417,299 L 416,299 L 415,298 L 414,297 L 413,297 L 412,296 L 411,295 L 410,294 L 409,294 L 408,293 L 407,292 L 406,291 L 405,291 L 404,291 L 403,290 L 402,289 L 401,289 L 401,288 L 400,288 L 399,287 L 398,287 L 398,286 L 397,286 L 396,285 L 395,285 L 394,284 L 395,284 L 395,283 L 395,282 L 396,282 L 396,281 L 396,280 L 396,279 L 397,279 L 397,278 L 398,278 L 398,277 L 399,276 L 399,275 L 400,275 L 400,274 L 401,274 L 401,273 L 401,272 L 402,272 L 402,271 L 402,270 L 402,269 L 403,269 L 403,268 L 403,267 L 403,266 L 404,266 L 404,265 L 404,264 L 405,264 L 405,263 L 405,262 L 405,261 L 406,261 L 406,260 L 406,259 L 407,259 L 407,258 L 407,257 L 408,257 L 408,256 L 408,255 L 409,255 L 409,254 L 409,253 L 410,253 L 410,252 L 411,251 L 411,250 L 411,249 L 412,249 L 412,248 L 412,247 L 413,247 L 414,247 L 415,247 L 416,247 L 417,247 L 418,247 L 418,248 L 419,248 L 420,248 L 421,248 L 422,248 L 423,248 L 424,248 L 425,248 L 426,249 L 427,248 L 428,248 L 428,247 L 429,247 L 429,246 L 430,246 L 431,246 L 431,245 L 432,245 L 433,245 L 433,244 L 433,243 L 434,243 L 434,244 L 434,243 L 434,242 L 434,241 L 435,241 L 435,242 L 435,241 L 436,241 L 436,240 L 437,240 L 437,241 L 438,241 L 439,241 L 440,241 L 440,240 L 440,239 L 440,238 L 440,237 L 440,236 L 441,235 L 441,234 L 441,233 L 441,232 L 442,232 L 442,231 L 442,230 L 442,229 L 443,229 L 443,228 L 444,228 L 445,228 L 445,227 L 444,227 L 444,226 L 444,225 L 445,225 L 445,224 L 445,223 L 445,222 L 445,221 L 445,220 L 445,219 L 444,219 L 445,219 L 445,218 L 445,217 L 446,217 L 447,217 L 448,217 L 448,218 L 449,218 L 450,218 L 451,218 L 452,218 L 453,218 L 453,217 L 453,216 L 454,216 L 455,216 L 456,215 L 457,214 L 458,214 L 458,213 L 459,212 L 459,211 L 460,211 L 460,210 L 461,210 L 461,209 L 461,208 L 462,209 L 463,210 L 464,210 L 464,211 L 464,212 L 464,213 L 464,214 L 465,214 L 466,214 L 467,214 L 467,213 L 468,213 L 469,213 L 470,213 L 471,213 L 472,213 L 473,213 L 474,213 L 475,212 L 475,211 L 475,210 L 476,210 L 476,209 L 477,208 L 478,208 L 479,208 L 480,208 L 479,207 L 480,207 L 481,207 L 482,207 L 483,207 L 484,207 L 485,207 L 486,207 L 487,207 L 487,206 L 487,205 L 487,204 L 488,204 L 489,204 L 490,204 L 491,204 L 491,205 L 491,204 L 492,204 L 493,204 L 494,204 L 494,203 L 495,203 L 496,203 L 497,204 L 498,204 " />
</g>
<g id="234" class="st0 dist-block"  inkscape:label="Oupada">
<path d="M 491,350 L 490,350 L 490,349 L 491,349 L 491,348 L 491,349 L 492,349 L 492,350 L 491,350 " />
<path d="M 429,326 L 428,327 L 427,327 L 427,328 L 426,328 L 425,328 L 425,329 L 425,330 L 424,331 L 423,331 L 422,332 L 421,332 L 420,332 L 419,332 L 419,333 L 419,334 L 419,335 L 420,335 L 420,336 L 420,337 L 420,338 L 420,339 L 419,339 L 419,340 L 419,341 L 419,342 L 418,343 L 418,345 L 417,346 L 417,347 L 417,348 L 416,348 L 417,349 L 416,349 L 415,348 L 414,348 L 413,347 L 412,346 L 411,345 L 411,346 L 411,347 L 410,347 L 409,347 L 408,347 L 408,348 L 408,349 L 407,349 L 407,348 L 407,347 L 406,347 L 405,347 L 404,347 L 404,346 L 404,345 L 403,344 L 402,344 L 402,343 L 401,343 L 401,344 L 401,343 L 400,343 L 399,343 L 398,343 L 397,342 L 396,342 L 395,342 L 395,341 L 395,340 L 394,340 L 394,339 L 393,339 L 393,340 L 392,341 L 392,342 L 391,343 L 391,344 L 390,344 L 390,343 L 390,344 L 390,345 L 389,345 L 388,344 L 388,345 L 387,344 L 387,343 L 387,342 L 387,341 L 386,341 L 386,342 L 386,343 L 385,343 L 385,344 L 384,345 L 383,345 L 383,344 L 382,344 L 381,343 L 380,343 L 380,342 L 379,342 L 378,342 L 377,342 L 377,343 L 377,344 L 377,345 L 377,346 L 377,347 L 378,347 L 378,348 L 379,348 L 379,349 L 378,349 L 378,350 L 378,351 L 377,351 L 377,352 L 376,352 L 376,353 L 375,353 L 374,353 L 374,354 L 374,355 L 373,355 L 372,355 L 372,356 L 371,356 L 371,355 L 370,355 L 370,354 L 369,354 L 369,353 L 368,353 L 368,352 L 367,352 L 366,352 L 365,352 L 364,351 L 363,351 L 363,350 L 362,350 L 361,349 L 360,348 L 360,349 L 359,349 L 359,350 L 359,351 L 359,352 L 359,353 L 359,354 L 359,355 L 358,356 L 357,356 L 357,357 L 357,358 L 358,358 L 358,359 L 359,359 L 359,360 L 359,361 L 359,362 L 359,363 L 359,364 L 358,364 L 357,364 L 357,363 L 356,363 L 356,362 L 356,361 L 356,360 L 355,360 L 355,359 L 354,359 L 353,359 L 352,359 L 352,358 L 351,358 L 350,357 L 349,357 L 349,356 L 348,356 L 347,355 L 346,355 L 346,354 L 345,354 L 345,353 L 344,352 L 343,351 L 342,351 L 342,350 L 341,350 L 341,351 L 340,351 L 340,350 L 339,350 L 338,349 L 338,348 L 337,348 L 337,347 L 337,346 L 336,345 L 336,344 L 336,343 L 337,342 L 338,342 L 339,341 L 340,341 L 341,340 L 341,339 L 341,338 L 342,337 L 342,335 L 342,334 L 343,333 L 344,333 L 346,332 L 346,331 L 347,331 L 348,330 L 349,329 L 350,329 L 351,328 L 352,328 L 352,327 L 353,327 L 354,327 L 355,327 L 356,326 L 357,325 L 358,325 L 358,324 L 359,324 L 359,323 L 360,323 L 361,323 L 362,322 L 363,322 L 364,321 L 365,320 L 366,319 L 367,319 L 367,318 L 368,317 L 369,317 L 369,316 L 370,315 L 370,314 L 371,314 L 371,313 L 372,313 L 372,312 L 372,311 L 373,311 L 373,310 L 374,310 L 374,309 L 375,309 L 376,309 L 376,308 L 377,308 L 377,307 L 378,307 L 378,306 L 379,306 L 379,305 L 380,305 L 380,304 L 381,304 L 381,303 L 382,303 L 382,302 L 383,302 L 383,301 L 384,300 L 384,299 L 385,299 L 385,298 L 386,298 L 386,297 L 387,297 L 387,296 L 388,296 L 388,295 L 388,294 L 389,294 L 389,293 L 390,292 L 390,291 L 391,290 L 391,289 L 392,289 L 392,288 L 393,288 L 393,287 L 393,286 L 394,286 L 394,285 L 394,284 L 395,285 L 396,285 L 397,286 L 398,286 L 398,287 L 399,287 L 400,288 L 401,288 L 401,289 L 402,289 L 403,290 L 404,291 L 405,291 L 406,291 L 407,292 L 408,293 L 409,294 L 410,294 L 411,295 L 412,296 L 413,297 L 414,297 L 415,298 L 416,299 L 417,299 L 418,300 L 419,300 L 420,301 L 421,301 L 422,302 L 424,303 L 425,304 L 426,304 L 427,305 L 428,306 L 429,307 L 430,307 L 432,308 L 432,309 L 433,310 L 434,310 L 434,311 L 435,311 L 436,312 L 437,313 L 438,314 L 439,315 L 440,316 L 439,317 L 438,317 L 437,317 L 436,318 L 436,319 L 435,320 L 434,321 L 434,322 L 433,323 L 433,324 L 432,325 L 431,325 L 431,326 L 430,326 L 429,326 " />
<path d="M 511,284 L 511,285 L 512,286 L 513,286 L 514,286 L 515,286 L 516,286 L 516,287 L 517,287 L 516,287 L 516,288 L 516,289 L 516,290 L 515,291 L 515,292 L 515,293 L 516,293 L 517,294 L 518,294 L 518,293 L 519,293 L 519,294 L 520,294 L 520,295 L 521,295 L 521,296 L 522,296 L 523,296 L 524,296 L 524,297 L 525,297 L 524,297 L 524,298 L 523,298 L 523,297 L 522,297 L 521,297 L 520,297 L 519,297 L 518,298 L 517,298 L 516,298 L 516,297 L 516,296 L 515,296 L 514,296 L 514,297 L 514,298 L 513,298 L 513,297 L 512,297 L 511,297 L 510,297 L 510,298 L 511,298 L 512,299 L 513,299 L 513,300 L 514,300 L 514,301 L 515,301 L 515,302 L 516,302 L 517,302 L 518,302 L 518,303 L 517,303 L 517,304 L 517,305 L 517,306 L 516,306 L 515,306 L 515,307 L 514,307 L 514,308 L 514,309 L 514,310 L 514,311 L 513,311 L 513,310 L 513,309 L 512,309 L 512,308 L 513,308 L 513,307 L 512,307 L 511,307 L 511,306 L 510,306 L 509,305 L 508,305 L 507,305 L 507,304 L 507,303 L 506,303 L 506,302 L 505,302 L 505,301 L 505,300 L 504,300 L 503,300 L 502,300 L 501,301 L 500,301 L 501,301 L 501,302 L 500,302 L 500,303 L 500,304 L 500,305 L 500,306 L 499,306 L 499,307 L 498,307 L 498,308 L 498,309 L 497,309 L 496,309 L 495,309 L 494,309 L 494,310 L 494,311 L 494,312 L 495,312 L 496,312 L 496,313 L 495,313 L 496,313 L 496,314 L 495,314 L 495,315 L 494,315 L 494,316 L 494,317 L 493,318 L 492,319 L 491,320 L 492,320 L 492,321 L 493,321 L 493,322 L 494,322 L 494,323 L 495,323 L 495,324 L 496,324 L 496,325 L 497,326 L 497,327 L 496,327 L 495,328 L 494,329 L 493,329 L 493,328 L 492,328 L 492,327 L 491,327 L 490,327 L 490,328 L 490,329 L 489,329 L 488,329 L 488,330 L 487,331 L 487,332 L 486,332 L 486,333 L 485,333 L 485,334 L 485,335 L 486,335 L 486,336 L 487,336 L 487,337 L 488,337 L 488,338 L 489,338 L 489,339 L 488,339 L 488,340 L 487,340 L 487,341 L 486,341 L 486,342 L 486,343 L 486,344 L 485,344 L 485,345 L 484,345 L 484,346 L 484,347 L 483,347 L 483,348 L 482,348 L 482,349 L 482,350 L 482,351 L 481,351 L 481,352 L 480,352 L 480,351 L 479,351 L 479,350 L 480,350 L 480,349 L 479,349 L 479,348 L 478,348 L 477,348 L 477,347 L 476,347 L 475,347 L 475,348 L 474,348 L 474,347 L 473,347 L 472,347 L 472,348 L 471,348 L 471,349 L 470,349 L 470,350 L 470,349 L 469,349 L 469,348 L 468,348 L 468,347 L 468,346 L 467,346 L 467,345 L 468,345 L 468,344 L 468,343 L 469,343 L 469,342 L 469,341 L 469,340 L 470,340 L 470,339 L 471,338 L 471,337 L 471,336 L 471,335 L 470,335 L 469,335 L 469,334 L 468,334 L 468,333 L 467,333 L 466,332 L 465,331 L 464,330 L 464,329 L 463,329 L 463,328 L 462,328 L 461,327 L 461,326 L 460,326 L 459,326 L 458,327 L 457,327 L 456,327 L 455,327 L 454,327 L 454,326 L 454,325 L 454,324 L 454,323 L 454,322 L 454,321 L 453,321 L 453,320 L 453,319 L 453,318 L 453,317 L 453,316 L 452,316 L 452,315 L 453,314 L 453,313 L 452,313 L 452,312 L 452,311 L 451,311 L 450,311 L 449,311 L 448,311 L 448,310 L 447,309 L 446,309 L 446,308 L 447,307 L 448,307 L 448,306 L 449,306 L 450,306 L 451,306 L 451,305 L 452,305 L 452,304 L 452,303 L 453,303 L 453,302 L 454,302 L 454,301 L 455,300 L 456,300 L 457,300 L 458,300 L 459,301 L 460,301 L 460,302 L 461,302 L 461,303 L 462,303 L 462,304 L 463,304 L 464,303 L 465,302 L 466,302 L 467,301 L 467,300 L 468,300 L 469,300 L 469,299 L 470,298 L 471,299 L 471,300 L 471,301 L 472,302 L 472,304 L 473,305 L 473,306 L 473,307 L 472,308 L 472,309 L 473,309 L 473,310 L 474,311 L 475,311 L 476,311 L 476,310 L 477,310 L 478,310 L 478,309 L 479,309 L 480,308 L 480,307 L 481,306 L 481,305 L 481,304 L 482,304 L 483,304 L 484,304 L 484,303 L 485,303 L 485,302 L 486,301 L 486,300 L 486,299 L 486,298 L 487,297 L 487,295 L 487,294 L 487,293 L 488,292 L 489,292 L 490,292 L 491,291 L 491,290 L 492,289 L 492,288 L 493,288 L 493,287 L 493,286 L 494,286 L 494,287 L 495,287 L 496,286 L 495,286 L 495,285 L 496,285 L 497,285 L 498,285 L 498,286 L 499,286 L 499,287 L 499,288 L 500,288 L 500,289 L 501,289 L 501,290 L 502,290 L 503,290 L 503,291 L 504,291 L 504,290 L 503,290 L 503,289 L 503,288 L 503,287 L 504,287 L 505,287 L 505,286 L 506,286 L 507,286 L 508,285 L 508,284 L 508,283 L 508,284 L 509,284 L 509,283 L 510,283 L 510,284 L 511,284 " />
<path d="M 512,302 L 513,302 L 513,301 L 514,301 L 513,301 L 513,300 L 512,300 L 512,301 L 512,302 " />
<path d="M 513,306 L 514,306 L 514,305 L 515,305 L 515,304 L 516,304 L 516,303 L 516,302 L 515,302 L 514,302 L 513,302 L 513,303 L 513,304 L 513,305 L 513,306 " />
</g>
</g>
</g>
<g id="block_labels" inkscape:groupmode="layer" inkscape:label="block_labels">
<g stroke="none" fill="rgb(0,0,0)">
<text id="block_labels_1" x="521" y="357" class="st4"  inkscape:label="Bahanaga_lbl">Bahanaga</text>
<text id="block_labels_2" x="616" y="258" class="st4" inkscape:label="Baleswar_lbl">Baleswar</text>
<text id="block_labels_3" x="731" y="201" class="st4" inkscape:label="Baliapal_lbl">Baliapal</text>
<text id="block_labels_4" x="673" y="162" class="st4" inkscape:label="Basta_lbl">Basta</text>
<text id="block_labels_5" x="801" y="169" class="st4" inkscape:label="Bhograi_lbl">Bhograi</text>
<text id="block_labels_6" x="716" y="89" class="st4" inkscape:label="Jaleswar_lbl">Jaleswar</text>
<text id="block_labels_7" x="364" y="384" class="st4" inkscape:label="Khaira_lbl">Khaira</text>
<text id="block_labels_8" x="551" y="268" class="st4" inkscape:label="Remuna_lbl">Remuna</text>
<text id="block_labels_9" x="426" y="428"  class="st4" inkscape:label="Simulia_lbl">Simulia</text>
<text id="block_labels_10" x="457" y="370" class="st4" inkscape:label="Soro_lbl">Soro</text>
<text id="block_labels_11" x="467" y="259" class="st4" inkscape:label="Nilagiri_lbl">Nilagiri</text>
<text id="block_labels_12" x="421" y="321" class="st4" inkscape:label="Oupada_lbl">Oupada</text>
</g>
</g>
<!-- QGIS extent for clipping, eg in Inkscape -->
</svg>