<?xml version="1.0" standalone="no"?>
<!DOCTYPE svg PUBLIC "-//W3C//DTD SVG 1.1//EN" "http://www.w3.org/Graphics/SVG/1.1/DTD/svg11.dtd">
<svg xmlns="http://www.w3.org/2000/svg" xmlns:inkscape="http://www.inkscape.org/namespaces/inkscape" xmlns:xlink="http://www.w3.org/1999/xlink" viewBox = "230 -50 650 650" version = "1.1">
	<style type="text/css">
   .st0, .st1, .st2
    {
        stroke: #d0d0d0;
        stroke-miterlimit: 7;
		fill:#fff;
		cursor:pointer;
    }
    .st4
    {
        font-size: 7.0514px;
		fill:#000;
    }
    .st0:hover, .st1:hover, .st2:hover{fill:#32C787;}
</style>
<!-- svg generated using QGIS www.qgis.org -->
<g id="block" inkscape:groupmode="layer" inkscape:label="block">
<g stroke="rgb(0,0,0)" fill="#fff" stroke-linejoin="round" stroke-width="0.56">
<g id="41" class="st0 dist-block" inkscape:label="Basudevpur">
<path d="M 729,24 L 730,24 L 730,23 L 731,23 L 732,22 L 733,21 L 734,21 L 734,22 L 733,22 L 733,23 L 733,24 L 734,24 L 734,25 L 735,25 L 735,24 L 736,24 L 737,24 L 738,24 L 738,25 L 739,24 L 740,24 L 740,25 L 740,26 L 739,26 L 739,27 L 739,28 L 740,28 L 741,27 L 742,27 L 743,27 L 744,27 L 745,27 L 746,28 L 747,28 L 747,29 L 746,29 L 745,29 L 744,29 L 743,29 L 742,29 L 742,30 L 741,30 L 741,31 L 740,31 L 740,32 L 741,32 L 742,32 L 743,32 L 743,33 L 744,33 L 743,33 L 743,34 L 744,35 L 745,35 L 745,34 L 746,34 L 747,34 L 748,34 L 748,35 L 749,35 L 749,36 L 750,36 L 750,37 L 750,38 L 751,39 L 752,39 L 752,40 L 753,40 L 754,41 L 754,42 L 755,42 L 756,42 L 757,42 L 758,43 L 759,43 L 760,44 L 761,44 L 762,44 L 763,44 L 764,43 L 765,43 L 765,42 L 766,42 L 768,41 L 769,40 L 771,40 L 771,39 L 773,38 L 774,38 L 775,40 L 775,42 L 775,44 L 774,45 L 773,47 L 772,49 L 770,51 L 769,52 L 767,55 L 767,56 L 766,58 L 765,59 L 764,61 L 764,62 L 763,64 L 763,66 L 762,68 L 762,71 L 762,76 L 762,78 L 762,81 L 762,84 L 762,88 L 762,91 L 762,96 L 762,99 L 762,101 L 761,103 L 762,105 L 762,107 L 762,110 L 762,112 L 762,114 L 762,116 L 762,118 L 763,120 L 763,122 L 763,124 L 764,125 L 764,127 L 765,130 L 765,132 L 766,136 L 766,138 L 767,141 L 767,143 L 768,145 L 768,147 L 769,150 L 770,153 L 772,155 L 773,158 L 774,160 L 776,164 L 777,168 L 779,171 L 780,174 L 781,176 L 782,179 L 783,182 L 784,184 L 785,187 L 786,189 L 787,191 L 788,193 L 789,194 L 790,196 L 793,201 L 795,203 L 796,205 L 797,206 L 798,208 L 799,210 L 800,212 L 801,213 L 802,214 L 803,216 L 805,218 L 805,219 L 807,220 L 808,222 L 809,224 L 810,226 L 810,227 L 812,230 L 813,232 L 813,233 L 814,234 L 814,235 L 814,237 L 815,238 L 816,239 L 817,242 L 817,244 L 818,245 L 818,247 L 819,248 L 819,249 L 820,250 L 821,252 L 821,254 L 822,256 L 823,258 L 823,259 L 817,260 L 808,263 L 806,264 L 803,264 L 800,264 L 797,265 L 795,265 L 794,266 L 793,267 L 792,267 L 790,267 L 788,268 L 787,268 L 786,269 L 784,270 L 782,272 L 780,272 L 778,273 L 775,273 L 774,273 L 772,273 L 770,273 L 769,272 L 768,272 L 766,273 L 765,273 L 763,274 L 762,274 L 760,275 L 758,276 L 756,277 L 755,277 L 754,277 L 753,278 L 752,279 L 751,281 L 750,281 L 749,280 L 749,279 L 749,278 L 749,277 L 748,277 L 747,277 L 746,277 L 745,277 L 744,276 L 743,275 L 741,275 L 740,274 L 739,274 L 737,273 L 736,273 L 734,273 L 733,273 L 732,273 L 731,273 L 729,272 L 727,271 L 725,271 L 723,270 L 722,270 L 721,269 L 720,269 L 719,269 L 718,269 L 716,269 L 715,269 L 714,268 L 714,267 L 713,267 L 713,266 L 712,266 L 711,266 L 711,267 L 710,268 L 709,269 L 707,270 L 706,270 L 706,269 L 705,269 L 705,268 L 704,266 L 704,265 L 703,264 L 703,262 L 704,262 L 704,261 L 705,261 L 705,260 L 706,260 L 706,259 L 705,258 L 705,257 L 704,256 L 703,255 L 702,254 L 702,253 L 701,253 L 700,252 L 699,252 L 697,251 L 696,252 L 695,252 L 694,252 L 693,252 L 692,251 L 691,250 L 690,250 L 689,249 L 688,248 L 687,248 L 687,247 L 686,247 L 686,246 L 685,245 L 685,244 L 686,243 L 687,242 L 689,241 L 689,240 L 689,239 L 689,237 L 688,237 L 687,236 L 686,236 L 685,235 L 684,235 L 683,234 L 682,234 L 682,233 L 681,233 L 680,233 L 680,232 L 680,231 L 680,230 L 680,228 L 679,227 L 678,226 L 677,226 L 676,225 L 675,225 L 674,224 L 673,223 L 672,223 L 671,222 L 670,221 L 670,220 L 669,220 L 668,220 L 667,220 L 666,220 L 665,219 L 665,218 L 665,217 L 664,216 L 663,215 L 662,215 L 662,214 L 661,213 L 660,213 L 659,213 L 658,213 L 657,213 L 655,213 L 654,214 L 652,214 L 650,214 L 649,214 L 649,213 L 648,213 L 646,213 L 645,213 L 643,213 L 641,213 L 640,213 L 639,213 L 638,213 L 637,214 L 636,214 L 635,214 L 634,214 L 633,213 L 632,213 L 632,212 L 631,211 L 631,210 L 631,209 L 631,207 L 631,206 L 632,204 L 632,203 L 633,202 L 633,201 L 632,201 L 631,201 L 630,201 L 629,201 L 629,200 L 628,200 L 627,199 L 626,199 L 625,199 L 624,198 L 624,197 L 623,197 L 622,197 L 621,197 L 621,196 L 620,196 L 620,197 L 620,198 L 619,198 L 618,198 L 618,199 L 618,200 L 617,200 L 616,200 L 615,200 L 614,200 L 613,201 L 612,201 L 611,202 L 610,202 L 609,203 L 608,203 L 607,202 L 606,202 L 605,202 L 604,201 L 602,201 L 601,201 L 600,202 L 600,201 L 600,200 L 600,199 L 600,198 L 600,197 L 601,196 L 601,195 L 602,194 L 602,193 L 602,191 L 602,190 L 602,189 L 601,189 L 600,188 L 600,187 L 600,186 L 599,185 L 599,184 L 599,183 L 598,183 L 598,182 L 598,181 L 597,180 L 596,180 L 595,179 L 594,179 L 594,178 L 593,178 L 593,177 L 592,176 L 593,175 L 594,175 L 594,174 L 594,173 L 593,172 L 593,171 L 593,170 L 592,170 L 591,170 L 591,169 L 592,169 L 592,168 L 593,167 L 593,166 L 594,166 L 593,165 L 593,164 L 592,164 L 592,163 L 592,162 L 592,161 L 591,161 L 591,162 L 590,162 L 590,161 L 590,160 L 589,159 L 588,159 L 588,158 L 589,158 L 589,157 L 590,157 L 590,156 L 591,155 L 592,154 L 592,153 L 593,152 L 594,152 L 595,153 L 596,153 L 597,153 L 598,154 L 599,154 L 601,155 L 602,155 L 604,155 L 605,155 L 605,154 L 605,153 L 606,152 L 606,151 L 606,149 L 607,148 L 607,147 L 607,146 L 608,144 L 608,143 L 607,142 L 606,142 L 605,142 L 604,142 L 603,141 L 602,140 L 601,140 L 600,140 L 599,140 L 599,139 L 598,139 L 598,140 L 597,140 L 597,139 L 597,138 L 597,137 L 596,136 L 596,135 L 597,134 L 597,133 L 597,131 L 597,130 L 598,129 L 598,128 L 598,127 L 598,126 L 599,126 L 599,125 L 600,124 L 600,123 L 600,122 L 601,122 L 601,121 L 602,120 L 602,119 L 603,119 L 603,118 L 602,117 L 601,116 L 599,115 L 599,114 L 599,113 L 600,112 L 600,111 L 601,111 L 601,110 L 601,109 L 602,108 L 603,108 L 604,108 L 604,107 L 604,106 L 605,105 L 606,105 L 607,104 L 607,103 L 607,102 L 608,101 L 609,99 L 609,98 L 610,97 L 610,96 L 609,95 L 608,95 L 608,94 L 607,94 L 605,93 L 606,91 L 606,90 L 607,88 L 607,87 L 607,86 L 608,86 L 608,85 L 609,84 L 610,84 L 610,83 L 611,82 L 611,81 L 612,80 L 612,79 L 613,78 L 613,77 L 614,76 L 615,76 L 615,75 L 616,75 L 617,75 L 618,75 L 619,75 L 620,75 L 621,75 L 621,76 L 622,76 L 623,76 L 623,75 L 624,75 L 624,76 L 625,76 L 626,77 L 626,78 L 627,78 L 628,78 L 629,78 L 630,78 L 630,77 L 631,76 L 631,75 L 632,74 L 632,73 L 633,73 L 633,72 L 634,71 L 635,70 L 636,69 L 636,68 L 637,68 L 637,67 L 637,66 L 637,65 L 637,64 L 638,64 L 638,63 L 639,62 L 640,62 L 641,62 L 642,62 L 643,62 L 644,62 L 645,63 L 646,63 L 647,64 L 648,64 L 650,65 L 651,65 L 652,65 L 653,65 L 653,66 L 654,66 L 655,66 L 655,67 L 656,67 L 657,67 L 658,67 L 659,67 L 660,67 L 661,67 L 662,68 L 663,68 L 664,68 L 664,69 L 665,69 L 666,69 L 666,68 L 667,67 L 668,66 L 669,65 L 670,64 L 671,64 L 672,65 L 673,65 L 673,66 L 674,65 L 675,65 L 676,65 L 677,65 L 678,66 L 679,67 L 680,67 L 681,67 L 682,68 L 685,69 L 687,70 L 690,72 L 692,72 L 694,73 L 695,73 L 697,74 L 698,74 L 698,73 L 699,73 L 700,73 L 700,72 L 702,71 L 702,70 L 703,70 L 702,69 L 701,69 L 700,69 L 700,68 L 700,67 L 700,66 L 700,64 L 699,64 L 698,64 L 697,64 L 696,64 L 695,63 L 694,62 L 692,60 L 691,59 L 691,58 L 692,57 L 692,56 L 693,54 L 694,54 L 693,54 L 692,53 L 691,52 L 690,52 L 689,51 L 689,50 L 690,50 L 691,50 L 692,49 L 693,46 L 694,46 L 695,45 L 695,44 L 696,44 L 696,43 L 697,42 L 697,41 L 697,40 L 698,39 L 698,37 L 699,36 L 700,35 L 700,34 L 700,32 L 700,31 L 700,29 L 700,28 L 700,27 L 700,26 L 700,25 L 700,24 L 700,23 L 701,24 L 701,25 L 702,25 L 703,25 L 704,25 L 705,25 L 705,26 L 706,27 L 707,27 L 708,27 L 708,26 L 709,26 L 710,26 L 711,26 L 711,27 L 711,28 L 712,28 L 713,29 L 714,29 L 714,28 L 714,27 L 713,27 L 713,26 L 714,25 L 714,24 L 715,24 L 715,23 L 716,23 L 716,24 L 716,25 L 717,26 L 718,27 L 718,26 L 718,25 L 719,25 L 719,24 L 719,23 L 720,23 L 721,23 L 722,23 L 722,24 L 722,25 L 723,25 L 723,24 L 724,24 L 725,24 L 726,24 L 726,23 L 726,22 L 727,22 L 727,21 L 727,20 L 727,19 L 728,19 L 728,20 L 728,21 L 728,22 L 729,23 L 729,24 " />
</g>
<g id="47" class="st0 dist-block" inkscape:label="Bhadrak">
<path d="M 419,90 L 420,90 L 420,89 L 421,89 L 421,88 L 422,87 L 422,86 L 423,85 L 423,84 L 424,84 L 424,83 L 424,82 L 425,82 L 426,83 L 427,83 L 428,84 L 429,84 L 430,85 L 431,85 L 432,86 L 433,86 L 435,87 L 436,87 L 436,88 L 438,88 L 439,89 L 440,90 L 441,90 L 442,91 L 444,92 L 445,93 L 446,93 L 447,93 L 448,93 L 448,92 L 449,92 L 450,92 L 450,93 L 451,94 L 452,95 L 453,95 L 453,96 L 454,96 L 455,97 L 456,98 L 457,98 L 458,99 L 459,99 L 459,100 L 460,100 L 461,100 L 462,100 L 462,101 L 463,101 L 464,101 L 465,102 L 466,102 L 467,103 L 469,103 L 469,104 L 470,104 L 471,104 L 472,105 L 473,105 L 473,106 L 474,105 L 475,104 L 475,103 L 475,102 L 476,102 L 477,101 L 477,100 L 478,100 L 479,99 L 479,98 L 480,98 L 480,97 L 481,97 L 482,96 L 483,96 L 483,95 L 484,95 L 484,94 L 485,93 L 486,92 L 487,91 L 488,89 L 488,88 L 489,87 L 489,86 L 490,85 L 491,84 L 492,85 L 491,86 L 492,86 L 493,86 L 494,85 L 495,85 L 496,85 L 497,85 L 498,85 L 499,85 L 499,84 L 500,84 L 501,84 L 502,84 L 504,84 L 507,85 L 508,85 L 510,85 L 511,85 L 513,85 L 514,85 L 515,85 L 515,86 L 516,87 L 517,88 L 516,88 L 516,89 L 517,90 L 517,91 L 518,91 L 518,92 L 518,93 L 518,94 L 518,95 L 518,96 L 518,97 L 517,98 L 517,99 L 517,100 L 518,100 L 518,101 L 519,102 L 520,102 L 520,103 L 521,104 L 522,104 L 522,105 L 523,106 L 524,106 L 525,107 L 525,108 L 526,108 L 526,109 L 527,109 L 527,110 L 528,111 L 528,112 L 528,113 L 527,113 L 528,114 L 528,115 L 529,115 L 529,116 L 530,116 L 530,117 L 531,117 L 532,117 L 533,117 L 534,117 L 534,118 L 534,119 L 534,120 L 534,121 L 533,122 L 533,123 L 534,123 L 536,123 L 537,123 L 538,123 L 538,124 L 538,125 L 538,126 L 539,126 L 539,127 L 540,128 L 540,129 L 541,129 L 542,130 L 543,131 L 543,132 L 543,133 L 543,134 L 542,135 L 542,137 L 542,138 L 542,139 L 541,140 L 541,141 L 542,141 L 542,142 L 543,142 L 544,142 L 544,143 L 545,143 L 546,144 L 547,144 L 547,143 L 548,143 L 548,142 L 549,142 L 549,141 L 550,142 L 551,142 L 552,141 L 553,141 L 553,142 L 553,143 L 554,142 L 555,143 L 555,142 L 556,141 L 557,142 L 558,142 L 559,142 L 559,141 L 560,141 L 560,142 L 561,142 L 562,142 L 563,142 L 564,142 L 564,141 L 565,141 L 566,141 L 566,142 L 566,143 L 567,143 L 568,143 L 568,144 L 569,144 L 569,143 L 570,144 L 570,145 L 570,146 L 571,146 L 571,145 L 572,145 L 572,146 L 573,147 L 574,147 L 575,147 L 576,147 L 576,146 L 576,147 L 576,148 L 577,149 L 577,148 L 578,148 L 578,149 L 578,150 L 578,151 L 577,152 L 577,153 L 577,154 L 577,155 L 576,156 L 576,157 L 575,158 L 575,159 L 575,160 L 574,161 L 574,162 L 573,163 L 573,164 L 572,165 L 573,166 L 573,167 L 574,168 L 575,168 L 576,169 L 577,169 L 577,170 L 578,170 L 578,171 L 579,172 L 579,173 L 580,173 L 580,174 L 581,174 L 582,174 L 583,174 L 583,175 L 584,175 L 585,175 L 586,175 L 587,175 L 588,175 L 589,175 L 590,176 L 591,176 L 592,176 L 593,177 L 593,178 L 594,178 L 594,179 L 595,179 L 596,180 L 597,180 L 598,181 L 598,182 L 598,183 L 599,183 L 599,184 L 599,185 L 600,186 L 600,187 L 600,188 L 601,189 L 602,189 L 602,190 L 602,191 L 602,193 L 602,194 L 601,195 L 601,196 L 600,197 L 600,198 L 600,199 L 600,200 L 600,201 L 600,202 L 599,203 L 599,204 L 598,205 L 597,206 L 596,206 L 595,207 L 594,207 L 593,207 L 593,206 L 592,206 L 591,206 L 590,206 L 589,206 L 588,205 L 587,205 L 586,205 L 585,205 L 585,204 L 584,203 L 583,203 L 582,203 L 582,202 L 581,202 L 580,201 L 579,200 L 578,199 L 577,199 L 576,200 L 575,199 L 574,199 L 574,198 L 573,198 L 572,198 L 571,198 L 570,198 L 569,198 L 568,198 L 569,199 L 570,200 L 569,201 L 568,201 L 568,200 L 567,200 L 567,199 L 566,199 L 565,199 L 565,198 L 565,197 L 564,197 L 563,197 L 562,197 L 561,197 L 561,196 L 562,196 L 563,195 L 564,194 L 563,194 L 562,193 L 561,193 L 560,193 L 559,193 L 559,194 L 559,195 L 558,196 L 557,196 L 557,195 L 556,195 L 556,194 L 555,194 L 554,195 L 554,194 L 555,193 L 555,192 L 554,192 L 554,191 L 553,191 L 552,190 L 551,189 L 550,189 L 549,189 L 548,188 L 548,187 L 547,187 L 547,186 L 547,185 L 546,185 L 545,185 L 544,185 L 543,185 L 542,185 L 541,186 L 540,186 L 539,187 L 538,187 L 537,187 L 536,188 L 535,188 L 535,189 L 536,190 L 535,192 L 535,193 L 534,194 L 534,195 L 535,195 L 536,196 L 537,197 L 538,196 L 539,197 L 540,198 L 540,199 L 541,199 L 543,199 L 545,199 L 546,200 L 546,201 L 547,202 L 546,203 L 545,203 L 544,203 L 543,202 L 542,202 L 542,203 L 541,203 L 541,202 L 540,201 L 540,202 L 539,203 L 538,204 L 537,204 L 537,203 L 536,202 L 535,202 L 534,202 L 534,203 L 534,204 L 535,205 L 535,206 L 535,207 L 534,207 L 533,208 L 532,208 L 532,209 L 532,210 L 533,210 L 533,211 L 532,211 L 531,211 L 530,211 L 529,212 L 528,213 L 528,214 L 527,214 L 527,215 L 527,216 L 528,217 L 528,218 L 529,219 L 529,220 L 529,221 L 528,221 L 527,222 L 527,223 L 526,224 L 526,225 L 525,226 L 524,226 L 523,227 L 522,227 L 521,228 L 520,228 L 519,229 L 519,230 L 520,231 L 520,232 L 521,232 L 522,232 L 522,233 L 523,233 L 524,234 L 524,235 L 524,236 L 523,237 L 522,237 L 522,238 L 521,238 L 520,238 L 519,238 L 518,240 L 517,241 L 516,242 L 515,243 L 513,243 L 512,242 L 511,241 L 510,241 L 508,241 L 506,241 L 505,241 L 504,241 L 503,241 L 502,241 L 501,242 L 501,244 L 501,245 L 502,245 L 504,246 L 506,245 L 507,245 L 509,245 L 510,246 L 511,246 L 512,247 L 512,249 L 512,250 L 511,251 L 512,252 L 511,254 L 512,255 L 513,255 L 513,257 L 513,258 L 513,259 L 512,260 L 512,261 L 512,262 L 513,262 L 512,263 L 511,263 L 510,262 L 508,261 L 507,260 L 506,260 L 505,259 L 504,259 L 503,259 L 502,258 L 501,258 L 501,257 L 502,256 L 502,255 L 503,254 L 504,254 L 504,253 L 504,252 L 504,251 L 503,251 L 502,251 L 501,251 L 500,252 L 500,253 L 499,253 L 498,253 L 497,253 L 496,253 L 495,253 L 494,253 L 493,253 L 492,253 L 491,254 L 490,255 L 490,256 L 489,256 L 489,257 L 488,257 L 487,257 L 485,257 L 484,257 L 482,257 L 481,257 L 480,258 L 478,258 L 477,259 L 476,259 L 475,260 L 474,259 L 473,259 L 472,258 L 471,257 L 471,256 L 470,256 L 469,255 L 468,255 L 467,255 L 466,255 L 465,254 L 464,253 L 463,252 L 462,252 L 462,251 L 461,251 L 457,251 L 456,251 L 453,258 L 453,259 L 452,259 L 452,258 L 453,257 L 453,256 L 452,256 L 452,257 L 451,257 L 451,256 L 451,255 L 450,255 L 450,254 L 451,254 L 452,254 L 453,254 L 453,253 L 452,253 L 451,253 L 450,253 L 449,254 L 449,255 L 448,254 L 448,253 L 449,253 L 449,252 L 450,251 L 449,251 L 448,250 L 444,248 L 443,247 L 441,246 L 441,245 L 442,244 L 442,243 L 442,242 L 442,241 L 443,240 L 443,239 L 443,238 L 444,237 L 444,236 L 445,235 L 445,234 L 445,233 L 444,233 L 443,233 L 444,232 L 443,232 L 444,231 L 445,231 L 445,230 L 444,230 L 444,229 L 443,229 L 442,230 L 441,230 L 441,229 L 440,228 L 439,228 L 438,228 L 438,227 L 437,227 L 436,227 L 436,226 L 435,226 L 434,226 L 433,226 L 433,225 L 432,224 L 432,223 L 431,224 L 431,223 L 430,223 L 429,223 L 429,222 L 428,222 L 427,221 L 426,222 L 425,221 L 424,221 L 424,220 L 424,219 L 425,218 L 424,218 L 424,217 L 425,217 L 425,216 L 425,215 L 425,214 L 426,213 L 425,212 L 424,212 L 425,211 L 425,210 L 424,210 L 423,209 L 422,209 L 421,209 L 420,210 L 419,211 L 418,212 L 417,213 L 416,213 L 414,213 L 412,212 L 411,211 L 410,211 L 409,211 L 407,210 L 405,210 L 404,209 L 403,209 L 402,209 L 402,210 L 401,210 L 401,211 L 400,212 L 400,213 L 399,215 L 400,216 L 401,216 L 401,217 L 402,218 L 402,219 L 403,220 L 404,221 L 405,221 L 406,222 L 408,223 L 409,224 L 411,224 L 412,225 L 414,225 L 415,226 L 416,228 L 416,229 L 415,229 L 415,230 L 415,231 L 414,232 L 413,232 L 413,233 L 413,234 L 413,235 L 414,235 L 413,236 L 412,236 L 411,236 L 411,237 L 411,238 L 410,238 L 410,239 L 409,239 L 408,239 L 408,240 L 408,241 L 407,242 L 406,242 L 405,242 L 405,241 L 404,241 L 403,241 L 402,241 L 401,240 L 400,239 L 399,239 L 399,238 L 398,237 L 397,236 L 396,236 L 395,236 L 394,237 L 393,237 L 392,236 L 392,235 L 392,234 L 391,234 L 390,233 L 389,233 L 389,232 L 389,230 L 390,228 L 391,227 L 391,226 L 390,225 L 389,224 L 388,223 L 387,222 L 386,221 L 387,219 L 387,218 L 386,217 L 385,217 L 383,217 L 382,216 L 380,215 L 378,215 L 377,214 L 378,213 L 378,211 L 378,210 L 379,209 L 379,208 L 379,207 L 378,206 L 377,206 L 375,207 L 374,207 L 373,207 L 373,205 L 374,204 L 375,202 L 375,200 L 375,199 L 376,198 L 376,197 L 378,196 L 379,195 L 380,196 L 381,196 L 382,196 L 383,196 L 384,196 L 384,195 L 384,194 L 383,192 L 382,192 L 382,191 L 382,190 L 383,190 L 384,190 L 385,190 L 386,190 L 387,191 L 389,191 L 391,192 L 392,192 L 394,192 L 395,192 L 396,192 L 398,191 L 399,191 L 400,190 L 401,190 L 402,190 L 403,190 L 404,189 L 406,188 L 406,186 L 408,185 L 408,184 L 409,183 L 409,182 L 409,180 L 408,179 L 408,178 L 408,177 L 408,176 L 407,176 L 407,175 L 405,175 L 404,175 L 404,174 L 405,173 L 406,169 L 407,167 L 406,167 L 405,166 L 403,166 L 403,165 L 401,164 L 400,164 L 398,163 L 396,161 L 394,161 L 393,160 L 392,160 L 391,159 L 390,159 L 390,157 L 391,155 L 391,154 L 391,153 L 392,152 L 393,152 L 394,151 L 395,150 L 395,148 L 395,146 L 395,144 L 396,143 L 396,141 L 396,140 L 395,140 L 394,140 L 393,139 L 392,138 L 391,137 L 390,136 L 389,135 L 388,136 L 387,136 L 385,135 L 383,135 L 380,134 L 379,133 L 379,132 L 378,132 L 378,130 L 378,129 L 378,128 L 378,127 L 378,124 L 378,122 L 379,120 L 378,119 L 378,117 L 379,116 L 379,114 L 379,113 L 380,111 L 380,109 L 380,108 L 381,106 L 382,105 L 383,105 L 384,105 L 385,105 L 386,103 L 386,102 L 387,101 L 388,101 L 388,100 L 389,99 L 389,98 L 388,98 L 387,97 L 388,96 L 389,96 L 391,96 L 392,96 L 393,95 L 394,94 L 394,93 L 394,92 L 395,91 L 397,91 L 398,91 L 400,90 L 401,89 L 401,88 L 401,85 L 401,84 L 401,83 L 402,82 L 403,82 L 404,83 L 405,83 L 406,83 L 407,84 L 408,84 L 410,84 L 410,85 L 412,85 L 413,86 L 414,86 L 415,87 L 416,87 L 417,87 L 418,87 L 418,88 L 418,89 L 419,89 L 419,90 " />
</g>
<g id="48" class="st0 dist-block" inkscape:label="Bhandaripokhari">
<path d="M 313,181 L 314,182 L 314,183 L 315,184 L 316,185 L 315,186 L 315,187 L 314,187 L 314,188 L 313,189 L 312,190 L 313,191 L 313,192 L 314,192 L 314,193 L 315,193 L 315,194 L 316,195 L 316,196 L 316,197 L 316,198 L 318,198 L 319,198 L 320,199 L 320,200 L 321,200 L 321,201 L 322,200 L 323,199 L 322,199 L 322,198 L 323,198 L 323,199 L 324,199 L 324,200 L 325,200 L 325,201 L 326,201 L 326,202 L 327,203 L 327,204 L 328,204 L 328,205 L 329,205 L 329,206 L 330,206 L 330,207 L 331,207 L 331,208 L 332,208 L 333,208 L 334,209 L 334,210 L 334,211 L 335,210 L 336,210 L 336,211 L 336,212 L 337,213 L 338,214 L 338,213 L 339,213 L 340,213 L 341,212 L 342,212 L 344,212 L 345,212 L 347,212 L 347,213 L 346,214 L 346,215 L 347,215 L 348,215 L 349,214 L 350,214 L 350,215 L 349,216 L 349,217 L 348,218 L 347,219 L 346,220 L 347,221 L 348,221 L 349,221 L 350,221 L 350,222 L 351,223 L 352,224 L 353,224 L 354,225 L 355,225 L 356,226 L 357,226 L 358,226 L 359,227 L 360,227 L 360,228 L 361,228 L 362,229 L 363,229 L 364,229 L 365,229 L 366,229 L 368,228 L 369,228 L 371,228 L 372,228 L 373,228 L 374,229 L 375,229 L 376,229 L 377,229 L 378,229 L 378,230 L 378,231 L 378,232 L 378,233 L 379,233 L 378,233 L 378,234 L 378,235 L 377,235 L 378,236 L 379,236 L 379,237 L 380,237 L 380,238 L 381,238 L 381,239 L 381,240 L 382,240 L 383,240 L 383,241 L 384,241 L 385,242 L 386,242 L 386,241 L 387,241 L 387,240 L 388,240 L 388,239 L 389,238 L 390,237 L 391,236 L 392,235 L 392,236 L 393,237 L 394,237 L 395,236 L 396,236 L 397,236 L 398,237 L 397,237 L 396,239 L 396,240 L 395,241 L 394,242 L 394,243 L 393,244 L 393,245 L 393,246 L 393,247 L 394,247 L 393,248 L 394,249 L 394,250 L 394,251 L 394,252 L 395,252 L 395,253 L 396,253 L 396,254 L 397,254 L 398,255 L 399,255 L 400,254 L 400,253 L 400,251 L 400,250 L 400,249 L 401,247 L 401,245 L 402,243 L 402,242 L 403,241 L 404,241 L 405,241 L 405,242 L 406,242 L 407,242 L 408,241 L 408,240 L 408,239 L 409,239 L 410,239 L 410,238 L 411,238 L 411,237 L 411,236 L 412,236 L 413,236 L 414,235 L 413,235 L 413,234 L 413,233 L 413,232 L 414,232 L 415,231 L 415,230 L 415,229 L 416,229 L 416,228 L 415,226 L 414,225 L 412,225 L 411,224 L 409,224 L 408,223 L 406,222 L 405,221 L 404,221 L 403,220 L 402,219 L 402,218 L 401,217 L 401,216 L 400,216 L 399,215 L 400,213 L 400,212 L 401,211 L 401,210 L 402,210 L 402,209 L 403,209 L 404,209 L 405,210 L 407,210 L 409,211 L 410,211 L 411,211 L 412,212 L 414,213 L 416,213 L 417,213 L 418,212 L 419,211 L 420,210 L 421,209 L 422,209 L 423,209 L 424,210 L 425,210 L 425,211 L 424,212 L 425,212 L 426,213 L 425,214 L 425,215 L 425,216 L 425,217 L 424,217 L 424,218 L 425,218 L 424,219 L 424,220 L 424,221 L 425,221 L 426,222 L 427,221 L 428,222 L 429,222 L 429,223 L 430,223 L 431,223 L 431,224 L 432,223 L 432,224 L 433,225 L 433,226 L 434,226 L 435,226 L 436,226 L 436,227 L 437,227 L 438,227 L 438,228 L 439,228 L 440,228 L 441,229 L 441,230 L 442,230 L 443,229 L 444,229 L 444,230 L 445,230 L 445,231 L 444,231 L 443,232 L 444,232 L 443,233 L 444,233 L 445,233 L 445,234 L 445,235 L 444,236 L 444,237 L 443,238 L 443,239 L 443,240 L 442,241 L 442,242 L 442,243 L 442,244 L 441,245 L 441,246 L 440,245 L 439,245 L 438,245 L 437,245 L 436,244 L 434,244 L 433,243 L 432,243 L 431,243 L 430,243 L 429,243 L 429,244 L 428,245 L 428,246 L 427,246 L 426,246 L 426,247 L 424,246 L 423,246 L 422,247 L 421,248 L 421,249 L 421,250 L 421,251 L 422,251 L 423,252 L 423,253 L 422,254 L 422,255 L 422,256 L 422,257 L 422,258 L 422,259 L 423,260 L 424,261 L 424,262 L 425,263 L 424,264 L 424,265 L 423,265 L 422,265 L 421,264 L 421,263 L 420,263 L 419,263 L 419,262 L 418,262 L 417,262 L 416,262 L 416,263 L 416,264 L 415,263 L 414,263 L 414,264 L 414,263 L 414,262 L 414,261 L 415,261 L 415,260 L 414,260 L 413,261 L 413,262 L 412,263 L 412,264 L 412,263 L 412,262 L 412,261 L 411,261 L 410,262 L 409,262 L 408,262 L 408,261 L 407,261 L 406,262 L 405,262 L 404,265 L 403,266 L 402,267 L 402,268 L 403,268 L 403,267 L 404,267 L 404,266 L 405,266 L 406,266 L 406,267 L 407,267 L 408,267 L 409,268 L 408,269 L 408,270 L 408,271 L 408,272 L 407,273 L 407,274 L 407,275 L 406,275 L 405,275 L 404,274 L 403,274 L 401,273 L 400,272 L 398,271 L 397,271 L 396,271 L 395,271 L 395,270 L 394,271 L 394,272 L 394,273 L 395,274 L 395,275 L 394,276 L 393,276 L 392,276 L 392,277 L 391,277 L 391,278 L 390,279 L 389,279 L 388,278 L 388,277 L 387,276 L 386,276 L 385,276 L 384,277 L 383,278 L 382,279 L 382,280 L 381,281 L 382,281 L 382,282 L 383,282 L 383,283 L 382,284 L 381,285 L 381,286 L 380,287 L 380,288 L 379,289 L 379,290 L 378,290 L 378,291 L 378,292 L 379,293 L 379,294 L 380,294 L 381,294 L 382,294 L 382,295 L 382,296 L 381,297 L 381,298 L 381,299 L 380,299 L 380,300 L 381,300 L 381,301 L 381,302 L 381,303 L 380,304 L 380,305 L 380,306 L 380,307 L 380,308 L 381,308 L 382,308 L 383,308 L 384,308 L 385,309 L 386,309 L 387,309 L 388,309 L 388,310 L 388,311 L 388,312 L 388,313 L 388,314 L 387,315 L 387,316 L 387,317 L 387,318 L 387,319 L 387,320 L 386,321 L 385,322 L 385,323 L 384,324 L 384,325 L 384,326 L 383,327 L 383,328 L 383,329 L 382,329 L 382,330 L 382,331 L 381,331 L 381,330 L 381,329 L 380,328 L 379,328 L 378,328 L 377,328 L 376,328 L 376,329 L 376,330 L 375,331 L 375,332 L 375,333 L 375,334 L 376,335 L 376,334 L 377,335 L 377,336 L 377,341 L 376,342 L 376,343 L 376,344 L 376,345 L 376,346 L 375,347 L 374,347 L 373,348 L 371,349 L 370,350 L 369,350 L 367,351 L 366,351 L 365,351 L 364,352 L 363,352 L 362,353 L 361,353 L 360,354 L 359,355 L 358,356 L 357,357 L 357,358 L 357,359 L 357,361 L 358,362 L 357,362 L 356,362 L 355,362 L 354,362 L 353,362 L 353,363 L 352,363 L 351,363 L 350,363 L 349,364 L 348,364 L 347,365 L 346,365 L 346,366 L 345,366 L 345,367 L 344,367 L 344,368 L 343,369 L 342,370 L 341,370 L 341,371 L 340,371 L 339,372 L 338,372 L 337,372 L 336,372 L 335,372 L 334,372 L 333,372 L 332,371 L 331,371 L 330,371 L 330,370 L 329,370 L 328,369 L 327,369 L 327,368 L 326,368 L 326,367 L 325,367 L 324,367 L 324,366 L 323,366 L 322,365 L 322,364 L 321,364 L 321,363 L 320,363 L 320,362 L 319,362 L 318,362 L 318,361 L 317,361 L 316,361 L 315,362 L 314,362 L 313,362 L 313,361 L 312,361 L 312,360 L 312,359 L 312,358 L 312,357 L 312,356 L 313,356 L 313,355 L 314,355 L 315,355 L 316,354 L 317,354 L 318,353 L 319,353 L 319,352 L 319,351 L 319,350 L 319,349 L 319,348 L 318,347 L 317,346 L 316,346 L 315,347 L 314,347 L 313,347 L 312,347 L 312,348 L 311,348 L 310,348 L 309,348 L 308,348 L 307,348 L 306,348 L 305,347 L 304,347 L 304,346 L 303,346 L 303,345 L 303,344 L 302,344 L 301,343 L 301,342 L 300,342 L 300,341 L 299,340 L 299,339 L 299,338 L 298,338 L 298,337 L 298,336 L 299,336 L 298,335 L 298,334 L 298,333 L 298,332 L 298,331 L 297,330 L 296,330 L 295,330 L 294,329 L 293,329 L 292,329 L 292,328 L 291,328 L 290,327 L 289,327 L 289,326 L 288,326 L 287,326 L 287,325 L 286,325 L 285,325 L 284,326 L 283,326 L 282,326 L 282,327 L 281,327 L 280,327 L 279,327 L 278,327 L 278,326 L 277,326 L 276,326 L 275,326 L 275,325 L 274,325 L 273,325 L 273,324 L 272,324 L 272,323 L 271,322 L 271,321 L 271,320 L 270,319 L 270,318 L 270,317 L 270,316 L 270,315 L 270,314 L 270,313 L 269,312 L 269,311 L 269,310 L 268,310 L 268,309 L 268,308 L 268,307 L 268,306 L 268,305 L 268,304 L 268,303 L 268,302 L 268,301 L 269,301 L 269,300 L 270,299 L 270,298 L 271,298 L 271,297 L 271,296 L 272,296 L 272,295 L 273,295 L 273,294 L 273,293 L 274,293 L 274,292 L 274,291 L 275,291 L 275,290 L 275,289 L 276,288 L 276,287 L 276,286 L 276,285 L 277,284 L 277,283 L 277,282 L 277,281 L 277,280 L 277,279 L 277,278 L 277,277 L 277,276 L 277,275 L 278,275 L 278,274 L 278,273 L 278,272 L 278,271 L 278,270 L 278,269 L 278,268 L 278,267 L 278,266 L 278,265 L 278,264 L 278,263 L 278,262 L 278,261 L 277,261 L 277,260 L 276,259 L 276,258 L 276,257 L 275,257 L 275,256 L 275,255 L 275,254 L 275,253 L 275,252 L 275,251 L 275,250 L 275,249 L 275,248 L 275,247 L 275,246 L 275,245 L 276,244 L 276,243 L 277,242 L 277,241 L 277,240 L 278,240 L 278,239 L 278,238 L 278,237 L 278,236 L 278,235 L 278,234 L 279,234 L 279,233 L 279,232 L 278,232 L 278,231 L 279,231 L 279,230 L 279,229 L 279,228 L 279,227 L 279,226 L 279,225 L 279,224 L 279,223 L 279,222 L 279,221 L 279,220 L 279,219 L 279,218 L 279,217 L 279,216 L 278,216 L 278,215 L 277,215 L 277,214 L 276,214 L 275,213 L 274,213 L 273,212 L 272,212 L 273,212 L 273,211 L 274,211 L 275,211 L 276,211 L 277,211 L 278,211 L 278,212 L 279,212 L 280,212 L 281,212 L 282,212 L 283,212 L 284,213 L 285,213 L 286,213 L 286,214 L 287,214 L 288,214 L 288,215 L 289,215 L 290,215 L 291,215 L 292,215 L 292,214 L 292,213 L 292,212 L 292,211 L 291,211 L 291,210 L 291,209 L 292,209 L 292,208 L 292,207 L 292,206 L 293,205 L 293,204 L 293,203 L 294,203 L 294,202 L 294,201 L 294,200 L 295,200 L 295,199 L 295,198 L 296,198 L 296,197 L 296,196 L 296,195 L 296,194 L 297,194 L 297,193 L 297,192 L 298,192 L 298,191 L 298,190 L 298,189 L 298,188 L 299,188 L 299,187 L 299,186 L 299,185 L 299,184 L 299,183 L 299,182 L 299,181 L 299,180 L 299,179 L 299,178 L 300,178 L 301,178 L 302,179 L 303,179 L 303,180 L 304,180 L 305,181 L 306,181 L 306,182 L 307,182 L 307,181 L 307,180 L 307,179 L 308,179 L 308,178 L 309,178 L 310,178 L 311,178 L 311,179 L 312,180 L 313,180 L 313,181 " />
</g>
<g id="70" class="st0 dist-block" inkscape:label="Bonth">
<path d="M 400,254 L 399,255 L 398,255 L 397,254 L 396,254 L 396,253 L 395,253 L 395,252 L 394,252 L 394,251 L 394,250 L 394,249 L 393,248 L 394,247 L 393,247 L 393,246 L 393,245 L 393,244 L 394,243 L 394,242 L 395,241 L 396,240 L 396,239 L 397,237 L 398,237 L 399,238 L 399,239 L 400,239 L 401,240 L 402,241 L 403,241 L 402,242 L 402,243 L 401,245 L 401,247 L 400,249 L 400,250 L 400,251 L 400,253 L 400,254 " />
<path d="M 347,12 L 348,12 L 349,13 L 349,14 L 349,15 L 350,16 L 350,17 L 351,17 L 351,18 L 352,18 L 352,19 L 352,20 L 353,21 L 353,22 L 353,23 L 354,23 L 354,24 L 355,24 L 357,25 L 358,25 L 359,25 L 359,26 L 361,26 L 362,27 L 363,27 L 364,27 L 365,27 L 366,28 L 367,28 L 368,28 L 369,28 L 370,28 L 371,28 L 372,28 L 373,28 L 374,28 L 376,28 L 377,28 L 378,28 L 379,28 L 380,28 L 381,28 L 382,28 L 383,29 L 383,30 L 384,31 L 384,32 L 383,32 L 383,33 L 384,33 L 385,33 L 386,33 L 386,34 L 386,35 L 387,36 L 387,37 L 387,38 L 387,39 L 388,39 L 388,40 L 389,40 L 390,39 L 391,39 L 391,40 L 392,40 L 392,41 L 392,42 L 392,43 L 392,44 L 393,43 L 394,42 L 394,41 L 395,40 L 395,39 L 394,39 L 393,38 L 392,38 L 392,37 L 392,36 L 393,35 L 393,34 L 394,33 L 394,32 L 394,31 L 394,30 L 395,28 L 395,27 L 395,26 L 396,26 L 397,26 L 398,26 L 399,26 L 400,27 L 401,27 L 402,27 L 403,27 L 404,27 L 405,28 L 406,28 L 406,29 L 406,30 L 407,30 L 408,30 L 408,31 L 409,31 L 409,32 L 408,33 L 408,34 L 408,36 L 408,37 L 409,37 L 409,38 L 410,38 L 410,39 L 409,40 L 409,41 L 408,42 L 409,43 L 410,43 L 411,43 L 412,44 L 414,44 L 415,45 L 416,46 L 416,47 L 416,48 L 416,49 L 416,50 L 416,51 L 417,51 L 417,52 L 416,52 L 415,52 L 415,53 L 414,53 L 414,54 L 413,54 L 412,54 L 412,53 L 411,53 L 411,54 L 410,54 L 409,55 L 409,56 L 408,56 L 408,57 L 407,58 L 406,59 L 406,60 L 405,61 L 404,62 L 403,62 L 402,63 L 401,64 L 400,64 L 400,65 L 400,66 L 401,67 L 402,67 L 402,68 L 403,68 L 404,68 L 405,68 L 406,68 L 406,67 L 407,66 L 408,65 L 409,65 L 410,64 L 411,64 L 412,64 L 412,65 L 413,66 L 413,67 L 412,68 L 412,69 L 412,70 L 412,71 L 413,71 L 413,72 L 413,73 L 412,74 L 412,75 L 412,76 L 411,76 L 410,77 L 409,78 L 408,78 L 407,79 L 406,79 L 405,80 L 404,80 L 403,81 L 402,81 L 402,82 L 401,83 L 401,84 L 401,85 L 401,88 L 401,89 L 400,90 L 398,91 L 397,91 L 395,91 L 394,92 L 394,93 L 394,94 L 393,95 L 392,96 L 391,96 L 389,96 L 388,96 L 387,97 L 388,98 L 389,98 L 389,99 L 388,100 L 388,101 L 387,101 L 386,102 L 386,103 L 385,105 L 384,105 L 383,105 L 382,105 L 381,106 L 380,108 L 380,109 L 380,111 L 379,113 L 379,114 L 379,116 L 378,117 L 378,119 L 379,120 L 378,122 L 378,124 L 378,127 L 378,128 L 378,129 L 378,130 L 378,132 L 379,132 L 379,133 L 380,134 L 383,135 L 385,135 L 387,136 L 388,136 L 389,135 L 390,136 L 391,137 L 392,138 L 393,139 L 394,140 L 395,140 L 396,140 L 396,141 L 396,143 L 395,144 L 395,146 L 395,148 L 395,150 L 394,151 L 393,152 L 392,152 L 391,153 L 391,154 L 391,155 L 390,157 L 390,159 L 391,159 L 392,160 L 393,160 L 394,161 L 396,161 L 398,163 L 400,164 L 401,164 L 403,165 L 403,166 L 405,166 L 406,167 L 407,167 L 406,169 L 405,173 L 404,174 L 404,175 L 405,175 L 407,175 L 407,176 L 408,176 L 408,177 L 408,178 L 408,179 L 409,180 L 409,182 L 409,183 L 408,184 L 408,185 L 406,186 L 406,188 L 404,189 L 403,190 L 402,190 L 401,190 L 400,190 L 399,191 L 398,191 L 396,192 L 395,192 L 394,192 L 392,192 L 391,192 L 389,191 L 387,191 L 386,190 L 385,190 L 384,190 L 383,190 L 382,190 L 382,191 L 382,192 L 383,192 L 384,194 L 384,195 L 384,196 L 383,196 L 382,196 L 381,196 L 380,196 L 379,195 L 378,196 L 376,197 L 376,198 L 375,199 L 375,200 L 375,202 L 374,204 L 373,205 L 373,207 L 374,207 L 375,207 L 377,206 L 378,206 L 379,207 L 379,208 L 379,209 L 378,210 L 378,211 L 378,213 L 377,214 L 378,215 L 380,215 L 382,216 L 383,217 L 385,217 L 386,217 L 387,218 L 387,219 L 386,221 L 387,222 L 388,223 L 389,224 L 390,225 L 391,226 L 391,227 L 390,228 L 389,230 L 389,232 L 389,233 L 390,233 L 391,234 L 392,234 L 392,235 L 391,236 L 390,237 L 389,238 L 388,239 L 388,240 L 387,240 L 387,241 L 386,241 L 386,242 L 385,242 L 384,241 L 383,241 L 383,240 L 382,240 L 381,240 L 381,239 L 381,238 L 380,238 L 380,237 L 379,237 L 379,236 L 378,236 L 377,235 L 378,235 L 378,234 L 378,233 L 379,233 L 378,233 L 378,232 L 378,231 L 378,230 L 378,229 L 377,229 L 376,229 L 375,229 L 374,229 L 373,228 L 372,228 L 371,228 L 369,228 L 368,228 L 366,229 L 365,229 L 364,229 L 363,229 L 362,229 L 361,228 L 360,228 L 360,227 L 359,227 L 358,226 L 357,226 L 356,226 L 355,225 L 354,225 L 353,224 L 352,224 L 351,223 L 350,222 L 350,221 L 349,221 L 348,221 L 347,221 L 346,220 L 347,219 L 348,218 L 349,217 L 349,216 L 350,215 L 350,214 L 349,214 L 348,215 L 347,215 L 346,215 L 346,214 L 347,213 L 347,212 L 345,212 L 344,212 L 342,212 L 341,212 L 340,213 L 339,213 L 338,213 L 338,214 L 337,213 L 336,212 L 336,211 L 336,210 L 335,210 L 334,211 L 334,210 L 334,209 L 333,208 L 332,208 L 331,208 L 331,207 L 330,207 L 330,206 L 329,206 L 329,205 L 328,205 L 328,204 L 327,204 L 327,203 L 326,202 L 326,201 L 325,201 L 325,200 L 324,200 L 324,199 L 323,199 L 323,198 L 322,198 L 322,199 L 323,199 L 322,200 L 321,201 L 321,200 L 320,200 L 320,199 L 319,198 L 318,198 L 316,198 L 316,197 L 316,196 L 316,195 L 315,194 L 315,193 L 314,193 L 314,192 L 313,192 L 313,191 L 312,190 L 313,189 L 314,188 L 314,187 L 315,187 L 315,186 L 316,185 L 315,184 L 314,183 L 314,182 L 313,181 L 313,180 L 312,180 L 311,179 L 311,178 L 310,178 L 310,177 L 310,176 L 309,176 L 309,175 L 309,174 L 308,173 L 309,173 L 309,172 L 309,171 L 308,171 L 308,170 L 308,169 L 307,168 L 306,168 L 306,169 L 305,168 L 304,168 L 304,167 L 305,166 L 305,165 L 306,165 L 305,165 L 305,164 L 305,163 L 304,163 L 304,162 L 305,162 L 305,161 L 304,161 L 304,162 L 303,162 L 303,161 L 304,161 L 304,160 L 304,159 L 304,158 L 304,157 L 303,157 L 303,156 L 302,155 L 301,155 L 300,155 L 299,155 L 298,155 L 298,154 L 298,153 L 297,153 L 297,152 L 296,152 L 296,151 L 295,151 L 294,151 L 293,150 L 293,149 L 293,148 L 293,147 L 293,146 L 294,146 L 294,145 L 295,144 L 295,143 L 296,143 L 296,142 L 295,142 L 294,141 L 293,141 L 293,140 L 292,140 L 291,139 L 292,139 L 292,138 L 293,137 L 292,137 L 292,136 L 291,136 L 291,135 L 292,134 L 292,133 L 293,132 L 293,131 L 294,131 L 294,130 L 295,130 L 295,129 L 296,128 L 296,127 L 295,127 L 295,126 L 294,126 L 293,126 L 293,125 L 292,125 L 291,124 L 290,124 L 290,123 L 289,123 L 288,123 L 288,122 L 287,122 L 286,122 L 285,122 L 284,122 L 284,121 L 283,121 L 282,121 L 281,121 L 280,121 L 280,122 L 279,122 L 279,121 L 278,121 L 278,120 L 279,120 L 279,119 L 280,119 L 281,119 L 281,118 L 281,117 L 281,116 L 281,115 L 280,114 L 280,113 L 279,113 L 279,112 L 279,111 L 278,111 L 278,110 L 277,109 L 277,108 L 276,108 L 276,107 L 276,106 L 275,106 L 275,105 L 274,105 L 273,105 L 273,104 L 272,104 L 271,103 L 270,103 L 270,104 L 269,104 L 268,104 L 267,104 L 267,103 L 266,103 L 265,103 L 264,103 L 264,102 L 264,101 L 264,100 L 264,99 L 265,99 L 265,98 L 265,97 L 266,96 L 265,96 L 265,95 L 265,94 L 265,93 L 266,92 L 266,91 L 267,90 L 267,89 L 268,89 L 268,88 L 269,88 L 269,87 L 270,87 L 270,86 L 271,86 L 271,85 L 272,85 L 272,84 L 273,83 L 273,82 L 274,82 L 274,81 L 274,80 L 274,79 L 273,79 L 273,78 L 273,77 L 274,77 L 274,76 L 275,76 L 275,75 L 276,74 L 277,74 L 277,73 L 278,73 L 279,73 L 280,73 L 280,72 L 280,71 L 281,70 L 281,69 L 282,69 L 283,69 L 284,69 L 285,69 L 286,69 L 286,70 L 287,70 L 288,70 L 288,69 L 289,69 L 290,69 L 290,70 L 291,70 L 292,70 L 293,70 L 293,71 L 293,72 L 293,73 L 293,74 L 293,75 L 294,75 L 295,75 L 296,75 L 297,75 L 297,74 L 298,74 L 299,74 L 300,73 L 304,69 L 304,70 L 305,70 L 306,70 L 306,69 L 307,69 L 307,68 L 306,68 L 306,67 L 306,66 L 306,65 L 306,64 L 307,64 L 308,64 L 309,64 L 309,65 L 310,65 L 311,65 L 311,66 L 311,67 L 310,67 L 310,68 L 309,68 L 309,69 L 310,69 L 311,68 L 312,68 L 313,68 L 313,67 L 314,67 L 314,66 L 315,66 L 315,65 L 316,65 L 317,65 L 318,65 L 319,65 L 320,65 L 321,65 L 322,65 L 323,65 L 323,64 L 323,63 L 324,63 L 324,62 L 324,61 L 325,61 L 325,60 L 325,59 L 326,59 L 326,58 L 325,58 L 325,57 L 324,57 L 324,56 L 325,56 L 326,56 L 326,55 L 327,55 L 328,55 L 328,54 L 329,54 L 330,54 L 331,54 L 331,53 L 331,52 L 331,51 L 331,50 L 332,50 L 332,49 L 332,48 L 332,47 L 332,46 L 332,45 L 332,44 L 333,44 L 333,43 L 333,42 L 333,41 L 334,40 L 334,39 L 335,39 L 335,38 L 336,37 L 336,36 L 336,35 L 335,35 L 335,34 L 335,33 L 335,32 L 336,32 L 336,31 L 336,30 L 336,29 L 336,28 L 336,27 L 335,27 L 335,26 L 335,25 L 335,24 L 334,23 L 335,23 L 335,22 L 335,21 L 334,21 L 334,20 L 334,19 L 334,18 L 334,17 L 334,16 L 334,15 L 333,15 L 333,14 L 333,13 L 334,13 L 335,12 L 336,12 L 337,12 L 338,12 L 339,12 L 340,12 L 341,12 L 342,12 L 343,12 L 344,12 L 345,12 L 345,11 L 346,11 L 346,12 L 347,12 " />
</g>
<g id="77" class="st0 dist-block" inkscape:label="Chandabali">
<path d="M 885,441 L 884,442 L 883,441 L 882,441 L 882,440 L 882,439 L 882,438 L 883,438 L 884,436 L 885,435 L 885,434 L 886,435 L 886,437 L 886,438 L 886,440 L 885,441 " />
<path d="M 829,272 L 831,274 L 832,276 L 833,278 L 834,280 L 835,281 L 836,282 L 836,283 L 837,284 L 837,286 L 838,288 L 839,289 L 840,290 L 841,291 L 841,292 L 841,293 L 842,295 L 843,297 L 844,299 L 844,301 L 845,303 L 846,305 L 847,307 L 847,308 L 848,308 L 849,309 L 849,310 L 850,311 L 850,312 L 851,313 L 852,314 L 853,315 L 853,317 L 854,318 L 854,320 L 855,321 L 855,323 L 857,324 L 858,326 L 859,327 L 859,329 L 860,330 L 862,333 L 863,335 L 864,336 L 865,338 L 866,340 L 867,341 L 867,342 L 868,343 L 868,345 L 869,346 L 870,348 L 871,350 L 871,352 L 873,354 L 875,356 L 877,358 L 878,359 L 879,361 L 880,362 L 881,364 L 882,365 L 883,366 L 884,367 L 884,369 L 884,371 L 884,373 L 884,376 L 884,378 L 884,380 L 883,382 L 883,384 L 882,387 L 882,390 L 881,392 L 881,394 L 880,398 L 880,401 L 880,403 L 879,405 L 879,406 L 879,408 L 878,411 L 877,413 L 875,416 L 875,418 L 874,419 L 873,421 L 872,426 L 872,428 L 871,431 L 870,433 L 869,433 L 868,434 L 867,436 L 865,437 L 862,439 L 860,441 L 857,442 L 856,442 L 855,441 L 854,441 L 853,440 L 851,439 L 849,439 L 847,439 L 845,439 L 844,439 L 841,439 L 838,438 L 835,438 L 832,438 L 829,438 L 826,437 L 824,437 L 822,436 L 819,435 L 817,435 L 816,434 L 815,434 L 814,434 L 812,433 L 811,433 L 809,433 L 807,432 L 806,432 L 804,432 L 802,432 L 801,431 L 799,431 L 798,431 L 797,431 L 795,431 L 793,431 L 791,432 L 789,432 L 787,433 L 786,433 L 786,434 L 784,434 L 783,436 L 782,436 L 781,437 L 782,437 L 783,437 L 783,438 L 782,440 L 781,441 L 780,442 L 779,443 L 778,444 L 775,445 L 774,445 L 773,446 L 770,447 L 769,447 L 768,448 L 767,448 L 766,448 L 764,449 L 762,450 L 761,451 L 760,452 L 759,453 L 758,453 L 756,454 L 755,455 L 754,456 L 752,457 L 752,458 L 751,459 L 751,460 L 750,462 L 750,463 L 749,465 L 748,466 L 746,466 L 746,467 L 746,468 L 745,468 L 745,469 L 744,470 L 744,471 L 744,472 L 743,472 L 742,471 L 741,471 L 738,468 L 737,468 L 736,467 L 735,467 L 734,466 L 734,465 L 733,464 L 732,463 L 731,462 L 730,462 L 730,461 L 729,461 L 728,461 L 727,461 L 726,461 L 725,462 L 724,462 L 723,463 L 723,464 L 722,464 L 722,465 L 722,466 L 722,467 L 723,468 L 723,469 L 723,470 L 722,471 L 722,472 L 722,473 L 722,474 L 721,474 L 721,475 L 721,476 L 721,477 L 721,478 L 720,479 L 720,480 L 720,481 L 720,482 L 719,483 L 719,484 L 718,483 L 717,482 L 717,481 L 716,481 L 716,480 L 715,479 L 714,478 L 713,477 L 712,477 L 712,476 L 711,476 L 710,476 L 709,475 L 708,475 L 707,475 L 706,475 L 705,475 L 704,476 L 703,476 L 702,477 L 701,477 L 700,478 L 700,479 L 699,480 L 698,480 L 697,481 L 696,482 L 695,482 L 694,482 L 693,482 L 692,482 L 691,482 L 691,481 L 690,481 L 689,481 L 688,480 L 688,479 L 687,479 L 686,478 L 686,477 L 685,476 L 684,475 L 684,474 L 684,473 L 684,472 L 684,471 L 684,470 L 684,469 L 685,468 L 685,467 L 685,466 L 686,465 L 687,465 L 687,464 L 688,464 L 688,463 L 689,463 L 689,462 L 689,461 L 690,460 L 690,459 L 691,458 L 691,457 L 691,455 L 691,454 L 690,453 L 690,452 L 689,451 L 688,450 L 687,449 L 686,449 L 685,448 L 684,448 L 682,448 L 681,448 L 680,448 L 679,448 L 678,448 L 677,448 L 676,448 L 675,448 L 674,448 L 673,448 L 672,448 L 671,448 L 670,448 L 669,448 L 668,448 L 668,449 L 667,449 L 666,449 L 666,450 L 665,450 L 665,451 L 664,451 L 664,452 L 663,452 L 663,453 L 662,453 L 662,454 L 661,454 L 660,455 L 659,455 L 658,455 L 657,455 L 656,455 L 655,455 L 654,455 L 654,456 L 653,456 L 652,456 L 651,456 L 651,457 L 650,457 L 649,457 L 648,457 L 648,458 L 647,458 L 646,457 L 646,456 L 645,456 L 645,455 L 645,454 L 645,453 L 645,452 L 645,451 L 645,450 L 645,449 L 645,448 L 646,448 L 646,447 L 646,446 L 646,445 L 645,444 L 645,443 L 644,443 L 644,442 L 643,442 L 642,442 L 642,441 L 641,441 L 640,441 L 640,442 L 639,442 L 638,442 L 637,442 L 636,442 L 636,441 L 635,441 L 634,441 L 634,440 L 633,440 L 633,439 L 632,439 L 632,438 L 631,438 L 631,437 L 630,437 L 630,436 L 629,436 L 628,436 L 627,436 L 627,435 L 626,435 L 625,435 L 624,435 L 623,435 L 622,435 L 622,434 L 621,434 L 621,433 L 620,433 L 620,432 L 619,432 L 619,431 L 619,430 L 618,430 L 618,429 L 617,429 L 616,429 L 615,429 L 614,429 L 613,429 L 612,429 L 611,429 L 610,429 L 609,430 L 608,430 L 607,431 L 606,431 L 606,430 L 605,430 L 605,429 L 605,428 L 605,427 L 605,426 L 604,426 L 604,425 L 603,424 L 599,423 L 598,423 L 597,423 L 596,423 L 595,423 L 594,423 L 593,423 L 593,424 L 592,424 L 591,424 L 591,425 L 590,425 L 590,426 L 590,427 L 589,427 L 589,428 L 589,429 L 589,430 L 588,430 L 588,431 L 587,431 L 586,431 L 585,430 L 585,429 L 584,429 L 584,428 L 584,427 L 584,426 L 584,425 L 584,424 L 584,423 L 584,422 L 583,422 L 582,423 L 582,424 L 581,424 L 581,425 L 581,426 L 580,427 L 579,428 L 578,427 L 578,426 L 577,426 L 577,425 L 577,424 L 576,424 L 576,423 L 575,423 L 575,422 L 574,422 L 573,422 L 572,422 L 571,422 L 571,423 L 570,423 L 569,423 L 568,423 L 568,424 L 567,424 L 566,424 L 566,425 L 565,425 L 564,425 L 563,425 L 562,424 L 562,423 L 562,422 L 562,421 L 562,420 L 562,419 L 562,418 L 562,417 L 563,416 L 563,415 L 564,415 L 565,415 L 566,415 L 566,416 L 567,416 L 568,416 L 569,416 L 570,415 L 570,414 L 570,413 L 571,413 L 571,412 L 571,411 L 570,411 L 570,410 L 569,410 L 569,411 L 568,411 L 567,411 L 566,411 L 566,410 L 566,409 L 567,409 L 567,408 L 568,408 L 568,407 L 567,407 L 566,407 L 566,408 L 565,408 L 564,408 L 563,408 L 563,407 L 562,407 L 562,406 L 561,405 L 561,404 L 560,404 L 560,403 L 560,402 L 560,401 L 559,401 L 559,400 L 559,399 L 559,398 L 559,397 L 559,396 L 559,395 L 559,394 L 559,393 L 558,393 L 558,392 L 557,392 L 556,392 L 556,393 L 555,393 L 554,393 L 553,393 L 552,393 L 551,392 L 551,391 L 551,390 L 551,389 L 551,388 L 551,387 L 551,386 L 551,385 L 551,384 L 551,383 L 551,382 L 551,381 L 551,380 L 552,379 L 553,379 L 554,379 L 555,378 L 557,378 L 558,377 L 558,376 L 559,375 L 560,374 L 560,373 L 561,372 L 562,371 L 563,370 L 563,369 L 564,367 L 565,366 L 566,366 L 567,366 L 568,367 L 569,367 L 570,367 L 571,368 L 572,368 L 573,368 L 574,369 L 575,370 L 577,370 L 578,371 L 579,371 L 580,371 L 582,372 L 584,372 L 585,373 L 584,373 L 584,374 L 585,375 L 585,376 L 586,376 L 587,376 L 588,376 L 589,376 L 590,376 L 591,376 L 592,376 L 593,376 L 594,375 L 595,375 L 595,374 L 596,374 L 596,373 L 596,372 L 595,371 L 596,371 L 596,370 L 597,370 L 598,370 L 599,370 L 600,370 L 601,371 L 602,370 L 601,369 L 600,368 L 600,367 L 602,367 L 603,367 L 603,366 L 602,365 L 601,365 L 600,364 L 600,363 L 601,362 L 602,361 L 603,361 L 604,362 L 604,364 L 605,365 L 606,366 L 607,366 L 608,364 L 609,364 L 610,364 L 611,365 L 612,365 L 613,365 L 613,366 L 614,366 L 615,365 L 616,365 L 616,364 L 617,363 L 616,362 L 616,361 L 617,360 L 617,359 L 616,359 L 616,358 L 617,357 L 618,358 L 619,358 L 620,358 L 621,358 L 621,357 L 620,357 L 619,356 L 619,355 L 619,354 L 620,354 L 622,354 L 623,354 L 623,353 L 622,352 L 621,352 L 621,351 L 622,351 L 623,351 L 624,351 L 625,352 L 626,352 L 626,351 L 626,350 L 626,349 L 625,348 L 626,347 L 627,347 L 628,346 L 629,346 L 629,345 L 629,344 L 629,343 L 629,341 L 629,340 L 630,339 L 631,339 L 632,340 L 633,340 L 634,340 L 633,339 L 632,338 L 632,337 L 632,336 L 633,335 L 633,334 L 632,333 L 631,333 L 631,332 L 632,331 L 632,330 L 633,329 L 634,328 L 634,327 L 633,326 L 633,325 L 632,324 L 632,323 L 632,321 L 632,320 L 631,320 L 630,319 L 629,319 L 628,318 L 628,317 L 629,315 L 630,314 L 630,313 L 630,312 L 630,311 L 629,310 L 629,309 L 629,308 L 629,307 L 628,306 L 628,305 L 626,305 L 626,304 L 627,303 L 628,304 L 630,304 L 631,304 L 632,304 L 633,304 L 635,304 L 635,305 L 636,305 L 638,306 L 640,306 L 641,307 L 642,307 L 643,308 L 645,309 L 646,309 L 647,309 L 648,310 L 649,310 L 650,311 L 652,311 L 653,312 L 654,312 L 655,313 L 656,313 L 657,314 L 658,314 L 662,317 L 663,318 L 664,319 L 665,318 L 666,318 L 667,318 L 668,319 L 667,320 L 666,320 L 666,321 L 667,322 L 668,322 L 667,323 L 667,324 L 667,325 L 668,325 L 669,326 L 670,326 L 671,326 L 671,325 L 671,324 L 672,323 L 672,322 L 672,321 L 673,320 L 673,319 L 673,318 L 673,317 L 673,316 L 674,316 L 674,317 L 675,317 L 676,318 L 677,318 L 678,318 L 680,318 L 682,318 L 683,317 L 684,316 L 685,316 L 686,316 L 686,317 L 686,318 L 686,320 L 688,321 L 690,321 L 691,322 L 691,323 L 691,325 L 692,325 L 693,325 L 695,325 L 697,325 L 698,325 L 699,325 L 701,326 L 702,326 L 704,326 L 705,326 L 707,326 L 708,326 L 709,326 L 710,325 L 710,324 L 710,323 L 710,322 L 711,321 L 712,320 L 712,319 L 713,319 L 714,318 L 715,317 L 715,316 L 716,316 L 716,315 L 716,314 L 716,311 L 717,311 L 716,310 L 715,310 L 714,310 L 712,310 L 710,310 L 709,310 L 708,309 L 708,308 L 707,308 L 707,306 L 707,304 L 707,303 L 707,302 L 707,301 L 708,302 L 709,303 L 710,303 L 711,303 L 712,304 L 713,304 L 714,303 L 715,302 L 715,301 L 716,300 L 717,299 L 718,299 L 719,299 L 719,298 L 718,297 L 717,296 L 716,295 L 716,294 L 716,293 L 715,292 L 714,292 L 713,291 L 713,290 L 711,289 L 710,289 L 709,288 L 708,287 L 708,286 L 708,285 L 709,284 L 710,282 L 710,281 L 711,280 L 711,279 L 711,278 L 711,277 L 712,276 L 713,275 L 713,274 L 713,273 L 714,272 L 714,271 L 714,270 L 715,269 L 716,269 L 718,269 L 719,269 L 720,269 L 721,269 L 722,270 L 723,270 L 725,271 L 727,271 L 729,272 L 731,273 L 732,273 L 733,273 L 734,273 L 736,273 L 737,273 L 739,274 L 740,274 L 741,275 L 743,275 L 744,276 L 745,277 L 746,277 L 747,277 L 748,277 L 749,277 L 749,278 L 749,279 L 749,280 L 750,281 L 751,281 L 752,279 L 753,278 L 754,277 L 755,277 L 756,277 L 758,276 L 760,275 L 762,274 L 763,274 L 765,273 L 766,273 L 768,272 L 769,272 L 770,273 L 772,273 L 774,273 L 775,273 L 778,273 L 780,272 L 782,272 L 784,270 L 786,269 L 787,268 L 788,268 L 790,267 L 792,267 L 793,267 L 794,266 L 795,265 L 797,265 L 800,264 L 803,264 L 806,264 L 808,263 L 817,260 L 823,259 L 824,261 L 826,264 L 827,266 L 827,267 L 828,270 L 829,272 " />
</g>
<g id="94" class="st0 dist-block"  inkscape:label="Dhamanagar">
<path d="M 441,246 L 443,247 L 444,248 L 448,250 L 449,251 L 450,251 L 449,252 L 449,253 L 448,253 L 448,254 L 449,255 L 449,254 L 450,253 L 451,253 L 452,253 L 453,253 L 453,254 L 452,254 L 451,254 L 450,254 L 450,255 L 451,255 L 451,256 L 451,257 L 452,257 L 452,256 L 453,256 L 453,257 L 452,258 L 452,259 L 453,259 L 453,258 L 456,251 L 457,251 L 461,251 L 462,251 L 462,252 L 463,252 L 464,253 L 465,254 L 466,255 L 467,255 L 468,255 L 469,255 L 470,256 L 471,256 L 471,257 L 472,258 L 473,259 L 474,259 L 475,260 L 476,259 L 477,259 L 478,258 L 480,258 L 481,257 L 482,257 L 484,257 L 485,257 L 487,257 L 488,257 L 489,257 L 489,256 L 490,256 L 490,255 L 491,254 L 492,253 L 493,253 L 494,253 L 495,253 L 496,253 L 497,253 L 498,253 L 499,253 L 500,253 L 500,252 L 501,251 L 502,251 L 503,251 L 504,251 L 504,252 L 504,253 L 504,254 L 503,254 L 502,255 L 502,256 L 501,257 L 501,258 L 502,258 L 503,259 L 504,259 L 505,259 L 506,260 L 507,260 L 508,261 L 510,262 L 511,263 L 512,263 L 513,262 L 513,263 L 514,263 L 516,263 L 517,264 L 517,265 L 517,266 L 517,267 L 516,268 L 516,269 L 516,270 L 516,271 L 516,272 L 517,273 L 518,275 L 518,276 L 518,279 L 518,281 L 518,283 L 518,285 L 518,286 L 517,287 L 516,287 L 515,286 L 514,286 L 513,286 L 513,287 L 513,288 L 514,289 L 515,290 L 516,291 L 516,292 L 516,294 L 516,296 L 516,298 L 517,299 L 518,300 L 519,300 L 520,300 L 521,300 L 523,300 L 524,301 L 525,301 L 526,302 L 528,303 L 529,304 L 531,304 L 532,304 L 534,305 L 536,305 L 538,306 L 539,306 L 541,306 L 542,306 L 543,306 L 544,306 L 545,307 L 546,309 L 547,311 L 548,312 L 548,313 L 548,314 L 548,315 L 549,316 L 549,317 L 550,317 L 551,317 L 552,317 L 554,318 L 556,318 L 558,318 L 559,320 L 559,321 L 558,323 L 558,324 L 557,326 L 556,327 L 555,328 L 554,329 L 553,329 L 552,329 L 551,329 L 551,330 L 552,331 L 553,332 L 556,335 L 558,335 L 561,336 L 562,336 L 564,336 L 566,336 L 567,336 L 567,337 L 567,338 L 567,339 L 568,340 L 569,341 L 570,341 L 572,341 L 573,341 L 575,342 L 576,342 L 578,343 L 579,343 L 580,343 L 580,344 L 581,344 L 580,345 L 579,346 L 578,347 L 578,348 L 578,349 L 579,349 L 581,348 L 582,348 L 582,349 L 582,350 L 581,351 L 581,352 L 581,353 L 581,354 L 582,355 L 582,356 L 582,358 L 583,358 L 584,358 L 585,358 L 585,360 L 585,362 L 586,363 L 587,364 L 589,365 L 590,366 L 591,367 L 590,368 L 589,369 L 588,369 L 587,368 L 587,367 L 586,367 L 585,367 L 585,368 L 584,368 L 585,369 L 585,370 L 586,371 L 586,372 L 585,373 L 584,372 L 582,372 L 580,371 L 579,371 L 578,371 L 577,370 L 575,370 L 574,369 L 573,368 L 572,368 L 571,368 L 570,367 L 569,367 L 568,367 L 567,366 L 566,366 L 565,366 L 564,367 L 563,369 L 563,370 L 562,371 L 561,372 L 560,373 L 560,374 L 559,375 L 558,376 L 558,377 L 557,378 L 555,378 L 554,379 L 553,379 L 552,379 L 551,380 L 551,379 L 551,378 L 550,377 L 550,376 L 549,375 L 548,374 L 548,373 L 547,373 L 547,372 L 547,371 L 547,370 L 546,370 L 546,369 L 546,368 L 545,368 L 545,367 L 544,367 L 543,367 L 543,368 L 542,368 L 541,368 L 540,368 L 539,368 L 538,368 L 537,367 L 536,367 L 535,367 L 535,366 L 534,366 L 533,366 L 533,365 L 532,365 L 532,364 L 531,364 L 531,363 L 530,363 L 529,363 L 528,363 L 528,362 L 527,362 L 526,362 L 525,362 L 525,361 L 524,361 L 523,361 L 522,361 L 521,361 L 520,361 L 520,360 L 519,360 L 518,360 L 518,361 L 517,361 L 516,361 L 515,362 L 514,362 L 513,362 L 512,362 L 511,362 L 510,362 L 509,362 L 508,363 L 507,363 L 506,363 L 505,363 L 505,364 L 504,364 L 503,364 L 502,364 L 501,364 L 500,364 L 500,363 L 499,363 L 498,362 L 497,362 L 497,361 L 496,361 L 495,361 L 494,360 L 493,360 L 492,360 L 491,360 L 491,359 L 490,359 L 489,359 L 489,358 L 488,358 L 487,358 L 486,358 L 485,358 L 484,358 L 483,358 L 483,357 L 482,357 L 481,357 L 481,356 L 480,356 L 479,356 L 478,356 L 477,356 L 476,356 L 475,356 L 475,355 L 474,355 L 473,355 L 472,355 L 472,356 L 471,356 L 471,357 L 470,357 L 469,357 L 469,358 L 468,358 L 467,358 L 466,358 L 466,359 L 465,359 L 464,359 L 463,359 L 463,358 L 462,358 L 462,357 L 461,357 L 460,357 L 459,357 L 458,357 L 458,358 L 457,358 L 456,359 L 455,360 L 455,361 L 454,361 L 454,362 L 453,362 L 453,363 L 452,363 L 452,364 L 451,364 L 451,365 L 450,365 L 450,366 L 449,366 L 449,367 L 448,367 L 448,368 L 447,368 L 446,368 L 446,367 L 446,366 L 446,365 L 445,364 L 444,364 L 443,364 L 442,364 L 442,365 L 441,365 L 440,365 L 439,364 L 438,364 L 438,363 L 437,363 L 436,363 L 435,363 L 435,364 L 434,364 L 434,365 L 433,365 L 433,366 L 432,366 L 431,366 L 430,367 L 429,367 L 429,368 L 429,369 L 429,370 L 429,371 L 428,371 L 428,372 L 428,373 L 428,374 L 427,374 L 427,375 L 426,375 L 426,376 L 425,376 L 425,377 L 424,377 L 424,378 L 423,378 L 423,379 L 422,379 L 421,379 L 420,379 L 419,379 L 418,379 L 417,379 L 416,379 L 416,378 L 415,378 L 414,378 L 413,378 L 413,377 L 412,377 L 412,376 L 411,376 L 410,376 L 410,375 L 409,375 L 408,374 L 407,374 L 406,374 L 405,374 L 405,375 L 404,375 L 403,375 L 403,376 L 402,376 L 401,376 L 400,376 L 399,376 L 398,376 L 398,375 L 397,375 L 397,374 L 397,373 L 397,372 L 397,371 L 396,371 L 396,370 L 396,369 L 395,369 L 395,368 L 394,368 L 394,367 L 393,367 L 392,367 L 391,367 L 390,366 L 389,366 L 388,366 L 387,366 L 386,366 L 385,366 L 384,366 L 383,366 L 382,366 L 381,366 L 381,365 L 380,365 L 379,364 L 378,363 L 376,362 L 373,361 L 372,360 L 369,359 L 366,359 L 365,359 L 362,360 L 361,360 L 360,360 L 360,361 L 359,361 L 358,362 L 357,361 L 357,359 L 357,358 L 357,357 L 358,356 L 359,355 L 360,354 L 361,353 L 362,353 L 363,352 L 364,352 L 365,351 L 366,351 L 367,351 L 369,350 L 370,350 L 371,349 L 373,348 L 374,347 L 375,347 L 376,346 L 376,345 L 376,344 L 376,343 L 376,342 L 377,341 L 377,336 L 377,335 L 376,334 L 376,335 L 375,334 L 375,333 L 375,332 L 375,331 L 376,330 L 376,329 L 376,328 L 377,328 L 378,328 L 379,328 L 380,328 L 381,329 L 381,330 L 381,331 L 382,331 L 382,330 L 382,329 L 383,329 L 383,328 L 383,327 L 384,326 L 384,325 L 384,324 L 385,323 L 385,322 L 386,321 L 387,320 L 387,319 L 387,318 L 387,317 L 387,316 L 387,315 L 388,314 L 388,313 L 388,312 L 388,311 L 388,310 L 388,309 L 387,309 L 386,309 L 385,309 L 384,308 L 383,308 L 382,308 L 381,308 L 380,308 L 380,307 L 380,306 L 380,305 L 380,304 L 381,303 L 381,302 L 381,301 L 381,300 L 380,300 L 380,299 L 381,299 L 381,298 L 381,297 L 382,296 L 382,295 L 382,294 L 381,294 L 380,294 L 379,294 L 379,293 L 378,292 L 378,291 L 378,290 L 379,290 L 379,289 L 380,288 L 380,287 L 381,286 L 381,285 L 382,284 L 383,283 L 383,282 L 382,282 L 382,281 L 381,281 L 382,280 L 382,279 L 383,278 L 384,277 L 385,276 L 386,276 L 387,276 L 388,277 L 388,278 L 389,279 L 390,279 L 391,278 L 391,277 L 392,277 L 392,276 L 393,276 L 394,276 L 395,275 L 395,274 L 394,273 L 394,272 L 394,271 L 395,270 L 395,271 L 396,271 L 397,271 L 398,271 L 400,272 L 401,273 L 403,274 L 404,274 L 405,275 L 406,275 L 407,275 L 407,274 L 407,273 L 408,272 L 408,271 L 408,270 L 408,269 L 409,268 L 408,267 L 407,267 L 406,267 L 406,266 L 405,266 L 404,266 L 404,267 L 403,267 L 403,268 L 402,268 L 402,267 L 403,266 L 404,265 L 405,262 L 406,262 L 407,261 L 408,261 L 408,262 L 409,262 L 410,262 L 411,261 L 412,261 L 412,262 L 412,263 L 412,264 L 412,263 L 413,262 L 413,261 L 414,260 L 415,260 L 415,261 L 414,261 L 414,262 L 414,263 L 414,264 L 414,263 L 415,263 L 416,264 L 416,263 L 416,262 L 417,262 L 418,262 L 419,262 L 419,263 L 420,263 L 421,263 L 421,264 L 422,265 L 423,265 L 424,265 L 424,264 L 425,263 L 424,262 L 424,261 L 423,260 L 422,259 L 422,258 L 422,257 L 422,256 L 422,255 L 422,254 L 423,253 L 423,252 L 422,251 L 421,251 L 421,250 L 421,249 L 421,248 L 422,247 L 423,246 L 424,246 L 426,247 L 426,246 L 427,246 L 428,246 L 428,245 L 429,244 L 429,243 L 430,243 L 431,243 L 432,243 L 433,243 L 434,244 L 436,244 L 437,245 L 438,245 L 439,245 L 440,245 L 441,246 " />
</g>
<g id="304" class="st0 dist-block" inkscape:label="Tihidi">
<path d="M 554,194 L 554,195 L 555,194 L 556,194 L 556,195 L 557,195 L 557,196 L 558,196 L 559,195 L 559,194 L 559,193 L 560,193 L 561,193 L 562,193 L 563,194 L 564,194 L 563,195 L 562,196 L 561,196 L 561,197 L 562,197 L 563,197 L 564,197 L 565,197 L 565,198 L 565,199 L 566,199 L 567,199 L 567,200 L 568,200 L 568,201 L 569,201 L 570,200 L 569,199 L 568,198 L 569,198 L 570,198 L 571,198 L 572,198 L 573,198 L 574,198 L 574,199 L 575,199 L 576,200 L 577,199 L 578,199 L 579,200 L 580,201 L 581,202 L 582,202 L 582,203 L 583,203 L 584,203 L 585,204 L 585,205 L 586,205 L 587,205 L 588,205 L 589,206 L 590,206 L 591,206 L 592,206 L 593,206 L 593,207 L 594,207 L 595,207 L 596,206 L 597,206 L 598,205 L 599,204 L 599,203 L 600,202 L 601,201 L 602,201 L 604,201 L 605,202 L 606,202 L 607,202 L 608,203 L 609,203 L 610,202 L 611,202 L 612,201 L 613,201 L 614,200 L 615,200 L 616,200 L 617,200 L 618,200 L 618,199 L 618,198 L 619,198 L 620,198 L 620,197 L 620,196 L 621,196 L 621,197 L 622,197 L 623,197 L 624,197 L 624,198 L 625,199 L 626,199 L 627,199 L 628,200 L 629,200 L 629,201 L 630,201 L 631,201 L 632,201 L 633,201 L 633,202 L 632,203 L 632,204 L 631,206 L 631,207 L 631,209 L 631,210 L 631,211 L 632,212 L 632,213 L 633,213 L 634,214 L 635,214 L 636,214 L 637,214 L 638,213 L 639,213 L 640,213 L 641,213 L 643,213 L 645,213 L 646,213 L 648,213 L 649,213 L 649,214 L 650,214 L 652,214 L 654,214 L 655,213 L 657,213 L 658,213 L 659,213 L 660,213 L 661,213 L 662,214 L 662,215 L 663,215 L 664,216 L 665,217 L 665,218 L 665,219 L 666,220 L 667,220 L 668,220 L 669,220 L 670,220 L 670,221 L 671,222 L 672,223 L 673,223 L 674,224 L 675,225 L 676,225 L 677,226 L 678,226 L 679,227 L 680,228 L 680,230 L 680,231 L 680,232 L 680,233 L 681,233 L 682,233 L 682,234 L 683,234 L 684,235 L 685,235 L 686,236 L 687,236 L 688,237 L 689,237 L 689,239 L 689,240 L 689,241 L 687,242 L 686,243 L 685,244 L 685,245 L 686,246 L 686,247 L 687,247 L 687,248 L 688,248 L 689,249 L 690,250 L 691,250 L 692,251 L 693,252 L 694,252 L 695,252 L 696,252 L 697,251 L 699,252 L 700,252 L 701,253 L 702,253 L 702,254 L 703,255 L 704,256 L 705,257 L 705,258 L 706,259 L 706,260 L 705,260 L 705,261 L 704,261 L 704,262 L 703,262 L 703,264 L 704,265 L 704,266 L 705,268 L 705,269 L 706,269 L 706,270 L 707,270 L 709,269 L 710,268 L 711,267 L 711,266 L 712,266 L 713,266 L 713,267 L 714,267 L 714,268 L 715,269 L 714,270 L 714,271 L 714,272 L 713,273 L 713,274 L 713,275 L 712,276 L 711,277 L 711,278 L 711,279 L 711,280 L 710,281 L 710,282 L 709,284 L 708,285 L 708,286 L 708,287 L 709,288 L 710,289 L 711,289 L 713,290 L 713,291 L 714,292 L 715,292 L 716,293 L 716,294 L 716,295 L 717,296 L 718,297 L 719,298 L 719,299 L 718,299 L 717,299 L 716,300 L 715,301 L 715,302 L 714,303 L 713,304 L 712,304 L 711,303 L 710,303 L 709,303 L 708,302 L 707,301 L 707,302 L 707,303 L 707,304 L 707,306 L 707,308 L 708,308 L 708,309 L 709,310 L 710,310 L 712,310 L 714,310 L 715,310 L 716,310 L 717,311 L 716,311 L 716,314 L 716,315 L 716,316 L 715,316 L 715,317 L 714,318 L 713,319 L 712,319 L 712,320 L 711,321 L 710,322 L 710,323 L 710,324 L 710,325 L 709,326 L 708,326 L 707,326 L 705,326 L 704,326 L 702,326 L 701,326 L 699,325 L 698,325 L 697,325 L 695,325 L 693,325 L 692,325 L 691,325 L 691,323 L 691,322 L 690,321 L 688,321 L 686,320 L 686,318 L 686,317 L 686,316 L 685,316 L 684,316 L 683,317 L 682,318 L 680,318 L 678,318 L 677,318 L 676,318 L 675,317 L 674,317 L 674,316 L 673,316 L 673,317 L 673,318 L 673,319 L 673,320 L 672,321 L 672,322 L 672,323 L 671,324 L 671,325 L 671,326 L 670,326 L 669,326 L 668,325 L 667,325 L 667,324 L 667,323 L 668,322 L 667,322 L 666,321 L 666,320 L 667,320 L 668,319 L 667,318 L 666,318 L 665,318 L 664,319 L 663,318 L 662,317 L 658,314 L 657,314 L 656,313 L 655,313 L 654,312 L 653,312 L 652,311 L 650,311 L 649,310 L 648,310 L 647,309 L 646,309 L 645,309 L 643,308 L 642,307 L 641,307 L 640,306 L 638,306 L 636,305 L 635,305 L 635,304 L 633,304 L 632,304 L 631,304 L 630,304 L 628,304 L 627,303 L 626,304 L 626,305 L 628,305 L 628,306 L 629,307 L 629,308 L 629,309 L 629,310 L 630,311 L 630,312 L 630,313 L 630,314 L 629,315 L 628,317 L 628,318 L 629,319 L 630,319 L 631,320 L 632,320 L 632,321 L 632,323 L 632,324 L 633,325 L 633,326 L 634,327 L 634,328 L 633,329 L 632,330 L 632,331 L 631,332 L 631,333 L 632,333 L 633,334 L 633,335 L 632,336 L 632,337 L 632,338 L 633,339 L 634,340 L 633,340 L 632,340 L 631,339 L 630,339 L 629,340 L 629,341 L 629,343 L 629,344 L 629,345 L 629,346 L 628,346 L 627,347 L 626,347 L 625,348 L 626,349 L 626,350 L 626,351 L 626,352 L 625,352 L 624,351 L 623,351 L 622,351 L 621,351 L 621,352 L 622,352 L 623,353 L 623,354 L 622,354 L 620,354 L 619,354 L 619,355 L 619,356 L 620,357 L 621,357 L 621,358 L 620,358 L 619,358 L 618,358 L 617,357 L 616,358 L 616,359 L 617,359 L 617,360 L 616,361 L 616,362 L 617,363 L 616,364 L 616,365 L 615,365 L 614,366 L 613,366 L 613,365 L 612,365 L 611,365 L 610,364 L 609,364 L 608,364 L 607,366 L 606,366 L 605,365 L 604,364 L 604,362 L 603,361 L 602,361 L 601,362 L 600,363 L 600,364 L 601,365 L 602,365 L 603,366 L 603,367 L 602,367 L 600,367 L 600,368 L 601,369 L 602,370 L 601,371 L 600,370 L 599,370 L 598,370 L 597,370 L 596,370 L 596,371 L 595,371 L 596,372 L 596,373 L 596,374 L 595,374 L 595,375 L 594,375 L 593,376 L 592,376 L 591,376 L 590,376 L 589,376 L 588,376 L 587,376 L 586,376 L 585,376 L 585,375 L 584,374 L 584,373 L 585,373 L 586,372 L 586,371 L 585,370 L 585,369 L 584,368 L 585,368 L 585,367 L 586,367 L 587,367 L 587,368 L 588,369 L 589,369 L 590,368 L 591,367 L 590,366 L 589,365 L 587,364 L 586,363 L 585,362 L 585,360 L 585,358 L 584,358 L 583,358 L 582,358 L 582,356 L 582,355 L 581,354 L 581,353 L 581,352 L 581,351 L 582,350 L 582,349 L 582,348 L 581,348 L 579,349 L 578,349 L 578,348 L 578,347 L 579,346 L 580,345 L 581,344 L 580,344 L 580,343 L 579,343 L 578,343 L 576,342 L 575,342 L 573,341 L 572,341 L 570,341 L 569,341 L 568,340 L 567,339 L 567,338 L 567,337 L 567,336 L 566,336 L 564,336 L 562,336 L 561,336 L 558,335 L 556,335 L 553,332 L 552,331 L 551,330 L 551,329 L 552,329 L 553,329 L 554,329 L 555,328 L 556,327 L 557,326 L 558,324 L 558,323 L 559,321 L 559,320 L 558,318 L 556,318 L 554,318 L 552,317 L 551,317 L 550,317 L 549,317 L 549,316 L 548,315 L 548,314 L 548,313 L 548,312 L 547,311 L 546,309 L 545,307 L 544,306 L 543,306 L 542,306 L 541,306 L 539,306 L 538,306 L 536,305 L 534,305 L 532,304 L 531,304 L 529,304 L 528,303 L 526,302 L 525,301 L 524,301 L 523,300 L 521,300 L 520,300 L 519,300 L 518,300 L 517,299 L 516,298 L 516,296 L 516,294 L 516,292 L 516,291 L 515,290 L 514,289 L 513,288 L 513,287 L 513,286 L 514,286 L 515,286 L 516,287 L 517,287 L 518,286 L 518,285 L 518,283 L 518,281 L 518,279 L 518,276 L 518,275 L 517,273 L 516,272 L 516,271 L 516,270 L 516,269 L 516,268 L 517,267 L 517,266 L 517,265 L 517,264 L 516,263 L 514,263 L 513,263 L 513,262 L 512,262 L 512,261 L 512,260 L 513,259 L 513,258 L 513,257 L 513,255 L 512,255 L 511,254 L 512,252 L 511,251 L 512,250 L 512,249 L 512,247 L 511,246 L 510,246 L 509,245 L 507,245 L 506,245 L 504,246 L 502,245 L 501,245 L 501,244 L 501,242 L 502,241 L 503,241 L 504,241 L 505,241 L 506,241 L 508,241 L 510,241 L 511,241 L 512,242 L 513,243 L 515,243 L 516,242 L 517,241 L 518,240 L 519,238 L 520,238 L 521,238 L 522,238 L 522,237 L 523,237 L 524,236 L 524,235 L 524,234 L 523,233 L 522,233 L 522,232 L 521,232 L 520,232 L 520,231 L 519,230 L 519,229 L 520,228 L 521,228 L 522,227 L 523,227 L 524,226 L 525,226 L 526,225 L 526,224 L 527,223 L 527,222 L 528,221 L 529,221 L 529,220 L 529,219 L 528,218 L 528,217 L 527,216 L 527,215 L 527,214 L 528,214 L 528,213 L 529,212 L 530,211 L 531,211 L 532,211 L 533,211 L 533,210 L 532,210 L 532,209 L 532,208 L 533,208 L 534,207 L 535,207 L 535,206 L 535,205 L 534,204 L 534,203 L 534,202 L 535,202 L 536,202 L 537,203 L 537,204 L 538,204 L 539,203 L 540,202 L 540,201 L 541,202 L 541,203 L 542,203 L 542,202 L 543,202 L 544,203 L 545,203 L 546,203 L 547,202 L 546,201 L 546,200 L 545,199 L 543,199 L 541,199 L 540,199 L 540,198 L 539,197 L 538,196 L 537,197 L 536,196 L 535,195 L 534,195 L 534,194 L 535,193 L 535,192 L 536,190 L 535,189 L 535,188 L 536,188 L 537,187 L 538,187 L 539,187 L 540,186 L 541,186 L 542,185 L 543,185 L 544,185 L 545,185 L 546,185 L 547,185 L 547,186 L 547,187 L 548,187 L 548,188 L 549,189 L 550,189 L 551,189 L 552,190 L 553,191 L 554,191 L 554,192 L 555,192 L 555,193 L 554,194 " />
</g>
</g>
</g>
<g id="block_labels" inkscape:groupmode="layer" inkscape:label="block_labels">
<g stroke="none" fill="rgb(0,0,0)">
<text id="block_labels_1" x="705" y="156" class="st4" inkscape:label="Basudebpur_lbl">Basudebpur</text>
<text id="block_labels_2" x="474" y="167" class="st4" inkscape:label="Bhadrak_lbl">Bhadrak</text>
<text id="block_labels_3" x="337" y="276" class="st4" inkscape:label="Bhandaripokhari_lbl">Bhandaripokhari</text>
<text id="block_labels_4" x="348" y="120" class="st4" inkscape:label="Bant_lbl">Bant</text>
<text id="block_labels_5" x="737" y="373" class="st4" inkscape:label="Chandabali_lbl">Chandabali</text>
<text id="block_labels_6" x="465" y="318" class="st4" inkscape:label="Dhamanagar_lbl">Dhamanagar</text>
<text id="block_labels_7" x="607" y="272" class="st4" inkscape:label="Tihidi_lbl">Tihidi</text>
</g>
</g>
<!-- QGIS extent for clipping, eg in Inkscape -->
</svg>