<?xml version="1.0" standalone="no"?>
<!DOCTYPE svg PUBLIC "-//W3C//DTD SVG 1.1//EN" "http://www.w3.org/Graphics/SVG/1.1/DTD/svg11.dtd">
<svg xmlns="http://www.w3.org/2000/svg" xmlns:inkscape="http://www.inkscape.org/namespaces/inkscape" xmlns:xlink="http://www.w3.org/1999/xlink" viewBox = "50 -150 1050 1050" version = "1.1">
	<style type="text/css">
   .st0, .st1, .st2
    {
        stroke: #d0d0d0;
        stroke-miterlimit: 7;
		fill:#fff;
		cursor:pointer;
    }
    .st4
    {
        font-size: 7.0514px;
		fill:#000;
    }
    .st0:hover, .st1:hover, .st2:hover{fill:#32C787;}
</style>
<!-- svg generated using QGIS www.qgis.org -->
<g id="block" inkscape:groupmode="layer" inkscape:label="block">
<g stroke="rgb(0,0,0)" fill="#fff" stroke-linejoin="round" stroke-width="0.56">
<g id="72" class="st0 dist-block" inkscape:label="Boudh">
<path d="M 688,63 L 689,63 L 689,62 L 690,62 L 691,62 L 692,63 L 693,63 L 693,64 L 693,65 L 693,66 L 692,67 L 692,68 L 691,70 L 690,71 L 690,72 L 689,73 L 689,74 L 689,75 L 688,76 L 688,77 L 687,77 L 686,77 L 687,78 L 687,80 L 687,81 L 686,82 L 686,84 L 686,85 L 685,86 L 685,87 L 686,88 L 685,88 L 684,88 L 683,88 L 682,88 L 681,88 L 680,88 L 679,87 L 678,87 L 677,87 L 676,87 L 676,88 L 675,88 L 674,87 L 674,88 L 673,88 L 672,88 L 671,87 L 670,87 L 669,87 L 669,86 L 668,86 L 667,86 L 666,86 L 665,86 L 664,86 L 663,85 L 662,84 L 660,84 L 659,84 L 659,83 L 658,83 L 656,83 L 655,83 L 654,83 L 653,83 L 652,83 L 650,83 L 649,83 L 648,84 L 647,85 L 646,86 L 645,86 L 644,87 L 642,87 L 641,87 L 641,88 L 641,89 L 641,90 L 640,91 L 639,92 L 639,93 L 639,94 L 638,95 L 638,97 L 638,98 L 637,101 L 637,103 L 637,104 L 637,105 L 637,106 L 638,107 L 638,108 L 638,109 L 638,110 L 638,111 L 638,112 L 637,113 L 635,113 L 634,111 L 633,109 L 633,108 L 632,108 L 632,109 L 631,110 L 630,111 L 630,113 L 631,114 L 631,115 L 631,116 L 631,119 L 632,119 L 632,121 L 632,122 L 632,125 L 631,126 L 633,127 L 636,128 L 639,129 L 640,129 L 642,129 L 646,128 L 647,128 L 651,126 L 653,126 L 656,125 L 657,125 L 661,126 L 660,129 L 660,134 L 659,135 L 658,136 L 657,138 L 656,139 L 655,140 L 654,140 L 653,140 L 653,142 L 655,142 L 655,143 L 656,143 L 657,143 L 658,144 L 659,144 L 660,145 L 661,145 L 663,146 L 663,147 L 664,148 L 664,149 L 662,149 L 661,153 L 661,154 L 661,158 L 661,159 L 660,159 L 660,161 L 659,162 L 659,164 L 659,166 L 659,167 L 659,169 L 658,170 L 658,172 L 658,173 L 657,173 L 657,175 L 656,177 L 656,179 L 656,181 L 655,183 L 655,184 L 654,185 L 654,186 L 654,188 L 654,190 L 653,192 L 653,193 L 653,194 L 653,195 L 653,196 L 654,197 L 654,198 L 654,200 L 654,201 L 654,202 L 654,203 L 654,204 L 653,206 L 653,207 L 654,209 L 655,212 L 655,213 L 655,214 L 655,215 L 655,216 L 655,217 L 656,218 L 656,219 L 656,220 L 656,221 L 656,222 L 656,223 L 657,223 L 658,224 L 658,223 L 658,222 L 658,221 L 659,221 L 659,222 L 659,223 L 659,224 L 659,225 L 660,226 L 660,227 L 661,228 L 662,228 L 662,229 L 662,231 L 662,232 L 662,233 L 662,234 L 662,235 L 662,236 L 662,237 L 663,238 L 663,239 L 663,240 L 663,242 L 663,243 L 663,244 L 663,245 L 663,246 L 664,247 L 664,248 L 664,249 L 664,250 L 664,251 L 663,251 L 662,251 L 662,250 L 661,250 L 659,250 L 658,250 L 657,250 L 656,250 L 656,251 L 656,252 L 655,253 L 655,254 L 654,255 L 653,256 L 652,257 L 652,258 L 651,258 L 651,259 L 651,260 L 650,260 L 650,261 L 650,262 L 649,263 L 649,264 L 648,264 L 648,265 L 648,266 L 649,267 L 649,268 L 649,269 L 649,270 L 648,270 L 648,271 L 648,272 L 647,273 L 647,274 L 646,275 L 645,276 L 644,277 L 643,278 L 643,279 L 642,280 L 643,280 L 643,281 L 642,281 L 642,282 L 641,282 L 640,283 L 639,284 L 638,284 L 637,284 L 636,284 L 635,285 L 634,285 L 633,285 L 632,286 L 631,286 L 630,286 L 629,287 L 628,288 L 627,288 L 626,289 L 625,289 L 625,290 L 624,290 L 624,291 L 624,292 L 623,292 L 622,293 L 621,294 L 621,295 L 620,296 L 620,297 L 619,297 L 619,298 L 618,298 L 617,298 L 616,299 L 615,299 L 614,299 L 613,299 L 612,299 L 610,298 L 609,298 L 608,298 L 607,298 L 606,298 L 605,298 L 604,298 L 604,299 L 603,299 L 602,298 L 601,297 L 600,297 L 599,297 L 598,297 L 596,296 L 595,296 L 594,296 L 593,296 L 592,296 L 591,296 L 590,296 L 589,296 L 589,295 L 588,295 L 588,296 L 587,296 L 586,296 L 586,297 L 585,297 L 584,297 L 583,297 L 582,297 L 581,297 L 581,296 L 580,296 L 580,295 L 579,294 L 578,293 L 578,292 L 577,291 L 576,289 L 576,288 L 575,287 L 574,286 L 574,285 L 573,284 L 572,285 L 571,286 L 570,286 L 569,286 L 568,287 L 567,287 L 566,287 L 565,287 L 564,288 L 563,288 L 562,289 L 560,289 L 560,290 L 559,290 L 559,291 L 558,291 L 558,292 L 557,293 L 556,293 L 555,294 L 554,295 L 554,296 L 553,297 L 553,298 L 553,299 L 552,300 L 551,300 L 550,300 L 549,301 L 548,301 L 547,302 L 546,302 L 545,302 L 544,302 L 543,302 L 543,301 L 542,300 L 541,299 L 540,299 L 540,298 L 539,298 L 538,297 L 537,297 L 536,298 L 535,298 L 534,298 L 533,297 L 532,297 L 532,298 L 531,298 L 530,298 L 529,298 L 528,299 L 527,299 L 526,299 L 524,299 L 524,298 L 523,298 L 522,298 L 521,297 L 520,297 L 519,297 L 518,297 L 517,296 L 517,295 L 516,295 L 516,294 L 515,293 L 515,292 L 514,292 L 514,291 L 513,290 L 512,289 L 512,288 L 511,288 L 510,289 L 509,289 L 508,289 L 506,289 L 505,289 L 504,290 L 503,290 L 503,291 L 502,291 L 501,291 L 499,292 L 498,292 L 497,293 L 497,294 L 496,294 L 495,294 L 495,295 L 494,295 L 493,295 L 492,295 L 491,294 L 490,293 L 489,292 L 488,292 L 487,292 L 486,292 L 485,292 L 484,291 L 483,290 L 482,289 L 481,289 L 480,289 L 479,290 L 478,290 L 477,290 L 476,290 L 475,290 L 474,290 L 473,289 L 472,290 L 471,290 L 470,290 L 469,290 L 468,291 L 467,291 L 467,292 L 466,292 L 465,293 L 464,293 L 463,293 L 462,293 L 461,293 L 461,294 L 459,294 L 458,295 L 457,295 L 456,295 L 455,296 L 454,296 L 453,296 L 452,296 L 451,297 L 450,298 L 450,299 L 450,300 L 450,301 L 450,302 L 449,302 L 448,303 L 447,303 L 446,303 L 446,304 L 445,304 L 444,304 L 443,304 L 442,304 L 441,305 L 439,305 L 438,306 L 437,306 L 436,306 L 436,307 L 435,307 L 435,308 L 434,308 L 433,308 L 432,308 L 430,308 L 428,308 L 427,308 L 425,308 L 423,307 L 422,307 L 421,306 L 420,306 L 419,305 L 418,305 L 418,304 L 417,304 L 416,303 L 415,303 L 415,302 L 414,302 L 413,302 L 413,301 L 412,300 L 411,300 L 410,300 L 410,299 L 408,298 L 407,297 L 406,297 L 406,296 L 405,295 L 404,294 L 404,293 L 403,293 L 403,292 L 402,292 L 402,291 L 401,291 L 400,291 L 399,291 L 398,291 L 397,291 L 396,291 L 395,291 L 394,291 L 392,291 L 391,291 L 390,291 L 389,291 L 388,292 L 387,292 L 386,292 L 385,293 L 384,293 L 383,293 L 382,293 L 381,293 L 380,293 L 379,293 L 379,294 L 378,294 L 377,294 L 376,295 L 375,295 L 374,295 L 373,295 L 372,294 L 371,294 L 371,293 L 370,293 L 369,293 L 368,293 L 367,293 L 366,292 L 365,291 L 365,290 L 364,290 L 363,289 L 362,289 L 362,288 L 361,288 L 361,287 L 361,286 L 360,285 L 360,284 L 360,283 L 360,282 L 360,281 L 361,281 L 361,280 L 362,280 L 363,280 L 363,279 L 364,279 L 364,278 L 365,278 L 366,277 L 367,276 L 368,275 L 369,274 L 370,274 L 369,274 L 368,274 L 367,274 L 366,274 L 365,273 L 364,273 L 363,273 L 362,272 L 361,272 L 360,271 L 359,271 L 358,271 L 357,270 L 356,269 L 355,269 L 354,268 L 353,268 L 353,269 L 352,267 L 350,262 L 348,260 L 346,257 L 345,257 L 345,256 L 345,255 L 344,254 L 343,252 L 342,250 L 341,250 L 340,250 L 337,250 L 336,250 L 333,250 L 332,250 L 332,249 L 331,247 L 328,243 L 328,242 L 329,240 L 329,239 L 330,238 L 329,237 L 328,237 L 325,237 L 323,238 L 322,238 L 322,239 L 320,237 L 320,236 L 318,237 L 316,238 L 315,238 L 313,238 L 312,238 L 310,238 L 308,237 L 306,235 L 305,234 L 304,233 L 303,233 L 302,232 L 301,232 L 300,231 L 300,230 L 301,229 L 301,228 L 302,227 L 304,226 L 305,226 L 307,226 L 308,225 L 309,225 L 311,225 L 310,223 L 309,221 L 309,219 L 309,218 L 309,217 L 309,216 L 309,215 L 309,214 L 309,213 L 312,211 L 313,210 L 314,210 L 314,211 L 315,212 L 316,212 L 317,213 L 318,213 L 319,213 L 320,213 L 321,213 L 322,213 L 323,214 L 327,215 L 329,215 L 330,215 L 332,215 L 333,215 L 332,214 L 332,213 L 333,212 L 334,211 L 335,210 L 336,210 L 337,210 L 337,211 L 339,211 L 342,211 L 343,212 L 344,212 L 344,213 L 344,214 L 345,214 L 346,213 L 347,211 L 348,211 L 348,210 L 347,209 L 348,209 L 349,209 L 352,210 L 354,210 L 355,210 L 357,210 L 358,210 L 359,211 L 360,211 L 361,212 L 362,212 L 363,213 L 362,215 L 362,216 L 362,217 L 364,218 L 367,218 L 368,218 L 370,216 L 371,216 L 372,215 L 374,214 L 374,213 L 375,213 L 375,212 L 375,211 L 376,209 L 376,208 L 376,207 L 378,207 L 379,207 L 380,207 L 381,207 L 381,208 L 382,209 L 383,209 L 383,210 L 383,211 L 383,213 L 383,215 L 383,216 L 383,217 L 384,218 L 385,219 L 386,219 L 386,217 L 387,216 L 387,215 L 391,219 L 392,219 L 393,220 L 397,220 L 400,221 L 401,221 L 403,222 L 404,222 L 406,222 L 407,222 L 408,222 L 409,223 L 410,223 L 411,224 L 412,225 L 415,225 L 417,225 L 419,226 L 420,226 L 421,226 L 421,224 L 421,222 L 422,221 L 423,220 L 423,219 L 424,217 L 426,214 L 427,212 L 428,211 L 427,211 L 426,210 L 426,209 L 425,209 L 425,208 L 425,207 L 425,206 L 425,205 L 425,204 L 425,203 L 425,202 L 426,201 L 426,200 L 426,199 L 426,198 L 426,197 L 426,196 L 426,195 L 425,195 L 424,194 L 423,193 L 423,192 L 422,191 L 422,190 L 422,189 L 422,188 L 421,187 L 420,187 L 419,186 L 418,184 L 418,183 L 418,182 L 417,181 L 417,179 L 418,177 L 419,174 L 419,173 L 420,173 L 420,172 L 421,172 L 421,171 L 420,171 L 419,171 L 418,170 L 417,170 L 416,170 L 415,169 L 415,168 L 415,167 L 415,166 L 415,165 L 416,165 L 417,164 L 417,163 L 416,163 L 415,163 L 413,162 L 413,161 L 413,159 L 414,156 L 415,154 L 414,153 L 412,152 L 408,150 L 408,149 L 407,149 L 406,147 L 406,146 L 405,146 L 404,145 L 403,144 L 401,144 L 401,143 L 400,143 L 399,142 L 399,140 L 398,140 L 398,139 L 397,138 L 397,137 L 396,136 L 396,135 L 394,133 L 392,131 L 392,130 L 391,130 L 390,129 L 390,127 L 389,127 L 389,126 L 389,124 L 389,123 L 389,122 L 389,121 L 389,119 L 389,118 L 389,116 L 389,115 L 389,113 L 390,112 L 390,111 L 390,110 L 390,109 L 390,107 L 391,106 L 392,105 L 392,104 L 392,103 L 391,101 L 391,100 L 391,99 L 390,97 L 389,96 L 389,95 L 388,94 L 388,93 L 387,92 L 386,91 L 386,89 L 386,88 L 385,87 L 385,86 L 385,85 L 385,84 L 384,83 L 384,82 L 385,82 L 386,82 L 386,81 L 387,81 L 388,80 L 388,79 L 389,78 L 389,77 L 390,77 L 391,76 L 392,75 L 393,75 L 394,74 L 395,74 L 396,72 L 398,71 L 399,69 L 400,67 L 401,65 L 402,64 L 402,63 L 402,62 L 403,58 L 405,58 L 405,57 L 407,57 L 408,57 L 411,58 L 416,58 L 420,57 L 421,57 L 422,57 L 423,58 L 423,57 L 427,58 L 432,58 L 435,59 L 436,59 L 439,60 L 441,62 L 442,63 L 443,64 L 446,67 L 447,69 L 448,70 L 450,73 L 451,73 L 453,76 L 454,77 L 455,78 L 457,78 L 458,78 L 460,78 L 464,77 L 465,76 L 468,75 L 469,74 L 470,74 L 472,73 L 475,72 L 478,70 L 479,70 L 481,69 L 486,68 L 488,68 L 489,67 L 490,67 L 491,67 L 492,67 L 497,67 L 500,67 L 501,67 L 505,66 L 507,65 L 510,65 L 512,65 L 513,65 L 515,64 L 519,62 L 522,61 L 524,60 L 526,59 L 529,57 L 530,56 L 534,53 L 536,52 L 544,46 L 546,44 L 548,43 L 550,42 L 551,41 L 553,40 L 555,38 L 560,36 L 561,35 L 564,34 L 567,33 L 569,32 L 569,31 L 572,30 L 573,29 L 576,28 L 581,25 L 584,23 L 585,22 L 586,21 L 587,20 L 589,19 L 590,18 L 592,17 L 596,15 L 597,15 L 601,14 L 606,12 L 609,12 L 610,12 L 611,12 L 615,11 L 616,11 L 619,11 L 625,12 L 628,12 L 629,13 L 632,13 L 635,14 L 636,15 L 638,15 L 639,16 L 641,17 L 643,19 L 644,19 L 646,20 L 647,21 L 648,22 L 649,23 L 650,23 L 652,24 L 653,24 L 654,25 L 655,25 L 656,25 L 656,26 L 657,27 L 658,27 L 659,28 L 661,28 L 662,29 L 663,30 L 664,31 L 665,32 L 666,32 L 667,33 L 668,33 L 669,33 L 670,34 L 672,35 L 673,35 L 674,35 L 675,36 L 676,36 L 677,36 L 677,37 L 678,37 L 679,38 L 680,38 L 681,39 L 682,40 L 683,41 L 683,42 L 684,43 L 685,43 L 686,44 L 687,44 L 687,45 L 688,45 L 689,45 L 690,46 L 691,46 L 692,47 L 693,47 L 694,48 L 691,53 L 690,56 L 689,57 L 689,58 L 689,59 L 689,60 L 688,60 L 688,61 L 688,62 L 688,63 " />
</g>
<g id="120" class="st0 dist-block" inkscape:label="Harabhanga">
<path d="M 715,62 L 716,62 L 717,63 L 718,63 L 719,63 L 720,64 L 721,64 L 721,65 L 722,65 L 723,66 L 724,67 L 724,68 L 725,69 L 725,70 L 726,70 L 726,71 L 727,72 L 728,73 L 728,74 L 729,75 L 729,76 L 730,78 L 730,79 L 731,80 L 731,81 L 731,82 L 731,83 L 731,84 L 731,85 L 731,86 L 731,87 L 731,88 L 731,89 L 731,90 L 731,91 L 730,91 L 730,92 L 730,93 L 730,94 L 730,95 L 730,96 L 730,97 L 729,97 L 729,98 L 729,99 L 729,100 L 729,101 L 730,102 L 731,103 L 731,104 L 731,105 L 731,106 L 731,107 L 731,108 L 730,109 L 729,110 L 729,111 L 728,111 L 727,112 L 727,113 L 726,113 L 726,114 L 726,115 L 725,115 L 725,116 L 725,117 L 725,118 L 725,119 L 726,119 L 726,120 L 727,121 L 727,122 L 728,122 L 728,123 L 728,124 L 729,124 L 729,125 L 730,125 L 730,126 L 730,127 L 732,129 L 732,130 L 733,130 L 733,131 L 734,132 L 735,132 L 735,133 L 736,133 L 737,134 L 738,135 L 740,136 L 740,137 L 741,137 L 742,138 L 743,139 L 744,139 L 746,140 L 746,141 L 747,142 L 748,142 L 748,143 L 749,143 L 749,144 L 750,144 L 751,144 L 752,144 L 754,144 L 754,145 L 756,145 L 757,145 L 758,145 L 759,146 L 760,146 L 761,146 L 761,147 L 762,147 L 764,148 L 765,149 L 767,150 L 768,151 L 769,151 L 772,153 L 773,153 L 774,154 L 775,154 L 776,155 L 777,156 L 778,156 L 779,156 L 780,157 L 781,157 L 781,158 L 782,158 L 783,158 L 784,159 L 785,159 L 786,159 L 787,159 L 788,159 L 789,159 L 790,159 L 791,159 L 792,159 L 794,159 L 795,159 L 796,159 L 799,159 L 800,159 L 801,159 L 802,159 L 803,159 L 804,159 L 805,159 L 806,159 L 807,158 L 808,158 L 809,158 L 810,158 L 811,158 L 812,159 L 813,159 L 814,159 L 815,159 L 816,160 L 817,160 L 818,160 L 818,161 L 819,161 L 820,161 L 821,162 L 822,162 L 823,162 L 824,163 L 825,164 L 827,164 L 828,164 L 829,165 L 830,166 L 831,166 L 833,168 L 834,168 L 834,169 L 835,169 L 835,170 L 836,170 L 839,172 L 841,173 L 841,174 L 842,174 L 843,174 L 844,175 L 845,175 L 846,176 L 847,176 L 848,176 L 849,177 L 851,177 L 852,178 L 853,178 L 855,179 L 856,181 L 858,182 L 858,183 L 859,183 L 859,184 L 860,184 L 860,185 L 862,186 L 863,188 L 864,188 L 864,189 L 865,190 L 865,191 L 866,191 L 867,192 L 868,193 L 869,193 L 871,194 L 872,195 L 874,195 L 876,196 L 877,197 L 879,197 L 881,198 L 882,199 L 884,200 L 886,200 L 888,201 L 889,201 L 891,201 L 892,201 L 893,201 L 894,201 L 897,202 L 898,202 L 899,202 L 900,202 L 902,203 L 904,203 L 905,204 L 906,204 L 906,205 L 908,206 L 910,207 L 910,208 L 911,208 L 913,209 L 914,210 L 915,211 L 916,212 L 917,212 L 918,213 L 919,214 L 920,215 L 922,217 L 924,218 L 925,220 L 927,221 L 927,222 L 928,223 L 929,225 L 931,226 L 932,227 L 932,228 L 933,229 L 934,230 L 935,231 L 936,233 L 936,235 L 937,236 L 938,238 L 939,239 L 939,240 L 940,240 L 941,242 L 942,243 L 943,244 L 945,246 L 947,248 L 949,250 L 950,251 L 951,252 L 952,253 L 953,254 L 955,256 L 957,257 L 959,259 L 960,259 L 961,260 L 963,261 L 965,262 L 967,263 L 968,264 L 970,265 L 971,266 L 973,266 L 974,267 L 975,267 L 977,267 L 977,268 L 978,268 L 979,268 L 981,269 L 983,270 L 985,270 L 986,270 L 986,271 L 987,271 L 988,271 L 990,272 L 992,272 L 994,272 L 996,272 L 998,272 L 999,272 L 1000,272 L 1002,272 L 1004,272 L 1006,273 L 1009,273 L 1011,273 L 1012,274 L 1013,274 L 1014,275 L 1016,276 L 1018,276 L 1019,277 L 1021,278 L 1023,278 L 1025,278 L 1027,279 L 1029,279 L 1031,279 L 1033,279 L 1035,279 L 1036,279 L 1038,279 L 1038,278 L 1040,278 L 1041,277 L 1042,277 L 1044,276 L 1046,276 L 1048,275 L 1050,275 L 1051,275 L 1052,275 L 1054,275 L 1055,276 L 1057,276 L 1058,277 L 1060,277 L 1061,278 L 1063,279 L 1065,279 L 1066,280 L 1067,280 L 1068,280 L 1069,280 L 1070,281 L 1071,281 L 1072,281 L 1073,281 L 1074,281 L 1075,281 L 1076,282 L 1077,282 L 1078,282 L 1079,282 L 1081,284 L 1082,284 L 1082,285 L 1083,286 L 1084,286 L 1085,287 L 1086,287 L 1087,288 L 1088,288 L 1088,289 L 1089,289 L 1090,289 L 1091,290 L 1091,291 L 1092,291 L 1092,292 L 1093,292 L 1094,293 L 1095,294 L 1095,295 L 1096,296 L 1096,297 L 1096,298 L 1097,299 L 1097,300 L 1098,302 L 1099,303 L 1099,304 L 1100,304 L 1101,306 L 1102,307 L 1103,307 L 1102,308 L 1102,309 L 1102,310 L 1102,311 L 1103,312 L 1103,313 L 1103,314 L 1103,315 L 1103,316 L 1103,317 L 1103,318 L 1103,319 L 1103,320 L 1103,321 L 1103,323 L 1103,324 L 1104,325 L 1103,325 L 1103,326 L 1102,326 L 1102,327 L 1101,327 L 1100,328 L 1100,329 L 1100,330 L 1100,331 L 1100,332 L 1099,333 L 1099,334 L 1099,335 L 1099,336 L 1098,337 L 1097,337 L 1096,337 L 1095,337 L 1093,337 L 1092,337 L 1092,338 L 1091,338 L 1091,340 L 1090,340 L 1090,341 L 1090,342 L 1089,344 L 1088,345 L 1088,346 L 1087,347 L 1086,348 L 1085,349 L 1084,350 L 1083,352 L 1082,352 L 1081,352 L 1080,352 L 1079,352 L 1078,351 L 1077,350 L 1076,350 L 1075,349 L 1074,349 L 1073,348 L 1072,347 L 1071,347 L 1070,347 L 1069,346 L 1067,346 L 1066,346 L 1065,345 L 1064,345 L 1063,344 L 1062,344 L 1060,344 L 1059,344 L 1058,344 L 1057,345 L 1056,345 L 1055,346 L 1054,347 L 1054,348 L 1053,349 L 1052,349 L 1052,350 L 1052,351 L 1052,352 L 1051,352 L 1049,353 L 1048,353 L 1047,354 L 1046,355 L 1046,356 L 1045,356 L 1044,356 L 1043,356 L 1042,356 L 1041,357 L 1040,357 L 1040,358 L 1039,358 L 1038,358 L 1037,358 L 1036,359 L 1035,359 L 1035,360 L 1035,361 L 1034,361 L 1034,362 L 1034,363 L 1034,364 L 1035,365 L 1035,366 L 1035,367 L 1035,368 L 1035,369 L 1034,370 L 1033,371 L 1033,372 L 1033,373 L 1034,373 L 1034,374 L 1034,375 L 1033,376 L 1032,376 L 1032,377 L 1031,377 L 1031,378 L 1030,378 L 1029,379 L 1028,379 L 1027,380 L 1026,380 L 1026,381 L 1025,381 L 1024,381 L 1024,382 L 1023,382 L 1022,382 L 1021,383 L 1022,383 L 1022,384 L 1022,385 L 1022,386 L 1021,386 L 1021,387 L 1021,388 L 1020,388 L 1019,388 L 1019,389 L 1019,390 L 1019,391 L 1020,391 L 1020,392 L 1020,393 L 1020,394 L 1020,395 L 1019,395 L 1019,396 L 1019,397 L 1019,398 L 1019,399 L 1018,399 L 1018,400 L 1017,401 L 1017,402 L 1017,403 L 1017,404 L 1016,404 L 1016,405 L 1017,406 L 1017,407 L 1017,408 L 1017,409 L 1016,409 L 1015,410 L 1014,410 L 1013,410 L 1012,411 L 1012,412 L 1012,413 L 1011,414 L 1010,414 L 1009,414 L 1008,414 L 1008,415 L 1007,415 L 1007,416 L 1007,417 L 1006,417 L 1007,417 L 1008,417 L 1009,417 L 1010,417 L 1010,418 L 1011,418 L 1012,418 L 1013,418 L 1013,419 L 1014,420 L 1014,421 L 1015,421 L 1015,422 L 1014,422 L 1014,423 L 1014,424 L 1015,424 L 1015,425 L 1015,426 L 1016,426 L 1015,426 L 1015,427 L 1014,427 L 1013,427 L 1012,428 L 1011,428 L 1011,429 L 1011,430 L 1011,431 L 1012,431 L 1013,431 L 1014,431 L 1014,432 L 1014,433 L 1014,434 L 1014,435 L 1013,435 L 1012,436 L 1011,436 L 1010,436 L 1009,436 L 1009,437 L 1008,437 L 1007,437 L 1007,438 L 1007,439 L 1007,440 L 1006,440 L 1006,441 L 1006,442 L 1005,442 L 1004,442 L 1004,441 L 1003,441 L 1002,441 L 1001,441 L 1000,441 L 1000,442 L 999,443 L 999,444 L 998,445 L 997,445 L 997,446 L 996,446 L 996,447 L 995,447 L 995,448 L 994,448 L 993,448 L 992,449 L 991,449 L 990,449 L 989,449 L 988,449 L 987,449 L 986,449 L 985,449 L 984,450 L 983,450 L 982,450 L 981,450 L 980,450 L 979,450 L 978,450 L 977,450 L 976,450 L 976,449 L 975,449 L 974,449 L 973,449 L 972,448 L 971,448 L 970,448 L 969,448 L 968,448 L 967,448 L 966,448 L 966,447 L 965,446 L 964,446 L 964,445 L 963,444 L 962,443 L 961,443 L 960,443 L 959,443 L 957,443 L 956,443 L 955,442 L 954,442 L 953,441 L 953,440 L 952,440 L 952,441 L 952,442 L 951,442 L 951,443 L 950,444 L 949,445 L 948,446 L 947,446 L 946,446 L 945,446 L 944,446 L 944,447 L 943,448 L 943,449 L 942,449 L 942,450 L 941,451 L 941,452 L 940,452 L 940,453 L 939,453 L 938,453 L 937,453 L 936,453 L 935,453 L 934,453 L 933,453 L 932,453 L 932,452 L 931,452 L 931,451 L 930,451 L 930,450 L 929,450 L 929,449 L 928,449 L 927,449 L 926,450 L 925,450 L 924,450 L 923,450 L 923,451 L 922,451 L 922,452 L 921,452 L 920,453 L 919,453 L 918,454 L 917,454 L 916,455 L 915,455 L 914,455 L 914,456 L 913,456 L 913,457 L 912,457 L 911,458 L 910,458 L 909,459 L 908,459 L 907,460 L 906,460 L 905,460 L 904,460 L 903,460 L 902,460 L 901,459 L 900,459 L 899,459 L 898,459 L 897,458 L 896,458 L 895,457 L 894,457 L 894,456 L 893,456 L 892,455 L 891,455 L 890,454 L 889,454 L 888,454 L 887,453 L 887,454 L 886,454 L 886,455 L 886,456 L 885,456 L 885,457 L 885,458 L 885,459 L 884,459 L 884,460 L 884,461 L 883,461 L 882,461 L 881,461 L 880,461 L 879,461 L 878,460 L 877,460 L 877,461 L 876,461 L 875,461 L 875,462 L 874,462 L 874,463 L 873,463 L 873,464 L 872,464 L 871,464 L 871,465 L 870,465 L 870,466 L 870,467 L 869,467 L 868,467 L 868,466 L 867,466 L 866,465 L 865,465 L 865,466 L 864,466 L 863,467 L 862,467 L 862,468 L 861,469 L 861,470 L 860,471 L 860,472 L 859,472 L 859,473 L 859,474 L 858,474 L 857,474 L 856,474 L 855,474 L 854,474 L 853,474 L 852,474 L 851,474 L 850,474 L 848,474 L 847,474 L 846,474 L 845,474 L 844,474 L 843,475 L 842,476 L 841,477 L 840,478 L 839,479 L 838,480 L 838,481 L 837,481 L 836,482 L 835,483 L 834,484 L 833,484 L 832,483 L 831,483 L 830,482 L 829,482 L 828,482 L 828,481 L 827,481 L 825,480 L 824,480 L 823,480 L 823,479 L 822,479 L 822,478 L 821,478 L 821,477 L 821,476 L 820,475 L 820,474 L 819,474 L 819,473 L 818,473 L 818,472 L 817,471 L 817,470 L 816,470 L 816,469 L 816,468 L 816,467 L 817,467 L 817,466 L 817,465 L 817,464 L 817,463 L 817,462 L 817,461 L 817,460 L 817,459 L 817,458 L 817,457 L 817,456 L 817,455 L 817,454 L 817,453 L 817,452 L 817,451 L 817,450 L 816,450 L 816,449 L 815,449 L 815,448 L 815,447 L 815,446 L 815,445 L 815,444 L 815,443 L 815,442 L 815,441 L 816,441 L 816,440 L 816,439 L 817,439 L 818,438 L 819,437 L 820,436 L 820,435 L 820,434 L 821,433 L 821,432 L 820,432 L 820,431 L 820,430 L 820,429 L 820,428 L 820,427 L 820,426 L 819,425 L 819,424 L 818,423 L 818,422 L 817,422 L 817,421 L 817,420 L 816,419 L 816,418 L 816,417 L 815,417 L 815,416 L 815,415 L 814,415 L 814,414 L 814,413 L 813,412 L 813,411 L 813,410 L 813,409 L 812,409 L 812,408 L 811,409 L 810,409 L 809,410 L 808,410 L 807,410 L 806,409 L 805,408 L 804,408 L 803,407 L 803,406 L 802,406 L 801,405 L 801,404 L 800,403 L 800,402 L 799,401 L 799,400 L 799,399 L 798,399 L 797,398 L 796,398 L 795,398 L 794,398 L 793,398 L 792,397 L 791,397 L 791,396 L 790,396 L 790,395 L 789,395 L 789,394 L 788,394 L 788,393 L 787,392 L 787,391 L 786,391 L 786,390 L 786,389 L 787,389 L 787,388 L 788,388 L 789,387 L 789,386 L 790,385 L 791,384 L 792,384 L 792,383 L 793,382 L 794,382 L 794,381 L 794,380 L 795,379 L 795,378 L 795,377 L 796,377 L 796,376 L 795,376 L 795,375 L 795,374 L 795,373 L 794,372 L 794,371 L 794,370 L 794,369 L 793,369 L 792,368 L 790,366 L 788,365 L 787,365 L 786,364 L 785,363 L 784,361 L 783,360 L 782,360 L 781,359 L 780,359 L 778,358 L 776,358 L 775,357 L 773,357 L 772,356 L 771,356 L 770,354 L 769,353 L 768,352 L 767,351 L 766,351 L 765,351 L 763,351 L 761,351 L 760,350 L 757,350 L 756,349 L 755,349 L 755,348 L 756,347 L 756,346 L 756,344 L 756,343 L 756,340 L 756,339 L 757,337 L 756,336 L 756,335 L 755,334 L 754,332 L 753,330 L 752,328 L 751,325 L 750,323 L 750,321 L 751,320 L 752,317 L 752,314 L 753,313 L 753,314 L 755,314 L 757,315 L 758,315 L 759,315 L 759,314 L 760,313 L 760,312 L 761,311 L 761,310 L 761,309 L 761,307 L 760,306 L 760,305 L 759,304 L 758,304 L 757,304 L 756,304 L 754,305 L 753,305 L 752,304 L 752,302 L 751,301 L 750,299 L 750,298 L 749,297 L 749,296 L 749,295 L 749,294 L 749,292 L 749,291 L 750,290 L 750,289 L 750,288 L 751,287 L 752,287 L 753,287 L 753,286 L 752,285 L 752,284 L 752,283 L 751,282 L 750,280 L 749,279 L 749,278 L 749,277 L 749,276 L 749,275 L 748,274 L 748,273 L 748,272 L 748,271 L 748,270 L 747,269 L 747,268 L 747,266 L 747,265 L 746,264 L 746,263 L 745,263 L 745,262 L 744,261 L 743,261 L 743,259 L 742,258 L 742,257 L 741,256 L 741,255 L 741,254 L 741,253 L 741,252 L 742,251 L 742,250 L 743,249 L 743,248 L 744,247 L 743,246 L 743,244 L 743,243 L 742,242 L 742,241 L 741,240 L 741,239 L 741,238 L 740,238 L 739,238 L 739,237 L 738,237 L 737,235 L 736,234 L 736,233 L 734,232 L 734,231 L 733,230 L 734,229 L 733,228 L 732,227 L 731,227 L 731,226 L 730,226 L 730,225 L 730,224 L 730,223 L 730,221 L 730,220 L 730,219 L 729,219 L 728,220 L 726,220 L 723,220 L 721,221 L 720,221 L 718,220 L 716,219 L 714,218 L 714,217 L 714,216 L 715,216 L 715,215 L 715,213 L 715,212 L 715,211 L 714,211 L 713,211 L 711,210 L 710,209 L 709,209 L 709,208 L 708,208 L 708,207 L 707,206 L 707,205 L 706,205 L 705,204 L 704,204 L 703,204 L 701,203 L 699,203 L 698,203 L 697,203 L 696,202 L 695,202 L 693,202 L 692,202 L 690,202 L 688,203 L 687,203 L 685,203 L 683,203 L 682,204 L 680,204 L 678,205 L 677,205 L 675,207 L 674,207 L 673,208 L 671,209 L 670,210 L 669,211 L 668,211 L 667,212 L 667,213 L 666,214 L 666,215 L 665,216 L 664,216 L 663,216 L 662,217 L 661,217 L 661,218 L 660,219 L 660,220 L 659,220 L 659,221 L 658,221 L 658,222 L 658,223 L 658,224 L 657,223 L 656,223 L 656,222 L 656,221 L 656,220 L 656,219 L 656,218 L 655,217 L 655,216 L 655,215 L 655,214 L 655,213 L 655,212 L 654,209 L 653,207 L 653,206 L 654,204 L 654,203 L 654,202 L 654,201 L 654,200 L 654,198 L 654,197 L 653,196 L 653,195 L 653,194 L 653,193 L 653,192 L 654,190 L 654,188 L 654,186 L 654,185 L 655,184 L 655,183 L 656,181 L 656,179 L 656,177 L 657,175 L 657,173 L 658,173 L 658,172 L 658,170 L 659,169 L 659,167 L 659,166 L 659,164 L 659,162 L 660,161 L 660,159 L 661,159 L 661,158 L 661,154 L 661,153 L 662,149 L 664,149 L 664,148 L 663,147 L 663,146 L 661,145 L 660,145 L 659,144 L 658,144 L 657,143 L 656,143 L 655,143 L 655,142 L 653,142 L 653,140 L 654,140 L 655,140 L 656,139 L 657,138 L 658,136 L 659,135 L 660,134 L 660,129 L 661,126 L 657,125 L 656,125 L 653,126 L 651,126 L 647,128 L 646,128 L 642,129 L 640,129 L 639,129 L 636,128 L 633,127 L 631,126 L 632,125 L 632,122 L 632,121 L 632,119 L 631,119 L 631,116 L 631,115 L 631,114 L 630,113 L 630,111 L 631,110 L 632,109 L 632,108 L 633,108 L 633,109 L 634,111 L 635,113 L 637,113 L 638,112 L 638,111 L 638,110 L 638,109 L 638,108 L 638,107 L 637,106 L 637,105 L 637,104 L 637,103 L 637,101 L 638,98 L 638,97 L 638,95 L 639,94 L 639,93 L 639,92 L 640,91 L 641,90 L 641,89 L 641,88 L 641,87 L 642,87 L 644,87 L 645,86 L 646,86 L 647,85 L 648,84 L 649,83 L 650,83 L 652,83 L 653,83 L 654,83 L 655,83 L 656,83 L 658,83 L 659,83 L 659,84 L 660,84 L 662,84 L 663,85 L 664,86 L 665,86 L 666,86 L 667,86 L 668,86 L 669,86 L 669,87 L 670,87 L 671,87 L 672,88 L 673,88 L 674,88 L 674,87 L 675,88 L 676,88 L 676,87 L 677,87 L 678,87 L 679,87 L 680,88 L 681,88 L 682,88 L 683,88 L 684,88 L 685,88 L 686,88 L 685,87 L 685,86 L 686,85 L 686,84 L 686,82 L 687,81 L 687,80 L 687,78 L 686,77 L 687,77 L 688,77 L 688,76 L 689,75 L 689,74 L 689,73 L 690,72 L 690,71 L 691,70 L 692,68 L 692,67 L 693,66 L 693,65 L 693,64 L 693,63 L 692,63 L 691,62 L 690,62 L 689,62 L 689,63 L 688,63 L 688,62 L 688,61 L 688,60 L 689,60 L 689,59 L 689,58 L 689,57 L 690,56 L 691,53 L 694,48 L 695,48 L 696,49 L 698,50 L 699,50 L 700,51 L 701,51 L 701,52 L 702,52 L 703,53 L 704,53 L 705,54 L 706,55 L 707,55 L 708,56 L 709,57 L 710,58 L 711,59 L 712,60 L 713,61 L 714,61 L 715,62 " />
</g>
<g id="153" class="st0 dist-block" inkscape:label="Kantamal">
<path d="M 387,58 L 389,58 L 393,58 L 397,58 L 401,58 L 403,58 L 402,62 L 402,63 L 402,64 L 401,65 L 400,67 L 399,69 L 398,71 L 396,72 L 395,74 L 394,74 L 393,75 L 392,75 L 391,76 L 390,77 L 389,77 L 389,78 L 388,79 L 388,80 L 387,81 L 386,81 L 386,82 L 385,82 L 384,82 L 384,83 L 385,84 L 385,85 L 385,86 L 385,87 L 386,88 L 386,89 L 386,91 L 387,92 L 388,93 L 388,94 L 389,95 L 389,96 L 390,97 L 391,99 L 391,100 L 391,101 L 392,103 L 392,104 L 392,105 L 391,106 L 390,107 L 390,109 L 390,110 L 390,111 L 390,112 L 389,113 L 389,115 L 389,116 L 389,118 L 389,119 L 389,121 L 389,122 L 389,123 L 389,124 L 389,126 L 389,127 L 390,127 L 390,129 L 391,130 L 392,130 L 392,131 L 394,133 L 396,135 L 396,136 L 397,137 L 397,138 L 398,139 L 398,140 L 399,140 L 399,142 L 400,143 L 401,143 L 401,144 L 403,144 L 404,145 L 405,146 L 406,146 L 406,147 L 407,149 L 408,149 L 408,150 L 412,152 L 414,153 L 415,154 L 414,156 L 413,159 L 413,161 L 413,162 L 415,163 L 416,163 L 417,163 L 417,164 L 416,165 L 415,165 L 415,166 L 415,167 L 415,168 L 415,169 L 416,170 L 417,170 L 418,170 L 419,171 L 420,171 L 421,171 L 421,172 L 420,172 L 420,173 L 419,173 L 419,174 L 418,177 L 417,179 L 417,181 L 418,182 L 418,183 L 418,184 L 419,186 L 420,187 L 421,187 L 422,188 L 422,189 L 422,190 L 422,191 L 423,192 L 423,193 L 424,194 L 425,195 L 426,195 L 426,196 L 426,197 L 426,198 L 426,199 L 426,200 L 426,201 L 425,202 L 425,203 L 425,204 L 425,205 L 425,206 L 425,207 L 425,208 L 425,209 L 426,209 L 426,210 L 427,211 L 428,211 L 427,212 L 426,214 L 424,217 L 423,219 L 423,220 L 422,221 L 421,222 L 421,224 L 421,226 L 420,226 L 419,226 L 417,225 L 415,225 L 412,225 L 411,224 L 410,223 L 409,223 L 408,222 L 407,222 L 406,222 L 404,222 L 403,222 L 401,221 L 400,221 L 397,220 L 393,220 L 392,219 L 391,219 L 387,215 L 387,216 L 386,217 L 386,219 L 385,219 L 384,218 L 383,217 L 383,216 L 383,215 L 383,213 L 383,211 L 383,210 L 383,209 L 382,209 L 381,208 L 381,207 L 380,207 L 379,207 L 378,207 L 376,207 L 376,208 L 376,209 L 375,211 L 375,212 L 375,213 L 374,213 L 374,214 L 372,215 L 371,216 L 370,216 L 368,218 L 367,218 L 364,218 L 362,217 L 362,216 L 362,215 L 363,213 L 362,212 L 361,212 L 360,211 L 359,211 L 358,210 L 357,210 L 355,210 L 354,210 L 352,210 L 349,209 L 348,209 L 347,209 L 348,210 L 348,211 L 347,211 L 346,213 L 345,214 L 344,214 L 344,213 L 344,212 L 343,212 L 342,211 L 339,211 L 337,211 L 337,210 L 336,210 L 335,210 L 334,211 L 333,212 L 332,213 L 332,214 L 333,215 L 332,215 L 330,215 L 329,215 L 327,215 L 323,214 L 322,213 L 321,213 L 320,213 L 319,213 L 318,213 L 317,213 L 316,212 L 315,212 L 314,211 L 314,210 L 313,210 L 312,211 L 309,213 L 309,214 L 309,215 L 309,216 L 309,217 L 309,218 L 309,219 L 309,221 L 310,223 L 311,225 L 309,225 L 308,225 L 307,226 L 305,226 L 304,226 L 302,227 L 301,228 L 301,229 L 300,230 L 300,231 L 301,232 L 302,232 L 303,233 L 304,233 L 305,234 L 306,235 L 308,237 L 310,238 L 312,238 L 313,238 L 315,238 L 316,238 L 318,237 L 320,236 L 320,237 L 322,239 L 322,238 L 323,238 L 325,237 L 328,237 L 329,237 L 330,238 L 329,239 L 329,240 L 328,242 L 328,243 L 331,247 L 332,249 L 332,250 L 333,250 L 336,250 L 337,250 L 340,250 L 341,250 L 342,250 L 343,252 L 344,254 L 345,255 L 345,256 L 345,257 L 346,257 L 348,260 L 350,262 L 352,267 L 353,269 L 352,269 L 352,270 L 351,270 L 351,271 L 350,272 L 349,272 L 348,273 L 348,274 L 347,274 L 347,275 L 346,275 L 346,276 L 345,277 L 345,278 L 345,279 L 345,280 L 344,281 L 344,282 L 344,283 L 344,284 L 344,285 L 344,286 L 344,287 L 344,288 L 344,289 L 344,290 L 344,291 L 344,292 L 344,293 L 344,294 L 345,294 L 345,295 L 345,296 L 345,297 L 344,297 L 343,296 L 342,296 L 341,296 L 340,296 L 339,295 L 338,295 L 337,295 L 336,295 L 335,294 L 334,294 L 333,294 L 332,294 L 331,293 L 330,294 L 329,294 L 328,294 L 327,294 L 326,295 L 325,295 L 324,295 L 323,295 L 322,296 L 321,296 L 320,295 L 319,295 L 318,295 L 317,295 L 316,295 L 315,294 L 314,294 L 313,294 L 312,294 L 312,293 L 311,293 L 311,294 L 310,294 L 310,295 L 309,295 L 308,296 L 307,296 L 306,297 L 305,297 L 305,298 L 304,298 L 303,299 L 302,299 L 301,300 L 300,300 L 300,301 L 299,301 L 298,302 L 297,302 L 296,303 L 296,304 L 295,304 L 295,305 L 296,305 L 296,306 L 296,307 L 296,308 L 296,309 L 297,310 L 297,311 L 296,312 L 295,313 L 294,314 L 293,314 L 293,315 L 292,315 L 291,316 L 290,316 L 290,317 L 289,318 L 289,319 L 288,319 L 288,320 L 288,321 L 287,322 L 287,323 L 286,324 L 285,325 L 285,326 L 284,326 L 283,327 L 282,328 L 281,328 L 280,328 L 279,328 L 278,327 L 277,327 L 276,327 L 275,327 L 274,327 L 274,326 L 273,326 L 272,325 L 271,325 L 270,325 L 269,324 L 268,323 L 267,323 L 267,324 L 266,325 L 265,326 L 264,327 L 264,328 L 264,329 L 264,330 L 264,331 L 264,332 L 265,332 L 265,333 L 266,333 L 267,334 L 267,335 L 268,335 L 268,336 L 268,337 L 267,338 L 267,339 L 267,340 L 266,341 L 265,342 L 265,343 L 264,343 L 264,344 L 263,345 L 263,346 L 263,347 L 263,348 L 262,348 L 261,348 L 260,348 L 259,348 L 258,348 L 258,349 L 257,350 L 257,351 L 256,352 L 256,353 L 255,354 L 254,355 L 254,356 L 253,356 L 253,357 L 253,358 L 252,359 L 251,360 L 250,360 L 248,360 L 247,360 L 245,360 L 244,360 L 243,360 L 244,360 L 244,361 L 245,362 L 246,363 L 247,364 L 247,365 L 248,365 L 249,366 L 249,367 L 250,368 L 250,369 L 251,370 L 251,371 L 252,372 L 252,373 L 252,374 L 252,375 L 252,376 L 253,377 L 253,378 L 252,379 L 252,380 L 253,381 L 253,382 L 253,383 L 253,384 L 254,385 L 254,387 L 255,388 L 255,389 L 255,390 L 256,391 L 256,392 L 256,393 L 256,394 L 255,395 L 255,396 L 255,397 L 255,398 L 256,399 L 256,400 L 256,401 L 255,401 L 255,402 L 256,402 L 256,403 L 257,403 L 258,403 L 259,404 L 260,404 L 260,405 L 261,405 L 261,406 L 262,406 L 263,407 L 264,407 L 264,408 L 265,408 L 266,409 L 267,409 L 267,410 L 268,411 L 269,411 L 269,412 L 270,412 L 269,413 L 268,413 L 267,413 L 266,414 L 265,413 L 264,413 L 263,413 L 262,413 L 260,412 L 259,411 L 258,411 L 258,410 L 258,409 L 257,409 L 257,410 L 256,410 L 256,411 L 255,412 L 255,413 L 254,414 L 254,415 L 253,416 L 252,417 L 253,418 L 254,419 L 254,420 L 255,420 L 255,421 L 256,422 L 257,423 L 258,424 L 258,425 L 258,426 L 258,427 L 257,427 L 256,428 L 255,428 L 255,429 L 254,429 L 253,430 L 252,430 L 251,431 L 250,430 L 249,430 L 248,430 L 247,430 L 246,430 L 245,429 L 244,429 L 243,429 L 241,429 L 240,429 L 239,428 L 240,428 L 240,427 L 239,426 L 239,425 L 239,424 L 239,423 L 238,422 L 238,421 L 237,421 L 236,420 L 235,420 L 234,420 L 233,420 L 233,421 L 232,421 L 232,422 L 231,422 L 231,423 L 232,423 L 232,424 L 232,425 L 232,426 L 232,427 L 232,428 L 231,428 L 231,429 L 231,430 L 230,431 L 230,432 L 230,433 L 230,434 L 229,434 L 229,435 L 229,436 L 229,437 L 229,438 L 229,439 L 229,440 L 229,441 L 229,442 L 230,442 L 230,443 L 230,444 L 230,445 L 230,446 L 230,447 L 230,448 L 229,449 L 229,450 L 229,451 L 228,451 L 228,452 L 227,452 L 227,451 L 226,450 L 226,449 L 225,449 L 224,449 L 223,448 L 222,448 L 221,448 L 220,448 L 219,447 L 218,447 L 217,447 L 217,446 L 216,446 L 216,445 L 216,444 L 216,443 L 215,442 L 214,441 L 213,440 L 212,440 L 212,439 L 211,439 L 211,438 L 210,437 L 209,437 L 209,436 L 208,436 L 207,435 L 206,435 L 206,434 L 205,434 L 204,434 L 203,435 L 201,435 L 200,434 L 199,434 L 199,435 L 199,436 L 199,438 L 199,439 L 198,439 L 198,438 L 197,438 L 196,438 L 195,438 L 194,438 L 193,438 L 192,438 L 191,437 L 191,436 L 190,436 L 190,435 L 189,435 L 189,434 L 188,434 L 188,435 L 187,435 L 186,435 L 185,435 L 185,434 L 184,434 L 183,433 L 183,432 L 182,432 L 182,431 L 182,430 L 183,429 L 183,428 L 182,428 L 181,427 L 180,427 L 179,427 L 178,427 L 177,426 L 176,426 L 175,426 L 174,426 L 174,427 L 173,427 L 173,428 L 173,429 L 172,430 L 171,431 L 170,431 L 170,432 L 169,432 L 168,432 L 168,433 L 167,433 L 167,434 L 166,434 L 165,435 L 164,435 L 163,436 L 162,437 L 161,438 L 160,438 L 160,439 L 159,439 L 159,440 L 158,440 L 157,441 L 156,442 L 155,443 L 154,443 L 153,444 L 152,444 L 152,445 L 151,445 L 150,445 L 149,445 L 148,445 L 147,444 L 146,444 L 146,443 L 145,441 L 144,440 L 143,439 L 143,438 L 143,437 L 143,436 L 143,435 L 142,433 L 142,432 L 141,431 L 140,430 L 138,429 L 137,429 L 137,430 L 136,431 L 136,432 L 135,433 L 134,434 L 133,435 L 132,435 L 131,436 L 130,436 L 129,436 L 128,436 L 127,436 L 126,436 L 125,436 L 124,435 L 123,434 L 122,433 L 122,432 L 122,431 L 122,430 L 122,429 L 122,428 L 122,427 L 121,427 L 121,426 L 120,426 L 119,426 L 118,425 L 117,425 L 116,425 L 115,424 L 114,424 L 113,423 L 112,423 L 111,422 L 109,421 L 108,421 L 107,420 L 106,420 L 105,420 L 104,420 L 104,419 L 103,419 L 102,418 L 101,417 L 100,416 L 99,415 L 98,414 L 97,413 L 96,413 L 95,413 L 94,413 L 93,413 L 92,413 L 91,413 L 90,413 L 89,413 L 88,412 L 88,411 L 88,410 L 88,409 L 89,409 L 89,408 L 89,407 L 90,407 L 90,406 L 90,405 L 89,404 L 89,403 L 88,403 L 88,402 L 87,402 L 87,401 L 86,401 L 86,400 L 85,399 L 84,398 L 84,397 L 83,396 L 82,396 L 81,396 L 81,395 L 80,395 L 79,395 L 78,395 L 77,395 L 76,395 L 75,394 L 74,394 L 73,394 L 72,393 L 71,393 L 70,393 L 70,392 L 70,391 L 70,390 L 70,389 L 71,388 L 71,387 L 71,386 L 70,386 L 70,385 L 69,385 L 69,384 L 68,383 L 67,383 L 66,382 L 65,381 L 64,381 L 64,380 L 63,380 L 62,379 L 62,378 L 61,378 L 61,377 L 61,376 L 60,375 L 59,375 L 58,374 L 57,374 L 57,375 L 56,375 L 55,376 L 55,377 L 54,378 L 54,379 L 53,379 L 52,380 L 51,380 L 50,380 L 49,380 L 48,380 L 47,379 L 46,379 L 47,379 L 47,378 L 48,377 L 48,376 L 49,375 L 49,374 L 50,373 L 50,372 L 51,371 L 52,369 L 53,368 L 54,366 L 55,364 L 55,363 L 55,362 L 56,360 L 56,359 L 56,358 L 57,355 L 57,354 L 56,353 L 56,352 L 56,351 L 56,350 L 55,349 L 55,348 L 55,347 L 55,346 L 55,345 L 56,344 L 57,343 L 58,342 L 59,342 L 59,341 L 60,341 L 61,341 L 62,340 L 63,340 L 65,340 L 67,340 L 68,340 L 69,340 L 70,340 L 72,340 L 73,339 L 74,339 L 75,339 L 76,339 L 77,339 L 80,339 L 81,339 L 83,339 L 84,339 L 86,338 L 87,338 L 88,338 L 90,338 L 91,337 L 92,337 L 93,337 L 94,336 L 95,336 L 96,336 L 96,335 L 98,334 L 99,334 L 100,333 L 101,333 L 103,332 L 104,332 L 105,332 L 106,332 L 107,332 L 108,332 L 109,332 L 110,332 L 111,332 L 112,332 L 113,331 L 115,330 L 117,329 L 120,328 L 120,327 L 123,326 L 123,325 L 124,325 L 125,324 L 126,323 L 127,323 L 128,322 L 129,321 L 131,319 L 133,318 L 133,317 L 134,317 L 136,315 L 138,314 L 139,314 L 141,314 L 142,313 L 144,313 L 145,312 L 147,312 L 148,311 L 149,310 L 150,309 L 151,308 L 152,307 L 152,306 L 154,305 L 154,303 L 155,302 L 156,301 L 157,300 L 158,299 L 159,297 L 161,296 L 162,295 L 163,294 L 165,293 L 167,291 L 168,290 L 168,289 L 169,289 L 169,287 L 170,285 L 170,284 L 171,283 L 172,283 L 173,281 L 174,281 L 175,279 L 176,278 L 178,276 L 180,274 L 181,274 L 182,272 L 183,272 L 185,271 L 186,269 L 188,268 L 189,267 L 189,266 L 190,266 L 190,265 L 191,263 L 191,262 L 191,260 L 191,257 L 191,255 L 191,254 L 190,252 L 190,251 L 189,250 L 188,249 L 186,248 L 185,247 L 183,246 L 181,246 L 180,245 L 179,244 L 178,243 L 177,243 L 176,242 L 176,241 L 176,240 L 176,239 L 177,237 L 177,236 L 178,235 L 179,234 L 179,233 L 180,232 L 181,230 L 182,229 L 183,227 L 184,225 L 186,223 L 186,222 L 188,220 L 189,218 L 190,216 L 191,215 L 191,214 L 192,213 L 193,211 L 193,210 L 193,209 L 194,209 L 194,208 L 194,207 L 195,206 L 196,204 L 196,203 L 196,202 L 197,201 L 197,200 L 197,199 L 198,198 L 198,196 L 199,194 L 199,193 L 200,192 L 200,191 L 200,189 L 200,188 L 200,186 L 200,184 L 200,183 L 200,182 L 201,181 L 201,179 L 202,178 L 203,177 L 204,176 L 205,176 L 206,176 L 207,176 L 208,175 L 209,175 L 210,175 L 210,174 L 211,174 L 211,173 L 212,172 L 213,171 L 213,170 L 214,169 L 214,168 L 215,167 L 215,166 L 215,165 L 215,163 L 215,162 L 215,161 L 215,160 L 215,159 L 215,158 L 215,156 L 215,155 L 216,154 L 216,152 L 216,150 L 216,148 L 216,146 L 217,145 L 217,144 L 217,143 L 218,142 L 218,141 L 218,140 L 219,139 L 219,138 L 219,137 L 219,134 L 220,132 L 220,129 L 220,128 L 220,127 L 220,126 L 219,124 L 219,122 L 218,118 L 218,115 L 218,113 L 218,112 L 218,111 L 218,110 L 219,109 L 220,109 L 220,108 L 221,107 L 222,105 L 224,103 L 225,103 L 226,102 L 227,101 L 229,99 L 229,98 L 231,96 L 234,94 L 236,93 L 236,92 L 242,89 L 246,87 L 248,87 L 254,85 L 255,85 L 256,84 L 260,84 L 262,84 L 265,83 L 267,82 L 269,79 L 271,77 L 272,76 L 275,74 L 276,73 L 278,72 L 280,71 L 281,71 L 283,70 L 285,69 L 289,69 L 290,69 L 293,70 L 293,71 L 294,71 L 295,72 L 298,74 L 299,75 L 301,75 L 302,76 L 304,77 L 306,78 L 308,79 L 309,79 L 311,79 L 313,79 L 317,79 L 319,79 L 322,79 L 324,79 L 326,79 L 327,79 L 330,78 L 332,78 L 333,78 L 336,78 L 337,78 L 338,77 L 339,77 L 340,76 L 341,75 L 344,73 L 344,72 L 346,71 L 348,70 L 350,68 L 353,66 L 364,60 L 366,59 L 367,58 L 369,56 L 370,56 L 372,56 L 373,56 L 374,56 L 379,57 L 384,58 L 385,58 L 387,58 " />
</g>
</g>
</g>
<g id="block_labels" inkscape:groupmode="layer" inkscape:label="block_labels">
<g stroke="none" fill="rgb(0,0,0)">
<text id="block_labels_1" x="524" y="171" class="st4"  inkscape:label="Boudh_lbl">Boudh</text>
<text id="block_labels_2" x="861" y="291"  class="st4" inkscape:label="Harbhanga_lbl">Harbhanga</text>
<text id="block_labels_3" x="251" y="252" class="st4" inkscape:label="Kantamal_lbl">Kantamal</text>
</g>
</g>
<!-- QGIS extent for clipping, eg in Inkscape -->
</svg>