<?xml version="1.0" standalone="no"?>
<!DOCTYPE svg PUBLIC "-//W3C//DTD SVG 1.1//EN" "http://www.w3.org/Graphics/SVG/1.1/DTD/svg11.dtd">
<svg xmlns="http://www.w3.org/2000/svg" xmlns:inkscape="http://www.inkscape.org/namespaces/inkscape" xmlns:xlink="http://www.w3.org/1999/xlink" viewBox = "150 -100 800 800" version = "1.1">
	<style type="text/css">
   .st0, .st1, .st2
    {
        stroke: #d0d0d0;
        stroke-miterlimit: 7;
		fill:#fff;
		cursor:pointer;
    }
    .st4
    {
        font-size: 7.0514px;
		fill:#000;
    }
    .st0:hover, .st1:hover, .st2:hover{fill:#32C787;}
</style>
<!-- svg generated using QGIS www.qgis.org -->
<g id="block" inkscape:groupmode="layer" inkscape:label="block">
<g stroke="rgb(0,0,0)" fill="#fff" stroke-linejoin="round" stroke-width="0.56">
<g id="21" class="st0 dist-block"  inkscape:label="Balikuda">
<path d="M 451,203 L 452,203 L 453,204 L 454,204 L 454,205 L 455,205 L 455,204 L 456,204 L 457,204 L 457,205 L 458,206 L 459,206 L 460,205 L 461,205 L 461,206 L 462,207 L 463,206 L 464,206 L 465,206 L 465,207 L 466,206 L 467,206 L 467,205 L 468,205 L 469,205 L 470,205 L 470,204 L 471,204 L 472,204 L 472,203 L 473,203 L 473,204 L 474,204 L 475,204 L 475,205 L 475,206 L 475,207 L 475,208 L 476,208 L 477,208 L 477,209 L 478,209 L 478,210 L 478,211 L 479,211 L 479,212 L 480,213 L 480,214 L 480,215 L 481,215 L 481,216 L 482,216 L 482,217 L 483,217 L 483,218 L 484,218 L 484,217 L 485,217 L 485,216 L 486,216 L 487,216 L 487,217 L 488,217 L 489,217 L 489,218 L 490,219 L 490,220 L 491,220 L 491,221 L 492,221 L 493,221 L 493,222 L 494,222 L 495,222 L 496,222 L 497,223 L 498,224 L 498,225 L 499,225 L 499,226 L 499,227 L 500,228 L 500,229 L 501,229 L 501,230 L 502,230 L 502,231 L 503,231 L 503,232 L 503,233 L 503,234 L 503,235 L 502,236 L 502,237 L 502,238 L 503,239 L 503,240 L 504,241 L 505,242 L 506,242 L 506,243 L 507,243 L 508,244 L 509,245 L 509,246 L 509,247 L 509,248 L 509,249 L 510,250 L 509,250 L 508,250 L 507,250 L 506,250 L 505,251 L 504,251 L 503,252 L 503,253 L 502,253 L 502,254 L 502,255 L 501,256 L 501,257 L 501,258 L 500,258 L 499,258 L 498,258 L 497,259 L 496,259 L 496,260 L 495,260 L 495,261 L 494,262 L 494,263 L 494,264 L 494,265 L 494,266 L 494,267 L 495,268 L 496,268 L 497,268 L 498,269 L 499,269 L 500,270 L 500,271 L 499,272 L 498,273 L 497,274 L 497,275 L 497,276 L 496,277 L 496,278 L 496,279 L 497,280 L 497,281 L 498,282 L 498,283 L 499,284 L 500,284 L 500,285 L 501,285 L 502,285 L 502,284 L 503,284 L 504,284 L 505,285 L 506,285 L 506,284 L 507,284 L 508,284 L 509,284 L 510,284 L 511,284 L 512,284 L 514,284 L 516,284 L 517,283 L 518,283 L 519,282 L 520,282 L 521,282 L 522,283 L 522,284 L 521,284 L 521,285 L 520,285 L 519,286 L 519,287 L 519,288 L 520,288 L 522,288 L 523,289 L 524,289 L 525,289 L 527,288 L 528,288 L 528,289 L 527,289 L 526,290 L 525,291 L 525,292 L 525,293 L 526,294 L 526,295 L 526,296 L 527,296 L 527,297 L 528,297 L 529,297 L 529,296 L 529,295 L 530,295 L 530,294 L 530,292 L 530,291 L 531,291 L 532,292 L 533,293 L 534,295 L 535,296 L 536,297 L 537,296 L 537,295 L 537,294 L 538,294 L 539,293 L 539,294 L 538,296 L 539,297 L 539,298 L 540,298 L 541,299 L 542,300 L 543,300 L 545,300 L 546,300 L 547,301 L 548,302 L 548,303 L 547,303 L 546,304 L 546,305 L 545,305 L 544,306 L 543,306 L 542,306 L 541,306 L 540,306 L 540,307 L 540,308 L 540,309 L 540,310 L 539,310 L 538,311 L 537,312 L 537,313 L 536,314 L 535,314 L 535,315 L 534,316 L 533,316 L 533,317 L 533,318 L 532,319 L 532,320 L 533,320 L 533,321 L 534,322 L 534,323 L 534,324 L 535,325 L 536,325 L 536,326 L 536,327 L 535,328 L 535,329 L 534,329 L 534,330 L 534,331 L 534,332 L 535,332 L 535,333 L 535,334 L 534,334 L 534,333 L 533,333 L 532,333 L 532,334 L 533,335 L 533,336 L 533,337 L 534,337 L 534,338 L 535,338 L 534,339 L 534,340 L 533,341 L 534,342 L 535,343 L 536,344 L 537,344 L 538,344 L 539,344 L 540,345 L 541,345 L 542,346 L 542,347 L 542,348 L 542,349 L 542,350 L 543,350 L 544,350 L 545,350 L 546,349 L 546,348 L 547,348 L 547,349 L 547,350 L 547,351 L 547,352 L 547,353 L 547,354 L 546,355 L 546,356 L 546,357 L 547,357 L 547,358 L 548,359 L 549,359 L 550,358 L 551,357 L 552,356 L 552,355 L 553,354 L 554,354 L 554,353 L 555,353 L 556,353 L 557,354 L 558,356 L 558,357 L 559,358 L 559,359 L 560,360 L 560,361 L 561,361 L 561,362 L 562,362 L 563,362 L 564,362 L 565,362 L 566,362 L 566,363 L 567,363 L 567,364 L 567,365 L 567,366 L 566,366 L 566,367 L 565,367 L 564,367 L 563,367 L 562,367 L 561,366 L 559,366 L 558,366 L 557,366 L 557,367 L 557,368 L 557,369 L 558,370 L 558,371 L 559,371 L 560,372 L 561,372 L 562,372 L 563,372 L 564,372 L 565,372 L 566,372 L 567,372 L 568,372 L 568,373 L 568,374 L 569,374 L 569,375 L 569,376 L 569,377 L 569,378 L 570,378 L 570,379 L 571,379 L 572,379 L 573,380 L 573,381 L 573,382 L 574,382 L 575,383 L 576,383 L 577,384 L 577,385 L 577,386 L 577,387 L 578,388 L 579,388 L 580,389 L 581,389 L 581,390 L 582,390 L 583,391 L 583,390 L 584,389 L 585,388 L 585,386 L 586,386 L 586,385 L 587,385 L 588,385 L 589,386 L 590,386 L 591,386 L 592,387 L 593,387 L 593,388 L 594,389 L 595,390 L 595,391 L 595,392 L 594,392 L 593,393 L 592,395 L 591,396 L 591,397 L 590,398 L 589,399 L 588,401 L 587,403 L 587,405 L 586,407 L 586,410 L 585,411 L 585,412 L 585,413 L 585,415 L 584,416 L 584,418 L 583,419 L 583,420 L 583,421 L 582,422 L 581,423 L 580,424 L 579,425 L 579,426 L 579,428 L 579,429 L 579,430 L 578,431 L 577,432 L 575,434 L 574,435 L 573,435 L 573,436 L 572,436 L 571,437 L 570,438 L 569,438 L 569,439 L 569,440 L 569,441 L 569,442 L 569,443 L 570,444 L 571,443 L 572,443 L 573,442 L 574,442 L 575,441 L 577,441 L 578,441 L 579,441 L 579,442 L 580,442 L 581,442 L 582,442 L 582,443 L 582,444 L 582,446 L 581,447 L 582,446 L 583,446 L 583,445 L 583,444 L 583,443 L 584,443 L 585,443 L 585,442 L 585,441 L 586,441 L 587,441 L 589,441 L 590,440 L 591,440 L 591,439 L 592,439 L 592,438 L 592,437 L 593,437 L 593,436 L 594,437 L 595,437 L 596,437 L 595,436 L 594,435 L 594,434 L 595,434 L 596,434 L 596,433 L 596,432 L 597,432 L 598,433 L 599,433 L 600,433 L 600,432 L 599,432 L 598,431 L 598,430 L 599,430 L 600,429 L 601,429 L 602,429 L 602,428 L 603,427 L 603,426 L 603,425 L 603,424 L 604,424 L 605,423 L 606,423 L 608,423 L 609,423 L 608,424 L 607,426 L 606,429 L 604,430 L 603,431 L 602,433 L 602,434 L 601,434 L 601,435 L 600,436 L 600,437 L 599,438 L 598,438 L 597,439 L 596,440 L 595,441 L 593,443 L 591,445 L 590,446 L 588,448 L 586,449 L 585,450 L 583,452 L 581,453 L 578,455 L 577,457 L 575,458 L 573,459 L 572,460 L 570,460 L 569,461 L 568,461 L 567,462 L 566,463 L 565,464 L 565,466 L 564,467 L 564,468 L 564,469 L 564,470 L 563,471 L 563,472 L 562,472 L 562,473 L 561,474 L 560,475 L 560,477 L 559,478 L 559,480 L 559,481 L 558,481 L 558,482 L 557,483 L 556,484 L 556,483 L 555,482 L 554,481 L 553,479 L 553,478 L 553,476 L 552,474 L 551,473 L 551,472 L 551,471 L 550,470 L 549,468 L 549,466 L 546,466 L 542,467 L 538,469 L 535,469 L 533,470 L 531,470 L 530,470 L 529,469 L 527,469 L 524,468 L 522,466 L 519,464 L 517,462 L 514,459 L 513,457 L 512,455 L 512,454 L 510,452 L 509,449 L 509,447 L 508,445 L 508,444 L 507,443 L 507,442 L 506,440 L 506,438 L 504,435 L 502,431 L 499,424 L 497,421 L 497,420 L 496,420 L 494,419 L 492,418 L 491,418 L 490,416 L 489,415 L 488,414 L 487,413 L 486,413 L 484,414 L 483,414 L 480,412 L 475,411 L 472,410 L 469,409 L 468,408 L 467,405 L 465,404 L 463,403 L 462,403 L 462,402 L 461,401 L 459,400 L 457,399 L 455,398 L 454,397 L 453,397 L 452,397 L 451,396 L 450,396 L 448,395 L 447,395 L 445,395 L 445,396 L 444,395 L 444,394 L 444,393 L 446,392 L 448,391 L 449,390 L 450,390 L 450,389 L 451,387 L 451,386 L 452,385 L 452,384 L 453,383 L 453,382 L 452,382 L 450,381 L 448,381 L 448,382 L 447,382 L 446,382 L 445,382 L 445,383 L 444,383 L 443,384 L 443,381 L 443,380 L 442,380 L 440,380 L 440,381 L 439,381 L 438,381 L 437,381 L 436,381 L 435,381 L 434,381 L 433,380 L 433,379 L 433,378 L 433,377 L 434,376 L 434,375 L 436,374 L 434,373 L 433,373 L 432,373 L 431,373 L 430,373 L 430,372 L 429,372 L 429,371 L 429,370 L 429,369 L 429,368 L 430,367 L 430,366 L 430,365 L 431,364 L 431,363 L 430,363 L 430,362 L 430,361 L 430,359 L 430,358 L 430,357 L 430,356 L 430,355 L 431,355 L 431,354 L 432,353 L 433,352 L 434,352 L 435,351 L 436,351 L 437,350 L 437,349 L 437,348 L 437,347 L 438,346 L 438,345 L 439,345 L 440,344 L 440,343 L 441,342 L 441,341 L 441,340 L 440,339 L 439,338 L 438,338 L 437,338 L 435,339 L 434,339 L 433,339 L 432,338 L 431,338 L 430,338 L 430,339 L 429,340 L 429,341 L 428,342 L 428,343 L 427,343 L 427,342 L 427,341 L 426,340 L 426,341 L 425,341 L 424,342 L 423,343 L 422,344 L 422,345 L 421,346 L 420,347 L 419,347 L 418,347 L 418,346 L 418,345 L 418,344 L 418,343 L 419,342 L 420,341 L 420,340 L 421,339 L 422,339 L 423,338 L 423,337 L 423,336 L 422,335 L 422,334 L 421,333 L 421,332 L 421,331 L 420,330 L 420,329 L 420,327 L 420,326 L 420,325 L 420,324 L 420,323 L 420,322 L 420,321 L 420,320 L 420,319 L 419,319 L 418,319 L 417,318 L 417,317 L 417,316 L 418,316 L 418,315 L 419,314 L 419,313 L 418,313 L 417,313 L 416,312 L 416,311 L 415,311 L 414,311 L 413,310 L 411,311 L 409,311 L 408,311 L 407,311 L 406,310 L 405,309 L 404,308 L 404,306 L 403,304 L 403,303 L 402,303 L 401,303 L 400,303 L 398,303 L 397,303 L 396,302 L 395,301 L 395,300 L 394,299 L 393,298 L 392,297 L 392,296 L 393,296 L 393,295 L 393,294 L 394,293 L 395,293 L 396,293 L 396,292 L 397,291 L 397,290 L 397,289 L 396,289 L 394,289 L 393,288 L 392,288 L 391,288 L 390,288 L 390,287 L 390,286 L 389,285 L 388,285 L 387,285 L 387,284 L 387,283 L 389,282 L 391,280 L 391,279 L 392,279 L 392,278 L 393,278 L 394,277 L 395,277 L 396,276 L 397,275 L 397,274 L 397,273 L 398,273 L 399,273 L 400,272 L 401,272 L 402,271 L 402,270 L 402,269 L 402,268 L 403,267 L 403,266 L 403,264 L 403,263 L 403,262 L 403,261 L 402,261 L 401,261 L 400,261 L 399,262 L 399,263 L 398,264 L 398,265 L 397,266 L 396,267 L 395,267 L 394,267 L 393,268 L 392,268 L 391,268 L 391,269 L 391,270 L 390,271 L 390,272 L 389,273 L 388,273 L 388,272 L 387,271 L 386,270 L 385,270 L 385,271 L 385,272 L 385,273 L 385,274 L 384,274 L 384,273 L 383,273 L 383,272 L 383,271 L 384,270 L 384,269 L 384,268 L 385,267 L 386,266 L 386,265 L 387,264 L 387,263 L 388,262 L 389,263 L 390,263 L 391,262 L 391,261 L 392,260 L 392,259 L 393,258 L 393,257 L 394,257 L 394,258 L 394,259 L 394,260 L 395,261 L 396,261 L 397,260 L 397,259 L 397,258 L 396,257 L 396,256 L 396,255 L 396,254 L 395,254 L 395,253 L 394,254 L 393,254 L 392,253 L 392,252 L 391,252 L 390,253 L 389,253 L 388,252 L 388,251 L 387,249 L 387,248 L 387,246 L 387,245 L 388,244 L 389,244 L 391,243 L 391,242 L 392,242 L 393,243 L 394,243 L 394,244 L 395,244 L 396,244 L 397,244 L 397,243 L 397,242 L 397,241 L 398,241 L 398,240 L 399,239 L 400,239 L 400,238 L 400,237 L 399,237 L 398,236 L 398,235 L 398,234 L 398,233 L 397,232 L 398,231 L 398,230 L 398,229 L 398,228 L 398,227 L 398,226 L 398,224 L 398,223 L 398,222 L 399,222 L 399,221 L 399,220 L 400,220 L 401,221 L 402,221 L 402,222 L 403,222 L 404,222 L 405,222 L 405,221 L 406,221 L 407,221 L 408,222 L 409,222 L 410,222 L 411,221 L 411,220 L 411,219 L 410,219 L 410,218 L 410,217 L 411,216 L 412,216 L 413,216 L 414,216 L 414,215 L 415,215 L 415,214 L 415,213 L 416,212 L 416,211 L 417,210 L 417,209 L 418,208 L 419,208 L 420,208 L 421,208 L 422,208 L 423,208 L 423,209 L 425,209 L 426,209 L 427,209 L 428,209 L 428,210 L 429,210 L 429,211 L 430,211 L 431,211 L 432,211 L 433,211 L 434,211 L 434,212 L 435,212 L 436,213 L 437,213 L 438,213 L 439,213 L 439,212 L 439,211 L 440,210 L 441,209 L 441,208 L 442,208 L 443,209 L 444,209 L 445,208 L 446,207 L 446,206 L 447,206 L 447,205 L 448,205 L 448,204 L 448,203 L 449,203 L 450,203 L 451,203 " />
</g>
<g id="62" class="st0 dist-block" inkscape:label="Biridi">
<path d="M 208,17 L 209,18 L 210,18 L 210,17 L 211,17 L 213,16 L 214,15 L 215,15 L 217,17 L 219,18 L 220,18 L 221,18 L 222,19 L 223,20 L 224,21 L 226,22 L 227,23 L 228,23 L 230,24 L 231,25 L 232,26 L 233,27 L 235,28 L 236,29 L 237,30 L 239,30 L 240,31 L 242,31 L 243,32 L 244,33 L 244,34 L 245,34 L 247,34 L 248,34 L 249,35 L 250,35 L 251,35 L 251,36 L 251,37 L 251,38 L 250,39 L 250,40 L 249,40 L 249,41 L 249,42 L 250,42 L 252,43 L 253,44 L 254,44 L 255,43 L 256,42 L 257,42 L 257,43 L 258,44 L 258,45 L 259,46 L 260,47 L 260,48 L 260,49 L 260,50 L 261,51 L 262,52 L 263,52 L 263,53 L 264,53 L 264,54 L 265,54 L 266,53 L 267,53 L 268,53 L 269,54 L 270,54 L 272,54 L 273,53 L 274,53 L 276,52 L 276,51 L 277,51 L 277,49 L 277,48 L 279,47 L 279,46 L 280,45 L 280,43 L 280,42 L 281,42 L 282,42 L 284,43 L 286,44 L 287,45 L 288,46 L 289,47 L 289,48 L 289,49 L 288,50 L 287,49 L 286,49 L 285,49 L 284,49 L 283,49 L 282,49 L 282,50 L 282,51 L 283,52 L 284,52 L 286,53 L 287,53 L 288,54 L 289,54 L 290,55 L 291,55 L 293,56 L 295,57 L 296,57 L 297,58 L 298,58 L 299,58 L 300,59 L 302,59 L 303,59 L 304,60 L 305,60 L 308,60 L 309,60 L 312,60 L 313,60 L 314,60 L 315,60 L 316,59 L 317,57 L 318,56 L 319,56 L 320,56 L 321,55 L 321,56 L 321,57 L 321,58 L 321,59 L 321,60 L 321,61 L 321,62 L 321,63 L 320,63 L 319,64 L 319,65 L 318,65 L 318,66 L 317,66 L 318,67 L 318,68 L 319,69 L 319,70 L 319,71 L 318,72 L 317,73 L 316,74 L 316,75 L 315,76 L 315,77 L 315,78 L 316,79 L 316,80 L 316,81 L 315,82 L 315,83 L 316,83 L 317,83 L 318,84 L 319,84 L 320,84 L 320,85 L 319,85 L 319,86 L 318,86 L 317,86 L 316,86 L 315,87 L 314,88 L 313,89 L 312,89 L 311,89 L 310,88 L 309,88 L 308,89 L 307,89 L 306,90 L 305,91 L 303,91 L 302,91 L 301,91 L 301,92 L 300,93 L 299,92 L 298,91 L 297,92 L 296,92 L 296,91 L 296,90 L 296,89 L 295,89 L 294,89 L 293,90 L 292,90 L 291,91 L 290,90 L 289,89 L 288,88 L 287,89 L 286,90 L 286,91 L 285,92 L 285,93 L 284,95 L 284,97 L 283,97 L 282,98 L 282,97 L 282,98 L 282,99 L 282,100 L 282,101 L 282,102 L 283,103 L 283,104 L 283,106 L 283,108 L 283,109 L 282,111 L 281,111 L 281,110 L 280,110 L 278,109 L 276,109 L 274,109 L 272,109 L 271,109 L 270,110 L 269,111 L 268,112 L 268,113 L 268,115 L 268,116 L 269,117 L 270,117 L 270,118 L 271,118 L 271,120 L 271,121 L 271,123 L 271,124 L 271,125 L 271,126 L 271,128 L 271,129 L 271,130 L 271,132 L 271,133 L 270,134 L 270,135 L 269,135 L 268,136 L 268,137 L 267,138 L 266,138 L 265,138 L 265,139 L 264,140 L 263,141 L 262,142 L 261,142 L 261,143 L 260,143 L 259,144 L 258,144 L 258,145 L 258,146 L 258,148 L 258,149 L 258,150 L 258,151 L 258,152 L 258,153 L 257,154 L 257,155 L 256,156 L 256,157 L 256,159 L 256,160 L 255,161 L 255,162 L 254,163 L 253,164 L 253,165 L 252,166 L 252,167 L 251,168 L 251,169 L 250,169 L 250,170 L 249,170 L 249,171 L 249,172 L 248,173 L 247,175 L 246,174 L 245,172 L 244,171 L 244,169 L 244,167 L 244,165 L 244,163 L 244,162 L 244,161 L 243,160 L 243,159 L 243,157 L 242,156 L 241,155 L 240,155 L 239,154 L 237,153 L 236,152 L 235,152 L 234,151 L 233,151 L 232,151 L 231,150 L 230,150 L 229,149 L 227,148 L 225,146 L 223,145 L 222,144 L 221,143 L 220,142 L 219,141 L 217,139 L 216,138 L 216,137 L 215,136 L 214,134 L 213,132 L 213,131 L 213,130 L 213,129 L 213,128 L 212,128 L 212,127 L 211,127 L 210,127 L 209,126 L 208,126 L 209,123 L 209,122 L 209,121 L 210,120 L 210,119 L 210,118 L 210,117 L 210,116 L 210,115 L 209,114 L 209,113 L 209,112 L 208,110 L 208,109 L 207,109 L 207,108 L 206,106 L 205,105 L 204,105 L 204,104 L 204,103 L 204,102 L 204,99 L 204,98 L 204,97 L 204,96 L 203,96 L 203,95 L 203,94 L 203,93 L 203,92 L 203,91 L 203,90 L 203,89 L 203,87 L 203,85 L 204,84 L 204,83 L 205,83 L 207,81 L 208,81 L 209,80 L 209,79 L 208,77 L 207,76 L 206,76 L 204,74 L 203,72 L 200,69 L 200,68 L 199,68 L 199,67 L 199,66 L 198,66 L 198,65 L 198,64 L 198,63 L 198,62 L 198,61 L 198,60 L 198,58 L 197,57 L 197,56 L 197,55 L 196,54 L 196,52 L 195,50 L 194,48 L 194,47 L 193,46 L 192,44 L 191,43 L 190,41 L 189,39 L 189,38 L 189,37 L 188,37 L 188,36 L 188,35 L 188,34 L 189,34 L 189,33 L 189,32 L 190,31 L 191,29 L 193,26 L 193,24 L 194,23 L 194,22 L 195,21 L 195,20 L 196,20 L 197,19 L 198,18 L 199,17 L 199,16 L 200,14 L 201,12 L 201,11 L 202,11 L 203,12 L 204,13 L 205,13 L 204,16 L 206,16 L 208,17 " />
</g>
<g id="102" class="st0 dist-block" inkscape:label="Erasama">
<path d="M 682,144 L 683,144 L 684,144 L 683,145 L 683,146 L 682,147 L 682,148 L 682,149 L 683,149 L 683,150 L 684,150 L 685,150 L 686,150 L 686,149 L 686,150 L 686,151 L 685,151 L 685,152 L 684,153 L 684,154 L 685,154 L 686,154 L 686,155 L 687,155 L 687,156 L 688,156 L 689,156 L 690,156 L 691,156 L 692,156 L 692,157 L 693,157 L 694,158 L 695,159 L 695,160 L 696,160 L 697,159 L 697,158 L 697,157 L 697,156 L 698,155 L 699,155 L 700,156 L 700,157 L 701,157 L 701,159 L 701,160 L 701,161 L 700,162 L 701,163 L 701,164 L 702,165 L 703,165 L 703,166 L 703,167 L 703,168 L 704,169 L 704,170 L 705,170 L 706,169 L 707,168 L 707,167 L 708,166 L 709,165 L 710,164 L 711,163 L 713,162 L 715,161 L 716,160 L 718,160 L 720,159 L 721,159 L 721,158 L 723,158 L 724,158 L 726,159 L 727,160 L 727,161 L 727,163 L 728,164 L 729,166 L 730,166 L 731,167 L 732,167 L 734,168 L 736,169 L 737,169 L 738,169 L 739,170 L 740,170 L 741,171 L 742,171 L 744,172 L 745,173 L 746,173 L 747,174 L 748,174 L 749,174 L 749,173 L 749,172 L 750,171 L 751,170 L 752,170 L 752,169 L 753,169 L 754,168 L 755,168 L 756,167 L 758,167 L 758,168 L 759,168 L 760,169 L 761,169 L 761,170 L 762,170 L 762,169 L 762,168 L 762,167 L 762,166 L 763,166 L 764,165 L 765,165 L 766,164 L 767,165 L 768,165 L 769,166 L 771,167 L 772,168 L 773,169 L 774,169 L 775,170 L 775,171 L 776,171 L 776,172 L 777,172 L 778,173 L 779,175 L 780,175 L 781,176 L 781,177 L 782,178 L 783,179 L 785,180 L 786,181 L 788,181 L 789,181 L 791,181 L 792,181 L 794,181 L 795,180 L 797,180 L 798,180 L 800,180 L 802,180 L 803,180 L 804,179 L 807,180 L 809,180 L 810,179 L 812,179 L 813,181 L 813,182 L 811,183 L 809,184 L 807,185 L 805,186 L 803,188 L 801,188 L 799,189 L 799,190 L 796,191 L 794,192 L 792,193 L 790,194 L 789,194 L 787,195 L 784,197 L 782,198 L 780,199 L 778,200 L 776,201 L 775,201 L 773,202 L 771,204 L 769,205 L 768,206 L 766,207 L 765,208 L 764,208 L 764,209 L 763,209 L 763,210 L 762,210 L 761,210 L 761,211 L 760,211 L 758,213 L 757,214 L 756,214 L 756,215 L 755,215 L 755,216 L 754,216 L 753,218 L 751,219 L 749,220 L 747,222 L 745,223 L 743,224 L 742,225 L 741,225 L 740,226 L 740,227 L 739,227 L 738,227 L 737,228 L 736,229 L 734,230 L 733,231 L 731,232 L 730,233 L 729,234 L 728,234 L 727,235 L 726,235 L 725,236 L 724,237 L 723,237 L 722,239 L 721,239 L 714,244 L 709,248 L 709,249 L 708,249 L 707,250 L 706,251 L 704,253 L 703,254 L 701,255 L 701,256 L 700,257 L 699,258 L 698,258 L 698,259 L 697,260 L 696,261 L 695,262 L 695,263 L 694,264 L 693,265 L 693,266 L 692,267 L 692,268 L 691,269 L 690,270 L 689,272 L 689,273 L 688,274 L 687,276 L 687,277 L 686,279 L 686,280 L 685,282 L 684,283 L 684,285 L 682,287 L 681,290 L 680,291 L 680,292 L 680,293 L 679,294 L 679,295 L 678,296 L 678,297 L 677,298 L 677,299 L 676,299 L 676,300 L 675,301 L 675,302 L 674,303 L 674,304 L 674,305 L 673,305 L 673,307 L 672,308 L 672,309 L 671,311 L 670,312 L 670,313 L 670,314 L 669,315 L 668,317 L 668,318 L 667,319 L 665,320 L 664,322 L 663,324 L 662,326 L 661,327 L 661,328 L 660,329 L 659,330 L 659,332 L 658,333 L 657,334 L 656,336 L 655,338 L 653,340 L 651,342 L 650,343 L 649,345 L 648,346 L 646,348 L 645,349 L 644,350 L 643,351 L 642,352 L 640,354 L 638,356 L 635,358 L 633,360 L 631,362 L 629,364 L 626,367 L 625,368 L 624,369 L 622,371 L 621,372 L 619,375 L 617,378 L 616,379 L 616,380 L 615,380 L 614,381 L 613,381 L 613,382 L 612,382 L 612,383 L 611,384 L 610,385 L 609,385 L 608,385 L 608,384 L 609,383 L 610,382 L 611,381 L 612,380 L 612,379 L 612,378 L 611,378 L 610,379 L 609,380 L 607,381 L 606,382 L 606,383 L 605,384 L 604,384 L 603,384 L 602,385 L 601,386 L 600,387 L 599,388 L 599,389 L 598,389 L 597,390 L 596,391 L 595,391 L 595,392 L 595,391 L 595,390 L 594,389 L 593,388 L 593,387 L 592,387 L 591,386 L 590,386 L 589,386 L 588,385 L 587,385 L 586,385 L 586,386 L 585,386 L 585,388 L 584,389 L 583,390 L 583,391 L 582,390 L 581,390 L 581,389 L 580,389 L 579,388 L 578,388 L 577,387 L 577,386 L 577,385 L 577,384 L 576,383 L 575,383 L 574,382 L 573,382 L 573,381 L 573,380 L 572,379 L 571,379 L 570,379 L 570,378 L 569,378 L 569,377 L 569,376 L 569,375 L 569,374 L 568,374 L 568,373 L 568,372 L 567,372 L 566,372 L 565,372 L 564,372 L 563,372 L 562,372 L 561,372 L 560,372 L 559,371 L 558,371 L 558,370 L 557,369 L 557,368 L 557,367 L 557,366 L 558,366 L 559,366 L 561,366 L 562,367 L 563,367 L 564,367 L 565,367 L 566,367 L 566,366 L 567,366 L 567,365 L 567,364 L 567,363 L 566,363 L 566,362 L 565,362 L 564,362 L 563,362 L 562,362 L 561,362 L 561,361 L 560,361 L 560,360 L 559,359 L 559,358 L 558,357 L 558,356 L 557,354 L 556,353 L 555,353 L 554,353 L 554,354 L 553,354 L 552,355 L 552,356 L 551,357 L 550,358 L 549,359 L 548,359 L 547,358 L 547,357 L 546,357 L 546,356 L 546,355 L 547,354 L 547,353 L 547,352 L 547,351 L 547,350 L 547,349 L 547,348 L 546,348 L 546,349 L 545,350 L 544,350 L 543,350 L 542,350 L 542,349 L 542,348 L 542,347 L 542,346 L 541,345 L 540,345 L 539,344 L 538,344 L 537,344 L 536,344 L 535,343 L 534,342 L 533,341 L 534,340 L 534,339 L 535,338 L 534,338 L 534,337 L 533,337 L 533,336 L 533,335 L 532,334 L 532,333 L 533,333 L 534,333 L 534,334 L 535,334 L 535,333 L 535,332 L 534,332 L 534,331 L 534,330 L 534,329 L 535,329 L 535,328 L 536,327 L 536,326 L 536,325 L 535,325 L 534,324 L 534,323 L 534,322 L 533,321 L 533,320 L 532,320 L 532,319 L 533,318 L 533,317 L 533,316 L 534,316 L 535,315 L 535,314 L 536,314 L 537,313 L 537,312 L 538,311 L 539,310 L 540,310 L 540,309 L 540,308 L 540,307 L 540,306 L 541,306 L 542,306 L 543,306 L 544,306 L 545,305 L 546,305 L 546,304 L 547,303 L 548,303 L 548,302 L 547,301 L 546,300 L 545,300 L 543,300 L 542,300 L 541,299 L 540,298 L 539,298 L 539,297 L 538,296 L 539,294 L 539,293 L 538,294 L 537,294 L 537,295 L 537,296 L 536,297 L 535,296 L 534,295 L 533,293 L 532,292 L 531,291 L 530,291 L 530,292 L 530,294 L 530,295 L 529,295 L 529,296 L 529,297 L 528,297 L 527,297 L 527,296 L 526,296 L 526,295 L 526,294 L 525,293 L 525,292 L 525,291 L 526,290 L 527,289 L 528,289 L 528,288 L 527,288 L 525,289 L 524,289 L 523,289 L 522,288 L 520,288 L 519,288 L 519,287 L 519,286 L 520,285 L 521,285 L 521,284 L 522,284 L 522,283 L 521,282 L 520,282 L 519,282 L 518,283 L 517,283 L 516,284 L 514,284 L 512,284 L 511,284 L 510,284 L 509,284 L 508,284 L 507,284 L 506,284 L 506,285 L 505,285 L 504,284 L 503,284 L 502,284 L 502,285 L 501,285 L 500,285 L 500,284 L 499,284 L 498,283 L 498,282 L 497,281 L 497,280 L 496,279 L 496,278 L 496,277 L 497,276 L 497,275 L 497,274 L 498,273 L 499,272 L 500,271 L 500,270 L 499,269 L 498,269 L 497,268 L 496,268 L 495,268 L 494,267 L 494,266 L 494,265 L 494,264 L 494,263 L 494,262 L 495,261 L 495,260 L 496,260 L 496,259 L 497,259 L 498,258 L 499,258 L 500,258 L 501,258 L 501,257 L 501,256 L 502,255 L 502,254 L 502,253 L 503,253 L 503,252 L 504,251 L 505,251 L 506,250 L 507,250 L 508,250 L 509,250 L 510,250 L 511,250 L 512,250 L 513,250 L 514,249 L 515,249 L 515,250 L 516,249 L 516,248 L 517,248 L 517,249 L 518,249 L 519,249 L 520,249 L 520,250 L 520,249 L 521,249 L 520,249 L 520,248 L 519,248 L 519,247 L 519,246 L 520,246 L 520,245 L 521,245 L 521,244 L 521,243 L 522,243 L 522,242 L 521,242 L 521,241 L 521,240 L 520,240 L 520,239 L 519,239 L 518,239 L 517,239 L 516,239 L 516,238 L 516,237 L 515,237 L 514,236 L 514,235 L 513,235 L 513,234 L 512,234 L 511,233 L 511,232 L 510,231 L 510,230 L 510,229 L 510,228 L 510,227 L 510,226 L 509,226 L 509,225 L 509,224 L 509,223 L 510,223 L 511,223 L 512,224 L 513,224 L 513,223 L 513,222 L 513,221 L 514,221 L 514,222 L 515,222 L 516,222 L 517,222 L 518,222 L 518,223 L 519,223 L 519,224 L 520,224 L 520,225 L 521,225 L 522,225 L 523,225 L 523,226 L 524,226 L 525,226 L 526,226 L 527,227 L 528,227 L 529,227 L 529,226 L 530,226 L 530,225 L 531,225 L 531,226 L 532,226 L 532,227 L 533,227 L 533,228 L 533,229 L 534,229 L 534,230 L 535,230 L 536,230 L 536,229 L 536,228 L 536,227 L 537,227 L 537,226 L 536,226 L 537,226 L 537,225 L 538,226 L 538,225 L 539,225 L 540,225 L 541,225 L 541,224 L 542,223 L 543,224 L 543,223 L 543,222 L 543,221 L 544,221 L 545,221 L 546,221 L 546,220 L 547,220 L 548,220 L 548,219 L 549,219 L 549,218 L 549,217 L 548,217 L 547,217 L 546,217 L 545,217 L 544,217 L 544,216 L 543,216 L 542,215 L 542,214 L 542,213 L 543,212 L 544,212 L 545,211 L 546,210 L 547,209 L 547,208 L 548,208 L 548,207 L 549,207 L 549,206 L 550,206 L 551,205 L 552,205 L 553,205 L 554,205 L 555,205 L 555,206 L 556,206 L 557,206 L 558,207 L 559,207 L 560,207 L 561,207 L 562,206 L 563,206 L 563,205 L 564,206 L 565,206 L 566,206 L 567,206 L 568,206 L 569,206 L 570,205 L 571,204 L 572,203 L 573,203 L 574,204 L 575,204 L 576,203 L 576,202 L 576,201 L 575,201 L 575,200 L 576,199 L 576,198 L 577,198 L 577,197 L 577,196 L 577,195 L 578,195 L 579,195 L 580,195 L 580,194 L 581,193 L 582,193 L 582,192 L 582,191 L 583,191 L 584,191 L 584,192 L 585,191 L 586,191 L 586,190 L 587,189 L 587,188 L 588,188 L 589,188 L 590,188 L 591,188 L 591,189 L 591,190 L 592,190 L 592,191 L 592,192 L 593,192 L 593,191 L 594,191 L 594,190 L 595,190 L 596,190 L 595,189 L 595,188 L 595,187 L 596,187 L 597,187 L 597,186 L 598,186 L 599,185 L 599,184 L 600,184 L 601,184 L 602,184 L 602,185 L 603,185 L 604,185 L 604,184 L 604,183 L 604,182 L 603,182 L 603,181 L 603,180 L 603,179 L 604,179 L 604,178 L 604,177 L 604,176 L 603,176 L 603,175 L 603,174 L 602,174 L 602,173 L 602,172 L 602,171 L 602,170 L 602,169 L 602,168 L 603,167 L 604,167 L 605,167 L 606,167 L 607,167 L 607,168 L 608,168 L 610,168 L 611,168 L 612,168 L 612,167 L 613,167 L 614,166 L 615,166 L 615,165 L 616,165 L 617,165 L 618,165 L 619,165 L 620,165 L 621,165 L 621,164 L 622,164 L 622,163 L 623,163 L 624,162 L 624,161 L 625,161 L 626,161 L 628,161 L 629,161 L 630,161 L 632,161 L 633,161 L 633,162 L 633,163 L 633,164 L 634,164 L 634,163 L 635,163 L 635,161 L 636,161 L 637,160 L 638,160 L 639,160 L 640,161 L 641,160 L 642,160 L 643,160 L 642,161 L 641,161 L 641,162 L 640,162 L 640,163 L 640,164 L 639,165 L 639,166 L 638,166 L 638,167 L 637,168 L 636,169 L 635,170 L 635,171 L 635,173 L 636,173 L 637,172 L 638,172 L 638,171 L 639,171 L 640,170 L 641,169 L 642,169 L 644,169 L 645,169 L 647,169 L 648,169 L 649,170 L 650,170 L 650,169 L 651,167 L 651,165 L 652,163 L 652,162 L 653,161 L 654,160 L 654,159 L 654,158 L 653,157 L 652,156 L 651,155 L 651,154 L 651,152 L 651,151 L 650,151 L 650,150 L 650,149 L 650,148 L 651,147 L 651,146 L 651,145 L 652,144 L 653,144 L 654,146 L 655,148 L 655,149 L 655,150 L 656,150 L 657,151 L 657,152 L 657,153 L 656,154 L 656,155 L 657,155 L 658,155 L 659,155 L 659,156 L 660,156 L 661,157 L 662,156 L 662,155 L 663,154 L 663,153 L 664,152 L 666,151 L 667,150 L 668,150 L 669,149 L 669,148 L 670,148 L 671,147 L 672,146 L 672,145 L 673,145 L 673,144 L 674,144 L 674,143 L 675,142 L 676,142 L 676,141 L 677,140 L 678,141 L 679,142 L 680,142 L 681,143 L 682,144 " />
</g>
<g id="127" class="st0 dist-block" inkscape:label="Jagatsinghpur">
<path d="M 364,98 L 365,98 L 366,98 L 367,99 L 368,99 L 370,100 L 371,101 L 371,102 L 372,102 L 372,103 L 372,104 L 372,105 L 372,107 L 372,108 L 371,110 L 370,112 L 370,113 L 370,114 L 369,116 L 368,116 L 368,117 L 367,117 L 366,118 L 365,119 L 365,120 L 364,121 L 364,122 L 365,123 L 365,124 L 366,124 L 367,125 L 367,126 L 366,128 L 366,130 L 365,131 L 364,133 L 363,135 L 363,136 L 362,138 L 361,138 L 360,140 L 359,141 L 359,143 L 359,144 L 359,145 L 359,146 L 360,147 L 362,147 L 363,146 L 365,146 L 367,146 L 368,147 L 369,147 L 370,149 L 370,150 L 371,151 L 372,151 L 373,150 L 373,148 L 374,147 L 375,145 L 375,144 L 376,143 L 376,142 L 376,141 L 377,141 L 379,141 L 380,142 L 381,141 L 382,141 L 382,140 L 382,139 L 382,138 L 382,137 L 382,136 L 382,135 L 383,135 L 384,134 L 386,134 L 387,134 L 387,133 L 388,132 L 388,131 L 388,130 L 389,130 L 389,129 L 390,129 L 391,129 L 392,129 L 393,129 L 394,128 L 394,127 L 395,127 L 396,127 L 396,128 L 398,128 L 399,129 L 399,131 L 400,132 L 400,133 L 401,134 L 402,133 L 402,132 L 401,131 L 401,130 L 401,129 L 402,129 L 403,130 L 404,130 L 405,129 L 405,128 L 405,127 L 405,126 L 406,126 L 407,126 L 408,127 L 409,128 L 409,129 L 409,130 L 409,131 L 408,132 L 408,133 L 408,134 L 408,135 L 409,136 L 410,137 L 410,138 L 411,139 L 411,140 L 410,141 L 410,142 L 409,142 L 409,143 L 408,144 L 408,145 L 407,146 L 407,147 L 407,148 L 407,149 L 408,150 L 408,152 L 409,152 L 409,153 L 410,154 L 411,155 L 412,155 L 412,156 L 412,157 L 411,158 L 411,159 L 412,160 L 413,161 L 414,161 L 415,160 L 416,159 L 417,159 L 418,160 L 419,160 L 420,162 L 421,163 L 422,164 L 422,165 L 423,165 L 423,166 L 424,166 L 424,167 L 424,168 L 424,169 L 423,170 L 422,171 L 422,172 L 421,173 L 421,174 L 421,175 L 421,176 L 421,175 L 421,176 L 422,177 L 423,177 L 424,177 L 425,178 L 425,179 L 426,179 L 426,180 L 426,181 L 425,182 L 425,183 L 425,184 L 426,184 L 426,185 L 426,186 L 427,186 L 427,187 L 427,188 L 428,188 L 428,189 L 429,189 L 429,190 L 428,190 L 427,190 L 427,191 L 426,191 L 426,192 L 426,193 L 426,194 L 427,194 L 428,195 L 427,195 L 427,196 L 427,197 L 428,197 L 428,198 L 428,199 L 428,200 L 428,201 L 428,202 L 428,203 L 428,204 L 428,205 L 428,206 L 427,206 L 427,207 L 427,208 L 428,208 L 428,209 L 427,209 L 426,209 L 425,209 L 423,209 L 423,208 L 422,208 L 421,208 L 420,208 L 419,208 L 418,208 L 417,209 L 417,210 L 416,211 L 416,212 L 415,213 L 415,214 L 415,215 L 414,215 L 414,216 L 413,216 L 412,216 L 411,216 L 410,217 L 410,218 L 410,219 L 411,219 L 411,220 L 411,221 L 410,222 L 409,222 L 408,222 L 407,221 L 406,221 L 405,221 L 405,222 L 404,222 L 403,222 L 402,222 L 402,221 L 401,221 L 400,220 L 399,220 L 399,221 L 399,222 L 398,222 L 398,223 L 398,224 L 398,226 L 398,227 L 398,228 L 398,229 L 398,230 L 398,231 L 397,232 L 398,233 L 398,234 L 398,235 L 398,236 L 399,237 L 400,237 L 400,238 L 400,239 L 399,239 L 398,240 L 398,241 L 397,241 L 397,242 L 397,243 L 397,244 L 396,244 L 395,244 L 394,244 L 394,243 L 393,243 L 392,242 L 391,242 L 391,243 L 389,244 L 388,244 L 387,245 L 387,246 L 387,248 L 387,249 L 388,251 L 388,252 L 389,253 L 390,253 L 391,252 L 392,252 L 392,253 L 393,254 L 394,254 L 395,253 L 395,254 L 396,254 L 396,255 L 396,256 L 396,257 L 397,258 L 397,259 L 397,260 L 396,261 L 395,261 L 394,260 L 394,259 L 394,258 L 394,257 L 393,257 L 393,258 L 392,259 L 392,260 L 391,261 L 391,262 L 390,263 L 389,263 L 388,262 L 387,262 L 385,261 L 384,260 L 383,260 L 383,259 L 382,259 L 380,259 L 379,259 L 377,259 L 376,259 L 375,259 L 374,258 L 374,257 L 375,256 L 376,255 L 376,254 L 375,254 L 374,253 L 373,253 L 372,253 L 371,254 L 370,254 L 370,255 L 369,256 L 368,256 L 367,256 L 367,255 L 366,254 L 366,253 L 364,252 L 363,252 L 362,252 L 361,252 L 360,253 L 359,253 L 358,253 L 357,252 L 356,252 L 355,253 L 354,253 L 353,253 L 352,253 L 351,252 L 350,252 L 350,253 L 350,254 L 349,254 L 348,254 L 347,254 L 346,254 L 345,254 L 343,253 L 342,253 L 341,253 L 340,252 L 339,252 L 338,252 L 338,253 L 338,254 L 339,256 L 338,256 L 337,255 L 335,254 L 334,254 L 332,254 L 331,254 L 330,254 L 330,253 L 329,253 L 328,252 L 327,252 L 326,252 L 326,251 L 325,251 L 325,249 L 324,248 L 324,247 L 324,245 L 324,244 L 325,244 L 324,242 L 324,241 L 324,240 L 322,237 L 321,236 L 320,236 L 319,235 L 318,235 L 316,234 L 315,234 L 314,233 L 314,232 L 313,231 L 313,230 L 313,229 L 313,228 L 314,228 L 314,227 L 314,226 L 315,226 L 318,228 L 319,228 L 319,229 L 320,229 L 321,229 L 321,228 L 322,227 L 323,227 L 323,226 L 323,225 L 325,220 L 325,219 L 325,218 L 326,217 L 326,216 L 326,215 L 326,214 L 326,213 L 325,212 L 324,212 L 324,211 L 323,209 L 323,208 L 322,208 L 321,207 L 320,206 L 319,206 L 318,206 L 316,206 L 315,206 L 314,206 L 313,206 L 312,206 L 311,205 L 310,205 L 310,206 L 309,206 L 308,206 L 307,206 L 306,205 L 305,205 L 305,204 L 304,204 L 304,203 L 303,203 L 302,203 L 301,203 L 300,204 L 299,203 L 298,202 L 296,200 L 292,198 L 290,196 L 289,196 L 288,195 L 286,194 L 285,193 L 284,193 L 283,192 L 281,192 L 280,191 L 279,191 L 277,191 L 276,191 L 275,191 L 274,191 L 273,191 L 272,190 L 271,190 L 270,190 L 269,190 L 268,190 L 268,189 L 267,189 L 265,187 L 264,186 L 262,185 L 260,184 L 258,183 L 257,183 L 255,182 L 253,180 L 252,180 L 252,179 L 249,178 L 248,177 L 247,175 L 248,173 L 249,172 L 249,171 L 249,170 L 250,170 L 250,169 L 251,169 L 251,168 L 252,167 L 252,166 L 253,165 L 253,164 L 254,163 L 255,162 L 255,161 L 256,160 L 256,159 L 256,157 L 256,156 L 257,155 L 257,154 L 258,153 L 258,152 L 258,151 L 258,150 L 258,149 L 258,148 L 258,146 L 258,145 L 258,144 L 259,144 L 260,143 L 261,143 L 261,142 L 262,142 L 263,141 L 264,140 L 265,139 L 265,138 L 266,138 L 267,138 L 268,137 L 268,136 L 269,135 L 270,135 L 270,134 L 271,133 L 271,132 L 271,130 L 271,129 L 271,128 L 271,126 L 271,125 L 271,124 L 271,123 L 271,121 L 271,120 L 271,118 L 270,118 L 270,117 L 269,117 L 268,116 L 268,115 L 268,113 L 268,112 L 269,111 L 270,110 L 271,109 L 272,109 L 274,109 L 276,109 L 278,109 L 280,110 L 281,110 L 281,111 L 282,111 L 283,112 L 284,113 L 285,114 L 286,114 L 287,115 L 288,116 L 289,116 L 290,117 L 291,118 L 292,118 L 292,119 L 293,119 L 295,120 L 295,121 L 296,122 L 297,122 L 298,123 L 299,123 L 300,124 L 301,124 L 302,124 L 304,124 L 305,124 L 306,125 L 307,125 L 308,124 L 309,122 L 310,121 L 310,120 L 311,120 L 312,119 L 312,118 L 313,118 L 314,117 L 314,116 L 315,115 L 316,114 L 317,114 L 319,113 L 320,112 L 321,112 L 322,111 L 322,112 L 323,112 L 324,113 L 325,115 L 326,116 L 327,116 L 327,117 L 328,117 L 328,118 L 329,118 L 330,118 L 331,118 L 332,117 L 333,117 L 333,115 L 334,114 L 334,113 L 334,112 L 334,111 L 334,110 L 333,108 L 333,107 L 332,105 L 332,104 L 332,103 L 331,101 L 331,100 L 331,99 L 332,99 L 333,99 L 334,100 L 336,100 L 337,101 L 339,102 L 340,102 L 342,103 L 343,104 L 344,105 L 344,106 L 344,107 L 345,108 L 346,108 L 347,108 L 348,108 L 349,109 L 349,108 L 351,108 L 352,108 L 353,107 L 353,106 L 353,105 L 352,104 L 351,103 L 351,102 L 352,101 L 353,100 L 354,100 L 356,100 L 357,100 L 358,100 L 359,99 L 360,99 L 361,99 L 362,99 L 363,98 L 364,98 " />
</g>
<g id="189" class="st0 dist-block" inkscape:label="Kujang">
<path d="M 606,85 L 607,85 L 608,85 L 609,84 L 609,85 L 610,85 L 611,84 L 612,84 L 614,83 L 615,83 L 616,83 L 617,83 L 618,83 L 620,84 L 622,85 L 623,86 L 624,86 L 625,87 L 628,89 L 631,89 L 633,89 L 635,89 L 637,88 L 638,88 L 639,88 L 640,87 L 641,86 L 642,85 L 642,84 L 643,83 L 645,83 L 646,82 L 648,82 L 650,82 L 652,83 L 655,85 L 658,86 L 660,88 L 661,88 L 663,89 L 664,89 L 665,89 L 666,90 L 667,90 L 668,90 L 669,91 L 670,91 L 671,91 L 672,91 L 673,91 L 674,91 L 675,91 L 676,90 L 677,90 L 679,89 L 681,87 L 683,86 L 684,85 L 685,85 L 686,84 L 688,83 L 689,82 L 689,81 L 690,79 L 691,79 L 693,79 L 694,79 L 695,78 L 696,79 L 697,79 L 697,80 L 698,80 L 699,80 L 700,80 L 702,80 L 704,81 L 705,82 L 706,82 L 707,83 L 709,85 L 710,87 L 712,89 L 713,90 L 714,90 L 715,91 L 716,91 L 716,92 L 717,93 L 718,93 L 718,94 L 719,95 L 720,95 L 721,96 L 722,96 L 723,96 L 724,96 L 725,97 L 726,97 L 728,97 L 729,97 L 730,97 L 731,97 L 732,96 L 733,96 L 734,96 L 735,96 L 737,95 L 737,94 L 738,94 L 739,93 L 741,91 L 742,90 L 742,89 L 744,88 L 746,86 L 747,86 L 749,85 L 751,84 L 753,84 L 755,84 L 756,84 L 757,84 L 759,84 L 760,83 L 761,83 L 762,83 L 764,82 L 765,81 L 767,80 L 769,79 L 771,79 L 773,79 L 774,79 L 775,79 L 777,79 L 778,79 L 779,79 L 780,79 L 781,79 L 782,78 L 783,78 L 784,78 L 785,79 L 786,80 L 786,81 L 787,81 L 787,82 L 789,83 L 792,84 L 793,84 L 796,85 L 798,85 L 799,85 L 802,86 L 804,86 L 806,86 L 808,86 L 810,86 L 811,86 L 812,86 L 813,87 L 817,87 L 819,87 L 823,87 L 825,88 L 828,89 L 829,89 L 831,90 L 834,91 L 836,92 L 837,93 L 839,94 L 840,94 L 841,95 L 842,95 L 844,96 L 846,98 L 849,99 L 850,100 L 851,101 L 854,103 L 855,104 L 856,105 L 857,106 L 858,107 L 859,109 L 860,109 L 860,110 L 861,111 L 862,114 L 863,116 L 865,119 L 866,122 L 867,123 L 869,124 L 870,125 L 872,126 L 873,126 L 874,126 L 877,126 L 879,126 L 880,126 L 883,126 L 884,126 L 888,126 L 889,126 L 890,125 L 891,125 L 892,125 L 896,125 L 898,124 L 899,124 L 900,124 L 902,123 L 904,122 L 905,122 L 906,121 L 907,120 L 911,117 L 913,117 L 916,114 L 918,113 L 919,112 L 920,111 L 921,111 L 922,110 L 923,110 L 925,108 L 926,107 L 927,106 L 928,106 L 929,105 L 930,105 L 932,104 L 933,103 L 934,102 L 935,102 L 935,101 L 936,101 L 937,100 L 938,99 L 939,99 L 940,98 L 941,98 L 943,96 L 944,95 L 945,95 L 945,94 L 946,94 L 948,92 L 949,91 L 950,90 L 951,89 L 952,88 L 953,87 L 954,87 L 955,86 L 955,85 L 956,84 L 957,84 L 958,85 L 959,86 L 960,86 L 961,87 L 962,88 L 961,89 L 960,91 L 960,92 L 959,92 L 958,92 L 956,93 L 954,93 L 953,94 L 952,95 L 951,96 L 949,97 L 947,99 L 945,101 L 944,102 L 943,103 L 941,105 L 939,107 L 937,109 L 935,111 L 933,112 L 931,112 L 930,113 L 929,113 L 928,113 L 927,114 L 926,115 L 925,115 L 924,116 L 920,119 L 918,121 L 914,124 L 912,125 L 908,128 L 907,129 L 904,131 L 903,132 L 901,133 L 898,135 L 897,136 L 895,137 L 894,137 L 894,138 L 893,138 L 892,139 L 890,139 L 889,140 L 886,141 L 885,141 L 883,142 L 882,142 L 881,143 L 880,143 L 878,144 L 876,145 L 874,146 L 873,147 L 871,148 L 867,150 L 864,151 L 863,152 L 861,153 L 860,153 L 859,154 L 858,154 L 858,155 L 858,156 L 858,158 L 858,159 L 857,160 L 857,161 L 857,159 L 857,158 L 857,157 L 856,157 L 855,157 L 854,158 L 853,158 L 851,156 L 851,154 L 851,153 L 852,151 L 853,149 L 851,148 L 850,148 L 850,149 L 849,150 L 848,149 L 847,149 L 846,149 L 845,150 L 845,151 L 845,152 L 845,153 L 846,154 L 847,155 L 848,155 L 849,156 L 849,157 L 849,158 L 850,159 L 850,160 L 850,161 L 849,162 L 849,163 L 850,163 L 851,164 L 853,165 L 854,165 L 855,166 L 857,166 L 855,166 L 854,166 L 852,165 L 852,166 L 851,166 L 850,166 L 849,167 L 848,167 L 847,167 L 845,168 L 843,168 L 840,169 L 837,170 L 835,171 L 832,172 L 829,174 L 828,174 L 827,175 L 826,175 L 826,176 L 825,176 L 824,177 L 823,177 L 821,179 L 818,180 L 816,181 L 814,181 L 813,182 L 813,181 L 812,179 L 810,179 L 809,180 L 807,180 L 804,179 L 803,180 L 802,180 L 800,180 L 798,180 L 797,180 L 795,180 L 794,181 L 792,181 L 791,181 L 789,181 L 788,181 L 786,181 L 785,180 L 783,179 L 782,178 L 781,177 L 781,176 L 780,175 L 779,175 L 778,173 L 777,172 L 776,172 L 776,171 L 775,171 L 775,170 L 774,169 L 773,169 L 772,168 L 771,167 L 769,166 L 768,165 L 767,165 L 766,164 L 765,165 L 764,165 L 763,166 L 762,166 L 762,167 L 762,168 L 762,169 L 762,170 L 761,170 L 761,169 L 760,169 L 759,168 L 758,168 L 758,167 L 756,167 L 755,168 L 754,168 L 753,169 L 752,169 L 752,170 L 751,170 L 750,171 L 749,172 L 749,173 L 749,174 L 748,174 L 747,174 L 746,173 L 745,173 L 744,172 L 742,171 L 741,171 L 740,170 L 739,170 L 738,169 L 737,169 L 736,169 L 734,168 L 732,167 L 731,167 L 730,166 L 729,166 L 728,164 L 727,163 L 727,161 L 727,160 L 726,159 L 724,158 L 723,158 L 721,158 L 721,159 L 720,159 L 718,160 L 716,160 L 715,161 L 713,162 L 711,163 L 710,164 L 709,165 L 708,166 L 707,167 L 707,168 L 706,169 L 705,170 L 704,170 L 704,169 L 703,168 L 703,167 L 703,166 L 703,165 L 702,165 L 701,164 L 701,163 L 700,162 L 701,161 L 701,160 L 701,159 L 701,157 L 700,157 L 700,156 L 699,155 L 698,155 L 697,156 L 697,157 L 697,158 L 697,159 L 696,160 L 695,160 L 695,159 L 694,158 L 693,157 L 692,157 L 692,156 L 691,156 L 690,156 L 689,156 L 688,156 L 687,156 L 687,155 L 686,155 L 686,154 L 685,154 L 684,154 L 684,153 L 685,152 L 685,151 L 686,151 L 686,150 L 686,149 L 686,150 L 685,150 L 684,150 L 683,150 L 683,149 L 682,149 L 682,148 L 682,147 L 683,146 L 683,145 L 684,144 L 683,144 L 682,144 L 681,143 L 680,142 L 679,142 L 678,141 L 677,140 L 676,141 L 676,142 L 675,142 L 674,143 L 674,144 L 673,144 L 673,145 L 672,145 L 672,146 L 671,147 L 670,148 L 669,148 L 669,149 L 668,150 L 667,150 L 666,151 L 664,152 L 663,153 L 663,154 L 662,155 L 662,156 L 661,157 L 660,156 L 659,156 L 659,155 L 658,155 L 657,155 L 656,155 L 656,154 L 657,153 L 657,152 L 657,151 L 656,150 L 655,150 L 655,149 L 655,148 L 654,146 L 653,144 L 652,144 L 651,145 L 651,146 L 651,147 L 650,148 L 650,149 L 650,150 L 650,151 L 651,151 L 651,152 L 651,154 L 651,155 L 652,156 L 653,157 L 654,158 L 654,159 L 654,160 L 653,161 L 652,162 L 652,163 L 651,165 L 651,167 L 650,169 L 650,170 L 649,170 L 648,169 L 647,169 L 645,169 L 644,169 L 642,169 L 641,169 L 640,170 L 639,171 L 638,171 L 638,172 L 637,172 L 636,173 L 635,173 L 635,171 L 635,170 L 636,169 L 637,168 L 638,167 L 638,166 L 639,166 L 639,165 L 640,164 L 640,163 L 640,162 L 641,162 L 641,161 L 642,161 L 643,160 L 642,160 L 641,160 L 640,161 L 639,160 L 638,160 L 637,160 L 636,161 L 635,161 L 635,163 L 634,163 L 634,164 L 633,164 L 633,163 L 633,162 L 633,161 L 632,161 L 630,161 L 629,161 L 628,161 L 626,161 L 625,161 L 624,161 L 624,162 L 623,163 L 622,163 L 622,164 L 621,164 L 621,165 L 620,165 L 619,165 L 618,165 L 617,165 L 616,165 L 615,165 L 615,166 L 614,166 L 613,167 L 612,167 L 612,168 L 611,168 L 610,168 L 608,168 L 607,168 L 607,167 L 606,167 L 605,167 L 604,167 L 603,167 L 602,168 L 602,169 L 602,170 L 602,171 L 602,172 L 602,173 L 602,174 L 603,174 L 603,175 L 603,176 L 604,176 L 604,177 L 604,178 L 604,179 L 603,179 L 603,180 L 603,181 L 603,182 L 604,182 L 604,183 L 604,184 L 604,185 L 603,185 L 602,185 L 602,184 L 601,184 L 600,184 L 599,184 L 599,185 L 598,186 L 597,186 L 597,187 L 596,187 L 595,187 L 595,188 L 595,189 L 596,190 L 595,190 L 594,190 L 594,191 L 593,191 L 593,192 L 592,192 L 592,191 L 592,190 L 591,190 L 591,189 L 591,188 L 590,188 L 589,188 L 588,188 L 587,188 L 587,189 L 586,190 L 586,191 L 585,191 L 584,192 L 584,191 L 583,191 L 582,191 L 582,192 L 582,193 L 581,193 L 580,194 L 580,195 L 579,195 L 578,195 L 577,195 L 577,196 L 577,197 L 577,198 L 576,198 L 576,199 L 575,200 L 575,201 L 576,201 L 576,202 L 576,203 L 575,204 L 574,204 L 573,203 L 572,203 L 571,204 L 570,205 L 569,206 L 568,206 L 567,206 L 566,206 L 565,206 L 564,206 L 563,205 L 563,206 L 562,205 L 562,204 L 563,204 L 563,203 L 563,202 L 564,202 L 564,201 L 564,200 L 564,199 L 565,199 L 565,198 L 566,198 L 567,198 L 567,197 L 567,196 L 567,195 L 566,195 L 566,194 L 566,193 L 566,192 L 565,192 L 564,192 L 564,193 L 563,194 L 562,194 L 561,194 L 560,194 L 559,194 L 559,193 L 558,193 L 557,193 L 556,194 L 555,194 L 554,195 L 554,196 L 553,197 L 552,197 L 552,196 L 551,196 L 551,195 L 550,194 L 549,193 L 548,193 L 548,192 L 548,191 L 548,190 L 549,189 L 549,188 L 549,187 L 550,187 L 550,186 L 550,185 L 549,185 L 549,184 L 548,183 L 547,184 L 546,184 L 545,183 L 545,182 L 544,182 L 543,182 L 542,182 L 541,182 L 541,181 L 540,181 L 540,182 L 539,182 L 538,182 L 537,182 L 536,182 L 535,182 L 535,181 L 535,180 L 535,179 L 534,178 L 533,177 L 533,176 L 533,175 L 534,174 L 534,175 L 535,175 L 536,175 L 537,175 L 537,174 L 538,174 L 539,174 L 539,173 L 540,174 L 540,175 L 541,175 L 541,176 L 542,176 L 543,174 L 543,173 L 544,172 L 544,171 L 545,170 L 545,169 L 546,169 L 547,168 L 548,168 L 549,168 L 549,167 L 549,166 L 550,165 L 550,164 L 551,163 L 551,162 L 550,161 L 550,160 L 551,160 L 552,160 L 553,160 L 554,160 L 555,159 L 555,158 L 555,157 L 554,157 L 554,156 L 553,155 L 554,154 L 554,153 L 555,151 L 555,150 L 555,149 L 555,148 L 555,147 L 556,146 L 556,145 L 557,144 L 557,143 L 557,142 L 556,141 L 555,140 L 554,139 L 553,138 L 553,137 L 553,135 L 554,133 L 554,132 L 555,131 L 556,131 L 557,130 L 558,130 L 559,129 L 559,128 L 558,128 L 557,127 L 557,126 L 556,125 L 557,124 L 557,123 L 558,123 L 558,122 L 559,121 L 559,120 L 559,119 L 559,118 L 559,117 L 560,115 L 562,114 L 563,113 L 564,112 L 567,111 L 570,111 L 571,110 L 572,110 L 574,109 L 576,108 L 577,108 L 579,107 L 581,107 L 582,107 L 583,106 L 584,105 L 584,104 L 584,103 L 584,102 L 585,101 L 585,99 L 585,98 L 586,97 L 586,96 L 586,95 L 585,94 L 584,94 L 584,93 L 583,93 L 582,93 L 581,92 L 580,92 L 579,93 L 578,93 L 577,93 L 577,92 L 578,91 L 578,89 L 578,88 L 578,87 L 578,86 L 578,85 L 579,84 L 580,83 L 580,82 L 581,81 L 581,80 L 581,79 L 581,78 L 582,77 L 582,76 L 583,75 L 583,74 L 584,74 L 585,73 L 586,73 L 587,72 L 588,72 L 589,72 L 590,72 L 591,72 L 591,73 L 592,73 L 592,74 L 593,74 L 594,75 L 595,77 L 597,80 L 598,82 L 599,82 L 600,83 L 602,84 L 604,85 L 606,85 " />
</g>
<g id="222" class="st0 dist-block" inkscape:label="Naugaon">
<path d="M 366,253 L 366,254 L 367,255 L 367,256 L 368,256 L 369,256 L 370,255 L 370,254 L 371,254 L 372,253 L 373,253 L 374,253 L 375,254 L 376,254 L 376,255 L 375,256 L 374,257 L 374,258 L 375,259 L 376,259 L 377,259 L 379,259 L 380,259 L 382,259 L 383,259 L 383,260 L 384,260 L 385,261 L 387,262 L 388,262 L 387,263 L 387,264 L 386,265 L 386,266 L 385,267 L 384,268 L 384,269 L 384,270 L 383,271 L 383,272 L 383,273 L 384,273 L 384,274 L 385,274 L 385,273 L 385,272 L 385,271 L 385,270 L 386,270 L 387,271 L 388,272 L 388,273 L 389,273 L 390,272 L 390,271 L 391,270 L 391,269 L 391,268 L 392,268 L 393,268 L 394,267 L 395,267 L 396,267 L 397,266 L 398,265 L 398,264 L 399,263 L 399,262 L 400,261 L 401,261 L 402,261 L 403,261 L 403,262 L 403,263 L 403,264 L 403,266 L 403,267 L 402,268 L 402,269 L 402,270 L 402,271 L 401,272 L 400,272 L 399,273 L 398,273 L 397,273 L 397,274 L 397,275 L 396,276 L 395,277 L 394,277 L 393,278 L 392,278 L 392,279 L 391,279 L 391,280 L 389,282 L 387,283 L 387,284 L 387,285 L 388,285 L 389,285 L 390,286 L 390,287 L 390,288 L 391,288 L 392,288 L 393,288 L 394,289 L 396,289 L 397,289 L 397,290 L 397,291 L 396,292 L 396,293 L 395,293 L 394,293 L 393,294 L 393,295 L 393,296 L 392,296 L 392,297 L 393,298 L 394,299 L 395,300 L 395,301 L 396,302 L 397,303 L 398,303 L 400,303 L 401,303 L 402,303 L 403,303 L 403,304 L 404,306 L 404,308 L 405,309 L 406,310 L 407,311 L 408,311 L 409,311 L 411,311 L 413,310 L 414,311 L 415,311 L 416,311 L 416,312 L 417,313 L 418,313 L 419,313 L 419,314 L 418,315 L 418,316 L 417,316 L 417,317 L 417,318 L 418,319 L 419,319 L 420,319 L 420,320 L 420,321 L 420,322 L 420,323 L 420,324 L 420,325 L 420,326 L 420,327 L 420,329 L 420,330 L 421,331 L 421,332 L 421,333 L 422,334 L 422,335 L 423,336 L 423,337 L 423,338 L 422,339 L 421,339 L 420,340 L 420,341 L 419,342 L 418,343 L 418,344 L 418,345 L 418,346 L 418,347 L 419,347 L 420,347 L 421,346 L 422,345 L 422,344 L 423,343 L 424,342 L 425,341 L 426,341 L 426,340 L 427,341 L 427,342 L 427,343 L 428,343 L 428,342 L 429,341 L 429,340 L 430,339 L 430,338 L 431,338 L 432,338 L 433,339 L 434,339 L 435,339 L 437,338 L 438,338 L 439,338 L 440,339 L 441,340 L 441,341 L 441,342 L 440,343 L 440,344 L 439,345 L 438,345 L 438,346 L 437,347 L 437,348 L 437,349 L 437,350 L 436,351 L 435,351 L 434,352 L 433,352 L 432,353 L 431,354 L 431,355 L 430,355 L 430,356 L 430,357 L 430,358 L 430,359 L 430,361 L 430,362 L 430,363 L 431,363 L 431,364 L 430,365 L 430,366 L 430,367 L 429,368 L 429,369 L 429,370 L 429,371 L 429,372 L 430,372 L 430,373 L 431,373 L 432,373 L 433,373 L 434,373 L 436,374 L 434,375 L 434,376 L 433,377 L 433,378 L 433,379 L 433,380 L 434,381 L 435,381 L 436,381 L 437,381 L 438,381 L 439,381 L 440,381 L 440,380 L 442,380 L 443,380 L 443,381 L 443,384 L 442,385 L 441,385 L 440,386 L 439,386 L 438,385 L 437,385 L 435,384 L 434,384 L 433,384 L 432,383 L 431,383 L 430,383 L 428,383 L 428,384 L 427,385 L 427,386 L 426,387 L 425,388 L 424,389 L 423,390 L 423,391 L 423,392 L 422,393 L 422,394 L 421,396 L 420,397 L 420,398 L 419,398 L 419,399 L 418,400 L 418,401 L 417,401 L 416,401 L 415,400 L 414,399 L 413,398 L 412,398 L 411,397 L 410,397 L 409,396 L 408,396 L 407,396 L 405,396 L 405,395 L 404,394 L 403,395 L 402,395 L 402,396 L 401,398 L 400,399 L 399,400 L 398,401 L 397,401 L 396,401 L 395,402 L 394,402 L 393,402 L 393,401 L 392,401 L 392,400 L 391,400 L 389,399 L 388,398 L 387,398 L 386,398 L 385,397 L 386,397 L 386,396 L 387,396 L 387,395 L 386,395 L 386,394 L 385,394 L 384,395 L 383,395 L 382,395 L 381,395 L 381,397 L 381,398 L 380,399 L 379,399 L 378,398 L 377,396 L 377,395 L 377,394 L 379,395 L 380,395 L 381,394 L 381,393 L 381,392 L 381,391 L 380,391 L 379,391 L 378,390 L 377,390 L 376,390 L 375,390 L 375,389 L 375,386 L 375,385 L 375,384 L 374,384 L 374,385 L 373,385 L 372,385 L 371,384 L 371,385 L 370,386 L 369,387 L 368,387 L 367,386 L 366,385 L 365,385 L 365,386 L 363,386 L 362,386 L 361,386 L 360,386 L 360,385 L 359,385 L 359,386 L 358,386 L 357,386 L 357,385 L 358,384 L 358,383 L 358,382 L 357,381 L 357,380 L 356,379 L 353,376 L 352,375 L 351,375 L 351,374 L 350,374 L 349,373 L 349,372 L 348,372 L 346,370 L 343,366 L 343,365 L 342,365 L 342,364 L 342,363 L 342,360 L 342,359 L 342,358 L 341,356 L 341,355 L 340,353 L 340,352 L 339,351 L 338,351 L 337,351 L 337,350 L 336,350 L 335,350 L 334,349 L 334,348 L 333,348 L 333,347 L 332,346 L 332,345 L 331,345 L 330,344 L 328,343 L 328,342 L 328,341 L 328,339 L 328,337 L 329,336 L 329,334 L 329,333 L 330,333 L 332,332 L 333,332 L 333,331 L 334,330 L 334,329 L 334,327 L 334,326 L 334,325 L 335,325 L 336,324 L 337,324 L 338,324 L 339,324 L 339,323 L 339,322 L 339,321 L 339,320 L 339,319 L 339,318 L 338,318 L 338,317 L 337,316 L 336,315 L 335,315 L 334,315 L 334,314 L 333,314 L 332,313 L 330,312 L 329,311 L 329,310 L 329,309 L 329,308 L 330,305 L 330,304 L 330,303 L 331,301 L 331,300 L 331,299 L 331,298 L 331,297 L 330,297 L 330,296 L 329,296 L 328,295 L 327,294 L 326,293 L 325,293 L 323,292 L 322,291 L 320,289 L 319,289 L 317,288 L 316,287 L 316,286 L 317,286 L 317,285 L 318,283 L 320,278 L 322,273 L 322,272 L 323,270 L 322,270 L 322,269 L 320,269 L 319,269 L 319,268 L 319,267 L 319,266 L 319,265 L 318,265 L 318,264 L 317,264 L 317,263 L 318,262 L 318,261 L 319,260 L 321,258 L 322,257 L 323,256 L 325,257 L 326,257 L 328,257 L 331,257 L 331,258 L 334,258 L 334,259 L 335,259 L 336,261 L 337,261 L 338,262 L 339,263 L 340,263 L 341,263 L 342,263 L 342,262 L 342,260 L 341,258 L 339,256 L 338,254 L 338,253 L 338,252 L 339,252 L 340,252 L 341,253 L 342,253 L 343,253 L 345,254 L 346,254 L 347,254 L 348,254 L 349,254 L 350,254 L 350,253 L 350,252 L 351,252 L 352,253 L 353,253 L 354,253 L 355,253 L 356,252 L 357,252 L 358,253 L 359,253 L 360,253 L 361,252 L 362,252 L 363,252 L 364,252 L 366,253 " />
</g>
<g id="255" class="st0 dist-block" inkscape:label="Raghunathpur">
<path d="M 341,38 L 343,38 L 344,38 L 346,38 L 349,38 L 352,38 L 355,39 L 358,39 L 360,39 L 361,40 L 362,40 L 363,40 L 364,41 L 365,41 L 366,41 L 367,42 L 367,43 L 368,44 L 370,46 L 371,49 L 372,51 L 373,52 L 374,53 L 375,53 L 375,52 L 376,52 L 377,51 L 378,51 L 378,50 L 380,50 L 381,50 L 382,51 L 382,52 L 382,54 L 383,55 L 384,56 L 385,56 L 386,56 L 386,55 L 387,54 L 388,54 L 389,54 L 390,54 L 391,54 L 392,54 L 393,55 L 393,56 L 394,56 L 396,56 L 397,56 L 398,56 L 400,56 L 401,56 L 403,55 L 404,54 L 406,54 L 407,54 L 407,53 L 411,53 L 413,52 L 415,52 L 416,52 L 417,52 L 419,52 L 420,52 L 421,52 L 424,53 L 425,53 L 424,55 L 423,56 L 423,58 L 424,59 L 424,60 L 425,60 L 425,61 L 426,61 L 427,62 L 427,63 L 427,64 L 428,65 L 428,66 L 430,68 L 431,68 L 432,68 L 433,67 L 433,68 L 434,69 L 435,70 L 436,70 L 436,71 L 437,72 L 438,73 L 438,74 L 439,74 L 439,75 L 440,74 L 441,74 L 442,73 L 443,73 L 444,72 L 444,71 L 445,70 L 446,70 L 447,70 L 447,71 L 449,71 L 450,72 L 450,73 L 451,73 L 452,74 L 453,75 L 454,76 L 455,77 L 456,78 L 457,78 L 457,79 L 458,79 L 458,80 L 459,80 L 459,81 L 459,82 L 460,83 L 461,83 L 462,83 L 463,84 L 464,84 L 465,84 L 465,85 L 466,85 L 467,86 L 468,87 L 469,87 L 469,88 L 470,88 L 470,89 L 470,90 L 469,91 L 469,92 L 468,93 L 468,94 L 467,95 L 467,96 L 466,96 L 465,95 L 465,96 L 465,97 L 464,98 L 464,99 L 464,100 L 463,100 L 463,101 L 462,102 L 461,102 L 460,102 L 460,103 L 459,103 L 459,104 L 458,104 L 457,104 L 457,103 L 456,103 L 455,104 L 455,105 L 454,106 L 454,107 L 454,109 L 454,110 L 453,111 L 452,111 L 452,112 L 451,112 L 450,112 L 449,112 L 448,112 L 447,112 L 447,111 L 446,111 L 445,112 L 445,113 L 444,113 L 444,114 L 443,114 L 442,114 L 441,114 L 440,114 L 440,115 L 439,115 L 439,116 L 438,116 L 438,117 L 437,117 L 436,117 L 436,118 L 435,117 L 434,117 L 433,117 L 433,118 L 432,118 L 432,119 L 432,120 L 431,120 L 431,121 L 430,121 L 429,122 L 428,122 L 428,123 L 427,123 L 427,124 L 428,125 L 429,126 L 429,127 L 430,127 L 430,128 L 430,129 L 429,129 L 428,130 L 427,130 L 426,131 L 425,131 L 424,131 L 425,132 L 424,132 L 423,132 L 422,132 L 421,132 L 420,132 L 420,131 L 419,130 L 418,129 L 417,129 L 417,128 L 416,128 L 415,129 L 414,130 L 414,131 L 412,132 L 411,132 L 409,133 L 408,133 L 408,132 L 409,131 L 409,130 L 409,129 L 409,128 L 408,127 L 407,126 L 406,126 L 405,126 L 405,127 L 405,128 L 405,129 L 404,130 L 403,130 L 402,129 L 401,129 L 401,130 L 401,131 L 402,132 L 402,133 L 401,134 L 400,133 L 400,132 L 399,131 L 399,129 L 398,128 L 396,128 L 396,127 L 395,127 L 394,127 L 394,128 L 393,129 L 392,129 L 391,129 L 390,129 L 389,129 L 389,130 L 388,130 L 388,131 L 388,132 L 387,133 L 387,134 L 386,134 L 384,134 L 383,135 L 382,135 L 382,136 L 382,137 L 382,138 L 382,139 L 382,140 L 382,141 L 381,141 L 380,142 L 379,141 L 377,141 L 376,141 L 376,142 L 376,143 L 375,144 L 375,145 L 374,147 L 373,148 L 373,150 L 372,151 L 371,151 L 370,150 L 370,149 L 369,147 L 368,147 L 367,146 L 365,146 L 363,146 L 362,147 L 360,147 L 359,146 L 359,145 L 359,144 L 359,143 L 359,141 L 360,140 L 361,138 L 362,138 L 363,136 L 363,135 L 364,133 L 365,131 L 366,130 L 366,128 L 367,126 L 367,125 L 366,124 L 365,124 L 365,123 L 364,122 L 364,121 L 365,120 L 365,119 L 366,118 L 367,117 L 368,117 L 368,116 L 369,116 L 370,114 L 370,113 L 370,112 L 371,110 L 372,108 L 372,107 L 372,105 L 372,104 L 372,103 L 372,102 L 371,102 L 371,101 L 370,100 L 368,99 L 367,99 L 366,98 L 365,98 L 364,98 L 363,98 L 362,99 L 361,99 L 360,99 L 359,99 L 358,100 L 357,100 L 356,100 L 354,100 L 353,100 L 352,101 L 351,102 L 351,103 L 352,104 L 353,105 L 353,106 L 353,107 L 352,108 L 351,108 L 349,108 L 349,109 L 348,108 L 347,108 L 346,108 L 345,108 L 344,107 L 344,106 L 344,105 L 343,104 L 342,103 L 340,102 L 339,102 L 337,101 L 336,100 L 334,100 L 333,99 L 332,99 L 331,99 L 331,100 L 331,101 L 332,103 L 332,104 L 332,105 L 333,107 L 333,108 L 334,110 L 334,111 L 334,112 L 334,113 L 334,114 L 333,115 L 333,117 L 332,117 L 331,118 L 330,118 L 329,118 L 328,118 L 328,117 L 327,117 L 327,116 L 326,116 L 325,115 L 324,113 L 323,112 L 322,112 L 322,111 L 321,112 L 320,112 L 319,113 L 317,114 L 316,114 L 315,115 L 314,116 L 314,117 L 313,118 L 312,118 L 312,119 L 311,120 L 310,120 L 310,121 L 309,122 L 308,124 L 307,125 L 306,125 L 305,124 L 304,124 L 302,124 L 301,124 L 300,124 L 299,123 L 298,123 L 297,122 L 296,122 L 295,121 L 295,120 L 293,119 L 292,119 L 292,118 L 291,118 L 290,117 L 289,116 L 288,116 L 287,115 L 286,114 L 285,114 L 284,113 L 283,112 L 282,111 L 283,109 L 283,108 L 283,106 L 283,104 L 283,103 L 282,102 L 282,101 L 282,100 L 282,99 L 282,98 L 282,97 L 282,98 L 283,97 L 284,97 L 284,95 L 285,93 L 285,92 L 286,91 L 286,90 L 287,89 L 288,88 L 289,89 L 290,90 L 291,91 L 292,90 L 293,90 L 294,89 L 295,89 L 296,89 L 296,90 L 296,91 L 296,92 L 297,92 L 298,91 L 299,92 L 300,93 L 301,92 L 301,91 L 302,91 L 303,91 L 305,91 L 306,90 L 307,89 L 308,89 L 309,88 L 310,88 L 311,89 L 312,89 L 313,89 L 314,88 L 315,87 L 316,86 L 317,86 L 318,86 L 319,86 L 319,85 L 320,85 L 320,84 L 319,84 L 318,84 L 317,83 L 316,83 L 315,83 L 315,82 L 316,81 L 316,80 L 316,79 L 315,78 L 315,77 L 315,76 L 316,75 L 316,74 L 317,73 L 318,72 L 319,71 L 319,70 L 319,69 L 318,68 L 318,67 L 317,66 L 318,66 L 318,65 L 319,65 L 319,64 L 320,63 L 321,63 L 321,62 L 321,61 L 321,60 L 321,59 L 321,58 L 321,57 L 321,56 L 321,55 L 322,55 L 323,54 L 324,52 L 326,50 L 328,49 L 329,47 L 330,47 L 331,46 L 332,46 L 333,46 L 333,45 L 334,44 L 335,43 L 335,42 L 336,41 L 338,40 L 339,38 L 340,38 L 341,38 " />
</g>
<g id="308"  class="st0 dist-block" inkscape:label="Tirtol">
<path d="M 444,47 L 445,47 L 447,47 L 448,47 L 449,47 L 449,48 L 449,49 L 449,50 L 448,51 L 448,53 L 447,54 L 447,55 L 447,56 L 448,57 L 448,59 L 449,60 L 450,60 L 452,60 L 454,61 L 454,57 L 454,56 L 456,56 L 457,56 L 458,56 L 459,56 L 461,55 L 462,55 L 463,54 L 464,55 L 466,56 L 468,57 L 469,57 L 469,58 L 470,58 L 471,58 L 472,58 L 472,59 L 473,59 L 474,61 L 474,62 L 475,63 L 477,64 L 479,64 L 481,64 L 482,63 L 483,63 L 483,62 L 484,60 L 484,58 L 485,56 L 487,57 L 488,57 L 488,58 L 488,59 L 488,60 L 489,61 L 490,62 L 491,63 L 491,64 L 492,64 L 494,64 L 495,64 L 495,63 L 495,62 L 496,62 L 497,61 L 499,61 L 500,61 L 501,60 L 501,59 L 502,58 L 502,57 L 502,56 L 503,55 L 503,54 L 503,53 L 503,52 L 502,52 L 502,51 L 501,51 L 499,51 L 500,51 L 501,50 L 502,50 L 503,49 L 504,49 L 505,48 L 506,48 L 509,48 L 512,48 L 513,48 L 514,48 L 515,49 L 515,50 L 516,51 L 516,52 L 517,52 L 518,53 L 519,53 L 519,54 L 520,55 L 521,55 L 521,56 L 522,57 L 522,58 L 522,59 L 523,60 L 524,61 L 524,62 L 524,63 L 525,64 L 525,65 L 525,66 L 525,67 L 526,67 L 528,67 L 529,68 L 530,68 L 531,68 L 533,68 L 534,68 L 535,68 L 536,67 L 537,67 L 537,66 L 537,65 L 537,64 L 536,63 L 535,62 L 535,61 L 536,61 L 536,60 L 537,60 L 538,60 L 539,60 L 540,61 L 540,62 L 541,62 L 542,63 L 543,62 L 544,62 L 544,61 L 545,61 L 545,60 L 546,60 L 547,60 L 548,60 L 548,61 L 549,61 L 550,61 L 551,61 L 552,62 L 553,62 L 554,61 L 555,61 L 556,61 L 556,62 L 556,63 L 557,63 L 558,64 L 560,64 L 562,65 L 565,65 L 566,64 L 567,63 L 567,62 L 567,61 L 567,60 L 566,59 L 566,58 L 566,57 L 565,56 L 566,55 L 567,54 L 568,53 L 569,53 L 570,53 L 571,53 L 572,53 L 573,54 L 573,55 L 574,55 L 574,56 L 575,56 L 575,57 L 576,58 L 576,59 L 577,59 L 578,60 L 580,60 L 581,60 L 582,60 L 583,60 L 584,60 L 586,60 L 586,59 L 587,59 L 588,59 L 589,60 L 589,61 L 588,62 L 588,63 L 588,65 L 588,67 L 589,68 L 591,69 L 592,70 L 593,71 L 596,72 L 597,73 L 598,73 L 598,74 L 598,75 L 599,76 L 599,77 L 600,77 L 601,78 L 603,78 L 604,78 L 605,77 L 607,76 L 608,75 L 609,73 L 610,72 L 611,71 L 611,70 L 611,71 L 611,72 L 610,73 L 610,74 L 610,75 L 609,77 L 609,79 L 609,81 L 609,83 L 609,84 L 608,85 L 607,85 L 606,85 L 604,85 L 602,84 L 600,83 L 599,82 L 598,82 L 597,80 L 595,77 L 594,75 L 593,74 L 592,74 L 592,73 L 591,73 L 591,72 L 590,72 L 589,72 L 588,72 L 587,72 L 586,73 L 585,73 L 584,74 L 583,74 L 583,75 L 582,76 L 582,77 L 581,78 L 581,79 L 581,80 L 581,81 L 580,82 L 580,83 L 579,84 L 578,85 L 578,86 L 578,87 L 578,88 L 578,89 L 578,91 L 577,92 L 577,93 L 578,93 L 579,93 L 580,92 L 581,92 L 582,93 L 583,93 L 584,93 L 584,94 L 585,94 L 586,95 L 586,96 L 586,97 L 585,98 L 585,99 L 585,101 L 584,102 L 584,103 L 584,104 L 584,105 L 583,106 L 582,107 L 581,107 L 579,107 L 577,108 L 576,108 L 574,109 L 572,110 L 571,110 L 570,111 L 567,111 L 564,112 L 563,113 L 562,114 L 560,115 L 559,117 L 559,118 L 559,119 L 559,120 L 559,121 L 558,122 L 558,123 L 557,123 L 557,124 L 556,125 L 557,126 L 557,127 L 558,128 L 559,128 L 559,129 L 558,130 L 557,130 L 556,131 L 555,131 L 554,132 L 554,133 L 553,135 L 553,137 L 553,138 L 554,139 L 555,140 L 556,141 L 557,142 L 557,143 L 557,144 L 556,145 L 556,146 L 555,147 L 555,148 L 555,149 L 555,150 L 555,151 L 554,153 L 554,154 L 553,155 L 554,156 L 554,157 L 555,157 L 555,158 L 555,159 L 554,160 L 553,160 L 552,160 L 551,160 L 550,160 L 550,161 L 551,162 L 551,163 L 550,164 L 550,165 L 549,166 L 549,167 L 549,168 L 548,168 L 547,168 L 546,169 L 545,169 L 545,170 L 544,171 L 544,172 L 543,173 L 543,174 L 542,176 L 541,176 L 541,175 L 540,175 L 540,174 L 539,173 L 539,174 L 538,174 L 537,174 L 537,175 L 536,175 L 535,175 L 534,175 L 534,174 L 533,175 L 533,176 L 533,177 L 534,178 L 535,179 L 535,180 L 535,181 L 535,182 L 536,182 L 537,182 L 538,182 L 539,182 L 540,182 L 540,181 L 541,181 L 541,182 L 542,182 L 543,182 L 544,182 L 545,182 L 545,183 L 546,184 L 547,184 L 548,183 L 549,184 L 549,185 L 550,185 L 550,186 L 550,187 L 549,187 L 549,188 L 549,189 L 548,190 L 548,191 L 548,192 L 548,193 L 549,193 L 550,194 L 551,195 L 551,196 L 552,196 L 552,197 L 553,197 L 554,196 L 554,195 L 555,194 L 556,194 L 557,193 L 558,193 L 559,193 L 559,194 L 560,194 L 561,194 L 562,194 L 563,194 L 564,193 L 564,192 L 565,192 L 566,192 L 566,193 L 566,194 L 566,195 L 567,195 L 567,196 L 567,197 L 567,198 L 566,198 L 565,198 L 565,199 L 564,199 L 564,200 L 564,201 L 564,202 L 563,202 L 563,203 L 563,204 L 562,204 L 562,205 L 563,206 L 562,206 L 561,207 L 560,207 L 559,207 L 558,207 L 557,206 L 556,206 L 555,206 L 555,205 L 554,205 L 553,205 L 552,205 L 551,205 L 550,206 L 549,206 L 549,207 L 548,207 L 548,208 L 547,208 L 547,209 L 546,210 L 545,211 L 544,212 L 543,212 L 542,213 L 542,214 L 542,215 L 543,216 L 544,216 L 544,217 L 545,217 L 546,217 L 547,217 L 548,217 L 549,217 L 549,218 L 549,219 L 548,219 L 548,220 L 547,220 L 546,220 L 546,221 L 545,221 L 544,221 L 543,221 L 543,222 L 543,223 L 543,224 L 542,223 L 541,224 L 541,225 L 540,225 L 539,225 L 538,225 L 538,226 L 537,225 L 537,226 L 536,226 L 537,226 L 537,227 L 536,227 L 536,228 L 536,229 L 536,230 L 535,230 L 534,230 L 534,229 L 533,229 L 533,228 L 533,227 L 532,227 L 532,226 L 531,226 L 531,225 L 530,225 L 530,226 L 529,226 L 529,227 L 528,227 L 527,227 L 526,226 L 525,226 L 524,226 L 523,226 L 523,225 L 522,225 L 521,225 L 520,225 L 520,224 L 519,224 L 519,223 L 518,223 L 518,222 L 517,222 L 516,222 L 515,222 L 514,222 L 514,221 L 513,221 L 513,222 L 513,223 L 513,224 L 512,224 L 511,223 L 510,223 L 509,223 L 509,224 L 509,225 L 509,226 L 510,226 L 510,227 L 510,228 L 510,229 L 510,230 L 510,231 L 511,232 L 511,233 L 512,234 L 513,234 L 513,235 L 514,235 L 514,236 L 515,237 L 516,237 L 516,238 L 516,239 L 517,239 L 518,239 L 519,239 L 520,239 L 520,240 L 521,240 L 521,241 L 521,242 L 522,242 L 522,243 L 521,243 L 521,244 L 521,245 L 520,245 L 520,246 L 519,246 L 519,247 L 519,248 L 520,248 L 520,249 L 521,249 L 520,249 L 520,250 L 520,249 L 519,249 L 518,249 L 517,249 L 517,248 L 516,248 L 516,249 L 515,250 L 515,249 L 514,249 L 513,250 L 512,250 L 511,250 L 510,250 L 509,249 L 509,248 L 509,247 L 509,246 L 509,245 L 508,244 L 507,243 L 506,243 L 506,242 L 505,242 L 504,241 L 503,240 L 503,239 L 502,238 L 502,237 L 502,236 L 503,235 L 503,234 L 503,233 L 503,232 L 503,231 L 502,231 L 502,230 L 501,230 L 501,229 L 500,229 L 500,228 L 499,227 L 499,226 L 499,225 L 498,225 L 498,224 L 497,223 L 496,222 L 495,222 L 494,222 L 493,222 L 493,221 L 492,221 L 491,221 L 491,220 L 490,220 L 490,219 L 489,218 L 489,217 L 488,217 L 487,217 L 487,216 L 486,216 L 485,216 L 485,217 L 484,217 L 484,218 L 483,218 L 483,217 L 482,217 L 482,216 L 481,216 L 481,215 L 480,215 L 480,214 L 480,213 L 479,212 L 479,211 L 478,211 L 478,210 L 478,209 L 477,209 L 477,208 L 476,208 L 475,208 L 475,207 L 475,206 L 475,205 L 475,204 L 474,204 L 473,204 L 473,203 L 472,203 L 472,204 L 471,204 L 470,204 L 470,205 L 469,205 L 468,205 L 467,205 L 467,206 L 466,206 L 465,207 L 465,206 L 464,206 L 463,206 L 462,207 L 461,206 L 461,205 L 460,205 L 459,206 L 458,206 L 457,205 L 457,204 L 456,204 L 455,204 L 455,205 L 454,205 L 454,204 L 453,204 L 452,203 L 451,203 L 450,203 L 449,203 L 448,203 L 448,204 L 448,205 L 447,205 L 447,206 L 446,206 L 446,207 L 445,208 L 444,209 L 443,209 L 442,208 L 441,208 L 441,209 L 440,210 L 439,211 L 439,212 L 439,213 L 438,213 L 437,213 L 436,213 L 435,212 L 434,212 L 434,211 L 433,211 L 432,211 L 431,211 L 430,211 L 429,211 L 429,210 L 428,210 L 428,209 L 428,208 L 427,208 L 427,207 L 427,206 L 428,206 L 428,205 L 428,204 L 428,203 L 428,202 L 428,201 L 428,200 L 428,199 L 428,198 L 428,197 L 427,197 L 427,196 L 427,195 L 428,195 L 427,194 L 426,194 L 426,193 L 426,192 L 426,191 L 427,191 L 427,190 L 428,190 L 429,190 L 429,189 L 428,189 L 428,188 L 427,188 L 427,187 L 427,186 L 426,186 L 426,185 L 426,184 L 425,184 L 425,183 L 425,182 L 426,181 L 426,180 L 426,179 L 425,179 L 425,178 L 424,177 L 423,177 L 422,177 L 421,176 L 421,175 L 421,176 L 421,175 L 421,174 L 421,173 L 422,172 L 422,171 L 423,170 L 424,169 L 424,168 L 424,167 L 424,166 L 423,166 L 423,165 L 422,165 L 422,164 L 421,163 L 420,162 L 419,160 L 418,160 L 417,159 L 416,159 L 415,160 L 414,161 L 413,161 L 412,160 L 411,159 L 411,158 L 412,157 L 412,156 L 412,155 L 411,155 L 410,154 L 409,153 L 409,152 L 408,152 L 408,150 L 407,149 L 407,148 L 407,147 L 407,146 L 408,145 L 408,144 L 409,143 L 409,142 L 410,142 L 410,141 L 411,140 L 411,139 L 410,138 L 410,137 L 409,136 L 408,135 L 408,134 L 408,133 L 409,133 L 411,132 L 412,132 L 414,131 L 414,130 L 415,129 L 416,128 L 417,128 L 417,129 L 418,129 L 419,130 L 420,131 L 420,132 L 421,132 L 422,132 L 423,132 L 424,132 L 425,132 L 424,131 L 425,131 L 426,131 L 427,130 L 428,130 L 429,129 L 430,129 L 430,128 L 430,127 L 429,127 L 429,126 L 428,125 L 427,124 L 427,123 L 428,123 L 428,122 L 429,122 L 430,121 L 431,121 L 431,120 L 432,120 L 432,119 L 432,118 L 433,118 L 433,117 L 434,117 L 435,117 L 436,118 L 436,117 L 437,117 L 438,117 L 438,116 L 439,116 L 439,115 L 440,115 L 440,114 L 441,114 L 442,114 L 443,114 L 444,114 L 444,113 L 445,113 L 445,112 L 446,111 L 447,111 L 447,112 L 448,112 L 449,112 L 450,112 L 451,112 L 452,112 L 452,111 L 453,111 L 454,110 L 454,109 L 454,107 L 454,106 L 455,105 L 455,104 L 456,103 L 457,103 L 457,104 L 458,104 L 459,104 L 459,103 L 460,103 L 460,102 L 461,102 L 462,102 L 463,101 L 463,100 L 464,100 L 464,99 L 464,98 L 465,97 L 465,96 L 465,95 L 466,96 L 467,96 L 467,95 L 468,94 L 468,93 L 469,92 L 469,91 L 470,90 L 470,89 L 470,88 L 469,88 L 469,87 L 468,87 L 467,86 L 466,85 L 465,85 L 465,84 L 464,84 L 463,84 L 462,83 L 461,83 L 460,83 L 459,82 L 459,81 L 459,80 L 458,80 L 458,79 L 457,79 L 457,78 L 456,78 L 455,77 L 454,76 L 453,75 L 452,74 L 451,73 L 450,73 L 450,72 L 449,71 L 447,71 L 447,70 L 446,70 L 445,70 L 444,71 L 444,72 L 443,73 L 442,73 L 441,74 L 440,74 L 439,75 L 439,74 L 438,74 L 438,73 L 437,72 L 436,71 L 436,70 L 435,70 L 434,69 L 433,68 L 433,67 L 432,68 L 431,68 L 430,68 L 428,66 L 428,65 L 427,64 L 427,63 L 427,62 L 426,61 L 425,61 L 425,60 L 424,60 L 424,59 L 423,58 L 423,56 L 424,55 L 425,53 L 426,53 L 427,53 L 427,52 L 428,52 L 430,52 L 431,52 L 432,52 L 434,52 L 436,51 L 438,51 L 439,51 L 440,50 L 440,49 L 441,48 L 441,47 L 442,47 L 444,47 " />
</g>
</g>
</g>
<g id="block_labels" inkscape:groupmode="layer" inkscape:label="block_labels">
<g stroke="none" fill="rgb(0,0,0)">
<text id="block_labels_1" x="487" y="335" class="st4"  inkscape:label="Balikuda_lbl">Balikuda</text>
<text id="block_labels_2" x="245" y="84" class="st4" inkscape:label="Biridi_lbl">Biridi</text>
<text id="block_labels_3" x="629" y="255" class="st4" inkscape:label="Ersama_lbl">Ersama</text>
<text id="block_labels_4" x="344" y="177" class="st4" inkscape:label="Jagatsinghapur_(P)_lbl">Jagatsinghapur_(P)</text>
<text id="block_labels_5" x="712" y="130" class="st4" inkscape:label="Kujang_lbl">Kujang</text>
<text id="block_labels_6" x="376" y="327" class="st4" inkscape:label="Naugaon_lbl">Naugaon</text>
<text id="block_labels_7" x="377" y="90" class="st4" inkscape:label="Raghunathpur_lbl">Raghunathpur</text>
<text id="block_labels_8" x="499" y="137" class="st4" inkscape:label="Tirtol_lbl">Tirtol</text>
</g>
</g>
<!-- QGIS extent for clipping, eg in Inkscape -->
</svg>