<?xml version="1.0" standalone="no"?>
<!DOCTYPE svg PUBLIC "-//W3C//DTD SVG 1.1//EN" "http://www.w3.org/Graphics/SVG/1.1/DTD/svg11.dtd">
<svg xmlns="http://www.w3.org/2000/svg" xmlns:inkscape="http://www.inkscape.org/namespaces/inkscape" xmlns:xlink="http://www.w3.org/1999/xlink" viewBox = "100 -150 950 950" version = "1.1">
	<style type="text/css">
   .st0, .st1, .st2
    {
        stroke: #d0d0d0;
        stroke-miterlimit: 7;
		fill:#fff;
		cursor:pointer;
    }
    .st4
    {
        font-size: 7.0514px;
		fill:#000;
    }
    .st0:hover, .st1:hover, .st2:hover{fill:#32C787;}
</style>
<!-- svg generated using QGIS www.qgis.org -->
<g id="block" inkscape:groupmode="layer" inkscape:label="block">
<g stroke="rgb(0,0,0)" fill="#fff" stroke-linejoin="round" stroke-width="0.56">
<g id="136" class="st0 dist-block" inkscape:label="Jharsuguda">
<path d="M 708,98 L 709,98 L 710,98 L 711,98 L 712,99 L 713,99 L 714,99 L 714,100 L 714,101 L 714,102 L 713,103 L 714,103 L 715,104 L 715,105 L 716,105 L 716,106 L 717,106 L 717,107 L 718,108 L 718,109 L 719,110 L 719,111 L 720,111 L 721,111 L 722,110 L 723,110 L 724,110 L 725,110 L 725,111 L 726,111 L 726,112 L 726,113 L 727,113 L 728,113 L 729,112 L 730,112 L 730,111 L 731,111 L 732,110 L 733,111 L 734,111 L 735,111 L 736,111 L 737,111 L 738,111 L 739,111 L 740,111 L 741,111 L 742,111 L 742,110 L 744,110 L 746,110 L 748,112 L 748,113 L 748,116 L 748,118 L 748,122 L 747,125 L 747,126 L 745,132 L 744,135 L 743,137 L 742,138 L 742,139 L 741,140 L 740,141 L 740,143 L 738,147 L 737,152 L 736,156 L 736,158 L 736,160 L 735,162 L 734,163 L 734,165 L 734,166 L 735,167 L 736,168 L 738,169 L 739,170 L 739,171 L 740,172 L 740,173 L 740,175 L 739,176 L 739,178 L 738,180 L 738,181 L 738,183 L 738,185 L 739,186 L 739,187 L 739,188 L 738,188 L 737,189 L 737,190 L 737,192 L 738,193 L 739,195 L 740,196 L 740,197 L 740,198 L 740,199 L 739,199 L 738,199 L 737,199 L 737,200 L 737,202 L 737,205 L 737,207 L 737,208 L 736,209 L 736,210 L 736,211 L 735,212 L 735,214 L 734,216 L 733,217 L 733,219 L 731,221 L 730,223 L 730,225 L 729,226 L 729,227 L 728,228 L 728,230 L 728,231 L 728,233 L 729,234 L 737,235 L 740,236 L 741,236 L 743,237 L 744,238 L 745,238 L 746,240 L 747,241 L 747,242 L 748,243 L 749,244 L 750,245 L 751,246 L 752,246 L 753,247 L 754,249 L 754,250 L 755,251 L 756,255 L 756,257 L 756,260 L 756,261 L 757,262 L 757,263 L 757,265 L 757,266 L 757,267 L 756,267 L 755,268 L 754,269 L 753,270 L 752,271 L 752,272 L 751,273 L 751,274 L 750,275 L 749,275 L 748,276 L 747,277 L 744,277 L 743,277 L 742,277 L 741,277 L 740,277 L 739,277 L 737,277 L 735,277 L 733,277 L 730,277 L 728,276 L 727,275 L 724,274 L 723,274 L 722,273 L 720,273 L 719,274 L 718,274 L 717,274 L 717,275 L 716,275 L 715,276 L 713,278 L 711,279 L 710,281 L 708,283 L 707,284 L 706,284 L 705,285 L 704,286 L 702,287 L 701,288 L 700,288 L 700,289 L 699,290 L 698,290 L 697,290 L 695,290 L 694,289 L 694,288 L 694,286 L 695,284 L 695,283 L 695,282 L 695,281 L 694,280 L 694,279 L 693,279 L 693,278 L 692,278 L 691,277 L 690,276 L 690,275 L 690,274 L 689,274 L 689,273 L 688,272 L 688,271 L 688,270 L 688,268 L 687,267 L 687,266 L 686,264 L 686,263 L 685,263 L 684,262 L 683,261 L 681,260 L 680,260 L 679,260 L 677,259 L 676,259 L 676,260 L 676,261 L 676,263 L 676,264 L 675,265 L 675,266 L 674,266 L 674,267 L 673,268 L 672,268 L 671,269 L 671,270 L 670,271 L 669,272 L 667,274 L 666,275 L 666,276 L 665,277 L 665,278 L 664,279 L 663,280 L 662,282 L 662,283 L 661,284 L 661,285 L 660,285 L 660,286 L 660,287 L 659,288 L 659,289 L 658,289 L 658,290 L 658,291 L 657,292 L 657,293 L 657,294 L 656,294 L 656,295 L 655,296 L 655,297 L 654,297 L 654,298 L 653,298 L 652,298 L 651,298 L 650,298 L 650,297 L 649,296 L 649,295 L 649,294 L 648,294 L 648,293 L 647,292 L 646,291 L 645,290 L 644,289 L 643,289 L 642,289 L 641,289 L 640,288 L 639,287 L 639,286 L 638,285 L 637,284 L 637,283 L 635,283 L 634,283 L 633,283 L 633,284 L 634,285 L 634,287 L 634,288 L 633,291 L 632,291 L 632,292 L 632,293 L 631,293 L 631,294 L 630,295 L 630,296 L 629,296 L 629,298 L 628,298 L 628,299 L 627,299 L 627,300 L 626,300 L 625,300 L 624,301 L 624,302 L 623,302 L 622,301 L 621,301 L 621,302 L 620,302 L 620,303 L 620,304 L 620,305 L 619,306 L 619,307 L 619,308 L 619,310 L 619,312 L 619,313 L 618,313 L 617,313 L 616,313 L 614,314 L 613,314 L 612,316 L 608,320 L 608,321 L 608,320 L 607,317 L 607,313 L 606,309 L 606,306 L 606,302 L 606,301 L 607,298 L 607,297 L 606,295 L 606,294 L 605,292 L 604,288 L 602,286 L 601,285 L 599,284 L 596,282 L 593,281 L 593,280 L 592,280 L 590,278 L 589,277 L 588,277 L 587,277 L 586,277 L 586,278 L 585,278 L 585,279 L 584,280 L 584,281 L 583,282 L 582,282 L 581,283 L 580,283 L 579,283 L 578,282 L 576,282 L 575,282 L 575,281 L 574,281 L 573,281 L 573,282 L 572,282 L 571,281 L 570,280 L 569,280 L 568,280 L 566,279 L 564,277 L 563,277 L 562,276 L 561,273 L 561,271 L 560,269 L 559,267 L 559,265 L 559,263 L 559,262 L 558,261 L 556,259 L 554,257 L 553,256 L 553,255 L 552,254 L 551,253 L 549,250 L 548,248 L 548,245 L 548,244 L 549,244 L 549,243 L 550,242 L 552,241 L 553,238 L 553,236 L 554,235 L 554,234 L 554,233 L 555,233 L 556,233 L 558,233 L 561,233 L 563,233 L 564,233 L 565,233 L 565,232 L 565,230 L 565,229 L 566,225 L 566,223 L 567,221 L 568,220 L 569,219 L 570,218 L 570,217 L 570,216 L 570,215 L 570,214 L 570,212 L 569,211 L 568,210 L 567,210 L 566,210 L 565,209 L 564,209 L 563,208 L 562,208 L 561,208 L 560,208 L 558,207 L 557,207 L 556,207 L 556,206 L 556,204 L 556,203 L 557,202 L 557,201 L 557,200 L 557,198 L 557,197 L 556,197 L 555,197 L 554,198 L 553,199 L 551,200 L 550,201 L 550,202 L 548,202 L 547,202 L 546,202 L 545,202 L 543,203 L 542,204 L 542,205 L 543,206 L 542,206 L 542,207 L 540,207 L 537,208 L 535,207 L 532,206 L 530,205 L 527,203 L 525,202 L 522,201 L 521,199 L 521,198 L 520,196 L 521,195 L 520,193 L 520,192 L 520,191 L 519,191 L 518,191 L 517,191 L 516,190 L 515,189 L 514,188 L 512,187 L 512,186 L 511,186 L 511,185 L 511,184 L 511,182 L 511,181 L 510,181 L 509,181 L 509,180 L 508,179 L 507,179 L 506,178 L 505,176 L 503,174 L 500,172 L 499,172 L 498,171 L 497,171 L 496,170 L 495,169 L 494,169 L 492,167 L 491,167 L 490,167 L 490,166 L 490,165 L 491,165 L 491,164 L 491,163 L 491,162 L 492,161 L 492,160 L 493,160 L 493,159 L 494,159 L 494,158 L 495,158 L 496,158 L 496,159 L 497,159 L 497,160 L 498,160 L 498,161 L 499,161 L 499,162 L 500,163 L 500,164 L 501,164 L 502,165 L 503,165 L 503,166 L 504,166 L 505,166 L 505,165 L 505,164 L 505,163 L 505,162 L 505,161 L 506,161 L 505,160 L 506,160 L 506,159 L 506,158 L 506,157 L 506,156 L 506,155 L 506,154 L 506,153 L 507,153 L 507,152 L 507,151 L 507,150 L 507,149 L 507,148 L 508,148 L 509,148 L 510,148 L 511,148 L 512,149 L 513,149 L 513,150 L 514,150 L 514,149 L 515,149 L 515,148 L 515,147 L 516,147 L 517,147 L 518,146 L 519,146 L 519,145 L 519,144 L 519,143 L 520,143 L 521,142 L 522,142 L 522,141 L 522,140 L 522,139 L 523,139 L 524,140 L 525,140 L 525,141 L 526,141 L 527,141 L 528,141 L 529,140 L 530,139 L 530,138 L 529,138 L 529,137 L 530,137 L 531,136 L 532,136 L 533,137 L 534,137 L 534,136 L 534,135 L 535,134 L 536,134 L 537,135 L 537,134 L 538,134 L 538,133 L 539,133 L 539,132 L 539,131 L 538,131 L 538,130 L 537,130 L 537,129 L 536,129 L 536,128 L 535,128 L 535,127 L 534,127 L 534,126 L 533,126 L 532,125 L 532,124 L 531,124 L 531,123 L 530,123 L 530,122 L 529,122 L 529,121 L 528,121 L 528,120 L 529,120 L 530,120 L 531,120 L 532,120 L 533,120 L 534,120 L 535,119 L 535,120 L 535,119 L 536,119 L 537,119 L 538,119 L 539,119 L 540,119 L 541,119 L 542,119 L 542,120 L 543,120 L 544,120 L 545,120 L 546,120 L 547,120 L 548,120 L 549,121 L 550,121 L 551,121 L 552,121 L 552,120 L 553,120 L 553,119 L 554,118 L 555,117 L 555,116 L 556,116 L 556,115 L 557,115 L 557,114 L 558,114 L 558,113 L 559,112 L 560,111 L 560,110 L 561,110 L 561,109 L 562,109 L 562,108 L 562,107 L 563,107 L 564,106 L 564,105 L 565,105 L 565,104 L 566,104 L 567,103 L 567,102 L 568,102 L 568,101 L 569,100 L 569,99 L 570,99 L 570,98 L 571,98 L 571,99 L 572,99 L 573,99 L 574,99 L 575,99 L 576,99 L 576,100 L 577,100 L 578,100 L 579,100 L 580,100 L 581,100 L 582,100 L 583,100 L 584,100 L 585,100 L 586,100 L 587,100 L 588,100 L 589,100 L 590,100 L 591,100 L 591,101 L 592,101 L 593,101 L 594,101 L 594,102 L 595,102 L 596,102 L 597,102 L 598,102 L 599,102 L 600,102 L 601,102 L 602,102 L 603,101 L 604,101 L 605,101 L 606,101 L 607,101 L 608,101 L 609,101 L 610,101 L 611,101 L 612,101 L 613,101 L 614,101 L 615,101 L 616,101 L 616,102 L 617,102 L 617,101 L 618,101 L 619,102 L 620,102 L 621,102 L 622,102 L 623,102 L 624,103 L 625,103 L 626,103 L 627,103 L 628,103 L 629,103 L 630,103 L 630,104 L 630,105 L 630,106 L 631,106 L 631,107 L 631,108 L 632,109 L 632,110 L 632,111 L 632,112 L 632,113 L 633,114 L 633,115 L 633,116 L 633,117 L 633,118 L 634,119 L 634,120 L 634,121 L 634,122 L 634,123 L 635,124 L 636,126 L 637,127 L 637,128 L 637,129 L 637,130 L 637,131 L 638,132 L 638,133 L 639,134 L 640,134 L 640,135 L 641,135 L 641,136 L 642,136 L 643,137 L 643,138 L 643,139 L 644,139 L 644,140 L 645,141 L 646,141 L 647,140 L 648,140 L 649,139 L 650,139 L 650,138 L 651,137 L 652,137 L 652,136 L 653,136 L 654,135 L 655,134 L 656,134 L 656,133 L 657,133 L 658,132 L 659,132 L 660,131 L 661,130 L 662,130 L 662,129 L 663,129 L 663,128 L 664,128 L 665,127 L 666,127 L 667,126 L 668,126 L 669,125 L 670,125 L 671,124 L 672,123 L 673,121 L 674,120 L 675,119 L 677,117 L 679,115 L 680,113 L 681,111 L 682,109 L 683,108 L 683,106 L 684,104 L 685,104 L 686,103 L 687,102 L 688,101 L 688,100 L 689,99 L 690,98 L 691,97 L 692,96 L 693,95 L 694,94 L 695,94 L 696,94 L 697,95 L 698,95 L 699,95 L 700,95 L 700,96 L 700,97 L 700,98 L 701,98 L 702,98 L 703,98 L 705,98 L 706,98 L 707,98 L 708,98 " />
</g>
<g id="172" class="st0 dist-block" inkscape:label="Kirmira">
<path d="M 788,43 L 789,43 L 790,43 L 791,43 L 792,44 L 793,45 L 794,45 L 795,46 L 796,47 L 797,47 L 798,48 L 798,49 L 798,50 L 799,50 L 800,49 L 800,50 L 801,50 L 802,50 L 802,49 L 803,49 L 803,48 L 804,48 L 804,49 L 805,49 L 806,50 L 806,49 L 807,49 L 807,48 L 808,48 L 809,49 L 810,49 L 811,49 L 811,50 L 812,50 L 812,49 L 813,49 L 814,49 L 815,49 L 815,50 L 816,50 L 817,50 L 818,50 L 819,49 L 820,48 L 821,48 L 822,48 L 822,49 L 823,49 L 824,49 L 825,49 L 826,49 L 827,50 L 828,50 L 828,49 L 827,49 L 827,48 L 827,47 L 828,47 L 828,48 L 829,48 L 830,48 L 830,49 L 830,50 L 831,50 L 832,50 L 833,50 L 834,50 L 834,51 L 833,52 L 833,53 L 834,53 L 835,54 L 836,54 L 836,55 L 837,55 L 837,54 L 838,54 L 839,54 L 840,54 L 840,55 L 840,56 L 841,56 L 842,55 L 842,56 L 842,57 L 842,58 L 843,58 L 844,58 L 844,59 L 845,59 L 846,59 L 847,58 L 847,59 L 848,59 L 848,60 L 849,60 L 850,60 L 850,61 L 851,61 L 852,61 L 853,61 L 853,62 L 854,62 L 855,62 L 856,63 L 856,62 L 857,62 L 857,63 L 858,63 L 859,64 L 858,64 L 858,65 L 858,66 L 858,67 L 858,68 L 859,69 L 860,70 L 860,71 L 860,72 L 861,72 L 862,72 L 863,72 L 864,72 L 864,71 L 865,71 L 866,71 L 867,71 L 868,71 L 870,71 L 871,71 L 872,71 L 873,71 L 875,72 L 877,73 L 878,73 L 879,74 L 880,74 L 879,76 L 878,77 L 877,79 L 876,80 L 876,81 L 875,82 L 875,84 L 874,85 L 873,88 L 871,90 L 871,91 L 871,92 L 872,93 L 873,94 L 874,94 L 875,94 L 875,95 L 877,95 L 881,96 L 882,96 L 882,97 L 883,97 L 884,97 L 885,96 L 886,96 L 887,96 L 886,97 L 887,98 L 887,99 L 888,100 L 890,100 L 891,101 L 891,102 L 890,104 L 889,105 L 888,106 L 886,108 L 883,109 L 881,110 L 880,112 L 879,113 L 879,114 L 879,116 L 879,117 L 878,117 L 878,118 L 877,118 L 877,119 L 878,120 L 878,121 L 877,121 L 877,122 L 878,123 L 880,129 L 881,130 L 881,131 L 881,132 L 882,132 L 883,132 L 883,133 L 883,135 L 883,136 L 882,138 L 881,139 L 879,139 L 877,139 L 875,139 L 874,138 L 873,137 L 871,136 L 870,136 L 869,137 L 867,137 L 866,138 L 865,140 L 865,141 L 866,142 L 866,143 L 866,144 L 866,146 L 865,147 L 863,148 L 862,149 L 862,150 L 862,151 L 861,153 L 860,153 L 858,153 L 857,153 L 857,154 L 855,155 L 855,156 L 854,158 L 854,159 L 854,161 L 854,163 L 855,164 L 856,165 L 856,166 L 855,168 L 855,169 L 855,170 L 856,171 L 857,171 L 858,171 L 858,173 L 857,174 L 856,176 L 857,178 L 857,180 L 857,181 L 857,183 L 857,184 L 856,184 L 855,184 L 854,184 L 853,183 L 851,183 L 850,183 L 849,184 L 847,185 L 846,185 L 845,186 L 844,186 L 843,186 L 842,185 L 841,184 L 840,184 L 840,183 L 839,182 L 838,182 L 836,182 L 836,183 L 835,183 L 834,183 L 833,184 L 830,184 L 829,184 L 829,183 L 828,183 L 827,183 L 827,182 L 826,181 L 825,181 L 824,181 L 823,181 L 822,182 L 821,182 L 821,183 L 821,184 L 821,185 L 820,185 L 819,185 L 818,185 L 817,185 L 816,185 L 815,185 L 814,185 L 812,185 L 811,185 L 810,185 L 810,184 L 811,182 L 812,181 L 812,180 L 812,178 L 812,176 L 811,175 L 811,174 L 810,174 L 809,174 L 808,173 L 807,171 L 806,170 L 806,168 L 805,167 L 805,165 L 804,164 L 803,164 L 802,164 L 802,165 L 802,166 L 801,167 L 800,168 L 800,169 L 799,169 L 798,169 L 797,168 L 796,167 L 795,167 L 795,168 L 795,169 L 796,170 L 797,171 L 797,172 L 796,173 L 795,173 L 794,173 L 794,174 L 793,174 L 793,175 L 792,176 L 791,177 L 791,178 L 790,179 L 790,180 L 789,180 L 788,180 L 787,179 L 786,178 L 785,176 L 784,175 L 783,174 L 783,173 L 783,172 L 782,171 L 781,171 L 780,171 L 780,172 L 779,172 L 778,174 L 778,175 L 777,175 L 776,176 L 774,177 L 772,178 L 771,179 L 770,180 L 769,181 L 765,185 L 763,187 L 762,186 L 759,185 L 756,181 L 755,180 L 754,179 L 753,178 L 752,177 L 751,176 L 751,175 L 750,174 L 749,174 L 748,174 L 747,174 L 746,173 L 744,172 L 743,172 L 742,172 L 742,171 L 740,171 L 739,170 L 738,169 L 736,168 L 735,167 L 734,166 L 734,165 L 734,163 L 735,162 L 736,160 L 736,158 L 736,156 L 737,152 L 738,147 L 740,143 L 740,141 L 741,140 L 742,139 L 742,138 L 743,137 L 744,135 L 745,132 L 747,126 L 747,125 L 748,122 L 748,118 L 748,116 L 748,113 L 748,112 L 746,110 L 744,110 L 742,110 L 742,109 L 741,109 L 741,108 L 741,107 L 741,106 L 741,105 L 741,104 L 741,103 L 741,102 L 742,101 L 742,100 L 742,99 L 742,98 L 742,97 L 742,96 L 742,95 L 743,94 L 743,93 L 743,92 L 744,91 L 746,90 L 747,89 L 748,88 L 749,88 L 750,88 L 751,88 L 751,87 L 751,86 L 751,85 L 751,84 L 751,83 L 751,82 L 751,81 L 750,80 L 750,79 L 749,78 L 749,77 L 748,75 L 748,74 L 749,73 L 749,72 L 749,70 L 748,69 L 748,68 L 748,67 L 747,67 L 745,67 L 744,67 L 743,67 L 741,66 L 740,66 L 739,66 L 738,66 L 738,65 L 737,64 L 737,63 L 736,62 L 735,62 L 734,62 L 734,61 L 735,58 L 735,57 L 736,57 L 737,57 L 738,57 L 739,57 L 742,57 L 743,56 L 744,56 L 745,56 L 746,56 L 747,56 L 748,57 L 749,57 L 750,57 L 751,57 L 752,56 L 752,54 L 753,53 L 753,52 L 753,51 L 753,50 L 752,49 L 752,48 L 753,48 L 754,48 L 755,48 L 756,48 L 757,48 L 758,49 L 758,50 L 758,51 L 759,51 L 760,51 L 762,51 L 763,50 L 765,50 L 766,50 L 767,50 L 768,50 L 768,51 L 768,52 L 768,53 L 768,54 L 768,55 L 769,55 L 770,55 L 771,55 L 771,54 L 771,53 L 771,52 L 772,52 L 772,51 L 772,50 L 772,49 L 772,48 L 773,48 L 773,47 L 773,45 L 774,43 L 777,39 L 779,35 L 780,35 L 781,35 L 782,35 L 782,36 L 782,37 L 782,38 L 782,39 L 783,39 L 783,40 L 784,40 L 784,41 L 785,41 L 786,41 L 787,41 L 787,42 L 787,43 L 788,43 " />
</g>
<g id="176" class="st0 dist-block" inkscape:label="Kolabira">
<path d="M 806,168 L 806,170 L 807,171 L 808,173 L 809,174 L 810,174 L 811,174 L 811,175 L 812,176 L 812,178 L 812,180 L 812,181 L 811,182 L 810,184 L 810,185 L 811,185 L 812,185 L 814,185 L 815,185 L 816,185 L 817,185 L 818,185 L 819,185 L 820,185 L 821,185 L 821,184 L 821,183 L 821,182 L 822,182 L 823,181 L 824,181 L 825,181 L 826,181 L 827,182 L 827,183 L 828,183 L 829,183 L 829,184 L 830,184 L 833,184 L 834,183 L 835,183 L 835,185 L 835,187 L 835,188 L 835,189 L 835,191 L 835,192 L 834,193 L 834,195 L 835,196 L 835,198 L 836,199 L 837,200 L 837,201 L 838,201 L 838,202 L 839,202 L 841,202 L 842,203 L 843,203 L 844,204 L 845,205 L 845,206 L 845,207 L 844,208 L 844,209 L 842,210 L 842,211 L 841,213 L 840,214 L 840,215 L 840,216 L 841,217 L 843,217 L 846,217 L 849,217 L 850,218 L 852,219 L 853,219 L 855,219 L 857,219 L 861,219 L 864,219 L 865,219 L 867,219 L 869,219 L 871,219 L 873,218 L 875,218 L 877,217 L 878,216 L 879,216 L 880,215 L 880,214 L 881,212 L 882,211 L 882,210 L 883,210 L 885,209 L 886,209 L 888,209 L 889,209 L 889,208 L 890,208 L 891,207 L 893,207 L 894,207 L 896,206 L 897,206 L 897,205 L 898,204 L 899,204 L 899,203 L 900,202 L 900,201 L 901,201 L 901,200 L 902,200 L 902,199 L 903,199 L 904,199 L 905,198 L 905,197 L 906,197 L 904,197 L 903,195 L 902,194 L 903,193 L 903,192 L 903,191 L 903,190 L 904,191 L 905,191 L 906,192 L 907,191 L 908,191 L 909,190 L 909,191 L 910,193 L 910,194 L 911,194 L 913,194 L 915,194 L 916,194 L 917,194 L 917,195 L 917,196 L 916,197 L 917,198 L 918,199 L 919,200 L 919,201 L 920,201 L 922,201 L 923,202 L 925,202 L 926,202 L 926,203 L 926,204 L 926,206 L 927,206 L 927,207 L 926,208 L 926,209 L 925,210 L 925,211 L 926,212 L 927,212 L 930,213 L 933,213 L 937,214 L 938,215 L 940,215 L 943,217 L 944,217 L 944,218 L 945,218 L 946,219 L 947,220 L 947,221 L 949,222 L 950,225 L 951,226 L 951,227 L 952,227 L 953,227 L 955,227 L 956,227 L 959,227 L 961,227 L 961,228 L 961,229 L 961,230 L 960,231 L 960,232 L 960,233 L 960,234 L 960,235 L 960,236 L 960,237 L 959,238 L 959,239 L 959,240 L 959,241 L 958,241 L 957,242 L 956,243 L 955,244 L 953,246 L 952,247 L 950,248 L 949,248 L 949,249 L 948,249 L 948,250 L 948,251 L 947,251 L 947,252 L 947,253 L 946,255 L 946,256 L 945,257 L 944,256 L 943,256 L 943,257 L 943,258 L 944,258 L 944,259 L 943,260 L 942,261 L 941,261 L 940,262 L 940,263 L 940,264 L 940,265 L 940,267 L 940,268 L 939,269 L 939,270 L 939,271 L 940,272 L 940,273 L 940,274 L 940,275 L 940,276 L 939,277 L 938,278 L 937,279 L 936,279 L 936,280 L 936,281 L 936,282 L 936,284 L 936,286 L 935,287 L 934,288 L 933,288 L 933,289 L 933,290 L 933,291 L 932,291 L 931,291 L 930,291 L 929,291 L 928,291 L 927,291 L 926,292 L 926,293 L 925,293 L 924,293 L 923,292 L 922,292 L 921,293 L 920,293 L 920,294 L 919,294 L 918,294 L 917,294 L 916,293 L 915,292 L 914,291 L 913,290 L 912,289 L 912,288 L 913,288 L 913,287 L 912,287 L 911,287 L 910,287 L 910,286 L 910,285 L 909,286 L 909,287 L 908,288 L 908,287 L 907,287 L 907,286 L 906,287 L 905,287 L 904,287 L 904,286 L 903,286 L 902,286 L 902,287 L 902,288 L 902,289 L 901,289 L 901,290 L 901,291 L 901,293 L 901,295 L 901,296 L 900,297 L 899,297 L 898,297 L 897,298 L 896,298 L 896,299 L 895,300 L 894,301 L 893,301 L 892,301 L 892,302 L 891,302 L 890,303 L 889,304 L 889,303 L 888,302 L 887,302 L 886,302 L 885,303 L 884,303 L 883,304 L 882,304 L 881,305 L 880,305 L 879,305 L 879,304 L 879,303 L 878,303 L 877,303 L 877,304 L 876,304 L 876,305 L 875,306 L 874,306 L 873,307 L 872,307 L 871,307 L 869,307 L 868,307 L 866,307 L 865,307 L 864,306 L 863,305 L 862,305 L 861,305 L 861,306 L 861,307 L 861,309 L 862,309 L 863,309 L 863,311 L 863,313 L 862,314 L 861,314 L 860,313 L 859,312 L 857,312 L 856,313 L 854,314 L 853,315 L 852,317 L 851,317 L 850,317 L 849,317 L 848,317 L 848,318 L 847,318 L 847,319 L 847,321 L 847,323 L 846,325 L 846,328 L 846,330 L 845,330 L 844,330 L 843,330 L 842,330 L 841,330 L 841,331 L 839,331 L 837,331 L 835,331 L 834,331 L 831,332 L 829,331 L 827,330 L 826,330 L 824,329 L 823,328 L 821,327 L 820,327 L 817,327 L 816,326 L 815,326 L 814,325 L 813,325 L 812,324 L 810,323 L 809,323 L 807,322 L 805,321 L 803,321 L 803,319 L 802,317 L 801,315 L 801,313 L 801,311 L 802,310 L 803,309 L 804,308 L 804,307 L 804,306 L 803,305 L 802,304 L 801,302 L 801,301 L 801,300 L 801,299 L 800,298 L 800,297 L 800,294 L 800,292 L 799,291 L 799,290 L 799,289 L 800,288 L 800,286 L 800,285 L 800,283 L 801,281 L 802,279 L 802,278 L 802,277 L 802,276 L 802,275 L 802,273 L 801,273 L 800,273 L 799,272 L 799,271 L 798,271 L 798,270 L 797,270 L 797,269 L 796,269 L 795,269 L 794,268 L 793,268 L 792,268 L 791,267 L 790,267 L 789,266 L 788,266 L 787,265 L 786,265 L 784,265 L 783,265 L 781,265 L 780,265 L 778,265 L 777,264 L 776,263 L 775,263 L 775,262 L 774,261 L 773,260 L 772,260 L 771,260 L 770,260 L 769,261 L 768,261 L 767,262 L 766,263 L 765,263 L 764,264 L 763,265 L 761,266 L 760,267 L 759,267 L 757,267 L 756,267 L 757,267 L 757,266 L 757,265 L 757,263 L 757,262 L 756,261 L 756,260 L 756,257 L 756,255 L 755,251 L 754,250 L 754,249 L 753,247 L 752,246 L 751,246 L 750,245 L 749,244 L 748,243 L 747,242 L 747,241 L 746,240 L 745,238 L 744,238 L 743,237 L 741,236 L 740,236 L 737,235 L 729,234 L 728,233 L 728,231 L 728,230 L 728,228 L 729,227 L 729,226 L 730,225 L 730,223 L 731,221 L 733,219 L 733,217 L 734,216 L 735,214 L 735,212 L 736,211 L 736,210 L 736,209 L 737,208 L 737,207 L 737,205 L 737,202 L 737,200 L 737,199 L 738,199 L 739,199 L 740,199 L 740,198 L 740,197 L 740,196 L 739,195 L 738,193 L 737,192 L 737,190 L 737,189 L 738,188 L 739,188 L 739,187 L 739,186 L 738,185 L 738,183 L 738,181 L 738,180 L 739,178 L 739,176 L 740,175 L 740,173 L 740,172 L 739,171 L 739,170 L 740,171 L 742,171 L 742,172 L 743,172 L 744,172 L 746,173 L 747,174 L 748,174 L 749,174 L 750,174 L 751,175 L 751,176 L 752,177 L 753,178 L 754,179 L 755,180 L 756,181 L 759,185 L 762,186 L 763,187 L 765,185 L 769,181 L 770,180 L 771,179 L 772,178 L 774,177 L 776,176 L 777,175 L 778,175 L 778,174 L 779,172 L 780,172 L 780,171 L 781,171 L 782,171 L 783,172 L 783,173 L 783,174 L 784,175 L 785,176 L 786,178 L 787,179 L 788,180 L 789,180 L 790,180 L 790,179 L 791,178 L 791,177 L 792,176 L 793,175 L 793,174 L 794,174 L 794,173 L 795,173 L 796,173 L 797,172 L 797,171 L 796,170 L 795,169 L 795,168 L 795,167 L 796,167 L 797,168 L 798,169 L 799,169 L 800,169 L 800,168 L 801,167 L 802,166 L 802,165 L 802,164 L 803,164 L 804,164 L 805,165 L 805,167 L 806,168 " />
</g>
<g id="196" class="st0 dist-block" inkscape:label="Laikera">
<path d="M 967,12 L 969,12 L 971,12 L 972,12 L 973,12 L 975,12 L 976,12 L 977,12 L 980,13 L 981,14 L 982,15 L 983,16 L 984,17 L 985,16 L 986,15 L 987,15 L 988,16 L 989,17 L 990,17 L 991,16 L 992,15 L 993,15 L 993,14 L 994,14 L 994,15 L 995,16 L 996,16 L 997,16 L 998,15 L 999,16 L 1001,16 L 1002,16 L 1003,15 L 1004,14 L 1005,14 L 1008,15 L 1009,16 L 1011,17 L 1012,17 L 1013,19 L 1014,19 L 1016,20 L 1017,21 L 1018,21 L 1020,22 L 1023,22 L 1025,23 L 1026,23 L 1028,23 L 1030,23 L 1031,23 L 1032,23 L 1034,24 L 1035,25 L 1036,25 L 1037,26 L 1037,27 L 1037,29 L 1037,30 L 1037,31 L 1036,32 L 1036,34 L 1036,35 L 1036,36 L 1036,37 L 1036,38 L 1036,39 L 1036,40 L 1036,41 L 1036,42 L 1036,43 L 1036,44 L 1036,45 L 1036,46 L 1036,47 L 1036,48 L 1036,49 L 1036,50 L 1037,51 L 1037,52 L 1036,54 L 1037,59 L 1037,60 L 1035,61 L 1034,62 L 1032,64 L 1027,69 L 1026,70 L 1025,72 L 1023,73 L 1022,74 L 1021,74 L 1020,74 L 1020,75 L 1018,77 L 1018,78 L 1019,79 L 1019,80 L 1020,83 L 1020,85 L 1021,86 L 1021,87 L 1021,88 L 1021,89 L 1021,90 L 1021,91 L 1021,92 L 1021,93 L 1021,94 L 1021,95 L 1021,96 L 1021,97 L 1020,98 L 1020,99 L 1020,100 L 1019,101 L 1018,101 L 1016,102 L 1015,103 L 1014,105 L 1013,106 L 1011,109 L 1010,111 L 1010,112 L 1011,113 L 1011,114 L 1011,115 L 1010,115 L 1009,117 L 1008,118 L 1008,119 L 1007,122 L 1006,123 L 1006,124 L 1005,124 L 1005,125 L 1004,125 L 1003,125 L 1003,126 L 1003,127 L 1002,128 L 1001,129 L 1001,130 L 1000,130 L 999,131 L 998,133 L 997,135 L 997,136 L 998,137 L 998,138 L 998,139 L 998,141 L 998,142 L 997,143 L 997,144 L 996,146 L 995,147 L 995,148 L 995,149 L 995,150 L 994,151 L 993,152 L 992,154 L 991,157 L 990,159 L 990,160 L 989,162 L 987,164 L 987,166 L 986,167 L 984,169 L 983,170 L 983,172 L 983,173 L 982,174 L 981,175 L 980,176 L 979,176 L 979,177 L 978,178 L 977,181 L 978,183 L 977,184 L 976,184 L 976,185 L 975,186 L 975,187 L 975,188 L 974,189 L 974,190 L 973,193 L 973,194 L 972,195 L 972,197 L 972,198 L 972,199 L 973,200 L 974,201 L 975,202 L 975,203 L 976,205 L 976,206 L 976,207 L 976,208 L 975,210 L 975,211 L 976,212 L 976,213 L 976,214 L 975,214 L 975,215 L 974,216 L 973,216 L 972,217 L 970,220 L 969,221 L 967,221 L 965,222 L 963,224 L 962,225 L 961,226 L 961,227 L 959,227 L 956,227 L 955,227 L 953,227 L 952,227 L 951,227 L 951,226 L 950,225 L 949,222 L 947,221 L 947,220 L 946,219 L 945,218 L 944,218 L 944,217 L 943,217 L 940,215 L 938,215 L 937,214 L 933,213 L 930,213 L 927,212 L 926,212 L 925,211 L 925,210 L 926,209 L 926,208 L 927,207 L 927,206 L 926,206 L 926,204 L 926,203 L 926,202 L 925,202 L 923,202 L 922,201 L 920,201 L 919,201 L 919,200 L 918,199 L 917,198 L 916,197 L 917,196 L 917,195 L 917,194 L 916,194 L 915,194 L 913,194 L 911,194 L 910,194 L 910,193 L 909,191 L 909,190 L 908,191 L 907,191 L 906,192 L 905,191 L 904,191 L 903,190 L 903,191 L 903,192 L 903,193 L 902,194 L 903,195 L 904,197 L 906,197 L 905,197 L 905,198 L 904,199 L 903,199 L 902,199 L 902,200 L 901,200 L 901,201 L 900,201 L 900,202 L 899,203 L 899,204 L 898,204 L 897,205 L 897,206 L 896,206 L 894,207 L 893,207 L 891,207 L 890,208 L 889,208 L 889,209 L 888,209 L 886,209 L 885,209 L 883,210 L 882,210 L 882,211 L 881,212 L 880,214 L 880,215 L 879,216 L 878,216 L 877,217 L 875,218 L 873,218 L 871,219 L 869,219 L 867,219 L 865,219 L 864,219 L 861,219 L 857,219 L 855,219 L 853,219 L 852,219 L 850,218 L 849,217 L 846,217 L 843,217 L 841,217 L 840,216 L 840,215 L 840,214 L 841,213 L 842,211 L 842,210 L 844,209 L 844,208 L 845,207 L 845,206 L 845,205 L 844,204 L 843,203 L 842,203 L 841,202 L 839,202 L 838,202 L 838,201 L 837,201 L 837,200 L 836,199 L 835,198 L 835,196 L 834,195 L 834,193 L 835,192 L 835,191 L 835,189 L 835,188 L 835,187 L 835,185 L 835,183 L 836,183 L 836,182 L 838,182 L 839,182 L 840,183 L 840,184 L 841,184 L 842,185 L 843,186 L 844,186 L 845,186 L 846,185 L 847,185 L 849,184 L 850,183 L 851,183 L 853,183 L 854,184 L 855,184 L 856,184 L 857,184 L 857,183 L 857,181 L 857,180 L 857,178 L 856,176 L 857,174 L 858,173 L 858,171 L 857,171 L 856,171 L 855,170 L 855,169 L 855,168 L 856,166 L 856,165 L 855,164 L 854,163 L 854,161 L 854,159 L 854,158 L 855,156 L 855,155 L 857,154 L 857,153 L 858,153 L 860,153 L 861,153 L 862,151 L 862,150 L 862,149 L 863,148 L 865,147 L 866,146 L 866,144 L 866,143 L 866,142 L 865,141 L 865,140 L 866,138 L 867,137 L 869,137 L 870,136 L 871,136 L 873,137 L 874,138 L 875,139 L 877,139 L 879,139 L 881,139 L 882,138 L 883,136 L 883,135 L 883,133 L 883,132 L 882,132 L 881,132 L 881,131 L 881,130 L 880,129 L 878,123 L 877,122 L 877,121 L 878,121 L 878,120 L 877,119 L 877,118 L 878,118 L 878,117 L 879,117 L 879,116 L 879,114 L 879,113 L 880,112 L 881,110 L 883,109 L 886,108 L 888,106 L 889,105 L 890,104 L 891,102 L 891,101 L 890,100 L 888,100 L 887,99 L 887,98 L 886,97 L 887,96 L 886,96 L 885,96 L 884,97 L 883,97 L 882,97 L 882,96 L 881,96 L 877,95 L 875,95 L 875,94 L 874,94 L 873,94 L 872,93 L 871,92 L 871,91 L 871,90 L 873,88 L 874,85 L 875,84 L 875,82 L 876,81 L 876,80 L 877,79 L 878,77 L 879,76 L 880,74 L 881,74 L 882,73 L 883,73 L 884,73 L 885,73 L 885,74 L 885,75 L 886,75 L 887,75 L 887,74 L 888,74 L 889,73 L 890,73 L 891,72 L 892,72 L 893,72 L 893,71 L 894,71 L 895,70 L 896,70 L 896,69 L 897,69 L 897,68 L 898,68 L 898,67 L 899,67 L 899,66 L 899,65 L 900,65 L 901,65 L 901,64 L 901,63 L 902,62 L 902,61 L 903,60 L 904,60 L 904,59 L 905,58 L 906,57 L 907,56 L 907,55 L 907,54 L 908,54 L 909,53 L 910,53 L 910,52 L 911,51 L 911,50 L 912,50 L 912,49 L 912,48 L 912,47 L 912,46 L 913,46 L 914,43 L 916,41 L 917,41 L 918,40 L 921,40 L 922,40 L 923,39 L 923,37 L 923,34 L 923,33 L 924,32 L 925,32 L 926,32 L 928,32 L 929,32 L 931,32 L 932,32 L 933,32 L 934,32 L 935,32 L 936,32 L 937,32 L 937,31 L 938,31 L 939,31 L 940,31 L 941,30 L 942,30 L 943,29 L 944,29 L 944,28 L 945,27 L 945,26 L 945,25 L 946,25 L 946,24 L 946,23 L 946,22 L 946,21 L 946,20 L 947,19 L 947,18 L 947,17 L 948,17 L 948,16 L 948,15 L 949,15 L 951,15 L 952,15 L 954,15 L 956,15 L 958,13 L 959,13 L 961,12 L 962,12 L 964,11 L 966,12 L 967,12 " />
</g>
<g id="197" class="st0 dist-block" inkscape:label="Lakhanpur">
<path d="M 511,186 L 512,186 L 512,187 L 514,188 L 515,189 L 516,190 L 517,191 L 518,191 L 519,191 L 520,191 L 520,192 L 520,193 L 521,195 L 520,196 L 521,198 L 521,199 L 522,201 L 525,202 L 527,203 L 530,205 L 532,206 L 535,207 L 537,208 L 540,207 L 542,207 L 542,206 L 543,206 L 542,205 L 542,204 L 543,203 L 545,202 L 546,202 L 547,202 L 548,202 L 550,202 L 550,201 L 551,200 L 553,199 L 554,198 L 555,197 L 556,197 L 557,197 L 557,198 L 557,200 L 557,201 L 557,202 L 556,203 L 556,204 L 556,206 L 556,207 L 557,207 L 558,207 L 560,208 L 561,208 L 562,208 L 563,208 L 564,209 L 565,209 L 566,210 L 567,210 L 568,210 L 569,211 L 570,212 L 570,214 L 570,215 L 570,216 L 570,217 L 570,218 L 569,219 L 568,220 L 567,221 L 566,223 L 566,225 L 565,229 L 565,230 L 565,232 L 565,233 L 564,233 L 563,233 L 561,233 L 558,233 L 556,233 L 555,233 L 554,233 L 554,234 L 554,235 L 553,236 L 553,238 L 552,241 L 550,242 L 549,243 L 549,244 L 548,244 L 548,245 L 548,248 L 549,250 L 551,253 L 552,254 L 553,255 L 553,256 L 554,257 L 556,259 L 558,261 L 559,262 L 559,263 L 559,265 L 559,267 L 560,269 L 561,271 L 561,273 L 562,276 L 563,277 L 564,277 L 566,279 L 568,280 L 569,280 L 570,280 L 571,281 L 572,282 L 573,282 L 573,281 L 574,281 L 575,281 L 575,282 L 576,282 L 578,282 L 579,283 L 580,283 L 581,283 L 582,282 L 583,282 L 584,281 L 584,280 L 585,279 L 585,278 L 586,278 L 586,277 L 587,277 L 588,277 L 589,277 L 590,278 L 592,280 L 593,280 L 593,281 L 596,282 L 599,284 L 601,285 L 602,286 L 604,288 L 605,292 L 606,294 L 606,295 L 607,297 L 607,298 L 606,301 L 606,302 L 606,306 L 606,309 L 607,313 L 607,317 L 608,320 L 608,321 L 608,322 L 609,322 L 610,324 L 612,327 L 613,328 L 615,329 L 619,331 L 623,334 L 627,335 L 628,335 L 629,336 L 630,336 L 630,337 L 631,338 L 632,339 L 632,340 L 633,341 L 633,343 L 633,344 L 633,346 L 633,348 L 632,351 L 632,352 L 632,356 L 631,359 L 631,360 L 632,363 L 633,366 L 633,368 L 634,370 L 634,372 L 634,374 L 635,376 L 636,378 L 636,381 L 637,383 L 637,386 L 637,388 L 637,393 L 637,396 L 637,399 L 638,404 L 638,405 L 638,408 L 639,411 L 639,414 L 640,416 L 640,417 L 640,418 L 640,419 L 640,420 L 639,422 L 639,424 L 639,426 L 640,430 L 640,432 L 641,434 L 641,438 L 641,442 L 641,447 L 641,451 L 641,453 L 641,455 L 641,456 L 641,459 L 641,460 L 641,461 L 641,463 L 641,464 L 640,465 L 640,467 L 640,469 L 639,470 L 639,471 L 639,472 L 638,474 L 638,475 L 637,476 L 636,477 L 635,477 L 635,478 L 634,478 L 633,478 L 632,478 L 631,478 L 630,478 L 629,478 L 628,478 L 627,478 L 626,477 L 625,477 L 624,477 L 622,476 L 622,475 L 621,475 L 621,474 L 619,473 L 618,472 L 617,472 L 616,471 L 615,471 L 614,471 L 613,471 L 612,470 L 611,470 L 610,470 L 609,470 L 608,470 L 606,470 L 605,470 L 603,470 L 602,471 L 600,470 L 599,470 L 598,470 L 596,470 L 595,470 L 591,470 L 590,470 L 589,470 L 588,470 L 587,470 L 586,470 L 585,470 L 584,470 L 583,470 L 582,471 L 581,471 L 580,471 L 579,472 L 578,472 L 577,472 L 576,473 L 574,473 L 572,474 L 571,474 L 569,474 L 567,474 L 564,475 L 563,475 L 561,475 L 561,474 L 559,474 L 558,474 L 556,474 L 553,474 L 551,473 L 550,473 L 548,473 L 546,473 L 545,473 L 541,472 L 540,472 L 538,471 L 536,470 L 534,469 L 533,469 L 532,468 L 531,467 L 529,467 L 527,466 L 527,465 L 526,465 L 525,465 L 525,464 L 523,464 L 522,463 L 521,463 L 520,462 L 518,463 L 517,463 L 516,463 L 514,463 L 513,462 L 512,462 L 512,461 L 511,461 L 510,460 L 509,460 L 508,459 L 506,458 L 505,457 L 504,457 L 503,457 L 501,456 L 498,456 L 498,455 L 495,455 L 493,454 L 491,453 L 490,453 L 488,452 L 486,451 L 485,451 L 484,451 L 482,452 L 481,452 L 481,453 L 480,454 L 480,455 L 479,456 L 479,457 L 479,458 L 478,459 L 478,460 L 478,462 L 478,463 L 478,464 L 478,465 L 477,466 L 477,467 L 476,468 L 476,470 L 474,474 L 472,480 L 470,484 L 470,483 L 468,483 L 468,482 L 467,482 L 466,480 L 465,479 L 464,479 L 464,478 L 463,477 L 462,477 L 462,476 L 461,476 L 461,475 L 460,474 L 459,473 L 458,472 L 457,471 L 456,470 L 455,469 L 454,468 L 453,468 L 453,467 L 452,466 L 451,465 L 450,464 L 449,464 L 449,463 L 448,462 L 448,461 L 447,460 L 447,459 L 447,458 L 446,458 L 446,457 L 446,456 L 445,455 L 444,454 L 444,453 L 443,452 L 442,452 L 442,451 L 441,451 L 441,450 L 440,449 L 439,449 L 439,448 L 438,447 L 437,447 L 436,447 L 436,446 L 435,446 L 434,446 L 433,445 L 432,444 L 431,444 L 430,443 L 428,442 L 427,441 L 426,441 L 426,440 L 425,440 L 424,439 L 424,438 L 424,437 L 423,436 L 423,435 L 423,434 L 422,434 L 421,434 L 420,433 L 419,432 L 419,431 L 418,430 L 417,429 L 417,428 L 417,427 L 416,426 L 415,426 L 415,425 L 414,425 L 413,424 L 412,424 L 411,423 L 410,423 L 410,422 L 409,422 L 409,421 L 408,420 L 407,420 L 407,419 L 406,419 L 406,418 L 405,418 L 405,417 L 405,416 L 404,416 L 404,415 L 403,414 L 403,412 L 402,410 L 400,407 L 400,405 L 399,402 L 398,400 L 398,399 L 398,398 L 397,397 L 397,396 L 396,395 L 395,394 L 394,393 L 393,392 L 393,391 L 392,390 L 392,389 L 391,387 L 390,385 L 389,383 L 389,381 L 389,380 L 388,379 L 387,377 L 387,376 L 386,374 L 386,373 L 385,370 L 385,369 L 385,368 L 384,367 L 384,366 L 383,363 L 383,361 L 382,358 L 381,357 L 381,356 L 380,354 L 379,352 L 378,349 L 377,346 L 375,344 L 373,343 L 372,341 L 369,339 L 367,338 L 364,336 L 361,334 L 358,333 L 356,332 L 354,332 L 353,332 L 351,333 L 349,332 L 347,332 L 346,332 L 345,331 L 344,330 L 343,329 L 341,327 L 341,326 L 340,326 L 339,325 L 338,324 L 337,323 L 336,322 L 335,321 L 334,321 L 333,320 L 331,319 L 330,319 L 327,318 L 325,317 L 322,316 L 320,315 L 317,315 L 314,315 L 311,314 L 309,313 L 305,312 L 303,312 L 301,312 L 298,311 L 294,311 L 291,311 L 289,310 L 287,310 L 286,308 L 285,307 L 283,307 L 282,306 L 280,304 L 278,303 L 276,303 L 273,302 L 272,302 L 270,302 L 268,302 L 266,302 L 265,301 L 264,301 L 262,300 L 260,300 L 259,299 L 257,298 L 255,297 L 254,296 L 253,296 L 252,296 L 251,296 L 250,296 L 249,296 L 248,296 L 247,296 L 246,296 L 246,297 L 243,298 L 242,299 L 241,299 L 241,300 L 240,300 L 239,302 L 237,304 L 236,305 L 235,306 L 235,307 L 233,309 L 233,310 L 232,312 L 231,313 L 231,314 L 230,315 L 230,316 L 229,316 L 228,318 L 228,319 L 228,320 L 227,321 L 227,322 L 227,323 L 227,324 L 227,325 L 226,327 L 226,328 L 226,329 L 226,330 L 226,331 L 226,332 L 225,333 L 225,334 L 225,335 L 225,336 L 224,337 L 224,340 L 223,342 L 223,343 L 222,346 L 222,348 L 222,349 L 221,351 L 221,352 L 221,353 L 220,354 L 220,355 L 219,356 L 219,357 L 218,358 L 218,359 L 217,360 L 216,361 L 216,362 L 215,363 L 214,365 L 213,366 L 212,367 L 211,368 L 210,369 L 209,371 L 208,371 L 208,372 L 207,373 L 206,374 L 205,375 L 204,376 L 203,376 L 202,377 L 202,378 L 201,378 L 199,380 L 198,381 L 195,383 L 194,384 L 192,386 L 191,387 L 189,389 L 188,389 L 187,390 L 186,391 L 184,393 L 182,394 L 180,395 L 178,395 L 177,396 L 176,396 L 175,396 L 174,395 L 172,395 L 171,394 L 170,394 L 168,394 L 167,393 L 165,393 L 164,392 L 162,392 L 161,391 L 160,391 L 159,390 L 157,390 L 156,389 L 155,388 L 154,387 L 153,387 L 151,386 L 150,385 L 149,385 L 148,385 L 147,384 L 146,384 L 145,384 L 144,383 L 142,383 L 141,382 L 140,382 L 139,381 L 138,380 L 136,379 L 134,378 L 133,376 L 132,375 L 131,372 L 130,371 L 129,370 L 128,369 L 128,368 L 127,367 L 126,366 L 126,365 L 124,364 L 123,363 L 122,363 L 121,362 L 121,361 L 119,361 L 119,360 L 118,360 L 117,359 L 116,359 L 115,358 L 114,358 L 113,358 L 113,357 L 113,356 L 114,355 L 114,354 L 115,353 L 115,352 L 115,351 L 116,351 L 117,351 L 117,350 L 117,349 L 118,348 L 118,347 L 119,346 L 119,345 L 120,344 L 121,344 L 122,344 L 123,343 L 123,342 L 124,341 L 124,340 L 125,339 L 125,338 L 126,338 L 127,338 L 129,338 L 130,338 L 131,339 L 133,339 L 134,339 L 135,340 L 136,340 L 136,341 L 137,341 L 138,341 L 139,341 L 140,342 L 141,342 L 142,342 L 143,343 L 144,343 L 145,343 L 146,342 L 147,342 L 149,341 L 150,341 L 150,340 L 151,340 L 151,339 L 151,338 L 151,337 L 152,336 L 152,335 L 152,334 L 152,333 L 153,332 L 153,331 L 153,330 L 153,329 L 154,329 L 154,328 L 155,328 L 155,327 L 157,326 L 157,325 L 158,325 L 159,324 L 159,323 L 160,323 L 161,323 L 161,322 L 162,322 L 162,321 L 163,321 L 163,320 L 164,319 L 165,318 L 165,317 L 165,316 L 166,316 L 166,315 L 166,314 L 167,313 L 168,312 L 168,311 L 169,311 L 169,310 L 169,309 L 170,308 L 171,308 L 172,308 L 173,307 L 172,306 L 172,305 L 172,304 L 173,303 L 173,302 L 174,300 L 175,298 L 176,296 L 176,295 L 177,294 L 178,294 L 179,294 L 179,293 L 180,293 L 181,293 L 181,292 L 180,292 L 180,291 L 180,290 L 179,290 L 178,289 L 177,289 L 176,289 L 176,288 L 175,288 L 174,288 L 173,288 L 172,287 L 171,287 L 170,287 L 169,286 L 169,285 L 169,284 L 170,282 L 170,281 L 172,278 L 173,276 L 174,275 L 175,274 L 175,273 L 174,272 L 174,271 L 173,269 L 172,268 L 172,266 L 171,263 L 171,260 L 170,258 L 169,257 L 168,255 L 167,254 L 164,251 L 163,250 L 164,250 L 165,250 L 166,249 L 166,248 L 167,248 L 168,248 L 168,247 L 169,247 L 170,247 L 171,247 L 172,246 L 173,246 L 174,246 L 175,245 L 176,245 L 177,244 L 177,243 L 178,242 L 179,241 L 180,240 L 180,238 L 180,236 L 180,235 L 180,234 L 180,233 L 180,232 L 181,231 L 181,230 L 182,229 L 183,229 L 185,228 L 186,227 L 186,225 L 187,224 L 187,223 L 187,222 L 186,221 L 185,220 L 186,220 L 187,220 L 189,222 L 190,224 L 192,225 L 193,226 L 194,227 L 195,228 L 196,229 L 197,230 L 198,231 L 199,231 L 200,231 L 201,232 L 203,233 L 204,234 L 205,234 L 206,234 L 207,235 L 208,236 L 209,236 L 210,237 L 211,237 L 212,238 L 213,239 L 214,239 L 215,240 L 216,240 L 217,240 L 218,240 L 219,239 L 220,239 L 220,240 L 222,240 L 224,240 L 226,240 L 227,240 L 228,240 L 230,240 L 231,240 L 232,239 L 231,238 L 231,237 L 231,236 L 232,236 L 232,235 L 232,234 L 232,233 L 232,232 L 231,232 L 231,231 L 230,231 L 230,230 L 229,229 L 229,228 L 228,227 L 228,226 L 228,225 L 228,224 L 228,223 L 229,222 L 229,221 L 230,220 L 230,218 L 230,217 L 230,216 L 229,216 L 228,215 L 227,214 L 226,214 L 225,213 L 224,213 L 223,213 L 222,212 L 222,211 L 222,210 L 222,209 L 222,208 L 223,207 L 224,206 L 225,205 L 227,204 L 229,203 L 230,202 L 231,201 L 232,200 L 233,200 L 235,200 L 236,200 L 237,200 L 238,199 L 239,199 L 239,198 L 240,198 L 241,198 L 242,198 L 243,198 L 244,198 L 245,199 L 246,199 L 248,200 L 249,200 L 250,201 L 252,201 L 253,201 L 253,202 L 254,202 L 254,203 L 255,204 L 256,205 L 257,206 L 258,206 L 259,206 L 260,206 L 260,207 L 261,207 L 262,207 L 262,208 L 263,208 L 264,208 L 265,208 L 266,208 L 267,207 L 268,208 L 268,209 L 268,210 L 270,210 L 270,211 L 271,211 L 272,211 L 273,212 L 274,213 L 275,213 L 276,213 L 278,214 L 279,213 L 279,212 L 280,212 L 281,211 L 283,210 L 283,209 L 283,208 L 284,208 L 284,207 L 285,207 L 286,207 L 287,208 L 288,208 L 289,208 L 290,207 L 290,206 L 291,206 L 292,206 L 293,207 L 294,207 L 295,207 L 295,206 L 295,205 L 296,204 L 296,203 L 297,202 L 297,201 L 297,200 L 297,199 L 296,198 L 296,197 L 296,196 L 296,195 L 296,194 L 299,193 L 301,193 L 303,193 L 304,193 L 305,193 L 306,193 L 307,192 L 308,192 L 310,191 L 311,192 L 312,192 L 313,193 L 313,194 L 314,194 L 314,195 L 313,197 L 313,198 L 313,199 L 313,200 L 313,201 L 313,202 L 314,203 L 314,204 L 315,205 L 315,206 L 315,207 L 316,208 L 317,210 L 317,211 L 318,212 L 319,213 L 320,214 L 321,216 L 321,217 L 322,219 L 322,220 L 322,221 L 322,222 L 324,222 L 325,223 L 327,224 L 328,225 L 330,225 L 331,226 L 332,226 L 334,227 L 336,228 L 337,229 L 339,229 L 341,230 L 342,230 L 343,231 L 346,232 L 347,232 L 348,232 L 350,233 L 351,233 L 352,233 L 353,233 L 354,233 L 355,233 L 356,233 L 357,233 L 358,234 L 359,235 L 360,235 L 361,236 L 362,236 L 363,237 L 365,238 L 366,239 L 367,239 L 368,240 L 369,240 L 369,241 L 369,243 L 369,244 L 369,245 L 369,246 L 370,248 L 370,249 L 370,250 L 370,252 L 371,252 L 372,252 L 373,252 L 374,252 L 375,252 L 376,252 L 377,252 L 379,252 L 380,252 L 381,252 L 382,252 L 382,251 L 383,251 L 383,252 L 384,252 L 384,253 L 385,253 L 386,253 L 387,253 L 388,253 L 389,253 L 390,253 L 391,253 L 392,254 L 393,255 L 394,256 L 396,256 L 398,256 L 399,257 L 400,257 L 401,256 L 401,255 L 401,254 L 401,253 L 401,252 L 403,252 L 404,252 L 405,251 L 406,251 L 406,250 L 407,249 L 408,249 L 409,249 L 408,248 L 408,247 L 408,246 L 408,245 L 408,244 L 408,242 L 408,241 L 408,240 L 409,239 L 411,236 L 412,234 L 413,233 L 414,231 L 416,228 L 418,226 L 419,225 L 420,224 L 422,222 L 423,221 L 424,220 L 427,217 L 428,216 L 431,213 L 433,211 L 434,210 L 434,209 L 436,208 L 437,207 L 438,206 L 440,206 L 441,205 L 443,205 L 445,204 L 446,204 L 447,202 L 449,200 L 450,198 L 451,197 L 452,196 L 452,195 L 453,194 L 454,193 L 455,192 L 455,191 L 456,191 L 457,190 L 457,189 L 458,189 L 458,188 L 459,188 L 459,187 L 460,187 L 461,186 L 462,186 L 462,185 L 463,185 L 464,184 L 465,184 L 465,183 L 466,183 L 466,182 L 467,182 L 467,181 L 468,181 L 468,180 L 468,179 L 469,179 L 469,178 L 470,178 L 471,177 L 472,177 L 472,176 L 473,176 L 473,175 L 474,175 L 474,174 L 475,174 L 476,174 L 477,174 L 477,175 L 477,176 L 477,177 L 478,177 L 478,178 L 479,178 L 479,179 L 480,180 L 481,181 L 482,182 L 482,183 L 483,183 L 483,184 L 483,185 L 484,186 L 485,187 L 486,188 L 488,188 L 488,189 L 489,189 L 489,188 L 489,187 L 489,186 L 488,186 L 487,186 L 486,186 L 486,185 L 486,184 L 486,183 L 487,182 L 487,181 L 487,180 L 488,180 L 487,179 L 488,179 L 488,178 L 488,177 L 489,177 L 489,176 L 489,175 L 489,174 L 489,173 L 489,172 L 489,171 L 490,170 L 489,170 L 490,170 L 490,169 L 490,168 L 490,167 L 491,167 L 492,167 L 494,169 L 495,169 L 496,170 L 497,171 L 498,171 L 499,172 L 500,172 L 503,174 L 505,176 L 506,178 L 507,179 L 508,179 L 509,180 L 509,181 L 510,181 L 511,181 L 511,182 L 511,184 L 511,185 L 511,186 " />
</g>
</g>
</g>
<g id="block_labels" inkscape:groupmode="layer" inkscape:label="block_labels">
<g stroke="none" fill="rgb(0,0,0)">
<text id="block_labels_1" x="637" y="194" class="st4" inkscape:label="Jharsuguda_lbl">Jharsuguda</text>
<text id="block_labels_2" x="806" y="114" class="st4" inkscape:label="Kirimira_lbl">Kirimira</text>
<text id="block_labels_3" x="841" y="245" class="st4" inkscape:label="Kolabira_lbl">Kolabira</text>
<text id="block_labels_4" x="942" y="118" class="st4" inkscape:label="Laikera_lbl">Laikera</text>
<text id="block_labels_5" x="428" y="324" class="st4" inkscape:label="Lakhanpur_lbl">Lakhanpur</text>
</g>
</g>
<!-- QGIS extent for clipping, eg in Inkscape -->
</svg>