<?xml version="1.0" standalone="no"?>
<!DOCTYPE svg PUBLIC "-//W3C//DTD SVG 1.1//EN" "http://www.w3.org/Graphics/SVG/1.1/DTD/svg11.dtd">
<svg xmlns="http://www.w3.org/2000/svg" xmlns:inkscape="http://www.inkscape.org/namespaces/inkscape" xmlns:xlink="http://www.w3.org/1999/xlink" viewBox = "300 0 550 550" version = "1.1">
	<style type="text/css">
   .st0, .st1, .st2
    {
        stroke: #d0d0d0;
        stroke-miterlimit: 7;
		fill:#fff;
		cursor:pointer;
    }
    .st4
    {
        font-size: 7.0514px;
		fill:#000;
    }
    .st0:hover, .st1:hover, .st2:hover{fill:#32C787;}
</style>
<!-- svg generated using QGIS www.qgis.org -->
<g id="block" inkscape:groupmode="layer" inkscape:label="block">
<g stroke="rgb(0,0,0)" fill="#fff" stroke-linejoin="round" stroke-width="0.56">
<g id="20" class="st0 dist-block" inkscape:label="Baliguda">
<path d="M 455,118 L 456,118 L 456,119 L 457,119 L 457,120 L 458,120 L 459,120 L 460,120 L 461,120 L 461,119 L 461,118 L 462,118 L 463,118 L 464,118 L 464,119 L 465,119 L 466,119 L 466,120 L 467,120 L 467,121 L 468,121 L 468,122 L 468,123 L 469,123 L 469,124 L 470,124 L 471,124 L 472,125 L 473,125 L 473,126 L 474,126 L 476,128 L 477,128 L 477,129 L 478,129 L 479,129 L 480,129 L 481,130 L 482,131 L 483,131 L 484,131 L 485,131 L 486,131 L 487,131 L 488,131 L 489,132 L 491,132 L 491,133 L 491,134 L 491,135 L 492,135 L 493,135 L 493,136 L 493,137 L 493,138 L 493,139 L 494,139 L 494,140 L 493,140 L 493,141 L 492,141 L 492,142 L 491,143 L 491,144 L 491,145 L 492,146 L 492,147 L 491,147 L 490,147 L 489,146 L 488,147 L 487,147 L 487,148 L 486,148 L 486,149 L 487,149 L 487,150 L 488,151 L 488,152 L 489,152 L 490,153 L 491,153 L 491,154 L 492,154 L 492,155 L 492,156 L 492,157 L 491,157 L 491,158 L 490,158 L 489,158 L 489,159 L 489,160 L 490,160 L 491,161 L 492,161 L 493,161 L 493,160 L 494,160 L 494,159 L 495,158 L 496,159 L 497,159 L 497,158 L 498,158 L 498,157 L 499,157 L 500,156 L 501,156 L 502,157 L 502,158 L 503,159 L 503,160 L 503,161 L 502,162 L 502,163 L 502,164 L 502,165 L 503,166 L 504,166 L 505,166 L 505,165 L 506,165 L 507,165 L 508,165 L 509,165 L 509,164 L 510,164 L 511,164 L 511,163 L 512,163 L 513,164 L 514,164 L 515,165 L 516,165 L 517,166 L 518,166 L 519,165 L 520,165 L 521,165 L 522,165 L 523,166 L 524,166 L 525,167 L 525,168 L 526,168 L 527,169 L 528,170 L 529,170 L 531,169 L 532,169 L 533,169 L 534,168 L 535,168 L 535,169 L 536,169 L 537,170 L 538,170 L 538,171 L 539,171 L 540,172 L 542,173 L 543,174 L 544,174 L 545,175 L 546,175 L 547,175 L 548,175 L 550,175 L 551,175 L 552,176 L 553,176 L 554,177 L 555,178 L 556,178 L 557,179 L 558,179 L 559,179 L 560,179 L 561,180 L 563,180 L 564,180 L 565,180 L 565,181 L 565,182 L 566,182 L 567,182 L 568,182 L 569,181 L 570,181 L 571,181 L 571,182 L 571,183 L 570,184 L 569,185 L 568,185 L 567,185 L 566,185 L 565,185 L 565,186 L 566,186 L 566,187 L 567,188 L 568,188 L 569,188 L 569,189 L 569,190 L 569,191 L 568,192 L 567,192 L 567,193 L 566,193 L 566,194 L 565,194 L 565,195 L 564,196 L 563,196 L 562,197 L 561,197 L 561,198 L 561,199 L 560,199 L 560,200 L 559,200 L 558,200 L 558,201 L 558,200 L 557,200 L 557,201 L 556,201 L 556,202 L 556,203 L 555,203 L 554,204 L 553,205 L 552,206 L 551,206 L 550,205 L 551,204 L 550,204 L 549,204 L 549,205 L 548,205 L 547,205 L 546,205 L 546,204 L 545,205 L 544,205 L 543,205 L 543,206 L 542,206 L 541,206 L 541,205 L 540,206 L 539,206 L 538,206 L 538,207 L 538,208 L 539,209 L 540,209 L 541,209 L 541,210 L 542,210 L 542,211 L 542,212 L 541,212 L 540,212 L 539,213 L 538,214 L 537,215 L 537,214 L 536,213 L 535,212 L 534,212 L 534,213 L 533,213 L 534,214 L 534,215 L 534,216 L 534,217 L 535,218 L 536,219 L 537,220 L 537,221 L 536,222 L 536,223 L 535,224 L 535,225 L 534,225 L 534,226 L 533,227 L 532,228 L 531,228 L 530,227 L 529,227 L 528,227 L 528,228 L 527,229 L 526,229 L 525,230 L 524,230 L 524,231 L 523,231 L 523,230 L 522,230 L 522,231 L 522,232 L 521,233 L 521,234 L 521,235 L 521,236 L 520,237 L 519,238 L 519,239 L 519,240 L 519,241 L 519,243 L 519,244 L 520,245 L 520,246 L 520,247 L 520,248 L 520,249 L 519,250 L 519,251 L 519,252 L 518,252 L 518,253 L 517,253 L 517,254 L 517,255 L 517,256 L 516,257 L 516,258 L 516,259 L 517,259 L 518,259 L 519,259 L 520,259 L 520,260 L 521,260 L 523,260 L 525,261 L 526,261 L 527,261 L 528,261 L 529,260 L 530,260 L 531,260 L 531,261 L 531,262 L 531,263 L 531,264 L 531,265 L 530,265 L 530,266 L 529,267 L 529,268 L 528,268 L 527,268 L 526,269 L 525,269 L 526,270 L 527,271 L 529,270 L 530,270 L 531,270 L 531,271 L 531,272 L 529,273 L 529,274 L 530,275 L 530,276 L 530,277 L 530,278 L 529,279 L 529,280 L 528,281 L 528,282 L 528,283 L 528,284 L 528,285 L 527,287 L 526,288 L 525,288 L 525,289 L 524,290 L 523,290 L 522,290 L 521,290 L 520,290 L 519,289 L 519,288 L 519,287 L 519,286 L 518,285 L 517,284 L 516,284 L 515,285 L 514,284 L 513,284 L 512,284 L 511,285 L 510,285 L 509,285 L 508,285 L 507,285 L 506,285 L 505,284 L 504,284 L 504,283 L 503,283 L 502,283 L 501,283 L 501,284 L 500,284 L 500,285 L 499,286 L 499,287 L 498,287 L 497,286 L 497,287 L 496,287 L 495,287 L 494,287 L 494,288 L 493,289 L 492,289 L 491,289 L 491,288 L 490,287 L 489,287 L 488,287 L 487,288 L 486,288 L 485,289 L 484,289 L 483,290 L 482,290 L 481,290 L 480,291 L 479,291 L 478,291 L 478,290 L 477,290 L 476,290 L 476,289 L 475,289 L 475,288 L 474,288 L 473,287 L 472,286 L 472,285 L 471,285 L 471,284 L 471,283 L 470,283 L 470,282 L 470,281 L 469,281 L 469,280 L 468,280 L 468,281 L 467,281 L 467,280 L 466,279 L 466,278 L 465,277 L 465,276 L 464,276 L 464,275 L 464,274 L 464,273 L 464,272 L 465,271 L 465,270 L 466,270 L 466,269 L 467,269 L 467,268 L 467,267 L 468,267 L 469,267 L 469,266 L 469,265 L 468,265 L 467,265 L 467,266 L 466,266 L 465,266 L 464,266 L 464,265 L 464,264 L 464,263 L 464,262 L 465,262 L 465,261 L 465,260 L 465,259 L 465,258 L 466,258 L 466,257 L 465,257 L 464,257 L 464,258 L 463,258 L 462,258 L 461,258 L 460,258 L 459,257 L 459,256 L 458,256 L 458,257 L 457,257 L 456,257 L 456,256 L 455,256 L 455,257 L 455,256 L 454,256 L 454,255 L 454,254 L 454,253 L 455,253 L 455,252 L 455,251 L 455,250 L 456,249 L 457,249 L 456,249 L 456,248 L 455,248 L 455,247 L 454,247 L 454,248 L 453,248 L 452,248 L 451,248 L 450,249 L 450,250 L 449,250 L 449,251 L 449,252 L 448,252 L 448,251 L 447,251 L 446,251 L 446,252 L 446,251 L 446,250 L 447,250 L 447,249 L 449,249 L 449,247 L 449,246 L 448,246 L 447,246 L 446,246 L 446,245 L 446,244 L 446,243 L 447,242 L 448,242 L 448,243 L 449,243 L 450,244 L 450,245 L 450,244 L 451,244 L 451,243 L 451,242 L 452,242 L 452,241 L 452,240 L 451,239 L 451,238 L 451,237 L 452,237 L 452,236 L 453,236 L 453,235 L 454,235 L 455,235 L 456,235 L 457,235 L 458,234 L 458,233 L 459,232 L 460,231 L 461,231 L 461,230 L 462,230 L 463,230 L 464,230 L 464,229 L 465,229 L 466,229 L 467,229 L 468,230 L 469,230 L 469,231 L 470,231 L 470,230 L 470,229 L 470,228 L 471,228 L 471,227 L 471,226 L 471,225 L 472,225 L 473,225 L 473,224 L 474,224 L 475,224 L 475,223 L 476,223 L 476,222 L 476,221 L 476,220 L 476,219 L 476,218 L 476,217 L 476,216 L 476,215 L 476,214 L 475,213 L 475,212 L 475,211 L 474,211 L 474,210 L 474,209 L 474,208 L 473,209 L 472,209 L 472,210 L 471,211 L 470,211 L 469,211 L 468,211 L 467,211 L 466,210 L 465,210 L 464,210 L 463,210 L 462,210 L 461,210 L 460,209 L 460,210 L 459,210 L 458,210 L 457,210 L 456,210 L 455,210 L 455,209 L 454,210 L 453,210 L 453,209 L 454,209 L 454,208 L 455,207 L 456,206 L 456,205 L 457,204 L 456,204 L 456,203 L 455,203 L 454,203 L 453,202 L 453,201 L 452,201 L 452,200 L 451,200 L 450,199 L 449,198 L 449,197 L 450,197 L 451,196 L 451,195 L 450,194 L 450,193 L 450,192 L 450,191 L 449,191 L 448,191 L 448,190 L 448,189 L 448,188 L 448,187 L 448,186 L 448,185 L 448,184 L 448,183 L 449,183 L 449,182 L 448,182 L 448,181 L 448,180 L 448,179 L 448,178 L 448,177 L 448,176 L 448,175 L 448,174 L 448,173 L 447,172 L 447,171 L 447,170 L 447,169 L 446,169 L 446,168 L 445,167 L 445,166 L 446,166 L 446,165 L 446,164 L 446,163 L 446,162 L 446,161 L 446,160 L 445,160 L 445,159 L 445,158 L 445,157 L 445,156 L 444,155 L 443,154 L 443,153 L 443,152 L 443,151 L 443,150 L 442,150 L 442,149 L 442,148 L 443,148 L 443,147 L 443,146 L 443,145 L 443,144 L 444,144 L 444,143 L 444,142 L 443,142 L 443,141 L 442,141 L 442,140 L 441,140 L 440,140 L 439,140 L 439,141 L 438,141 L 438,140 L 437,140 L 437,139 L 436,139 L 435,139 L 434,139 L 434,138 L 433,138 L 432,138 L 431,137 L 430,137 L 429,137 L 428,137 L 427,137 L 426,136 L 425,136 L 424,135 L 423,135 L 423,134 L 422,134 L 422,133 L 423,132 L 424,132 L 424,131 L 425,131 L 425,130 L 425,131 L 426,130 L 425,130 L 425,129 L 426,129 L 426,128 L 427,128 L 427,127 L 427,126 L 426,126 L 426,125 L 427,125 L 427,124 L 426,124 L 426,123 L 426,122 L 427,122 L 427,123 L 427,122 L 427,121 L 428,121 L 429,121 L 429,120 L 429,119 L 430,118 L 431,118 L 432,117 L 432,116 L 433,116 L 434,117 L 435,118 L 435,119 L 435,120 L 435,121 L 436,121 L 436,122 L 437,123 L 438,123 L 439,123 L 440,122 L 441,122 L 442,121 L 442,120 L 443,120 L 444,119 L 445,119 L 445,118 L 446,118 L 446,117 L 447,117 L 448,117 L 448,116 L 449,116 L 449,115 L 450,114 L 451,114 L 451,115 L 452,115 L 453,115 L 453,116 L 453,117 L 453,118 L 454,118 L 455,118 " />
</g>
<g id="75" class="st0 dist-block" inkscape:label="Chakapad">
<path d="M 690,196 L 691,196 L 692,196 L 693,195 L 693,196 L 693,197 L 693,198 L 693,199 L 693,200 L 694,201 L 695,201 L 696,202 L 697,202 L 698,202 L 698,203 L 698,204 L 698,205 L 699,206 L 699,207 L 699,208 L 699,209 L 700,209 L 700,210 L 700,211 L 699,212 L 698,212 L 697,212 L 697,211 L 696,211 L 695,211 L 695,210 L 695,209 L 695,208 L 694,208 L 694,207 L 695,207 L 694,207 L 694,206 L 693,206 L 692,206 L 691,206 L 690,206 L 689,206 L 688,206 L 687,206 L 686,206 L 686,207 L 686,208 L 685,209 L 685,210 L 685,211 L 685,212 L 684,211 L 683,211 L 682,211 L 682,210 L 682,209 L 681,207 L 681,206 L 681,205 L 681,204 L 681,203 L 682,202 L 682,201 L 682,200 L 682,199 L 683,198 L 684,198 L 685,197 L 685,196 L 686,195 L 686,194 L 686,193 L 687,192 L 688,193 L 688,194 L 688,195 L 689,195 L 690,195 L 690,196 " />
<path d="M 717,150 L 718,151 L 719,152 L 720,152 L 720,153 L 721,153 L 721,154 L 721,155 L 721,156 L 722,156 L 722,157 L 723,157 L 724,158 L 724,159 L 725,159 L 725,160 L 726,160 L 726,161 L 727,161 L 728,161 L 728,160 L 729,160 L 730,160 L 731,160 L 732,159 L 733,159 L 733,158 L 734,157 L 736,157 L 737,157 L 738,156 L 738,155 L 739,154 L 739,153 L 740,153 L 741,153 L 742,153 L 743,154 L 744,154 L 744,155 L 744,156 L 745,156 L 746,155 L 746,154 L 746,153 L 747,152 L 747,151 L 748,151 L 749,150 L 750,150 L 752,149 L 753,149 L 754,148 L 754,147 L 754,146 L 754,145 L 755,144 L 755,143 L 755,141 L 755,140 L 754,139 L 755,139 L 755,138 L 756,138 L 756,137 L 757,137 L 757,136 L 758,137 L 759,137 L 759,136 L 760,136 L 761,137 L 762,137 L 763,137 L 764,137 L 764,136 L 764,137 L 765,138 L 765,139 L 764,139 L 764,140 L 765,141 L 765,142 L 766,142 L 766,143 L 767,143 L 768,143 L 767,143 L 767,144 L 767,145 L 767,146 L 767,147 L 767,148 L 766,148 L 765,149 L 763,150 L 762,151 L 761,151 L 760,152 L 759,152 L 758,152 L 758,153 L 757,155 L 756,155 L 755,155 L 754,156 L 754,157 L 754,158 L 754,160 L 754,161 L 755,161 L 756,162 L 757,162 L 758,163 L 759,163 L 760,163 L 761,163 L 762,163 L 763,162 L 763,161 L 764,161 L 764,162 L 764,163 L 764,164 L 763,165 L 763,166 L 764,166 L 764,167 L 765,167 L 765,168 L 765,169 L 766,169 L 766,168 L 767,167 L 768,166 L 769,166 L 769,167 L 770,167 L 771,167 L 772,167 L 773,167 L 774,167 L 775,167 L 776,167 L 777,167 L 777,169 L 777,171 L 778,173 L 778,175 L 779,176 L 779,177 L 779,178 L 779,179 L 779,180 L 779,181 L 780,181 L 780,182 L 780,183 L 780,184 L 779,184 L 779,185 L 778,185 L 778,186 L 777,186 L 777,187 L 777,188 L 777,189 L 777,190 L 777,192 L 778,193 L 778,194 L 776,196 L 776,197 L 777,200 L 777,201 L 777,203 L 778,203 L 778,205 L 779,206 L 780,207 L 781,208 L 782,208 L 782,209 L 783,210 L 784,211 L 785,213 L 786,214 L 787,215 L 788,216 L 789,218 L 790,220 L 792,224 L 792,225 L 793,226 L 793,227 L 793,228 L 793,229 L 793,230 L 793,231 L 792,232 L 791,232 L 790,232 L 790,233 L 789,233 L 788,234 L 787,234 L 787,235 L 786,235 L 785,235 L 785,236 L 784,236 L 783,236 L 782,237 L 781,237 L 782,238 L 782,239 L 783,239 L 783,240 L 783,241 L 784,241 L 784,242 L 784,243 L 783,244 L 783,245 L 782,245 L 782,244 L 781,244 L 780,244 L 779,244 L 777,244 L 776,244 L 775,244 L 774,244 L 773,244 L 772,243 L 771,243 L 770,243 L 769,243 L 769,242 L 768,242 L 768,241 L 768,240 L 768,239 L 767,239 L 766,239 L 765,239 L 764,239 L 764,240 L 763,240 L 763,241 L 762,241 L 762,242 L 762,243 L 762,244 L 762,245 L 762,246 L 762,245 L 761,245 L 760,245 L 759,244 L 758,244 L 757,243 L 756,243 L 755,243 L 754,243 L 753,244 L 753,243 L 752,243 L 751,242 L 750,241 L 749,241 L 749,240 L 748,240 L 748,239 L 747,239 L 746,238 L 746,237 L 745,237 L 744,236 L 743,235 L 742,234 L 741,234 L 741,233 L 740,233 L 740,232 L 740,231 L 740,230 L 740,229 L 740,228 L 740,227 L 740,226 L 741,226 L 742,226 L 742,225 L 742,224 L 742,223 L 742,222 L 741,222 L 741,221 L 740,220 L 740,219 L 739,219 L 739,218 L 738,217 L 737,216 L 736,216 L 736,217 L 735,217 L 734,217 L 734,218 L 734,217 L 733,216 L 732,216 L 731,215 L 731,214 L 730,213 L 729,211 L 729,210 L 730,210 L 731,209 L 730,207 L 730,206 L 730,205 L 730,204 L 729,204 L 729,203 L 729,202 L 728,202 L 728,201 L 727,201 L 726,201 L 725,201 L 725,200 L 725,199 L 726,198 L 726,197 L 727,195 L 727,194 L 727,192 L 727,191 L 727,190 L 727,189 L 726,187 L 726,186 L 725,185 L 724,185 L 724,184 L 724,183 L 724,182 L 724,181 L 724,180 L 724,179 L 724,178 L 724,177 L 725,176 L 725,175 L 725,174 L 725,173 L 725,172 L 724,172 L 724,171 L 724,170 L 724,169 L 725,168 L 726,167 L 725,166 L 724,166 L 724,167 L 723,168 L 722,169 L 722,170 L 721,170 L 720,171 L 719,172 L 719,173 L 718,173 L 718,172 L 718,171 L 717,171 L 716,171 L 716,170 L 715,170 L 715,169 L 715,168 L 714,168 L 713,168 L 712,168 L 712,167 L 713,166 L 713,165 L 712,165 L 712,163 L 712,162 L 712,161 L 711,161 L 711,162 L 710,162 L 710,163 L 710,164 L 710,165 L 710,166 L 709,166 L 709,165 L 708,165 L 708,164 L 708,165 L 708,166 L 708,167 L 708,168 L 708,169 L 708,170 L 707,170 L 706,169 L 705,170 L 705,171 L 705,172 L 704,172 L 703,173 L 703,174 L 703,175 L 703,176 L 704,176 L 705,176 L 704,177 L 704,178 L 705,178 L 705,179 L 707,179 L 707,180 L 706,181 L 706,182 L 707,183 L 707,184 L 706,185 L 706,186 L 705,187 L 704,187 L 703,187 L 703,188 L 702,188 L 702,189 L 701,189 L 700,189 L 700,188 L 699,188 L 699,187 L 699,186 L 698,186 L 698,185 L 698,184 L 697,183 L 696,183 L 696,184 L 696,185 L 696,186 L 696,187 L 695,188 L 694,188 L 693,188 L 693,187 L 692,187 L 691,186 L 690,186 L 689,187 L 688,188 L 687,187 L 687,186 L 687,185 L 686,185 L 686,184 L 685,184 L 684,184 L 683,184 L 682,184 L 682,183 L 681,183 L 681,182 L 680,181 L 680,180 L 679,179 L 678,179 L 677,179 L 676,179 L 675,179 L 674,179 L 674,178 L 673,178 L 672,177 L 672,176 L 672,175 L 671,174 L 670,173 L 669,174 L 668,174 L 667,173 L 667,172 L 668,172 L 668,171 L 667,171 L 666,171 L 665,171 L 665,172 L 664,172 L 664,171 L 665,170 L 666,170 L 665,169 L 664,169 L 663,169 L 662,169 L 662,170 L 661,170 L 661,169 L 660,169 L 660,168 L 659,168 L 659,167 L 659,166 L 659,165 L 659,164 L 660,164 L 661,164 L 661,163 L 661,162 L 662,161 L 661,161 L 661,160 L 660,159 L 660,158 L 661,158 L 661,157 L 661,156 L 661,155 L 662,155 L 663,155 L 664,156 L 665,156 L 666,155 L 667,155 L 668,155 L 669,155 L 670,155 L 671,155 L 671,154 L 672,154 L 673,155 L 674,155 L 675,155 L 676,156 L 676,157 L 677,157 L 677,158 L 678,158 L 680,158 L 681,158 L 682,158 L 683,158 L 684,158 L 685,157 L 686,157 L 686,156 L 687,156 L 687,155 L 688,155 L 688,154 L 688,153 L 688,152 L 689,152 L 689,151 L 688,151 L 687,150 L 687,149 L 688,148 L 689,148 L 690,147 L 691,146 L 691,145 L 692,145 L 692,144 L 693,144 L 693,143 L 694,143 L 694,142 L 695,142 L 695,141 L 696,140 L 697,140 L 698,140 L 699,139 L 700,138 L 700,137 L 701,137 L 701,136 L 702,136 L 702,137 L 702,138 L 703,139 L 704,139 L 704,140 L 704,141 L 705,142 L 706,142 L 706,143 L 707,144 L 709,145 L 710,145 L 711,145 L 712,145 L 713,145 L 713,146 L 714,147 L 715,147 L 715,148 L 716,149 L 717,150 " />
</g>
<g id="87" class="st0 dist-block" inkscape:label="Daringibadi">
<path d="M 558,270 L 559,270 L 559,271 L 559,272 L 559,273 L 559,274 L 559,275 L 558,275 L 558,276 L 558,277 L 557,278 L 557,279 L 557,280 L 556,280 L 556,281 L 556,282 L 556,283 L 556,284 L 556,285 L 556,286 L 557,286 L 558,287 L 558,286 L 559,287 L 559,286 L 559,285 L 560,285 L 560,284 L 560,283 L 561,283 L 561,284 L 561,285 L 562,286 L 563,286 L 563,287 L 564,288 L 565,288 L 565,289 L 566,289 L 567,289 L 568,288 L 569,288 L 570,287 L 570,286 L 571,286 L 572,285 L 573,284 L 574,283 L 574,282 L 574,281 L 574,280 L 575,280 L 575,279 L 576,279 L 576,278 L 577,277 L 577,276 L 578,276 L 578,275 L 578,274 L 579,274 L 579,273 L 580,274 L 581,274 L 582,274 L 583,274 L 584,274 L 584,273 L 584,272 L 585,272 L 585,271 L 586,271 L 585,271 L 585,270 L 584,270 L 584,269 L 584,268 L 584,267 L 584,268 L 585,267 L 586,266 L 587,266 L 588,265 L 589,265 L 590,265 L 591,265 L 591,266 L 590,266 L 589,267 L 588,267 L 588,268 L 588,269 L 588,270 L 588,271 L 587,271 L 587,272 L 586,273 L 586,274 L 586,275 L 586,276 L 585,277 L 586,279 L 586,280 L 586,281 L 586,282 L 587,283 L 587,284 L 587,285 L 588,285 L 588,286 L 590,286 L 591,285 L 592,284 L 593,284 L 595,284 L 596,284 L 597,284 L 598,284 L 599,284 L 600,284 L 600,283 L 600,282 L 600,281 L 600,280 L 601,280 L 602,280 L 603,281 L 604,281 L 605,281 L 605,282 L 606,282 L 607,282 L 607,281 L 608,281 L 608,282 L 607,282 L 607,283 L 607,284 L 607,285 L 606,285 L 606,286 L 606,287 L 605,287 L 605,288 L 606,288 L 607,288 L 608,287 L 609,287 L 609,286 L 610,286 L 610,285 L 610,284 L 610,283 L 611,283 L 611,282 L 610,282 L 610,281 L 610,280 L 611,280 L 611,279 L 612,278 L 613,278 L 613,279 L 613,280 L 614,280 L 614,281 L 615,281 L 615,280 L 616,280 L 616,279 L 617,279 L 617,278 L 617,277 L 617,276 L 617,275 L 617,274 L 618,274 L 618,273 L 619,273 L 619,274 L 619,275 L 620,275 L 621,275 L 622,275 L 622,276 L 623,276 L 624,276 L 625,277 L 626,277 L 627,278 L 628,278 L 629,278 L 630,278 L 631,278 L 631,279 L 632,279 L 631,280 L 631,281 L 630,282 L 630,283 L 630,284 L 629,285 L 628,286 L 628,287 L 629,287 L 630,286 L 631,287 L 632,288 L 633,289 L 633,290 L 633,291 L 632,292 L 631,293 L 630,293 L 629,292 L 628,292 L 628,293 L 628,294 L 629,294 L 630,294 L 630,295 L 630,296 L 629,297 L 630,298 L 631,297 L 632,297 L 633,297 L 634,298 L 635,297 L 636,298 L 637,298 L 638,299 L 638,300 L 637,301 L 638,304 L 638,306 L 638,307 L 638,306 L 637,306 L 636,306 L 636,307 L 635,308 L 634,308 L 634,309 L 633,310 L 631,310 L 630,310 L 629,310 L 628,309 L 627,309 L 627,312 L 627,313 L 627,314 L 627,315 L 627,316 L 627,317 L 627,318 L 628,319 L 629,319 L 629,320 L 629,321 L 630,321 L 630,322 L 630,323 L 629,324 L 628,325 L 627,326 L 627,327 L 627,329 L 626,330 L 626,331 L 626,332 L 627,332 L 628,332 L 629,332 L 630,332 L 630,333 L 630,334 L 631,334 L 631,335 L 632,335 L 633,335 L 633,336 L 634,336 L 634,337 L 635,337 L 636,337 L 637,336 L 638,336 L 639,338 L 641,337 L 642,337 L 643,336 L 645,335 L 646,335 L 648,334 L 649,334 L 650,335 L 651,336 L 652,337 L 652,338 L 652,340 L 653,340 L 655,341 L 656,341 L 657,341 L 657,342 L 658,342 L 659,342 L 660,342 L 661,342 L 662,341 L 663,341 L 664,341 L 663,342 L 663,343 L 662,344 L 661,344 L 661,345 L 660,345 L 659,346 L 659,347 L 658,346 L 657,346 L 656,347 L 656,348 L 655,348 L 655,349 L 653,349 L 652,349 L 651,349 L 650,350 L 649,350 L 649,351 L 649,353 L 649,356 L 648,357 L 646,357 L 644,358 L 642,358 L 641,358 L 639,359 L 637,359 L 635,359 L 632,359 L 631,360 L 632,361 L 633,363 L 634,364 L 634,365 L 635,366 L 635,367 L 636,368 L 637,369 L 637,370 L 637,371 L 636,371 L 635,372 L 634,373 L 634,374 L 633,374 L 633,375 L 632,375 L 631,376 L 630,376 L 629,376 L 628,376 L 627,376 L 626,376 L 626,377 L 626,378 L 626,379 L 625,380 L 625,381 L 625,382 L 624,382 L 623,383 L 624,384 L 625,386 L 625,387 L 626,387 L 626,388 L 625,388 L 625,389 L 624,389 L 623,390 L 622,390 L 621,391 L 620,391 L 619,391 L 618,391 L 617,391 L 616,391 L 615,391 L 614,392 L 613,392 L 612,392 L 611,393 L 610,393 L 609,393 L 609,394 L 610,395 L 611,396 L 611,397 L 612,398 L 613,400 L 614,400 L 614,401 L 615,402 L 616,403 L 616,404 L 616,405 L 617,405 L 616,406 L 617,407 L 618,408 L 618,409 L 619,409 L 618,410 L 619,410 L 619,411 L 620,411 L 620,412 L 619,412 L 619,413 L 619,414 L 618,414 L 618,415 L 618,416 L 617,416 L 618,416 L 618,415 L 619,415 L 620,415 L 620,414 L 621,414 L 622,413 L 623,413 L 624,413 L 625,412 L 626,412 L 627,412 L 628,411 L 629,411 L 630,411 L 631,412 L 632,412 L 633,412 L 634,412 L 635,412 L 635,413 L 636,413 L 637,413 L 636,414 L 636,415 L 636,416 L 635,416 L 635,417 L 635,418 L 634,419 L 634,420 L 633,421 L 633,422 L 633,423 L 632,423 L 632,424 L 631,425 L 632,425 L 632,426 L 633,426 L 633,427 L 634,428 L 634,429 L 635,430 L 636,430 L 636,431 L 636,432 L 635,433 L 636,433 L 637,433 L 638,433 L 638,434 L 639,434 L 640,434 L 640,435 L 641,436 L 642,437 L 642,438 L 643,438 L 644,438 L 644,437 L 644,438 L 645,438 L 645,439 L 645,440 L 646,440 L 646,441 L 646,442 L 647,442 L 647,441 L 648,442 L 649,442 L 650,442 L 651,442 L 651,443 L 651,444 L 652,444 L 652,445 L 652,446 L 653,446 L 653,447 L 653,448 L 653,449 L 654,449 L 654,450 L 654,451 L 654,452 L 653,452 L 653,453 L 652,453 L 651,453 L 650,453 L 650,454 L 650,455 L 650,456 L 649,456 L 649,457 L 648,457 L 647,457 L 647,458 L 646,458 L 645,459 L 645,460 L 646,461 L 647,462 L 648,462 L 648,463 L 648,464 L 649,465 L 649,466 L 650,466 L 649,467 L 648,468 L 649,469 L 648,470 L 648,471 L 648,472 L 648,473 L 649,474 L 649,475 L 649,476 L 649,477 L 649,478 L 650,478 L 650,479 L 651,479 L 651,480 L 652,479 L 653,480 L 654,481 L 654,482 L 655,483 L 655,484 L 654,483 L 653,483 L 652,483 L 651,483 L 650,483 L 650,482 L 649,482 L 649,481 L 648,481 L 647,481 L 647,480 L 646,480 L 646,479 L 645,479 L 645,478 L 644,478 L 643,478 L 643,477 L 642,477 L 642,476 L 641,476 L 640,476 L 640,475 L 639,474 L 639,473 L 638,473 L 638,472 L 637,472 L 636,472 L 635,472 L 634,472 L 633,472 L 632,473 L 631,473 L 630,473 L 629,473 L 628,473 L 628,474 L 627,474 L 626,474 L 625,473 L 624,473 L 623,473 L 622,473 L 621,473 L 621,474 L 621,475 L 620,476 L 619,477 L 618,477 L 618,476 L 617,476 L 616,476 L 616,475 L 616,474 L 615,473 L 614,473 L 614,472 L 613,471 L 613,470 L 613,469 L 612,468 L 612,467 L 611,467 L 611,466 L 611,465 L 611,464 L 611,463 L 611,462 L 610,462 L 610,461 L 610,460 L 610,459 L 610,458 L 610,457 L 609,457 L 609,456 L 609,455 L 608,455 L 608,454 L 607,454 L 606,453 L 605,454 L 604,454 L 603,455 L 602,455 L 601,455 L 600,455 L 599,455 L 599,456 L 598,456 L 597,456 L 597,455 L 596,455 L 595,455 L 594,455 L 593,455 L 592,455 L 591,455 L 591,456 L 591,457 L 591,458 L 592,459 L 592,460 L 591,460 L 590,460 L 589,460 L 588,460 L 588,459 L 587,458 L 587,457 L 586,457 L 585,457 L 584,457 L 583,456 L 583,455 L 582,455 L 581,455 L 580,455 L 580,454 L 579,454 L 578,454 L 578,455 L 577,455 L 577,456 L 576,456 L 575,457 L 574,457 L 573,457 L 572,457 L 572,456 L 571,456 L 570,455 L 570,454 L 569,454 L 568,453 L 567,453 L 566,453 L 565,454 L 565,455 L 564,455 L 564,456 L 563,456 L 563,457 L 561,457 L 560,458 L 560,459 L 559,460 L 559,461 L 559,460 L 558,459 L 558,458 L 557,458 L 557,457 L 557,456 L 556,456 L 555,456 L 555,457 L 554,457 L 553,457 L 552,457 L 551,457 L 550,458 L 549,458 L 549,459 L 548,459 L 547,458 L 546,458 L 545,458 L 544,458 L 543,458 L 542,458 L 541,458 L 541,457 L 541,455 L 540,455 L 539,455 L 539,454 L 538,453 L 537,453 L 536,453 L 535,453 L 534,453 L 533,453 L 532,453 L 532,452 L 531,451 L 531,450 L 530,449 L 530,448 L 530,447 L 530,446 L 530,445 L 530,444 L 529,443 L 528,443 L 527,442 L 526,442 L 526,441 L 525,441 L 526,440 L 527,440 L 527,439 L 529,438 L 530,438 L 530,437 L 529,437 L 529,436 L 528,436 L 528,435 L 528,434 L 529,434 L 529,433 L 530,433 L 530,432 L 531,432 L 532,432 L 532,431 L 533,431 L 533,430 L 533,429 L 533,428 L 534,427 L 534,426 L 535,426 L 535,427 L 535,426 L 536,426 L 535,426 L 535,425 L 536,425 L 536,424 L 537,424 L 537,423 L 536,423 L 537,423 L 536,422 L 537,422 L 537,421 L 537,420 L 538,420 L 538,419 L 539,418 L 539,417 L 539,416 L 540,416 L 540,415 L 539,414 L 539,413 L 539,412 L 539,411 L 539,410 L 539,409 L 539,408 L 540,407 L 540,406 L 541,405 L 541,404 L 541,403 L 542,402 L 542,401 L 542,400 L 543,396 L 543,395 L 543,394 L 543,393 L 543,392 L 543,390 L 542,389 L 542,388 L 541,388 L 540,388 L 539,388 L 539,387 L 538,387 L 537,386 L 538,386 L 538,385 L 539,385 L 539,384 L 540,384 L 540,383 L 540,382 L 540,381 L 540,380 L 539,380 L 539,379 L 539,378 L 538,378 L 537,378 L 537,377 L 538,377 L 538,376 L 538,375 L 538,374 L 539,372 L 539,370 L 539,369 L 540,368 L 540,367 L 541,366 L 542,364 L 543,364 L 543,362 L 544,361 L 545,360 L 545,359 L 545,358 L 546,358 L 546,357 L 546,356 L 546,355 L 546,354 L 546,353 L 545,352 L 545,351 L 545,350 L 545,349 L 544,349 L 545,348 L 545,347 L 547,347 L 547,346 L 547,345 L 547,344 L 548,344 L 549,344 L 550,345 L 550,344 L 551,344 L 552,343 L 551,342 L 551,341 L 551,340 L 551,339 L 552,339 L 553,338 L 552,338 L 551,337 L 550,336 L 550,335 L 550,334 L 550,333 L 550,332 L 551,331 L 551,330 L 552,330 L 553,330 L 554,330 L 555,330 L 555,331 L 556,331 L 556,330 L 556,329 L 556,328 L 557,328 L 557,327 L 557,326 L 557,325 L 557,324 L 557,323 L 557,322 L 558,321 L 558,320 L 557,318 L 557,317 L 557,316 L 557,315 L 557,314 L 557,313 L 556,313 L 555,313 L 554,313 L 554,314 L 553,314 L 553,315 L 553,316 L 553,317 L 553,318 L 553,319 L 552,319 L 552,320 L 553,320 L 553,321 L 552,321 L 551,321 L 551,322 L 550,322 L 549,323 L 548,323 L 547,323 L 546,323 L 545,323 L 543,324 L 541,324 L 540,324 L 539,324 L 538,324 L 537,324 L 536,325 L 535,326 L 534,327 L 532,327 L 531,327 L 530,327 L 528,327 L 528,328 L 527,328 L 526,328 L 525,328 L 524,327 L 525,326 L 525,325 L 525,323 L 525,322 L 525,321 L 525,320 L 524,320 L 524,319 L 523,319 L 522,319 L 521,319 L 520,318 L 519,318 L 519,317 L 519,316 L 518,315 L 517,315 L 517,316 L 516,317 L 515,317 L 514,317 L 514,318 L 514,319 L 514,321 L 513,322 L 513,323 L 512,323 L 508,324 L 506,324 L 505,324 L 505,325 L 504,325 L 504,324 L 503,323 L 502,323 L 502,322 L 501,321 L 501,320 L 501,319 L 502,319 L 502,318 L 503,317 L 504,316 L 504,315 L 504,314 L 505,314 L 506,315 L 507,315 L 508,315 L 508,314 L 509,313 L 509,312 L 509,311 L 508,311 L 507,311 L 506,311 L 504,311 L 503,311 L 503,312 L 502,312 L 501,311 L 500,310 L 500,309 L 500,308 L 499,307 L 498,306 L 497,306 L 496,306 L 495,306 L 494,306 L 493,306 L 490,305 L 486,304 L 485,304 L 484,304 L 482,303 L 480,302 L 479,302 L 479,301 L 480,300 L 480,299 L 479,299 L 478,299 L 478,298 L 478,297 L 478,296 L 478,295 L 478,294 L 477,293 L 478,293 L 478,292 L 478,291 L 479,291 L 480,291 L 481,290 L 482,290 L 483,290 L 484,289 L 485,289 L 486,288 L 487,288 L 488,287 L 489,287 L 490,287 L 491,288 L 491,289 L 492,289 L 493,289 L 494,288 L 494,287 L 495,287 L 496,287 L 497,287 L 497,286 L 498,287 L 499,287 L 499,286 L 500,285 L 500,284 L 501,284 L 501,283 L 502,283 L 503,283 L 504,283 L 504,284 L 505,284 L 506,285 L 507,285 L 508,285 L 509,285 L 510,285 L 511,285 L 512,284 L 513,284 L 514,284 L 515,285 L 516,284 L 517,284 L 518,285 L 519,286 L 519,287 L 519,288 L 519,289 L 520,290 L 521,290 L 522,290 L 523,290 L 524,290 L 525,289 L 525,288 L 526,289 L 527,289 L 528,289 L 528,287 L 529,286 L 529,285 L 530,284 L 530,283 L 531,282 L 532,282 L 533,282 L 533,281 L 532,280 L 532,279 L 532,278 L 533,278 L 535,277 L 536,276 L 537,276 L 539,275 L 540,274 L 540,273 L 541,272 L 541,271 L 542,270 L 542,269 L 542,268 L 543,268 L 544,268 L 544,269 L 545,269 L 546,270 L 547,270 L 548,270 L 548,269 L 548,268 L 549,267 L 549,266 L 550,265 L 551,264 L 552,264 L 553,265 L 554,266 L 555,266 L 555,267 L 556,267 L 556,268 L 557,268 L 557,269 L 558,269 L 558,270 " />
<path d="M 556,289 L 557,289 L 557,288 L 557,287 L 556,288 L 555,288 L 556,289 " />
</g>
<g id="103" class="st0 dist-block" inkscape:label="G_Udayagiri">
<path d="M 695,208 L 694,208 L 693,208 L 692,208 L 691,209 L 690,209 L 688,209 L 687,209 L 686,209 L 685,209 L 686,208 L 686,207 L 686,206 L 687,206 L 688,206 L 689,206 L 690,206 L 691,206 L 692,206 L 693,206 L 694,206 L 694,207 L 695,207 L 694,207 L 694,208 L 695,208 " />
<path d="M 726,197 L 726,198 L 725,199 L 725,200 L 725,201 L 726,201 L 727,201 L 728,201 L 728,202 L 729,202 L 729,203 L 729,204 L 730,204 L 730,205 L 730,206 L 730,207 L 731,209 L 730,210 L 729,210 L 729,211 L 730,213 L 731,214 L 731,215 L 732,216 L 733,216 L 734,217 L 734,218 L 733,218 L 733,219 L 733,220 L 733,221 L 733,222 L 733,223 L 732,223 L 732,224 L 732,225 L 731,225 L 731,226 L 731,227 L 732,228 L 732,229 L 732,230 L 732,231 L 733,231 L 733,232 L 733,233 L 734,234 L 734,235 L 734,236 L 733,237 L 733,238 L 734,239 L 734,240 L 735,240 L 735,241 L 735,242 L 734,242 L 733,242 L 732,242 L 732,243 L 731,243 L 731,244 L 730,244 L 730,245 L 730,246 L 730,247 L 730,248 L 730,249 L 730,250 L 729,250 L 729,251 L 729,252 L 728,252 L 727,252 L 726,253 L 725,254 L 725,255 L 725,256 L 726,256 L 726,257 L 725,257 L 725,258 L 725,259 L 725,260 L 725,261 L 724,262 L 724,263 L 724,264 L 723,264 L 723,265 L 723,266 L 722,266 L 722,267 L 722,266 L 721,267 L 720,267 L 720,268 L 720,269 L 720,270 L 720,271 L 720,272 L 720,273 L 720,274 L 721,274 L 722,275 L 723,275 L 723,276 L 724,276 L 724,277 L 724,278 L 724,279 L 724,280 L 724,281 L 725,281 L 725,282 L 724,283 L 724,284 L 723,284 L 722,284 L 721,284 L 720,284 L 719,284 L 718,284 L 718,285 L 717,285 L 716,285 L 715,285 L 715,286 L 714,286 L 713,287 L 712,287 L 711,288 L 710,288 L 708,289 L 707,289 L 706,290 L 705,291 L 704,291 L 703,291 L 702,291 L 702,290 L 702,289 L 701,289 L 701,288 L 700,289 L 699,290 L 699,291 L 698,291 L 697,292 L 697,293 L 696,293 L 696,294 L 695,295 L 694,296 L 694,297 L 693,298 L 692,298 L 691,298 L 690,299 L 689,299 L 689,300 L 689,301 L 689,302 L 689,303 L 688,303 L 688,304 L 687,305 L 687,306 L 683,306 L 682,306 L 682,305 L 681,304 L 681,303 L 680,303 L 680,302 L 679,301 L 679,300 L 678,300 L 677,300 L 676,299 L 676,298 L 675,298 L 674,298 L 673,298 L 673,297 L 674,297 L 674,296 L 675,296 L 675,295 L 674,294 L 673,293 L 673,292 L 673,291 L 672,291 L 672,290 L 671,290 L 670,290 L 669,289 L 668,289 L 667,288 L 666,288 L 665,288 L 665,287 L 665,286 L 665,285 L 666,284 L 667,284 L 668,283 L 669,283 L 670,283 L 670,282 L 671,281 L 671,280 L 671,279 L 671,278 L 671,277 L 672,276 L 672,275 L 672,274 L 672,273 L 672,272 L 672,271 L 671,271 L 671,270 L 671,269 L 672,269 L 672,270 L 673,270 L 673,271 L 674,271 L 675,270 L 675,269 L 676,269 L 676,270 L 677,270 L 677,271 L 678,271 L 679,272 L 680,272 L 681,272 L 681,271 L 682,270 L 682,269 L 682,268 L 681,268 L 680,268 L 679,269 L 678,269 L 678,268 L 677,268 L 678,268 L 678,267 L 679,266 L 680,265 L 681,265 L 682,265 L 682,264 L 684,264 L 685,264 L 686,264 L 687,264 L 688,264 L 689,264 L 689,263 L 690,263 L 691,263 L 691,262 L 692,262 L 693,261 L 693,260 L 692,260 L 691,259 L 690,258 L 690,257 L 689,257 L 689,258 L 688,258 L 688,257 L 686,257 L 685,258 L 684,258 L 683,258 L 683,257 L 682,256 L 681,255 L 681,254 L 680,254 L 680,253 L 680,252 L 679,251 L 679,250 L 678,250 L 678,249 L 679,249 L 680,249 L 681,250 L 682,250 L 682,251 L 683,251 L 684,251 L 685,252 L 686,252 L 687,252 L 687,251 L 688,251 L 688,250 L 688,249 L 687,249 L 687,248 L 686,248 L 686,246 L 686,245 L 687,245 L 688,244 L 689,243 L 689,242 L 690,242 L 690,241 L 691,241 L 692,241 L 692,240 L 693,240 L 693,239 L 694,239 L 694,238 L 695,237 L 695,238 L 696,238 L 697,238 L 698,238 L 699,237 L 700,237 L 701,236 L 702,236 L 703,236 L 703,237 L 704,237 L 704,236 L 705,236 L 705,237 L 706,237 L 706,238 L 705,239 L 705,240 L 704,240 L 704,241 L 704,242 L 705,243 L 705,244 L 705,245 L 706,245 L 707,244 L 708,244 L 708,243 L 709,243 L 709,242 L 710,242 L 711,242 L 712,242 L 712,241 L 713,241 L 713,240 L 714,239 L 715,239 L 715,238 L 715,237 L 715,236 L 715,235 L 716,235 L 716,236 L 716,237 L 717,237 L 718,237 L 719,238 L 720,238 L 721,238 L 721,237 L 720,236 L 720,235 L 721,235 L 721,234 L 722,233 L 722,232 L 722,231 L 722,230 L 721,230 L 720,230 L 719,229 L 718,228 L 718,227 L 718,226 L 717,226 L 718,225 L 718,224 L 717,223 L 717,222 L 717,221 L 717,220 L 716,220 L 716,219 L 716,218 L 716,217 L 716,216 L 716,215 L 715,214 L 715,213 L 715,212 L 714,212 L 714,211 L 713,210 L 712,209 L 712,208 L 711,208 L 711,207 L 710,206 L 709,206 L 709,205 L 709,204 L 708,204 L 707,204 L 707,205 L 706,205 L 705,205 L 704,205 L 703,204 L 703,203 L 704,203 L 704,202 L 705,202 L 706,202 L 707,202 L 708,202 L 708,203 L 709,203 L 710,203 L 709,203 L 709,202 L 708,202 L 708,201 L 709,201 L 710,201 L 711,201 L 712,201 L 712,202 L 713,202 L 713,201 L 714,201 L 715,201 L 715,200 L 715,199 L 714,198 L 715,198 L 715,197 L 716,197 L 717,197 L 718,197 L 718,196 L 718,195 L 719,195 L 719,194 L 718,193 L 718,192 L 719,191 L 720,191 L 720,190 L 721,190 L 722,190 L 723,190 L 723,191 L 723,192 L 724,193 L 725,194 L 726,194 L 726,195 L 726,196 L 726,197 " />
</g>
<g id="143"  class="st0 dist-block" inkscape:label="K_Nuagaon">
<path d="M 557,289 L 556,289 L 555,288 L 556,288 L 557,287 L 557,288 L 557,289 " />
<path d="M 571,194 L 572,195 L 573,195 L 573,196 L 574,196 L 576,196 L 577,196 L 578,196 L 579,196 L 580,196 L 581,196 L 582,196 L 583,196 L 584,196 L 585,196 L 585,195 L 586,195 L 587,195 L 587,194 L 588,194 L 589,194 L 590,194 L 590,193 L 591,193 L 591,192 L 592,192 L 593,192 L 594,192 L 594,191 L 595,191 L 596,191 L 597,191 L 598,191 L 599,191 L 600,191 L 601,191 L 601,192 L 602,192 L 603,192 L 604,192 L 605,192 L 606,192 L 606,193 L 606,192 L 607,192 L 608,192 L 608,193 L 609,193 L 609,194 L 609,195 L 610,195 L 613,195 L 614,195 L 615,195 L 616,195 L 617,195 L 618,195 L 619,195 L 620,195 L 620,194 L 621,194 L 622,194 L 623,194 L 624,195 L 625,195 L 625,196 L 625,197 L 625,198 L 626,199 L 626,200 L 627,200 L 627,201 L 628,201 L 629,201 L 629,202 L 629,203 L 629,204 L 630,204 L 630,205 L 631,206 L 631,207 L 631,208 L 631,209 L 631,210 L 631,209 L 630,209 L 629,209 L 629,210 L 628,210 L 628,211 L 627,211 L 626,211 L 627,210 L 626,210 L 626,209 L 625,209 L 624,209 L 624,210 L 624,211 L 624,212 L 624,213 L 624,214 L 625,216 L 625,217 L 625,218 L 626,220 L 626,221 L 627,222 L 627,223 L 628,224 L 629,225 L 630,226 L 631,227 L 631,228 L 631,229 L 631,230 L 631,231 L 632,231 L 633,231 L 633,232 L 634,232 L 634,233 L 633,233 L 633,234 L 633,235 L 632,236 L 632,237 L 632,238 L 633,238 L 634,238 L 634,237 L 635,237 L 636,237 L 636,236 L 637,237 L 638,238 L 638,239 L 639,240 L 639,241 L 639,242 L 640,242 L 641,243 L 642,243 L 642,242 L 642,241 L 642,240 L 641,239 L 640,238 L 639,238 L 638,237 L 638,236 L 638,235 L 638,234 L 639,234 L 639,233 L 640,233 L 641,233 L 641,234 L 642,234 L 642,235 L 642,236 L 641,236 L 641,237 L 642,238 L 643,239 L 644,240 L 645,240 L 646,240 L 646,241 L 645,242 L 645,243 L 645,244 L 645,245 L 645,246 L 644,247 L 643,247 L 643,248 L 642,249 L 641,250 L 640,250 L 641,251 L 642,251 L 643,251 L 643,252 L 644,252 L 644,253 L 644,254 L 644,255 L 644,256 L 644,257 L 644,258 L 643,259 L 643,260 L 642,260 L 642,261 L 641,261 L 640,261 L 640,262 L 639,262 L 638,262 L 637,262 L 637,263 L 637,264 L 637,265 L 637,266 L 636,267 L 636,268 L 636,269 L 636,270 L 636,271 L 636,272 L 635,273 L 635,274 L 635,275 L 635,276 L 636,277 L 636,278 L 635,278 L 634,278 L 633,278 L 633,279 L 632,279 L 631,279 L 631,278 L 630,278 L 629,278 L 628,278 L 627,278 L 626,277 L 625,277 L 624,276 L 623,276 L 622,276 L 622,275 L 621,275 L 620,275 L 619,275 L 619,274 L 619,273 L 618,273 L 618,274 L 617,274 L 617,275 L 617,276 L 617,277 L 617,278 L 617,279 L 616,279 L 616,280 L 615,280 L 615,281 L 614,281 L 614,280 L 613,280 L 613,279 L 613,278 L 612,278 L 611,279 L 611,280 L 610,280 L 610,281 L 610,282 L 611,282 L 611,283 L 610,283 L 610,284 L 610,285 L 610,286 L 609,286 L 609,287 L 608,287 L 607,288 L 606,288 L 605,288 L 605,287 L 606,287 L 606,286 L 606,285 L 607,285 L 607,284 L 607,283 L 607,282 L 608,282 L 608,281 L 607,281 L 607,282 L 606,282 L 605,282 L 605,281 L 604,281 L 603,281 L 602,280 L 601,280 L 600,280 L 600,281 L 600,282 L 600,283 L 600,284 L 599,284 L 598,284 L 597,284 L 596,284 L 595,284 L 593,284 L 592,284 L 591,285 L 590,286 L 588,286 L 588,285 L 587,285 L 587,284 L 587,283 L 586,282 L 586,281 L 586,280 L 586,279 L 585,277 L 586,276 L 586,275 L 586,274 L 586,273 L 587,272 L 587,271 L 588,271 L 588,270 L 588,269 L 588,268 L 588,267 L 589,267 L 590,266 L 591,266 L 591,265 L 590,265 L 589,265 L 588,265 L 587,266 L 586,266 L 585,267 L 584,268 L 584,267 L 584,268 L 584,269 L 584,270 L 585,270 L 585,271 L 586,271 L 585,271 L 585,272 L 584,272 L 584,273 L 584,274 L 583,274 L 582,274 L 581,274 L 580,274 L 579,273 L 579,274 L 578,274 L 578,275 L 578,276 L 577,276 L 577,277 L 576,278 L 576,279 L 575,279 L 575,280 L 574,280 L 574,281 L 574,282 L 574,283 L 573,284 L 572,285 L 571,286 L 570,286 L 570,287 L 569,288 L 568,288 L 567,289 L 566,289 L 565,289 L 565,288 L 564,288 L 563,287 L 563,286 L 562,286 L 561,285 L 561,284 L 561,283 L 560,283 L 560,284 L 560,285 L 559,285 L 559,286 L 559,287 L 558,286 L 558,287 L 557,286 L 556,286 L 556,285 L 556,284 L 556,283 L 556,282 L 556,281 L 556,280 L 557,280 L 557,279 L 557,278 L 558,277 L 558,276 L 558,275 L 559,275 L 559,274 L 559,273 L 559,272 L 559,271 L 559,270 L 558,270 L 558,269 L 557,269 L 557,268 L 556,268 L 556,267 L 555,267 L 555,266 L 554,266 L 553,265 L 552,264 L 551,264 L 550,265 L 549,266 L 549,267 L 548,268 L 548,269 L 548,270 L 547,270 L 546,270 L 545,269 L 544,269 L 544,268 L 543,268 L 542,268 L 542,269 L 542,270 L 541,271 L 541,272 L 540,273 L 540,274 L 539,275 L 537,276 L 536,276 L 535,277 L 533,278 L 532,278 L 532,279 L 532,280 L 533,281 L 533,282 L 532,282 L 531,282 L 530,283 L 530,284 L 529,285 L 529,286 L 528,287 L 528,289 L 527,289 L 526,289 L 525,288 L 526,288 L 527,287 L 528,285 L 528,284 L 528,283 L 528,282 L 528,281 L 529,280 L 529,279 L 530,278 L 530,277 L 530,276 L 530,275 L 529,274 L 529,273 L 531,272 L 531,271 L 531,270 L 530,270 L 529,270 L 527,271 L 526,270 L 525,269 L 526,269 L 527,268 L 528,268 L 529,268 L 529,267 L 530,266 L 530,265 L 531,265 L 531,264 L 531,263 L 531,262 L 531,261 L 531,260 L 530,260 L 529,260 L 528,261 L 527,261 L 526,261 L 525,261 L 523,260 L 521,260 L 520,260 L 520,259 L 519,259 L 518,259 L 517,259 L 516,259 L 516,258 L 516,257 L 517,256 L 517,255 L 517,254 L 517,253 L 518,253 L 518,252 L 519,252 L 519,251 L 519,250 L 520,249 L 520,248 L 520,247 L 520,246 L 520,245 L 519,244 L 519,243 L 519,241 L 519,240 L 519,239 L 519,238 L 520,237 L 521,236 L 521,235 L 521,234 L 521,233 L 522,232 L 522,231 L 522,230 L 523,230 L 523,231 L 524,231 L 524,230 L 525,230 L 526,229 L 527,229 L 528,228 L 528,227 L 529,227 L 530,227 L 531,228 L 532,228 L 533,227 L 534,226 L 534,225 L 535,225 L 535,224 L 536,223 L 536,222 L 537,221 L 537,220 L 536,219 L 535,218 L 534,217 L 534,216 L 534,215 L 534,214 L 533,213 L 534,213 L 534,212 L 535,212 L 536,213 L 537,214 L 537,215 L 538,214 L 539,213 L 540,212 L 541,212 L 542,212 L 542,211 L 542,210 L 541,210 L 541,209 L 540,209 L 539,209 L 538,208 L 538,207 L 538,206 L 539,206 L 540,206 L 541,205 L 541,206 L 542,206 L 543,206 L 543,205 L 544,205 L 545,205 L 546,204 L 546,205 L 547,205 L 548,205 L 549,205 L 549,204 L 550,204 L 551,204 L 550,205 L 551,206 L 552,206 L 553,205 L 554,204 L 555,203 L 556,203 L 556,202 L 556,201 L 557,201 L 557,200 L 558,200 L 558,201 L 558,200 L 559,200 L 560,200 L 560,199 L 561,199 L 561,198 L 561,197 L 562,197 L 563,196 L 564,196 L 565,195 L 565,194 L 566,194 L 566,193 L 567,193 L 567,192 L 568,192 L 569,191 L 569,190 L 569,191 L 569,192 L 569,193 L 570,193 L 571,194 " />
</g>
<g id="183" class="st0 dist-block" inkscape:label="Kotagarh">
<path d="M 498,306 L 499,307 L 500,308 L 500,309 L 500,310 L 501,311 L 502,312 L 503,312 L 503,311 L 504,311 L 506,311 L 507,311 L 508,311 L 509,311 L 509,312 L 509,313 L 508,314 L 508,315 L 507,315 L 506,315 L 505,314 L 504,314 L 504,315 L 504,316 L 503,317 L 502,318 L 502,319 L 501,319 L 501,320 L 501,321 L 502,322 L 502,323 L 503,323 L 504,324 L 504,325 L 505,325 L 505,324 L 506,324 L 508,324 L 512,323 L 513,323 L 513,322 L 514,321 L 514,319 L 514,318 L 514,317 L 515,317 L 516,317 L 517,316 L 517,315 L 518,315 L 519,316 L 519,317 L 519,318 L 520,318 L 521,319 L 522,319 L 523,319 L 524,319 L 524,320 L 525,320 L 525,321 L 525,322 L 525,323 L 525,325 L 525,326 L 524,327 L 525,328 L 526,328 L 527,328 L 528,328 L 528,327 L 530,327 L 531,327 L 532,327 L 534,327 L 535,326 L 536,325 L 537,324 L 538,324 L 539,324 L 540,324 L 541,324 L 543,324 L 545,323 L 546,323 L 547,323 L 548,323 L 549,323 L 550,322 L 551,322 L 551,321 L 552,321 L 553,321 L 553,320 L 552,320 L 552,319 L 553,319 L 553,318 L 553,317 L 553,316 L 553,315 L 553,314 L 554,314 L 554,313 L 555,313 L 556,313 L 557,313 L 557,314 L 557,315 L 557,316 L 557,317 L 557,318 L 558,320 L 558,321 L 557,322 L 557,323 L 557,324 L 557,325 L 557,326 L 557,327 L 557,328 L 556,328 L 556,329 L 556,330 L 556,331 L 555,331 L 555,330 L 554,330 L 553,330 L 552,330 L 551,330 L 551,331 L 550,332 L 550,333 L 550,334 L 550,335 L 550,336 L 551,337 L 552,338 L 553,338 L 552,339 L 551,339 L 551,340 L 551,341 L 551,342 L 552,343 L 551,344 L 550,344 L 550,345 L 549,344 L 548,344 L 547,344 L 547,345 L 547,346 L 547,347 L 545,347 L 545,348 L 544,349 L 545,349 L 545,350 L 545,351 L 545,352 L 546,353 L 546,354 L 546,355 L 546,356 L 546,357 L 546,358 L 545,358 L 545,359 L 545,360 L 544,361 L 543,362 L 543,364 L 542,364 L 541,366 L 540,367 L 540,368 L 539,369 L 539,370 L 539,372 L 538,374 L 538,375 L 538,376 L 538,377 L 537,377 L 537,378 L 538,378 L 539,378 L 539,379 L 539,380 L 540,380 L 540,381 L 540,382 L 540,383 L 540,384 L 539,384 L 539,385 L 538,385 L 538,386 L 537,386 L 538,387 L 539,387 L 539,388 L 540,388 L 541,388 L 542,388 L 542,389 L 543,390 L 543,392 L 543,393 L 543,394 L 543,395 L 543,396 L 542,400 L 542,401 L 542,402 L 541,403 L 541,404 L 541,405 L 540,406 L 540,407 L 539,408 L 539,409 L 539,410 L 539,411 L 539,412 L 539,413 L 539,414 L 540,415 L 540,416 L 539,416 L 539,417 L 539,418 L 538,419 L 538,420 L 537,420 L 537,421 L 537,422 L 536,422 L 537,423 L 536,423 L 537,423 L 537,424 L 536,424 L 536,425 L 535,425 L 535,426 L 536,426 L 535,426 L 535,427 L 535,426 L 534,426 L 534,427 L 533,428 L 533,429 L 533,430 L 533,431 L 532,431 L 532,432 L 531,432 L 530,432 L 530,433 L 529,433 L 529,434 L 528,434 L 528,435 L 527,435 L 527,434 L 526,434 L 526,435 L 526,436 L 525,436 L 524,435 L 523,434 L 522,434 L 521,434 L 521,435 L 520,435 L 520,436 L 519,436 L 519,437 L 518,437 L 517,437 L 516,437 L 515,437 L 514,437 L 513,437 L 512,437 L 511,437 L 510,437 L 509,437 L 508,437 L 507,437 L 506,437 L 505,437 L 504,437 L 504,436 L 503,436 L 503,435 L 502,435 L 502,434 L 501,433 L 500,433 L 499,433 L 499,432 L 498,432 L 497,431 L 497,430 L 497,429 L 496,428 L 496,427 L 496,426 L 496,425 L 495,425 L 494,425 L 494,424 L 493,424 L 494,423 L 494,422 L 494,421 L 493,421 L 492,421 L 492,420 L 491,420 L 490,420 L 490,421 L 489,422 L 489,421 L 488,421 L 488,420 L 487,420 L 486,420 L 485,420 L 484,420 L 484,419 L 483,419 L 483,418 L 483,417 L 483,416 L 482,416 L 481,416 L 481,417 L 480,417 L 479,417 L 478,417 L 477,417 L 476,418 L 476,419 L 475,419 L 474,419 L 473,419 L 473,420 L 472,420 L 472,419 L 471,419 L 471,420 L 470,420 L 470,419 L 469,419 L 469,420 L 468,420 L 468,419 L 467,419 L 466,419 L 466,418 L 465,418 L 464,418 L 463,418 L 462,419 L 462,420 L 462,421 L 462,422 L 462,423 L 462,424 L 463,424 L 463,425 L 462,425 L 462,426 L 462,427 L 462,428 L 461,428 L 462,429 L 462,430 L 461,430 L 461,431 L 461,432 L 461,433 L 461,434 L 461,435 L 460,435 L 459,435 L 459,436 L 458,436 L 458,437 L 457,437 L 456,437 L 456,438 L 455,438 L 455,439 L 454,440 L 454,441 L 453,441 L 452,441 L 452,442 L 452,443 L 453,443 L 452,443 L 451,443 L 450,443 L 449,443 L 448,443 L 447,443 L 447,442 L 447,441 L 446,440 L 446,439 L 446,438 L 445,438 L 445,437 L 445,436 L 444,436 L 444,435 L 443,435 L 443,436 L 442,435 L 441,435 L 440,434 L 439,433 L 439,432 L 438,432 L 438,431 L 437,431 L 437,430 L 436,430 L 436,429 L 435,429 L 435,428 L 434,428 L 433,428 L 432,428 L 432,429 L 431,429 L 430,430 L 429,430 L 429,431 L 428,431 L 427,431 L 427,432 L 426,432 L 425,432 L 424,433 L 423,434 L 423,435 L 423,436 L 422,436 L 422,437 L 421,437 L 421,438 L 421,439 L 420,439 L 419,439 L 418,439 L 417,439 L 417,440 L 416,440 L 416,441 L 415,441 L 414,440 L 413,439 L 412,438 L 412,437 L 411,437 L 411,436 L 410,436 L 410,435 L 410,434 L 410,433 L 410,432 L 411,432 L 411,431 L 411,430 L 411,429 L 412,429 L 412,428 L 413,427 L 413,426 L 414,425 L 414,424 L 413,423 L 413,422 L 413,421 L 412,420 L 412,419 L 411,419 L 410,418 L 410,417 L 409,416 L 409,415 L 409,414 L 409,413 L 409,412 L 409,411 L 409,410 L 408,409 L 408,408 L 408,407 L 407,406 L 407,405 L 407,404 L 406,404 L 405,404 L 404,404 L 403,404 L 402,404 L 402,403 L 401,403 L 400,402 L 400,401 L 400,400 L 400,399 L 400,398 L 401,397 L 402,396 L 403,395 L 404,395 L 404,394 L 406,394 L 407,395 L 407,394 L 408,394 L 408,395 L 409,395 L 410,395 L 411,395 L 412,395 L 413,396 L 414,395 L 415,394 L 415,392 L 416,391 L 416,390 L 416,389 L 417,388 L 417,387 L 417,386 L 418,385 L 418,384 L 419,383 L 419,381 L 420,379 L 420,378 L 421,377 L 421,376 L 421,375 L 421,374 L 422,374 L 422,373 L 422,372 L 423,370 L 423,368 L 424,368 L 424,367 L 424,366 L 425,366 L 425,365 L 426,364 L 427,363 L 428,362 L 429,361 L 430,360 L 430,359 L 431,359 L 431,358 L 432,356 L 433,355 L 433,354 L 433,353 L 433,352 L 433,351 L 432,349 L 433,348 L 433,347 L 433,346 L 432,346 L 432,344 L 433,343 L 433,342 L 434,341 L 435,341 L 436,341 L 437,341 L 437,342 L 438,342 L 438,341 L 439,341 L 440,341 L 440,340 L 441,340 L 442,339 L 442,338 L 442,337 L 442,336 L 443,335 L 443,334 L 443,333 L 444,332 L 444,331 L 444,330 L 444,329 L 444,328 L 445,328 L 446,327 L 447,327 L 447,326 L 448,325 L 449,325 L 449,324 L 450,324 L 451,324 L 452,324 L 452,325 L 453,326 L 453,327 L 453,328 L 453,329 L 454,330 L 454,331 L 455,332 L 455,333 L 455,334 L 456,335 L 456,336 L 456,337 L 456,338 L 457,338 L 458,338 L 458,339 L 458,340 L 458,341 L 458,342 L 458,343 L 457,343 L 457,344 L 457,345 L 458,347 L 458,348 L 458,349 L 458,350 L 458,351 L 459,351 L 460,351 L 461,351 L 462,351 L 463,351 L 463,352 L 463,353 L 463,354 L 463,355 L 464,355 L 465,355 L 465,354 L 466,354 L 466,355 L 467,356 L 468,356 L 469,356 L 470,356 L 470,355 L 471,354 L 472,353 L 472,352 L 473,350 L 473,349 L 474,349 L 474,348 L 474,347 L 474,346 L 473,345 L 473,344 L 473,343 L 474,342 L 474,341 L 475,341 L 475,340 L 476,340 L 477,340 L 478,340 L 479,339 L 480,338 L 481,338 L 482,338 L 484,337 L 485,336 L 488,336 L 489,335 L 490,334 L 491,334 L 491,333 L 492,333 L 493,332 L 493,331 L 493,329 L 493,328 L 493,327 L 494,326 L 494,325 L 495,324 L 496,324 L 497,324 L 498,324 L 499,324 L 498,323 L 498,322 L 498,321 L 498,320 L 497,320 L 497,319 L 497,318 L 496,318 L 496,317 L 496,316 L 495,315 L 494,316 L 493,317 L 492,316 L 492,315 L 493,315 L 493,314 L 492,314 L 492,313 L 493,312 L 493,311 L 493,310 L 494,309 L 495,309 L 496,309 L 496,308 L 497,307 L 497,306 L 498,306 " />
</g>
<g id="257" class="st0 dist-block" inkscape:label="Raikia">
<path d="M 668,227 L 669,228 L 669,227 L 670,227 L 671,228 L 672,228 L 672,229 L 673,229 L 674,229 L 674,228 L 675,228 L 676,228 L 677,228 L 678,228 L 679,227 L 679,228 L 680,228 L 680,229 L 681,229 L 681,230 L 681,231 L 682,232 L 683,233 L 684,233 L 685,233 L 685,234 L 686,234 L 686,235 L 685,235 L 684,235 L 683,236 L 683,237 L 684,237 L 684,238 L 684,239 L 683,239 L 683,240 L 682,240 L 683,240 L 684,241 L 685,241 L 685,240 L 686,240 L 687,240 L 688,239 L 689,239 L 690,241 L 690,242 L 689,242 L 689,243 L 688,244 L 687,245 L 686,245 L 686,246 L 686,248 L 687,248 L 687,249 L 688,249 L 688,250 L 688,251 L 687,251 L 687,252 L 686,252 L 685,252 L 684,251 L 683,251 L 682,251 L 682,250 L 681,250 L 680,249 L 679,249 L 678,249 L 678,250 L 679,250 L 679,251 L 680,252 L 680,253 L 680,254 L 681,254 L 681,255 L 682,256 L 683,257 L 683,258 L 684,258 L 685,258 L 686,257 L 688,257 L 688,258 L 689,258 L 689,257 L 690,257 L 690,258 L 691,259 L 692,260 L 693,260 L 693,261 L 692,262 L 691,262 L 691,263 L 690,263 L 689,263 L 689,264 L 688,264 L 687,264 L 686,264 L 685,264 L 684,264 L 682,264 L 682,265 L 681,265 L 680,265 L 679,266 L 678,267 L 678,268 L 677,268 L 678,268 L 678,269 L 679,269 L 680,268 L 681,268 L 682,268 L 682,269 L 682,270 L 681,271 L 681,272 L 680,272 L 679,272 L 678,271 L 677,271 L 677,270 L 676,270 L 676,269 L 675,269 L 675,270 L 674,271 L 673,271 L 673,270 L 672,270 L 672,269 L 671,269 L 671,270 L 671,271 L 672,271 L 672,272 L 672,273 L 672,274 L 672,275 L 672,276 L 671,277 L 671,278 L 671,279 L 671,280 L 671,281 L 670,282 L 670,283 L 669,283 L 668,283 L 667,284 L 666,284 L 665,285 L 665,286 L 665,287 L 665,288 L 666,288 L 667,288 L 668,289 L 669,289 L 670,290 L 671,290 L 672,290 L 672,291 L 673,291 L 673,292 L 673,293 L 674,294 L 675,295 L 675,296 L 674,296 L 674,297 L 673,297 L 673,298 L 674,298 L 675,298 L 676,298 L 676,299 L 677,300 L 678,300 L 679,300 L 679,301 L 680,302 L 680,303 L 681,303 L 681,304 L 682,305 L 682,306 L 683,306 L 687,306 L 687,307 L 688,308 L 688,309 L 689,309 L 689,310 L 690,310 L 690,311 L 691,311 L 692,311 L 693,310 L 694,310 L 695,310 L 695,309 L 696,309 L 696,308 L 697,307 L 698,307 L 698,306 L 699,306 L 700,306 L 700,307 L 701,307 L 701,308 L 702,308 L 702,309 L 703,310 L 703,311 L 704,311 L 704,312 L 705,313 L 706,313 L 706,314 L 707,314 L 707,315 L 707,316 L 708,316 L 708,317 L 709,317 L 710,317 L 710,318 L 711,318 L 712,318 L 712,319 L 713,319 L 713,320 L 713,321 L 714,321 L 714,320 L 715,320 L 716,320 L 716,319 L 717,319 L 718,319 L 718,318 L 719,318 L 720,318 L 720,319 L 719,319 L 720,319 L 720,320 L 721,320 L 721,319 L 722,319 L 723,319 L 724,319 L 724,320 L 725,321 L 725,320 L 726,320 L 726,321 L 727,321 L 727,320 L 728,321 L 729,321 L 729,320 L 730,320 L 730,319 L 731,319 L 731,320 L 732,320 L 733,320 L 733,321 L 734,321 L 734,322 L 734,321 L 735,321 L 735,322 L 736,322 L 737,322 L 738,322 L 738,323 L 738,322 L 738,323 L 738,322 L 739,323 L 740,323 L 741,323 L 741,322 L 741,323 L 742,323 L 742,322 L 743,322 L 743,323 L 743,324 L 743,325 L 743,326 L 744,326 L 744,327 L 745,328 L 744,328 L 744,329 L 743,329 L 743,330 L 742,330 L 742,331 L 742,332 L 742,333 L 742,334 L 741,335 L 742,335 L 742,336 L 742,337 L 742,338 L 742,339 L 741,339 L 741,340 L 740,341 L 739,342 L 739,343 L 739,344 L 740,344 L 740,345 L 740,346 L 740,347 L 740,348 L 740,349 L 740,350 L 741,350 L 741,351 L 741,352 L 741,353 L 741,354 L 741,355 L 740,356 L 740,357 L 740,358 L 740,359 L 741,359 L 741,360 L 741,361 L 741,362 L 741,363 L 740,364 L 740,365 L 739,365 L 739,366 L 738,366 L 737,367 L 736,367 L 735,368 L 734,368 L 734,369 L 735,369 L 735,370 L 735,371 L 736,371 L 736,372 L 736,373 L 735,373 L 734,374 L 733,374 L 732,374 L 732,373 L 731,372 L 730,371 L 729,370 L 729,371 L 728,371 L 727,371 L 726,371 L 726,372 L 725,371 L 724,371 L 723,371 L 722,371 L 721,371 L 720,371 L 719,371 L 719,370 L 718,370 L 717,370 L 716,370 L 715,370 L 714,370 L 713,370 L 713,369 L 712,369 L 711,369 L 710,369 L 709,369 L 708,368 L 707,368 L 706,367 L 705,367 L 705,366 L 704,366 L 704,365 L 703,365 L 702,364 L 701,363 L 700,362 L 700,361 L 700,360 L 699,360 L 698,360 L 697,360 L 696,360 L 695,360 L 694,360 L 693,360 L 693,359 L 693,358 L 692,359 L 692,358 L 692,357 L 692,356 L 691,356 L 691,357 L 690,357 L 690,356 L 689,356 L 688,356 L 688,355 L 688,356 L 687,356 L 686,356 L 687,355 L 686,354 L 686,353 L 686,352 L 685,352 L 685,351 L 684,351 L 684,350 L 683,349 L 683,348 L 682,348 L 682,347 L 683,347 L 682,346 L 681,346 L 681,345 L 681,344 L 681,343 L 680,343 L 680,342 L 679,342 L 679,341 L 678,341 L 678,342 L 677,342 L 676,343 L 675,344 L 674,345 L 673,345 L 673,346 L 672,347 L 671,348 L 670,349 L 669,351 L 668,351 L 668,352 L 667,352 L 665,353 L 664,353 L 662,354 L 661,354 L 658,355 L 657,355 L 656,355 L 656,356 L 655,356 L 654,356 L 653,356 L 651,356 L 649,356 L 649,353 L 649,351 L 649,350 L 650,350 L 651,349 L 652,349 L 653,349 L 655,349 L 655,348 L 656,348 L 656,347 L 657,346 L 658,346 L 659,347 L 659,346 L 660,345 L 661,345 L 661,344 L 662,344 L 663,343 L 663,342 L 664,341 L 663,341 L 662,341 L 661,342 L 660,342 L 659,342 L 658,342 L 657,342 L 657,341 L 656,341 L 655,341 L 653,340 L 652,340 L 652,338 L 652,337 L 651,336 L 650,335 L 649,334 L 648,334 L 646,335 L 645,335 L 643,336 L 642,337 L 641,337 L 639,338 L 638,336 L 637,336 L 636,337 L 635,337 L 634,337 L 634,336 L 633,336 L 633,335 L 632,335 L 631,335 L 631,334 L 630,334 L 630,333 L 630,332 L 629,332 L 628,332 L 627,332 L 626,332 L 626,331 L 626,330 L 627,329 L 627,327 L 627,326 L 628,325 L 629,324 L 630,323 L 630,322 L 630,321 L 629,321 L 629,320 L 629,319 L 628,319 L 627,318 L 627,317 L 627,316 L 627,315 L 627,314 L 627,313 L 627,312 L 627,309 L 628,309 L 629,310 L 630,310 L 631,310 L 633,310 L 634,309 L 634,308 L 635,308 L 636,307 L 636,306 L 637,306 L 638,306 L 638,307 L 638,306 L 638,304 L 637,301 L 638,300 L 638,299 L 637,298 L 636,298 L 635,297 L 634,298 L 633,297 L 632,297 L 631,297 L 630,298 L 629,297 L 630,296 L 630,295 L 630,294 L 629,294 L 628,294 L 628,293 L 628,292 L 629,292 L 630,293 L 631,293 L 632,292 L 633,291 L 633,290 L 633,289 L 632,288 L 631,287 L 630,286 L 629,287 L 628,287 L 628,286 L 629,285 L 630,284 L 630,283 L 630,282 L 631,281 L 631,280 L 632,279 L 633,279 L 633,278 L 634,278 L 635,278 L 636,278 L 636,277 L 635,276 L 635,275 L 635,274 L 635,273 L 636,272 L 636,271 L 636,270 L 636,269 L 636,268 L 636,267 L 637,266 L 637,265 L 637,264 L 637,263 L 637,262 L 638,262 L 639,262 L 640,262 L 640,261 L 641,261 L 642,261 L 642,260 L 643,260 L 643,259 L 644,258 L 644,257 L 644,256 L 644,255 L 644,254 L 644,253 L 644,252 L 643,252 L 643,251 L 642,251 L 641,251 L 640,250 L 641,250 L 642,249 L 643,248 L 643,247 L 644,247 L 645,246 L 645,245 L 645,244 L 645,243 L 645,242 L 646,241 L 646,240 L 646,241 L 647,241 L 647,242 L 647,243 L 646,244 L 646,245 L 647,245 L 647,246 L 648,246 L 648,247 L 649,248 L 650,248 L 651,247 L 652,247 L 652,246 L 652,245 L 652,244 L 652,245 L 653,245 L 654,245 L 655,245 L 656,245 L 656,246 L 657,246 L 657,245 L 657,244 L 657,243 L 658,243 L 659,243 L 659,242 L 659,241 L 660,241 L 660,240 L 661,240 L 662,240 L 662,241 L 663,242 L 664,241 L 665,240 L 665,237 L 666,236 L 667,236 L 668,236 L 668,235 L 667,235 L 666,234 L 665,233 L 665,232 L 665,231 L 665,230 L 664,230 L 663,229 L 664,228 L 664,227 L 665,226 L 666,225 L 666,226 L 667,226 L 667,227 L 668,227 " />
</g>
<g id="305" class="st0 dist-block" inkscape:label="Tikabali">
<path d="M 661,160 L 661,161 L 662,161 L 661,162 L 661,163 L 661,164 L 660,164 L 659,164 L 659,165 L 659,166 L 659,167 L 659,168 L 660,168 L 660,169 L 661,169 L 661,170 L 662,170 L 662,169 L 663,169 L 664,169 L 665,169 L 666,170 L 665,170 L 664,171 L 664,172 L 665,172 L 665,171 L 666,171 L 667,171 L 668,171 L 668,172 L 667,172 L 667,173 L 668,174 L 669,174 L 670,173 L 671,174 L 672,175 L 672,176 L 672,177 L 673,178 L 674,178 L 674,179 L 675,179 L 676,179 L 677,179 L 678,179 L 679,179 L 680,180 L 680,181 L 681,182 L 681,183 L 682,183 L 682,184 L 683,184 L 684,184 L 685,184 L 686,184 L 686,185 L 687,185 L 687,186 L 687,187 L 688,188 L 689,187 L 690,186 L 691,186 L 692,187 L 693,187 L 693,188 L 694,188 L 695,188 L 696,187 L 696,186 L 696,185 L 696,184 L 696,183 L 697,183 L 698,184 L 698,185 L 698,186 L 699,186 L 699,187 L 699,188 L 700,188 L 700,189 L 701,189 L 702,189 L 702,188 L 703,188 L 703,187 L 704,187 L 705,187 L 706,186 L 706,185 L 707,184 L 707,183 L 706,182 L 706,181 L 707,180 L 707,179 L 705,179 L 705,178 L 704,178 L 704,177 L 705,176 L 704,176 L 703,176 L 703,175 L 703,174 L 703,173 L 704,172 L 705,172 L 705,171 L 705,170 L 706,169 L 707,170 L 708,170 L 708,169 L 708,168 L 708,167 L 708,166 L 708,165 L 708,164 L 708,165 L 709,165 L 709,166 L 710,166 L 710,165 L 710,164 L 710,163 L 710,162 L 711,162 L 711,161 L 712,161 L 712,162 L 712,163 L 712,165 L 713,165 L 713,166 L 712,167 L 712,168 L 713,168 L 714,168 L 715,168 L 715,169 L 715,170 L 716,170 L 716,171 L 717,171 L 718,171 L 718,172 L 718,173 L 719,173 L 719,172 L 720,171 L 721,170 L 722,170 L 722,169 L 723,168 L 724,167 L 724,166 L 725,166 L 726,167 L 725,168 L 724,169 L 724,170 L 724,171 L 724,172 L 725,172 L 725,173 L 725,174 L 725,175 L 725,176 L 724,177 L 724,178 L 724,179 L 724,180 L 724,181 L 724,182 L 724,183 L 724,184 L 724,185 L 725,185 L 726,186 L 726,187 L 727,189 L 727,190 L 727,191 L 727,192 L 727,194 L 727,195 L 726,197 L 726,196 L 726,195 L 726,194 L 725,194 L 724,193 L 723,192 L 723,191 L 723,190 L 722,190 L 721,190 L 720,190 L 720,191 L 719,191 L 718,192 L 718,193 L 719,194 L 719,195 L 718,195 L 718,196 L 718,197 L 717,197 L 716,197 L 715,197 L 715,198 L 714,198 L 715,199 L 715,200 L 715,201 L 714,201 L 713,201 L 713,202 L 712,202 L 712,201 L 711,201 L 710,201 L 709,201 L 708,201 L 708,202 L 709,202 L 709,203 L 710,203 L 709,203 L 708,203 L 708,202 L 707,202 L 706,202 L 705,202 L 704,202 L 704,203 L 703,203 L 703,204 L 704,205 L 705,205 L 706,205 L 707,205 L 707,204 L 708,204 L 709,204 L 709,205 L 709,206 L 710,206 L 711,207 L 711,208 L 712,208 L 712,209 L 713,210 L 714,211 L 714,212 L 715,212 L 715,213 L 715,214 L 716,215 L 716,216 L 716,217 L 716,218 L 716,219 L 716,220 L 717,220 L 717,221 L 717,222 L 717,223 L 718,224 L 718,225 L 717,226 L 718,226 L 718,227 L 718,228 L 719,229 L 720,230 L 721,230 L 722,230 L 722,231 L 722,232 L 722,233 L 721,234 L 721,235 L 720,235 L 720,236 L 721,237 L 721,238 L 720,238 L 719,238 L 718,237 L 717,237 L 716,237 L 716,236 L 716,235 L 715,235 L 715,236 L 715,237 L 715,238 L 715,239 L 714,239 L 713,240 L 713,241 L 712,241 L 712,242 L 711,242 L 710,242 L 709,242 L 709,243 L 708,243 L 708,244 L 707,244 L 706,245 L 705,245 L 705,244 L 705,243 L 704,242 L 704,241 L 704,240 L 705,240 L 705,239 L 706,238 L 706,237 L 705,237 L 705,236 L 704,236 L 704,237 L 703,237 L 703,236 L 702,236 L 701,236 L 700,237 L 699,237 L 698,238 L 697,238 L 696,238 L 695,238 L 695,237 L 694,238 L 694,239 L 693,239 L 693,240 L 692,240 L 692,241 L 691,241 L 690,241 L 689,239 L 688,239 L 687,240 L 686,240 L 685,240 L 685,241 L 684,241 L 683,240 L 682,240 L 683,240 L 683,239 L 684,239 L 684,238 L 684,237 L 683,237 L 683,236 L 684,235 L 685,235 L 686,235 L 686,234 L 685,234 L 685,233 L 684,233 L 683,233 L 682,232 L 681,231 L 681,230 L 681,229 L 680,229 L 680,228 L 679,228 L 679,227 L 678,228 L 677,228 L 676,228 L 675,228 L 674,228 L 674,229 L 673,229 L 672,229 L 672,228 L 671,228 L 670,227 L 669,227 L 669,228 L 668,227 L 667,227 L 667,226 L 666,226 L 666,225 L 665,226 L 664,227 L 664,228 L 663,229 L 664,230 L 665,230 L 665,231 L 665,232 L 665,233 L 666,234 L 667,235 L 668,235 L 668,236 L 667,236 L 666,236 L 665,237 L 665,240 L 664,241 L 663,242 L 662,241 L 662,240 L 661,240 L 660,240 L 660,241 L 659,241 L 659,242 L 659,243 L 658,243 L 657,243 L 657,244 L 657,245 L 657,246 L 656,246 L 656,245 L 655,245 L 654,245 L 653,245 L 652,245 L 652,244 L 652,245 L 652,246 L 652,247 L 651,247 L 650,248 L 649,248 L 648,247 L 648,246 L 647,246 L 647,245 L 646,245 L 646,244 L 647,243 L 647,242 L 647,241 L 646,241 L 646,240 L 645,240 L 644,240 L 643,239 L 642,238 L 641,237 L 641,236 L 642,236 L 642,235 L 642,234 L 641,234 L 641,233 L 640,233 L 639,233 L 639,234 L 638,234 L 638,235 L 638,236 L 638,237 L 639,238 L 640,238 L 641,239 L 642,240 L 642,241 L 642,242 L 642,243 L 641,243 L 640,242 L 639,242 L 639,241 L 639,240 L 638,239 L 638,238 L 637,237 L 636,236 L 636,237 L 635,237 L 634,237 L 634,238 L 633,238 L 632,238 L 632,237 L 632,236 L 633,235 L 633,234 L 633,233 L 634,233 L 634,232 L 633,232 L 633,231 L 632,231 L 631,231 L 631,230 L 631,229 L 631,228 L 631,227 L 630,226 L 629,225 L 628,224 L 627,223 L 627,222 L 626,221 L 626,220 L 625,218 L 625,217 L 625,216 L 624,214 L 624,213 L 624,212 L 624,211 L 624,210 L 624,209 L 625,209 L 626,209 L 626,210 L 627,210 L 626,211 L 627,211 L 628,211 L 628,210 L 629,210 L 629,209 L 630,209 L 631,209 L 631,210 L 631,209 L 631,208 L 631,207 L 631,206 L 631,207 L 632,208 L 633,208 L 633,209 L 634,209 L 635,209 L 636,209 L 637,209 L 638,209 L 639,209 L 639,208 L 640,208 L 640,207 L 640,206 L 640,205 L 641,205 L 642,205 L 643,204 L 643,203 L 644,203 L 645,203 L 645,202 L 645,201 L 646,200 L 646,199 L 646,198 L 647,197 L 647,196 L 647,195 L 647,194 L 647,193 L 647,192 L 647,191 L 647,190 L 648,190 L 648,189 L 648,188 L 649,188 L 649,187 L 649,186 L 649,185 L 649,184 L 649,183 L 648,183 L 649,182 L 648,182 L 648,181 L 648,180 L 647,180 L 646,180 L 646,179 L 645,178 L 645,177 L 646,176 L 645,175 L 646,175 L 645,175 L 645,174 L 645,175 L 645,176 L 644,176 L 643,177 L 642,177 L 641,177 L 641,178 L 640,178 L 639,178 L 638,178 L 637,178 L 637,177 L 636,177 L 637,176 L 637,177 L 638,177 L 639,177 L 640,177 L 640,176 L 640,175 L 641,175 L 641,174 L 642,174 L 643,174 L 644,173 L 644,172 L 644,171 L 645,171 L 645,170 L 645,169 L 646,167 L 646,166 L 647,165 L 647,164 L 648,164 L 648,163 L 649,162 L 651,160 L 651,161 L 652,162 L 653,162 L 653,161 L 654,161 L 656,160 L 657,160 L 658,160 L 659,159 L 659,160 L 660,159 L 660,158 L 660,159 L 661,160 " />
<path d="M 685,196 L 685,197 L 684,198 L 683,198 L 682,199 L 682,200 L 682,201 L 682,202 L 681,203 L 681,204 L 681,205 L 681,206 L 681,207 L 682,209 L 682,210 L 682,211 L 683,211 L 684,211 L 685,212 L 685,211 L 685,210 L 685,209 L 686,209 L 687,209 L 688,209 L 690,209 L 691,209 L 692,208 L 693,208 L 694,208 L 695,208 L 695,209 L 695,210 L 695,211 L 696,211 L 697,211 L 697,212 L 698,212 L 699,212 L 700,211 L 700,210 L 700,209 L 699,209 L 699,208 L 699,207 L 699,206 L 698,205 L 698,204 L 698,203 L 698,202 L 697,202 L 696,202 L 695,201 L 694,201 L 693,200 L 693,199 L 693,198 L 693,197 L 693,196 L 693,195 L 692,196 L 691,196 L 690,196 L 690,195 L 689,195 L 688,195 L 688,194 L 688,193 L 687,192 L 686,193 L 686,194 L 686,195 L 685,196 " />
</g>
<g id="310" class="st0 dist-block" inkscape:label="Tumudibandh">
<path d="M 456,248 L 456,249 L 457,249 L 456,249 L 455,250 L 455,251 L 455,252 L 455,253 L 454,253 L 454,254 L 454,255 L 454,256 L 455,256 L 455,257 L 455,256 L 456,256 L 456,257 L 457,257 L 458,257 L 458,256 L 459,256 L 459,257 L 460,258 L 461,258 L 462,258 L 463,258 L 464,258 L 464,257 L 465,257 L 466,257 L 466,258 L 465,258 L 465,259 L 465,260 L 465,261 L 465,262 L 464,262 L 464,263 L 464,264 L 464,265 L 464,266 L 465,266 L 466,266 L 467,266 L 467,265 L 468,265 L 469,265 L 469,266 L 469,267 L 468,267 L 467,267 L 467,268 L 467,269 L 466,269 L 466,270 L 465,270 L 465,271 L 464,272 L 464,273 L 464,274 L 464,275 L 464,276 L 465,276 L 465,277 L 466,278 L 466,279 L 467,280 L 467,281 L 468,281 L 468,280 L 469,280 L 469,281 L 470,281 L 470,282 L 470,283 L 471,283 L 471,284 L 471,285 L 472,285 L 472,286 L 473,287 L 474,288 L 475,288 L 475,289 L 476,289 L 476,290 L 477,290 L 478,290 L 478,291 L 479,291 L 478,291 L 478,292 L 478,293 L 477,293 L 478,294 L 478,295 L 478,296 L 478,297 L 478,298 L 478,299 L 479,299 L 480,299 L 480,300 L 479,301 L 479,302 L 480,302 L 482,303 L 484,304 L 485,304 L 486,304 L 490,305 L 493,306 L 494,306 L 495,306 L 496,306 L 497,306 L 497,307 L 496,308 L 496,309 L 495,309 L 494,309 L 493,310 L 493,311 L 493,312 L 492,313 L 492,314 L 493,314 L 493,315 L 492,315 L 492,316 L 493,317 L 494,316 L 495,315 L 496,316 L 496,317 L 496,318 L 497,318 L 497,319 L 497,320 L 498,320 L 498,321 L 498,322 L 498,323 L 499,324 L 498,324 L 497,324 L 496,324 L 495,324 L 494,325 L 494,326 L 493,327 L 493,328 L 493,329 L 493,331 L 493,332 L 492,333 L 491,333 L 491,334 L 490,334 L 489,335 L 488,336 L 485,336 L 484,337 L 482,338 L 481,338 L 480,338 L 479,339 L 478,340 L 477,340 L 476,340 L 475,340 L 475,341 L 474,341 L 474,342 L 473,343 L 473,344 L 473,345 L 474,346 L 474,347 L 474,348 L 474,349 L 473,349 L 473,350 L 472,352 L 472,353 L 471,354 L 470,355 L 470,356 L 469,356 L 468,356 L 467,356 L 466,355 L 466,354 L 465,354 L 465,355 L 464,355 L 463,355 L 463,354 L 463,353 L 463,352 L 463,351 L 462,351 L 461,351 L 460,351 L 459,351 L 458,351 L 458,350 L 458,349 L 458,348 L 458,347 L 457,345 L 457,344 L 457,343 L 458,343 L 458,342 L 458,341 L 458,340 L 458,339 L 458,338 L 457,338 L 456,338 L 456,337 L 456,336 L 456,335 L 455,334 L 455,333 L 455,332 L 454,331 L 454,330 L 453,329 L 453,328 L 453,327 L 453,326 L 452,325 L 452,324 L 451,324 L 450,324 L 449,324 L 449,325 L 448,325 L 447,326 L 447,327 L 446,327 L 445,328 L 444,328 L 444,329 L 444,330 L 444,331 L 444,332 L 443,333 L 443,334 L 443,335 L 442,336 L 442,337 L 442,338 L 442,339 L 441,340 L 440,340 L 440,341 L 439,341 L 438,341 L 438,342 L 437,342 L 437,341 L 436,341 L 435,341 L 434,341 L 433,342 L 433,343 L 432,344 L 432,346 L 433,346 L 433,347 L 433,348 L 432,349 L 433,351 L 433,352 L 433,353 L 433,354 L 433,355 L 432,356 L 431,358 L 431,359 L 430,359 L 430,360 L 429,361 L 428,362 L 427,363 L 426,364 L 425,365 L 425,366 L 424,366 L 424,367 L 424,368 L 423,368 L 423,370 L 422,372 L 422,373 L 422,374 L 421,374 L 421,375 L 421,376 L 421,377 L 420,378 L 420,379 L 419,381 L 419,383 L 418,384 L 418,385 L 417,386 L 417,387 L 417,388 L 416,389 L 416,390 L 416,391 L 415,392 L 415,394 L 414,395 L 413,396 L 412,395 L 411,395 L 410,395 L 409,395 L 408,395 L 408,394 L 407,394 L 407,395 L 406,394 L 404,394 L 405,393 L 405,392 L 405,391 L 406,390 L 405,389 L 405,388 L 404,387 L 404,386 L 404,385 L 404,384 L 404,383 L 404,382 L 403,382 L 403,381 L 403,380 L 404,380 L 405,379 L 405,378 L 405,377 L 405,376 L 405,375 L 404,374 L 403,374 L 402,374 L 401,374 L 400,374 L 400,373 L 399,373 L 399,372 L 399,371 L 399,370 L 399,369 L 399,368 L 398,368 L 398,367 L 397,367 L 397,368 L 396,368 L 396,369 L 395,370 L 394,370 L 393,371 L 392,371 L 392,370 L 391,370 L 390,370 L 390,369 L 389,369 L 388,369 L 388,368 L 387,368 L 386,368 L 385,367 L 384,367 L 383,366 L 382,366 L 382,365 L 381,365 L 380,364 L 379,364 L 378,364 L 377,364 L 376,363 L 375,363 L 375,362 L 374,362 L 374,361 L 374,360 L 373,360 L 374,359 L 373,359 L 373,358 L 373,357 L 372,357 L 372,356 L 371,356 L 371,357 L 371,358 L 370,358 L 369,358 L 369,357 L 369,356 L 369,355 L 369,354 L 369,353 L 369,352 L 369,351 L 369,350 L 369,349 L 369,348 L 369,347 L 370,347 L 370,346 L 371,346 L 371,345 L 371,344 L 372,343 L 372,342 L 373,342 L 373,341 L 373,340 L 374,339 L 375,338 L 376,337 L 377,337 L 378,336 L 379,335 L 379,334 L 380,334 L 380,333 L 380,332 L 380,331 L 381,331 L 381,330 L 382,329 L 382,328 L 382,327 L 382,326 L 381,326 L 380,326 L 380,325 L 379,325 L 379,324 L 378,323 L 377,323 L 377,322 L 376,322 L 375,322 L 375,321 L 374,321 L 374,320 L 373,320 L 373,319 L 372,319 L 372,318 L 371,318 L 370,318 L 370,317 L 369,317 L 368,317 L 368,316 L 367,316 L 366,316 L 365,315 L 364,315 L 363,315 L 363,314 L 362,314 L 361,313 L 360,313 L 359,313 L 358,313 L 357,313 L 357,312 L 357,311 L 358,310 L 358,309 L 359,309 L 359,308 L 360,308 L 360,307 L 360,306 L 360,305 L 360,303 L 360,302 L 359,302 L 359,301 L 359,300 L 359,299 L 359,298 L 360,298 L 360,297 L 361,297 L 361,296 L 362,295 L 362,294 L 363,294 L 363,293 L 364,293 L 364,292 L 365,292 L 365,291 L 366,291 L 367,290 L 368,290 L 368,289 L 369,289 L 370,289 L 371,289 L 372,288 L 373,288 L 374,288 L 375,288 L 375,287 L 376,287 L 376,286 L 377,285 L 377,284 L 378,283 L 378,282 L 379,281 L 379,280 L 379,279 L 379,278 L 379,277 L 380,276 L 380,275 L 381,275 L 381,274 L 382,274 L 382,275 L 383,275 L 384,275 L 385,275 L 385,274 L 386,274 L 386,273 L 387,273 L 387,272 L 387,271 L 388,270 L 389,270 L 389,269 L 388,269 L 388,268 L 387,268 L 387,267 L 386,266 L 387,266 L 387,265 L 388,265 L 388,264 L 389,264 L 390,264 L 390,263 L 389,263 L 389,262 L 389,261 L 388,261 L 388,260 L 389,260 L 390,260 L 391,260 L 391,259 L 392,259 L 393,259 L 393,258 L 392,257 L 391,256 L 392,256 L 393,256 L 394,256 L 394,255 L 395,255 L 395,254 L 394,254 L 394,253 L 393,253 L 393,252 L 394,252 L 394,251 L 393,251 L 392,251 L 393,250 L 393,249 L 394,249 L 395,249 L 396,250 L 397,250 L 398,251 L 399,252 L 399,253 L 400,253 L 401,253 L 402,253 L 403,253 L 404,253 L 405,253 L 406,253 L 406,254 L 406,255 L 406,256 L 407,256 L 408,256 L 409,256 L 410,257 L 411,257 L 411,258 L 412,259 L 413,260 L 414,260 L 415,259 L 416,258 L 417,258 L 417,257 L 418,257 L 418,256 L 419,256 L 420,255 L 421,255 L 421,254 L 422,254 L 423,253 L 424,253 L 424,252 L 425,252 L 426,251 L 427,251 L 428,251 L 429,251 L 430,251 L 431,251 L 432,251 L 432,252 L 433,252 L 433,253 L 434,253 L 434,254 L 435,254 L 436,255 L 437,255 L 438,255 L 438,256 L 439,256 L 440,256 L 440,255 L 441,255 L 442,255 L 443,255 L 444,255 L 445,254 L 445,253 L 446,252 L 446,251 L 447,251 L 448,251 L 448,252 L 449,252 L 449,251 L 449,250 L 450,250 L 450,249 L 451,248 L 452,248 L 453,248 L 454,248 L 454,247 L 455,247 L 455,248 L 456,248 " />
<path d="M 447,249 L 447,248 L 446,247 L 446,246 L 447,246 L 448,246 L 449,246 L 449,247 L 449,249 L 447,249 " />
</g>
<g id="165" class="st0 dist-block" inkscape:label="Khajuripada">
<path d="M 700,20 L 701,20 L 702,20 L 703,20 L 704,19 L 705,19 L 705,20 L 705,21 L 705,22 L 705,23 L 706,23 L 706,24 L 706,25 L 707,25 L 707,26 L 708,26 L 708,27 L 709,27 L 709,28 L 710,28 L 710,29 L 710,30 L 711,30 L 711,31 L 711,32 L 711,33 L 710,33 L 710,34 L 710,35 L 710,36 L 710,37 L 711,38 L 711,39 L 712,39 L 712,40 L 713,41 L 713,42 L 713,43 L 713,44 L 713,45 L 713,46 L 714,47 L 714,48 L 715,49 L 715,50 L 714,51 L 714,52 L 714,53 L 713,54 L 713,55 L 714,55 L 714,56 L 714,57 L 715,57 L 715,58 L 715,59 L 716,59 L 717,58 L 718,58 L 718,59 L 719,59 L 719,60 L 719,61 L 719,62 L 718,63 L 717,63 L 716,63 L 715,63 L 715,64 L 714,65 L 714,66 L 714,67 L 714,68 L 715,69 L 715,70 L 716,71 L 716,72 L 717,73 L 717,74 L 717,75 L 717,76 L 717,77 L 716,78 L 716,79 L 717,79 L 718,80 L 719,80 L 720,80 L 721,80 L 722,80 L 723,81 L 724,82 L 724,83 L 725,83 L 726,83 L 727,83 L 728,83 L 728,84 L 729,84 L 729,85 L 730,85 L 731,86 L 732,86 L 732,87 L 733,87 L 734,88 L 734,89 L 734,90 L 735,91 L 735,92 L 734,93 L 734,94 L 733,94 L 733,95 L 732,95 L 732,96 L 732,97 L 731,97 L 731,98 L 731,99 L 732,99 L 732,100 L 733,101 L 734,101 L 735,101 L 736,102 L 737,102 L 737,103 L 737,104 L 738,105 L 738,106 L 739,106 L 740,107 L 741,107 L 742,107 L 742,106 L 743,106 L 743,107 L 743,108 L 743,109 L 744,109 L 744,110 L 744,111 L 745,111 L 745,112 L 745,113 L 746,114 L 746,115 L 746,116 L 746,117 L 746,118 L 746,119 L 745,120 L 744,120 L 744,121 L 744,122 L 744,123 L 744,124 L 744,125 L 745,125 L 745,126 L 745,127 L 745,128 L 745,129 L 745,130 L 745,131 L 745,132 L 745,133 L 744,133 L 744,134 L 745,134 L 745,135 L 745,136 L 746,136 L 746,137 L 747,137 L 747,138 L 747,139 L 748,139 L 749,140 L 750,140 L 751,140 L 751,141 L 752,141 L 753,141 L 753,140 L 754,140 L 754,139 L 755,140 L 755,141 L 755,143 L 755,144 L 754,145 L 754,146 L 754,147 L 754,148 L 753,149 L 752,149 L 750,150 L 749,150 L 748,151 L 747,151 L 747,152 L 746,153 L 746,154 L 746,155 L 745,156 L 744,156 L 744,155 L 744,154 L 743,154 L 742,153 L 741,153 L 740,153 L 739,153 L 739,154 L 738,155 L 738,156 L 737,157 L 736,157 L 734,157 L 733,158 L 733,159 L 732,159 L 731,160 L 730,160 L 729,160 L 728,160 L 728,161 L 727,161 L 726,161 L 726,160 L 725,160 L 725,159 L 724,159 L 724,158 L 723,157 L 722,157 L 722,156 L 721,156 L 721,155 L 721,154 L 721,153 L 720,153 L 720,152 L 719,152 L 718,151 L 717,150 L 716,149 L 715,148 L 715,147 L 714,147 L 713,146 L 713,145 L 712,145 L 711,145 L 710,145 L 709,145 L 707,144 L 706,143 L 706,142 L 705,142 L 704,141 L 704,140 L 704,139 L 703,139 L 702,138 L 702,137 L 702,136 L 701,136 L 701,137 L 700,137 L 700,138 L 699,139 L 698,140 L 697,140 L 696,140 L 695,141 L 695,142 L 694,142 L 694,143 L 693,143 L 693,144 L 692,144 L 692,145 L 691,145 L 691,146 L 690,147 L 689,148 L 688,148 L 687,148 L 687,147 L 686,146 L 685,145 L 684,144 L 684,143 L 683,143 L 683,142 L 682,142 L 681,141 L 680,141 L 679,141 L 678,141 L 677,141 L 676,140 L 676,139 L 676,138 L 675,138 L 675,137 L 674,137 L 673,136 L 672,135 L 671,135 L 670,135 L 669,135 L 668,135 L 667,135 L 666,134 L 666,133 L 667,133 L 667,132 L 667,131 L 666,131 L 666,130 L 665,130 L 665,129 L 665,128 L 665,127 L 666,127 L 666,126 L 666,125 L 666,124 L 665,124 L 664,124 L 665,123 L 665,122 L 666,122 L 666,121 L 665,121 L 664,121 L 663,121 L 662,122 L 661,122 L 661,123 L 661,122 L 660,121 L 660,120 L 660,119 L 659,119 L 659,118 L 658,118 L 657,118 L 657,119 L 656,119 L 655,119 L 655,118 L 655,117 L 655,116 L 656,115 L 657,114 L 658,114 L 659,114 L 660,113 L 661,113 L 662,112 L 662,111 L 662,110 L 661,110 L 660,109 L 659,108 L 658,108 L 658,107 L 658,106 L 658,105 L 658,104 L 658,103 L 658,102 L 658,101 L 658,100 L 658,99 L 658,98 L 658,97 L 658,96 L 658,95 L 658,94 L 658,93 L 659,93 L 660,93 L 661,92 L 662,92 L 663,91 L 664,91 L 666,91 L 667,91 L 668,92 L 668,93 L 668,94 L 669,94 L 669,95 L 670,95 L 671,95 L 672,95 L 673,95 L 673,94 L 672,93 L 671,92 L 670,91 L 669,91 L 668,91 L 668,90 L 667,90 L 667,89 L 667,88 L 666,88 L 666,89 L 666,90 L 665,90 L 664,90 L 664,89 L 664,88 L 664,87 L 665,87 L 665,86 L 664,85 L 663,85 L 663,84 L 663,85 L 662,85 L 661,85 L 661,84 L 660,84 L 661,83 L 661,82 L 661,81 L 660,81 L 659,81 L 659,80 L 658,80 L 657,80 L 656,79 L 655,79 L 654,78 L 653,77 L 652,77 L 652,76 L 652,75 L 651,75 L 650,76 L 649,76 L 648,76 L 648,77 L 647,77 L 646,77 L 645,77 L 644,76 L 643,76 L 642,76 L 641,75 L 641,74 L 641,73 L 640,72 L 639,72 L 638,73 L 638,74 L 637,74 L 637,73 L 636,73 L 637,72 L 638,71 L 638,70 L 638,69 L 639,68 L 639,67 L 638,66 L 638,65 L 638,64 L 638,63 L 638,62 L 638,61 L 638,60 L 637,59 L 636,59 L 635,58 L 635,57 L 634,56 L 634,55 L 633,55 L 632,55 L 631,54 L 631,53 L 632,53 L 632,52 L 633,52 L 634,52 L 635,53 L 635,54 L 636,54 L 636,55 L 637,55 L 638,55 L 639,55 L 639,54 L 640,54 L 641,55 L 642,55 L 643,55 L 644,55 L 645,55 L 646,55 L 646,56 L 647,56 L 648,56 L 649,56 L 650,56 L 651,56 L 652,56 L 653,56 L 653,55 L 654,55 L 654,54 L 655,54 L 655,53 L 656,53 L 656,52 L 657,51 L 658,51 L 658,50 L 659,50 L 660,50 L 661,50 L 661,49 L 662,49 L 663,49 L 664,49 L 664,48 L 665,48 L 665,47 L 664,47 L 665,47 L 665,46 L 666,45 L 666,44 L 667,44 L 667,43 L 667,42 L 668,42 L 667,41 L 667,40 L 668,39 L 668,38 L 669,37 L 669,36 L 670,36 L 670,35 L 671,34 L 671,33 L 672,33 L 672,34 L 673,34 L 674,34 L 674,33 L 674,32 L 674,31 L 674,30 L 674,29 L 674,28 L 673,27 L 673,26 L 673,25 L 673,24 L 673,23 L 672,23 L 672,22 L 672,21 L 672,20 L 673,19 L 673,18 L 674,18 L 675,18 L 675,17 L 676,17 L 676,16 L 677,15 L 678,15 L 678,14 L 679,14 L 679,13 L 680,13 L 681,13 L 682,12 L 683,12 L 684,12 L 685,12 L 686,12 L 687,11 L 688,11 L 689,11 L 689,12 L 690,12 L 691,12 L 692,12 L 693,12 L 694,13 L 695,14 L 695,15 L 696,15 L 697,15 L 697,16 L 698,16 L 698,17 L 698,18 L 697,18 L 697,19 L 698,19 L 699,20 L 700,20 " />
</g>
<g id="245" class="st0 dist-block" inkscape:label="Phiringia">
<path d="M 538,44 L 539,44 L 539,45 L 538,45 L 538,46 L 537,46 L 536,47 L 535,47 L 535,48 L 535,49 L 535,50 L 535,51 L 536,51 L 536,52 L 537,52 L 537,53 L 538,53 L 539,53 L 540,53 L 540,54 L 541,54 L 542,54 L 543,54 L 543,53 L 544,53 L 545,53 L 546,53 L 547,53 L 548,53 L 548,52 L 549,52 L 550,52 L 551,52 L 552,52 L 553,52 L 554,52 L 554,53 L 555,53 L 555,54 L 556,54 L 556,55 L 557,55 L 557,56 L 558,56 L 559,57 L 560,57 L 560,58 L 561,58 L 562,58 L 562,59 L 563,59 L 563,60 L 564,60 L 565,60 L 566,60 L 567,60 L 568,60 L 569,60 L 569,59 L 570,59 L 571,59 L 572,59 L 572,58 L 573,58 L 574,58 L 575,58 L 576,57 L 576,56 L 576,55 L 577,55 L 578,54 L 579,54 L 580,54 L 581,54 L 581,55 L 582,56 L 583,56 L 584,56 L 584,57 L 583,58 L 583,59 L 584,59 L 585,58 L 585,59 L 586,59 L 586,58 L 586,57 L 585,56 L 586,56 L 586,55 L 587,55 L 588,55 L 588,56 L 588,57 L 588,58 L 588,57 L 589,57 L 590,57 L 591,57 L 591,58 L 591,59 L 591,60 L 592,60 L 593,61 L 593,62 L 593,63 L 593,64 L 592,64 L 590,65 L 589,65 L 590,66 L 589,66 L 588,67 L 587,67 L 586,67 L 585,67 L 584,68 L 583,68 L 582,68 L 581,69 L 582,69 L 582,70 L 581,70 L 580,70 L 580,69 L 579,69 L 578,69 L 578,70 L 578,71 L 578,72 L 578,73 L 577,73 L 577,74 L 576,74 L 575,73 L 574,74 L 573,74 L 573,75 L 572,75 L 571,74 L 570,74 L 569,74 L 569,75 L 570,75 L 570,76 L 569,77 L 569,78 L 569,79 L 568,80 L 568,81 L 569,81 L 569,82 L 570,82 L 570,83 L 569,84 L 568,84 L 567,84 L 566,85 L 565,85 L 565,86 L 565,87 L 564,88 L 564,89 L 563,89 L 563,88 L 563,87 L 562,87 L 562,88 L 561,89 L 562,90 L 563,90 L 565,90 L 566,90 L 567,90 L 568,90 L 569,91 L 570,91 L 573,91 L 574,91 L 573,92 L 573,93 L 573,94 L 573,95 L 573,96 L 573,97 L 573,98 L 574,98 L 575,98 L 576,98 L 577,98 L 577,99 L 576,99 L 576,100 L 576,101 L 576,102 L 576,103 L 576,104 L 577,104 L 577,105 L 576,105 L 576,106 L 575,107 L 574,107 L 574,108 L 574,109 L 575,109 L 576,108 L 577,108 L 578,108 L 578,109 L 579,109 L 579,108 L 580,108 L 581,108 L 581,109 L 582,109 L 582,110 L 582,111 L 582,112 L 582,113 L 583,113 L 583,114 L 584,114 L 584,115 L 584,116 L 585,117 L 585,118 L 585,119 L 585,120 L 585,121 L 585,122 L 586,122 L 586,123 L 586,124 L 586,125 L 586,126 L 587,126 L 588,127 L 589,127 L 589,126 L 590,126 L 590,127 L 591,127 L 592,127 L 593,127 L 593,126 L 594,126 L 594,125 L 593,124 L 593,123 L 593,122 L 593,121 L 594,121 L 594,120 L 595,120 L 596,120 L 597,120 L 597,119 L 598,119 L 599,119 L 600,118 L 601,118 L 601,119 L 600,119 L 600,120 L 600,121 L 601,121 L 601,122 L 602,122 L 602,123 L 603,123 L 603,122 L 604,122 L 604,121 L 604,120 L 603,120 L 604,120 L 604,119 L 605,119 L 605,118 L 606,118 L 606,117 L 607,117 L 607,118 L 608,118 L 609,118 L 609,119 L 608,119 L 608,120 L 607,120 L 607,121 L 608,121 L 608,122 L 609,122 L 610,120 L 611,120 L 612,120 L 612,121 L 612,122 L 612,123 L 613,123 L 613,124 L 613,125 L 612,126 L 612,127 L 612,128 L 612,129 L 612,130 L 613,131 L 615,131 L 616,131 L 616,130 L 616,129 L 616,128 L 615,128 L 615,127 L 616,127 L 617,126 L 618,125 L 618,124 L 619,124 L 618,124 L 618,123 L 619,123 L 620,123 L 621,123 L 622,123 L 622,122 L 623,122 L 623,121 L 624,121 L 624,122 L 625,122 L 626,123 L 627,123 L 628,123 L 629,123 L 629,124 L 630,124 L 631,124 L 632,124 L 633,124 L 634,124 L 635,125 L 635,126 L 636,126 L 636,127 L 637,128 L 638,128 L 639,128 L 640,128 L 641,128 L 641,129 L 641,130 L 642,130 L 642,131 L 642,132 L 642,134 L 641,134 L 640,134 L 640,133 L 639,133 L 637,133 L 636,134 L 637,134 L 637,135 L 637,136 L 638,136 L 637,137 L 637,138 L 636,138 L 636,139 L 636,140 L 635,140 L 634,140 L 633,140 L 632,140 L 632,141 L 631,141 L 631,142 L 631,143 L 631,144 L 630,144 L 630,145 L 631,145 L 632,146 L 633,146 L 633,145 L 634,144 L 633,144 L 633,143 L 634,143 L 635,143 L 636,143 L 637,143 L 638,143 L 639,143 L 640,143 L 640,142 L 640,141 L 640,140 L 639,139 L 639,138 L 640,138 L 640,137 L 640,138 L 641,138 L 641,139 L 642,138 L 643,138 L 643,139 L 642,139 L 641,139 L 640,139 L 640,140 L 640,141 L 640,142 L 640,143 L 641,143 L 641,144 L 642,144 L 643,145 L 642,145 L 641,146 L 640,146 L 640,147 L 641,147 L 642,147 L 642,148 L 641,148 L 641,149 L 640,149 L 640,150 L 639,150 L 639,151 L 640,151 L 640,152 L 640,153 L 641,152 L 642,152 L 642,151 L 643,151 L 643,150 L 644,149 L 645,149 L 645,148 L 646,148 L 646,149 L 646,150 L 645,150 L 645,151 L 644,151 L 643,151 L 642,152 L 642,153 L 642,154 L 642,155 L 642,156 L 642,157 L 642,158 L 643,158 L 643,159 L 644,159 L 645,159 L 645,158 L 646,158 L 646,157 L 646,156 L 646,155 L 647,154 L 648,153 L 648,152 L 649,152 L 650,152 L 650,153 L 650,154 L 649,154 L 648,154 L 648,155 L 648,156 L 648,157 L 647,157 L 647,158 L 647,159 L 646,159 L 646,160 L 647,160 L 648,160 L 649,160 L 650,160 L 650,159 L 650,158 L 651,158 L 651,157 L 652,157 L 652,158 L 652,159 L 651,160 L 649,162 L 648,163 L 648,164 L 647,164 L 647,165 L 646,166 L 646,167 L 645,169 L 645,170 L 645,171 L 644,171 L 644,172 L 644,173 L 643,174 L 642,174 L 641,174 L 641,175 L 640,175 L 640,176 L 640,177 L 639,177 L 638,177 L 637,177 L 637,176 L 636,177 L 637,177 L 637,178 L 638,178 L 639,178 L 640,178 L 641,178 L 641,177 L 642,177 L 643,177 L 644,176 L 645,176 L 645,175 L 645,174 L 645,175 L 646,175 L 645,175 L 646,176 L 645,177 L 645,178 L 646,179 L 646,180 L 647,180 L 648,180 L 648,181 L 648,182 L 649,182 L 648,183 L 649,183 L 649,184 L 649,185 L 649,186 L 649,187 L 649,188 L 648,188 L 648,189 L 648,190 L 647,190 L 647,191 L 647,192 L 647,193 L 647,194 L 647,195 L 647,196 L 647,197 L 646,198 L 646,199 L 646,200 L 645,201 L 645,202 L 645,203 L 644,203 L 643,203 L 643,204 L 642,205 L 641,205 L 640,205 L 640,206 L 640,207 L 640,208 L 639,208 L 639,209 L 638,209 L 637,209 L 636,209 L 635,209 L 634,209 L 633,209 L 633,208 L 632,208 L 631,207 L 631,206 L 630,205 L 630,204 L 629,204 L 629,203 L 629,202 L 629,201 L 628,201 L 627,201 L 627,200 L 626,200 L 626,199 L 625,198 L 625,197 L 625,196 L 625,195 L 624,195 L 623,194 L 622,194 L 621,194 L 620,194 L 620,195 L 619,195 L 618,195 L 617,195 L 616,195 L 615,195 L 614,195 L 613,195 L 610,195 L 609,195 L 609,194 L 609,193 L 608,193 L 608,192 L 607,192 L 606,192 L 606,193 L 606,192 L 605,192 L 604,192 L 603,192 L 602,192 L 601,192 L 601,191 L 600,191 L 599,191 L 598,191 L 597,191 L 596,191 L 595,191 L 594,191 L 594,192 L 593,192 L 592,192 L 591,192 L 591,193 L 590,193 L 590,194 L 589,194 L 588,194 L 587,194 L 587,195 L 586,195 L 585,195 L 585,196 L 584,196 L 583,196 L 582,196 L 581,196 L 580,196 L 579,196 L 578,196 L 577,196 L 576,196 L 574,196 L 573,196 L 573,195 L 572,195 L 571,194 L 570,193 L 569,193 L 569,192 L 569,191 L 569,190 L 569,189 L 569,188 L 568,188 L 567,188 L 566,187 L 566,186 L 565,186 L 565,185 L 566,185 L 567,185 L 568,185 L 569,185 L 570,184 L 571,183 L 571,182 L 571,181 L 570,181 L 569,181 L 568,182 L 567,182 L 566,182 L 565,182 L 565,181 L 565,180 L 564,180 L 563,180 L 561,180 L 560,179 L 559,179 L 558,179 L 557,179 L 556,178 L 555,178 L 554,177 L 553,176 L 552,176 L 551,175 L 550,175 L 548,175 L 547,175 L 546,175 L 545,175 L 544,174 L 543,174 L 542,173 L 540,172 L 539,171 L 538,171 L 538,170 L 537,170 L 536,169 L 535,169 L 535,168 L 534,168 L 533,169 L 532,169 L 531,169 L 529,170 L 528,170 L 527,169 L 526,168 L 525,168 L 525,167 L 524,166 L 523,166 L 522,165 L 521,165 L 520,165 L 519,165 L 518,166 L 517,166 L 516,165 L 515,165 L 514,164 L 513,164 L 512,163 L 511,163 L 511,164 L 510,164 L 509,164 L 509,165 L 508,165 L 507,165 L 506,165 L 505,165 L 505,166 L 504,166 L 503,166 L 502,165 L 502,164 L 502,163 L 502,162 L 503,161 L 503,160 L 503,159 L 502,158 L 502,157 L 501,156 L 500,156 L 499,157 L 498,157 L 498,158 L 497,158 L 497,159 L 496,159 L 495,158 L 494,159 L 494,160 L 493,160 L 493,161 L 492,161 L 491,161 L 490,160 L 489,160 L 489,159 L 489,158 L 490,158 L 491,158 L 491,157 L 492,157 L 492,156 L 492,155 L 492,154 L 491,154 L 491,153 L 490,153 L 489,152 L 488,152 L 488,151 L 487,150 L 487,149 L 486,149 L 486,148 L 487,148 L 487,147 L 488,147 L 489,146 L 490,147 L 491,147 L 492,147 L 492,146 L 491,145 L 491,144 L 491,143 L 492,142 L 492,141 L 493,141 L 493,140 L 494,140 L 494,139 L 493,139 L 493,138 L 493,137 L 493,136 L 493,135 L 492,135 L 491,135 L 491,134 L 491,133 L 491,132 L 489,132 L 488,131 L 487,131 L 486,131 L 485,131 L 484,131 L 483,131 L 482,131 L 481,130 L 480,129 L 479,129 L 478,129 L 477,129 L 477,128 L 476,128 L 474,126 L 474,125 L 475,125 L 475,124 L 475,123 L 475,122 L 475,121 L 475,120 L 475,119 L 474,119 L 475,118 L 475,117 L 475,116 L 476,115 L 476,114 L 476,113 L 476,112 L 477,112 L 478,112 L 479,112 L 479,113 L 479,114 L 479,115 L 479,116 L 480,116 L 481,116 L 482,116 L 483,116 L 484,116 L 485,116 L 486,116 L 486,115 L 487,115 L 488,115 L 488,114 L 488,113 L 487,113 L 487,112 L 486,112 L 486,111 L 485,111 L 485,110 L 486,110 L 486,109 L 486,108 L 487,108 L 487,107 L 488,107 L 489,108 L 490,108 L 491,109 L 492,109 L 492,108 L 493,108 L 493,107 L 492,107 L 491,106 L 490,106 L 490,105 L 489,105 L 489,104 L 488,104 L 487,104 L 487,103 L 487,102 L 487,101 L 487,100 L 487,99 L 487,98 L 486,97 L 486,96 L 486,95 L 486,94 L 485,93 L 485,92 L 486,92 L 485,92 L 485,91 L 485,90 L 485,89 L 484,88 L 484,87 L 483,86 L 482,85 L 482,84 L 481,84 L 482,84 L 483,84 L 484,84 L 485,84 L 485,83 L 486,83 L 486,82 L 486,81 L 487,81 L 487,80 L 488,80 L 488,79 L 488,78 L 489,78 L 490,78 L 490,77 L 491,76 L 491,75 L 492,75 L 492,74 L 492,73 L 493,73 L 492,73 L 492,72 L 491,71 L 491,70 L 491,69 L 491,68 L 492,68 L 492,67 L 493,67 L 493,68 L 494,68 L 495,68 L 495,69 L 496,69 L 497,69 L 498,69 L 499,69 L 500,68 L 501,68 L 501,67 L 501,66 L 502,66 L 502,65 L 502,64 L 503,64 L 503,63 L 504,63 L 505,63 L 505,62 L 506,62 L 506,61 L 506,60 L 505,60 L 505,59 L 505,58 L 506,58 L 506,57 L 507,57 L 507,56 L 508,56 L 509,56 L 509,55 L 510,55 L 511,55 L 511,54 L 512,54 L 512,53 L 513,53 L 513,54 L 514,54 L 515,54 L 516,54 L 517,54 L 518,54 L 519,54 L 520,54 L 521,54 L 521,53 L 522,53 L 522,54 L 523,54 L 524,54 L 525,54 L 526,54 L 526,55 L 527,55 L 528,55 L 528,54 L 528,53 L 527,53 L 527,52 L 527,51 L 527,50 L 527,49 L 527,48 L 528,48 L 528,47 L 528,46 L 528,45 L 529,45 L 529,44 L 530,44 L 530,43 L 531,43 L 531,42 L 532,42 L 533,42 L 533,43 L 534,43 L 535,43 L 535,44 L 536,44 L 537,44 L 538,44 " />
</g>
<g id="246" class="st0 dist-block" inkscape:label="Phulbani">
<path d="M 635,52 L 635,53 L 634,52 L 633,52 L 632,52 L 632,53 L 631,53 L 631,54 L 632,55 L 633,55 L 634,55 L 634,56 L 635,57 L 635,58 L 636,59 L 637,59 L 638,60 L 638,61 L 638,62 L 638,63 L 638,64 L 638,65 L 638,66 L 639,67 L 639,68 L 638,69 L 638,70 L 638,71 L 637,72 L 636,73 L 637,73 L 637,74 L 638,74 L 638,73 L 639,72 L 640,72 L 641,73 L 641,74 L 641,75 L 642,76 L 643,76 L 644,76 L 645,77 L 646,77 L 647,77 L 648,77 L 648,76 L 649,76 L 650,76 L 651,75 L 652,75 L 652,76 L 652,77 L 653,77 L 654,78 L 655,79 L 656,79 L 657,80 L 658,80 L 659,80 L 659,81 L 660,81 L 661,81 L 661,82 L 661,83 L 660,84 L 661,84 L 661,85 L 662,85 L 663,85 L 663,84 L 663,85 L 664,85 L 665,86 L 665,87 L 664,87 L 664,88 L 664,89 L 664,90 L 665,90 L 666,90 L 666,89 L 666,88 L 667,88 L 667,89 L 667,90 L 668,90 L 668,91 L 669,91 L 670,91 L 671,92 L 672,93 L 673,94 L 673,95 L 672,95 L 671,95 L 670,95 L 669,95 L 669,94 L 668,94 L 668,93 L 668,92 L 667,91 L 666,91 L 664,91 L 663,91 L 662,92 L 661,92 L 660,93 L 659,93 L 658,93 L 658,94 L 658,95 L 658,96 L 658,97 L 658,98 L 658,99 L 658,100 L 658,101 L 658,102 L 658,103 L 658,104 L 658,105 L 658,106 L 658,107 L 658,108 L 659,108 L 660,109 L 661,110 L 662,110 L 662,111 L 662,112 L 661,113 L 660,113 L 659,114 L 658,114 L 657,114 L 656,115 L 655,116 L 655,117 L 655,118 L 655,119 L 656,119 L 657,119 L 657,118 L 658,118 L 659,118 L 659,119 L 660,119 L 660,120 L 660,121 L 661,122 L 661,123 L 661,122 L 662,122 L 663,121 L 664,121 L 665,121 L 666,121 L 666,122 L 665,122 L 665,123 L 664,124 L 665,124 L 666,124 L 666,125 L 666,126 L 666,127 L 665,127 L 665,128 L 665,129 L 665,130 L 666,130 L 666,131 L 667,131 L 667,132 L 667,133 L 666,133 L 666,134 L 667,135 L 668,135 L 669,135 L 670,135 L 671,135 L 672,135 L 673,136 L 674,137 L 675,137 L 675,138 L 676,138 L 676,139 L 676,140 L 677,141 L 678,141 L 679,141 L 680,141 L 681,141 L 682,142 L 683,142 L 683,143 L 684,143 L 684,144 L 685,145 L 686,146 L 687,147 L 687,148 L 688,148 L 687,149 L 687,150 L 688,151 L 689,151 L 689,152 L 688,152 L 688,153 L 688,154 L 688,155 L 687,155 L 687,156 L 686,156 L 686,157 L 685,157 L 684,158 L 683,158 L 682,158 L 681,158 L 680,158 L 678,158 L 677,158 L 677,157 L 676,157 L 676,156 L 675,155 L 674,155 L 673,155 L 672,154 L 671,154 L 671,155 L 670,155 L 669,155 L 668,155 L 667,155 L 666,155 L 665,156 L 664,156 L 663,155 L 662,155 L 661,155 L 661,156 L 661,157 L 661,158 L 660,158 L 660,159 L 659,160 L 659,159 L 658,160 L 657,160 L 656,160 L 654,161 L 653,161 L 653,162 L 652,162 L 651,161 L 651,160 L 652,159 L 652,158 L 652,157 L 651,157 L 651,158 L 650,158 L 650,159 L 650,160 L 649,160 L 648,160 L 647,160 L 646,160 L 646,159 L 647,159 L 647,158 L 647,157 L 648,157 L 648,156 L 648,155 L 648,154 L 649,154 L 650,154 L 650,153 L 650,152 L 649,152 L 648,152 L 648,153 L 647,154 L 646,155 L 646,156 L 646,157 L 646,158 L 645,158 L 645,159 L 644,159 L 643,159 L 643,158 L 642,158 L 642,157 L 642,156 L 642,155 L 642,154 L 642,153 L 642,152 L 643,151 L 644,151 L 645,151 L 645,150 L 646,150 L 646,149 L 646,148 L 645,148 L 645,149 L 644,149 L 643,150 L 643,151 L 642,151 L 642,152 L 641,152 L 640,153 L 640,152 L 640,151 L 639,151 L 639,150 L 640,150 L 640,149 L 641,149 L 641,148 L 642,148 L 642,147 L 641,147 L 640,147 L 640,146 L 641,146 L 642,145 L 643,145 L 642,144 L 641,144 L 641,143 L 640,143 L 640,142 L 640,141 L 640,140 L 640,139 L 641,139 L 642,139 L 643,139 L 643,138 L 642,138 L 641,139 L 641,138 L 640,138 L 640,137 L 640,138 L 639,138 L 639,139 L 640,140 L 640,141 L 640,142 L 640,143 L 639,143 L 638,143 L 637,143 L 636,143 L 635,143 L 634,143 L 633,143 L 633,144 L 634,144 L 633,145 L 633,146 L 632,146 L 631,145 L 630,145 L 630,144 L 631,144 L 631,143 L 631,142 L 631,141 L 632,141 L 632,140 L 633,140 L 634,140 L 635,140 L 636,140 L 636,139 L 636,138 L 637,138 L 637,137 L 638,136 L 637,136 L 637,135 L 637,134 L 636,134 L 637,133 L 639,133 L 640,133 L 640,134 L 641,134 L 642,134 L 642,132 L 642,131 L 642,130 L 641,130 L 641,129 L 641,128 L 640,128 L 639,128 L 638,128 L 637,128 L 636,127 L 636,126 L 635,126 L 635,125 L 634,124 L 633,124 L 632,124 L 631,124 L 630,124 L 629,124 L 629,123 L 628,123 L 627,123 L 626,123 L 625,122 L 624,122 L 624,121 L 623,121 L 623,122 L 622,122 L 622,123 L 621,123 L 620,123 L 619,123 L 618,123 L 618,124 L 619,124 L 618,124 L 618,125 L 617,126 L 616,127 L 615,127 L 615,128 L 616,128 L 616,129 L 616,130 L 616,131 L 615,131 L 613,131 L 612,130 L 612,129 L 612,128 L 612,127 L 612,126 L 613,125 L 613,124 L 613,123 L 612,123 L 612,122 L 612,121 L 612,120 L 611,120 L 610,120 L 609,122 L 608,122 L 608,121 L 607,121 L 607,120 L 608,120 L 608,119 L 609,119 L 609,118 L 608,118 L 607,118 L 607,117 L 606,117 L 606,118 L 605,118 L 605,119 L 604,119 L 604,120 L 603,120 L 604,120 L 604,121 L 604,122 L 603,122 L 603,123 L 602,123 L 602,122 L 601,122 L 601,121 L 600,121 L 600,120 L 600,119 L 601,119 L 601,118 L 600,118 L 599,119 L 598,119 L 597,119 L 597,120 L 596,120 L 595,120 L 594,120 L 594,121 L 593,121 L 593,122 L 593,123 L 593,124 L 594,125 L 594,126 L 593,126 L 593,127 L 592,127 L 591,127 L 590,127 L 590,126 L 589,126 L 589,127 L 588,127 L 587,126 L 586,126 L 586,125 L 586,124 L 586,123 L 586,122 L 585,122 L 585,121 L 585,120 L 585,119 L 585,118 L 585,117 L 584,116 L 584,115 L 584,114 L 583,114 L 583,113 L 582,113 L 582,112 L 582,111 L 582,110 L 582,109 L 581,109 L 581,108 L 580,108 L 579,108 L 579,109 L 578,109 L 578,108 L 577,108 L 576,108 L 575,109 L 574,109 L 574,108 L 574,107 L 575,107 L 576,106 L 576,105 L 577,105 L 577,104 L 576,104 L 576,103 L 576,102 L 576,101 L 576,100 L 576,99 L 577,99 L 577,98 L 576,98 L 575,98 L 574,98 L 573,98 L 573,97 L 573,96 L 573,95 L 573,94 L 573,93 L 573,92 L 574,91 L 573,91 L 570,91 L 569,91 L 568,90 L 567,90 L 566,90 L 565,90 L 563,90 L 562,90 L 561,89 L 562,88 L 562,87 L 563,87 L 563,88 L 563,89 L 564,89 L 564,88 L 565,87 L 565,86 L 565,85 L 566,85 L 567,84 L 568,84 L 569,84 L 570,83 L 570,82 L 569,82 L 569,81 L 568,81 L 568,80 L 569,79 L 569,78 L 569,77 L 570,76 L 570,75 L 569,75 L 569,74 L 570,74 L 571,74 L 572,75 L 573,75 L 573,74 L 574,74 L 575,73 L 576,74 L 577,74 L 577,73 L 578,73 L 578,72 L 578,71 L 578,70 L 578,69 L 579,69 L 580,69 L 580,70 L 581,70 L 582,70 L 582,69 L 581,69 L 582,68 L 583,68 L 584,68 L 585,67 L 586,67 L 587,67 L 588,67 L 589,66 L 590,66 L 589,65 L 590,65 L 592,64 L 593,64 L 593,63 L 593,62 L 593,61 L 592,60 L 591,60 L 591,59 L 591,58 L 591,57 L 590,57 L 589,57 L 588,57 L 588,58 L 588,57 L 588,56 L 588,55 L 587,55 L 586,55 L 586,56 L 585,56 L 586,57 L 586,58 L 586,59 L 585,59 L 585,58 L 584,59 L 583,59 L 583,58 L 584,57 L 584,56 L 583,56 L 582,56 L 581,55 L 581,54 L 581,53 L 582,53 L 583,53 L 584,53 L 584,52 L 585,52 L 586,52 L 587,52 L 588,52 L 589,52 L 590,52 L 590,51 L 591,51 L 591,52 L 592,52 L 592,53 L 593,53 L 594,53 L 595,53 L 595,54 L 596,54 L 597,54 L 597,53 L 598,53 L 599,53 L 599,52 L 600,52 L 601,52 L 602,51 L 603,51 L 604,51 L 605,51 L 605,52 L 606,53 L 606,54 L 607,54 L 607,55 L 608,55 L 609,55 L 610,56 L 611,56 L 612,56 L 613,56 L 614,55 L 615,55 L 616,55 L 617,55 L 617,56 L 618,56 L 619,57 L 620,57 L 621,57 L 622,57 L 622,56 L 623,56 L 624,56 L 624,55 L 624,54 L 625,53 L 626,53 L 626,52 L 627,52 L 627,51 L 628,51 L 629,51 L 630,50 L 631,50 L 632,50 L 632,49 L 633,49 L 633,50 L 634,51 L 634,52 L 635,52 " />
</g>
</g>
</g>
<g id="block_labels" inkscape:groupmode="layer" inkscape:label="block_labels">
<g stroke="none" fill="rgb(0,0,0)">
<text id="block_labels_1" x="491" y="203" class="st4"  inkscape:label="Baliguda_lbl">Baliguda</text>
<text id="block_labels_2" x="737" y="188" class="st4"  inkscape:label="Chakapad_lbl">Chakapad</text>
<text id="block_labels_3" x="582" y="367" class="st4"  inkscape:label="Daringbadi_lbl">Daringbadi</text>
<text id="block_labels_4" x="704" y="257"  class="st4"  inkscape:label="G__Udayagiri_lbl">G__Udayagiri</text>
<text id="block_labels_5" x="583" y="240" class="st4"  inkscape:label="K_Nuagaon_lbl">K_Nuagaon</text>
<text id="block_labels_6" x="483" y="381" class="st4"  inkscape:label="Kotagarh_lbl">Kotagarh</text>
<text id="block_labels_7" x="679" y="311" class="st4"  inkscape:label="Raikia_lbl">Raikia</text>
<text id="block_labels_8" x="676" y="207" class="st4"  inkscape:label="Tikabali_lbl">Tikabali</text>
<text id="block_labels_9" x="423" y="312" class="st4"  inkscape:label="Tumudibandha_lbl">Tumudibandha</text>
<text id="block_labels_10" x="696" y="90" class="st4"  inkscape:label="Khajuripada_lbl">Khajuripada</text>
<text id="block_labels_11" x="559" y="129" class="st4"  inkscape:label="Phiringia_lbl">Phiringia</text>
<text id="block_labels_12" x="624" y="101" class="st4"  inkscape:label="Phulbani_lbl">Phulbani</text>
</g>
</g>
<!-- QGIS extent for clipping, eg in Inkscape -->
</svg>