<?xml version="1.0" standalone="no"?>
<!DOCTYPE svg PUBLIC "-//W3C//DTD SVG 1.1//EN" "http://www.w3.org/Graphics/SVG/1.1/DTD/svg11.dtd">
<svg xmlns="http://www.w3.org/2000/svg" xmlns:inkscape="http://www.inkscape.org/namespaces/inkscape" xmlns:xlink="http://www.w3.org/1999/xlink" viewBox = "250 0 600 600" version = "1.1">
		<style type="text/css">
   .st0, .st1, .st2
    {
        stroke: #d0d0d0;
        stroke-miterlimit: 7;
		fill:#fff;
		cursor:pointer;
    }
    .st4
    {
        font-size: 7.0514px;
		fill:#000;
    }
    .st0:hover, .st1:hover, .st2:hover{fill:#32C787;}
</style>

<!-- svg generated using QGIS www.qgis.org -->
<g id="block" inkscape:groupmode="layer" inkscape:label="block">
<g stroke="rgb(0,0,0)" fill="#fff" stroke-linejoin="round" stroke-width="0.56">
<g id="147" class="st0 dist-block" inkscape:label="Kalimela">
<path d="M 371,412 L 370,412 L 371,411 L 371,412 " />
<path d="M 436,289 L 436,290 L 434,290 L 434,288 L 436,287 L 437,287 L 437,288 L 436,289 " />
<path d="M 492,273 L 492,274 L 492,275 L 492,276 L 492,277 L 492,278 L 492,279 L 491,279 L 491,280 L 490,280 L 490,281 L 489,281 L 488,282 L 489,283 L 490,284 L 491,284 L 491,285 L 492,285 L 492,286 L 493,287 L 493,288 L 494,288 L 495,288 L 496,288 L 496,287 L 496,286 L 496,285 L 496,284 L 498,286 L 500,288 L 500,289 L 501,289 L 501,290 L 502,290 L 503,290 L 504,291 L 505,291 L 505,290 L 506,290 L 507,290 L 508,291 L 509,291 L 510,291 L 511,292 L 511,293 L 512,294 L 512,295 L 512,296 L 513,297 L 513,298 L 514,298 L 515,298 L 515,297 L 516,297 L 517,297 L 517,298 L 516,298 L 516,299 L 517,300 L 517,301 L 517,302 L 516,302 L 516,303 L 517,304 L 518,305 L 519,305 L 520,306 L 521,306 L 522,306 L 523,306 L 524,306 L 525,306 L 526,306 L 527,306 L 528,307 L 529,307 L 530,307 L 530,306 L 531,306 L 531,305 L 532,305 L 532,304 L 533,304 L 534,303 L 535,302 L 536,302 L 537,301 L 538,300 L 539,300 L 539,299 L 540,299 L 541,298 L 541,297 L 542,297 L 543,297 L 543,296 L 543,297 L 543,298 L 544,299 L 544,300 L 545,301 L 545,302 L 545,303 L 546,303 L 546,304 L 546,305 L 546,306 L 546,307 L 546,308 L 546,309 L 546,310 L 546,311 L 547,311 L 548,311 L 549,311 L 550,311 L 551,311 L 552,310 L 553,310 L 554,310 L 554,309 L 555,309 L 556,309 L 557,309 L 558,309 L 559,309 L 560,309 L 561,309 L 561,310 L 562,310 L 563,310 L 564,311 L 565,311 L 565,312 L 566,312 L 567,312 L 567,311 L 568,311 L 569,310 L 569,309 L 570,309 L 570,308 L 570,307 L 571,307 L 571,306 L 571,305 L 572,305 L 572,304 L 572,305 L 572,306 L 573,305 L 574,305 L 574,306 L 575,306 L 576,306 L 577,307 L 578,307 L 578,308 L 577,308 L 577,309 L 577,310 L 578,311 L 578,312 L 578,313 L 577,313 L 578,314 L 578,315 L 579,316 L 579,317 L 579,318 L 580,318 L 580,319 L 581,319 L 582,319 L 583,319 L 584,319 L 585,319 L 585,318 L 586,318 L 586,317 L 587,317 L 587,316 L 587,315 L 588,315 L 588,314 L 587,314 L 588,314 L 588,313 L 589,313 L 589,312 L 589,311 L 588,311 L 587,311 L 586,310 L 586,309 L 587,309 L 587,308 L 587,307 L 588,307 L 588,306 L 587,306 L 586,306 L 585,306 L 584,306 L 584,305 L 585,305 L 585,304 L 586,304 L 587,305 L 588,305 L 589,304 L 589,303 L 589,302 L 589,301 L 588,301 L 587,301 L 587,302 L 586,302 L 585,301 L 584,301 L 584,300 L 583,299 L 584,299 L 585,299 L 586,298 L 587,298 L 588,298 L 588,297 L 589,297 L 589,296 L 590,296 L 590,295 L 591,294 L 591,293 L 592,293 L 593,293 L 593,292 L 594,292 L 595,292 L 595,291 L 596,291 L 596,290 L 596,291 L 597,291 L 597,292 L 598,292 L 598,293 L 598,294 L 599,295 L 600,295 L 601,295 L 601,296 L 602,297 L 602,298 L 603,298 L 603,299 L 603,300 L 603,301 L 603,302 L 603,303 L 604,304 L 606,306 L 608,308 L 610,309 L 609,309 L 609,310 L 608,310 L 608,311 L 608,312 L 607,312 L 607,313 L 606,313 L 606,314 L 605,314 L 604,314 L 604,315 L 603,315 L 602,315 L 602,316 L 601,316 L 601,317 L 600,318 L 599,319 L 599,320 L 598,320 L 598,321 L 597,321 L 597,322 L 596,322 L 596,323 L 595,324 L 595,325 L 595,326 L 595,327 L 594,328 L 594,329 L 594,330 L 593,331 L 593,332 L 593,333 L 592,334 L 592,335 L 592,336 L 591,337 L 591,338 L 591,339 L 591,340 L 590,340 L 590,341 L 590,342 L 590,343 L 590,344 L 590,345 L 589,345 L 589,346 L 589,347 L 589,348 L 588,349 L 588,350 L 588,351 L 588,352 L 588,353 L 589,353 L 590,353 L 590,354 L 591,354 L 592,354 L 593,354 L 594,354 L 595,353 L 596,353 L 597,353 L 598,353 L 599,352 L 600,352 L 601,352 L 602,352 L 603,352 L 604,352 L 604,353 L 605,354 L 605,355 L 605,356 L 605,357 L 605,358 L 606,358 L 607,358 L 607,359 L 608,359 L 609,359 L 610,359 L 611,359 L 612,359 L 613,359 L 614,359 L 615,359 L 618,360 L 619,360 L 620,360 L 621,361 L 621,362 L 622,362 L 623,363 L 624,363 L 624,364 L 625,364 L 626,364 L 626,365 L 626,366 L 625,366 L 625,367 L 625,368 L 625,369 L 625,370 L 626,370 L 626,371 L 626,372 L 627,373 L 627,374 L 628,375 L 627,376 L 627,377 L 627,378 L 626,378 L 625,378 L 624,378 L 623,378 L 622,378 L 621,379 L 620,379 L 619,379 L 619,380 L 619,381 L 619,382 L 618,383 L 617,383 L 617,384 L 616,384 L 615,384 L 614,384 L 613,384 L 613,385 L 612,385 L 612,386 L 611,386 L 611,387 L 610,387 L 610,388 L 609,388 L 609,389 L 608,389 L 607,389 L 607,390 L 606,390 L 606,391 L 605,391 L 605,392 L 604,393 L 603,393 L 603,394 L 602,394 L 601,394 L 600,394 L 599,394 L 598,394 L 598,395 L 597,395 L 596,395 L 595,395 L 594,395 L 594,396 L 593,396 L 592,397 L 591,397 L 591,398 L 590,398 L 589,398 L 588,398 L 587,398 L 586,398 L 585,398 L 585,397 L 584,397 L 583,397 L 582,397 L 581,397 L 581,398 L 580,398 L 579,398 L 579,399 L 578,399 L 577,400 L 576,400 L 576,401 L 576,402 L 575,402 L 575,403 L 575,404 L 574,404 L 573,404 L 573,405 L 572,405 L 571,405 L 570,405 L 570,404 L 569,404 L 568,405 L 567,405 L 567,406 L 566,406 L 565,407 L 564,407 L 564,408 L 563,408 L 562,408 L 561,409 L 560,409 L 559,409 L 558,409 L 558,410 L 557,410 L 556,410 L 555,411 L 554,411 L 553,411 L 552,411 L 551,411 L 550,412 L 549,412 L 548,412 L 547,412 L 546,413 L 545,413 L 544,413 L 543,413 L 543,414 L 542,414 L 541,414 L 541,413 L 540,413 L 539,413 L 538,413 L 537,413 L 536,413 L 535,414 L 534,414 L 534,415 L 533,415 L 532,415 L 532,416 L 531,416 L 530,416 L 529,416 L 528,416 L 527,416 L 526,417 L 525,417 L 525,418 L 524,418 L 524,419 L 523,419 L 523,420 L 522,420 L 522,421 L 521,422 L 521,423 L 520,423 L 520,424 L 519,425 L 519,426 L 519,427 L 519,428 L 519,429 L 518,429 L 518,430 L 518,431 L 517,431 L 516,432 L 515,432 L 515,433 L 514,433 L 513,434 L 512,434 L 512,435 L 511,435 L 511,436 L 510,436 L 509,436 L 508,436 L 507,436 L 507,437 L 506,437 L 506,438 L 506,439 L 505,439 L 505,440 L 504,440 L 503,441 L 502,441 L 502,442 L 501,442 L 500,442 L 500,443 L 499,443 L 499,444 L 498,444 L 497,444 L 497,445 L 496,445 L 496,446 L 495,446 L 494,447 L 493,447 L 492,448 L 491,448 L 490,449 L 489,449 L 489,450 L 488,450 L 487,451 L 486,451 L 485,452 L 483,453 L 481,454 L 480,454 L 479,455 L 478,455 L 477,456 L 476,456 L 475,456 L 475,455 L 474,455 L 474,454 L 473,453 L 473,452 L 473,451 L 473,450 L 473,449 L 472,448 L 472,447 L 472,446 L 472,445 L 473,444 L 473,443 L 472,443 L 472,442 L 472,441 L 471,441 L 470,441 L 469,441 L 469,442 L 468,443 L 468,444 L 467,445 L 467,446 L 466,446 L 466,447 L 465,448 L 464,448 L 464,449 L 463,449 L 462,448 L 461,448 L 460,448 L 460,447 L 459,447 L 458,447 L 457,447 L 456,448 L 455,449 L 454,449 L 453,450 L 452,451 L 451,452 L 451,453 L 450,454 L 450,455 L 449,456 L 448,457 L 448,458 L 448,459 L 448,460 L 448,461 L 448,462 L 447,462 L 447,463 L 447,464 L 446,465 L 445,466 L 444,467 L 444,468 L 443,468 L 443,469 L 442,470 L 442,471 L 441,471 L 441,472 L 440,472 L 439,472 L 439,473 L 438,474 L 437,474 L 436,475 L 435,475 L 434,475 L 433,474 L 432,474 L 432,475 L 431,475 L 431,476 L 431,477 L 430,478 L 430,479 L 430,480 L 429,480 L 428,480 L 427,480 L 426,479 L 425,479 L 425,478 L 424,478 L 423,477 L 422,477 L 421,476 L 420,475 L 419,475 L 418,474 L 417,474 L 416,474 L 415,473 L 414,473 L 413,473 L 412,472 L 413,471 L 413,470 L 413,469 L 413,468 L 413,467 L 412,467 L 412,466 L 411,466 L 410,466 L 410,465 L 409,465 L 408,465 L 407,465 L 406,465 L 406,464 L 405,464 L 404,464 L 403,464 L 403,463 L 402,463 L 402,464 L 402,463 L 401,463 L 401,464 L 401,465 L 400,465 L 400,464 L 399,464 L 399,465 L 398,465 L 397,465 L 397,466 L 396,466 L 396,465 L 395,465 L 395,464 L 395,465 L 394,465 L 394,466 L 393,466 L 392,466 L 391,465 L 390,465 L 389,465 L 388,465 L 387,465 L 386,465 L 385,465 L 385,466 L 384,466 L 383,466 L 382,466 L 381,466 L 380,466 L 379,466 L 378,466 L 377,466 L 377,467 L 376,467 L 375,467 L 374,467 L 373,467 L 372,467 L 371,467 L 371,466 L 370,465 L 369,463 L 369,461 L 369,460 L 368,458 L 369,458 L 370,458 L 370,457 L 371,457 L 371,456 L 372,456 L 373,455 L 374,454 L 375,453 L 376,452 L 377,451 L 378,451 L 379,450 L 380,449 L 381,449 L 382,449 L 383,449 L 384,449 L 385,449 L 386,449 L 387,449 L 387,448 L 387,447 L 387,446 L 387,445 L 387,444 L 387,443 L 387,442 L 386,442 L 386,441 L 386,440 L 385,440 L 385,439 L 384,438 L 384,437 L 384,436 L 384,435 L 384,434 L 384,433 L 384,432 L 384,431 L 383,430 L 383,429 L 382,429 L 382,428 L 381,428 L 380,428 L 379,428 L 379,427 L 378,427 L 377,427 L 377,426 L 377,425 L 378,425 L 378,424 L 378,423 L 378,422 L 377,422 L 377,421 L 377,420 L 377,419 L 376,418 L 376,417 L 375,417 L 374,417 L 373,417 L 372,416 L 372,415 L 371,415 L 371,414 L 371,413 L 372,413 L 372,412 L 373,412 L 373,411 L 374,410 L 375,410 L 376,410 L 377,410 L 378,411 L 379,411 L 380,411 L 381,411 L 382,411 L 383,411 L 383,412 L 384,412 L 385,412 L 386,412 L 386,413 L 387,413 L 388,413 L 389,413 L 390,413 L 391,413 L 392,413 L 393,413 L 394,413 L 394,412 L 395,412 L 396,412 L 397,412 L 397,411 L 398,410 L 399,410 L 399,409 L 400,409 L 400,408 L 400,407 L 401,406 L 401,405 L 402,404 L 402,403 L 403,403 L 403,402 L 404,402 L 405,401 L 406,401 L 407,401 L 408,401 L 408,402 L 408,403 L 409,403 L 409,404 L 410,404 L 411,404 L 411,403 L 412,403 L 413,403 L 413,402 L 414,402 L 415,402 L 415,401 L 415,400 L 415,399 L 415,398 L 416,398 L 416,397 L 417,397 L 417,396 L 418,396 L 419,396 L 419,397 L 420,397 L 421,397 L 421,398 L 422,398 L 423,398 L 424,398 L 425,398 L 426,397 L 426,396 L 427,395 L 427,394 L 427,393 L 427,392 L 427,391 L 427,390 L 428,390 L 428,389 L 430,388 L 431,387 L 432,387 L 432,386 L 433,385 L 433,384 L 432,383 L 431,383 L 430,383 L 429,383 L 428,383 L 428,382 L 427,382 L 427,381 L 426,381 L 426,380 L 426,379 L 425,379 L 425,378 L 426,377 L 426,376 L 426,375 L 426,374 L 425,374 L 424,374 L 423,374 L 422,374 L 422,373 L 422,372 L 421,372 L 420,372 L 419,372 L 419,371 L 418,371 L 418,370 L 417,370 L 417,369 L 416,369 L 416,368 L 415,367 L 414,366 L 415,366 L 416,365 L 417,364 L 417,363 L 417,362 L 417,361 L 417,360 L 417,359 L 417,358 L 417,357 L 418,356 L 419,356 L 420,357 L 420,358 L 420,357 L 421,357 L 422,357 L 423,357 L 424,356 L 425,356 L 425,355 L 425,354 L 424,353 L 424,352 L 424,351 L 423,351 L 423,350 L 423,349 L 424,349 L 424,348 L 424,347 L 423,347 L 423,346 L 423,345 L 424,345 L 424,344 L 425,343 L 425,342 L 424,342 L 424,341 L 424,340 L 425,340 L 425,339 L 426,339 L 427,338 L 428,338 L 429,337 L 430,337 L 431,337 L 432,337 L 433,337 L 434,337 L 435,337 L 436,338 L 437,339 L 438,339 L 438,340 L 439,340 L 439,339 L 440,339 L 440,338 L 441,337 L 442,336 L 443,337 L 444,337 L 445,337 L 445,336 L 446,334 L 447,333 L 447,332 L 448,331 L 449,330 L 450,330 L 449,329 L 449,328 L 448,327 L 447,325 L 447,324 L 446,323 L 445,322 L 444,322 L 443,321 L 442,321 L 441,320 L 442,319 L 442,318 L 443,317 L 443,316 L 444,316 L 444,315 L 445,314 L 445,313 L 446,313 L 447,312 L 448,311 L 448,310 L 449,310 L 450,310 L 451,309 L 451,308 L 451,307 L 452,307 L 453,306 L 453,305 L 452,304 L 452,303 L 453,302 L 453,301 L 453,300 L 452,299 L 451,298 L 451,297 L 452,296 L 452,295 L 452,294 L 453,294 L 454,293 L 455,293 L 455,292 L 456,292 L 457,292 L 457,291 L 458,291 L 459,290 L 460,290 L 460,291 L 459,292 L 459,293 L 459,294 L 459,295 L 459,296 L 460,296 L 461,296 L 462,297 L 463,297 L 464,297 L 465,297 L 466,297 L 467,297 L 468,297 L 468,296 L 469,296 L 470,296 L 471,296 L 472,296 L 473,295 L 474,295 L 473,294 L 473,293 L 472,292 L 471,291 L 472,290 L 474,289 L 476,287 L 476,286 L 476,285 L 476,284 L 476,283 L 476,282 L 475,281 L 476,280 L 477,280 L 477,281 L 477,282 L 478,282 L 478,283 L 479,283 L 480,283 L 481,283 L 482,283 L 482,282 L 482,281 L 483,281 L 483,280 L 484,279 L 484,278 L 485,277 L 485,276 L 486,275 L 487,274 L 487,273 L 488,273 L 489,272 L 489,273 L 490,273 L 491,273 L 491,272 L 492,272 L 492,273 " />
<path d="M 382,450 L 383,450 L 383,449 L 382,449 L 382,450 " />
<path d="M 378,455 L 379,454 L 378,454 L 378,455 " />
<path d="M 371,458 L 372,458 L 372,457 L 371,457 L 371,458 " />
</g>
<g id="164" class="st0 dist-block" inkscape:label="Khairaput">
<path d="M 724,209 L 724,208 L 725,208 L 725,209 L 724,209 " />
<path d="M 733,197 L 733,198 L 734,198 L 735,198 L 736,198 L 736,199 L 736,200 L 736,201 L 736,202 L 737,202 L 737,203 L 737,204 L 735,204 L 734,204 L 733,203 L 732,203 L 731,203 L 731,204 L 730,204 L 730,203 L 729,203 L 728,203 L 728,202 L 728,201 L 728,200 L 727,199 L 727,198 L 726,198 L 726,197 L 727,197 L 728,197 L 729,197 L 730,197 L 731,197 L 732,197 L 733,197 " />
<path d="M 752,194 L 751,194 L 751,193 L 752,193 L 752,194 " />
<path d="M 754,191 L 753,191 L 753,190 L 754,190 L 754,191 " />
<path d="M 825,75 L 825,76 L 826,76 L 826,77 L 826,78 L 827,78 L 827,79 L 827,80 L 828,80 L 828,81 L 827,81 L 827,82 L 828,82 L 828,83 L 828,84 L 829,84 L 830,85 L 830,86 L 830,87 L 831,87 L 831,88 L 830,88 L 829,89 L 828,89 L 827,89 L 826,90 L 825,90 L 824,90 L 823,91 L 822,91 L 821,91 L 821,92 L 820,92 L 820,93 L 820,94 L 820,95 L 821,95 L 821,96 L 821,97 L 822,97 L 822,98 L 823,98 L 824,99 L 825,99 L 826,100 L 826,101 L 827,102 L 827,103 L 828,103 L 828,104 L 829,104 L 830,105 L 831,106 L 832,106 L 832,107 L 833,107 L 834,107 L 834,108 L 834,109 L 833,109 L 833,110 L 832,111 L 832,112 L 831,113 L 831,114 L 831,115 L 830,115 L 830,116 L 830,117 L 829,117 L 829,118 L 828,118 L 828,119 L 828,120 L 828,121 L 828,122 L 828,123 L 828,124 L 828,125 L 828,126 L 828,127 L 827,127 L 826,127 L 825,127 L 825,126 L 824,126 L 824,125 L 823,125 L 822,125 L 821,125 L 820,126 L 819,127 L 819,128 L 818,128 L 818,129 L 818,130 L 819,131 L 819,132 L 819,133 L 820,134 L 820,133 L 821,134 L 821,135 L 820,136 L 820,137 L 820,138 L 819,138 L 819,139 L 819,140 L 819,141 L 820,141 L 820,142 L 821,142 L 822,143 L 823,143 L 823,144 L 824,145 L 824,146 L 825,146 L 825,147 L 825,148 L 825,149 L 825,150 L 825,151 L 825,152 L 825,153 L 825,154 L 826,154 L 826,155 L 827,155 L 827,156 L 828,156 L 829,156 L 831,156 L 830,156 L 830,157 L 829,157 L 828,158 L 827,159 L 827,160 L 826,161 L 826,162 L 825,162 L 825,163 L 824,163 L 824,164 L 824,165 L 824,166 L 823,166 L 822,167 L 822,166 L 821,166 L 821,167 L 820,167 L 820,168 L 819,168 L 819,169 L 819,170 L 818,170 L 818,171 L 817,172 L 817,173 L 817,174 L 816,174 L 816,175 L 815,175 L 814,175 L 814,176 L 813,176 L 812,177 L 812,176 L 811,176 L 811,175 L 811,176 L 810,176 L 810,177 L 810,178 L 809,178 L 809,179 L 808,179 L 807,179 L 807,180 L 806,180 L 807,180 L 806,180 L 806,181 L 805,181 L 805,182 L 805,183 L 804,183 L 804,182 L 803,182 L 803,183 L 803,184 L 802,184 L 802,183 L 801,183 L 801,182 L 802,181 L 802,180 L 801,180 L 801,181 L 801,182 L 801,183 L 801,184 L 800,184 L 800,185 L 800,184 L 799,184 L 798,183 L 798,184 L 798,185 L 799,185 L 800,185 L 800,186 L 799,186 L 799,187 L 799,188 L 798,189 L 798,188 L 797,188 L 797,189 L 797,190 L 796,191 L 795,191 L 795,192 L 794,192 L 793,192 L 793,191 L 794,191 L 793,191 L 794,191 L 794,190 L 793,190 L 793,191 L 793,192 L 792,192 L 792,191 L 792,190 L 792,189 L 791,189 L 791,188 L 790,187 L 790,188 L 790,189 L 789,189 L 790,190 L 789,190 L 789,191 L 790,191 L 790,192 L 790,193 L 789,193 L 789,194 L 789,195 L 788,195 L 788,196 L 787,196 L 786,196 L 785,195 L 784,195 L 783,195 L 782,196 L 780,197 L 780,198 L 779,199 L 779,200 L 778,201 L 778,202 L 778,203 L 777,203 L 776,204 L 773,207 L 772,207 L 771,208 L 770,209 L 769,209 L 768,209 L 768,208 L 767,207 L 766,206 L 766,205 L 765,204 L 765,203 L 765,202 L 765,201 L 765,199 L 765,198 L 765,197 L 764,196 L 764,195 L 763,194 L 762,194 L 762,193 L 761,193 L 761,194 L 759,194 L 758,194 L 756,195 L 755,195 L 755,194 L 755,193 L 755,191 L 755,190 L 756,190 L 756,189 L 757,188 L 757,187 L 757,182 L 741,174 L 740,174 L 740,175 L 739,175 L 739,176 L 739,177 L 738,177 L 738,178 L 738,179 L 738,180 L 739,181 L 740,182 L 741,183 L 742,183 L 742,184 L 744,185 L 744,186 L 743,186 L 742,187 L 742,188 L 742,189 L 741,189 L 742,190 L 743,190 L 744,191 L 743,191 L 742,190 L 741,190 L 740,191 L 740,192 L 741,192 L 740,193 L 739,193 L 739,192 L 738,192 L 737,192 L 736,192 L 735,191 L 734,190 L 732,190 L 731,190 L 730,190 L 730,191 L 729,190 L 728,191 L 727,191 L 726,191 L 725,191 L 724,191 L 724,190 L 723,190 L 722,190 L 722,189 L 721,189 L 721,188 L 721,187 L 722,186 L 722,185 L 722,184 L 722,183 L 722,182 L 722,181 L 722,180 L 723,180 L 723,179 L 723,178 L 724,178 L 724,177 L 724,176 L 724,175 L 724,174 L 724,173 L 724,172 L 724,171 L 723,171 L 722,171 L 721,171 L 721,170 L 720,170 L 719,169 L 719,168 L 718,168 L 717,168 L 717,167 L 716,166 L 716,165 L 715,165 L 715,164 L 714,164 L 714,163 L 713,163 L 712,163 L 712,162 L 711,162 L 711,161 L 710,162 L 709,162 L 708,162 L 707,162 L 707,163 L 706,163 L 706,164 L 705,165 L 705,166 L 704,166 L 704,167 L 705,168 L 706,168 L 706,169 L 707,169 L 707,170 L 707,171 L 707,172 L 708,172 L 708,173 L 708,174 L 708,175 L 708,176 L 707,176 L 707,177 L 707,178 L 706,178 L 706,179 L 705,179 L 705,180 L 704,180 L 703,180 L 702,180 L 701,180 L 700,181 L 699,181 L 698,181 L 697,181 L 697,180 L 696,180 L 696,179 L 695,178 L 695,177 L 695,176 L 695,175 L 694,175 L 693,175 L 692,175 L 691,176 L 690,176 L 690,175 L 691,175 L 691,174 L 691,173 L 691,172 L 691,171 L 691,170 L 692,169 L 692,168 L 692,167 L 693,166 L 693,165 L 693,164 L 693,163 L 693,162 L 693,161 L 693,160 L 693,159 L 693,158 L 694,158 L 695,159 L 696,159 L 696,158 L 696,157 L 697,157 L 697,156 L 697,155 L 698,155 L 698,154 L 697,154 L 697,153 L 697,152 L 697,151 L 697,150 L 697,149 L 697,148 L 700,149 L 701,149 L 702,149 L 702,150 L 704,150 L 705,151 L 706,151 L 707,151 L 708,151 L 708,152 L 709,152 L 710,151 L 710,150 L 711,148 L 711,146 L 711,145 L 712,145 L 712,146 L 713,146 L 714,146 L 715,145 L 716,144 L 716,143 L 717,143 L 716,143 L 716,142 L 717,141 L 717,140 L 716,140 L 715,140 L 714,140 L 714,139 L 713,139 L 713,138 L 713,137 L 713,136 L 714,135 L 714,134 L 714,133 L 713,133 L 714,133 L 714,132 L 715,132 L 715,133 L 716,133 L 716,134 L 717,134 L 717,133 L 718,133 L 719,132 L 719,131 L 720,131 L 721,130 L 722,130 L 723,130 L 724,129 L 725,129 L 726,130 L 727,130 L 727,131 L 728,131 L 729,130 L 730,130 L 731,130 L 732,130 L 733,130 L 733,131 L 733,132 L 732,133 L 731,133 L 730,133 L 730,134 L 729,134 L 729,135 L 728,135 L 728,136 L 729,136 L 730,136 L 730,137 L 731,138 L 731,137 L 732,137 L 733,137 L 733,136 L 734,136 L 735,135 L 736,135 L 736,134 L 737,134 L 737,133 L 738,133 L 738,132 L 737,131 L 738,131 L 739,131 L 739,132 L 741,133 L 742,133 L 743,132 L 744,132 L 745,132 L 746,132 L 747,132 L 747,131 L 746,130 L 746,131 L 745,131 L 745,130 L 746,129 L 746,128 L 747,127 L 746,127 L 746,126 L 745,125 L 744,125 L 744,124 L 745,124 L 746,124 L 747,124 L 749,125 L 750,125 L 751,125 L 752,125 L 752,124 L 753,124 L 753,123 L 754,123 L 755,122 L 755,121 L 755,120 L 755,119 L 755,118 L 756,118 L 756,117 L 757,117 L 757,116 L 757,115 L 757,114 L 756,113 L 756,112 L 756,111 L 756,110 L 757,109 L 757,108 L 757,107 L 756,107 L 756,106 L 756,105 L 756,104 L 756,105 L 757,105 L 757,104 L 758,104 L 758,105 L 759,106 L 759,107 L 760,107 L 760,108 L 761,108 L 761,109 L 762,109 L 762,108 L 763,108 L 763,109 L 764,109 L 764,110 L 764,111 L 765,111 L 765,112 L 766,113 L 767,114 L 768,115 L 768,116 L 769,116 L 770,115 L 771,115 L 771,114 L 771,113 L 771,112 L 771,111 L 771,110 L 770,110 L 770,109 L 769,109 L 768,109 L 768,108 L 767,108 L 766,108 L 766,107 L 765,106 L 765,105 L 764,105 L 763,104 L 763,103 L 762,102 L 761,102 L 760,102 L 760,101 L 760,100 L 760,98 L 760,96 L 760,93 L 760,92 L 761,92 L 761,91 L 762,92 L 762,91 L 763,91 L 764,92 L 765,92 L 766,92 L 767,92 L 768,91 L 769,91 L 770,92 L 770,93 L 770,94 L 771,94 L 772,94 L 773,95 L 773,96 L 773,97 L 773,98 L 774,98 L 775,98 L 776,98 L 777,98 L 777,99 L 778,98 L 779,98 L 780,98 L 781,98 L 781,99 L 783,99 L 784,99 L 785,99 L 786,98 L 786,97 L 787,96 L 787,95 L 789,94 L 790,94 L 790,93 L 791,93 L 792,92 L 792,91 L 792,90 L 792,89 L 793,88 L 794,87 L 795,87 L 795,86 L 796,86 L 797,86 L 797,85 L 799,84 L 800,84 L 800,83 L 801,83 L 801,82 L 802,81 L 803,80 L 804,80 L 805,80 L 805,79 L 806,79 L 807,79 L 807,78 L 808,78 L 808,77 L 809,77 L 809,76 L 810,75 L 811,75 L 812,75 L 813,75 L 814,75 L 814,76 L 814,77 L 814,78 L 815,78 L 815,79 L 816,79 L 817,79 L 818,79 L 818,78 L 819,78 L 819,79 L 820,79 L 820,78 L 821,78 L 821,77 L 821,76 L 822,75 L 822,76 L 823,76 L 823,75 L 823,74 L 824,74 L 824,75 L 825,75 " />
</g>
<g id="181" class="st0 dist-block" inkscape:label="Korukonda">
<path d="M 432,286 L 431,287 L 430,286 L 430,285 L 432,285 L 432,286 " />
<path d="M 668,282 L 668,281 L 668,280 L 667,280 L 667,279 L 667,278 L 668,278 L 667,277 L 667,276 L 668,276 L 668,275 L 667,275 L 666,275 L 666,274 L 666,275 L 665,275 L 664,274 L 664,273 L 665,273 L 666,273 L 667,273 L 668,272 L 669,272 L 668,272 L 668,271 L 668,270 L 669,270 L 670,270 L 671,270 L 672,271 L 672,270 L 672,269 L 671,269 L 671,268 L 671,267 L 672,266 L 674,267 L 674,269 L 675,269 L 675,270 L 676,270 L 676,269 L 677,269 L 678,269 L 678,270 L 677,270 L 677,271 L 677,272 L 678,272 L 679,271 L 680,271 L 681,271 L 681,272 L 680,272 L 680,273 L 679,274 L 678,275 L 677,276 L 676,277 L 676,278 L 675,278 L 674,278 L 674,279 L 673,280 L 673,281 L 672,282 L 671,282 L 670,282 L 669,282 L 668,282 " />
<path d="M 668,266 L 668,265 L 669,265 L 668,266 " />
<path d="M 663,264 L 662,264 L 663,264 " />
<path d="M 663,256 L 663,255 L 663,256 " />
<path d="M 664,252 L 663,252 L 664,251 L 664,252 " />
<path d="M 663,249 L 663,248 L 664,248 L 663,249 " />
<path d="M 661,245 L 661,246 L 661,245 " />
<path d="M 664,231 L 663,231 L 663,230 L 663,229 L 665,230 L 664,231 " />
<path d="M 613,224 L 612,224 L 612,223 L 613,223 L 613,224 " />
<path d="M 668,282 L 668,283 L 667,285 L 667,289 L 667,290 L 667,291 L 668,291 L 667,292 L 667,293 L 666,293 L 666,294 L 666,295 L 666,296 L 667,296 L 667,297 L 667,298 L 668,298 L 668,299 L 669,299 L 669,300 L 670,300 L 670,301 L 671,302 L 671,303 L 671,305 L 672,306 L 672,307 L 672,308 L 671,309 L 671,310 L 672,310 L 672,311 L 672,312 L 673,313 L 673,312 L 674,312 L 675,312 L 676,312 L 677,313 L 678,313 L 678,314 L 679,314 L 679,315 L 679,316 L 679,317 L 680,318 L 681,318 L 682,319 L 682,320 L 682,321 L 683,321 L 683,322 L 684,322 L 684,323 L 685,323 L 686,324 L 687,325 L 688,326 L 688,325 L 689,325 L 690,325 L 691,325 L 692,325 L 693,325 L 693,326 L 692,326 L 693,326 L 694,326 L 694,325 L 695,325 L 696,325 L 695,325 L 695,326 L 694,326 L 693,327 L 692,327 L 692,326 L 691,326 L 691,325 L 691,326 L 690,326 L 690,325 L 689,325 L 688,326 L 688,327 L 689,327 L 689,328 L 688,328 L 688,329 L 687,329 L 687,330 L 687,331 L 686,332 L 686,333 L 686,334 L 686,335 L 687,335 L 687,336 L 686,336 L 685,336 L 684,337 L 683,337 L 683,338 L 683,339 L 682,340 L 681,340 L 680,340 L 680,341 L 679,342 L 679,343 L 678,344 L 678,345 L 677,346 L 677,347 L 677,348 L 677,349 L 677,350 L 677,351 L 677,352 L 676,352 L 676,353 L 675,353 L 674,353 L 673,354 L 672,355 L 672,356 L 671,357 L 670,357 L 670,356 L 669,356 L 668,357 L 668,358 L 667,359 L 666,359 L 665,359 L 665,358 L 664,358 L 663,358 L 662,357 L 661,356 L 660,356 L 659,357 L 658,358 L 657,359 L 657,360 L 656,361 L 656,362 L 656,363 L 656,364 L 655,365 L 654,365 L 653,365 L 653,366 L 652,366 L 652,365 L 651,365 L 650,365 L 649,364 L 648,364 L 647,364 L 646,364 L 645,364 L 644,364 L 644,365 L 643,365 L 643,364 L 642,364 L 642,363 L 642,361 L 641,360 L 641,359 L 640,359 L 640,358 L 639,358 L 638,358 L 638,359 L 637,360 L 636,360 L 635,361 L 634,361 L 633,361 L 632,361 L 631,362 L 630,362 L 629,363 L 628,363 L 627,363 L 627,364 L 626,364 L 625,364 L 624,364 L 624,363 L 623,363 L 622,362 L 621,362 L 621,361 L 620,360 L 619,360 L 618,360 L 615,359 L 614,359 L 613,359 L 612,359 L 611,359 L 610,359 L 609,359 L 608,359 L 607,359 L 607,358 L 606,358 L 605,358 L 605,357 L 605,356 L 605,355 L 605,354 L 604,353 L 604,352 L 603,352 L 602,352 L 601,352 L 600,352 L 599,352 L 598,353 L 597,353 L 596,353 L 595,353 L 594,354 L 593,354 L 592,354 L 591,354 L 590,354 L 590,353 L 589,353 L 588,353 L 588,352 L 588,351 L 588,350 L 588,349 L 589,348 L 589,347 L 589,346 L 589,345 L 590,345 L 590,344 L 590,343 L 590,342 L 590,341 L 590,340 L 591,340 L 591,339 L 591,338 L 591,337 L 592,336 L 592,335 L 592,334 L 593,333 L 593,332 L 593,331 L 594,330 L 594,329 L 594,328 L 595,327 L 595,326 L 595,325 L 595,324 L 596,323 L 596,322 L 597,322 L 597,321 L 598,321 L 598,320 L 599,320 L 599,319 L 600,318 L 601,317 L 601,316 L 602,316 L 602,315 L 603,315 L 604,315 L 604,314 L 605,314 L 606,314 L 606,313 L 607,313 L 607,312 L 608,312 L 608,311 L 608,310 L 609,310 L 609,309 L 610,309 L 608,308 L 606,306 L 604,304 L 603,303 L 603,302 L 603,301 L 603,300 L 603,299 L 603,298 L 602,298 L 602,297 L 601,296 L 601,295 L 600,295 L 599,295 L 598,294 L 598,293 L 598,292 L 597,292 L 597,291 L 596,291 L 596,290 L 596,291 L 595,291 L 595,292 L 594,292 L 593,292 L 593,293 L 592,293 L 591,293 L 591,294 L 590,295 L 590,296 L 589,296 L 589,297 L 588,297 L 588,298 L 587,298 L 586,298 L 585,299 L 584,299 L 583,299 L 584,300 L 584,301 L 585,301 L 586,302 L 587,302 L 587,301 L 588,301 L 589,301 L 589,302 L 589,303 L 589,304 L 588,305 L 587,305 L 586,304 L 585,304 L 585,305 L 584,305 L 584,306 L 585,306 L 586,306 L 587,306 L 588,306 L 588,307 L 587,307 L 587,308 L 587,309 L 586,309 L 586,310 L 587,311 L 588,311 L 589,311 L 589,312 L 589,313 L 588,313 L 588,314 L 587,314 L 588,314 L 588,315 L 587,315 L 587,316 L 587,317 L 586,317 L 586,318 L 585,318 L 585,319 L 584,319 L 583,319 L 582,319 L 581,319 L 580,319 L 580,318 L 579,318 L 579,317 L 579,316 L 578,315 L 578,314 L 577,313 L 578,313 L 578,312 L 578,311 L 577,310 L 577,309 L 577,308 L 578,308 L 578,307 L 577,307 L 576,306 L 575,306 L 574,306 L 574,305 L 573,305 L 572,306 L 572,305 L 572,304 L 572,305 L 571,305 L 571,306 L 571,307 L 570,307 L 570,308 L 570,309 L 569,309 L 569,310 L 568,311 L 567,311 L 567,312 L 566,312 L 565,312 L 565,311 L 564,311 L 563,310 L 562,310 L 561,310 L 561,309 L 560,309 L 559,309 L 558,309 L 557,309 L 556,309 L 555,309 L 554,309 L 554,310 L 553,310 L 552,310 L 551,311 L 550,311 L 549,311 L 548,311 L 547,311 L 546,311 L 546,310 L 546,309 L 546,308 L 546,307 L 546,306 L 546,305 L 546,304 L 546,303 L 545,303 L 545,302 L 545,301 L 544,300 L 544,299 L 543,298 L 543,297 L 543,296 L 543,297 L 542,297 L 541,297 L 541,298 L 540,299 L 539,299 L 539,300 L 538,300 L 537,301 L 536,302 L 535,302 L 534,303 L 533,304 L 532,304 L 532,305 L 531,305 L 531,306 L 530,306 L 530,307 L 529,307 L 528,307 L 527,306 L 526,306 L 525,306 L 524,306 L 523,306 L 522,306 L 521,306 L 520,306 L 519,305 L 518,305 L 517,304 L 516,303 L 516,302 L 517,302 L 517,301 L 517,300 L 516,299 L 516,298 L 517,298 L 517,297 L 516,297 L 515,297 L 515,298 L 514,298 L 513,298 L 513,297 L 512,296 L 512,295 L 512,294 L 511,293 L 511,292 L 510,291 L 509,291 L 508,291 L 507,290 L 506,290 L 505,290 L 505,291 L 504,291 L 503,290 L 502,290 L 501,290 L 501,289 L 500,289 L 500,288 L 498,286 L 496,284 L 496,285 L 496,286 L 496,287 L 496,288 L 495,288 L 494,288 L 493,288 L 493,287 L 492,286 L 492,285 L 491,285 L 491,284 L 490,284 L 489,283 L 488,282 L 489,281 L 490,281 L 490,280 L 491,280 L 491,279 L 492,279 L 492,278 L 492,277 L 492,276 L 492,275 L 492,274 L 492,273 L 492,272 L 496,272 L 497,273 L 499,275 L 500,278 L 501,279 L 502,279 L 502,278 L 503,278 L 504,278 L 505,278 L 506,278 L 507,278 L 508,277 L 509,277 L 510,277 L 511,277 L 511,278 L 512,278 L 513,277 L 514,277 L 514,276 L 515,276 L 516,276 L 516,275 L 517,275 L 518,275 L 519,274 L 519,273 L 519,272 L 520,271 L 520,267 L 521,267 L 521,266 L 520,262 L 518,262 L 517,262 L 516,261 L 516,260 L 515,260 L 514,259 L 513,258 L 510,258 L 509,258 L 509,257 L 508,257 L 508,256 L 507,256 L 506,256 L 506,255 L 505,254 L 502,253 L 501,253 L 500,253 L 498,252 L 498,251 L 497,251 L 495,251 L 494,250 L 493,250 L 492,251 L 491,252 L 490,252 L 489,252 L 488,252 L 487,252 L 486,252 L 487,250 L 487,249 L 486,249 L 486,248 L 486,247 L 487,247 L 487,245 L 487,244 L 488,244 L 488,243 L 488,242 L 488,241 L 485,240 L 485,239 L 485,240 L 484,239 L 483,239 L 482,238 L 481,238 L 480,238 L 480,237 L 479,236 L 478,236 L 477,235 L 476,235 L 475,235 L 474,235 L 474,234 L 473,234 L 472,234 L 472,233 L 472,232 L 471,231 L 470,231 L 470,230 L 469,230 L 469,229 L 469,228 L 468,227 L 468,226 L 467,227 L 466,227 L 465,227 L 465,226 L 464,225 L 463,224 L 462,224 L 461,224 L 460,223 L 460,222 L 459,222 L 459,221 L 459,220 L 458,219 L 456,218 L 455,217 L 454,217 L 454,216 L 453,216 L 453,215 L 453,213 L 454,213 L 454,212 L 455,211 L 456,211 L 458,209 L 459,209 L 467,209 L 481,208 L 482,208 L 489,208 L 490,208 L 498,208 L 501,208 L 503,207 L 503,208 L 504,206 L 504,203 L 507,196 L 509,190 L 510,185 L 510,184 L 512,180 L 513,176 L 513,174 L 515,173 L 516,171 L 517,170 L 522,166 L 523,166 L 528,161 L 529,161 L 532,158 L 532,157 L 538,153 L 541,151 L 545,147 L 546,147 L 548,145 L 551,142 L 553,141 L 557,137 L 558,137 L 559,137 L 559,136 L 560,137 L 561,137 L 562,137 L 562,138 L 561,139 L 561,140 L 561,141 L 561,142 L 560,144 L 560,145 L 560,146 L 560,147 L 560,148 L 561,148 L 562,149 L 563,149 L 563,148 L 563,147 L 563,146 L 563,145 L 564,145 L 564,144 L 565,144 L 565,143 L 566,143 L 566,142 L 567,141 L 568,141 L 569,141 L 570,142 L 571,143 L 572,143 L 572,144 L 573,144 L 574,144 L 574,145 L 575,145 L 575,146 L 574,147 L 574,148 L 574,149 L 575,150 L 575,151 L 576,151 L 576,152 L 576,153 L 576,154 L 576,155 L 576,156 L 576,157 L 577,157 L 577,158 L 577,159 L 577,160 L 576,161 L 575,162 L 574,163 L 574,164 L 574,165 L 573,165 L 573,164 L 572,164 L 571,164 L 570,163 L 570,164 L 570,165 L 569,166 L 568,166 L 567,166 L 567,165 L 566,165 L 565,164 L 565,163 L 564,163 L 563,163 L 562,163 L 561,163 L 560,163 L 559,163 L 559,162 L 558,162 L 557,162 L 556,162 L 555,162 L 555,163 L 554,163 L 553,164 L 552,165 L 551,165 L 551,166 L 551,167 L 550,167 L 549,167 L 548,167 L 548,168 L 547,168 L 547,169 L 546,169 L 546,170 L 546,171 L 546,172 L 546,173 L 547,173 L 548,173 L 548,174 L 549,174 L 549,175 L 550,175 L 551,175 L 551,176 L 550,176 L 550,177 L 549,177 L 548,178 L 547,178 L 547,179 L 546,179 L 546,180 L 545,180 L 544,180 L 544,179 L 543,179 L 543,180 L 542,180 L 542,181 L 542,182 L 542,183 L 542,184 L 542,185 L 541,185 L 541,186 L 542,186 L 542,185 L 543,185 L 543,186 L 544,187 L 544,188 L 545,188 L 545,189 L 546,190 L 546,191 L 546,192 L 546,193 L 546,194 L 546,195 L 547,195 L 548,195 L 549,196 L 550,196 L 551,196 L 551,195 L 552,195 L 552,194 L 552,193 L 553,193 L 554,192 L 555,192 L 555,191 L 556,191 L 557,191 L 557,190 L 558,190 L 558,191 L 559,191 L 559,192 L 558,192 L 558,193 L 557,193 L 557,194 L 556,194 L 556,195 L 556,196 L 556,197 L 556,198 L 556,199 L 556,200 L 556,201 L 556,202 L 556,203 L 556,204 L 556,205 L 556,206 L 556,207 L 555,207 L 555,208 L 555,209 L 556,210 L 558,210 L 558,211 L 558,212 L 557,213 L 557,214 L 556,215 L 556,216 L 555,217 L 553,219 L 551,220 L 550,221 L 549,222 L 548,222 L 547,222 L 547,223 L 546,223 L 545,223 L 544,223 L 544,222 L 543,222 L 541,221 L 540,220 L 540,221 L 539,221 L 538,223 L 538,225 L 537,226 L 540,226 L 541,226 L 542,227 L 543,227 L 544,228 L 545,229 L 545,230 L 546,231 L 546,232 L 547,235 L 548,235 L 548,236 L 549,236 L 550,237 L 550,236 L 551,236 L 553,235 L 554,235 L 555,235 L 555,234 L 556,234 L 556,235 L 556,236 L 556,237 L 557,236 L 557,237 L 557,238 L 557,239 L 557,240 L 558,240 L 558,241 L 557,241 L 555,241 L 552,243 L 548,244 L 545,245 L 545,246 L 545,247 L 546,248 L 546,249 L 546,250 L 547,250 L 547,251 L 548,251 L 549,251 L 551,251 L 553,251 L 556,250 L 557,250 L 558,250 L 559,250 L 559,249 L 559,248 L 558,247 L 558,246 L 558,245 L 558,244 L 558,243 L 558,242 L 558,241 L 559,241 L 559,240 L 560,240 L 560,239 L 560,238 L 561,238 L 562,238 L 563,238 L 564,238 L 565,238 L 565,239 L 566,238 L 567,237 L 567,236 L 567,235 L 567,234 L 568,234 L 568,233 L 568,232 L 568,231 L 569,230 L 571,228 L 572,228 L 573,228 L 573,227 L 574,227 L 575,227 L 576,227 L 576,226 L 577,226 L 578,226 L 579,225 L 580,225 L 581,225 L 582,225 L 583,225 L 584,225 L 585,225 L 586,226 L 587,226 L 588,226 L 588,225 L 589,226 L 590,227 L 589,227 L 589,228 L 590,230 L 591,231 L 591,234 L 591,235 L 591,236 L 592,237 L 591,237 L 591,238 L 590,238 L 589,238 L 589,237 L 588,237 L 587,237 L 587,236 L 586,236 L 586,235 L 585,235 L 584,235 L 584,234 L 583,234 L 582,234 L 581,234 L 580,235 L 580,234 L 579,234 L 579,233 L 578,233 L 578,234 L 577,234 L 577,235 L 576,235 L 575,235 L 574,236 L 573,236 L 573,237 L 572,237 L 572,238 L 572,239 L 571,239 L 570,239 L 569,239 L 568,239 L 567,239 L 567,240 L 567,241 L 568,242 L 568,243 L 568,244 L 568,245 L 569,246 L 569,247 L 570,248 L 571,248 L 572,248 L 577,247 L 578,246 L 579,246 L 580,246 L 582,246 L 583,245 L 584,245 L 584,244 L 585,244 L 586,243 L 586,244 L 586,243 L 587,243 L 588,244 L 590,244 L 591,244 L 592,244 L 592,243 L 593,243 L 595,242 L 596,242 L 597,242 L 598,242 L 598,243 L 599,243 L 600,244 L 600,245 L 601,245 L 602,244 L 601,244 L 601,243 L 600,242 L 600,241 L 600,240 L 600,239 L 601,238 L 601,237 L 601,236 L 602,236 L 602,235 L 601,235 L 600,235 L 599,234 L 598,233 L 598,232 L 598,231 L 598,230 L 598,229 L 599,228 L 599,227 L 598,227 L 599,226 L 597,226 L 597,225 L 597,224 L 598,224 L 599,224 L 600,224 L 601,224 L 602,224 L 602,225 L 603,225 L 603,226 L 604,226 L 604,227 L 605,227 L 605,226 L 605,225 L 606,225 L 607,225 L 607,224 L 608,224 L 609,224 L 610,224 L 611,225 L 612,225 L 613,225 L 613,226 L 614,226 L 615,227 L 616,227 L 616,228 L 617,228 L 618,228 L 618,229 L 618,230 L 617,230 L 616,231 L 615,231 L 615,232 L 615,233 L 616,233 L 616,232 L 617,232 L 618,232 L 618,233 L 618,234 L 618,235 L 619,235 L 620,236 L 621,237 L 622,237 L 622,238 L 623,238 L 624,238 L 625,238 L 626,238 L 627,237 L 627,235 L 628,235 L 629,234 L 629,233 L 629,232 L 628,232 L 628,231 L 627,229 L 626,229 L 626,228 L 625,227 L 624,226 L 624,225 L 624,224 L 624,223 L 625,222 L 626,221 L 626,220 L 626,219 L 627,219 L 627,218 L 626,218 L 626,217 L 627,216 L 629,216 L 630,216 L 631,216 L 631,217 L 632,217 L 632,218 L 633,218 L 633,219 L 634,219 L 634,220 L 635,220 L 635,221 L 636,221 L 637,221 L 638,221 L 639,221 L 640,221 L 641,221 L 641,220 L 641,219 L 641,218 L 640,218 L 640,217 L 641,216 L 642,216 L 643,216 L 643,215 L 644,215 L 645,215 L 646,214 L 647,214 L 647,215 L 648,215 L 648,216 L 648,217 L 647,217 L 646,218 L 645,219 L 646,220 L 647,221 L 648,221 L 648,222 L 649,222 L 649,223 L 648,223 L 648,224 L 649,225 L 650,225 L 651,225 L 652,226 L 652,225 L 653,225 L 654,225 L 654,226 L 655,227 L 655,228 L 655,229 L 654,229 L 653,230 L 652,230 L 652,231 L 651,231 L 651,232 L 650,233 L 651,234 L 652,234 L 653,235 L 654,235 L 655,235 L 656,234 L 657,234 L 657,235 L 657,236 L 656,236 L 656,237 L 655,237 L 654,237 L 653,238 L 653,239 L 653,240 L 654,240 L 654,241 L 654,242 L 654,243 L 654,244 L 655,244 L 655,245 L 656,245 L 657,245 L 658,245 L 659,246 L 660,246 L 661,246 L 662,247 L 662,248 L 663,248 L 663,249 L 662,250 L 662,251 L 662,252 L 662,253 L 662,254 L 662,255 L 661,257 L 661,258 L 661,259 L 661,260 L 660,260 L 660,261 L 661,262 L 661,263 L 662,263 L 661,263 L 661,264 L 660,265 L 658,266 L 658,267 L 657,267 L 657,268 L 656,269 L 655,269 L 654,270 L 654,271 L 653,271 L 653,272 L 653,273 L 653,274 L 654,274 L 654,273 L 654,272 L 655,272 L 656,272 L 657,272 L 658,273 L 658,274 L 657,274 L 657,275 L 658,276 L 659,276 L 660,276 L 661,275 L 662,275 L 663,275 L 664,275 L 664,276 L 663,276 L 663,277 L 662,277 L 661,277 L 661,278 L 660,278 L 660,279 L 659,280 L 659,281 L 660,281 L 660,282 L 661,282 L 661,283 L 662,283 L 662,282 L 663,282 L 663,281 L 664,281 L 665,281 L 666,281 L 667,282 L 668,282 " />
<path d="M 633,245 L 632,246 L 632,245 L 631,244 L 632,243 L 632,242 L 632,241 L 631,240 L 630,240 L 629,240 L 629,239 L 628,239 L 628,238 L 628,237 L 627,238 L 626,239 L 625,239 L 624,239 L 623,240 L 623,241 L 622,241 L 622,240 L 621,240 L 621,241 L 620,241 L 620,240 L 620,239 L 619,239 L 619,238 L 618,238 L 617,238 L 617,239 L 617,240 L 617,241 L 618,242 L 619,242 L 619,243 L 619,244 L 620,244 L 620,245 L 621,246 L 622,247 L 623,246 L 624,246 L 624,245 L 624,244 L 625,244 L 626,244 L 626,245 L 626,246 L 627,247 L 626,247 L 626,248 L 626,249 L 626,250 L 627,250 L 628,251 L 629,251 L 630,251 L 630,250 L 631,249 L 631,248 L 632,248 L 633,247 L 634,246 L 633,246 L 633,245 " />
<path d="M 615,242 L 615,241 L 614,241 L 614,240 L 614,239 L 614,238 L 613,238 L 613,237 L 612,237 L 611,237 L 610,237 L 610,238 L 611,239 L 611,240 L 612,241 L 613,241 L 614,242 L 615,242 " />
</g>
<g id="188" class="st0 dist-block" inkscape:label="Kudumulugumma">
<path d="M 668,282 L 669,282 L 670,282 L 671,282 L 672,282 L 673,281 L 673,280 L 674,279 L 674,278 L 675,278 L 676,278 L 676,277 L 677,276 L 678,275 L 679,274 L 680,273 L 680,272 L 681,272 L 681,271 L 680,271 L 679,271 L 678,272 L 677,272 L 677,271 L 677,270 L 678,270 L 678,269 L 677,269 L 676,269 L 676,270 L 675,270 L 675,269 L 674,269 L 674,267 L 672,266 L 671,267 L 671,268 L 671,269 L 672,269 L 672,270 L 672,271 L 671,270 L 670,270 L 669,270 L 668,270 L 668,271 L 668,272 L 669,272 L 668,272 L 667,273 L 666,273 L 665,273 L 664,273 L 664,274 L 665,275 L 666,275 L 666,274 L 666,275 L 667,275 L 668,275 L 668,276 L 667,276 L 667,277 L 668,278 L 667,278 L 667,279 L 667,280 L 668,280 L 668,281 L 668,282 L 667,282 L 666,281 L 665,281 L 664,281 L 663,281 L 663,282 L 662,282 L 662,283 L 661,283 L 661,282 L 660,282 L 660,281 L 659,281 L 659,280 L 660,279 L 660,278 L 661,278 L 661,277 L 662,277 L 663,277 L 663,276 L 664,276 L 664,275 L 663,275 L 662,275 L 661,275 L 660,276 L 659,276 L 658,276 L 657,275 L 657,274 L 658,274 L 658,273 L 657,272 L 656,272 L 655,272 L 654,272 L 654,273 L 654,274 L 653,274 L 653,273 L 653,272 L 653,271 L 654,271 L 654,270 L 655,269 L 656,269 L 657,268 L 657,267 L 658,267 L 658,266 L 660,265 L 661,264 L 661,263 L 662,263 L 661,263 L 661,262 L 660,261 L 660,260 L 661,260 L 661,259 L 661,258 L 661,257 L 662,255 L 662,254 L 662,253 L 662,252 L 662,251 L 662,250 L 663,249 L 663,248 L 662,248 L 662,247 L 661,246 L 660,246 L 659,246 L 658,245 L 659,245 L 659,244 L 660,244 L 660,243 L 660,244 L 661,244 L 662,244 L 663,244 L 664,244 L 665,244 L 666,244 L 666,245 L 666,246 L 667,246 L 667,247 L 667,248 L 667,249 L 668,249 L 669,248 L 670,248 L 671,248 L 672,248 L 672,247 L 673,247 L 674,246 L 675,245 L 676,245 L 676,244 L 676,243 L 676,242 L 676,241 L 677,241 L 677,240 L 677,239 L 678,238 L 678,237 L 678,236 L 678,235 L 678,234 L 677,235 L 676,235 L 675,235 L 674,235 L 674,236 L 673,237 L 673,236 L 672,236 L 672,237 L 672,238 L 671,238 L 671,239 L 670,238 L 671,237 L 671,236 L 671,235 L 670,235 L 670,234 L 670,233 L 669,232 L 670,231 L 670,230 L 671,230 L 671,229 L 671,228 L 672,227 L 673,227 L 674,228 L 675,228 L 676,228 L 677,227 L 676,227 L 675,226 L 674,226 L 674,225 L 673,225 L 674,225 L 675,225 L 675,224 L 675,223 L 675,222 L 676,222 L 676,221 L 677,221 L 677,220 L 676,220 L 676,219 L 676,218 L 676,217 L 675,217 L 675,216 L 674,216 L 673,216 L 673,217 L 672,217 L 671,217 L 671,216 L 671,215 L 671,214 L 672,213 L 671,212 L 672,212 L 671,211 L 671,210 L 670,210 L 670,209 L 669,209 L 669,208 L 669,207 L 670,207 L 671,207 L 672,207 L 673,207 L 673,206 L 674,206 L 675,206 L 675,205 L 676,205 L 677,205 L 678,205 L 679,205 L 680,205 L 680,204 L 681,204 L 681,205 L 682,205 L 683,204 L 683,203 L 684,202 L 684,201 L 684,200 L 685,200 L 685,199 L 686,199 L 687,199 L 688,198 L 689,198 L 690,197 L 690,196 L 691,196 L 691,195 L 692,195 L 693,194 L 694,193 L 694,192 L 694,191 L 693,191 L 693,190 L 693,189 L 693,188 L 692,187 L 692,186 L 692,185 L 692,184 L 692,183 L 691,182 L 691,181 L 691,180 L 690,180 L 690,179 L 690,178 L 690,177 L 689,176 L 690,176 L 691,176 L 692,175 L 693,175 L 694,175 L 695,175 L 695,176 L 695,177 L 695,178 L 696,179 L 696,180 L 697,180 L 697,181 L 698,181 L 699,181 L 700,181 L 701,180 L 702,180 L 703,180 L 704,180 L 705,180 L 705,179 L 706,179 L 706,178 L 707,178 L 707,177 L 707,176 L 708,176 L 708,175 L 708,174 L 708,173 L 708,172 L 707,172 L 707,171 L 707,170 L 707,169 L 706,169 L 706,168 L 705,168 L 704,167 L 704,166 L 705,166 L 705,165 L 706,164 L 706,163 L 707,163 L 707,162 L 708,162 L 709,162 L 710,162 L 711,161 L 711,162 L 712,162 L 712,163 L 713,163 L 714,163 L 714,164 L 715,164 L 715,165 L 716,165 L 716,166 L 717,167 L 717,168 L 718,168 L 719,168 L 719,169 L 720,170 L 721,170 L 721,171 L 722,171 L 723,171 L 724,171 L 724,172 L 724,173 L 724,174 L 724,175 L 724,176 L 724,177 L 724,178 L 723,178 L 723,179 L 723,180 L 722,180 L 722,181 L 722,182 L 722,183 L 722,184 L 722,185 L 722,186 L 721,187 L 721,188 L 721,189 L 722,189 L 722,190 L 723,190 L 724,190 L 724,191 L 725,191 L 726,191 L 727,191 L 728,191 L 729,190 L 730,191 L 730,190 L 731,190 L 732,190 L 734,190 L 735,191 L 736,192 L 737,192 L 738,192 L 739,192 L 739,193 L 740,193 L 741,192 L 740,192 L 740,191 L 741,190 L 742,190 L 743,191 L 744,191 L 743,190 L 742,190 L 741,189 L 742,189 L 742,188 L 742,187 L 743,186 L 744,186 L 744,185 L 742,184 L 742,183 L 741,183 L 740,182 L 739,181 L 738,180 L 738,179 L 738,178 L 738,177 L 739,177 L 739,176 L 739,175 L 740,175 L 740,174 L 741,174 L 757,182 L 757,187 L 757,188 L 756,189 L 756,190 L 755,190 L 755,191 L 755,193 L 755,194 L 755,195 L 756,195 L 758,194 L 759,194 L 761,194 L 761,193 L 762,193 L 762,194 L 763,194 L 764,195 L 764,196 L 765,197 L 765,198 L 765,199 L 765,201 L 765,202 L 765,203 L 765,204 L 766,205 L 766,206 L 767,207 L 768,208 L 768,209 L 769,209 L 770,209 L 771,208 L 772,207 L 773,207 L 776,204 L 777,203 L 778,203 L 778,202 L 778,201 L 779,200 L 779,199 L 780,198 L 780,197 L 782,196 L 783,195 L 784,195 L 785,195 L 786,196 L 787,196 L 788,196 L 788,195 L 789,195 L 789,194 L 789,193 L 790,193 L 790,192 L 790,191 L 789,191 L 789,190 L 790,190 L 789,189 L 790,189 L 790,188 L 790,187 L 791,188 L 791,189 L 792,189 L 792,190 L 792,191 L 792,192 L 793,192 L 793,191 L 793,190 L 794,190 L 794,191 L 793,191 L 794,191 L 793,191 L 793,192 L 794,192 L 795,192 L 795,191 L 796,191 L 797,190 L 797,189 L 797,188 L 798,188 L 798,189 L 799,188 L 799,187 L 799,186 L 800,186 L 800,185 L 799,185 L 798,185 L 798,184 L 798,183 L 799,184 L 800,184 L 800,185 L 800,184 L 801,184 L 801,183 L 801,182 L 801,181 L 801,180 L 802,180 L 802,181 L 801,182 L 801,183 L 802,183 L 802,184 L 803,184 L 803,183 L 803,182 L 804,182 L 804,183 L 805,183 L 805,182 L 805,181 L 806,181 L 806,180 L 807,180 L 806,180 L 807,180 L 807,179 L 808,179 L 809,179 L 809,178 L 810,178 L 810,177 L 810,176 L 811,176 L 811,175 L 811,176 L 812,176 L 812,177 L 811,177 L 810,178 L 810,179 L 809,179 L 808,179 L 808,180 L 808,181 L 809,181 L 809,182 L 810,182 L 810,183 L 811,184 L 811,185 L 811,186 L 812,186 L 812,187 L 812,188 L 813,188 L 814,189 L 815,189 L 815,190 L 815,191 L 815,192 L 815,193 L 815,194 L 815,195 L 816,195 L 816,196 L 816,197 L 816,198 L 817,198 L 818,198 L 818,199 L 817,199 L 817,200 L 817,201 L 817,202 L 817,203 L 817,204 L 818,204 L 817,205 L 817,206 L 817,207 L 817,208 L 817,209 L 816,210 L 815,211 L 814,211 L 814,212 L 813,212 L 812,212 L 812,213 L 811,213 L 810,213 L 809,213 L 809,214 L 809,215 L 808,215 L 807,216 L 806,217 L 806,218 L 806,219 L 806,220 L 805,220 L 805,221 L 804,221 L 804,222 L 803,222 L 802,223 L 802,224 L 801,224 L 801,225 L 800,225 L 800,226 L 799,226 L 799,227 L 798,227 L 798,228 L 797,228 L 797,227 L 796,227 L 795,228 L 794,228 L 793,228 L 793,229 L 794,230 L 794,231 L 795,231 L 795,232 L 796,232 L 797,233 L 798,233 L 798,234 L 799,234 L 800,234 L 801,234 L 802,234 L 802,235 L 803,234 L 804,234 L 805,234 L 805,233 L 806,233 L 807,233 L 807,232 L 808,232 L 808,231 L 808,230 L 809,230 L 809,229 L 810,229 L 811,229 L 811,228 L 812,228 L 812,229 L 813,229 L 814,228 L 815,228 L 816,228 L 817,228 L 818,228 L 819,229 L 820,229 L 820,230 L 820,231 L 820,232 L 821,232 L 821,233 L 821,234 L 821,235 L 821,236 L 820,237 L 820,238 L 820,239 L 820,240 L 820,241 L 820,242 L 820,243 L 820,244 L 819,245 L 818,245 L 818,246 L 817,246 L 817,247 L 817,248 L 816,248 L 816,249 L 815,249 L 815,250 L 814,250 L 814,251 L 813,251 L 813,252 L 812,252 L 812,253 L 811,253 L 810,253 L 809,253 L 809,254 L 808,254 L 807,254 L 806,254 L 805,254 L 805,253 L 804,253 L 803,253 L 803,252 L 802,252 L 802,253 L 801,253 L 800,253 L 799,253 L 798,253 L 797,253 L 796,253 L 796,254 L 795,254 L 795,255 L 795,256 L 794,256 L 794,257 L 794,258 L 794,259 L 794,260 L 794,261 L 793,261 L 793,262 L 792,262 L 792,263 L 792,262 L 791,268 L 791,269 L 791,270 L 791,271 L 791,272 L 792,272 L 792,273 L 791,273 L 791,274 L 790,274 L 789,274 L 789,275 L 788,275 L 787,275 L 786,275 L 786,276 L 786,277 L 785,278 L 786,278 L 786,279 L 787,279 L 787,280 L 788,280 L 788,281 L 789,281 L 790,281 L 790,282 L 791,282 L 791,283 L 790,283 L 790,284 L 789,284 L 789,285 L 788,285 L 787,286 L 787,287 L 786,287 L 786,288 L 785,289 L 784,289 L 784,290 L 783,290 L 782,290 L 781,291 L 780,291 L 779,291 L 779,292 L 778,292 L 779,292 L 779,293 L 779,294 L 779,295 L 780,295 L 780,296 L 779,296 L 779,297 L 779,298 L 779,299 L 779,300 L 780,300 L 780,301 L 780,302 L 781,302 L 781,303 L 782,303 L 783,303 L 783,304 L 784,304 L 785,304 L 785,305 L 786,305 L 786,306 L 787,306 L 787,307 L 788,307 L 789,307 L 789,308 L 790,308 L 791,308 L 791,309 L 792,309 L 793,309 L 793,308 L 794,308 L 795,308 L 796,308 L 796,309 L 797,309 L 798,309 L 799,309 L 799,310 L 800,310 L 800,311 L 800,312 L 801,312 L 801,313 L 802,313 L 802,314 L 802,315 L 803,315 L 804,316 L 805,316 L 805,317 L 805,318 L 806,318 L 806,319 L 807,319 L 807,320 L 808,321 L 808,322 L 807,323 L 807,324 L 806,324 L 806,325 L 806,326 L 806,327 L 805,327 L 805,328 L 804,328 L 803,328 L 802,328 L 802,327 L 801,327 L 801,326 L 800,326 L 800,325 L 800,324 L 799,324 L 798,324 L 798,323 L 797,323 L 796,323 L 796,322 L 795,322 L 795,321 L 794,321 L 793,321 L 793,320 L 792,320 L 792,321 L 791,321 L 791,322 L 791,323 L 791,324 L 792,324 L 792,325 L 793,325 L 793,326 L 793,327 L 793,328 L 792,328 L 792,329 L 791,329 L 791,330 L 790,330 L 790,331 L 790,332 L 789,332 L 789,333 L 790,333 L 790,334 L 790,335 L 789,335 L 789,336 L 789,337 L 789,338 L 789,339 L 790,340 L 790,341 L 789,341 L 789,342 L 789,343 L 790,343 L 790,344 L 790,345 L 790,346 L 791,346 L 791,347 L 792,347 L 793,347 L 794,347 L 795,347 L 795,348 L 795,349 L 795,350 L 795,351 L 796,351 L 796,352 L 796,353 L 796,354 L 795,354 L 795,355 L 795,356 L 795,357 L 796,357 L 796,358 L 797,358 L 797,359 L 796,359 L 796,360 L 796,361 L 795,361 L 794,362 L 794,363 L 794,364 L 794,365 L 793,365 L 793,366 L 793,367 L 793,368 L 792,368 L 792,369 L 791,369 L 791,370 L 790,370 L 789,371 L 788,371 L 787,371 L 787,370 L 787,369 L 787,368 L 786,368 L 786,367 L 785,367 L 784,367 L 783,367 L 782,367 L 781,367 L 781,368 L 781,369 L 781,370 L 781,371 L 782,371 L 782,372 L 782,373 L 781,373 L 781,374 L 780,374 L 780,373 L 779,373 L 778,373 L 777,374 L 776,374 L 775,374 L 775,373 L 775,372 L 775,371 L 776,371 L 776,370 L 776,369 L 775,369 L 774,369 L 774,368 L 773,369 L 772,369 L 771,369 L 770,369 L 770,368 L 771,368 L 771,367 L 771,366 L 771,365 L 771,364 L 772,364 L 773,364 L 773,363 L 774,363 L 774,362 L 773,362 L 772,362 L 771,362 L 770,362 L 770,363 L 769,363 L 769,362 L 768,362 L 767,362 L 766,362 L 766,363 L 766,364 L 765,364 L 765,365 L 765,364 L 764,364 L 763,364 L 762,364 L 762,365 L 761,365 L 761,366 L 760,366 L 760,367 L 759,367 L 758,367 L 757,367 L 757,368 L 757,369 L 756,369 L 756,370 L 756,371 L 756,372 L 756,373 L 755,374 L 754,374 L 754,375 L 753,375 L 752,375 L 752,376 L 753,376 L 753,377 L 754,377 L 754,378 L 755,378 L 755,379 L 755,380 L 756,380 L 756,381 L 756,382 L 756,383 L 757,383 L 757,384 L 757,385 L 757,386 L 757,387 L 757,388 L 757,389 L 757,390 L 757,391 L 756,391 L 756,392 L 756,393 L 756,394 L 755,395 L 755,396 L 754,397 L 754,398 L 752,398 L 750,398 L 747,398 L 745,398 L 742,398 L 739,397 L 736,397 L 734,396 L 733,396 L 732,395 L 731,395 L 730,394 L 729,394 L 728,393 L 727,392 L 726,391 L 725,391 L 725,390 L 724,390 L 724,389 L 723,388 L 724,388 L 724,387 L 723,386 L 723,387 L 722,387 L 721,387 L 720,387 L 719,388 L 718,387 L 717,388 L 716,388 L 715,388 L 714,388 L 714,387 L 713,387 L 713,386 L 712,386 L 711,386 L 711,385 L 711,384 L 712,383 L 713,382 L 713,381 L 713,380 L 713,379 L 712,379 L 712,378 L 711,378 L 711,377 L 710,377 L 710,376 L 709,376 L 709,375 L 709,374 L 708,373 L 708,372 L 707,372 L 707,371 L 707,370 L 706,370 L 706,369 L 705,369 L 704,369 L 703,369 L 702,369 L 701,370 L 700,370 L 699,370 L 698,371 L 698,370 L 697,370 L 696,369 L 695,369 L 694,370 L 693,371 L 692,371 L 691,371 L 691,372 L 690,373 L 690,372 L 690,371 L 690,370 L 690,369 L 690,368 L 689,367 L 689,366 L 689,365 L 689,364 L 688,364 L 687,364 L 686,364 L 685,364 L 684,364 L 683,363 L 683,362 L 682,362 L 681,363 L 680,363 L 679,363 L 678,363 L 677,362 L 676,362 L 675,363 L 674,364 L 673,364 L 672,363 L 671,363 L 671,362 L 670,362 L 670,361 L 670,360 L 669,360 L 668,360 L 667,359 L 668,358 L 668,357 L 669,356 L 670,356 L 670,357 L 671,357 L 672,356 L 672,355 L 673,354 L 674,353 L 675,353 L 676,353 L 676,352 L 677,352 L 677,351 L 677,350 L 677,349 L 677,348 L 677,347 L 677,346 L 678,345 L 678,344 L 679,343 L 679,342 L 680,341 L 680,340 L 681,340 L 682,340 L 683,339 L 683,338 L 683,337 L 684,337 L 685,336 L 686,336 L 687,336 L 687,335 L 686,335 L 686,334 L 686,333 L 686,332 L 687,331 L 687,330 L 687,329 L 688,329 L 688,328 L 689,328 L 689,327 L 688,327 L 688,326 L 689,325 L 690,325 L 690,326 L 691,326 L 691,325 L 691,326 L 692,326 L 692,327 L 693,327 L 694,326 L 695,326 L 695,325 L 696,325 L 695,325 L 694,325 L 694,326 L 693,326 L 692,326 L 693,326 L 693,325 L 692,325 L 691,325 L 690,325 L 689,325 L 688,325 L 688,326 L 687,325 L 686,324 L 685,323 L 684,323 L 684,322 L 683,322 L 683,321 L 682,321 L 682,320 L 682,319 L 681,318 L 680,318 L 679,317 L 679,316 L 679,315 L 679,314 L 678,314 L 678,313 L 677,313 L 676,312 L 675,312 L 674,312 L 673,312 L 673,313 L 672,312 L 672,311 L 672,310 L 671,310 L 671,309 L 672,308 L 672,307 L 672,306 L 671,305 L 671,303 L 671,302 L 670,301 L 670,300 L 669,300 L 669,299 L 668,299 L 668,298 L 667,298 L 667,297 L 667,296 L 666,296 L 666,295 L 666,294 L 666,293 L 667,293 L 667,292 L 668,291 L 667,291 L 667,290 L 667,289 L 667,285 L 668,283 L 668,282 " />
<path d="M 669,265 L 668,265 L 668,266 L 669,265 " />
<path d="M 663,264 L 662,264 L 663,264 " />
<path d="M 663,255 L 663,256 L 663,255 " />
<path d="M 664,252 L 664,251 L 663,252 L 664,252 " />
<path d="M 663,249 L 664,248 L 663,248 L 663,249 " />
<path d="M 724,209 L 725,209 L 725,208 L 724,208 L 724,209 " />
<path d="M 737,202 L 736,202 L 736,201 L 736,200 L 736,199 L 736,198 L 735,198 L 734,198 L 733,198 L 733,197 L 732,197 L 731,197 L 730,197 L 729,197 L 728,197 L 727,197 L 726,197 L 726,198 L 727,198 L 727,199 L 728,200 L 728,201 L 728,202 L 728,203 L 729,203 L 730,203 L 730,204 L 731,204 L 731,203 L 732,203 L 733,203 L 734,204 L 735,204 L 737,204 L 737,203 L 737,202 " />
<path d="M 752,193 L 751,193 L 751,194 L 752,194 L 752,193 " />
<path d="M 754,190 L 753,190 L 753,191 L 754,191 L 754,190 " />
<path d="M 661,245 L 661,246 L 661,245 " />
</g>
<g id="207" class="st0 dist-block" inkscape:label="Malkangiri">
<path d="M 630,240 L 631,240 L 632,241 L 632,242 L 632,243 L 631,244 L 632,245 L 632,246 L 633,245 L 633,246 L 634,246 L 633,247 L 632,248 L 631,248 L 631,249 L 630,250 L 630,251 L 629,251 L 628,251 L 627,250 L 626,250 L 626,249 L 626,248 L 626,247 L 627,247 L 626,246 L 626,245 L 626,244 L 625,244 L 624,244 L 624,245 L 624,246 L 623,246 L 622,247 L 621,246 L 620,245 L 620,244 L 619,244 L 619,243 L 619,242 L 618,242 L 617,241 L 617,240 L 617,239 L 617,238 L 618,238 L 619,238 L 619,239 L 620,239 L 620,240 L 620,241 L 621,241 L 621,240 L 622,240 L 622,241 L 623,241 L 623,240 L 624,239 L 625,239 L 626,239 L 627,238 L 628,237 L 628,238 L 628,239 L 629,239 L 629,240 L 630,240 " />
<path d="M 612,237 L 613,237 L 613,238 L 614,238 L 614,239 L 614,240 L 614,241 L 615,241 L 615,242 L 614,242 L 613,241 L 612,241 L 611,240 L 611,239 L 610,238 L 610,237 L 611,237 L 612,237 " />
<path d="M 641,95 L 642,95 L 643,95 L 642,95 L 642,96 L 641,97 L 642,97 L 643,97 L 643,98 L 643,99 L 642,99 L 641,99 L 642,100 L 642,101 L 643,102 L 644,103 L 645,104 L 646,105 L 647,106 L 649,108 L 649,109 L 648,109 L 648,110 L 648,111 L 647,111 L 646,112 L 645,112 L 644,113 L 644,114 L 643,115 L 642,115 L 641,116 L 642,117 L 642,118 L 642,119 L 643,119 L 643,120 L 642,121 L 641,121 L 641,122 L 641,121 L 640,121 L 639,121 L 638,121 L 637,121 L 636,121 L 635,121 L 634,121 L 634,120 L 633,120 L 632,119 L 631,119 L 630,119 L 628,119 L 628,120 L 627,120 L 627,121 L 627,122 L 627,123 L 627,124 L 628,124 L 628,125 L 627,126 L 627,127 L 626,127 L 626,128 L 626,129 L 626,130 L 625,130 L 625,129 L 625,128 L 625,127 L 624,126 L 623,126 L 622,126 L 622,125 L 621,125 L 620,126 L 619,126 L 618,126 L 617,126 L 616,126 L 615,127 L 614,128 L 614,129 L 613,130 L 614,131 L 614,133 L 613,133 L 612,133 L 612,134 L 614,134 L 615,134 L 616,134 L 617,135 L 617,136 L 616,136 L 616,137 L 617,137 L 617,138 L 618,138 L 618,139 L 619,139 L 620,138 L 621,137 L 622,136 L 623,136 L 624,135 L 625,134 L 625,135 L 626,135 L 626,134 L 627,134 L 627,133 L 628,133 L 629,133 L 630,133 L 631,133 L 632,133 L 634,133 L 634,132 L 635,132 L 636,133 L 637,133 L 637,134 L 638,134 L 638,135 L 637,136 L 637,137 L 636,137 L 637,137 L 637,138 L 637,139 L 636,140 L 636,142 L 636,143 L 637,144 L 637,146 L 638,147 L 637,149 L 638,149 L 638,150 L 639,150 L 640,150 L 641,149 L 642,149 L 642,148 L 643,148 L 644,148 L 645,148 L 645,147 L 646,148 L 647,149 L 648,150 L 649,151 L 650,151 L 650,152 L 651,152 L 652,153 L 653,154 L 654,155 L 655,158 L 657,160 L 657,161 L 660,160 L 661,160 L 662,160 L 663,160 L 665,158 L 666,157 L 667,157 L 667,156 L 668,156 L 668,155 L 669,155 L 669,154 L 670,153 L 671,154 L 672,156 L 673,157 L 674,158 L 675,158 L 676,159 L 675,159 L 675,160 L 674,161 L 673,161 L 674,162 L 675,162 L 675,163 L 676,163 L 676,164 L 677,164 L 677,165 L 678,165 L 678,166 L 679,166 L 678,166 L 678,167 L 678,168 L 677,169 L 677,170 L 677,171 L 678,171 L 678,172 L 678,173 L 679,174 L 680,175 L 681,175 L 682,175 L 682,176 L 683,176 L 684,176 L 684,177 L 685,177 L 686,177 L 687,177 L 688,177 L 689,176 L 690,177 L 690,178 L 690,179 L 690,180 L 691,180 L 691,181 L 691,182 L 692,183 L 692,184 L 692,185 L 692,186 L 692,187 L 693,188 L 693,189 L 693,190 L 693,191 L 694,191 L 694,192 L 694,193 L 693,194 L 692,195 L 691,195 L 691,196 L 690,196 L 690,197 L 689,198 L 688,198 L 687,199 L 686,199 L 685,199 L 685,200 L 684,200 L 684,201 L 684,202 L 683,203 L 683,204 L 682,205 L 681,205 L 681,204 L 680,204 L 680,205 L 679,205 L 678,205 L 677,205 L 676,205 L 675,205 L 675,206 L 674,206 L 673,206 L 673,207 L 672,207 L 671,207 L 670,207 L 669,207 L 669,208 L 669,209 L 670,209 L 670,210 L 671,210 L 671,211 L 672,212 L 671,212 L 672,213 L 671,214 L 671,215 L 671,216 L 671,217 L 672,217 L 673,217 L 673,216 L 674,216 L 675,216 L 675,217 L 676,217 L 676,218 L 676,219 L 676,220 L 677,220 L 677,221 L 676,221 L 676,222 L 675,222 L 675,223 L 675,224 L 675,225 L 674,225 L 673,225 L 674,225 L 674,226 L 675,226 L 676,227 L 677,227 L 676,228 L 675,228 L 674,228 L 673,227 L 672,227 L 671,228 L 671,229 L 671,230 L 670,230 L 670,231 L 669,232 L 670,233 L 670,234 L 670,235 L 671,235 L 671,236 L 671,237 L 670,238 L 671,239 L 671,238 L 672,238 L 672,237 L 672,236 L 673,236 L 673,237 L 674,236 L 674,235 L 675,235 L 676,235 L 677,235 L 678,234 L 678,235 L 678,236 L 678,237 L 678,238 L 677,239 L 677,240 L 677,241 L 676,241 L 676,242 L 676,243 L 676,244 L 676,245 L 675,245 L 674,246 L 673,247 L 672,247 L 672,248 L 671,248 L 670,248 L 669,248 L 668,249 L 667,249 L 667,248 L 667,247 L 667,246 L 666,246 L 666,245 L 666,244 L 665,244 L 664,244 L 663,244 L 662,244 L 661,244 L 660,244 L 660,243 L 660,244 L 659,244 L 659,245 L 658,245 L 657,245 L 656,245 L 655,245 L 655,244 L 654,244 L 654,243 L 654,242 L 654,241 L 654,240 L 653,240 L 653,239 L 653,238 L 654,237 L 655,237 L 656,237 L 656,236 L 657,236 L 657,235 L 657,234 L 656,234 L 655,235 L 654,235 L 653,235 L 652,234 L 651,234 L 650,233 L 651,232 L 651,231 L 652,231 L 652,230 L 653,230 L 654,229 L 655,229 L 655,228 L 655,227 L 654,226 L 654,225 L 653,225 L 652,225 L 652,226 L 651,225 L 650,225 L 649,225 L 648,224 L 648,223 L 649,223 L 649,222 L 648,222 L 648,221 L 647,221 L 646,220 L 645,219 L 646,218 L 647,217 L 648,217 L 648,216 L 648,215 L 647,215 L 647,214 L 646,214 L 645,215 L 644,215 L 643,215 L 643,216 L 642,216 L 641,216 L 640,217 L 640,218 L 641,218 L 641,219 L 641,220 L 641,221 L 640,221 L 639,221 L 638,221 L 637,221 L 636,221 L 635,221 L 635,220 L 634,220 L 634,219 L 633,219 L 633,218 L 632,218 L 632,217 L 631,217 L 631,216 L 630,216 L 629,216 L 627,216 L 626,217 L 626,218 L 627,218 L 627,219 L 626,219 L 626,220 L 626,221 L 625,222 L 624,223 L 624,224 L 624,225 L 624,226 L 625,227 L 626,228 L 626,229 L 627,229 L 628,231 L 628,232 L 629,232 L 629,233 L 629,234 L 628,235 L 627,235 L 627,237 L 626,238 L 625,238 L 624,238 L 623,238 L 622,238 L 622,237 L 621,237 L 620,236 L 619,235 L 618,235 L 618,234 L 618,233 L 618,232 L 617,232 L 616,232 L 616,233 L 615,233 L 615,232 L 615,231 L 616,231 L 617,230 L 618,230 L 618,229 L 618,228 L 617,228 L 616,228 L 616,227 L 615,227 L 614,226 L 613,226 L 613,225 L 612,225 L 611,225 L 610,224 L 609,224 L 608,224 L 607,224 L 607,225 L 606,225 L 605,225 L 605,226 L 605,227 L 604,227 L 604,226 L 603,226 L 603,225 L 602,225 L 602,224 L 601,224 L 600,224 L 599,224 L 598,224 L 597,224 L 597,225 L 597,226 L 599,226 L 598,227 L 599,227 L 599,228 L 598,229 L 598,230 L 598,231 L 598,232 L 598,233 L 599,234 L 600,235 L 601,235 L 602,235 L 602,236 L 601,236 L 601,237 L 601,238 L 600,239 L 600,240 L 600,241 L 600,242 L 601,243 L 601,244 L 602,244 L 601,245 L 600,245 L 600,244 L 599,243 L 598,243 L 598,242 L 597,242 L 596,242 L 595,242 L 593,243 L 592,243 L 592,244 L 591,244 L 590,244 L 588,244 L 587,243 L 586,243 L 586,244 L 586,243 L 585,244 L 584,244 L 584,245 L 583,245 L 582,246 L 580,246 L 579,246 L 578,246 L 577,247 L 572,248 L 571,248 L 570,248 L 569,247 L 569,246 L 568,245 L 568,244 L 568,243 L 568,242 L 567,241 L 567,240 L 567,239 L 568,239 L 569,239 L 570,239 L 571,239 L 572,239 L 572,238 L 572,237 L 573,237 L 573,236 L 574,236 L 575,235 L 576,235 L 577,235 L 577,234 L 578,234 L 578,233 L 579,233 L 579,234 L 580,234 L 580,235 L 581,234 L 582,234 L 583,234 L 584,234 L 584,235 L 585,235 L 586,235 L 586,236 L 587,236 L 587,237 L 588,237 L 589,237 L 589,238 L 590,238 L 591,238 L 591,237 L 592,237 L 591,236 L 591,235 L 591,234 L 591,231 L 590,230 L 589,228 L 589,227 L 590,227 L 589,226 L 588,225 L 588,226 L 587,226 L 586,226 L 585,225 L 584,225 L 583,225 L 582,225 L 581,225 L 580,225 L 579,225 L 578,226 L 577,226 L 576,226 L 576,227 L 575,227 L 574,227 L 573,227 L 573,228 L 572,228 L 571,228 L 569,230 L 568,231 L 568,232 L 568,233 L 568,234 L 567,234 L 567,235 L 567,236 L 567,237 L 566,238 L 565,239 L 565,238 L 564,238 L 563,238 L 562,238 L 561,238 L 560,238 L 560,239 L 560,240 L 559,240 L 559,241 L 558,241 L 558,242 L 558,243 L 558,244 L 558,245 L 558,246 L 558,247 L 559,248 L 559,249 L 559,250 L 558,250 L 557,250 L 556,250 L 553,251 L 551,251 L 549,251 L 548,251 L 547,251 L 547,250 L 546,250 L 546,249 L 546,248 L 545,247 L 545,246 L 545,245 L 548,244 L 552,243 L 555,241 L 557,241 L 558,241 L 558,240 L 557,240 L 557,239 L 557,238 L 557,237 L 557,236 L 556,237 L 556,236 L 556,235 L 556,234 L 555,234 L 555,235 L 554,235 L 553,235 L 551,236 L 550,236 L 550,237 L 549,236 L 548,236 L 548,235 L 547,235 L 546,232 L 546,231 L 545,230 L 545,229 L 544,228 L 543,227 L 542,227 L 541,226 L 540,226 L 537,226 L 538,225 L 538,223 L 539,221 L 540,221 L 540,220 L 541,221 L 543,222 L 544,222 L 544,223 L 545,223 L 546,223 L 547,223 L 547,222 L 548,222 L 549,222 L 550,221 L 551,220 L 553,219 L 555,217 L 556,216 L 556,215 L 557,214 L 557,213 L 558,212 L 558,211 L 558,210 L 556,210 L 555,209 L 555,208 L 555,207 L 556,207 L 556,206 L 556,205 L 556,204 L 556,203 L 556,202 L 556,201 L 556,200 L 556,199 L 556,198 L 556,197 L 556,196 L 556,195 L 556,194 L 557,194 L 557,193 L 558,193 L 558,192 L 559,192 L 559,191 L 558,191 L 558,190 L 557,190 L 557,191 L 556,191 L 555,191 L 555,192 L 554,192 L 553,193 L 552,193 L 552,194 L 552,195 L 551,195 L 551,196 L 550,196 L 549,196 L 548,195 L 547,195 L 546,195 L 546,194 L 546,193 L 546,192 L 546,191 L 546,190 L 545,189 L 545,188 L 544,188 L 544,187 L 543,186 L 543,185 L 542,185 L 542,186 L 541,186 L 541,185 L 542,185 L 542,184 L 542,183 L 542,182 L 542,181 L 542,180 L 543,180 L 543,179 L 544,179 L 544,180 L 545,180 L 546,180 L 546,179 L 547,179 L 547,178 L 548,178 L 549,177 L 550,177 L 550,176 L 551,176 L 551,175 L 550,175 L 549,175 L 549,174 L 548,174 L 548,173 L 547,173 L 546,173 L 546,172 L 546,171 L 546,170 L 546,169 L 547,169 L 547,168 L 548,168 L 548,167 L 549,167 L 550,167 L 551,167 L 551,166 L 551,165 L 552,165 L 553,164 L 554,163 L 555,163 L 555,162 L 556,162 L 557,162 L 558,162 L 559,162 L 559,163 L 560,163 L 561,163 L 562,163 L 563,163 L 564,163 L 565,163 L 565,164 L 566,165 L 567,165 L 567,166 L 568,166 L 569,166 L 570,165 L 570,164 L 570,163 L 571,164 L 572,164 L 573,164 L 573,165 L 574,165 L 574,164 L 574,163 L 575,162 L 576,161 L 577,160 L 577,159 L 577,158 L 577,157 L 576,157 L 576,156 L 576,155 L 576,154 L 576,153 L 576,152 L 576,151 L 575,151 L 575,150 L 574,149 L 574,148 L 574,147 L 575,146 L 575,145 L 574,145 L 574,144 L 573,144 L 572,144 L 572,143 L 571,143 L 570,142 L 569,141 L 568,141 L 567,141 L 566,142 L 566,143 L 565,143 L 565,144 L 564,144 L 564,145 L 563,145 L 563,146 L 563,147 L 563,148 L 563,149 L 562,149 L 561,148 L 560,148 L 560,147 L 560,146 L 560,145 L 560,144 L 561,142 L 561,141 L 561,140 L 561,139 L 562,138 L 562,137 L 561,137 L 560,137 L 559,136 L 559,137 L 558,137 L 557,137 L 557,132 L 558,131 L 558,128 L 559,127 L 560,126 L 561,125 L 562,123 L 563,122 L 564,120 L 565,119 L 567,119 L 569,120 L 570,120 L 571,118 L 572,117 L 572,116 L 573,115 L 574,114 L 574,113 L 575,113 L 576,114 L 577,114 L 578,115 L 579,115 L 580,115 L 581,115 L 582,115 L 583,114 L 584,114 L 584,113 L 584,112 L 583,112 L 583,111 L 583,110 L 582,109 L 581,109 L 581,108 L 580,108 L 581,108 L 582,107 L 583,107 L 583,106 L 584,106 L 584,105 L 583,104 L 583,103 L 583,102 L 583,100 L 584,100 L 585,100 L 585,99 L 585,98 L 586,97 L 586,96 L 587,96 L 588,96 L 589,96 L 589,97 L 590,96 L 591,96 L 592,97 L 593,98 L 593,99 L 594,99 L 595,99 L 596,99 L 597,99 L 598,99 L 599,99 L 600,99 L 600,98 L 601,98 L 602,98 L 603,98 L 604,97 L 605,98 L 605,97 L 606,97 L 607,97 L 607,98 L 608,98 L 609,98 L 610,99 L 611,99 L 612,99 L 613,99 L 614,99 L 615,99 L 616,99 L 617,99 L 618,99 L 619,99 L 620,99 L 621,100 L 622,100 L 622,99 L 623,99 L 624,99 L 625,98 L 626,98 L 627,98 L 628,98 L 629,97 L 630,97 L 632,97 L 633,97 L 633,96 L 634,96 L 635,96 L 638,95 L 639,95 L 640,94 L 641,95 " />
<path d="M 612,223 L 612,224 L 613,224 L 613,223 L 612,223 " />
<path d="M 663,230 L 663,231 L 664,231 L 665,230 L 663,229 L 663,230 " />
</g>
<g id="210" class="st0 dist-block" inkscape:label="Mathili">
<path d="M 682,16 L 683,16 L 683,17 L 684,17 L 685,17 L 685,18 L 686,18 L 686,19 L 687,19 L 687,18 L 688,18 L 689,18 L 689,19 L 690,19 L 691,19 L 691,20 L 691,19 L 692,20 L 693,20 L 694,21 L 695,21 L 696,21 L 696,22 L 696,23 L 697,24 L 697,25 L 697,26 L 697,27 L 697,28 L 697,29 L 698,29 L 699,29 L 700,29 L 701,29 L 701,30 L 701,31 L 701,32 L 701,33 L 702,34 L 702,35 L 702,36 L 702,37 L 702,38 L 701,38 L 701,39 L 701,40 L 701,41 L 700,41 L 699,42 L 698,42 L 698,41 L 697,42 L 696,43 L 696,44 L 697,44 L 697,45 L 698,45 L 699,45 L 699,46 L 700,46 L 701,46 L 701,47 L 702,47 L 702,48 L 702,49 L 702,50 L 703,50 L 703,51 L 703,50 L 704,50 L 704,49 L 705,50 L 706,50 L 707,50 L 707,49 L 708,49 L 708,48 L 709,48 L 709,47 L 709,48 L 710,48 L 710,49 L 711,49 L 711,50 L 711,51 L 711,52 L 711,53 L 711,54 L 711,55 L 711,56 L 711,57 L 712,57 L 712,58 L 712,59 L 712,60 L 712,61 L 713,62 L 714,62 L 714,63 L 715,64 L 715,65 L 716,65 L 717,65 L 718,65 L 719,65 L 720,65 L 721,65 L 722,64 L 722,63 L 722,62 L 722,61 L 723,61 L 723,60 L 723,59 L 724,59 L 725,59 L 725,58 L 726,58 L 727,57 L 728,56 L 728,57 L 728,58 L 729,57 L 730,57 L 730,56 L 731,56 L 732,56 L 732,55 L 733,55 L 734,54 L 734,53 L 735,53 L 735,52 L 735,51 L 736,51 L 736,50 L 737,50 L 738,51 L 738,50 L 739,50 L 740,49 L 741,49 L 741,50 L 742,51 L 742,52 L 743,52 L 743,53 L 744,53 L 744,54 L 744,55 L 745,56 L 745,57 L 745,58 L 745,59 L 745,60 L 744,61 L 744,62 L 745,62 L 745,63 L 746,63 L 747,63 L 747,64 L 747,65 L 746,65 L 746,66 L 745,66 L 745,67 L 744,68 L 744,69 L 744,70 L 745,70 L 745,71 L 746,71 L 746,72 L 745,72 L 745,73 L 744,73 L 743,74 L 742,74 L 741,74 L 741,75 L 741,76 L 740,76 L 740,77 L 740,78 L 741,78 L 740,79 L 741,80 L 742,80 L 742,79 L 742,78 L 742,77 L 743,77 L 743,78 L 743,79 L 744,79 L 744,78 L 745,79 L 746,79 L 747,79 L 747,78 L 747,77 L 748,77 L 748,76 L 749,76 L 750,77 L 750,78 L 750,79 L 751,80 L 752,79 L 753,79 L 753,78 L 754,78 L 755,79 L 755,80 L 755,81 L 755,82 L 755,83 L 755,84 L 756,84 L 757,84 L 757,85 L 757,86 L 757,87 L 758,87 L 759,87 L 759,88 L 760,88 L 760,89 L 760,90 L 761,91 L 761,92 L 760,92 L 760,93 L 760,96 L 760,98 L 760,100 L 760,101 L 760,102 L 761,102 L 762,102 L 763,103 L 763,104 L 764,105 L 765,105 L 765,106 L 766,107 L 766,108 L 767,108 L 768,108 L 768,109 L 769,109 L 770,109 L 770,110 L 771,110 L 771,111 L 771,112 L 771,113 L 771,114 L 771,115 L 770,115 L 769,116 L 768,116 L 768,115 L 767,114 L 766,113 L 765,112 L 765,111 L 764,111 L 764,110 L 764,109 L 763,109 L 763,108 L 762,108 L 762,109 L 761,109 L 761,108 L 760,108 L 760,107 L 759,107 L 759,106 L 758,105 L 758,104 L 757,104 L 757,105 L 756,105 L 756,104 L 756,105 L 756,106 L 756,107 L 757,107 L 757,108 L 757,109 L 756,110 L 756,111 L 756,112 L 756,113 L 757,114 L 757,115 L 757,116 L 757,117 L 756,117 L 756,118 L 755,118 L 755,119 L 755,120 L 755,121 L 755,122 L 754,123 L 753,123 L 753,124 L 752,124 L 752,125 L 751,125 L 750,125 L 749,125 L 747,124 L 746,124 L 745,124 L 744,124 L 744,125 L 745,125 L 746,126 L 746,127 L 747,127 L 746,128 L 746,129 L 745,130 L 745,131 L 746,131 L 746,130 L 747,131 L 747,132 L 746,132 L 745,132 L 744,132 L 743,132 L 742,133 L 741,133 L 739,132 L 739,131 L 738,131 L 737,131 L 738,132 L 738,133 L 737,133 L 737,134 L 736,134 L 736,135 L 735,135 L 734,136 L 733,136 L 733,137 L 732,137 L 731,137 L 731,138 L 730,137 L 730,136 L 729,136 L 728,136 L 728,135 L 729,135 L 729,134 L 730,134 L 730,133 L 731,133 L 732,133 L 733,132 L 733,131 L 733,130 L 732,130 L 731,130 L 730,130 L 729,130 L 728,131 L 727,131 L 727,130 L 726,130 L 725,129 L 724,129 L 723,130 L 722,130 L 721,130 L 720,131 L 719,131 L 719,132 L 718,133 L 717,133 L 717,134 L 716,134 L 716,133 L 715,133 L 715,132 L 714,132 L 714,133 L 713,133 L 714,133 L 714,134 L 714,135 L 713,136 L 713,137 L 713,138 L 713,139 L 714,139 L 714,140 L 715,140 L 716,140 L 717,140 L 717,141 L 716,142 L 716,143 L 717,143 L 716,143 L 716,144 L 715,145 L 714,146 L 713,146 L 712,146 L 712,145 L 711,145 L 711,146 L 711,148 L 710,150 L 710,151 L 709,152 L 708,152 L 708,151 L 707,151 L 706,151 L 705,151 L 704,150 L 702,150 L 702,149 L 701,149 L 700,149 L 697,148 L 697,149 L 697,150 L 697,151 L 697,152 L 697,153 L 697,154 L 698,154 L 698,155 L 697,155 L 697,156 L 697,157 L 696,157 L 696,158 L 696,159 L 695,159 L 694,158 L 693,158 L 693,159 L 693,160 L 693,161 L 693,162 L 693,163 L 693,164 L 693,165 L 693,166 L 692,167 L 692,168 L 692,169 L 691,170 L 691,171 L 691,172 L 691,173 L 691,174 L 691,175 L 690,175 L 690,176 L 689,176 L 688,177 L 687,177 L 686,177 L 685,177 L 684,177 L 684,176 L 683,176 L 682,176 L 682,175 L 681,175 L 680,175 L 679,174 L 678,173 L 678,172 L 678,171 L 677,171 L 677,170 L 677,169 L 678,168 L 678,167 L 678,166 L 679,166 L 678,166 L 678,165 L 677,165 L 677,164 L 676,164 L 676,163 L 675,163 L 675,162 L 674,162 L 673,161 L 674,161 L 675,160 L 675,159 L 676,159 L 675,158 L 674,158 L 673,157 L 672,156 L 671,154 L 670,153 L 669,154 L 669,155 L 668,155 L 668,156 L 667,156 L 667,157 L 666,157 L 665,158 L 663,160 L 662,160 L 661,160 L 660,160 L 657,161 L 657,160 L 655,158 L 654,155 L 653,154 L 652,153 L 651,152 L 650,152 L 650,151 L 649,151 L 648,150 L 647,149 L 646,148 L 645,147 L 645,148 L 644,148 L 643,148 L 642,148 L 642,149 L 641,149 L 640,150 L 639,150 L 638,150 L 638,149 L 637,149 L 638,147 L 637,146 L 637,144 L 636,143 L 636,142 L 636,140 L 637,139 L 637,138 L 637,137 L 636,137 L 637,137 L 637,136 L 638,135 L 638,134 L 637,134 L 637,133 L 636,133 L 635,132 L 634,132 L 634,133 L 632,133 L 631,133 L 630,133 L 629,133 L 628,133 L 627,133 L 627,134 L 626,134 L 626,135 L 625,135 L 625,134 L 624,135 L 623,136 L 622,136 L 621,137 L 620,138 L 619,139 L 618,139 L 618,138 L 617,138 L 617,137 L 616,137 L 616,136 L 617,136 L 617,135 L 616,134 L 615,134 L 614,134 L 612,134 L 612,133 L 613,133 L 614,133 L 614,131 L 613,130 L 614,129 L 614,128 L 615,127 L 616,126 L 617,126 L 618,126 L 619,126 L 620,126 L 621,125 L 622,125 L 622,126 L 623,126 L 624,126 L 625,127 L 625,128 L 625,129 L 625,130 L 626,130 L 626,129 L 626,128 L 626,127 L 627,127 L 627,126 L 628,125 L 628,124 L 627,124 L 627,123 L 627,122 L 627,121 L 627,120 L 628,120 L 628,119 L 630,119 L 631,119 L 632,119 L 633,120 L 634,120 L 634,121 L 635,121 L 636,121 L 637,121 L 638,121 L 639,121 L 640,121 L 641,121 L 641,122 L 641,121 L 642,121 L 643,120 L 643,119 L 642,119 L 642,118 L 642,117 L 641,116 L 642,115 L 643,115 L 644,114 L 644,113 L 645,112 L 646,112 L 647,111 L 648,111 L 648,110 L 648,109 L 649,109 L 649,108 L 647,106 L 646,105 L 645,104 L 644,103 L 643,102 L 642,101 L 642,100 L 641,99 L 642,99 L 643,99 L 643,98 L 643,97 L 642,97 L 641,97 L 642,96 L 642,95 L 643,95 L 642,95 L 641,95 L 640,94 L 639,95 L 638,95 L 635,96 L 634,96 L 633,96 L 633,97 L 632,97 L 630,97 L 629,97 L 628,98 L 627,98 L 626,98 L 625,98 L 624,99 L 623,99 L 622,99 L 622,100 L 621,100 L 620,99 L 619,99 L 618,99 L 617,99 L 616,99 L 615,99 L 614,99 L 613,99 L 612,99 L 611,99 L 610,99 L 609,98 L 608,98 L 607,98 L 607,97 L 606,97 L 605,97 L 605,96 L 605,95 L 606,95 L 607,94 L 607,93 L 607,92 L 606,92 L 607,91 L 607,90 L 608,90 L 608,91 L 609,90 L 609,89 L 610,89 L 610,88 L 611,88 L 612,88 L 612,87 L 612,86 L 612,85 L 611,84 L 610,84 L 609,83 L 608,83 L 607,83 L 607,82 L 606,82 L 605,82 L 604,82 L 603,82 L 602,81 L 601,81 L 600,80 L 600,79 L 599,79 L 599,78 L 598,78 L 598,77 L 598,76 L 598,75 L 597,74 L 596,73 L 596,72 L 595,72 L 594,71 L 593,71 L 592,70 L 591,70 L 591,69 L 590,69 L 589,69 L 588,68 L 587,68 L 586,67 L 584,67 L 583,66 L 582,66 L 580,66 L 579,66 L 578,66 L 579,66 L 579,65 L 579,64 L 580,64 L 581,64 L 581,63 L 580,63 L 580,62 L 580,61 L 579,61 L 579,60 L 578,60 L 579,59 L 579,58 L 579,57 L 580,57 L 580,56 L 581,55 L 581,54 L 581,53 L 580,53 L 579,53 L 578,52 L 578,51 L 579,51 L 580,51 L 581,51 L 581,50 L 582,50 L 583,50 L 583,51 L 584,51 L 585,52 L 586,53 L 587,53 L 587,54 L 588,54 L 589,55 L 589,56 L 590,56 L 591,57 L 591,58 L 592,58 L 592,59 L 592,60 L 593,59 L 594,59 L 595,59 L 596,59 L 597,59 L 598,59 L 599,59 L 600,59 L 601,59 L 602,60 L 603,60 L 604,60 L 604,59 L 605,59 L 606,59 L 606,58 L 606,57 L 606,56 L 607,56 L 607,55 L 607,54 L 608,54 L 608,53 L 608,52 L 608,51 L 608,50 L 609,49 L 609,48 L 610,48 L 610,47 L 611,47 L 612,46 L 613,46 L 614,46 L 614,45 L 615,45 L 616,45 L 616,44 L 615,43 L 615,42 L 614,42 L 614,41 L 614,40 L 614,39 L 613,39 L 613,38 L 613,37 L 612,37 L 612,36 L 613,36 L 613,35 L 614,35 L 614,34 L 615,34 L 615,33 L 616,32 L 617,31 L 618,31 L 619,31 L 620,31 L 620,30 L 621,30 L 622,30 L 623,29 L 624,29 L 625,28 L 626,28 L 627,28 L 628,29 L 629,29 L 630,28 L 630,27 L 631,26 L 634,24 L 635,23 L 635,24 L 636,25 L 637,24 L 638,24 L 638,23 L 639,23 L 639,22 L 640,22 L 640,21 L 641,21 L 642,21 L 643,21 L 644,21 L 644,20 L 645,20 L 645,21 L 646,21 L 646,20 L 647,20 L 647,19 L 648,19 L 649,20 L 650,20 L 651,19 L 652,19 L 652,20 L 653,20 L 654,20 L 655,20 L 655,21 L 656,21 L 656,20 L 657,20 L 658,20 L 659,20 L 660,20 L 660,21 L 660,22 L 661,22 L 662,22 L 663,22 L 664,22 L 664,21 L 664,20 L 665,20 L 665,19 L 665,18 L 666,18 L 666,19 L 667,19 L 668,19 L 669,20 L 670,21 L 671,21 L 671,22 L 672,22 L 673,22 L 673,23 L 674,23 L 674,22 L 675,21 L 675,20 L 675,19 L 674,19 L 674,18 L 675,18 L 675,17 L 676,17 L 675,17 L 675,16 L 676,15 L 676,14 L 677,13 L 677,12 L 677,11 L 678,12 L 678,13 L 679,13 L 679,14 L 680,14 L 681,15 L 682,15 L 682,16 " />
</g>
<g id="Podia" class="st0 dist-block" inkscape:label="Podia">
<path d="M 372,458 L 371,458 L 371,457 L 372,457 L 372,458 " />
<path d="M 378,455 L 378,454 L 379,454 L 378,455 " />
<path d="M 383,450 L 382,450 L 382,449 L 383,449 L 383,450 " />
<path d="M 460,222 L 460,223 L 461,224 L 462,224 L 463,224 L 464,225 L 465,226 L 465,227 L 466,227 L 467,227 L 468,226 L 468,227 L 469,228 L 469,229 L 469,230 L 470,230 L 470,231 L 471,231 L 472,232 L 472,233 L 472,234 L 473,234 L 474,234 L 474,235 L 475,235 L 476,235 L 477,235 L 478,236 L 479,236 L 480,237 L 480,238 L 481,238 L 482,238 L 483,239 L 484,239 L 485,240 L 485,239 L 485,240 L 488,241 L 488,242 L 488,243 L 488,244 L 487,244 L 487,245 L 487,247 L 486,247 L 486,248 L 486,249 L 487,249 L 487,250 L 486,252 L 487,252 L 488,252 L 489,252 L 490,252 L 491,252 L 492,251 L 493,250 L 494,250 L 495,251 L 497,251 L 498,251 L 498,252 L 500,253 L 501,253 L 502,253 L 505,254 L 506,255 L 506,256 L 507,256 L 508,256 L 508,257 L 509,257 L 509,258 L 510,258 L 513,258 L 514,259 L 515,260 L 516,260 L 516,261 L 517,262 L 518,262 L 520,262 L 521,266 L 521,267 L 520,267 L 520,271 L 519,272 L 519,273 L 519,274 L 518,275 L 517,275 L 516,275 L 516,276 L 515,276 L 514,276 L 514,277 L 513,277 L 512,278 L 511,278 L 511,277 L 510,277 L 509,277 L 508,277 L 507,278 L 506,278 L 505,278 L 504,278 L 503,278 L 502,278 L 502,279 L 501,279 L 500,278 L 499,275 L 497,273 L 496,272 L 492,272 L 491,272 L 491,273 L 490,273 L 489,273 L 489,272 L 488,273 L 487,273 L 487,274 L 486,275 L 485,276 L 485,277 L 484,278 L 484,279 L 483,280 L 483,281 L 482,281 L 482,282 L 482,283 L 481,283 L 480,283 L 479,283 L 478,283 L 478,282 L 477,282 L 477,281 L 477,280 L 476,280 L 475,281 L 476,282 L 476,283 L 476,284 L 476,285 L 476,286 L 476,287 L 474,289 L 472,290 L 471,291 L 472,292 L 473,293 L 473,294 L 474,295 L 473,295 L 472,296 L 471,296 L 470,296 L 469,296 L 468,296 L 468,297 L 467,297 L 466,297 L 465,297 L 464,297 L 463,297 L 462,297 L 461,296 L 460,296 L 459,296 L 459,295 L 459,294 L 459,293 L 459,292 L 460,291 L 460,290 L 459,290 L 458,291 L 457,291 L 457,292 L 456,292 L 455,292 L 455,293 L 454,293 L 453,294 L 452,294 L 452,295 L 452,296 L 451,297 L 451,298 L 452,299 L 453,300 L 453,301 L 453,302 L 452,303 L 452,304 L 453,305 L 453,306 L 452,307 L 451,307 L 451,308 L 451,309 L 450,310 L 449,310 L 448,310 L 448,311 L 447,312 L 446,313 L 445,313 L 445,314 L 444,315 L 444,316 L 443,316 L 443,317 L 442,318 L 442,319 L 441,320 L 442,321 L 443,321 L 444,322 L 445,322 L 446,323 L 447,324 L 447,325 L 448,327 L 449,328 L 449,329 L 450,330 L 449,330 L 448,331 L 447,332 L 447,333 L 446,334 L 445,336 L 445,337 L 444,337 L 443,337 L 442,336 L 441,337 L 440,338 L 440,339 L 439,339 L 439,340 L 438,340 L 438,339 L 437,339 L 436,338 L 435,337 L 434,337 L 433,337 L 432,337 L 431,337 L 430,337 L 429,337 L 428,338 L 427,338 L 426,339 L 425,339 L 425,340 L 424,340 L 424,341 L 424,342 L 425,342 L 425,343 L 424,344 L 424,345 L 423,345 L 423,346 L 423,347 L 424,347 L 424,348 L 424,349 L 423,349 L 423,350 L 423,351 L 424,351 L 424,352 L 424,353 L 425,354 L 425,355 L 425,356 L 424,356 L 423,357 L 422,357 L 421,357 L 420,357 L 420,358 L 420,357 L 419,356 L 418,356 L 417,357 L 417,358 L 417,359 L 417,360 L 417,361 L 417,362 L 417,363 L 417,364 L 416,365 L 415,366 L 414,366 L 415,367 L 416,368 L 416,369 L 417,369 L 417,370 L 418,370 L 418,371 L 419,371 L 419,372 L 420,372 L 421,372 L 422,372 L 422,373 L 422,374 L 423,374 L 424,374 L 425,374 L 426,374 L 426,375 L 426,376 L 426,377 L 425,378 L 425,379 L 426,379 L 426,380 L 426,381 L 427,381 L 427,382 L 428,382 L 428,383 L 429,383 L 430,383 L 431,383 L 432,383 L 433,384 L 433,385 L 432,386 L 432,387 L 431,387 L 430,388 L 428,389 L 428,390 L 427,390 L 427,391 L 427,392 L 427,393 L 427,394 L 427,395 L 426,396 L 426,397 L 425,398 L 424,398 L 423,398 L 422,398 L 421,398 L 421,397 L 420,397 L 419,397 L 419,396 L 418,396 L 417,396 L 417,397 L 416,397 L 416,398 L 415,398 L 415,399 L 415,400 L 415,401 L 415,402 L 414,402 L 413,402 L 413,403 L 412,403 L 411,403 L 411,404 L 410,404 L 409,404 L 409,403 L 408,403 L 408,402 L 408,401 L 407,401 L 406,401 L 405,401 L 404,402 L 403,402 L 403,403 L 402,403 L 402,404 L 401,405 L 401,406 L 400,407 L 400,408 L 400,409 L 399,409 L 399,410 L 398,410 L 397,411 L 397,412 L 396,412 L 395,412 L 394,412 L 394,413 L 393,413 L 392,413 L 391,413 L 390,413 L 389,413 L 388,413 L 387,413 L 386,413 L 386,412 L 385,412 L 384,412 L 383,412 L 383,411 L 382,411 L 381,411 L 380,411 L 379,411 L 378,411 L 377,410 L 376,410 L 375,410 L 374,410 L 373,411 L 373,412 L 372,412 L 372,413 L 371,413 L 371,414 L 371,415 L 372,415 L 372,416 L 373,417 L 374,417 L 375,417 L 376,417 L 376,418 L 377,419 L 377,420 L 377,421 L 377,422 L 378,422 L 378,423 L 378,424 L 378,425 L 377,425 L 377,426 L 377,427 L 378,427 L 379,427 L 379,428 L 380,428 L 381,428 L 382,428 L 382,429 L 383,429 L 383,430 L 384,431 L 384,432 L 384,433 L 384,434 L 384,435 L 384,436 L 384,437 L 384,438 L 385,439 L 385,440 L 386,440 L 386,441 L 386,442 L 387,442 L 387,443 L 387,444 L 387,445 L 387,446 L 387,447 L 387,448 L 387,449 L 386,449 L 385,449 L 384,449 L 383,449 L 382,449 L 381,449 L 380,449 L 379,450 L 378,451 L 377,451 L 376,452 L 375,453 L 374,454 L 373,455 L 372,456 L 371,456 L 371,457 L 370,457 L 370,458 L 369,458 L 368,458 L 369,460 L 369,461 L 369,463 L 370,465 L 371,466 L 371,467 L 372,467 L 373,467 L 374,467 L 375,467 L 376,467 L 377,467 L 377,466 L 378,466 L 379,466 L 380,466 L 381,466 L 382,466 L 383,466 L 384,466 L 385,466 L 385,465 L 386,465 L 387,465 L 388,465 L 389,465 L 390,465 L 391,465 L 392,466 L 393,466 L 394,466 L 394,465 L 395,465 L 395,464 L 395,465 L 396,465 L 396,466 L 397,466 L 397,465 L 398,465 L 399,465 L 399,464 L 400,464 L 400,465 L 401,465 L 401,464 L 401,463 L 402,463 L 402,464 L 402,463 L 403,463 L 403,464 L 404,464 L 405,464 L 406,464 L 406,465 L 407,465 L 408,465 L 409,465 L 410,465 L 410,466 L 411,466 L 412,466 L 412,467 L 413,467 L 413,468 L 413,469 L 413,470 L 413,471 L 412,472 L 411,472 L 410,472 L 409,472 L 408,472 L 407,472 L 406,473 L 405,474 L 405,475 L 404,476 L 404,477 L 403,477 L 403,478 L 402,478 L 401,478 L 400,478 L 399,478 L 398,478 L 397,478 L 396,478 L 395,478 L 394,478 L 393,478 L 392,478 L 391,479 L 390,479 L 389,479 L 388,479 L 387,479 L 386,479 L 385,479 L 385,480 L 384,480 L 383,480 L 383,481 L 382,481 L 381,482 L 380,482 L 378,482 L 377,482 L 376,482 L 375,482 L 374,482 L 373,482 L 372,482 L 371,482 L 371,483 L 370,483 L 369,483 L 368,484 L 367,484 L 366,484 L 366,483 L 365,483 L 364,483 L 364,482 L 364,481 L 364,480 L 363,479 L 362,478 L 362,477 L 362,476 L 361,476 L 361,475 L 361,474 L 361,473 L 360,473 L 360,472 L 360,471 L 359,470 L 358,470 L 358,471 L 357,471 L 356,471 L 355,471 L 355,472 L 354,472 L 353,473 L 353,474 L 352,474 L 350,475 L 349,475 L 348,475 L 347,475 L 345,476 L 344,476 L 343,476 L 342,476 L 341,476 L 341,475 L 340,474 L 339,473 L 338,473 L 337,473 L 336,474 L 336,475 L 335,476 L 335,477 L 334,478 L 333,478 L 333,479 L 332,479 L 331,480 L 330,481 L 329,482 L 328,482 L 327,481 L 327,480 L 326,480 L 326,479 L 325,479 L 324,479 L 323,478 L 322,478 L 321,478 L 320,478 L 319,478 L 319,479 L 318,480 L 317,480 L 317,481 L 317,480 L 316,480 L 316,479 L 316,478 L 316,477 L 316,476 L 316,475 L 316,474 L 316,473 L 316,472 L 317,472 L 317,471 L 318,470 L 319,470 L 319,469 L 320,468 L 320,467 L 321,467 L 321,466 L 322,465 L 323,464 L 323,463 L 323,462 L 323,461 L 323,460 L 323,459 L 322,458 L 322,457 L 321,457 L 321,456 L 320,456 L 320,455 L 319,454 L 319,452 L 319,451 L 320,450 L 320,449 L 320,448 L 320,447 L 320,446 L 320,445 L 321,444 L 321,443 L 322,442 L 322,441 L 323,441 L 323,440 L 324,439 L 325,439 L 326,439 L 327,440 L 328,440 L 329,440 L 330,441 L 331,441 L 333,443 L 334,444 L 335,444 L 336,445 L 336,446 L 337,446 L 338,446 L 339,447 L 340,447 L 340,448 L 341,448 L 341,447 L 342,447 L 343,446 L 344,446 L 344,445 L 345,445 L 345,444 L 346,444 L 346,443 L 346,442 L 346,441 L 346,440 L 346,439 L 346,438 L 347,437 L 348,436 L 348,435 L 349,435 L 349,434 L 349,433 L 349,432 L 349,431 L 349,430 L 349,429 L 349,428 L 348,428 L 348,427 L 348,426 L 348,425 L 347,424 L 347,423 L 347,422 L 347,421 L 348,421 L 348,420 L 349,419 L 349,418 L 350,418 L 350,417 L 350,416 L 351,415 L 351,414 L 352,413 L 352,412 L 353,411 L 353,410 L 354,410 L 355,409 L 356,409 L 356,408 L 357,408 L 358,408 L 358,407 L 359,407 L 359,406 L 360,406 L 360,405 L 361,404 L 361,403 L 361,402 L 362,402 L 362,401 L 363,400 L 364,400 L 364,399 L 365,398 L 364,397 L 364,396 L 363,395 L 363,394 L 362,393 L 362,392 L 363,391 L 363,390 L 363,389 L 364,388 L 364,387 L 364,386 L 364,385 L 364,384 L 364,383 L 364,381 L 365,380 L 365,378 L 365,377 L 365,376 L 365,375 L 365,374 L 366,373 L 366,372 L 365,372 L 365,371 L 365,370 L 364,370 L 364,368 L 365,367 L 364,366 L 364,365 L 364,364 L 365,363 L 365,361 L 365,360 L 365,359 L 365,358 L 366,358 L 366,357 L 367,356 L 368,355 L 369,355 L 369,354 L 370,354 L 370,353 L 371,353 L 371,352 L 372,352 L 372,351 L 373,350 L 373,349 L 373,348 L 374,347 L 375,346 L 375,345 L 376,344 L 376,343 L 377,343 L 377,342 L 377,341 L 378,341 L 378,340 L 379,339 L 380,339 L 380,338 L 381,337 L 381,336 L 382,336 L 382,335 L 382,334 L 382,333 L 382,332 L 382,331 L 382,330 L 382,329 L 383,328 L 383,327 L 383,326 L 383,325 L 383,324 L 383,323 L 383,321 L 383,320 L 383,319 L 382,318 L 382,317 L 382,316 L 382,315 L 383,314 L 383,313 L 384,313 L 384,312 L 384,311 L 385,311 L 385,310 L 386,310 L 386,309 L 387,309 L 388,309 L 388,308 L 389,308 L 389,307 L 389,306 L 389,305 L 389,304 L 389,303 L 389,302 L 388,302 L 388,301 L 388,300 L 387,300 L 387,299 L 386,298 L 386,297 L 385,296 L 384,295 L 383,295 L 382,294 L 381,293 L 381,292 L 381,291 L 380,290 L 380,289 L 381,288 L 381,287 L 381,286 L 382,286 L 382,285 L 382,284 L 383,284 L 383,283 L 383,282 L 384,282 L 384,281 L 384,280 L 384,279 L 384,278 L 384,277 L 385,276 L 385,275 L 386,275 L 386,274 L 387,274 L 387,273 L 387,272 L 387,271 L 388,271 L 388,270 L 389,269 L 389,268 L 390,267 L 390,266 L 391,265 L 391,264 L 392,263 L 392,262 L 392,261 L 392,260 L 392,259 L 391,258 L 391,257 L 390,256 L 390,255 L 390,254 L 390,253 L 392,252 L 392,251 L 393,250 L 394,249 L 395,248 L 396,248 L 398,247 L 399,247 L 400,247 L 402,248 L 404,247 L 405,247 L 406,246 L 407,246 L 408,246 L 409,245 L 410,245 L 411,244 L 412,243 L 413,242 L 414,242 L 414,241 L 415,241 L 415,240 L 416,239 L 418,237 L 420,235 L 421,234 L 423,233 L 424,232 L 425,232 L 425,231 L 426,230 L 426,229 L 427,228 L 428,228 L 429,228 L 431,228 L 433,229 L 435,229 L 438,229 L 439,228 L 440,227 L 441,226 L 442,226 L 443,226 L 444,226 L 444,225 L 446,225 L 446,224 L 448,224 L 450,224 L 451,223 L 452,223 L 454,222 L 456,222 L 457,222 L 458,222 L 459,222 L 460,222 " />
<path d="M 430,286 L 431,287 L 432,286 L 432,285 L 430,285 L 430,286 " />
<path d="M 434,290 L 436,290 L 436,289 L 437,288 L 437,287 L 436,287 L 434,288 L 434,290 " />
<path d="M 371,412 L 371,411 L 370,412 L 371,412 " />
</g>
</g>
</g>
<g id="block_labels" inkscape:groupmode="layer" inkscape:label="block_labels">
<g stroke="none" fill="rgb(0,0,0)">
<text id="block_labels_1" x="495" y="377" class="st4" inkscape:label="Kalimela_lbl">Kalimela</text>
<text id="block_labels_2" x="774" y="144" class="st4" inkscape:label="Khairput_lbl">Khairput</text>
<text id="block_labels_3" x="582" y="266" class="st4" inkscape:label="Korkunda_lbl">Korkunda</text>
<text id="block_labels_4" x="736" y="279" class="st4" inkscape:label="Kudumulguma_lbl">Kudumulguma</text>
<text id="block_labels_5" x="612" y="178" class="st4" inkscape:label="Malkangiri_lbl">Malkangiri</text>
<text id="block_labels_6" x="677" y="89" class="st4" inkscape:label="Mathili_lbl">Mathili</text>
<text id="block_labels_7" x="410" y="337" class="st4" inkscape:label="Podia_lbl">Podia</text>
</g>
</g>
<!-- QGIS extent for clipping, eg in Inkscape -->
</svg>