<?xml version="1.0" standalone="no"?>
<!DOCTYPE svg PUBLIC "-//W3C//DTD SVG 1.1//EN" "http://www.w3.org/Graphics/SVG/1.1/DTD/svg11.dtd">
<svg xmlns="http://www.w3.org/2000/svg" xmlns:inkscape="http://www.inkscape.org/namespaces/inkscape" xmlns:xlink="http://www.w3.org/1999/xlink" viewBox = "250 0 650 650" version = "1.1">
	<style type="text/css">
   .st0, .st1, .st2
    {
        stroke: #d0d0d0;
        stroke-miterlimit: 7;
		fill:#fff;
		cursor:pointer;
    }
    .st4
    {
        font-size: 7.0514px;
		fill:#000;
    }
    .st0:hover, .st1:hover, .st2:hover{fill:#32C787;}
</style>
<!-- svg generated using QGIS www.qgis.org -->
<g id="block" inkscape:groupmode="layer" inkscape:label="block">
<g stroke="rgb(0,0,0)" fill="#fff" stroke-linejoin="round" stroke-width="0.56">
<g id="50" class="st0 dist-block" inkscape:label="Bhapur">
<path d="M 772,168 L 774,169 L 779,168 L 780,168 L 781,168 L 782,168 L 783,168 L 784,169 L 786,169 L 788,169 L 789,169 L 791,169 L 792,169 L 793,169 L 794,169 L 797,169 L 798,169 L 800,169 L 802,169 L 803,169 L 804,169 L 805,169 L 807,169 L 808,169 L 811,170 L 812,170 L 814,170 L 814,169 L 815,170 L 816,169 L 818,169 L 820,167 L 821,166 L 822,166 L 823,166 L 825,166 L 826,166 L 827,166 L 828,165 L 830,164 L 833,164 L 834,163 L 835,163 L 835,164 L 835,165 L 835,169 L 835,171 L 836,171 L 839,171 L 838,171 L 838,172 L 838,173 L 838,174 L 838,175 L 837,175 L 836,175 L 835,175 L 834,175 L 834,176 L 833,176 L 833,177 L 832,177 L 831,177 L 830,177 L 830,178 L 829,178 L 828,179 L 827,180 L 827,181 L 827,182 L 827,183 L 828,183 L 828,184 L 828,185 L 827,185 L 826,184 L 825,184 L 825,185 L 824,185 L 824,186 L 825,186 L 825,187 L 826,187 L 826,188 L 826,189 L 826,190 L 825,189 L 824,188 L 823,188 L 823,189 L 824,190 L 824,191 L 824,192 L 823,192 L 823,193 L 823,194 L 823,195 L 823,196 L 822,196 L 822,197 L 822,198 L 823,198 L 823,197 L 824,197 L 824,198 L 824,199 L 825,199 L 825,200 L 825,201 L 825,202 L 825,203 L 825,204 L 824,204 L 824,205 L 825,206 L 825,207 L 826,208 L 825,208 L 825,209 L 824,209 L 824,210 L 823,211 L 823,212 L 823,213 L 823,214 L 822,215 L 821,215 L 821,216 L 820,216 L 820,217 L 821,218 L 820,218 L 819,218 L 818,218 L 819,219 L 818,219 L 818,220 L 819,220 L 818,220 L 816,220 L 815,220 L 814,220 L 814,221 L 813,221 L 812,221 L 812,222 L 811,222 L 811,223 L 811,224 L 810,224 L 809,224 L 809,226 L 809,227 L 809,228 L 808,229 L 809,230 L 809,231 L 809,232 L 809,233 L 809,234 L 809,235 L 808,236 L 807,237 L 806,238 L 806,239 L 807,239 L 807,240 L 807,241 L 808,241 L 808,240 L 808,241 L 809,239 L 810,239 L 810,240 L 811,240 L 812,240 L 813,240 L 814,240 L 815,240 L 816,240 L 817,241 L 816,242 L 817,243 L 816,243 L 816,244 L 815,244 L 815,245 L 815,246 L 815,247 L 814,247 L 813,247 L 812,247 L 811,246 L 810,246 L 809,246 L 808,247 L 807,247 L 807,248 L 806,249 L 806,250 L 806,251 L 806,252 L 805,253 L 805,254 L 805,255 L 805,256 L 805,257 L 805,258 L 804,258 L 804,257 L 803,257 L 803,256 L 802,256 L 801,256 L 800,256 L 800,257 L 799,257 L 799,258 L 799,257 L 799,256 L 799,255 L 798,255 L 797,256 L 796,257 L 795,257 L 794,258 L 791,259 L 789,259 L 785,259 L 782,259 L 781,259 L 779,259 L 775,260 L 773,260 L 773,259 L 772,259 L 771,259 L 770,259 L 769,259 L 767,259 L 766,259 L 765,259 L 764,259 L 762,259 L 761,259 L 760,260 L 761,261 L 760,262 L 760,263 L 760,264 L 760,265 L 760,266 L 760,267 L 760,268 L 760,269 L 759,269 L 758,269 L 757,270 L 756,270 L 755,270 L 754,271 L 753,271 L 752,272 L 751,272 L 750,271 L 749,271 L 748,270 L 747,270 L 746,269 L 746,268 L 745,267 L 745,266 L 744,264 L 744,263 L 744,262 L 743,262 L 742,261 L 741,260 L 739,262 L 738,263 L 737,263 L 736,265 L 735,268 L 734,269 L 733,270 L 732,269 L 731,269 L 730,269 L 730,268 L 729,268 L 729,267 L 729,266 L 729,265 L 729,264 L 728,264 L 727,263 L 727,264 L 726,264 L 726,265 L 726,266 L 726,267 L 725,268 L 724,268 L 723,268 L 722,268 L 721,268 L 720,268 L 719,268 L 719,269 L 718,269 L 717,269 L 716,269 L 715,269 L 714,269 L 714,270 L 713,270 L 713,271 L 712,271 L 711,271 L 711,270 L 710,270 L 709,269 L 709,268 L 709,267 L 710,266 L 710,265 L 710,264 L 709,264 L 708,263 L 708,262 L 708,261 L 708,260 L 707,259 L 707,258 L 707,257 L 707,256 L 708,255 L 709,254 L 710,254 L 710,253 L 710,252 L 711,251 L 711,250 L 712,249 L 712,248 L 712,247 L 712,246 L 712,245 L 713,245 L 713,244 L 714,244 L 715,244 L 716,244 L 716,243 L 715,243 L 714,243 L 714,242 L 714,241 L 715,241 L 716,241 L 717,240 L 718,240 L 719,240 L 719,241 L 719,242 L 719,243 L 719,244 L 720,245 L 720,244 L 721,243 L 721,242 L 721,243 L 722,243 L 722,244 L 722,245 L 723,245 L 724,245 L 724,244 L 723,244 L 723,243 L 723,242 L 724,242 L 725,241 L 726,242 L 727,242 L 728,242 L 728,241 L 729,241 L 729,240 L 729,239 L 730,238 L 730,237 L 731,237 L 732,237 L 732,238 L 733,238 L 734,237 L 735,237 L 736,236 L 738,236 L 739,236 L 740,236 L 741,236 L 742,236 L 743,235 L 744,235 L 744,234 L 745,233 L 744,232 L 745,232 L 745,231 L 744,231 L 744,230 L 743,230 L 742,230 L 742,229 L 742,228 L 743,228 L 743,227 L 744,227 L 745,226 L 746,226 L 747,226 L 747,225 L 746,225 L 746,224 L 745,223 L 744,223 L 743,222 L 743,221 L 742,221 L 742,220 L 741,220 L 740,220 L 739,220 L 738,220 L 737,220 L 736,220 L 736,219 L 736,218 L 737,216 L 738,215 L 738,214 L 738,213 L 739,212 L 739,210 L 740,208 L 740,207 L 741,206 L 742,205 L 743,203 L 744,202 L 745,202 L 746,202 L 747,202 L 747,201 L 747,200 L 747,198 L 747,197 L 747,196 L 746,196 L 746,195 L 745,195 L 744,195 L 743,195 L 742,195 L 741,195 L 740,195 L 739,194 L 738,194 L 738,193 L 737,193 L 735,192 L 734,192 L 733,192 L 732,191 L 731,190 L 730,190 L 730,191 L 730,192 L 730,193 L 729,194 L 728,195 L 727,196 L 726,196 L 725,197 L 724,197 L 723,196 L 722,195 L 721,195 L 720,194 L 719,193 L 718,192 L 717,191 L 716,190 L 716,189 L 716,188 L 716,187 L 716,186 L 716,185 L 715,184 L 715,183 L 715,182 L 714,182 L 714,181 L 714,180 L 714,179 L 715,179 L 716,179 L 717,180 L 718,180 L 719,180 L 719,179 L 720,179 L 721,178 L 722,178 L 722,177 L 722,176 L 722,175 L 722,174 L 722,173 L 723,172 L 723,171 L 724,171 L 724,170 L 725,170 L 725,169 L 726,169 L 726,168 L 727,168 L 727,167 L 728,167 L 728,166 L 728,165 L 729,164 L 730,162 L 730,161 L 731,160 L 732,158 L 733,157 L 735,157 L 737,158 L 738,158 L 740,159 L 742,159 L 743,159 L 744,159 L 745,159 L 746,160 L 747,160 L 748,160 L 750,160 L 751,161 L 752,161 L 753,161 L 754,161 L 756,162 L 757,162 L 758,162 L 759,162 L 760,163 L 761,163 L 762,163 L 763,164 L 764,164 L 765,164 L 766,164 L 766,165 L 767,165 L 767,166 L 768,166 L 769,167 L 771,168 L 772,168 " />
</g>
<g id="89" class="st0 dist-block" inkscape:label="Dasapalla">
<path d="M 516,102 L 516,103 L 517,103 L 517,104 L 518,105 L 520,106 L 522,107 L 523,107 L 523,108 L 524,109 L 525,110 L 525,111 L 526,112 L 527,112 L 527,113 L 528,113 L 529,112 L 530,112 L 531,112 L 531,113 L 532,113 L 533,113 L 534,114 L 536,114 L 537,114 L 538,114 L 539,115 L 540,115 L 541,115 L 543,116 L 545,116 L 546,116 L 547,117 L 548,117 L 549,118 L 550,118 L 551,118 L 551,119 L 552,120 L 554,120 L 555,121 L 558,122 L 559,123 L 560,123 L 560,124 L 561,124 L 562,125 L 562,126 L 563,126 L 563,127 L 562,128 L 562,129 L 561,130 L 561,131 L 562,131 L 563,131 L 564,132 L 565,133 L 566,134 L 566,135 L 567,136 L 567,137 L 567,138 L 568,138 L 569,138 L 571,138 L 572,138 L 573,139 L 574,139 L 575,139 L 576,138 L 576,139 L 577,139 L 578,140 L 578,141 L 578,142 L 577,142 L 576,143 L 576,144 L 576,145 L 576,146 L 575,146 L 574,147 L 573,148 L 572,149 L 573,149 L 573,150 L 574,151 L 574,152 L 574,153 L 574,154 L 575,156 L 575,157 L 575,158 L 576,158 L 576,159 L 577,159 L 577,160 L 578,160 L 578,161 L 577,162 L 577,163 L 576,163 L 575,164 L 574,164 L 573,164 L 572,165 L 571,165 L 571,166 L 571,167 L 572,167 L 573,167 L 573,168 L 574,168 L 575,168 L 575,169 L 575,170 L 575,172 L 575,174 L 575,175 L 575,176 L 575,177 L 574,178 L 574,179 L 574,180 L 574,181 L 575,181 L 575,182 L 574,182 L 573,182 L 572,182 L 571,182 L 570,182 L 569,182 L 568,182 L 567,183 L 566,183 L 565,183 L 564,184 L 563,183 L 562,182 L 561,182 L 560,182 L 559,183 L 558,183 L 558,184 L 559,184 L 559,185 L 558,186 L 557,185 L 557,186 L 557,187 L 556,187 L 555,187 L 555,186 L 554,186 L 554,185 L 553,185 L 553,186 L 553,187 L 553,188 L 553,189 L 552,189 L 552,188 L 551,188 L 550,188 L 549,188 L 549,189 L 548,189 L 548,190 L 548,191 L 548,192 L 547,192 L 546,193 L 545,193 L 545,194 L 544,194 L 544,195 L 544,196 L 544,197 L 544,198 L 544,199 L 544,200 L 545,202 L 545,204 L 544,205 L 543,206 L 542,205 L 541,205 L 540,205 L 539,206 L 538,207 L 537,207 L 537,208 L 537,209 L 537,210 L 537,211 L 537,213 L 536,213 L 536,214 L 535,214 L 534,215 L 533,215 L 531,216 L 531,217 L 530,217 L 530,218 L 530,219 L 531,220 L 531,221 L 531,222 L 532,223 L 532,224 L 532,225 L 532,226 L 531,227 L 531,228 L 530,229 L 529,230 L 529,231 L 528,232 L 528,233 L 527,233 L 527,234 L 526,235 L 525,235 L 524,235 L 524,234 L 523,234 L 522,234 L 521,234 L 520,234 L 519,235 L 518,235 L 518,234 L 517,234 L 516,235 L 515,235 L 514,235 L 513,235 L 512,236 L 511,237 L 510,238 L 510,239 L 510,240 L 510,241 L 509,242 L 508,243 L 507,244 L 506,244 L 505,244 L 504,245 L 503,247 L 502,249 L 501,250 L 500,252 L 499,252 L 498,252 L 496,252 L 495,252 L 493,253 L 491,254 L 490,255 L 490,256 L 491,256 L 491,257 L 491,258 L 491,259 L 490,260 L 489,261 L 488,262 L 486,263 L 485,263 L 484,262 L 483,262 L 482,262 L 482,261 L 481,260 L 480,259 L 480,258 L 479,258 L 478,258 L 478,259 L 477,259 L 476,259 L 475,259 L 475,258 L 474,258 L 472,257 L 471,257 L 470,257 L 469,257 L 467,257 L 466,257 L 465,256 L 464,255 L 463,255 L 462,255 L 460,254 L 459,254 L 458,254 L 458,253 L 457,253 L 456,253 L 456,252 L 455,252 L 454,252 L 453,251 L 453,250 L 452,249 L 451,248 L 450,246 L 449,246 L 449,245 L 448,244 L 447,244 L 446,243 L 445,243 L 444,242 L 443,242 L 442,242 L 441,242 L 440,242 L 440,243 L 439,244 L 438,244 L 437,245 L 436,245 L 435,245 L 434,245 L 433,245 L 432,244 L 431,244 L 430,244 L 429,244 L 428,244 L 427,243 L 426,243 L 425,243 L 424,243 L 423,243 L 422,243 L 422,242 L 422,241 L 421,241 L 421,240 L 421,239 L 420,238 L 420,237 L 419,236 L 419,235 L 419,234 L 419,233 L 418,233 L 417,232 L 416,231 L 415,231 L 415,230 L 414,229 L 412,228 L 411,227 L 411,226 L 410,226 L 410,225 L 409,224 L 408,224 L 408,223 L 407,223 L 407,222 L 406,222 L 405,221 L 405,220 L 404,220 L 403,219 L 401,218 L 398,217 L 397,218 L 396,218 L 395,218 L 394,219 L 393,219 L 392,220 L 391,220 L 390,221 L 389,221 L 387,221 L 386,221 L 384,222 L 382,222 L 382,223 L 382,224 L 381,224 L 381,225 L 381,226 L 381,227 L 380,229 L 380,230 L 379,232 L 379,234 L 378,235 L 378,237 L 378,238 L 378,239 L 377,240 L 378,241 L 377,242 L 377,243 L 376,244 L 375,244 L 374,245 L 374,246 L 374,247 L 373,247 L 373,248 L 372,248 L 372,249 L 372,250 L 371,251 L 371,252 L 370,253 L 369,254 L 368,254 L 368,255 L 368,256 L 368,257 L 368,258 L 367,260 L 367,262 L 367,263 L 367,264 L 367,266 L 366,266 L 366,267 L 366,268 L 366,269 L 367,269 L 367,270 L 366,270 L 366,271 L 366,272 L 365,272 L 364,272 L 364,273 L 363,273 L 362,273 L 362,274 L 361,274 L 360,274 L 359,275 L 358,276 L 358,277 L 357,277 L 357,278 L 357,279 L 356,279 L 355,279 L 354,279 L 353,279 L 353,280 L 352,280 L 351,281 L 350,281 L 349,281 L 348,281 L 348,280 L 347,281 L 347,282 L 347,283 L 346,283 L 345,283 L 344,283 L 344,284 L 343,284 L 342,285 L 341,285 L 341,286 L 340,286 L 339,286 L 339,287 L 338,287 L 336,288 L 334,289 L 333,289 L 332,289 L 332,288 L 331,287 L 330,286 L 329,286 L 329,285 L 328,285 L 327,283 L 326,282 L 325,282 L 324,280 L 321,273 L 319,269 L 318,268 L 317,267 L 316,266 L 315,265 L 314,263 L 313,262 L 310,259 L 309,256 L 308,255 L 308,254 L 307,253 L 307,254 L 306,254 L 305,254 L 305,253 L 304,252 L 303,251 L 302,250 L 301,249 L 301,248 L 300,246 L 300,245 L 300,243 L 299,243 L 299,242 L 297,236 L 298,236 L 298,235 L 301,231 L 301,229 L 300,227 L 300,224 L 299,224 L 299,223 L 299,222 L 299,221 L 299,220 L 299,219 L 300,219 L 300,218 L 301,218 L 301,217 L 302,217 L 302,216 L 303,216 L 303,215 L 304,215 L 304,214 L 304,213 L 304,212 L 304,211 L 304,210 L 304,209 L 303,209 L 303,208 L 303,207 L 303,206 L 303,205 L 303,204 L 302,204 L 302,203 L 302,202 L 302,200 L 300,196 L 300,194 L 299,193 L 299,191 L 299,187 L 298,187 L 296,187 L 295,187 L 293,187 L 292,187 L 291,187 L 290,187 L 289,187 L 288,187 L 287,187 L 287,186 L 286,186 L 285,185 L 284,185 L 284,186 L 284,187 L 283,187 L 282,188 L 281,189 L 281,190 L 280,190 L 280,189 L 280,188 L 279,187 L 278,186 L 277,185 L 277,184 L 277,183 L 278,183 L 278,182 L 278,180 L 278,179 L 278,178 L 278,177 L 278,176 L 277,177 L 277,178 L 276,179 L 275,180 L 275,181 L 273,181 L 272,181 L 271,181 L 271,180 L 270,180 L 269,179 L 267,179 L 266,179 L 265,178 L 264,177 L 263,177 L 262,176 L 262,175 L 262,173 L 262,172 L 262,170 L 261,170 L 261,169 L 262,169 L 264,168 L 265,168 L 265,167 L 265,168 L 266,168 L 267,168 L 268,167 L 268,165 L 268,164 L 268,163 L 268,162 L 270,162 L 271,162 L 272,162 L 273,161 L 274,160 L 276,159 L 279,157 L 280,157 L 282,156 L 283,155 L 283,153 L 284,151 L 284,150 L 284,149 L 284,148 L 284,147 L 283,147 L 282,147 L 281,146 L 280,146 L 280,145 L 280,144 L 279,144 L 279,143 L 279,142 L 279,141 L 280,140 L 279,139 L 279,138 L 278,137 L 278,136 L 279,136 L 279,135 L 279,134 L 280,134 L 280,133 L 280,132 L 281,132 L 281,131 L 282,131 L 283,130 L 284,130 L 285,131 L 286,131 L 286,132 L 286,131 L 287,131 L 287,130 L 288,130 L 288,129 L 289,129 L 289,128 L 290,128 L 290,127 L 291,127 L 292,127 L 293,127 L 294,127 L 295,127 L 296,127 L 297,127 L 298,127 L 298,126 L 298,125 L 298,124 L 298,123 L 299,123 L 299,122 L 299,121 L 300,121 L 301,122 L 302,122 L 303,122 L 303,123 L 304,123 L 305,124 L 306,124 L 307,125 L 308,125 L 309,125 L 310,126 L 311,126 L 312,126 L 313,126 L 314,126 L 315,126 L 316,126 L 316,125 L 317,125 L 317,124 L 318,124 L 319,124 L 319,123 L 320,123 L 321,122 L 322,122 L 323,121 L 324,121 L 325,120 L 326,120 L 326,119 L 327,119 L 328,119 L 329,118 L 330,118 L 331,118 L 332,119 L 332,120 L 333,120 L 334,121 L 335,121 L 336,121 L 337,121 L 338,121 L 339,121 L 340,120 L 340,119 L 341,119 L 341,118 L 342,117 L 342,116 L 343,116 L 344,116 L 345,116 L 346,115 L 347,114 L 347,113 L 348,113 L 348,112 L 348,111 L 349,111 L 349,112 L 350,113 L 351,113 L 352,114 L 353,114 L 354,114 L 355,113 L 356,113 L 356,114 L 357,114 L 357,115 L 358,115 L 358,116 L 359,117 L 360,117 L 361,117 L 362,117 L 363,117 L 363,118 L 364,118 L 365,118 L 366,118 L 366,119 L 367,119 L 368,119 L 369,118 L 370,118 L 370,119 L 371,119 L 372,119 L 373,118 L 374,118 L 375,118 L 376,118 L 377,118 L 378,118 L 379,118 L 379,117 L 380,117 L 381,117 L 381,116 L 382,116 L 382,115 L 383,115 L 383,114 L 384,114 L 384,113 L 384,112 L 385,112 L 386,112 L 387,112 L 388,113 L 389,113 L 389,112 L 389,111 L 389,110 L 390,110 L 390,109 L 391,109 L 392,108 L 393,108 L 394,108 L 395,107 L 395,108 L 396,108 L 396,109 L 397,110 L 397,111 L 397,112 L 397,113 L 397,114 L 398,115 L 398,118 L 398,120 L 398,121 L 398,122 L 399,123 L 399,125 L 399,126 L 400,127 L 401,128 L 401,129 L 402,129 L 403,129 L 404,129 L 406,128 L 407,128 L 407,127 L 408,127 L 409,127 L 410,127 L 411,128 L 412,129 L 413,129 L 414,129 L 415,129 L 416,130 L 417,131 L 417,132 L 418,132 L 418,133 L 419,133 L 420,133 L 420,134 L 421,134 L 422,134 L 423,134 L 424,134 L 425,134 L 426,133 L 426,132 L 427,131 L 427,130 L 428,130 L 428,129 L 429,129 L 430,129 L 431,129 L 432,129 L 432,128 L 433,127 L 434,127 L 436,127 L 437,127 L 439,127 L 439,128 L 440,128 L 441,127 L 442,127 L 443,126 L 445,126 L 446,126 L 448,127 L 449,127 L 449,126 L 450,126 L 450,125 L 451,125 L 451,124 L 450,124 L 449,123 L 448,123 L 447,122 L 446,122 L 445,122 L 443,121 L 442,121 L 441,121 L 440,121 L 439,121 L 438,120 L 438,119 L 439,119 L 440,118 L 441,118 L 442,118 L 443,118 L 444,119 L 445,119 L 447,119 L 449,120 L 450,120 L 451,120 L 452,120 L 453,120 L 454,119 L 456,119 L 457,118 L 458,118 L 458,117 L 458,116 L 458,115 L 457,115 L 457,114 L 457,113 L 459,113 L 460,112 L 462,111 L 464,111 L 465,111 L 466,111 L 467,111 L 468,112 L 470,112 L 471,112 L 473,112 L 475,112 L 476,112 L 478,112 L 479,112 L 481,111 L 483,111 L 484,110 L 486,110 L 487,111 L 488,111 L 489,111 L 490,112 L 491,111 L 492,111 L 493,111 L 494,111 L 495,111 L 496,111 L 496,110 L 496,109 L 496,107 L 496,106 L 496,105 L 497,104 L 498,104 L 499,103 L 500,103 L 502,102 L 504,101 L 505,102 L 506,102 L 507,102 L 508,102 L 508,101 L 509,101 L 509,100 L 510,100 L 511,99 L 511,100 L 512,100 L 513,101 L 514,101 L 515,102 L 516,102 " />
</g>
<g id="105" class="st0 dist-block" inkscape:label="Gania">
<path d="M 488,33 L 488,34 L 488,35 L 489,35 L 489,36 L 490,36 L 490,37 L 491,38 L 491,39 L 492,39 L 492,40 L 493,41 L 493,42 L 494,42 L 494,43 L 495,44 L 496,45 L 496,46 L 497,46 L 497,47 L 498,47 L 499,48 L 502,53 L 505,56 L 507,58 L 510,60 L 511,62 L 512,62 L 514,64 L 515,66 L 516,66 L 517,67 L 518,68 L 520,68 L 520,69 L 523,70 L 526,71 L 527,72 L 529,72 L 531,72 L 532,72 L 533,72 L 536,71 L 537,71 L 538,71 L 539,71 L 540,71 L 542,71 L 543,71 L 545,71 L 546,71 L 548,72 L 551,72 L 553,73 L 555,73 L 555,74 L 557,74 L 559,75 L 561,76 L 563,76 L 565,77 L 567,78 L 568,79 L 570,80 L 572,81 L 573,82 L 575,83 L 577,84 L 578,85 L 579,86 L 581,87 L 582,87 L 583,88 L 584,88 L 585,89 L 587,90 L 588,90 L 589,91 L 590,91 L 591,92 L 592,93 L 594,94 L 595,95 L 595,96 L 598,98 L 599,99 L 599,100 L 601,101 L 602,102 L 604,103 L 605,104 L 606,104 L 609,105 L 613,107 L 615,108 L 618,109 L 619,110 L 620,111 L 621,113 L 623,114 L 626,116 L 626,117 L 627,118 L 628,118 L 630,119 L 634,121 L 635,121 L 636,122 L 637,122 L 639,123 L 640,123 L 641,123 L 642,123 L 642,124 L 643,125 L 644,126 L 644,127 L 645,127 L 646,127 L 647,127 L 649,128 L 650,128 L 652,129 L 653,129 L 655,130 L 657,130 L 659,130 L 660,130 L 661,130 L 663,130 L 664,131 L 665,132 L 664,133 L 664,134 L 664,135 L 663,136 L 663,137 L 662,137 L 662,138 L 661,139 L 659,140 L 658,141 L 657,142 L 657,143 L 658,144 L 658,145 L 659,145 L 659,146 L 659,147 L 659,148 L 659,149 L 658,150 L 657,151 L 656,152 L 654,153 L 653,154 L 652,154 L 652,155 L 651,155 L 650,155 L 650,156 L 649,156 L 648,156 L 647,156 L 647,157 L 647,158 L 646,158 L 645,158 L 644,157 L 643,157 L 642,156 L 641,155 L 640,155 L 638,155 L 637,155 L 636,155 L 635,155 L 634,155 L 633,155 L 633,154 L 632,154 L 632,153 L 632,152 L 631,152 L 631,151 L 630,150 L 629,149 L 629,148 L 628,148 L 627,147 L 627,146 L 626,146 L 626,145 L 626,144 L 625,144 L 624,144 L 623,144 L 623,145 L 622,146 L 621,147 L 621,148 L 620,148 L 620,149 L 619,149 L 618,149 L 617,149 L 616,149 L 615,148 L 614,148 L 613,148 L 612,148 L 610,148 L 610,149 L 608,150 L 607,152 L 605,153 L 604,154 L 602,154 L 601,155 L 600,155 L 599,155 L 598,156 L 598,157 L 597,158 L 597,159 L 597,160 L 595,160 L 595,161 L 594,161 L 593,161 L 593,162 L 592,162 L 592,163 L 591,163 L 591,164 L 590,165 L 589,167 L 588,168 L 587,169 L 586,170 L 586,171 L 587,171 L 587,172 L 587,173 L 587,174 L 587,175 L 587,176 L 587,177 L 587,178 L 587,179 L 588,179 L 588,180 L 588,181 L 587,181 L 586,181 L 585,182 L 584,182 L 583,181 L 582,181 L 582,180 L 581,180 L 580,180 L 579,181 L 578,181 L 577,181 L 576,181 L 575,182 L 575,181 L 574,181 L 574,180 L 574,179 L 574,178 L 575,177 L 575,176 L 575,175 L 575,174 L 575,172 L 575,170 L 575,169 L 575,168 L 574,168 L 573,168 L 573,167 L 572,167 L 571,167 L 571,166 L 571,165 L 572,165 L 573,164 L 574,164 L 575,164 L 576,163 L 577,163 L 577,162 L 578,161 L 578,160 L 577,160 L 577,159 L 576,159 L 576,158 L 575,158 L 575,157 L 575,156 L 574,154 L 574,153 L 574,152 L 574,151 L 573,150 L 573,149 L 572,149 L 573,148 L 574,147 L 575,146 L 576,146 L 576,145 L 576,144 L 576,143 L 577,142 L 578,142 L 578,141 L 578,140 L 577,139 L 576,139 L 576,138 L 575,139 L 574,139 L 573,139 L 572,138 L 571,138 L 569,138 L 568,138 L 567,138 L 567,137 L 567,136 L 566,135 L 566,134 L 565,133 L 564,132 L 563,131 L 562,131 L 561,131 L 561,130 L 562,129 L 562,128 L 563,127 L 563,126 L 562,126 L 562,125 L 561,124 L 560,124 L 560,123 L 559,123 L 558,122 L 555,121 L 554,120 L 552,120 L 551,119 L 551,118 L 550,118 L 549,118 L 548,117 L 547,117 L 546,116 L 545,116 L 543,116 L 541,115 L 540,115 L 539,115 L 538,114 L 537,114 L 536,114 L 534,114 L 533,113 L 532,113 L 531,113 L 531,112 L 530,112 L 529,112 L 528,113 L 527,113 L 527,112 L 526,112 L 525,111 L 525,110 L 524,109 L 523,108 L 523,107 L 522,107 L 520,106 L 518,105 L 517,104 L 517,103 L 516,103 L 516,102 L 515,102 L 514,101 L 513,101 L 512,100 L 511,100 L 511,99 L 510,100 L 509,100 L 509,101 L 508,101 L 508,102 L 507,102 L 506,102 L 505,102 L 504,101 L 502,102 L 500,103 L 499,103 L 498,104 L 497,104 L 496,105 L 496,106 L 496,107 L 496,109 L 496,110 L 496,111 L 495,111 L 494,111 L 493,111 L 492,111 L 491,111 L 490,112 L 489,111 L 488,111 L 487,111 L 486,110 L 484,110 L 483,111 L 481,111 L 479,112 L 478,112 L 476,112 L 475,112 L 473,112 L 471,112 L 470,112 L 468,112 L 467,111 L 466,111 L 465,111 L 464,111 L 462,111 L 460,112 L 459,113 L 457,113 L 457,114 L 457,115 L 458,115 L 458,116 L 458,117 L 458,118 L 457,118 L 456,119 L 454,119 L 453,120 L 452,120 L 451,120 L 450,120 L 449,120 L 447,119 L 445,119 L 444,119 L 443,118 L 442,118 L 441,118 L 440,118 L 439,119 L 438,119 L 438,120 L 439,121 L 440,121 L 441,121 L 442,121 L 443,121 L 445,122 L 446,122 L 447,122 L 448,123 L 449,123 L 450,124 L 451,124 L 451,125 L 450,125 L 450,126 L 449,126 L 449,127 L 448,127 L 446,126 L 445,126 L 443,126 L 442,127 L 441,127 L 440,128 L 439,128 L 439,127 L 437,127 L 436,127 L 434,127 L 433,127 L 432,128 L 432,129 L 431,129 L 430,129 L 429,129 L 428,129 L 428,130 L 427,130 L 427,131 L 426,132 L 426,133 L 425,134 L 424,134 L 423,134 L 422,134 L 421,134 L 420,134 L 420,133 L 419,133 L 418,133 L 418,132 L 417,132 L 417,131 L 416,130 L 415,129 L 414,129 L 413,129 L 412,129 L 411,128 L 410,127 L 409,127 L 408,127 L 407,127 L 407,128 L 406,128 L 404,129 L 403,129 L 402,129 L 401,129 L 401,128 L 400,127 L 399,126 L 399,125 L 399,123 L 398,122 L 398,121 L 398,120 L 398,118 L 398,115 L 397,114 L 397,113 L 397,112 L 397,111 L 397,110 L 396,109 L 396,108 L 395,108 L 395,107 L 395,106 L 395,105 L 395,104 L 394,104 L 393,104 L 393,103 L 393,102 L 394,102 L 395,101 L 396,101 L 396,100 L 395,100 L 395,99 L 395,98 L 395,97 L 395,96 L 394,96 L 394,95 L 393,95 L 392,95 L 392,94 L 391,94 L 390,94 L 389,94 L 390,93 L 390,92 L 391,92 L 392,92 L 393,91 L 393,90 L 393,89 L 394,89 L 395,89 L 396,89 L 396,88 L 397,88 L 397,87 L 397,86 L 397,85 L 397,84 L 397,83 L 397,82 L 398,81 L 398,80 L 399,80 L 399,79 L 399,78 L 399,77 L 399,76 L 399,75 L 399,74 L 399,73 L 398,73 L 399,72 L 400,72 L 400,71 L 401,70 L 401,69 L 400,68 L 401,68 L 402,68 L 402,67 L 403,67 L 404,66 L 405,66 L 406,66 L 406,65 L 407,65 L 407,64 L 408,64 L 409,63 L 410,63 L 410,62 L 410,61 L 409,60 L 409,59 L 410,59 L 410,58 L 411,58 L 411,57 L 411,56 L 410,55 L 410,54 L 410,53 L 410,52 L 411,51 L 411,50 L 412,50 L 413,49 L 414,49 L 415,49 L 416,48 L 417,48 L 418,48 L 419,48 L 419,47 L 420,47 L 421,46 L 422,45 L 423,45 L 423,44 L 424,43 L 424,42 L 425,42 L 425,41 L 426,40 L 427,40 L 427,39 L 428,39 L 429,39 L 430,39 L 431,39 L 432,40 L 433,40 L 434,40 L 435,40 L 436,41 L 437,41 L 438,41 L 438,42 L 439,42 L 440,42 L 441,43 L 442,44 L 443,44 L 444,45 L 445,45 L 446,45 L 447,44 L 448,43 L 449,42 L 450,41 L 451,40 L 451,39 L 452,37 L 452,36 L 453,36 L 453,35 L 453,34 L 454,34 L 455,34 L 456,34 L 457,34 L 458,34 L 458,33 L 459,33 L 459,32 L 459,31 L 459,30 L 460,29 L 460,28 L 460,27 L 460,26 L 461,26 L 462,26 L 462,25 L 462,24 L 462,23 L 462,22 L 462,21 L 461,20 L 461,19 L 462,19 L 462,18 L 462,17 L 462,16 L 462,15 L 461,15 L 461,14 L 461,13 L 461,12 L 462,11 L 462,12 L 463,12 L 464,12 L 465,13 L 466,13 L 467,13 L 468,14 L 469,14 L 470,15 L 471,16 L 472,17 L 473,18 L 474,19 L 475,20 L 476,20 L 476,21 L 477,21 L 478,22 L 478,23 L 479,23 L 479,24 L 480,24 L 480,25 L 481,25 L 482,26 L 483,27 L 483,28 L 484,28 L 484,29 L 485,30 L 486,31 L 486,32 L 487,32 L 487,33 L 488,33 " />
</g>
<g id="167" class="st0 dist-block" inkscape:label="Khandapara">
<path d="M 685,148 L 686,148 L 687,148 L 689,148 L 690,148 L 691,148 L 692,149 L 693,150 L 695,151 L 696,152 L 697,152 L 698,153 L 698,154 L 699,154 L 700,154 L 701,154 L 703,153 L 704,153 L 706,154 L 707,154 L 709,154 L 711,154 L 713,155 L 714,155 L 715,155 L 717,155 L 718,155 L 719,155 L 720,154 L 721,154 L 722,153 L 723,153 L 724,153 L 725,153 L 727,154 L 728,154 L 729,155 L 730,155 L 731,155 L 732,156 L 732,157 L 733,157 L 732,158 L 731,160 L 730,161 L 730,162 L 729,164 L 728,165 L 728,166 L 728,167 L 727,167 L 727,168 L 726,168 L 726,169 L 725,169 L 725,170 L 724,170 L 724,171 L 723,171 L 723,172 L 722,173 L 722,174 L 722,175 L 722,176 L 722,177 L 722,178 L 721,178 L 720,179 L 719,179 L 719,180 L 718,180 L 717,180 L 716,179 L 715,179 L 714,179 L 714,180 L 714,181 L 714,182 L 715,182 L 715,183 L 715,184 L 716,185 L 716,186 L 716,187 L 716,188 L 716,189 L 716,190 L 717,191 L 718,192 L 719,193 L 720,194 L 721,195 L 722,195 L 723,196 L 724,197 L 725,197 L 726,196 L 727,196 L 728,195 L 729,194 L 730,193 L 730,192 L 730,191 L 730,190 L 731,190 L 732,191 L 733,192 L 734,192 L 735,192 L 737,193 L 738,193 L 738,194 L 739,194 L 740,195 L 741,195 L 742,195 L 743,195 L 744,195 L 745,195 L 746,195 L 746,196 L 747,196 L 747,197 L 747,198 L 747,200 L 747,201 L 747,202 L 746,202 L 745,202 L 744,202 L 743,203 L 742,205 L 741,206 L 740,207 L 740,208 L 739,210 L 739,212 L 738,213 L 738,214 L 738,215 L 737,216 L 736,218 L 736,219 L 736,220 L 737,220 L 738,220 L 739,220 L 740,220 L 741,220 L 742,220 L 742,221 L 743,221 L 743,222 L 744,223 L 745,223 L 746,224 L 746,225 L 747,225 L 747,226 L 746,226 L 745,226 L 744,227 L 743,227 L 743,228 L 742,228 L 742,229 L 742,230 L 743,230 L 744,230 L 744,231 L 745,231 L 745,232 L 744,232 L 745,233 L 744,234 L 744,235 L 743,235 L 742,236 L 741,236 L 740,236 L 739,236 L 738,236 L 736,236 L 735,237 L 734,237 L 733,238 L 732,238 L 732,237 L 731,237 L 730,237 L 730,238 L 729,239 L 729,240 L 729,241 L 728,241 L 728,242 L 727,242 L 726,242 L 725,241 L 724,242 L 723,242 L 723,243 L 723,244 L 724,244 L 724,245 L 723,245 L 722,245 L 722,244 L 722,243 L 721,243 L 721,242 L 721,243 L 720,244 L 720,245 L 719,244 L 719,243 L 719,242 L 719,241 L 719,240 L 718,240 L 717,240 L 716,241 L 715,241 L 714,241 L 714,242 L 714,243 L 715,243 L 716,243 L 716,244 L 715,244 L 714,244 L 713,244 L 713,245 L 712,245 L 712,246 L 712,247 L 712,248 L 712,249 L 711,250 L 711,251 L 710,252 L 710,253 L 710,254 L 709,254 L 708,255 L 707,256 L 707,257 L 707,258 L 707,259 L 708,260 L 708,261 L 708,262 L 708,263 L 709,264 L 710,264 L 710,265 L 710,266 L 709,267 L 709,268 L 709,269 L 710,270 L 711,270 L 711,271 L 712,271 L 713,271 L 713,270 L 714,270 L 714,269 L 715,269 L 716,269 L 717,269 L 718,269 L 719,269 L 719,268 L 720,268 L 721,268 L 722,268 L 723,268 L 724,268 L 725,268 L 726,267 L 726,266 L 726,265 L 726,264 L 727,264 L 727,263 L 728,264 L 729,264 L 729,265 L 729,266 L 729,267 L 729,268 L 730,268 L 730,269 L 731,269 L 732,269 L 733,270 L 733,271 L 732,272 L 732,273 L 733,274 L 732,276 L 732,277 L 731,278 L 729,279 L 728,280 L 727,281 L 726,281 L 726,282 L 726,283 L 725,284 L 724,284 L 724,285 L 723,285 L 721,285 L 719,285 L 718,285 L 717,285 L 716,285 L 715,285 L 714,285 L 713,285 L 713,286 L 713,287 L 712,287 L 712,288 L 711,288 L 711,289 L 710,289 L 709,289 L 708,289 L 708,288 L 708,287 L 708,286 L 707,285 L 707,284 L 706,283 L 704,283 L 704,282 L 703,282 L 702,282 L 701,282 L 700,281 L 699,280 L 698,280 L 698,279 L 697,279 L 696,279 L 695,280 L 694,281 L 694,282 L 693,282 L 692,283 L 691,283 L 689,282 L 688,282 L 686,282 L 685,282 L 684,281 L 682,280 L 681,280 L 680,280 L 679,280 L 678,280 L 677,280 L 677,279 L 676,278 L 676,277 L 675,276 L 674,275 L 674,273 L 674,272 L 674,271 L 674,270 L 674,269 L 674,268 L 674,267 L 675,267 L 675,266 L 675,265 L 675,264 L 674,262 L 673,261 L 672,261 L 671,261 L 670,261 L 669,261 L 668,261 L 668,260 L 667,259 L 666,259 L 666,260 L 665,260 L 664,259 L 664,258 L 664,257 L 663,257 L 663,256 L 663,255 L 663,254 L 662,253 L 661,252 L 661,251 L 660,250 L 659,249 L 658,248 L 657,247 L 656,246 L 655,245 L 654,244 L 653,244 L 652,244 L 651,244 L 650,244 L 649,244 L 648,244 L 647,244 L 647,243 L 646,242 L 645,242 L 645,241 L 644,240 L 643,239 L 643,238 L 642,238 L 641,237 L 640,237 L 639,236 L 637,236 L 637,235 L 636,234 L 635,234 L 634,233 L 633,232 L 632,232 L 630,231 L 629,231 L 628,230 L 627,230 L 626,230 L 625,230 L 624,230 L 624,229 L 623,228 L 623,227 L 623,226 L 623,225 L 622,224 L 622,223 L 621,223 L 621,222 L 620,221 L 620,220 L 619,220 L 619,219 L 618,219 L 617,219 L 616,219 L 615,219 L 614,218 L 613,219 L 613,218 L 612,218 L 611,216 L 610,216 L 609,215 L 608,214 L 607,213 L 606,213 L 606,212 L 605,211 L 604,211 L 603,210 L 603,209 L 601,208 L 601,207 L 600,207 L 600,206 L 598,206 L 597,205 L 596,204 L 596,203 L 596,202 L 595,200 L 595,199 L 594,197 L 593,196 L 592,195 L 591,194 L 590,193 L 590,192 L 591,192 L 591,191 L 591,190 L 592,190 L 592,189 L 593,189 L 593,188 L 594,188 L 593,188 L 593,187 L 593,186 L 592,185 L 591,184 L 591,183 L 590,182 L 591,182 L 591,181 L 590,181 L 589,181 L 588,181 L 588,180 L 588,179 L 587,179 L 587,178 L 587,177 L 587,176 L 587,175 L 587,174 L 587,173 L 587,172 L 587,171 L 586,171 L 586,170 L 587,169 L 588,168 L 589,167 L 590,165 L 591,164 L 591,163 L 592,163 L 592,162 L 593,162 L 593,161 L 594,161 L 595,161 L 595,160 L 597,160 L 597,159 L 597,158 L 598,157 L 598,156 L 599,155 L 600,155 L 601,155 L 602,154 L 604,154 L 605,153 L 607,152 L 608,150 L 610,149 L 610,148 L 612,148 L 613,148 L 614,148 L 615,148 L 616,149 L 617,149 L 618,149 L 619,149 L 620,149 L 620,148 L 621,148 L 621,147 L 622,146 L 623,145 L 623,144 L 624,144 L 625,144 L 626,144 L 626,145 L 626,146 L 627,146 L 627,147 L 628,148 L 629,148 L 629,149 L 630,150 L 631,151 L 631,152 L 632,152 L 632,153 L 632,154 L 633,154 L 633,155 L 634,155 L 635,155 L 636,155 L 637,155 L 638,155 L 640,155 L 641,155 L 642,156 L 643,157 L 644,157 L 645,158 L 646,158 L 647,158 L 647,157 L 647,156 L 648,156 L 649,156 L 650,156 L 650,155 L 651,155 L 652,155 L 652,154 L 653,154 L 654,153 L 656,152 L 657,151 L 658,150 L 659,149 L 659,148 L 659,147 L 659,146 L 659,145 L 658,145 L 658,144 L 657,143 L 657,142 L 658,141 L 659,140 L 661,139 L 662,138 L 662,137 L 663,137 L 663,136 L 664,135 L 664,134 L 664,133 L 665,132 L 667,133 L 668,133 L 670,133 L 671,134 L 672,135 L 673,136 L 674,138 L 675,139 L 676,140 L 676,141 L 677,141 L 678,142 L 679,142 L 680,143 L 681,143 L 682,144 L 682,145 L 683,145 L 684,146 L 684,147 L 685,147 L 685,148 " />
</g>
<g id="223" class="st0 dist-block" inkscape:label="Nayagarh">
<path d="M 674,271 L 674,272 L 674,273 L 674,275 L 675,276 L 676,277 L 676,278 L 677,279 L 677,280 L 678,280 L 679,280 L 680,280 L 681,280 L 682,280 L 684,281 L 685,282 L 686,282 L 688,282 L 689,282 L 691,283 L 692,283 L 693,282 L 694,282 L 694,281 L 695,280 L 696,279 L 697,279 L 698,279 L 698,280 L 699,280 L 700,281 L 701,282 L 702,282 L 703,282 L 704,282 L 704,283 L 706,283 L 707,284 L 707,285 L 708,286 L 708,287 L 708,288 L 708,289 L 709,289 L 710,289 L 711,289 L 711,288 L 712,288 L 712,287 L 713,287 L 713,286 L 713,285 L 714,285 L 715,285 L 716,285 L 717,285 L 718,285 L 719,285 L 721,285 L 723,285 L 724,285 L 724,286 L 725,288 L 725,289 L 725,290 L 726,290 L 727,290 L 727,291 L 727,293 L 727,294 L 727,295 L 726,295 L 726,296 L 727,296 L 728,296 L 728,295 L 727,294 L 728,294 L 729,294 L 729,295 L 728,295 L 728,296 L 729,296 L 730,296 L 731,296 L 731,297 L 732,297 L 733,297 L 734,298 L 733,298 L 733,299 L 733,300 L 732,300 L 732,301 L 733,301 L 732,302 L 732,303 L 732,304 L 732,305 L 729,305 L 727,305 L 727,307 L 727,308 L 727,309 L 727,310 L 729,310 L 729,311 L 730,311 L 731,312 L 731,314 L 731,315 L 731,316 L 732,317 L 733,317 L 733,318 L 733,319 L 733,325 L 734,326 L 735,326 L 736,326 L 737,327 L 738,326 L 739,327 L 740,327 L 741,327 L 742,328 L 742,329 L 744,332 L 745,333 L 746,334 L 747,334 L 749,335 L 750,336 L 751,335 L 752,335 L 752,334 L 753,334 L 754,334 L 755,333 L 755,334 L 755,335 L 756,336 L 756,337 L 757,338 L 757,339 L 757,340 L 757,341 L 756,341 L 755,341 L 754,341 L 753,341 L 752,340 L 751,340 L 750,341 L 749,342 L 749,343 L 750,344 L 751,345 L 750,346 L 749,347 L 748,347 L 748,348 L 749,350 L 749,351 L 749,352 L 749,353 L 749,354 L 748,355 L 748,356 L 747,356 L 746,356 L 745,357 L 745,358 L 744,359 L 743,360 L 742,361 L 742,362 L 741,363 L 740,364 L 739,364 L 738,364 L 736,365 L 735,365 L 734,365 L 733,365 L 732,365 L 732,364 L 731,364 L 730,364 L 729,364 L 728,364 L 727,364 L 726,364 L 725,364 L 724,364 L 723,364 L 723,365 L 722,365 L 722,364 L 721,364 L 720,364 L 719,364 L 718,364 L 717,364 L 716,364 L 716,365 L 716,366 L 716,367 L 716,368 L 716,369 L 716,370 L 715,370 L 715,371 L 715,372 L 715,373 L 715,374 L 714,374 L 713,375 L 712,375 L 711,375 L 710,375 L 709,375 L 708,375 L 707,374 L 706,374 L 705,373 L 704,374 L 703,374 L 702,375 L 701,375 L 701,376 L 701,375 L 700,375 L 700,374 L 700,373 L 701,373 L 701,372 L 702,372 L 702,371 L 702,370 L 701,369 L 701,368 L 702,368 L 702,367 L 702,366 L 703,366 L 704,365 L 705,365 L 705,364 L 704,364 L 703,364 L 703,363 L 703,362 L 703,361 L 702,361 L 701,361 L 701,362 L 700,362 L 699,362 L 698,363 L 697,363 L 695,364 L 694,364 L 693,365 L 692,365 L 691,366 L 691,367 L 690,368 L 690,369 L 690,370 L 690,371 L 691,371 L 691,372 L 691,373 L 691,374 L 690,374 L 690,375 L 689,375 L 688,375 L 687,376 L 687,377 L 686,377 L 685,377 L 684,378 L 684,379 L 683,379 L 682,379 L 681,379 L 681,378 L 680,378 L 681,377 L 681,376 L 681,375 L 682,375 L 682,374 L 682,373 L 683,372 L 683,371 L 684,370 L 684,369 L 684,368 L 684,367 L 684,366 L 683,365 L 682,365 L 681,366 L 680,367 L 680,368 L 679,369 L 679,370 L 678,370 L 677,370 L 676,369 L 675,369 L 674,369 L 673,369 L 672,369 L 671,369 L 670,368 L 669,368 L 670,367 L 670,366 L 670,365 L 671,365 L 671,364 L 672,363 L 673,362 L 672,362 L 671,362 L 671,361 L 670,360 L 670,359 L 669,359 L 668,359 L 667,359 L 666,359 L 666,358 L 665,358 L 664,358 L 663,358 L 662,357 L 662,356 L 662,355 L 663,355 L 663,354 L 662,354 L 661,353 L 660,353 L 659,353 L 659,354 L 659,355 L 658,355 L 657,355 L 656,355 L 655,355 L 654,355 L 654,356 L 653,356 L 652,356 L 652,355 L 652,354 L 651,354 L 651,353 L 650,353 L 650,352 L 649,351 L 648,350 L 647,350 L 646,350 L 645,349 L 644,347 L 643,346 L 642,346 L 641,346 L 640,346 L 639,346 L 638,346 L 638,345 L 637,346 L 636,347 L 636,348 L 636,349 L 636,350 L 635,350 L 635,351 L 636,352 L 636,353 L 635,354 L 635,355 L 634,355 L 633,356 L 631,356 L 629,355 L 628,355 L 627,354 L 626,354 L 625,354 L 625,355 L 624,356 L 624,357 L 624,358 L 624,359 L 624,361 L 624,362 L 623,363 L 622,363 L 621,363 L 620,363 L 620,364 L 619,365 L 618,365 L 617,365 L 616,365 L 615,365 L 614,365 L 613,365 L 612,365 L 611,365 L 610,364 L 609,364 L 609,363 L 608,363 L 608,362 L 606,362 L 605,362 L 604,362 L 602,362 L 602,363 L 602,364 L 602,365 L 602,366 L 602,367 L 601,367 L 601,368 L 600,368 L 600,367 L 599,367 L 599,366 L 598,366 L 598,365 L 598,364 L 597,364 L 596,365 L 596,364 L 596,363 L 595,363 L 594,363 L 593,362 L 593,361 L 592,361 L 591,360 L 590,360 L 589,360 L 589,361 L 588,361 L 587,361 L 586,361 L 585,361 L 584,361 L 583,361 L 582,362 L 582,363 L 581,364 L 581,365 L 581,366 L 580,367 L 580,368 L 579,368 L 579,369 L 578,370 L 577,371 L 575,372 L 574,373 L 573,373 L 572,373 L 571,373 L 570,373 L 569,373 L 568,372 L 567,371 L 566,371 L 566,370 L 565,370 L 564,369 L 563,368 L 564,367 L 564,366 L 565,366 L 566,365 L 567,364 L 566,364 L 565,364 L 564,363 L 564,362 L 563,361 L 563,360 L 563,358 L 563,357 L 562,357 L 561,357 L 561,356 L 562,355 L 562,354 L 563,353 L 564,352 L 564,351 L 564,350 L 564,349 L 564,348 L 565,346 L 565,345 L 565,344 L 565,343 L 566,342 L 567,342 L 568,342 L 569,342 L 570,342 L 571,342 L 572,342 L 572,341 L 571,341 L 570,341 L 569,340 L 569,339 L 569,338 L 570,338 L 571,338 L 572,338 L 572,337 L 573,337 L 573,335 L 573,334 L 573,333 L 572,333 L 571,334 L 570,334 L 569,335 L 568,335 L 567,335 L 567,334 L 566,334 L 566,333 L 565,332 L 565,331 L 565,330 L 565,329 L 566,329 L 566,328 L 567,328 L 568,329 L 569,329 L 569,330 L 570,330 L 570,329 L 570,328 L 570,327 L 569,326 L 569,325 L 569,324 L 569,323 L 568,323 L 568,322 L 568,321 L 568,320 L 569,320 L 570,320 L 571,321 L 572,322 L 572,323 L 573,323 L 573,324 L 574,324 L 574,323 L 575,323 L 575,321 L 576,320 L 576,319 L 577,318 L 578,317 L 578,316 L 579,316 L 579,315 L 580,314 L 581,314 L 583,314 L 584,314 L 584,315 L 584,316 L 584,317 L 584,318 L 585,319 L 586,320 L 585,322 L 585,323 L 585,324 L 585,326 L 585,327 L 586,327 L 586,328 L 586,329 L 585,330 L 586,331 L 587,330 L 588,329 L 588,328 L 588,327 L 588,326 L 589,325 L 589,324 L 589,323 L 590,323 L 591,323 L 592,323 L 593,323 L 594,322 L 594,321 L 593,320 L 593,319 L 593,318 L 594,318 L 594,319 L 595,319 L 595,318 L 594,318 L 593,317 L 594,317 L 595,317 L 596,317 L 597,318 L 598,318 L 598,319 L 600,319 L 601,319 L 601,318 L 602,318 L 603,318 L 604,319 L 604,320 L 605,321 L 605,322 L 605,323 L 605,324 L 606,325 L 606,326 L 607,326 L 608,326 L 608,325 L 609,325 L 610,325 L 611,325 L 612,325 L 613,325 L 614,326 L 616,326 L 618,327 L 620,328 L 620,329 L 621,329 L 622,328 L 622,327 L 623,326 L 624,325 L 624,324 L 624,323 L 624,322 L 625,322 L 625,321 L 626,321 L 627,321 L 628,322 L 629,323 L 630,323 L 630,322 L 630,321 L 631,321 L 632,321 L 632,320 L 633,320 L 634,320 L 634,319 L 634,318 L 633,318 L 632,318 L 631,318 L 631,317 L 632,317 L 632,316 L 631,315 L 630,314 L 629,314 L 628,314 L 627,313 L 627,312 L 627,311 L 628,311 L 629,310 L 630,310 L 631,310 L 631,309 L 631,308 L 631,307 L 631,306 L 631,304 L 632,304 L 632,303 L 632,302 L 633,303 L 634,304 L 635,304 L 636,304 L 636,305 L 637,305 L 638,305 L 638,306 L 639,306 L 640,306 L 640,307 L 641,307 L 641,308 L 642,308 L 643,307 L 644,306 L 645,306 L 645,307 L 646,307 L 646,308 L 647,308 L 648,308 L 649,308 L 650,307 L 650,306 L 651,305 L 651,304 L 651,303 L 652,303 L 652,302 L 653,302 L 653,301 L 654,300 L 655,299 L 654,298 L 654,299 L 653,299 L 652,299 L 651,299 L 650,299 L 650,298 L 650,297 L 649,296 L 647,295 L 646,295 L 647,294 L 648,293 L 648,292 L 647,291 L 646,291 L 646,290 L 646,289 L 646,288 L 645,288 L 645,287 L 645,286 L 646,287 L 647,287 L 648,287 L 649,287 L 650,287 L 650,286 L 650,285 L 649,284 L 648,284 L 646,282 L 646,281 L 646,280 L 647,279 L 647,278 L 648,277 L 648,275 L 648,274 L 647,272 L 647,271 L 647,270 L 646,269 L 645,268 L 644,268 L 644,267 L 645,266 L 646,266 L 647,267 L 647,268 L 648,269 L 648,270 L 649,271 L 649,272 L 650,272 L 650,273 L 651,273 L 652,273 L 653,272 L 654,271 L 655,271 L 655,270 L 655,269 L 655,268 L 655,267 L 656,267 L 657,267 L 658,268 L 658,269 L 659,270 L 659,271 L 659,272 L 660,272 L 660,271 L 661,271 L 662,271 L 663,271 L 664,272 L 666,272 L 667,272 L 668,272 L 668,271 L 668,270 L 669,269 L 669,268 L 669,267 L 670,265 L 670,264 L 671,263 L 672,262 L 672,261 L 673,261 L 674,262 L 675,264 L 675,265 L 675,266 L 675,267 L 674,267 L 674,268 L 674,269 L 674,270 L 674,271 " />
</g>
<g id="229" class="st0 dist-block" inkscape:label="Nuagaon">
<path d="M 582,181 L 583,181 L 584,182 L 585,182 L 586,181 L 587,181 L 588,181 L 589,181 L 590,181 L 591,181 L 591,182 L 590,182 L 591,183 L 591,184 L 592,185 L 593,186 L 593,187 L 593,188 L 594,188 L 593,188 L 593,189 L 592,189 L 592,190 L 591,190 L 591,191 L 591,192 L 590,192 L 590,193 L 591,194 L 592,195 L 593,196 L 594,197 L 595,199 L 595,200 L 596,202 L 596,203 L 596,204 L 597,205 L 598,206 L 600,206 L 600,207 L 601,207 L 601,208 L 603,209 L 603,210 L 604,211 L 605,211 L 606,212 L 606,213 L 607,213 L 608,214 L 609,215 L 610,216 L 611,216 L 612,218 L 613,218 L 613,219 L 614,218 L 615,219 L 616,219 L 617,219 L 618,219 L 619,219 L 619,220 L 620,220 L 620,221 L 621,222 L 621,223 L 622,223 L 622,224 L 623,225 L 623,226 L 623,227 L 623,228 L 624,229 L 624,230 L 625,230 L 626,230 L 627,230 L 628,230 L 629,231 L 630,231 L 632,232 L 633,232 L 634,233 L 635,234 L 636,234 L 637,235 L 637,236 L 639,236 L 640,237 L 641,237 L 642,238 L 643,238 L 643,239 L 644,240 L 645,241 L 645,242 L 646,242 L 647,243 L 647,244 L 648,244 L 649,244 L 650,244 L 651,244 L 652,244 L 653,244 L 654,244 L 655,245 L 656,246 L 657,247 L 658,248 L 659,249 L 660,250 L 661,251 L 661,252 L 662,253 L 663,254 L 663,255 L 663,256 L 663,257 L 664,257 L 664,258 L 664,259 L 665,260 L 666,260 L 666,259 L 667,259 L 668,260 L 668,261 L 669,261 L 670,261 L 671,261 L 672,261 L 672,262 L 671,263 L 670,264 L 670,265 L 669,267 L 669,268 L 669,269 L 668,270 L 668,271 L 668,272 L 667,272 L 666,272 L 664,272 L 663,271 L 662,271 L 661,271 L 660,271 L 660,272 L 659,272 L 659,271 L 659,270 L 658,269 L 658,268 L 657,267 L 656,267 L 655,267 L 655,268 L 655,269 L 655,270 L 655,271 L 654,271 L 653,272 L 652,273 L 651,273 L 650,273 L 650,272 L 649,272 L 649,271 L 648,270 L 648,269 L 647,268 L 647,267 L 646,266 L 645,266 L 644,267 L 644,268 L 645,268 L 646,269 L 647,270 L 647,271 L 647,272 L 648,274 L 648,275 L 648,277 L 647,278 L 647,279 L 646,280 L 646,281 L 646,282 L 648,284 L 649,284 L 650,285 L 650,286 L 650,287 L 649,287 L 648,287 L 647,287 L 646,287 L 645,286 L 645,287 L 645,288 L 646,288 L 646,289 L 646,290 L 646,291 L 647,291 L 648,292 L 648,293 L 647,294 L 646,295 L 647,295 L 649,296 L 650,297 L 650,298 L 650,299 L 651,299 L 652,299 L 653,299 L 654,299 L 654,298 L 655,299 L 654,300 L 653,301 L 653,302 L 652,302 L 652,303 L 651,303 L 651,304 L 651,305 L 650,306 L 650,307 L 649,308 L 648,308 L 647,308 L 646,308 L 646,307 L 645,307 L 645,306 L 644,306 L 643,307 L 642,308 L 641,308 L 641,307 L 640,307 L 640,306 L 639,306 L 638,306 L 638,305 L 637,305 L 636,305 L 636,304 L 635,304 L 634,304 L 633,303 L 632,302 L 632,303 L 632,304 L 631,304 L 631,306 L 631,307 L 631,308 L 631,309 L 631,310 L 630,310 L 629,310 L 628,311 L 627,311 L 627,312 L 627,313 L 628,314 L 629,314 L 630,314 L 631,315 L 632,316 L 632,317 L 631,317 L 631,318 L 632,318 L 633,318 L 634,318 L 634,319 L 634,320 L 633,320 L 632,320 L 632,321 L 631,321 L 630,321 L 630,322 L 630,323 L 629,323 L 628,322 L 627,321 L 626,321 L 625,321 L 625,322 L 624,322 L 624,323 L 624,324 L 624,325 L 623,326 L 622,327 L 622,328 L 621,329 L 620,329 L 620,328 L 618,327 L 616,326 L 614,326 L 613,325 L 612,325 L 611,325 L 610,325 L 609,325 L 608,325 L 608,326 L 607,326 L 606,326 L 606,325 L 605,324 L 605,323 L 605,322 L 605,321 L 604,320 L 604,319 L 603,318 L 602,318 L 601,318 L 601,319 L 600,319 L 598,319 L 598,318 L 597,318 L 596,317 L 595,317 L 594,317 L 593,317 L 594,318 L 595,318 L 595,319 L 594,319 L 594,318 L 593,318 L 593,319 L 593,320 L 594,321 L 594,322 L 593,323 L 592,323 L 591,323 L 590,323 L 589,323 L 589,324 L 589,325 L 588,326 L 588,327 L 588,328 L 588,329 L 587,330 L 586,331 L 585,330 L 586,329 L 586,328 L 586,327 L 585,327 L 585,326 L 585,324 L 585,323 L 585,322 L 586,320 L 585,319 L 584,318 L 584,317 L 584,316 L 584,315 L 584,314 L 583,314 L 581,314 L 580,314 L 579,315 L 579,316 L 578,316 L 578,317 L 577,318 L 576,319 L 576,320 L 575,321 L 575,323 L 574,323 L 574,324 L 573,324 L 573,323 L 572,323 L 572,322 L 571,321 L 570,320 L 569,320 L 568,320 L 568,321 L 568,322 L 568,323 L 569,323 L 569,324 L 569,325 L 569,326 L 570,327 L 570,328 L 570,329 L 570,330 L 569,330 L 569,329 L 568,329 L 567,328 L 566,328 L 566,329 L 565,329 L 565,330 L 565,331 L 565,332 L 566,333 L 566,334 L 567,334 L 567,335 L 568,335 L 569,335 L 570,334 L 571,334 L 572,333 L 573,333 L 573,334 L 573,335 L 573,337 L 572,337 L 572,338 L 571,338 L 570,338 L 569,338 L 569,339 L 569,340 L 570,341 L 571,341 L 572,341 L 572,342 L 571,342 L 570,342 L 569,342 L 568,342 L 567,342 L 566,342 L 565,343 L 565,344 L 565,345 L 565,346 L 564,348 L 564,349 L 564,350 L 564,351 L 564,352 L 563,353 L 562,354 L 562,355 L 561,356 L 561,357 L 562,357 L 563,357 L 563,358 L 563,360 L 563,361 L 564,362 L 564,363 L 565,364 L 566,364 L 567,364 L 566,365 L 565,366 L 564,366 L 563,366 L 562,366 L 561,366 L 560,366 L 559,367 L 558,368 L 556,368 L 555,368 L 555,369 L 555,370 L 554,370 L 554,371 L 553,371 L 552,371 L 551,372 L 550,372 L 549,373 L 548,373 L 547,372 L 546,372 L 545,373 L 544,374 L 543,375 L 542,376 L 541,376 L 540,376 L 540,375 L 539,375 L 539,374 L 538,374 L 538,375 L 538,374 L 537,374 L 536,373 L 535,373 L 534,374 L 534,373 L 533,373 L 533,374 L 532,374 L 531,374 L 530,374 L 530,373 L 531,372 L 532,371 L 532,370 L 532,369 L 531,369 L 530,369 L 530,368 L 531,368 L 531,367 L 532,366 L 532,365 L 531,365 L 530,365 L 529,366 L 529,367 L 529,368 L 528,369 L 528,370 L 527,370 L 526,371 L 526,372 L 526,373 L 525,373 L 525,372 L 524,372 L 524,371 L 523,371 L 523,370 L 524,369 L 523,369 L 523,368 L 522,368 L 521,368 L 520,368 L 519,368 L 518,369 L 517,370 L 516,371 L 515,371 L 514,372 L 514,374 L 513,375 L 513,377 L 513,378 L 513,379 L 513,380 L 512,380 L 511,379 L 510,378 L 509,378 L 508,378 L 507,378 L 506,379 L 505,380 L 505,381 L 505,382 L 504,382 L 504,381 L 503,380 L 503,379 L 502,378 L 501,378 L 502,379 L 502,380 L 502,381 L 502,382 L 501,382 L 501,381 L 501,380 L 501,379 L 500,379 L 500,378 L 499,379 L 498,380 L 498,379 L 497,379 L 497,380 L 496,381 L 496,382 L 497,383 L 497,382 L 498,382 L 498,381 L 499,382 L 499,383 L 498,383 L 497,383 L 497,384 L 497,385 L 498,385 L 499,386 L 499,385 L 499,384 L 500,383 L 501,383 L 502,383 L 503,384 L 503,385 L 503,386 L 504,386 L 504,387 L 504,388 L 503,388 L 502,389 L 501,390 L 500,391 L 499,391 L 499,390 L 498,390 L 497,389 L 496,388 L 495,387 L 494,386 L 494,385 L 493,384 L 493,383 L 492,382 L 492,381 L 491,381 L 491,380 L 490,379 L 489,379 L 489,378 L 488,377 L 487,376 L 486,375 L 485,375 L 484,374 L 483,374 L 483,373 L 481,372 L 480,372 L 478,371 L 476,370 L 476,369 L 475,369 L 474,368 L 473,367 L 472,367 L 471,366 L 471,365 L 470,364 L 469,363 L 469,362 L 469,361 L 468,360 L 468,358 L 467,357 L 467,356 L 466,355 L 466,354 L 466,353 L 465,353 L 465,352 L 464,351 L 463,350 L 463,349 L 462,349 L 462,348 L 463,348 L 463,347 L 464,347 L 464,346 L 464,345 L 465,345 L 465,344 L 465,343 L 466,343 L 467,343 L 467,342 L 468,341 L 468,340 L 468,339 L 467,338 L 467,337 L 467,336 L 467,335 L 468,334 L 468,333 L 469,333 L 470,333 L 471,333 L 472,333 L 473,333 L 474,333 L 475,333 L 476,332 L 477,332 L 477,331 L 478,331 L 478,330 L 478,329 L 478,328 L 478,326 L 478,323 L 478,319 L 478,317 L 479,315 L 479,313 L 479,311 L 480,308 L 480,307 L 481,305 L 481,304 L 481,303 L 481,301 L 481,300 L 481,299 L 480,296 L 480,295 L 480,294 L 480,293 L 480,292 L 480,291 L 480,290 L 480,289 L 480,287 L 481,285 L 481,284 L 481,282 L 482,281 L 482,279 L 483,277 L 483,276 L 484,275 L 484,274 L 484,273 L 484,272 L 484,271 L 484,270 L 485,270 L 485,269 L 485,268 L 485,267 L 485,266 L 485,265 L 485,264 L 485,263 L 486,263 L 488,262 L 489,261 L 490,260 L 491,259 L 491,258 L 491,257 L 491,256 L 490,256 L 490,255 L 491,254 L 493,253 L 495,252 L 496,252 L 498,252 L 499,252 L 500,252 L 501,250 L 502,249 L 503,247 L 504,245 L 505,244 L 506,244 L 507,244 L 508,243 L 509,242 L 510,241 L 510,240 L 510,239 L 510,238 L 511,237 L 512,236 L 513,235 L 514,235 L 515,235 L 516,235 L 517,234 L 518,234 L 518,235 L 519,235 L 520,234 L 521,234 L 522,234 L 523,234 L 524,234 L 524,235 L 525,235 L 526,235 L 527,234 L 527,233 L 528,233 L 528,232 L 529,231 L 529,230 L 530,229 L 531,228 L 531,227 L 532,226 L 532,225 L 532,224 L 532,223 L 531,222 L 531,221 L 531,220 L 530,219 L 530,218 L 530,217 L 531,217 L 531,216 L 533,215 L 534,215 L 535,214 L 536,214 L 536,213 L 537,213 L 537,211 L 537,210 L 537,209 L 537,208 L 537,207 L 538,207 L 539,206 L 540,205 L 541,205 L 542,205 L 543,206 L 544,205 L 545,204 L 545,202 L 544,200 L 544,199 L 544,198 L 544,197 L 544,196 L 544,195 L 544,194 L 545,194 L 545,193 L 546,193 L 547,192 L 548,192 L 548,191 L 548,190 L 548,189 L 549,189 L 549,188 L 550,188 L 551,188 L 552,188 L 552,189 L 553,189 L 553,188 L 553,187 L 553,186 L 553,185 L 554,185 L 554,186 L 555,186 L 555,187 L 556,187 L 557,187 L 557,186 L 557,185 L 558,186 L 559,185 L 559,184 L 558,184 L 558,183 L 559,183 L 560,182 L 561,182 L 562,182 L 563,183 L 564,184 L 565,183 L 566,183 L 567,183 L 568,182 L 569,182 L 570,182 L 571,182 L 572,182 L 573,182 L 574,182 L 575,182 L 576,181 L 577,181 L 578,181 L 579,181 L 580,180 L 581,180 L 582,180 L 582,181 " />
</g>
<g id="232" class="st0 dist-block" inkscape:label="Odagaon">
<path d="M 640,346 L 641,346 L 642,346 L 643,346 L 644,347 L 645,349 L 646,350 L 647,350 L 648,350 L 649,351 L 650,352 L 650,353 L 651,353 L 651,354 L 652,354 L 652,355 L 652,356 L 653,356 L 654,356 L 654,355 L 655,355 L 656,355 L 657,355 L 658,355 L 659,355 L 659,354 L 659,353 L 660,353 L 661,353 L 662,354 L 663,354 L 663,355 L 662,355 L 662,356 L 662,357 L 663,358 L 664,358 L 665,358 L 666,358 L 666,359 L 667,359 L 668,359 L 669,359 L 670,359 L 670,360 L 671,361 L 671,362 L 672,362 L 673,362 L 672,363 L 671,364 L 671,365 L 670,365 L 670,366 L 670,367 L 669,368 L 670,368 L 671,369 L 672,369 L 673,369 L 674,369 L 675,369 L 676,369 L 677,370 L 678,370 L 679,370 L 679,369 L 680,368 L 680,367 L 681,366 L 682,365 L 683,365 L 684,366 L 684,367 L 684,368 L 684,369 L 684,370 L 683,371 L 683,372 L 682,373 L 682,374 L 682,375 L 681,375 L 681,376 L 681,377 L 680,378 L 681,378 L 681,379 L 682,379 L 683,379 L 684,379 L 684,378 L 685,377 L 686,377 L 687,377 L 687,376 L 688,375 L 689,375 L 690,375 L 690,374 L 691,374 L 691,373 L 691,372 L 691,371 L 690,371 L 690,370 L 690,369 L 690,368 L 691,367 L 691,366 L 692,365 L 693,365 L 694,364 L 695,364 L 697,363 L 698,363 L 699,362 L 700,362 L 701,362 L 701,361 L 702,361 L 703,361 L 703,362 L 703,363 L 703,364 L 704,364 L 705,364 L 705,365 L 704,365 L 703,366 L 702,366 L 702,367 L 702,368 L 701,368 L 701,369 L 702,370 L 702,371 L 702,372 L 701,372 L 701,373 L 700,373 L 700,374 L 700,375 L 700,376 L 699,376 L 699,377 L 699,378 L 700,379 L 701,379 L 702,379 L 702,380 L 703,380 L 703,381 L 703,382 L 703,383 L 703,385 L 704,386 L 704,387 L 705,388 L 705,389 L 705,390 L 704,390 L 704,391 L 704,392 L 705,393 L 705,394 L 704,394 L 704,395 L 703,395 L 702,396 L 701,396 L 701,397 L 700,398 L 700,399 L 700,400 L 701,400 L 702,400 L 703,400 L 704,399 L 705,400 L 705,401 L 706,402 L 705,403 L 705,404 L 705,405 L 704,406 L 704,407 L 703,408 L 703,409 L 704,409 L 705,410 L 706,412 L 707,413 L 707,414 L 707,416 L 708,416 L 709,415 L 710,415 L 711,415 L 711,414 L 712,414 L 713,414 L 714,414 L 715,413 L 716,413 L 717,412 L 718,411 L 719,411 L 719,410 L 720,411 L 721,411 L 722,411 L 722,410 L 723,410 L 724,409 L 725,409 L 725,410 L 726,410 L 727,410 L 728,411 L 728,412 L 729,412 L 729,413 L 729,414 L 728,414 L 728,415 L 727,415 L 727,416 L 727,417 L 726,417 L 726,418 L 725,418 L 724,419 L 723,419 L 722,419 L 721,419 L 720,419 L 719,419 L 718,419 L 717,419 L 716,420 L 715,420 L 714,421 L 714,422 L 714,423 L 713,423 L 713,424 L 712,425 L 711,425 L 711,426 L 710,426 L 709,427 L 708,428 L 707,428 L 706,429 L 705,429 L 704,430 L 703,431 L 702,432 L 701,432 L 700,432 L 699,432 L 699,433 L 699,434 L 699,435 L 698,436 L 697,437 L 696,437 L 696,438 L 695,438 L 694,439 L 693,439 L 692,440 L 691,440 L 690,441 L 689,442 L 688,442 L 687,443 L 686,444 L 685,445 L 684,445 L 683,446 L 683,447 L 682,448 L 681,449 L 680,450 L 680,451 L 681,452 L 681,453 L 681,454 L 681,455 L 680,456 L 679,456 L 678,457 L 677,457 L 676,458 L 675,458 L 674,459 L 673,459 L 673,460 L 672,460 L 671,460 L 670,461 L 669,461 L 668,461 L 667,461 L 665,461 L 664,461 L 663,461 L 661,461 L 660,461 L 659,462 L 658,462 L 657,462 L 656,462 L 655,463 L 654,463 L 653,463 L 652,464 L 652,465 L 651,465 L 650,466 L 648,466 L 647,467 L 646,467 L 646,468 L 645,468 L 643,468 L 643,469 L 641,468 L 641,469 L 640,469 L 639,469 L 638,470 L 636,470 L 635,471 L 633,471 L 632,471 L 632,472 L 631,472 L 630,473 L 629,473 L 628,473 L 627,473 L 626,472 L 625,472 L 624,473 L 623,474 L 622,474 L 621,475 L 620,475 L 620,476 L 618,476 L 617,477 L 616,477 L 615,477 L 615,478 L 614,478 L 613,478 L 613,479 L 612,479 L 611,480 L 609,482 L 608,481 L 606,480 L 605,479 L 604,479 L 601,480 L 599,481 L 596,482 L 595,483 L 594,482 L 592,481 L 591,481 L 591,482 L 591,481 L 590,481 L 589,481 L 586,481 L 579,479 L 576,479 L 571,481 L 569,481 L 568,481 L 567,481 L 565,482 L 564,482 L 563,481 L 561,481 L 560,481 L 558,482 L 556,483 L 555,484 L 553,484 L 552,483 L 551,483 L 550,482 L 549,481 L 549,480 L 548,479 L 547,478 L 546,477 L 545,476 L 544,477 L 543,477 L 543,478 L 542,478 L 541,478 L 540,478 L 538,478 L 537,478 L 536,478 L 536,477 L 535,477 L 534,477 L 533,477 L 533,476 L 532,476 L 532,475 L 532,474 L 532,473 L 531,472 L 531,471 L 532,471 L 532,470 L 533,469 L 534,469 L 534,468 L 535,467 L 535,466 L 535,465 L 535,464 L 536,464 L 536,463 L 536,464 L 537,464 L 538,464 L 538,463 L 537,463 L 537,462 L 537,461 L 538,461 L 538,460 L 539,460 L 539,459 L 538,459 L 539,458 L 539,457 L 540,456 L 540,455 L 540,454 L 541,454 L 541,453 L 540,452 L 540,451 L 539,450 L 539,449 L 538,449 L 538,448 L 538,447 L 538,446 L 538,445 L 537,445 L 537,444 L 536,443 L 536,442 L 536,441 L 535,440 L 535,439 L 535,438 L 535,437 L 535,436 L 535,435 L 535,434 L 534,433 L 534,431 L 533,431 L 533,430 L 533,429 L 533,428 L 532,428 L 531,426 L 531,425 L 531,424 L 530,422 L 529,421 L 529,420 L 529,419 L 529,418 L 528,418 L 528,417 L 527,417 L 526,417 L 525,417 L 524,416 L 523,416 L 522,416 L 522,415 L 521,415 L 520,414 L 519,414 L 518,413 L 518,412 L 517,412 L 515,412 L 514,413 L 513,413 L 512,413 L 510,413 L 509,413 L 508,413 L 507,413 L 506,412 L 505,412 L 504,412 L 503,412 L 503,411 L 503,410 L 502,410 L 502,409 L 502,408 L 502,406 L 502,405 L 502,404 L 502,403 L 503,402 L 503,401 L 503,400 L 503,399 L 502,399 L 502,398 L 501,397 L 501,396 L 500,396 L 500,395 L 500,394 L 500,393 L 500,392 L 500,391 L 499,391 L 500,391 L 501,390 L 502,389 L 503,388 L 504,388 L 504,387 L 504,386 L 503,386 L 503,385 L 503,384 L 502,383 L 501,383 L 500,383 L 499,384 L 499,385 L 499,386 L 498,385 L 497,385 L 497,384 L 497,383 L 498,383 L 499,383 L 499,382 L 498,381 L 498,382 L 497,382 L 497,383 L 496,382 L 496,381 L 497,380 L 497,379 L 498,379 L 498,380 L 499,379 L 500,378 L 500,379 L 501,379 L 501,380 L 501,381 L 501,382 L 502,382 L 502,381 L 502,380 L 502,379 L 501,378 L 502,378 L 503,379 L 503,380 L 504,381 L 504,382 L 505,382 L 505,381 L 505,380 L 506,379 L 507,378 L 508,378 L 509,378 L 510,378 L 511,379 L 512,380 L 513,380 L 513,379 L 513,378 L 513,377 L 513,375 L 514,374 L 514,372 L 515,371 L 516,371 L 517,370 L 518,369 L 519,368 L 520,368 L 521,368 L 522,368 L 523,368 L 523,369 L 524,369 L 523,370 L 523,371 L 524,371 L 524,372 L 525,372 L 525,373 L 526,373 L 526,372 L 526,371 L 527,370 L 528,370 L 528,369 L 529,368 L 529,367 L 529,366 L 530,365 L 531,365 L 532,365 L 532,366 L 531,367 L 531,368 L 530,368 L 530,369 L 531,369 L 532,369 L 532,370 L 532,371 L 531,372 L 530,373 L 530,374 L 531,374 L 532,374 L 533,374 L 533,373 L 534,373 L 534,374 L 535,373 L 536,373 L 537,374 L 538,374 L 538,375 L 538,374 L 539,374 L 539,375 L 540,375 L 540,376 L 541,376 L 542,376 L 543,375 L 544,374 L 545,373 L 546,372 L 547,372 L 548,373 L 549,373 L 550,372 L 551,372 L 552,371 L 553,371 L 554,371 L 554,370 L 555,370 L 555,369 L 555,368 L 556,368 L 558,368 L 559,367 L 560,366 L 561,366 L 562,366 L 563,366 L 564,366 L 564,367 L 563,368 L 564,369 L 565,370 L 566,370 L 566,371 L 567,371 L 568,372 L 569,373 L 570,373 L 571,373 L 572,373 L 573,373 L 574,373 L 575,372 L 577,371 L 578,370 L 579,369 L 579,368 L 580,368 L 580,367 L 581,366 L 581,365 L 581,364 L 582,363 L 582,362 L 583,361 L 584,361 L 585,361 L 586,361 L 587,361 L 588,361 L 589,361 L 589,360 L 590,360 L 591,360 L 592,361 L 593,361 L 593,362 L 594,363 L 595,363 L 596,363 L 596,364 L 596,365 L 597,364 L 598,364 L 598,365 L 598,366 L 599,366 L 599,367 L 600,367 L 600,368 L 601,368 L 601,367 L 602,367 L 602,366 L 602,365 L 602,364 L 602,363 L 602,362 L 604,362 L 605,362 L 606,362 L 608,362 L 608,363 L 609,363 L 609,364 L 610,364 L 611,365 L 612,365 L 613,365 L 614,365 L 615,365 L 616,365 L 617,365 L 618,365 L 619,365 L 620,364 L 620,363 L 621,363 L 622,363 L 623,363 L 624,362 L 624,361 L 624,359 L 624,358 L 624,357 L 624,356 L 625,355 L 625,354 L 626,354 L 627,354 L 628,355 L 629,355 L 631,356 L 633,356 L 634,355 L 635,355 L 635,354 L 636,353 L 636,352 L 635,351 L 635,350 L 636,350 L 636,349 L 636,348 L 636,347 L 637,346 L 638,345 L 638,346 L 639,346 L 640,346 " />
</g>
<g id="264" class="st0 dist-block" inkscape:label="Ranapur">
<path d="M 826,286 L 827,286 L 828,286 L 829,287 L 830,287 L 830,288 L 831,289 L 832,290 L 833,291 L 833,292 L 834,293 L 835,293 L 835,294 L 835,295 L 835,297 L 835,298 L 834,298 L 833,299 L 832,300 L 830,302 L 829,303 L 830,304 L 830,305 L 830,306 L 830,307 L 830,308 L 828,309 L 827,309 L 826,310 L 826,311 L 826,314 L 826,315 L 826,316 L 825,316 L 825,317 L 826,317 L 827,317 L 828,316 L 830,316 L 831,316 L 833,316 L 834,317 L 835,316 L 836,316 L 837,316 L 838,316 L 838,315 L 839,315 L 840,315 L 840,314 L 840,313 L 842,312 L 843,312 L 843,311 L 843,310 L 844,309 L 845,308 L 845,309 L 845,310 L 845,311 L 846,312 L 846,313 L 846,314 L 847,314 L 847,315 L 848,316 L 849,316 L 848,316 L 847,316 L 846,317 L 846,318 L 846,319 L 846,320 L 847,320 L 846,321 L 846,322 L 847,322 L 847,323 L 848,323 L 849,324 L 850,324 L 851,325 L 851,324 L 851,323 L 852,322 L 853,321 L 854,321 L 855,321 L 856,322 L 857,322 L 859,323 L 860,324 L 861,325 L 860,325 L 861,326 L 862,326 L 863,327 L 864,327 L 864,328 L 864,329 L 865,329 L 865,330 L 865,331 L 865,332 L 863,333 L 862,334 L 861,335 L 860,336 L 859,336 L 859,337 L 859,338 L 860,338 L 860,339 L 860,340 L 859,342 L 859,344 L 858,344 L 857,345 L 857,346 L 858,347 L 858,348 L 857,348 L 856,350 L 856,351 L 855,353 L 854,354 L 853,355 L 852,355 L 851,355 L 850,354 L 849,354 L 848,354 L 847,354 L 845,353 L 844,353 L 844,354 L 843,356 L 842,358 L 841,360 L 842,361 L 843,361 L 844,361 L 844,362 L 844,363 L 844,364 L 843,364 L 843,365 L 842,365 L 842,366 L 841,366 L 841,367 L 841,368 L 842,369 L 843,369 L 843,370 L 844,370 L 844,371 L 844,372 L 845,372 L 845,373 L 845,374 L 845,375 L 846,375 L 846,376 L 845,377 L 846,378 L 846,379 L 846,380 L 847,380 L 848,380 L 849,381 L 848,381 L 848,383 L 849,383 L 849,382 L 850,383 L 851,384 L 851,385 L 851,386 L 850,387 L 851,388 L 852,387 L 852,388 L 852,389 L 852,390 L 853,390 L 853,392 L 854,392 L 854,393 L 855,393 L 856,392 L 856,393 L 857,393 L 857,394 L 858,394 L 859,394 L 859,393 L 860,393 L 860,394 L 861,394 L 861,393 L 862,393 L 863,393 L 863,394 L 864,395 L 864,396 L 863,396 L 863,397 L 863,398 L 863,399 L 864,399 L 865,399 L 866,399 L 867,399 L 868,399 L 868,398 L 869,398 L 869,399 L 870,399 L 871,398 L 872,398 L 872,397 L 873,397 L 874,396 L 875,396 L 875,397 L 877,397 L 877,398 L 876,399 L 876,400 L 876,401 L 875,401 L 875,403 L 875,404 L 874,405 L 874,406 L 874,407 L 873,407 L 872,408 L 872,409 L 871,409 L 870,409 L 870,410 L 870,412 L 869,413 L 869,414 L 868,414 L 867,414 L 866,414 L 865,414 L 864,413 L 863,414 L 863,415 L 864,416 L 864,417 L 863,419 L 863,420 L 864,420 L 866,420 L 866,421 L 867,421 L 868,421 L 869,421 L 871,421 L 872,421 L 873,421 L 873,420 L 875,420 L 876,419 L 877,419 L 878,419 L 878,422 L 879,421 L 879,423 L 880,423 L 881,424 L 882,424 L 882,425 L 883,425 L 884,427 L 886,428 L 886,429 L 887,430 L 887,431 L 888,432 L 888,433 L 888,434 L 888,435 L 889,435 L 889,436 L 889,437 L 889,438 L 888,439 L 888,440 L 887,441 L 887,442 L 886,442 L 886,443 L 885,443 L 884,444 L 883,444 L 883,445 L 882,446 L 882,447 L 881,447 L 881,448 L 880,449 L 880,450 L 879,450 L 879,451 L 878,451 L 878,452 L 878,453 L 878,454 L 877,455 L 877,456 L 877,457 L 876,457 L 876,458 L 875,458 L 874,458 L 872,458 L 870,458 L 870,459 L 869,459 L 867,458 L 867,459 L 867,460 L 867,461 L 866,461 L 866,462 L 866,463 L 865,463 L 865,464 L 865,465 L 865,466 L 865,467 L 865,468 L 864,468 L 864,467 L 863,466 L 863,465 L 862,465 L 862,466 L 861,466 L 860,466 L 859,466 L 858,466 L 858,465 L 857,465 L 856,465 L 855,464 L 854,464 L 853,463 L 852,463 L 851,460 L 850,458 L 849,457 L 847,457 L 846,457 L 845,457 L 844,458 L 843,458 L 842,457 L 841,456 L 841,455 L 842,454 L 841,449 L 840,449 L 839,449 L 838,449 L 837,450 L 835,450 L 834,450 L 834,449 L 833,448 L 832,447 L 831,447 L 830,447 L 829,446 L 827,446 L 826,446 L 824,448 L 824,449 L 823,449 L 822,451 L 822,453 L 821,454 L 820,455 L 819,455 L 818,456 L 816,456 L 815,456 L 814,457 L 812,459 L 811,459 L 810,461 L 808,462 L 807,463 L 806,464 L 807,465 L 807,466 L 807,467 L 806,467 L 805,467 L 804,467 L 803,467 L 802,467 L 801,467 L 800,467 L 799,467 L 798,467 L 797,467 L 795,467 L 794,468 L 794,467 L 793,467 L 792,467 L 791,466 L 790,467 L 789,467 L 789,468 L 788,469 L 787,469 L 785,469 L 784,469 L 782,469 L 780,469 L 778,471 L 777,472 L 776,472 L 774,473 L 774,474 L 773,474 L 772,474 L 771,474 L 770,474 L 770,473 L 769,473 L 768,473 L 767,473 L 766,473 L 766,474 L 766,475 L 765,475 L 765,476 L 764,476 L 762,476 L 760,477 L 758,478 L 757,478 L 755,479 L 754,479 L 753,480 L 752,480 L 751,480 L 750,480 L 749,480 L 749,479 L 748,479 L 747,479 L 746,479 L 745,478 L 744,478 L 743,478 L 743,477 L 742,477 L 741,477 L 740,477 L 739,476 L 738,476 L 737,476 L 737,477 L 736,477 L 735,478 L 735,477 L 734,476 L 733,476 L 732,476 L 731,476 L 731,475 L 730,475 L 729,475 L 728,475 L 727,476 L 726,476 L 725,476 L 725,477 L 724,477 L 723,478 L 722,478 L 721,478 L 720,478 L 718,478 L 717,478 L 716,478 L 715,478 L 714,478 L 713,478 L 712,479 L 711,478 L 711,477 L 711,476 L 710,477 L 709,477 L 708,477 L 708,478 L 707,479 L 706,479 L 704,480 L 703,481 L 702,481 L 701,481 L 699,481 L 698,481 L 697,480 L 697,479 L 695,477 L 692,475 L 690,473 L 688,471 L 687,471 L 686,470 L 685,468 L 684,468 L 681,466 L 679,465 L 678,465 L 676,462 L 674,461 L 673,460 L 673,459 L 674,459 L 675,458 L 676,458 L 677,457 L 678,457 L 679,456 L 680,456 L 681,455 L 681,454 L 681,453 L 681,452 L 680,451 L 680,450 L 681,449 L 682,448 L 683,447 L 683,446 L 684,445 L 685,445 L 686,444 L 687,443 L 688,442 L 689,442 L 690,441 L 691,440 L 692,440 L 693,439 L 694,439 L 695,438 L 696,438 L 696,437 L 697,437 L 698,436 L 699,435 L 699,434 L 699,433 L 699,432 L 700,432 L 701,432 L 702,432 L 703,431 L 704,430 L 705,429 L 706,429 L 707,428 L 708,428 L 709,427 L 710,426 L 711,426 L 711,425 L 712,425 L 713,424 L 713,423 L 714,423 L 714,422 L 714,421 L 715,420 L 716,420 L 717,419 L 718,419 L 719,419 L 720,419 L 721,419 L 722,419 L 723,419 L 724,419 L 725,418 L 726,418 L 726,417 L 727,417 L 727,416 L 727,415 L 728,415 L 728,414 L 729,414 L 729,413 L 729,412 L 728,412 L 728,411 L 727,410 L 726,410 L 725,410 L 725,409 L 724,409 L 723,410 L 722,410 L 722,411 L 721,411 L 720,411 L 719,410 L 719,411 L 718,411 L 717,412 L 716,413 L 715,413 L 714,414 L 713,414 L 712,414 L 711,414 L 711,415 L 710,415 L 709,415 L 708,416 L 707,416 L 707,414 L 707,413 L 706,412 L 705,410 L 704,409 L 703,409 L 703,408 L 704,407 L 704,406 L 705,405 L 705,404 L 705,403 L 706,402 L 705,401 L 705,400 L 704,399 L 703,400 L 702,400 L 701,400 L 700,400 L 700,399 L 700,398 L 701,397 L 701,396 L 702,396 L 703,395 L 704,395 L 704,394 L 705,394 L 705,393 L 704,392 L 704,391 L 704,390 L 705,390 L 705,389 L 705,388 L 704,387 L 704,386 L 703,385 L 703,383 L 703,382 L 703,381 L 703,380 L 702,380 L 702,379 L 701,379 L 700,379 L 699,378 L 699,377 L 699,376 L 700,376 L 700,375 L 701,375 L 701,376 L 701,375 L 702,375 L 703,374 L 704,374 L 705,373 L 706,374 L 707,374 L 708,375 L 709,375 L 710,375 L 711,375 L 712,375 L 713,375 L 714,374 L 715,374 L 715,373 L 715,372 L 715,371 L 715,370 L 716,370 L 716,369 L 716,368 L 716,367 L 716,366 L 716,365 L 716,364 L 717,364 L 718,364 L 719,364 L 720,364 L 721,364 L 722,364 L 722,365 L 723,365 L 723,364 L 724,364 L 725,364 L 726,364 L 727,364 L 728,364 L 729,364 L 730,364 L 731,364 L 732,364 L 732,365 L 733,365 L 734,365 L 735,365 L 736,365 L 738,364 L 739,364 L 740,364 L 741,363 L 742,362 L 742,361 L 743,360 L 744,359 L 745,358 L 745,357 L 746,356 L 747,356 L 748,356 L 748,355 L 749,354 L 749,353 L 749,352 L 749,351 L 749,350 L 748,348 L 748,347 L 749,347 L 750,346 L 751,345 L 750,344 L 749,343 L 749,342 L 750,341 L 751,340 L 752,340 L 753,341 L 754,341 L 755,341 L 756,341 L 757,341 L 757,340 L 757,339 L 757,338 L 756,337 L 756,336 L 755,335 L 755,334 L 755,333 L 755,332 L 755,331 L 755,330 L 755,329 L 756,328 L 756,327 L 756,326 L 756,325 L 757,325 L 758,324 L 759,324 L 760,325 L 761,324 L 761,323 L 762,322 L 763,321 L 764,321 L 764,320 L 765,320 L 765,319 L 765,318 L 766,318 L 767,318 L 767,317 L 768,315 L 769,315 L 769,314 L 770,314 L 770,313 L 771,313 L 772,313 L 773,313 L 774,313 L 775,313 L 775,312 L 776,312 L 777,312 L 778,312 L 779,312 L 780,312 L 781,312 L 782,312 L 782,311 L 781,311 L 781,310 L 782,310 L 782,309 L 783,309 L 784,309 L 785,310 L 786,310 L 787,310 L 788,310 L 789,310 L 789,309 L 790,309 L 791,310 L 791,309 L 792,309 L 793,309 L 794,309 L 797,309 L 798,308 L 798,307 L 798,303 L 797,302 L 796,303 L 796,302 L 797,301 L 797,300 L 798,299 L 799,298 L 800,298 L 801,298 L 802,298 L 802,297 L 802,296 L 803,296 L 804,296 L 805,296 L 805,295 L 806,294 L 807,294 L 807,293 L 807,292 L 808,292 L 809,291 L 810,291 L 810,292 L 810,294 L 810,295 L 810,296 L 810,297 L 811,297 L 813,297 L 813,298 L 814,298 L 815,298 L 816,298 L 817,297 L 817,296 L 817,295 L 817,294 L 817,293 L 818,292 L 817,292 L 817,291 L 818,290 L 819,290 L 819,289 L 819,288 L 820,288 L 820,287 L 821,287 L 821,286 L 822,286 L 822,287 L 823,287 L 824,287 L 824,286 L 825,286 L 825,285 L 826,285 L 826,286 " />
</g>
</g>
</g>
<g id="block_labels" inkscape:groupmode="layer" inkscape:label="block_labels">
<g stroke="none" fill="rgb(0,0,0)">
<text id="block_labels_1" x="771" y="212" class="st4" inkscape:label="Bhapur_lbl">Bhapur</text>
<text id="block_labels_2" x="420" y="182" class="st4" inkscape:label="Dasapalla_lbl">Dasapalla</text>
<text id="block_labels_3" x="509" y="96"  class="st4" inkscape:label="Gania_lbl">Gania</text>
<text id="block_labels_4" x="671" y="204" class="st4" inkscape:label="Khandapada_lbl">Khandapada</text>
<text id="block_labels_5" x="666" y="329" class="st4" inkscape:label="Nayagarh_lbl">Nayagarh</text>
<text id="block_labels_6" x="558" y="284" class="st4" inkscape:label="Nuagaon_lbl">Nuagaon</text>
<text id="block_labels_7" x="609" y="415" class="st4" inkscape:label="Odagaon_lbl">Odagaon</text>
<text id="block_labels_8" x="786" y="399" class="st4" inkscape:label="Ranapur_lbl">Ranapur</text>
</g>
</g>
<!-- QGIS extent for clipping, eg in Inkscape -->
</svg>