<?xml version="1.0" standalone="no"?>
<!DOCTYPE svg PUBLIC "-//W3C//DTD SVG 1.1//EN" "http://www.w3.org/Graphics/SVG/1.1/DTD/svg11.dtd">
<svg xmlns="http://www.w3.org/2000/svg" xmlns:inkscape="http://www.inkscape.org/namespaces/inkscape" xmlns:xlink="http://www.w3.org/1999/xlink" viewBox = "300 0 550 550" version = "1.1">
	<style type="text/css">
   .st0, .st1, .st2
    {
        stroke: #d0d0d0;
        stroke-miterlimit: 7;
		fill:#fff;
		cursor:pointer;
    }
    .st4
    {
        font-size: 7.0514px;
		fill:#000;
    }
    .st0:hover, .st1:hover, .st2:hover{fill:#32C787;}
</style>
<!-- svg generated using QGIS www.qgis.org -->
<g id="block" inkscape:groupmode="layer" inkscape:label="block">
<g stroke="rgb(0,0,0)" fill="#fff" stroke-linejoin="round" stroke-width="0.56">
<g id="66" class="st0 dist-block" inkscape:label="Boden">
<path d="M 566,285 L 566,286 L 567,287 L 567,288 L 568,288 L 567,289 L 567,290 L 566,291 L 566,292 L 565,293 L 565,294 L 565,295 L 566,295 L 566,294 L 567,294 L 567,293 L 568,293 L 569,293 L 569,292 L 570,292 L 570,291 L 571,291 L 571,290 L 572,290 L 573,290 L 573,289 L 574,289 L 575,289 L 576,289 L 577,290 L 577,291 L 577,292 L 578,292 L 579,292 L 580,292 L 581,293 L 582,293 L 583,293 L 585,293 L 586,293 L 586,294 L 587,294 L 588,295 L 589,295 L 589,296 L 590,296 L 590,297 L 591,297 L 591,298 L 592,298 L 591,298 L 591,299 L 590,299 L 589,299 L 589,300 L 590,301 L 590,302 L 591,303 L 591,304 L 591,305 L 592,306 L 593,306 L 594,307 L 595,308 L 595,309 L 596,310 L 596,311 L 597,311 L 598,312 L 598,313 L 599,313 L 599,314 L 600,314 L 600,315 L 600,316 L 600,317 L 600,318 L 599,319 L 599,320 L 598,321 L 598,322 L 599,322 L 599,323 L 599,324 L 600,324 L 600,325 L 600,326 L 600,327 L 600,328 L 601,328 L 602,329 L 603,329 L 603,330 L 604,330 L 605,331 L 606,332 L 606,333 L 606,334 L 606,335 L 606,336 L 607,337 L 609,338 L 610,339 L 611,339 L 611,340 L 610,340 L 610,341 L 609,341 L 609,342 L 608,342 L 608,343 L 607,344 L 608,344 L 608,345 L 608,346 L 609,346 L 609,347 L 609,348 L 609,349 L 609,350 L 610,351 L 610,352 L 610,353 L 609,354 L 607,354 L 605,354 L 603,354 L 602,355 L 601,355 L 600,355 L 599,355 L 598,355 L 597,355 L 595,355 L 594,355 L 593,356 L 592,356 L 592,355 L 591,355 L 590,356 L 589,357 L 589,358 L 588,359 L 589,359 L 590,359 L 591,359 L 591,360 L 591,361 L 591,363 L 590,363 L 590,364 L 590,365 L 589,365 L 588,365 L 588,364 L 588,363 L 588,362 L 587,363 L 587,365 L 586,366 L 586,367 L 586,368 L 585,369 L 585,371 L 584,372 L 584,373 L 584,374 L 585,374 L 585,373 L 585,372 L 585,371 L 586,371 L 587,372 L 588,373 L 589,373 L 590,373 L 591,373 L 592,374 L 592,375 L 591,375 L 591,376 L 592,376 L 592,377 L 593,377 L 592,378 L 591,378 L 590,378 L 589,378 L 590,379 L 592,380 L 593,381 L 593,380 L 593,379 L 594,379 L 595,379 L 596,379 L 597,379 L 599,380 L 600,381 L 601,381 L 602,381 L 603,382 L 602,382 L 602,383 L 601,383 L 600,384 L 600,385 L 599,386 L 599,387 L 600,387 L 601,387 L 602,387 L 602,386 L 603,386 L 604,387 L 605,387 L 605,388 L 606,388 L 606,387 L 607,388 L 607,389 L 607,390 L 606,391 L 606,392 L 605,393 L 605,394 L 606,394 L 607,394 L 607,395 L 608,394 L 609,394 L 609,395 L 610,395 L 610,394 L 610,393 L 611,393 L 611,394 L 612,394 L 613,393 L 614,393 L 614,392 L 615,392 L 615,393 L 615,394 L 615,395 L 614,395 L 614,396 L 613,396 L 612,397 L 611,397 L 610,397 L 609,398 L 608,398 L 607,399 L 607,400 L 608,400 L 608,401 L 608,402 L 609,402 L 610,401 L 610,402 L 610,403 L 609,403 L 609,404 L 608,404 L 608,403 L 607,403 L 606,403 L 606,404 L 607,405 L 607,406 L 607,407 L 608,407 L 608,408 L 607,408 L 607,409 L 606,409 L 606,410 L 605,410 L 604,411 L 603,412 L 603,413 L 602,413 L 602,414 L 602,415 L 601,416 L 601,417 L 602,417 L 602,418 L 602,419 L 601,419 L 601,420 L 602,420 L 602,421 L 602,422 L 601,422 L 600,422 L 600,421 L 599,421 L 598,421 L 598,420 L 597,420 L 596,420 L 596,421 L 595,420 L 595,419 L 595,418 L 594,418 L 593,418 L 593,419 L 592,420 L 592,421 L 592,422 L 591,423 L 590,424 L 590,425 L 589,425 L 588,425 L 587,425 L 585,425 L 584,425 L 583,425 L 582,425 L 581,426 L 581,427 L 580,428 L 580,429 L 579,430 L 578,430 L 576,430 L 575,430 L 575,429 L 576,428 L 576,427 L 576,426 L 576,425 L 576,424 L 575,424 L 573,423 L 572,423 L 571,423 L 571,422 L 571,421 L 571,420 L 570,419 L 570,418 L 570,417 L 571,416 L 572,414 L 572,413 L 572,412 L 571,411 L 570,411 L 570,410 L 570,409 L 570,408 L 569,408 L 569,407 L 568,406 L 567,406 L 565,405 L 564,405 L 563,404 L 562,404 L 561,405 L 560,405 L 559,405 L 558,405 L 557,405 L 556,405 L 554,406 L 553,406 L 552,406 L 552,405 L 551,405 L 551,404 L 551,403 L 551,402 L 551,401 L 550,401 L 550,402 L 549,403 L 548,404 L 546,406 L 545,407 L 545,408 L 544,408 L 543,406 L 540,401 L 539,399 L 537,397 L 536,395 L 535,394 L 534,392 L 533,390 L 533,389 L 532,388 L 532,387 L 531,387 L 531,388 L 530,388 L 529,388 L 528,388 L 527,388 L 526,388 L 526,387 L 525,387 L 523,387 L 522,387 L 521,386 L 520,386 L 519,386 L 518,386 L 517,386 L 516,386 L 516,385 L 515,385 L 514,385 L 513,385 L 512,385 L 511,385 L 510,384 L 509,384 L 507,384 L 506,384 L 505,384 L 504,383 L 502,383 L 502,382 L 501,382 L 500,381 L 499,380 L 499,379 L 499,378 L 499,377 L 499,376 L 498,375 L 498,374 L 498,373 L 498,372 L 499,372 L 500,372 L 502,372 L 502,371 L 502,370 L 501,370 L 501,369 L 500,368 L 500,367 L 500,366 L 499,366 L 498,366 L 498,365 L 498,364 L 499,364 L 499,363 L 499,362 L 500,362 L 500,361 L 500,360 L 501,360 L 502,360 L 503,360 L 504,359 L 505,359 L 506,359 L 506,358 L 507,358 L 507,357 L 508,357 L 508,356 L 508,355 L 509,355 L 509,354 L 509,353 L 509,352 L 509,351 L 508,351 L 508,350 L 507,350 L 507,349 L 506,349 L 506,348 L 506,347 L 507,347 L 507,346 L 507,345 L 507,344 L 507,343 L 506,343 L 506,342 L 505,342 L 505,341 L 504,340 L 504,339 L 503,339 L 503,338 L 502,338 L 501,338 L 501,337 L 500,337 L 499,337 L 498,337 L 498,336 L 498,335 L 498,334 L 497,334 L 497,333 L 496,333 L 495,333 L 495,332 L 495,331 L 495,330 L 495,329 L 496,328 L 497,327 L 497,326 L 497,325 L 497,324 L 497,323 L 497,322 L 498,322 L 498,321 L 499,321 L 499,320 L 499,319 L 499,318 L 500,317 L 501,316 L 502,315 L 502,314 L 503,313 L 502,313 L 502,312 L 502,311 L 502,310 L 503,310 L 503,309 L 504,309 L 504,308 L 503,307 L 503,306 L 503,305 L 503,304 L 502,303 L 502,302 L 503,301 L 505,301 L 506,300 L 507,299 L 508,299 L 509,299 L 511,300 L 512,300 L 514,301 L 515,302 L 517,302 L 518,303 L 519,304 L 521,305 L 522,305 L 524,306 L 526,307 L 528,308 L 531,310 L 533,311 L 534,311 L 535,311 L 539,314 L 544,316 L 550,320 L 551,320 L 551,319 L 551,318 L 551,316 L 552,314 L 553,313 L 553,311 L 554,311 L 554,309 L 555,307 L 556,305 L 557,304 L 558,302 L 558,301 L 559,300 L 559,299 L 559,298 L 560,297 L 560,296 L 560,295 L 559,295 L 559,294 L 560,294 L 560,293 L 559,292 L 560,291 L 559,290 L 558,290 L 559,290 L 559,289 L 559,288 L 560,287 L 560,286 L 560,285 L 561,285 L 562,285 L 563,285 L 564,285 L 565,285 L 565,284 L 566,284 L 566,285 " />
</g>
<g id="169" class="st0 dist-block" inkscape:label="Khariar">
<path d="M 629,316 L 629,317 L 628,317 L 627,318 L 627,319 L 627,320 L 626,320 L 626,321 L 625,321 L 625,322 L 624,322 L 623,322 L 623,323 L 622,323 L 622,324 L 622,325 L 622,326 L 622,327 L 623,328 L 624,328 L 625,328 L 626,328 L 627,328 L 628,328 L 629,328 L 630,328 L 630,327 L 631,327 L 632,327 L 632,326 L 633,326 L 634,326 L 634,325 L 635,325 L 636,325 L 636,326 L 637,326 L 637,327 L 638,327 L 639,327 L 640,328 L 641,328 L 641,329 L 642,329 L 643,329 L 644,329 L 645,329 L 646,329 L 646,328 L 647,328 L 648,328 L 648,327 L 648,326 L 649,326 L 649,325 L 649,324 L 649,323 L 650,322 L 651,322 L 652,322 L 653,322 L 654,322 L 655,322 L 656,322 L 656,321 L 656,320 L 656,319 L 656,318 L 657,318 L 658,318 L 658,317 L 658,316 L 659,316 L 659,317 L 660,317 L 661,318 L 662,318 L 662,317 L 663,317 L 663,318 L 663,319 L 663,320 L 663,321 L 662,322 L 662,323 L 662,324 L 662,325 L 662,326 L 661,326 L 661,327 L 660,327 L 659,327 L 659,328 L 658,328 L 657,329 L 657,330 L 656,330 L 656,331 L 655,331 L 654,332 L 653,332 L 653,333 L 653,334 L 654,335 L 654,336 L 654,337 L 654,338 L 653,338 L 654,339 L 653,340 L 652,341 L 652,342 L 653,342 L 654,342 L 654,343 L 655,343 L 656,343 L 657,344 L 658,344 L 659,344 L 659,343 L 660,343 L 660,342 L 661,342 L 661,341 L 661,340 L 661,339 L 661,338 L 661,337 L 660,337 L 660,336 L 660,335 L 660,334 L 661,334 L 661,333 L 662,333 L 662,332 L 662,331 L 662,330 L 662,329 L 663,329 L 663,328 L 664,328 L 664,329 L 664,330 L 665,330 L 665,331 L 666,331 L 666,332 L 666,333 L 666,334 L 667,334 L 667,335 L 668,335 L 669,335 L 670,335 L 670,336 L 671,337 L 671,338 L 672,337 L 672,338 L 673,337 L 674,336 L 675,336 L 676,336 L 677,336 L 678,336 L 678,337 L 678,338 L 678,339 L 678,340 L 678,341 L 678,342 L 678,343 L 677,344 L 677,345 L 677,347 L 676,348 L 677,348 L 677,349 L 677,350 L 677,351 L 677,352 L 677,353 L 677,354 L 677,355 L 676,355 L 676,356 L 675,355 L 675,356 L 675,357 L 674,357 L 673,356 L 672,356 L 671,355 L 671,354 L 672,354 L 672,353 L 673,353 L 673,352 L 673,351 L 672,351 L 672,350 L 671,350 L 670,350 L 670,349 L 671,348 L 671,347 L 672,346 L 671,345 L 671,344 L 670,344 L 669,344 L 668,344 L 667,344 L 666,344 L 665,344 L 664,344 L 663,345 L 663,346 L 664,347 L 664,348 L 664,349 L 664,350 L 664,351 L 664,352 L 663,352 L 663,353 L 662,354 L 662,355 L 661,355 L 660,355 L 661,356 L 661,357 L 662,358 L 663,359 L 664,360 L 665,361 L 665,360 L 666,360 L 666,361 L 667,361 L 668,361 L 669,362 L 670,362 L 670,361 L 671,361 L 672,361 L 673,361 L 673,360 L 673,359 L 674,359 L 674,358 L 674,357 L 675,357 L 675,358 L 676,358 L 676,359 L 677,360 L 678,361 L 679,362 L 679,363 L 679,364 L 680,364 L 680,365 L 680,366 L 680,367 L 680,368 L 679,369 L 679,370 L 679,371 L 680,372 L 679,373 L 678,373 L 677,373 L 677,374 L 677,375 L 677,376 L 677,377 L 676,378 L 677,378 L 677,379 L 677,380 L 677,381 L 678,380 L 678,381 L 679,381 L 680,381 L 680,382 L 680,383 L 679,384 L 678,385 L 678,386 L 678,387 L 678,388 L 677,389 L 677,390 L 676,391 L 676,392 L 675,392 L 675,393 L 675,394 L 675,395 L 674,396 L 674,397 L 674,398 L 674,399 L 673,399 L 672,399 L 671,400 L 670,401 L 669,401 L 668,401 L 667,401 L 666,402 L 664,401 L 663,401 L 662,401 L 661,401 L 660,402 L 660,403 L 660,404 L 659,404 L 659,405 L 659,406 L 659,407 L 659,408 L 660,408 L 661,409 L 662,410 L 663,410 L 664,411 L 664,412 L 663,412 L 663,413 L 663,414 L 663,415 L 663,416 L 662,417 L 662,418 L 662,419 L 662,420 L 661,421 L 661,422 L 661,423 L 661,424 L 661,425 L 661,426 L 661,427 L 661,428 L 661,429 L 660,429 L 659,429 L 658,428 L 657,428 L 657,427 L 657,426 L 657,425 L 658,425 L 658,424 L 659,424 L 659,423 L 659,424 L 658,424 L 657,424 L 657,423 L 656,423 L 656,424 L 655,424 L 655,425 L 655,426 L 655,427 L 654,427 L 653,427 L 653,426 L 653,425 L 653,424 L 652,423 L 651,423 L 650,423 L 650,424 L 649,425 L 649,426 L 649,427 L 648,428 L 647,428 L 647,429 L 646,429 L 645,429 L 644,429 L 644,430 L 644,431 L 643,431 L 643,430 L 642,429 L 641,429 L 641,430 L 640,430 L 639,430 L 639,429 L 638,429 L 637,429 L 637,430 L 636,430 L 635,429 L 636,429 L 636,428 L 635,427 L 634,427 L 634,426 L 634,425 L 633,425 L 633,424 L 633,423 L 633,422 L 632,422 L 631,422 L 630,422 L 629,421 L 628,421 L 627,422 L 626,423 L 626,424 L 625,425 L 625,426 L 624,426 L 623,426 L 622,426 L 621,425 L 620,424 L 620,423 L 620,422 L 621,421 L 622,421 L 622,420 L 622,419 L 621,419 L 621,418 L 621,417 L 620,417 L 619,417 L 618,417 L 617,416 L 617,415 L 616,415 L 616,414 L 616,413 L 615,413 L 614,413 L 614,414 L 614,415 L 615,416 L 615,417 L 615,418 L 614,418 L 613,418 L 612,418 L 612,417 L 611,417 L 610,417 L 609,416 L 609,415 L 608,415 L 607,415 L 606,414 L 605,413 L 604,412 L 603,412 L 604,411 L 605,410 L 606,410 L 606,409 L 607,409 L 607,408 L 608,408 L 608,407 L 607,407 L 607,406 L 607,405 L 606,404 L 606,403 L 607,403 L 608,403 L 608,404 L 609,404 L 609,403 L 610,403 L 610,402 L 610,401 L 609,402 L 608,402 L 608,401 L 608,400 L 607,400 L 607,399 L 608,398 L 609,398 L 610,397 L 611,397 L 612,397 L 613,396 L 614,396 L 614,395 L 615,395 L 615,394 L 615,393 L 615,392 L 614,392 L 614,393 L 613,393 L 612,394 L 611,394 L 611,393 L 610,393 L 610,394 L 610,395 L 609,395 L 609,394 L 608,394 L 607,395 L 607,394 L 606,394 L 605,394 L 605,393 L 606,392 L 606,391 L 607,390 L 607,389 L 607,388 L 606,387 L 606,388 L 605,388 L 605,387 L 604,387 L 603,386 L 602,386 L 602,387 L 601,387 L 600,387 L 599,387 L 599,386 L 600,385 L 600,384 L 601,383 L 602,383 L 602,382 L 603,382 L 602,381 L 601,381 L 600,381 L 599,380 L 597,379 L 596,379 L 595,379 L 594,379 L 593,379 L 593,380 L 593,381 L 592,380 L 590,379 L 589,378 L 590,378 L 591,378 L 592,378 L 593,377 L 592,377 L 592,376 L 591,376 L 591,375 L 592,375 L 592,374 L 591,373 L 590,373 L 589,373 L 588,373 L 587,372 L 586,371 L 585,371 L 585,372 L 585,373 L 585,374 L 584,374 L 584,373 L 584,372 L 585,371 L 585,369 L 586,368 L 586,367 L 586,366 L 587,365 L 587,363 L 588,362 L 588,363 L 588,364 L 588,365 L 589,365 L 590,365 L 590,364 L 590,363 L 591,363 L 591,361 L 591,360 L 591,359 L 590,359 L 589,359 L 588,359 L 589,358 L 589,357 L 590,356 L 591,355 L 592,355 L 592,356 L 593,356 L 594,355 L 595,355 L 597,355 L 598,355 L 599,355 L 600,355 L 601,355 L 602,355 L 603,354 L 605,354 L 607,354 L 609,354 L 610,353 L 610,352 L 610,351 L 609,350 L 609,349 L 609,348 L 609,347 L 609,346 L 608,346 L 608,345 L 608,344 L 607,344 L 608,343 L 608,342 L 609,342 L 609,341 L 610,341 L 610,340 L 611,340 L 611,339 L 610,339 L 609,338 L 607,337 L 606,336 L 606,335 L 606,334 L 606,333 L 606,332 L 605,331 L 604,330 L 603,330 L 603,329 L 602,329 L 601,328 L 600,328 L 600,327 L 600,326 L 600,325 L 600,324 L 599,324 L 599,323 L 599,322 L 598,322 L 598,321 L 599,320 L 599,319 L 600,318 L 600,317 L 600,316 L 601,316 L 602,317 L 603,317 L 603,316 L 604,316 L 604,317 L 605,317 L 606,317 L 606,316 L 606,315 L 606,314 L 606,313 L 607,313 L 608,312 L 609,313 L 610,313 L 610,314 L 611,315 L 612,316 L 613,316 L 613,317 L 614,317 L 614,316 L 615,316 L 616,315 L 617,315 L 618,315 L 619,316 L 620,316 L 621,315 L 621,314 L 622,313 L 622,312 L 622,311 L 623,310 L 624,310 L 624,311 L 625,311 L 626,311 L 626,312 L 626,313 L 627,314 L 627,315 L 628,315 L 628,316 L 629,316 " />
</g>
<g id="178" class="st0 dist-block" inkscape:label="Komna">
<path d="M 480,163 L 479,163 L 479,162 L 480,162 L 480,163 " />
<path d="M 608,146 L 609,146 L 610,146 L 611,147 L 612,148 L 612,149 L 613,149 L 614,149 L 615,149 L 616,149 L 616,148 L 617,148 L 618,148 L 618,149 L 619,149 L 619,150 L 619,151 L 619,152 L 620,152 L 620,153 L 620,154 L 620,155 L 620,156 L 620,157 L 619,157 L 618,157 L 618,158 L 617,159 L 617,160 L 616,160 L 616,161 L 615,161 L 615,162 L 615,163 L 615,164 L 615,165 L 615,166 L 616,166 L 617,166 L 618,166 L 618,167 L 619,167 L 620,167 L 621,167 L 620,167 L 620,168 L 620,169 L 620,170 L 620,171 L 620,172 L 620,173 L 619,174 L 619,175 L 618,175 L 618,176 L 618,177 L 618,178 L 618,179 L 618,180 L 618,181 L 618,182 L 618,183 L 618,184 L 618,185 L 618,186 L 617,186 L 617,187 L 618,187 L 619,187 L 620,187 L 621,187 L 622,187 L 623,187 L 623,188 L 624,188 L 625,188 L 626,189 L 627,189 L 628,189 L 628,190 L 628,191 L 629,192 L 630,193 L 630,194 L 630,195 L 630,196 L 630,197 L 630,198 L 629,198 L 630,198 L 630,199 L 631,199 L 632,199 L 632,200 L 632,201 L 632,202 L 632,203 L 631,203 L 631,204 L 631,206 L 631,207 L 632,208 L 633,208 L 634,208 L 635,208 L 635,209 L 636,209 L 636,210 L 636,211 L 636,212 L 636,213 L 635,213 L 635,214 L 635,215 L 634,215 L 634,216 L 634,217 L 633,218 L 633,219 L 632,219 L 632,220 L 631,221 L 632,222 L 631,223 L 631,224 L 631,225 L 630,225 L 630,226 L 630,227 L 630,228 L 631,229 L 630,229 L 630,230 L 629,230 L 628,231 L 628,232 L 627,232 L 626,232 L 626,233 L 625,233 L 625,234 L 624,235 L 623,235 L 623,236 L 623,237 L 623,238 L 623,239 L 623,240 L 623,241 L 623,242 L 622,242 L 622,243 L 622,244 L 622,245 L 622,246 L 622,247 L 621,247 L 621,248 L 620,249 L 620,250 L 620,251 L 620,252 L 621,253 L 622,253 L 622,254 L 622,255 L 622,256 L 621,256 L 621,257 L 621,258 L 621,259 L 621,260 L 620,261 L 620,262 L 620,263 L 620,264 L 619,264 L 619,265 L 618,265 L 618,266 L 618,267 L 618,268 L 618,269 L 617,270 L 617,271 L 617,272 L 616,273 L 615,274 L 614,274 L 614,275 L 613,275 L 612,276 L 613,277 L 613,278 L 613,279 L 613,280 L 612,280 L 612,281 L 611,282 L 611,283 L 611,284 L 611,285 L 611,286 L 612,286 L 612,285 L 613,285 L 614,285 L 614,286 L 615,286 L 616,287 L 616,288 L 617,289 L 617,290 L 617,291 L 617,292 L 616,293 L 616,294 L 615,294 L 615,295 L 615,296 L 615,297 L 616,297 L 616,298 L 617,298 L 618,298 L 618,299 L 619,299 L 619,300 L 619,301 L 620,301 L 620,302 L 621,302 L 621,303 L 621,304 L 621,305 L 622,305 L 622,306 L 622,307 L 622,308 L 623,309 L 623,310 L 622,311 L 622,312 L 622,313 L 621,314 L 621,315 L 620,316 L 619,316 L 618,315 L 617,315 L 616,315 L 615,316 L 614,316 L 614,317 L 613,317 L 613,316 L 612,316 L 611,315 L 610,314 L 610,313 L 609,313 L 608,312 L 607,313 L 606,313 L 606,314 L 606,315 L 606,316 L 606,317 L 605,317 L 604,317 L 604,316 L 603,316 L 603,317 L 602,317 L 601,316 L 600,316 L 600,315 L 600,314 L 599,314 L 599,313 L 598,313 L 598,312 L 597,311 L 596,311 L 596,310 L 595,309 L 595,308 L 594,307 L 593,306 L 592,306 L 591,305 L 591,304 L 591,303 L 590,302 L 590,301 L 589,300 L 589,299 L 590,299 L 591,299 L 591,298 L 592,298 L 591,298 L 591,297 L 590,297 L 590,296 L 589,296 L 589,295 L 588,295 L 587,294 L 586,294 L 586,293 L 585,293 L 583,293 L 582,293 L 581,293 L 580,292 L 579,292 L 578,292 L 577,292 L 577,291 L 577,290 L 576,289 L 575,289 L 574,289 L 573,289 L 573,290 L 572,290 L 571,290 L 571,291 L 570,291 L 570,292 L 569,292 L 569,293 L 568,293 L 567,293 L 567,294 L 566,294 L 566,295 L 565,295 L 565,294 L 565,293 L 566,292 L 566,291 L 567,290 L 567,289 L 568,288 L 567,288 L 567,287 L 566,286 L 566,285 L 566,284 L 565,284 L 565,285 L 564,285 L 563,285 L 562,285 L 561,285 L 560,285 L 560,286 L 560,287 L 559,288 L 559,289 L 559,290 L 558,290 L 559,290 L 560,291 L 559,292 L 560,293 L 560,294 L 559,294 L 559,295 L 560,295 L 560,296 L 560,297 L 559,298 L 559,299 L 559,300 L 558,301 L 558,302 L 557,304 L 556,305 L 555,307 L 554,309 L 554,311 L 553,311 L 553,313 L 552,314 L 551,316 L 551,318 L 551,319 L 551,320 L 550,320 L 544,316 L 539,314 L 535,311 L 534,311 L 533,311 L 531,310 L 528,308 L 526,307 L 524,306 L 522,305 L 521,305 L 519,304 L 518,303 L 517,302 L 515,302 L 514,301 L 512,300 L 511,300 L 509,299 L 509,298 L 509,297 L 508,297 L 508,296 L 508,295 L 508,294 L 508,293 L 509,293 L 509,292 L 510,292 L 511,292 L 511,291 L 511,290 L 511,289 L 510,288 L 510,286 L 509,286 L 507,286 L 506,286 L 507,284 L 507,282 L 507,279 L 507,278 L 507,277 L 507,276 L 506,275 L 506,274 L 506,273 L 505,273 L 504,272 L 504,271 L 503,271 L 503,272 L 502,272 L 502,273 L 501,273 L 502,274 L 501,274 L 501,275 L 500,275 L 500,276 L 499,277 L 499,278 L 499,279 L 498,279 L 498,280 L 497,280 L 497,279 L 496,279 L 496,280 L 496,279 L 495,279 L 495,280 L 494,280 L 494,279 L 494,278 L 495,278 L 495,277 L 495,276 L 495,275 L 495,274 L 495,273 L 495,272 L 494,272 L 493,272 L 493,271 L 494,270 L 493,270 L 493,269 L 493,268 L 492,268 L 492,267 L 493,267 L 493,266 L 492,266 L 492,265 L 492,264 L 492,263 L 492,262 L 492,261 L 492,260 L 492,259 L 492,258 L 492,257 L 492,256 L 493,255 L 492,255 L 492,254 L 491,254 L 490,254 L 489,254 L 489,253 L 488,253 L 487,253 L 487,252 L 486,252 L 485,252 L 484,252 L 483,251 L 482,251 L 481,251 L 481,250 L 480,250 L 479,249 L 479,248 L 478,247 L 478,246 L 478,245 L 477,245 L 477,244 L 477,243 L 476,243 L 476,242 L 475,242 L 475,241 L 474,241 L 474,240 L 473,240 L 473,239 L 472,239 L 471,238 L 471,237 L 471,236 L 470,236 L 470,235 L 470,234 L 471,234 L 471,233 L 470,233 L 470,232 L 471,232 L 472,232 L 473,232 L 474,232 L 474,231 L 475,231 L 475,230 L 476,230 L 476,229 L 477,228 L 477,227 L 477,226 L 477,225 L 476,225 L 476,224 L 476,223 L 475,223 L 475,222 L 475,221 L 476,221 L 476,220 L 475,220 L 475,219 L 476,219 L 476,218 L 477,218 L 478,218 L 479,217 L 479,216 L 480,215 L 481,215 L 482,215 L 483,215 L 483,214 L 483,213 L 484,213 L 484,212 L 484,211 L 484,210 L 485,209 L 485,208 L 486,208 L 487,208 L 487,207 L 488,207 L 488,206 L 489,206 L 489,205 L 488,205 L 488,204 L 488,203 L 488,202 L 487,201 L 487,200 L 486,199 L 486,198 L 486,197 L 486,196 L 486,195 L 486,194 L 486,193 L 487,192 L 487,191 L 488,191 L 488,190 L 489,190 L 489,191 L 490,191 L 491,191 L 492,191 L 493,191 L 494,191 L 495,191 L 496,191 L 498,191 L 499,191 L 500,192 L 501,192 L 502,192 L 502,193 L 502,194 L 501,194 L 501,195 L 501,196 L 501,197 L 502,197 L 503,198 L 503,199 L 503,200 L 503,201 L 504,201 L 504,202 L 505,202 L 506,202 L 507,202 L 507,201 L 508,201 L 509,201 L 510,201 L 511,200 L 512,200 L 513,199 L 513,198 L 513,197 L 514,196 L 514,195 L 514,194 L 514,193 L 514,192 L 515,192 L 516,192 L 517,192 L 517,191 L 518,191 L 520,190 L 521,189 L 522,189 L 522,188 L 523,188 L 524,187 L 525,187 L 526,186 L 528,185 L 530,184 L 531,184 L 532,183 L 533,183 L 534,182 L 536,181 L 537,181 L 538,180 L 539,180 L 541,179 L 542,179 L 542,180 L 542,181 L 542,182 L 542,183 L 542,184 L 542,186 L 542,187 L 542,188 L 542,189 L 542,190 L 543,190 L 543,191 L 542,191 L 541,192 L 542,192 L 543,192 L 543,193 L 542,193 L 542,194 L 542,195 L 542,196 L 543,196 L 543,197 L 543,198 L 544,198 L 545,198 L 546,198 L 546,197 L 547,196 L 547,195 L 547,194 L 547,193 L 547,192 L 547,191 L 546,191 L 545,190 L 545,189 L 545,188 L 545,187 L 546,186 L 546,184 L 546,183 L 546,182 L 547,181 L 548,181 L 548,180 L 549,179 L 549,178 L 549,177 L 550,176 L 551,176 L 552,176 L 553,176 L 554,176 L 555,176 L 556,176 L 556,177 L 557,177 L 558,178 L 558,177 L 558,176 L 559,176 L 560,175 L 561,175 L 561,174 L 562,173 L 563,173 L 563,172 L 564,171 L 565,170 L 565,169 L 566,169 L 566,168 L 566,167 L 566,166 L 566,165 L 565,164 L 565,163 L 566,163 L 567,163 L 567,162 L 568,162 L 568,161 L 567,160 L 568,159 L 568,158 L 568,157 L 569,157 L 570,157 L 570,158 L 571,157 L 572,157 L 572,156 L 573,156 L 573,155 L 573,154 L 572,154 L 572,155 L 571,155 L 571,154 L 572,154 L 571,153 L 572,152 L 572,151 L 571,150 L 571,149 L 572,149 L 572,150 L 573,150 L 573,149 L 574,149 L 574,150 L 573,150 L 573,151 L 574,152 L 575,152 L 576,151 L 575,151 L 575,150 L 576,150 L 576,151 L 577,151 L 578,151 L 579,151 L 580,151 L 581,151 L 582,151 L 582,150 L 583,150 L 584,150 L 585,150 L 586,149 L 587,148 L 588,148 L 588,147 L 589,147 L 590,147 L 590,148 L 591,149 L 592,150 L 593,150 L 593,151 L 594,151 L 595,150 L 596,150 L 597,150 L 599,150 L 600,151 L 601,151 L 602,151 L 603,151 L 604,151 L 605,151 L 606,150 L 606,149 L 606,148 L 607,147 L 607,146 L 608,146 " />
<path d="M 539,202 L 540,202 L 541,202 L 541,201 L 540,201 L 539,201 L 539,202 " />
</g>
<g id="231" class="st0 dist-block" inkscape:label="Nuapada">
<path d="M 541,202 L 540,202 L 539,202 L 539,201 L 540,201 L 541,201 L 541,202 " />
<path d="M 599,12 L 600,12 L 600,13 L 600,12 L 601,12 L 601,13 L 601,14 L 602,15 L 603,15 L 603,16 L 604,16 L 605,16 L 605,17 L 606,17 L 607,17 L 608,18 L 609,18 L 609,19 L 610,19 L 610,20 L 611,20 L 611,21 L 611,22 L 612,22 L 612,23 L 612,24 L 613,24 L 613,25 L 613,26 L 614,27 L 614,28 L 615,29 L 615,30 L 615,31 L 615,32 L 616,32 L 616,33 L 616,34 L 616,35 L 616,36 L 617,36 L 617,37 L 618,37 L 618,38 L 618,39 L 619,39 L 619,40 L 620,40 L 620,41 L 621,41 L 621,42 L 620,42 L 620,43 L 620,44 L 620,45 L 620,46 L 620,47 L 620,48 L 619,48 L 619,49 L 619,50 L 619,51 L 619,52 L 619,53 L 619,54 L 619,55 L 619,56 L 619,57 L 619,58 L 618,59 L 618,60 L 618,61 L 618,62 L 618,63 L 618,64 L 619,64 L 619,65 L 619,66 L 620,67 L 620,68 L 621,69 L 621,70 L 621,71 L 622,72 L 622,73 L 622,74 L 622,75 L 622,76 L 622,77 L 622,78 L 623,78 L 622,79 L 622,80 L 622,81 L 621,81 L 621,82 L 621,83 L 621,84 L 621,85 L 621,86 L 621,87 L 620,87 L 621,87 L 621,88 L 621,89 L 621,90 L 621,91 L 620,92 L 620,93 L 620,95 L 619,95 L 619,96 L 618,96 L 618,97 L 617,98 L 616,98 L 616,99 L 615,99 L 615,100 L 615,101 L 615,102 L 615,103 L 615,104 L 615,105 L 616,105 L 616,106 L 615,106 L 615,107 L 616,107 L 616,108 L 616,109 L 617,109 L 617,110 L 617,111 L 617,112 L 617,113 L 616,114 L 616,115 L 616,116 L 616,117 L 616,118 L 617,119 L 617,120 L 617,121 L 617,122 L 617,123 L 617,124 L 616,124 L 616,125 L 616,126 L 615,126 L 616,126 L 615,127 L 615,128 L 615,129 L 615,130 L 615,131 L 615,132 L 615,133 L 615,134 L 616,134 L 616,135 L 617,135 L 617,136 L 617,137 L 617,138 L 617,139 L 617,140 L 617,141 L 617,142 L 617,143 L 617,144 L 617,145 L 617,146 L 617,147 L 617,148 L 618,148 L 617,148 L 616,148 L 616,149 L 615,149 L 614,149 L 613,149 L 612,149 L 612,148 L 611,147 L 610,146 L 609,146 L 608,146 L 607,146 L 607,147 L 606,148 L 606,149 L 606,150 L 605,151 L 604,151 L 603,151 L 602,151 L 601,151 L 600,151 L 599,150 L 597,150 L 596,150 L 595,150 L 594,151 L 593,151 L 593,150 L 592,150 L 591,149 L 590,148 L 590,147 L 589,147 L 588,147 L 588,148 L 587,148 L 586,149 L 585,150 L 584,150 L 583,150 L 582,150 L 582,151 L 581,151 L 580,151 L 579,151 L 578,151 L 577,151 L 576,151 L 576,150 L 575,150 L 575,151 L 576,151 L 575,152 L 574,152 L 573,151 L 573,150 L 574,150 L 574,149 L 573,149 L 573,150 L 572,150 L 572,149 L 571,149 L 571,150 L 572,151 L 572,152 L 571,153 L 572,154 L 571,154 L 571,155 L 572,155 L 572,154 L 573,154 L 573,155 L 573,156 L 572,156 L 572,157 L 571,157 L 570,158 L 570,157 L 569,157 L 568,157 L 568,158 L 568,159 L 567,160 L 568,161 L 568,162 L 567,162 L 567,163 L 566,163 L 565,163 L 565,164 L 566,165 L 566,166 L 566,167 L 566,168 L 566,169 L 565,169 L 565,170 L 564,171 L 563,172 L 563,173 L 562,173 L 561,174 L 561,175 L 560,175 L 559,176 L 558,176 L 558,177 L 558,178 L 557,177 L 556,177 L 556,176 L 555,176 L 554,176 L 553,176 L 552,176 L 551,176 L 550,176 L 549,177 L 549,178 L 549,179 L 548,180 L 548,181 L 547,181 L 546,182 L 546,183 L 546,184 L 546,186 L 545,187 L 545,188 L 545,189 L 545,190 L 546,191 L 547,191 L 547,192 L 547,193 L 547,194 L 547,195 L 547,196 L 546,197 L 546,198 L 545,198 L 544,198 L 543,198 L 543,197 L 543,196 L 542,196 L 542,195 L 542,194 L 542,193 L 543,193 L 543,192 L 542,192 L 541,192 L 542,191 L 543,191 L 543,190 L 542,190 L 542,189 L 542,188 L 542,187 L 542,186 L 542,184 L 542,183 L 542,182 L 542,181 L 542,180 L 542,179 L 541,179 L 539,180 L 538,180 L 537,181 L 536,181 L 534,182 L 533,183 L 532,183 L 531,184 L 530,184 L 528,185 L 526,186 L 525,187 L 524,187 L 523,188 L 522,188 L 522,189 L 521,189 L 520,190 L 518,191 L 517,191 L 517,192 L 516,192 L 515,192 L 514,192 L 514,193 L 514,194 L 514,195 L 514,196 L 513,197 L 513,198 L 513,199 L 512,200 L 511,200 L 510,201 L 509,201 L 508,201 L 507,201 L 507,202 L 506,202 L 505,202 L 504,202 L 504,201 L 503,201 L 503,200 L 503,199 L 503,198 L 502,197 L 501,197 L 501,196 L 501,195 L 501,194 L 502,194 L 502,193 L 502,192 L 501,192 L 500,192 L 499,191 L 498,191 L 496,191 L 495,191 L 494,191 L 493,191 L 492,191 L 491,191 L 490,191 L 489,191 L 489,190 L 488,190 L 487,189 L 487,188 L 486,186 L 486,185 L 485,184 L 484,184 L 483,184 L 483,183 L 483,182 L 482,182 L 482,181 L 482,180 L 481,179 L 481,178 L 480,177 L 480,176 L 480,175 L 480,174 L 479,174 L 479,173 L 479,172 L 479,171 L 479,170 L 479,169 L 480,168 L 481,168 L 481,167 L 479,165 L 479,164 L 478,163 L 478,162 L 479,162 L 480,161 L 481,161 L 481,160 L 480,160 L 480,159 L 480,158 L 480,157 L 479,155 L 479,154 L 479,153 L 478,153 L 478,152 L 478,151 L 477,150 L 477,149 L 477,148 L 476,147 L 477,146 L 477,145 L 477,144 L 477,143 L 477,142 L 477,141 L 477,139 L 478,139 L 478,138 L 478,137 L 478,136 L 478,135 L 479,135 L 479,134 L 479,133 L 478,133 L 478,132 L 477,132 L 477,131 L 477,130 L 478,129 L 477,128 L 477,127 L 477,126 L 477,125 L 477,124 L 477,123 L 476,123 L 476,122 L 477,121 L 477,120 L 477,119 L 477,118 L 477,117 L 477,116 L 477,115 L 477,114 L 477,113 L 477,112 L 477,111 L 478,111 L 478,110 L 479,109 L 479,108 L 479,107 L 479,106 L 479,105 L 479,104 L 479,103 L 479,102 L 479,101 L 480,101 L 480,100 L 480,99 L 480,98 L 481,98 L 481,97 L 481,96 L 481,95 L 482,94 L 482,95 L 483,95 L 484,95 L 485,95 L 486,95 L 487,95 L 486,96 L 486,97 L 486,98 L 485,98 L 485,99 L 485,100 L 485,101 L 486,102 L 487,103 L 488,103 L 489,103 L 490,104 L 491,104 L 492,104 L 493,103 L 494,102 L 495,101 L 496,101 L 497,102 L 498,102 L 499,103 L 500,103 L 501,103 L 502,103 L 503,103 L 503,104 L 503,105 L 504,105 L 504,106 L 504,107 L 504,108 L 504,109 L 505,109 L 505,110 L 506,110 L 506,111 L 506,112 L 506,113 L 505,113 L 505,114 L 505,115 L 506,115 L 506,116 L 507,117 L 508,117 L 508,118 L 508,119 L 508,120 L 509,120 L 510,120 L 511,120 L 512,120 L 513,120 L 514,120 L 514,119 L 515,119 L 515,120 L 515,119 L 516,119 L 517,119 L 518,119 L 518,120 L 518,121 L 519,121 L 520,121 L 521,121 L 521,122 L 522,122 L 523,122 L 524,122 L 524,123 L 525,122 L 526,122 L 527,122 L 527,121 L 528,121 L 528,120 L 528,119 L 528,118 L 527,118 L 527,117 L 527,116 L 528,115 L 529,114 L 530,113 L 531,113 L 532,113 L 533,112 L 534,112 L 535,111 L 535,110 L 535,109 L 536,109 L 536,108 L 536,107 L 536,106 L 536,105 L 536,104 L 537,103 L 537,102 L 537,101 L 538,101 L 538,100 L 538,99 L 538,98 L 538,97 L 538,96 L 538,95 L 538,94 L 538,93 L 537,93 L 537,92 L 537,91 L 537,90 L 537,89 L 537,88 L 537,87 L 538,87 L 539,86 L 540,86 L 541,85 L 542,85 L 542,84 L 543,84 L 544,83 L 545,83 L 546,83 L 547,83 L 548,83 L 549,83 L 549,82 L 550,82 L 550,81 L 551,80 L 551,79 L 552,79 L 552,78 L 553,78 L 553,77 L 554,77 L 555,77 L 556,77 L 557,77 L 558,77 L 559,77 L 560,77 L 561,76 L 562,75 L 563,75 L 564,74 L 565,73 L 566,72 L 567,71 L 567,70 L 568,70 L 568,69 L 568,68 L 569,68 L 569,67 L 569,66 L 570,66 L 570,65 L 570,64 L 571,63 L 571,62 L 572,62 L 572,61 L 573,60 L 574,60 L 574,59 L 575,59 L 575,58 L 576,58 L 576,57 L 577,56 L 577,55 L 577,54 L 578,54 L 578,53 L 579,53 L 580,52 L 580,51 L 581,51 L 582,51 L 582,50 L 583,50 L 583,49 L 584,48 L 585,47 L 586,47 L 586,46 L 587,46 L 588,45 L 588,44 L 589,44 L 589,43 L 589,42 L 589,41 L 589,40 L 590,40 L 591,39 L 591,38 L 592,38 L 592,37 L 593,36 L 594,35 L 595,34 L 596,33 L 596,32 L 595,31 L 595,30 L 594,29 L 594,28 L 593,28 L 592,27 L 591,27 L 591,26 L 591,25 L 591,24 L 591,23 L 590,23 L 590,22 L 589,22 L 589,21 L 589,20 L 589,19 L 589,18 L 589,17 L 590,17 L 590,16 L 591,16 L 592,16 L 593,16 L 594,16 L 595,16 L 596,16 L 597,15 L 598,14 L 598,13 L 598,12 L 599,12 L 599,11 L 600,11 L 600,12 L 599,12 " />
<path d="M 479,163 L 480,163 L 480,162 L 479,162 L 479,163 " />
</g>
<g id="284" class="st0 dist-block" inkscape:label="Sinapali">
<path d="M 529,388 L 530,388 L 531,388 L 531,387 L 532,387 L 532,388 L 533,389 L 533,390 L 534,392 L 535,394 L 536,395 L 537,397 L 539,399 L 540,401 L 543,406 L 544,408 L 545,408 L 545,407 L 546,406 L 548,404 L 549,403 L 550,402 L 550,401 L 551,401 L 551,402 L 551,403 L 551,404 L 551,405 L 552,405 L 552,406 L 553,406 L 554,406 L 556,405 L 557,405 L 558,405 L 559,405 L 560,405 L 561,405 L 562,404 L 563,404 L 564,405 L 565,405 L 567,406 L 568,406 L 569,407 L 569,408 L 570,408 L 570,409 L 570,410 L 570,411 L 571,411 L 572,412 L 572,413 L 572,414 L 571,416 L 570,417 L 570,418 L 570,419 L 571,420 L 571,421 L 571,422 L 571,423 L 572,423 L 573,423 L 575,424 L 576,424 L 576,425 L 576,426 L 576,427 L 576,428 L 575,429 L 575,430 L 576,430 L 578,430 L 579,430 L 580,429 L 580,428 L 581,427 L 581,426 L 582,425 L 583,425 L 584,425 L 585,425 L 587,425 L 588,425 L 589,425 L 590,425 L 590,424 L 591,423 L 592,422 L 592,421 L 592,420 L 593,419 L 593,418 L 594,418 L 595,418 L 595,419 L 595,420 L 596,421 L 596,420 L 597,420 L 598,420 L 598,421 L 599,421 L 600,421 L 600,422 L 601,422 L 602,422 L 602,421 L 602,420 L 601,420 L 601,419 L 602,419 L 602,418 L 602,417 L 601,417 L 601,416 L 602,415 L 602,414 L 602,413 L 603,413 L 603,412 L 604,412 L 605,413 L 606,414 L 607,415 L 608,415 L 609,415 L 609,416 L 610,417 L 611,417 L 612,417 L 612,418 L 613,418 L 614,418 L 615,418 L 615,417 L 615,416 L 614,415 L 614,414 L 614,413 L 615,413 L 616,413 L 616,414 L 616,415 L 617,415 L 617,416 L 618,417 L 619,417 L 620,417 L 621,417 L 621,418 L 621,419 L 622,419 L 622,420 L 622,421 L 621,421 L 620,422 L 620,423 L 620,424 L 621,425 L 622,426 L 623,426 L 624,426 L 625,426 L 625,425 L 626,424 L 626,423 L 627,422 L 628,421 L 629,421 L 630,422 L 631,422 L 632,422 L 633,422 L 633,423 L 633,424 L 633,425 L 634,425 L 634,426 L 634,427 L 635,427 L 636,428 L 636,429 L 635,429 L 636,430 L 637,430 L 637,429 L 638,429 L 639,429 L 639,430 L 640,430 L 641,430 L 641,429 L 642,429 L 643,430 L 643,431 L 644,431 L 644,430 L 644,429 L 645,429 L 646,429 L 647,429 L 647,428 L 648,428 L 649,427 L 649,426 L 649,425 L 650,424 L 650,423 L 651,423 L 652,423 L 653,424 L 653,425 L 653,426 L 653,427 L 654,427 L 655,427 L 655,426 L 655,425 L 655,424 L 656,424 L 656,423 L 657,423 L 657,424 L 658,424 L 659,424 L 659,423 L 659,424 L 658,424 L 658,425 L 657,425 L 657,426 L 657,427 L 657,428 L 658,428 L 659,429 L 660,429 L 661,429 L 661,428 L 662,428 L 662,429 L 662,430 L 662,431 L 662,432 L 662,433 L 662,434 L 661,434 L 661,435 L 661,436 L 660,436 L 660,437 L 660,438 L 659,438 L 659,439 L 658,439 L 657,439 L 656,439 L 656,438 L 655,438 L 654,438 L 653,438 L 652,438 L 651,438 L 651,437 L 650,437 L 649,437 L 649,438 L 648,439 L 648,440 L 647,441 L 647,442 L 646,442 L 646,443 L 646,444 L 645,444 L 645,445 L 644,445 L 644,446 L 643,446 L 642,446 L 642,447 L 641,448 L 641,449 L 640,449 L 640,450 L 639,450 L 639,451 L 639,452 L 638,452 L 638,453 L 637,454 L 637,455 L 636,456 L 636,457 L 635,457 L 635,458 L 635,457 L 634,457 L 633,457 L 633,458 L 632,458 L 630,458 L 629,458 L 629,459 L 630,459 L 630,460 L 631,461 L 632,461 L 632,462 L 632,463 L 632,464 L 632,465 L 632,466 L 631,466 L 631,467 L 631,468 L 631,469 L 631,470 L 630,471 L 629,471 L 629,472 L 628,472 L 627,471 L 626,471 L 625,471 L 624,471 L 624,472 L 623,473 L 623,474 L 622,474 L 622,475 L 622,476 L 621,477 L 620,478 L 619,478 L 619,479 L 619,480 L 619,481 L 619,482 L 618,482 L 617,481 L 616,481 L 615,481 L 614,481 L 613,481 L 612,481 L 611,481 L 610,481 L 610,480 L 609,480 L 608,480 L 607,480 L 606,480 L 605,480 L 604,480 L 603,480 L 602,479 L 602,480 L 601,480 L 600,480 L 599,479 L 598,479 L 597,478 L 595,478 L 594,478 L 593,478 L 592,478 L 591,478 L 590,478 L 589,478 L 589,477 L 588,477 L 587,478 L 586,478 L 585,478 L 584,478 L 584,479 L 584,480 L 583,480 L 582,481 L 582,482 L 581,482 L 580,483 L 579,483 L 578,483 L 577,483 L 576,483 L 575,484 L 574,484 L 573,484 L 573,483 L 572,483 L 571,483 L 570,483 L 569,483 L 569,482 L 568,482 L 567,482 L 567,481 L 567,480 L 566,480 L 566,479 L 565,478 L 565,477 L 564,477 L 563,477 L 562,476 L 561,476 L 559,475 L 559,474 L 558,474 L 557,474 L 557,473 L 556,473 L 555,473 L 554,473 L 554,472 L 553,472 L 552,472 L 552,471 L 551,471 L 550,471 L 549,471 L 548,471 L 547,471 L 546,471 L 545,471 L 545,472 L 544,472 L 543,472 L 543,471 L 541,471 L 540,471 L 539,471 L 538,471 L 537,471 L 535,471 L 535,470 L 534,470 L 533,470 L 532,469 L 531,469 L 530,468 L 529,468 L 528,467 L 527,467 L 526,465 L 525,464 L 523,462 L 522,462 L 521,463 L 520,463 L 519,463 L 518,463 L 518,462 L 518,461 L 517,461 L 516,460 L 515,460 L 514,461 L 513,461 L 512,461 L 511,461 L 511,460 L 510,460 L 509,460 L 508,459 L 507,459 L 506,458 L 505,458 L 505,457 L 504,457 L 503,456 L 502,456 L 501,456 L 500,456 L 499,456 L 499,455 L 498,455 L 497,455 L 496,455 L 495,455 L 494,455 L 493,454 L 492,454 L 491,453 L 490,452 L 490,451 L 490,450 L 490,449 L 490,448 L 489,448 L 489,447 L 490,447 L 490,446 L 490,445 L 491,445 L 491,444 L 491,443 L 492,443 L 492,442 L 492,441 L 492,440 L 491,439 L 491,438 L 492,438 L 492,437 L 492,436 L 492,435 L 492,434 L 491,434 L 491,433 L 491,432 L 491,431 L 491,430 L 491,429 L 491,428 L 491,427 L 491,426 L 491,424 L 491,423 L 490,422 L 490,421 L 490,420 L 490,419 L 490,418 L 489,418 L 489,417 L 488,417 L 488,416 L 487,415 L 487,414 L 487,413 L 488,413 L 488,412 L 489,412 L 490,412 L 490,411 L 490,410 L 490,409 L 489,409 L 489,408 L 489,407 L 488,407 L 488,406 L 489,406 L 489,405 L 490,405 L 490,404 L 491,404 L 491,403 L 492,403 L 493,402 L 494,402 L 495,401 L 494,401 L 494,400 L 495,400 L 496,400 L 496,399 L 497,399 L 498,399 L 498,398 L 498,397 L 498,396 L 499,396 L 498,396 L 498,395 L 499,395 L 499,394 L 499,393 L 499,392 L 499,391 L 500,390 L 501,390 L 501,389 L 501,388 L 502,388 L 502,387 L 501,386 L 502,386 L 502,385 L 502,384 L 502,383 L 504,383 L 505,384 L 506,384 L 507,384 L 509,384 L 510,384 L 511,385 L 512,385 L 513,385 L 514,385 L 515,385 L 516,385 L 516,386 L 517,386 L 518,386 L 519,386 L 520,386 L 521,386 L 522,387 L 523,387 L 525,387 L 526,387 L 526,388 L 527,388 L 528,388 L 529,388 " />
</g>
</g>
</g>
<g id="block_labels" inkscape:groupmode="layer" inkscape:label="block_labels">
<g stroke="none" fill="rgb(0,0,0)">
<text id="block_labels_1" x="556" y="354" class="st4" inkscape:label="Boden_lbl">Boden</text>
<text id="block_labels_2" x="636" y="372" class="st4" inkscape:label="Khariar_lbl">Khariar</text>
<text id="block_labels_3" x="561" y="234" class="st4" inkscape:label="Komna_lbl">Komna</text>
<text id="block_labels_4" x="554" y="120" class="st4" inkscape:label="Nuapada_lbl">Nuapada</text>
<text id="block_labels_5" x="562" y="438" class="st4" inkscape:label="Sinapalli_lbl">Sinapalli</text>
</g>
</g>
<!-- QGIS extent for clipping, eg in Inkscape -->
</svg>