<?xml version="1.0" standalone="no"?>
<!DOCTYPE svg PUBLIC "-//W3C//DTD SVG 1.1//EN" "http://www.w3.org/Graphics/SVG/1.1/DTD/svg11.dtd">
<svg xmlns="http://www.w3.org/2000/svg" xmlns:inkscape="http://www.inkscape.org/namespaces/inkscape" xmlns:xlink="http://www.w3.org/1999/xlink" viewBox = "350 0 550 550" version = "1.1">
		<style type="text/css">
   .st0, .st1, .st2
    {
        stroke: #d0d0d0;
        stroke-miterlimit: 7;
		fill:#fff;
		cursor:pointer;
    }
    .st4
    {
        font-size: 7.0514px;
		fill:#000;
    }
    .st0:hover, .st1:hover, .st2:hover{fill:#32C787;}
</style>

<!-- svg generated using QGIS www.qgis.org -->
<g id="block" inkscape:groupmode="layer" inkscape:label="block">
<g stroke="rgb(0,0,0)" fill="#fff" stroke-linejoin="round" stroke-width="0.56">
<g id="65" class="st0 dist-block" inkscape:label="Bissam_Cuttack">
<path d="M 638,166 L 639,166 L 640,166 L 641,166 L 641,167 L 640,167 L 639,167 L 639,168 L 638,169 L 637,169 L 636,169 L 635,170 L 634,170 L 633,170 L 632,170 L 632,171 L 632,172 L 633,173 L 634,174 L 635,174 L 635,175 L 635,176 L 634,177 L 634,178 L 635,179 L 636,179 L 637,179 L 638,180 L 638,181 L 638,182 L 637,182 L 636,182 L 636,183 L 635,183 L 634,183 L 633,183 L 632,183 L 632,184 L 632,185 L 633,185 L 633,186 L 634,186 L 635,186 L 636,186 L 636,187 L 636,188 L 637,188 L 638,189 L 639,189 L 640,189 L 640,190 L 641,190 L 641,191 L 641,192 L 642,193 L 642,194 L 643,195 L 644,196 L 644,197 L 645,198 L 645,199 L 646,199 L 646,200 L 646,201 L 646,202 L 647,202 L 647,203 L 648,203 L 649,203 L 650,203 L 650,204 L 651,204 L 651,205 L 650,205 L 650,206 L 650,207 L 650,208 L 651,208 L 652,208 L 652,209 L 652,210 L 652,211 L 653,212 L 653,213 L 654,214 L 654,215 L 655,216 L 656,217 L 656,218 L 656,219 L 656,220 L 657,220 L 657,221 L 657,222 L 658,222 L 658,223 L 659,224 L 660,225 L 660,226 L 661,227 L 662,227 L 663,227 L 664,227 L 665,228 L 665,229 L 666,229 L 667,229 L 667,228 L 667,227 L 668,227 L 669,228 L 669,229 L 670,229 L 670,228 L 670,227 L 669,226 L 669,225 L 668,224 L 668,223 L 667,223 L 668,222 L 668,221 L 669,221 L 669,220 L 670,220 L 671,220 L 672,220 L 673,219 L 674,219 L 675,219 L 676,219 L 676,220 L 676,221 L 677,221 L 677,222 L 678,222 L 679,222 L 679,223 L 680,223 L 681,225 L 681,226 L 681,227 L 680,228 L 680,229 L 679,229 L 679,228 L 678,227 L 677,227 L 676,228 L 675,228 L 674,228 L 673,228 L 672,229 L 673,229 L 673,230 L 674,230 L 675,230 L 675,231 L 676,232 L 677,232 L 677,233 L 677,234 L 678,234 L 678,235 L 677,235 L 676,236 L 675,236 L 674,235 L 673,234 L 673,233 L 672,233 L 672,234 L 671,235 L 671,236 L 671,237 L 672,239 L 673,240 L 673,241 L 672,241 L 671,240 L 669,240 L 668,240 L 667,240 L 665,240 L 665,241 L 665,243 L 665,244 L 665,245 L 665,246 L 665,247 L 664,247 L 664,248 L 663,248 L 662,247 L 661,246 L 660,245 L 659,245 L 658,245 L 658,246 L 657,245 L 656,246 L 655,246 L 654,246 L 654,247 L 654,248 L 655,248 L 655,249 L 656,249 L 657,250 L 658,251 L 658,252 L 658,253 L 657,253 L 656,254 L 655,254 L 653,254 L 652,253 L 652,254 L 651,254 L 651,255 L 650,255 L 651,256 L 651,257 L 651,258 L 651,259 L 651,260 L 651,261 L 652,262 L 653,262 L 653,263 L 653,264 L 654,264 L 654,265 L 655,265 L 655,266 L 656,267 L 656,269 L 657,270 L 657,271 L 657,272 L 657,273 L 657,275 L 657,276 L 656,276 L 656,277 L 656,278 L 656,279 L 656,280 L 656,281 L 656,282 L 657,283 L 657,284 L 656,284 L 656,285 L 656,286 L 657,288 L 658,289 L 658,290 L 657,290 L 656,290 L 655,290 L 654,291 L 653,291 L 653,292 L 653,293 L 652,295 L 652,296 L 651,296 L 650,297 L 650,298 L 649,298 L 649,299 L 648,298 L 647,298 L 646,298 L 645,297 L 644,297 L 643,297 L 643,296 L 642,296 L 642,295 L 641,294 L 640,294 L 640,295 L 640,298 L 640,299 L 639,299 L 638,299 L 637,299 L 636,298 L 635,299 L 634,299 L 634,300 L 634,301 L 633,301 L 632,301 L 632,300 L 632,299 L 633,299 L 634,298 L 635,298 L 636,297 L 636,296 L 635,296 L 634,296 L 634,295 L 634,294 L 633,294 L 633,293 L 632,293 L 631,293 L 631,292 L 630,292 L 629,292 L 628,292 L 628,293 L 628,294 L 628,295 L 629,295 L 629,296 L 628,297 L 627,298 L 626,298 L 625,299 L 624,300 L 624,299 L 623,299 L 622,299 L 621,299 L 621,300 L 621,301 L 620,300 L 619,300 L 618,301 L 618,302 L 617,301 L 615,300 L 614,300 L 613,300 L 612,300 L 611,300 L 610,300 L 609,300 L 609,301 L 608,301 L 607,301 L 606,301 L 605,302 L 604,302 L 604,303 L 604,304 L 603,305 L 603,306 L 602,307 L 602,308 L 602,309 L 601,310 L 600,309 L 599,309 L 597,309 L 597,308 L 596,308 L 596,307 L 597,307 L 597,306 L 598,306 L 598,305 L 598,304 L 598,303 L 596,301 L 595,300 L 595,301 L 594,301 L 594,302 L 594,303 L 594,304 L 593,304 L 592,303 L 591,303 L 590,303 L 590,302 L 590,301 L 591,301 L 591,300 L 592,300 L 592,299 L 591,298 L 590,298 L 590,299 L 589,299 L 588,299 L 587,300 L 587,301 L 586,301 L 585,301 L 584,301 L 583,300 L 582,299 L 581,299 L 580,299 L 580,300 L 579,300 L 578,300 L 577,300 L 577,301 L 576,300 L 575,300 L 575,299 L 574,299 L 574,298 L 575,297 L 576,297 L 576,298 L 576,297 L 576,296 L 576,295 L 577,295 L 577,296 L 578,295 L 578,294 L 578,293 L 579,293 L 580,292 L 581,291 L 581,292 L 582,292 L 583,292 L 584,292 L 584,293 L 584,294 L 585,295 L 586,295 L 587,296 L 588,296 L 589,296 L 590,296 L 591,295 L 592,294 L 592,293 L 592,292 L 592,291 L 591,290 L 590,289 L 589,289 L 588,289 L 587,290 L 586,290 L 585,290 L 585,289 L 584,289 L 584,288 L 582,286 L 582,285 L 582,282 L 581,282 L 581,281 L 582,281 L 582,280 L 583,280 L 584,279 L 585,278 L 585,277 L 585,276 L 585,275 L 585,274 L 584,274 L 583,274 L 582,274 L 582,275 L 581,275 L 581,274 L 581,273 L 580,273 L 579,273 L 578,273 L 578,274 L 578,275 L 577,275 L 577,276 L 577,277 L 576,278 L 576,279 L 575,280 L 574,281 L 573,281 L 573,282 L 572,282 L 572,281 L 573,281 L 573,280 L 573,279 L 573,278 L 572,278 L 572,277 L 571,277 L 571,276 L 570,276 L 569,275 L 568,274 L 567,273 L 567,272 L 567,271 L 567,270 L 568,270 L 568,269 L 569,268 L 569,267 L 569,266 L 569,265 L 569,264 L 569,263 L 568,262 L 568,261 L 568,260 L 568,259 L 568,258 L 568,257 L 568,256 L 569,255 L 569,254 L 570,254 L 570,253 L 570,252 L 570,251 L 571,251 L 571,250 L 571,249 L 570,249 L 571,248 L 571,247 L 571,246 L 570,246 L 570,245 L 569,245 L 569,244 L 568,244 L 569,243 L 569,242 L 569,241 L 569,240 L 568,240 L 568,239 L 568,238 L 568,237 L 569,236 L 569,235 L 570,235 L 570,234 L 569,234 L 568,234 L 568,233 L 567,232 L 567,231 L 566,231 L 566,230 L 566,229 L 566,228 L 565,229 L 564,229 L 563,229 L 562,229 L 561,229 L 561,230 L 560,230 L 560,231 L 559,231 L 558,231 L 557,231 L 556,231 L 555,231 L 555,230 L 555,229 L 554,229 L 554,228 L 555,228 L 555,227 L 555,226 L 555,225 L 554,224 L 554,223 L 554,222 L 553,221 L 553,220 L 554,220 L 554,219 L 554,218 L 554,217 L 553,217 L 554,216 L 555,215 L 555,214 L 556,214 L 556,213 L 556,212 L 556,211 L 557,211 L 557,210 L 556,210 L 556,209 L 557,209 L 557,208 L 557,207 L 557,206 L 556,206 L 557,206 L 557,205 L 557,204 L 557,203 L 556,203 L 557,203 L 557,202 L 557,201 L 557,200 L 557,199 L 557,198 L 556,198 L 556,197 L 557,197 L 558,197 L 559,197 L 560,197 L 561,197 L 562,197 L 562,196 L 563,195 L 563,194 L 563,193 L 563,192 L 563,191 L 563,190 L 563,189 L 564,188 L 565,188 L 566,187 L 567,187 L 568,187 L 569,187 L 569,188 L 570,188 L 571,188 L 572,188 L 572,187 L 573,187 L 574,187 L 575,187 L 576,187 L 577,186 L 578,186 L 579,186 L 579,185 L 579,184 L 580,184 L 580,183 L 581,183 L 582,182 L 583,182 L 583,181 L 584,180 L 584,179 L 584,178 L 585,178 L 586,178 L 587,178 L 587,177 L 588,177 L 588,178 L 589,178 L 589,179 L 590,179 L 590,180 L 591,180 L 592,180 L 593,180 L 594,180 L 594,181 L 595,181 L 596,180 L 597,179 L 597,178 L 598,177 L 597,177 L 597,176 L 596,176 L 595,176 L 595,175 L 594,175 L 593,174 L 593,173 L 593,172 L 593,171 L 593,170 L 594,170 L 595,170 L 595,171 L 595,172 L 596,172 L 597,172 L 598,172 L 598,173 L 599,173 L 600,174 L 601,174 L 601,175 L 602,175 L 602,174 L 603,173 L 603,172 L 603,171 L 604,170 L 604,168 L 605,167 L 605,166 L 606,167 L 607,167 L 608,168 L 609,168 L 610,169 L 610,168 L 611,168 L 612,168 L 613,168 L 614,168 L 615,169 L 616,169 L 617,169 L 618,169 L 618,170 L 619,170 L 620,170 L 620,171 L 621,171 L 622,172 L 622,173 L 622,174 L 621,174 L 621,175 L 620,176 L 619,176 L 619,177 L 619,178 L 619,179 L 620,178 L 621,178 L 621,179 L 621,180 L 622,180 L 623,180 L 624,180 L 625,180 L 625,179 L 624,178 L 624,177 L 624,176 L 625,176 L 625,175 L 626,174 L 626,173 L 626,172 L 627,172 L 627,171 L 627,170 L 627,169 L 627,168 L 628,167 L 629,166 L 629,165 L 630,164 L 631,163 L 632,163 L 633,164 L 634,165 L 635,165 L 636,165 L 637,166 L 638,166 " />
<path d="M 588,183 L 587,183 L 586,184 L 586,185 L 587,185 L 587,186 L 588,186 L 589,186 L 590,186 L 590,185 L 591,184 L 590,184 L 590,183 L 590,182 L 589,182 L 589,183 L 588,183 " />
</g>
<g id="79" class="st0 dist-block" inkscape:label="Chandrapur">
<path d="M 733,127 L 733,128 L 733,129 L 734,129 L 734,130 L 735,130 L 736,130 L 737,130 L 738,131 L 739,131 L 739,132 L 740,132 L 740,131 L 741,131 L 741,130 L 742,131 L 743,131 L 744,131 L 744,132 L 744,133 L 744,134 L 743,134 L 744,135 L 745,135 L 746,135 L 746,136 L 747,136 L 747,137 L 746,138 L 747,139 L 747,140 L 748,141 L 748,142 L 749,143 L 750,143 L 750,144 L 751,144 L 752,144 L 752,145 L 753,145 L 753,146 L 754,146 L 754,147 L 755,147 L 755,148 L 756,148 L 757,148 L 758,148 L 759,148 L 760,148 L 761,148 L 762,148 L 763,148 L 764,148 L 765,148 L 766,148 L 767,148 L 768,148 L 769,148 L 770,148 L 771,148 L 771,147 L 772,146 L 773,146 L 773,145 L 774,145 L 775,145 L 775,146 L 776,146 L 776,147 L 777,147 L 778,147 L 778,146 L 778,145 L 779,145 L 779,146 L 780,146 L 780,147 L 781,147 L 781,148 L 782,149 L 781,150 L 779,151 L 778,151 L 777,152 L 778,153 L 779,153 L 779,154 L 780,154 L 781,155 L 782,155 L 782,156 L 782,157 L 782,158 L 782,159 L 782,160 L 783,161 L 783,162 L 784,163 L 784,164 L 784,165 L 783,165 L 782,165 L 781,165 L 781,166 L 780,167 L 779,167 L 778,167 L 777,168 L 777,169 L 778,170 L 778,171 L 778,172 L 778,173 L 778,174 L 779,175 L 779,176 L 779,178 L 779,179 L 780,180 L 780,181 L 780,182 L 780,183 L 781,183 L 781,184 L 781,185 L 781,186 L 781,187 L 781,188 L 780,189 L 780,190 L 780,191 L 780,192 L 780,193 L 781,194 L 782,195 L 782,196 L 783,196 L 783,197 L 783,198 L 783,199 L 783,200 L 783,201 L 783,202 L 784,202 L 784,203 L 785,204 L 786,204 L 787,204 L 788,204 L 789,204 L 790,204 L 791,204 L 792,205 L 793,205 L 793,206 L 794,206 L 795,206 L 796,206 L 796,207 L 797,208 L 797,209 L 797,210 L 798,210 L 798,211 L 799,211 L 799,212 L 798,212 L 797,213 L 796,213 L 796,214 L 795,215 L 795,216 L 794,218 L 794,219 L 793,220 L 792,221 L 791,221 L 791,222 L 790,223 L 790,224 L 791,224 L 792,225 L 793,226 L 793,227 L 794,227 L 795,228 L 796,229 L 797,229 L 798,230 L 798,231 L 797,233 L 796,233 L 796,234 L 796,235 L 796,236 L 795,237 L 794,238 L 794,239 L 795,239 L 795,240 L 795,242 L 794,243 L 793,243 L 792,245 L 791,246 L 792,247 L 792,248 L 791,249 L 790,249 L 789,250 L 789,251 L 788,251 L 788,252 L 788,253 L 787,253 L 787,254 L 786,255 L 785,256 L 785,257 L 785,258 L 784,259 L 783,260 L 783,261 L 784,262 L 784,263 L 783,262 L 782,262 L 782,263 L 781,264 L 780,264 L 780,263 L 779,263 L 779,262 L 779,261 L 778,261 L 778,260 L 777,260 L 776,260 L 776,261 L 776,262 L 775,262 L 774,262 L 774,261 L 773,261 L 772,261 L 772,260 L 771,260 L 771,259 L 770,259 L 769,259 L 769,258 L 768,258 L 768,257 L 767,257 L 767,256 L 767,255 L 767,254 L 766,253 L 766,252 L 765,252 L 765,251 L 764,251 L 764,250 L 763,250 L 763,249 L 762,249 L 761,249 L 760,249 L 759,249 L 759,248 L 759,247 L 758,247 L 758,246 L 757,246 L 757,247 L 757,246 L 757,245 L 758,245 L 757,245 L 757,244 L 756,244 L 755,244 L 754,244 L 753,244 L 752,243 L 751,243 L 750,243 L 749,243 L 748,243 L 748,242 L 747,242 L 747,241 L 746,241 L 746,240 L 747,239 L 747,238 L 747,237 L 747,236 L 747,235 L 748,235 L 747,234 L 746,233 L 746,232 L 746,231 L 746,230 L 745,229 L 745,228 L 744,228 L 744,227 L 743,227 L 743,228 L 742,228 L 742,229 L 741,229 L 740,228 L 739,228 L 739,227 L 738,227 L 737,227 L 737,226 L 736,226 L 736,227 L 735,228 L 735,227 L 734,227 L 734,228 L 733,228 L 732,228 L 731,228 L 730,228 L 729,229 L 729,230 L 728,229 L 727,229 L 727,228 L 726,227 L 725,226 L 724,226 L 723,227 L 722,228 L 722,229 L 721,229 L 720,229 L 720,230 L 720,231 L 721,231 L 721,232 L 722,233 L 722,234 L 721,234 L 720,235 L 719,235 L 718,236 L 717,236 L 716,236 L 715,235 L 714,235 L 714,236 L 713,236 L 712,236 L 711,235 L 710,234 L 710,233 L 709,232 L 708,232 L 707,232 L 706,232 L 705,232 L 705,233 L 704,233 L 704,234 L 703,234 L 703,235 L 702,235 L 701,235 L 700,236 L 699,236 L 698,235 L 697,235 L 696,234 L 695,234 L 694,234 L 693,234 L 692,234 L 692,233 L 691,232 L 691,231 L 690,231 L 690,230 L 691,229 L 691,228 L 690,228 L 690,227 L 689,226 L 689,225 L 690,225 L 690,224 L 690,223 L 690,222 L 689,222 L 688,221 L 687,221 L 686,221 L 685,221 L 684,221 L 683,221 L 682,221 L 682,220 L 681,220 L 680,220 L 679,220 L 679,221 L 679,222 L 678,222 L 677,222 L 677,221 L 676,221 L 676,220 L 676,219 L 675,219 L 674,219 L 673,219 L 672,220 L 671,220 L 670,220 L 669,220 L 669,221 L 668,221 L 668,222 L 667,223 L 668,223 L 668,224 L 669,225 L 669,226 L 670,227 L 670,228 L 670,229 L 669,229 L 669,228 L 668,227 L 667,227 L 667,228 L 667,229 L 666,229 L 665,229 L 665,228 L 664,227 L 663,227 L 662,227 L 661,227 L 660,226 L 660,225 L 659,224 L 658,223 L 658,222 L 657,222 L 657,221 L 657,220 L 656,220 L 656,219 L 656,218 L 656,217 L 655,216 L 654,215 L 654,214 L 653,213 L 653,212 L 652,211 L 652,210 L 652,209 L 652,208 L 651,208 L 650,208 L 650,207 L 650,206 L 650,205 L 651,205 L 651,204 L 650,204 L 650,203 L 649,203 L 648,203 L 647,203 L 647,202 L 646,202 L 646,201 L 646,200 L 646,199 L 645,199 L 645,198 L 644,197 L 644,196 L 643,195 L 642,194 L 642,193 L 641,192 L 641,191 L 641,190 L 640,190 L 640,189 L 639,189 L 638,189 L 637,188 L 636,188 L 636,187 L 636,186 L 635,186 L 634,186 L 633,186 L 633,185 L 632,185 L 632,184 L 632,183 L 633,183 L 634,183 L 635,183 L 636,183 L 636,182 L 637,182 L 638,182 L 638,181 L 638,180 L 637,179 L 636,179 L 635,179 L 634,178 L 634,177 L 635,176 L 635,175 L 635,174 L 634,174 L 633,173 L 632,172 L 632,171 L 632,170 L 633,170 L 634,170 L 635,170 L 636,169 L 637,169 L 638,169 L 639,168 L 639,167 L 640,167 L 641,167 L 641,166 L 640,166 L 639,166 L 638,166 L 637,166 L 636,165 L 635,165 L 634,165 L 634,164 L 635,164 L 636,163 L 636,162 L 637,161 L 638,161 L 639,161 L 640,162 L 640,164 L 641,165 L 641,166 L 641,167 L 642,167 L 643,167 L 644,167 L 645,167 L 646,167 L 647,167 L 648,167 L 648,166 L 648,165 L 648,164 L 649,164 L 648,164 L 647,164 L 646,164 L 645,164 L 644,164 L 643,164 L 642,164 L 641,164 L 641,163 L 643,163 L 643,162 L 644,161 L 645,160 L 646,160 L 646,159 L 647,159 L 648,159 L 648,158 L 647,157 L 646,156 L 647,156 L 649,156 L 650,156 L 651,156 L 652,157 L 653,157 L 655,158 L 656,158 L 657,159 L 658,159 L 658,158 L 659,158 L 660,157 L 661,157 L 662,157 L 663,156 L 664,155 L 665,154 L 666,154 L 666,153 L 666,152 L 666,151 L 665,151 L 664,153 L 663,153 L 663,154 L 662,154 L 661,153 L 661,152 L 662,153 L 663,152 L 664,151 L 664,150 L 665,150 L 666,150 L 667,150 L 668,150 L 668,149 L 668,148 L 669,148 L 670,147 L 670,146 L 670,145 L 671,144 L 672,143 L 673,143 L 674,142 L 675,142 L 676,141 L 677,141 L 677,140 L 678,140 L 679,139 L 680,139 L 681,138 L 682,138 L 682,139 L 683,139 L 683,140 L 684,140 L 684,141 L 685,141 L 685,142 L 686,142 L 686,143 L 687,143 L 687,144 L 688,144 L 688,145 L 689,146 L 690,146 L 691,147 L 691,146 L 692,146 L 692,147 L 693,147 L 693,148 L 693,149 L 694,150 L 694,151 L 695,152 L 695,153 L 695,154 L 696,154 L 696,155 L 697,155 L 698,155 L 700,155 L 701,155 L 701,154 L 701,153 L 702,153 L 702,152 L 703,152 L 703,151 L 703,150 L 704,150 L 704,149 L 704,148 L 705,148 L 706,148 L 707,148 L 707,147 L 708,146 L 709,146 L 710,145 L 710,144 L 709,144 L 710,144 L 710,143 L 710,142 L 710,141 L 710,140 L 711,140 L 710,139 L 710,138 L 711,138 L 711,137 L 711,136 L 712,135 L 712,134 L 711,134 L 711,133 L 711,132 L 711,131 L 711,130 L 711,129 L 712,128 L 713,128 L 714,128 L 715,128 L 715,129 L 716,129 L 716,130 L 716,129 L 717,129 L 717,130 L 718,130 L 719,130 L 720,130 L 721,130 L 722,130 L 723,130 L 724,129 L 724,130 L 725,129 L 726,128 L 726,127 L 727,127 L 728,127 L 729,127 L 730,127 L 731,127 L 731,126 L 732,126 L 733,127 " />
</g>
<g id="115" class="st0 dist-block" inkscape:label="Gudari">
<path d="M 683,221 L 684,221 L 685,221 L 686,221 L 687,221 L 688,221 L 689,222 L 690,222 L 690,223 L 690,224 L 690,225 L 689,225 L 689,226 L 690,227 L 690,228 L 691,228 L 691,229 L 690,230 L 690,231 L 691,231 L 691,232 L 692,233 L 692,234 L 693,234 L 694,234 L 695,234 L 696,234 L 697,235 L 698,235 L 699,236 L 700,236 L 701,235 L 702,235 L 703,235 L 703,234 L 704,234 L 704,233 L 705,233 L 705,232 L 706,232 L 707,232 L 708,232 L 709,232 L 710,233 L 710,234 L 711,235 L 712,236 L 713,236 L 714,236 L 714,235 L 715,235 L 716,236 L 717,236 L 718,236 L 719,235 L 720,235 L 721,234 L 722,234 L 722,233 L 721,232 L 721,231 L 720,231 L 720,230 L 720,229 L 721,229 L 722,229 L 722,228 L 723,227 L 724,226 L 725,226 L 726,227 L 727,228 L 727,229 L 728,229 L 729,230 L 729,229 L 730,228 L 731,228 L 732,228 L 733,228 L 734,228 L 734,227 L 735,227 L 735,228 L 736,227 L 736,226 L 737,226 L 737,227 L 738,227 L 739,227 L 739,228 L 740,228 L 741,229 L 742,229 L 742,228 L 743,228 L 743,227 L 744,227 L 744,228 L 745,228 L 745,229 L 746,230 L 746,231 L 746,232 L 746,233 L 747,234 L 748,235 L 747,235 L 747,236 L 747,237 L 747,238 L 747,239 L 746,240 L 746,241 L 747,241 L 747,242 L 748,242 L 748,243 L 749,243 L 750,243 L 751,243 L 752,243 L 753,244 L 754,244 L 755,244 L 756,244 L 757,244 L 757,245 L 758,245 L 757,245 L 757,246 L 757,247 L 757,246 L 758,246 L 758,247 L 759,247 L 759,248 L 759,249 L 760,249 L 761,249 L 762,249 L 763,249 L 763,250 L 764,250 L 764,251 L 765,251 L 765,252 L 766,252 L 766,253 L 767,254 L 767,255 L 767,256 L 767,257 L 768,257 L 768,258 L 769,258 L 769,259 L 770,259 L 771,259 L 771,260 L 772,260 L 772,261 L 773,261 L 774,261 L 774,262 L 775,262 L 776,262 L 776,261 L 776,260 L 777,260 L 778,260 L 778,261 L 779,261 L 779,262 L 779,263 L 780,263 L 780,264 L 781,264 L 780,264 L 780,265 L 779,265 L 779,266 L 779,267 L 779,268 L 779,269 L 778,269 L 778,270 L 777,270 L 777,271 L 776,271 L 775,271 L 775,272 L 774,273 L 774,274 L 774,275 L 773,275 L 773,276 L 773,277 L 772,278 L 772,279 L 772,280 L 771,280 L 771,281 L 770,281 L 770,282 L 770,283 L 770,284 L 770,285 L 769,285 L 768,286 L 767,286 L 766,287 L 765,288 L 764,288 L 763,288 L 762,288 L 762,289 L 761,289 L 760,289 L 760,290 L 759,290 L 759,291 L 758,292 L 759,292 L 759,293 L 759,294 L 760,294 L 760,295 L 760,296 L 760,297 L 760,298 L 760,299 L 759,299 L 758,300 L 758,301 L 757,301 L 757,302 L 758,302 L 758,303 L 758,304 L 758,305 L 757,305 L 756,306 L 755,305 L 754,304 L 753,304 L 752,304 L 751,304 L 751,303 L 751,302 L 751,301 L 751,300 L 751,299 L 751,298 L 751,297 L 750,297 L 750,296 L 749,296 L 748,296 L 747,296 L 746,296 L 745,296 L 744,295 L 744,296 L 744,297 L 743,297 L 743,298 L 742,298 L 742,299 L 742,300 L 741,300 L 741,301 L 741,302 L 741,303 L 742,303 L 743,304 L 743,305 L 743,306 L 742,306 L 741,306 L 740,306 L 740,307 L 739,307 L 739,308 L 739,309 L 738,310 L 738,311 L 738,312 L 738,313 L 737,313 L 737,314 L 736,314 L 735,314 L 734,314 L 733,314 L 732,314 L 731,314 L 730,314 L 729,314 L 728,314 L 727,314 L 726,314 L 726,315 L 725,316 L 725,317 L 725,318 L 725,319 L 725,320 L 725,321 L 724,321 L 724,320 L 723,320 L 722,320 L 721,319 L 720,319 L 719,320 L 718,320 L 718,321 L 717,321 L 716,321 L 715,321 L 715,322 L 714,322 L 713,322 L 713,321 L 713,320 L 713,319 L 713,318 L 713,317 L 713,316 L 713,315 L 714,314 L 714,313 L 714,312 L 714,311 L 713,310 L 712,310 L 712,309 L 711,309 L 711,308 L 710,307 L 710,306 L 710,305 L 710,304 L 709,304 L 709,303 L 708,303 L 707,303 L 706,303 L 705,303 L 705,304 L 705,305 L 704,305 L 703,305 L 702,305 L 702,306 L 701,306 L 700,306 L 699,305 L 698,305 L 698,304 L 697,304 L 696,305 L 695,306 L 694,306 L 693,306 L 692,305 L 692,304 L 691,303 L 691,302 L 690,301 L 689,301 L 689,300 L 688,299 L 687,298 L 687,299 L 687,300 L 686,300 L 686,301 L 685,301 L 685,302 L 685,303 L 685,304 L 684,304 L 684,305 L 683,305 L 683,304 L 683,303 L 682,302 L 681,301 L 681,300 L 680,300 L 680,301 L 679,301 L 679,302 L 678,304 L 678,305 L 678,306 L 678,308 L 679,309 L 679,310 L 679,311 L 680,311 L 680,312 L 680,313 L 680,314 L 680,315 L 679,315 L 678,315 L 677,314 L 676,312 L 675,311 L 674,309 L 672,306 L 671,303 L 670,302 L 669,300 L 668,299 L 667,298 L 667,297 L 666,297 L 666,296 L 665,295 L 664,293 L 663,292 L 662,290 L 661,289 L 660,288 L 660,287 L 659,286 L 658,285 L 658,284 L 657,284 L 657,283 L 656,282 L 656,281 L 656,280 L 656,279 L 656,278 L 656,277 L 656,276 L 657,276 L 657,275 L 657,273 L 657,272 L 657,271 L 657,270 L 656,269 L 656,267 L 655,266 L 655,265 L 654,265 L 654,264 L 653,264 L 653,263 L 653,262 L 652,262 L 651,261 L 651,260 L 651,259 L 651,258 L 651,257 L 651,256 L 650,255 L 651,255 L 651,254 L 652,254 L 652,253 L 653,254 L 655,254 L 656,254 L 657,253 L 658,253 L 658,252 L 658,251 L 657,250 L 656,249 L 655,249 L 655,248 L 654,248 L 654,247 L 654,246 L 655,246 L 656,246 L 657,245 L 658,246 L 658,245 L 659,245 L 660,245 L 661,246 L 662,247 L 663,248 L 664,248 L 664,247 L 665,247 L 665,246 L 665,245 L 665,244 L 665,243 L 665,241 L 665,240 L 667,240 L 668,240 L 669,240 L 671,240 L 672,241 L 673,241 L 673,240 L 672,239 L 671,237 L 671,236 L 671,235 L 672,234 L 672,233 L 673,233 L 673,234 L 674,235 L 675,236 L 676,236 L 677,235 L 678,235 L 678,234 L 677,234 L 677,233 L 677,232 L 676,232 L 675,231 L 675,230 L 674,230 L 673,230 L 673,229 L 672,229 L 673,228 L 674,228 L 675,228 L 676,228 L 677,227 L 678,227 L 679,228 L 679,229 L 680,229 L 680,228 L 681,227 L 681,226 L 681,225 L 680,223 L 679,223 L 679,222 L 678,222 L 679,222 L 679,221 L 679,220 L 680,220 L 681,220 L 682,220 L 682,221 L 683,221 " />
</g>
<g id="118" class="st0 dist-block" inkscape:label="Gunupur">
<path d="M 803,342 L 802,343 L 802,344 L 801,344 L 801,345 L 801,346 L 801,347 L 801,348 L 800,349 L 800,350 L 799,351 L 798,351 L 797,352 L 797,353 L 798,354 L 799,354 L 799,355 L 799,356 L 800,357 L 800,358 L 801,358 L 802,358 L 803,359 L 803,360 L 804,360 L 804,361 L 804,362 L 803,362 L 802,362 L 801,363 L 800,363 L 800,364 L 801,364 L 801,365 L 801,366 L 801,367 L 801,368 L 801,369 L 802,370 L 802,371 L 801,371 L 800,371 L 800,372 L 799,373 L 799,374 L 800,374 L 800,375 L 801,375 L 801,377 L 802,377 L 802,378 L 802,379 L 803,380 L 804,380 L 805,380 L 805,381 L 806,381 L 807,381 L 808,381 L 809,382 L 809,383 L 810,383 L 811,383 L 812,384 L 813,383 L 814,383 L 815,383 L 816,383 L 816,384 L 817,384 L 818,385 L 818,386 L 818,387 L 819,387 L 819,388 L 819,389 L 818,389 L 818,390 L 817,390 L 816,390 L 815,390 L 814,390 L 814,391 L 813,391 L 812,390 L 812,389 L 811,389 L 811,390 L 811,391 L 811,392 L 811,394 L 812,395 L 811,395 L 811,396 L 811,397 L 811,398 L 811,399 L 811,400 L 811,401 L 810,402 L 811,402 L 811,403 L 811,404 L 812,405 L 812,406 L 813,406 L 813,407 L 813,408 L 813,409 L 812,409 L 812,410 L 812,411 L 813,411 L 813,412 L 814,413 L 815,413 L 816,413 L 817,413 L 817,414 L 817,415 L 817,416 L 818,417 L 818,418 L 818,419 L 818,420 L 817,420 L 816,420 L 815,420 L 814,420 L 814,421 L 813,421 L 812,421 L 811,421 L 810,421 L 809,421 L 808,420 L 808,419 L 807,418 L 808,418 L 807,418 L 807,417 L 806,416 L 806,415 L 805,415 L 804,416 L 803,416 L 802,415 L 801,415 L 800,415 L 799,414 L 798,414 L 797,414 L 796,414 L 795,414 L 794,414 L 794,415 L 793,416 L 792,416 L 791,417 L 790,418 L 789,418 L 789,419 L 789,420 L 788,420 L 788,421 L 788,422 L 789,423 L 790,423 L 789,424 L 789,425 L 789,426 L 789,427 L 790,427 L 790,428 L 791,428 L 792,428 L 792,429 L 793,430 L 794,431 L 795,431 L 795,432 L 795,433 L 796,433 L 796,434 L 797,435 L 798,436 L 798,437 L 797,437 L 797,438 L 797,439 L 796,440 L 796,441 L 795,442 L 794,442 L 793,443 L 792,443 L 791,443 L 790,444 L 789,444 L 789,445 L 788,445 L 788,446 L 787,446 L 786,446 L 785,446 L 784,447 L 783,447 L 783,446 L 782,446 L 782,445 L 781,445 L 781,444 L 780,444 L 780,443 L 779,443 L 779,442 L 778,442 L 778,441 L 776,441 L 775,441 L 775,440 L 775,439 L 774,439 L 773,439 L 772,439 L 771,439 L 770,439 L 769,440 L 769,439 L 768,439 L 767,438 L 766,437 L 765,437 L 764,438 L 764,439 L 762,440 L 761,442 L 760,442 L 761,443 L 760,443 L 760,444 L 759,445 L 759,446 L 759,447 L 758,448 L 757,448 L 756,448 L 755,448 L 754,447 L 753,447 L 752,447 L 751,447 L 751,448 L 750,448 L 749,448 L 748,449 L 747,449 L 746,449 L 745,449 L 744,449 L 744,448 L 744,447 L 744,446 L 743,445 L 743,444 L 742,443 L 742,442 L 741,442 L 740,441 L 739,441 L 739,440 L 738,440 L 738,441 L 737,441 L 736,441 L 735,441 L 735,442 L 734,443 L 733,443 L 733,442 L 732,441 L 732,440 L 731,438 L 730,438 L 730,437 L 729,437 L 729,436 L 728,436 L 728,435 L 728,434 L 728,432 L 728,431 L 727,431 L 727,430 L 726,430 L 725,430 L 724,430 L 723,430 L 723,431 L 722,431 L 721,431 L 720,432 L 720,433 L 719,434 L 719,435 L 719,436 L 718,436 L 718,437 L 717,437 L 716,436 L 715,436 L 714,436 L 713,436 L 712,436 L 711,436 L 711,437 L 711,438 L 712,438 L 712,439 L 712,440 L 712,441 L 711,441 L 710,441 L 709,441 L 708,441 L 707,441 L 706,441 L 705,442 L 705,443 L 705,444 L 704,444 L 704,443 L 703,443 L 702,443 L 701,444 L 700,444 L 700,445 L 699,445 L 698,445 L 698,446 L 698,447 L 697,448 L 697,449 L 697,450 L 697,451 L 697,452 L 697,453 L 698,453 L 698,454 L 698,455 L 699,456 L 700,456 L 701,457 L 701,458 L 701,459 L 701,460 L 701,461 L 702,462 L 702,463 L 702,464 L 702,465 L 702,466 L 703,466 L 704,466 L 706,465 L 706,464 L 707,464 L 707,465 L 707,466 L 707,467 L 708,468 L 708,469 L 709,469 L 710,469 L 710,470 L 710,471 L 711,472 L 711,473 L 712,473 L 713,474 L 713,475 L 713,476 L 713,477 L 714,478 L 714,479 L 714,480 L 714,481 L 714,482 L 713,482 L 713,483 L 712,483 L 711,483 L 710,484 L 709,483 L 708,483 L 708,482 L 707,482 L 706,482 L 706,481 L 706,480 L 706,479 L 705,478 L 704,478 L 704,477 L 703,477 L 702,477 L 701,477 L 700,477 L 699,476 L 699,475 L 699,474 L 698,474 L 698,473 L 697,472 L 697,471 L 697,470 L 697,469 L 696,468 L 696,467 L 695,467 L 695,466 L 694,466 L 694,465 L 694,464 L 694,463 L 694,462 L 694,461 L 693,460 L 693,459 L 692,458 L 692,457 L 692,456 L 692,455 L 692,454 L 692,453 L 691,453 L 692,452 L 692,451 L 692,450 L 692,449 L 691,449 L 690,449 L 690,448 L 689,448 L 688,448 L 687,447 L 686,447 L 685,447 L 684,447 L 684,446 L 683,445 L 683,444 L 682,443 L 682,442 L 682,441 L 683,441 L 683,440 L 684,440 L 685,440 L 685,439 L 686,439 L 686,440 L 687,440 L 688,440 L 688,439 L 688,438 L 689,438 L 689,437 L 690,437 L 690,436 L 690,435 L 691,435 L 691,434 L 690,434 L 690,435 L 689,435 L 688,435 L 687,435 L 688,434 L 687,434 L 686,434 L 685,434 L 685,433 L 684,433 L 683,433 L 682,433 L 681,433 L 680,433 L 679,433 L 678,433 L 678,432 L 678,431 L 677,431 L 677,430 L 677,429 L 677,428 L 676,428 L 676,427 L 675,427 L 675,426 L 675,425 L 675,424 L 674,422 L 675,422 L 676,422 L 677,422 L 678,422 L 679,422 L 680,422 L 680,421 L 681,421 L 682,421 L 682,422 L 683,422 L 682,423 L 683,423 L 683,424 L 684,424 L 684,423 L 685,423 L 685,422 L 686,421 L 687,421 L 688,420 L 689,420 L 690,420 L 690,419 L 690,418 L 689,418 L 687,418 L 687,417 L 687,416 L 686,416 L 686,415 L 686,414 L 685,414 L 684,413 L 683,412 L 684,412 L 685,412 L 685,411 L 686,411 L 687,411 L 688,411 L 688,410 L 689,409 L 689,408 L 689,407 L 689,406 L 688,406 L 688,405 L 689,405 L 690,404 L 691,404 L 691,405 L 691,406 L 691,407 L 692,407 L 693,407 L 694,407 L 695,407 L 696,407 L 696,406 L 695,406 L 694,405 L 694,404 L 693,403 L 693,402 L 692,401 L 692,400 L 693,399 L 693,398 L 694,398 L 695,398 L 695,399 L 696,399 L 696,398 L 696,397 L 696,396 L 697,396 L 697,397 L 698,398 L 698,399 L 699,399 L 699,400 L 700,401 L 699,402 L 699,403 L 698,403 L 698,404 L 698,405 L 699,405 L 700,404 L 700,403 L 701,403 L 701,402 L 702,401 L 702,400 L 703,400 L 704,400 L 705,399 L 706,399 L 706,398 L 707,398 L 707,397 L 708,397 L 709,397 L 709,396 L 708,395 L 709,394 L 709,393 L 710,393 L 710,394 L 711,394 L 712,394 L 712,395 L 713,395 L 714,395 L 714,396 L 715,396 L 716,396 L 717,396 L 717,397 L 718,397 L 719,397 L 719,398 L 719,399 L 719,400 L 719,401 L 720,400 L 720,399 L 720,398 L 721,398 L 722,398 L 723,397 L 724,397 L 725,397 L 725,396 L 725,395 L 725,394 L 724,393 L 723,392 L 723,391 L 723,390 L 723,389 L 722,388 L 722,387 L 722,386 L 722,385 L 721,384 L 721,383 L 721,382 L 720,381 L 720,380 L 720,379 L 720,378 L 720,377 L 720,376 L 720,375 L 721,375 L 721,376 L 722,377 L 723,377 L 724,377 L 725,377 L 725,376 L 725,375 L 726,375 L 726,376 L 727,376 L 728,376 L 728,375 L 729,375 L 729,374 L 728,374 L 727,374 L 727,373 L 726,372 L 725,371 L 725,370 L 725,369 L 724,369 L 724,368 L 723,368 L 722,368 L 722,367 L 722,366 L 722,365 L 722,364 L 721,364 L 721,363 L 722,363 L 722,362 L 723,362 L 723,363 L 724,363 L 724,362 L 725,362 L 726,362 L 727,362 L 727,361 L 727,360 L 726,360 L 727,360 L 727,359 L 728,359 L 729,358 L 730,358 L 731,358 L 732,358 L 733,358 L 734,358 L 734,359 L 735,359 L 735,358 L 735,359 L 736,359 L 737,359 L 738,359 L 738,360 L 739,360 L 739,361 L 740,361 L 740,362 L 741,363 L 742,363 L 743,363 L 744,363 L 745,363 L 746,363 L 747,364 L 748,364 L 748,363 L 749,362 L 748,362 L 748,361 L 747,361 L 746,361 L 745,361 L 745,360 L 745,359 L 745,358 L 745,357 L 744,357 L 744,356 L 744,355 L 745,355 L 746,355 L 747,355 L 748,355 L 748,354 L 747,354 L 747,353 L 746,353 L 745,352 L 745,351 L 746,350 L 747,350 L 748,349 L 748,348 L 749,348 L 750,348 L 751,348 L 752,348 L 753,348 L 754,348 L 755,348 L 755,347 L 756,347 L 756,348 L 756,349 L 755,349 L 755,350 L 754,350 L 754,351 L 754,352 L 754,353 L 754,354 L 754,355 L 754,356 L 755,356 L 755,357 L 756,357 L 757,357 L 758,358 L 759,358 L 760,358 L 760,357 L 760,356 L 759,356 L 760,356 L 761,356 L 762,356 L 763,356 L 763,357 L 764,357 L 765,357 L 765,356 L 765,355 L 765,354 L 765,353 L 766,353 L 766,352 L 767,352 L 767,351 L 766,350 L 766,349 L 766,348 L 766,347 L 766,346 L 766,345 L 766,344 L 767,344 L 768,344 L 768,343 L 769,343 L 769,342 L 770,342 L 770,341 L 771,341 L 772,341 L 773,341 L 774,340 L 775,340 L 776,341 L 777,342 L 778,342 L 779,341 L 779,340 L 780,340 L 781,340 L 782,340 L 783,340 L 784,340 L 784,341 L 785,341 L 785,342 L 785,343 L 786,343 L 786,344 L 786,345 L 786,346 L 787,346 L 787,345 L 787,344 L 788,343 L 788,342 L 789,342 L 790,341 L 791,341 L 792,341 L 793,341 L 794,342 L 795,341 L 796,340 L 797,340 L 798,340 L 798,339 L 799,339 L 799,338 L 800,338 L 801,337 L 801,338 L 802,338 L 802,339 L 803,339 L 803,340 L 803,341 L 802,341 L 803,341 L 803,342 " />
</g>
<g id="213" class="st0 dist-block" inkscape:label="Muniguda">
<path d="M 590,183 L 590,184 L 591,184 L 590,185 L 590,186 L 589,186 L 588,186 L 587,186 L 587,185 L 586,185 L 586,184 L 587,183 L 588,183 L 589,183 L 589,182 L 590,182 L 590,183 " />
<path d="M 583,12 L 584,12 L 585,13 L 586,13 L 587,13 L 588,13 L 588,14 L 589,14 L 590,15 L 591,15 L 591,16 L 592,16 L 593,16 L 593,15 L 594,15 L 594,16 L 595,16 L 596,17 L 597,17 L 598,17 L 599,17 L 600,17 L 601,17 L 601,18 L 602,19 L 603,19 L 604,18 L 605,18 L 606,19 L 607,19 L 607,20 L 608,20 L 609,20 L 610,21 L 611,21 L 612,21 L 612,22 L 613,22 L 614,23 L 615,23 L 616,23 L 616,24 L 617,24 L 617,25 L 618,26 L 619,26 L 620,26 L 620,27 L 620,28 L 621,28 L 622,28 L 623,28 L 623,29 L 624,30 L 624,31 L 625,31 L 626,31 L 627,31 L 627,32 L 627,33 L 627,34 L 627,35 L 626,36 L 626,37 L 625,37 L 625,38 L 625,39 L 625,40 L 624,40 L 624,41 L 623,42 L 622,43 L 621,43 L 620,44 L 619,45 L 618,46 L 618,47 L 617,48 L 617,49 L 617,50 L 616,50 L 616,51 L 616,52 L 615,52 L 615,53 L 614,54 L 613,54 L 613,55 L 613,56 L 613,57 L 613,58 L 613,59 L 614,59 L 614,60 L 613,60 L 613,61 L 613,62 L 613,63 L 613,64 L 613,65 L 614,65 L 615,65 L 616,65 L 616,64 L 616,63 L 617,64 L 617,65 L 618,66 L 618,67 L 618,68 L 619,69 L 619,70 L 620,70 L 621,71 L 622,71 L 623,71 L 624,71 L 625,72 L 626,72 L 627,73 L 628,74 L 629,75 L 630,75 L 631,75 L 631,76 L 633,76 L 634,76 L 635,77 L 636,77 L 636,78 L 637,78 L 637,79 L 638,79 L 639,78 L 640,78 L 641,77 L 642,77 L 642,76 L 642,75 L 643,75 L 643,74 L 644,75 L 644,76 L 645,77 L 645,78 L 645,79 L 645,80 L 646,81 L 646,82 L 647,82 L 648,82 L 649,82 L 650,82 L 651,83 L 651,84 L 651,85 L 651,86 L 651,87 L 651,88 L 650,88 L 650,89 L 649,89 L 649,90 L 650,91 L 650,92 L 650,93 L 650,94 L 650,95 L 650,96 L 651,96 L 651,97 L 651,98 L 652,98 L 652,99 L 651,100 L 651,101 L 651,102 L 651,103 L 650,103 L 650,104 L 649,104 L 648,105 L 648,106 L 647,106 L 646,107 L 646,108 L 646,109 L 646,110 L 646,111 L 646,112 L 647,112 L 647,113 L 648,113 L 649,113 L 650,114 L 651,114 L 652,114 L 653,114 L 653,115 L 654,116 L 654,117 L 654,118 L 655,119 L 655,120 L 656,120 L 656,121 L 656,122 L 656,123 L 656,124 L 655,124 L 655,125 L 655,126 L 656,127 L 657,128 L 657,129 L 658,130 L 659,130 L 659,131 L 659,132 L 660,132 L 660,133 L 660,134 L 660,135 L 660,136 L 660,137 L 659,137 L 659,138 L 658,139 L 658,140 L 658,141 L 657,142 L 657,143 L 657,144 L 656,144 L 656,145 L 656,146 L 657,147 L 658,148 L 659,149 L 659,150 L 660,150 L 660,151 L 661,152 L 661,153 L 662,154 L 663,154 L 663,153 L 664,153 L 665,151 L 666,151 L 666,152 L 666,153 L 666,154 L 665,154 L 664,155 L 663,156 L 662,157 L 661,157 L 660,157 L 659,158 L 658,158 L 658,159 L 657,159 L 656,158 L 655,158 L 653,157 L 652,157 L 651,156 L 650,156 L 649,156 L 647,156 L 646,156 L 647,157 L 648,158 L 648,159 L 647,159 L 646,159 L 646,160 L 645,160 L 644,161 L 643,162 L 643,163 L 641,163 L 641,164 L 642,164 L 643,164 L 644,164 L 645,164 L 646,164 L 647,164 L 648,164 L 649,164 L 648,164 L 648,165 L 648,166 L 648,167 L 647,167 L 646,167 L 645,167 L 644,167 L 643,167 L 642,167 L 641,167 L 641,166 L 641,165 L 640,164 L 640,162 L 639,161 L 638,161 L 637,161 L 636,162 L 636,163 L 635,164 L 634,164 L 634,165 L 633,164 L 632,163 L 631,163 L 630,164 L 629,165 L 629,166 L 628,167 L 627,168 L 627,169 L 627,170 L 627,171 L 627,172 L 626,172 L 626,173 L 626,174 L 625,175 L 625,176 L 624,176 L 624,177 L 624,178 L 625,179 L 625,180 L 624,180 L 623,180 L 622,180 L 621,180 L 621,179 L 621,178 L 620,178 L 619,179 L 619,178 L 619,177 L 619,176 L 620,176 L 621,175 L 621,174 L 622,174 L 622,173 L 622,172 L 621,171 L 620,171 L 620,170 L 619,170 L 618,170 L 618,169 L 617,169 L 616,169 L 615,169 L 614,168 L 613,168 L 612,168 L 611,168 L 610,168 L 610,169 L 609,168 L 608,168 L 607,167 L 606,167 L 605,166 L 605,167 L 604,168 L 604,170 L 603,171 L 603,172 L 603,173 L 602,174 L 602,175 L 601,175 L 601,174 L 600,174 L 599,173 L 598,173 L 598,172 L 597,172 L 596,172 L 595,172 L 595,171 L 595,170 L 594,170 L 593,170 L 593,171 L 593,172 L 593,173 L 593,174 L 594,175 L 595,175 L 595,176 L 596,176 L 597,176 L 597,177 L 598,177 L 597,178 L 597,179 L 596,180 L 595,181 L 594,181 L 594,180 L 593,180 L 592,180 L 591,180 L 590,180 L 590,179 L 589,179 L 589,178 L 588,178 L 588,177 L 587,177 L 587,178 L 586,178 L 585,178 L 584,178 L 584,179 L 584,180 L 583,181 L 583,182 L 582,182 L 581,183 L 580,183 L 580,184 L 579,184 L 579,185 L 579,186 L 578,186 L 577,186 L 576,187 L 575,187 L 574,187 L 573,187 L 572,187 L 572,188 L 571,188 L 570,188 L 569,188 L 569,187 L 568,187 L 567,187 L 566,187 L 565,188 L 564,188 L 563,189 L 563,190 L 563,191 L 563,192 L 563,193 L 563,194 L 563,195 L 562,196 L 562,197 L 561,197 L 560,197 L 559,197 L 558,197 L 557,197 L 556,197 L 556,196 L 556,195 L 556,194 L 555,193 L 555,192 L 555,191 L 554,191 L 553,191 L 553,190 L 552,190 L 552,189 L 552,188 L 552,187 L 552,186 L 552,185 L 552,184 L 552,183 L 552,182 L 553,181 L 553,180 L 554,179 L 554,178 L 555,177 L 555,176 L 556,176 L 556,175 L 557,174 L 557,173 L 557,172 L 557,171 L 557,170 L 557,169 L 558,169 L 558,168 L 558,167 L 558,166 L 558,165 L 558,164 L 558,163 L 559,163 L 559,162 L 558,162 L 558,163 L 557,162 L 557,163 L 556,163 L 555,163 L 554,163 L 553,163 L 552,163 L 551,162 L 550,162 L 550,163 L 549,163 L 548,163 L 547,163 L 546,163 L 546,162 L 547,162 L 547,161 L 546,161 L 547,161 L 547,160 L 548,160 L 548,159 L 549,158 L 549,157 L 548,157 L 548,156 L 548,155 L 548,154 L 549,153 L 549,152 L 549,151 L 549,150 L 550,150 L 550,149 L 550,148 L 551,148 L 551,147 L 551,146 L 552,146 L 552,145 L 553,145 L 554,145 L 554,144 L 555,144 L 555,143 L 556,143 L 556,142 L 556,141 L 557,141 L 558,140 L 559,140 L 559,139 L 560,139 L 561,139 L 562,139 L 563,139 L 564,139 L 565,139 L 565,138 L 566,138 L 566,137 L 566,136 L 567,136 L 567,135 L 567,134 L 568,134 L 569,134 L 570,134 L 570,133 L 570,132 L 571,132 L 571,131 L 571,130 L 571,129 L 571,128 L 572,128 L 572,127 L 572,126 L 573,126 L 574,126 L 574,125 L 575,125 L 576,125 L 576,124 L 577,124 L 578,124 L 578,123 L 577,123 L 577,122 L 577,121 L 576,121 L 576,120 L 577,120 L 577,119 L 577,118 L 578,117 L 579,117 L 580,117 L 581,117 L 581,116 L 581,115 L 581,114 L 582,114 L 581,113 L 581,112 L 581,111 L 581,110 L 581,109 L 581,108 L 581,107 L 582,106 L 582,105 L 582,104 L 582,103 L 582,102 L 582,101 L 582,99 L 581,99 L 581,98 L 581,97 L 580,97 L 581,97 L 582,97 L 582,96 L 581,96 L 580,96 L 580,95 L 581,95 L 581,94 L 581,93 L 582,93 L 583,93 L 583,92 L 582,91 L 583,91 L 584,91 L 584,90 L 583,90 L 582,90 L 582,89 L 582,90 L 581,90 L 580,90 L 579,90 L 579,89 L 579,88 L 578,88 L 577,88 L 576,88 L 576,87 L 575,87 L 574,87 L 574,86 L 575,86 L 575,85 L 575,84 L 575,83 L 575,82 L 574,82 L 574,81 L 573,81 L 573,80 L 573,79 L 573,78 L 573,77 L 573,76 L 573,75 L 574,75 L 575,75 L 576,74 L 576,73 L 575,73 L 575,72 L 575,71 L 574,71 L 574,70 L 573,70 L 573,69 L 572,69 L 571,68 L 570,68 L 569,68 L 569,67 L 569,66 L 569,65 L 569,64 L 569,63 L 570,63 L 570,62 L 570,61 L 570,60 L 571,60 L 571,59 L 572,59 L 572,58 L 572,57 L 573,57 L 572,57 L 572,56 L 571,55 L 570,55 L 570,54 L 570,53 L 570,52 L 571,52 L 570,52 L 571,52 L 571,51 L 570,51 L 569,50 L 569,49 L 568,49 L 569,49 L 569,48 L 569,47 L 568,47 L 567,47 L 567,46 L 566,45 L 565,45 L 565,44 L 565,43 L 564,43 L 565,43 L 564,43 L 564,42 L 565,42 L 565,41 L 566,41 L 565,41 L 565,40 L 565,39 L 564,39 L 563,39 L 563,38 L 564,38 L 563,38 L 563,37 L 563,36 L 563,35 L 562,35 L 562,34 L 563,34 L 564,33 L 565,32 L 566,31 L 567,30 L 567,29 L 568,29 L 568,28 L 568,29 L 569,29 L 569,30 L 570,30 L 570,31 L 571,31 L 572,30 L 573,30 L 573,29 L 574,29 L 575,29 L 575,30 L 576,30 L 577,30 L 578,29 L 578,28 L 578,27 L 578,26 L 578,25 L 578,24 L 578,23 L 579,22 L 580,22 L 580,21 L 579,21 L 579,20 L 579,19 L 579,18 L 579,17 L 579,16 L 580,15 L 580,14 L 580,13 L 580,12 L 580,11 L 581,11 L 582,11 L 583,11 L 583,12 " />
</g>
<g id="236" class="st0 dist-block" inkscape:label="Padmapur">
<path d="M 784,264 L 785,266 L 785,267 L 785,268 L 785,270 L 786,270 L 788,270 L 789,270 L 791,271 L 792,271 L 792,272 L 793,272 L 792,273 L 793,274 L 793,275 L 794,275 L 795,276 L 796,276 L 797,276 L 798,276 L 798,277 L 799,277 L 800,278 L 801,278 L 802,278 L 801,278 L 802,277 L 803,276 L 804,276 L 804,275 L 805,275 L 808,276 L 809,277 L 810,277 L 812,279 L 813,279 L 813,280 L 814,281 L 814,283 L 815,284 L 815,285 L 815,286 L 816,286 L 816,287 L 817,289 L 818,291 L 818,292 L 819,293 L 819,294 L 818,295 L 818,296 L 817,297 L 817,298 L 818,299 L 818,300 L 818,301 L 817,302 L 817,303 L 816,303 L 815,304 L 814,305 L 813,306 L 813,307 L 813,308 L 813,309 L 813,310 L 812,311 L 812,312 L 813,312 L 813,313 L 814,314 L 814,315 L 815,316 L 815,317 L 815,318 L 814,318 L 813,319 L 812,319 L 812,320 L 811,321 L 811,322 L 811,323 L 811,324 L 811,325 L 811,326 L 810,326 L 810,327 L 809,327 L 808,327 L 807,327 L 807,328 L 807,329 L 807,330 L 807,331 L 807,332 L 806,332 L 805,332 L 805,333 L 805,334 L 805,335 L 804,336 L 804,337 L 804,338 L 803,338 L 803,339 L 802,339 L 802,338 L 801,338 L 801,337 L 800,338 L 799,338 L 799,339 L 798,339 L 798,340 L 797,340 L 796,340 L 795,341 L 794,342 L 793,341 L 792,341 L 791,341 L 790,341 L 789,342 L 788,342 L 788,343 L 787,344 L 787,345 L 787,346 L 786,346 L 786,345 L 786,344 L 786,343 L 785,343 L 785,342 L 785,341 L 784,341 L 784,340 L 783,340 L 782,340 L 781,340 L 780,340 L 779,340 L 779,341 L 778,342 L 777,342 L 776,341 L 775,340 L 774,340 L 773,341 L 772,341 L 771,341 L 770,341 L 770,342 L 769,342 L 769,343 L 768,343 L 768,344 L 767,344 L 766,344 L 766,345 L 766,346 L 766,347 L 766,348 L 766,349 L 766,350 L 767,351 L 767,352 L 766,352 L 766,353 L 765,353 L 765,354 L 765,355 L 765,356 L 765,357 L 764,357 L 763,357 L 763,356 L 762,356 L 761,356 L 760,356 L 759,356 L 760,356 L 760,357 L 760,358 L 759,358 L 758,358 L 757,357 L 756,357 L 755,357 L 755,356 L 754,356 L 754,355 L 754,354 L 754,353 L 754,352 L 754,351 L 754,350 L 755,350 L 755,349 L 756,349 L 756,348 L 756,347 L 755,347 L 755,348 L 754,348 L 753,348 L 752,348 L 751,348 L 750,348 L 749,348 L 748,348 L 748,349 L 747,350 L 746,350 L 745,351 L 745,352 L 746,353 L 747,353 L 747,354 L 748,354 L 748,355 L 747,355 L 746,355 L 745,355 L 744,355 L 744,356 L 744,357 L 745,357 L 745,358 L 745,359 L 745,360 L 745,361 L 746,361 L 747,361 L 748,361 L 748,362 L 749,362 L 748,363 L 748,364 L 747,364 L 746,363 L 745,363 L 744,363 L 743,363 L 742,363 L 741,363 L 740,362 L 740,361 L 739,361 L 739,360 L 738,360 L 738,359 L 737,359 L 736,359 L 735,359 L 735,358 L 735,359 L 734,359 L 734,358 L 733,358 L 732,358 L 731,358 L 730,358 L 729,358 L 728,359 L 727,359 L 727,360 L 726,360 L 727,360 L 727,361 L 727,362 L 726,362 L 725,362 L 724,362 L 724,363 L 723,363 L 723,362 L 722,362 L 722,363 L 722,362 L 721,362 L 721,361 L 721,360 L 720,359 L 721,359 L 721,358 L 722,357 L 723,356 L 723,355 L 724,355 L 724,354 L 723,354 L 723,353 L 722,352 L 722,351 L 721,351 L 720,350 L 721,350 L 721,349 L 721,348 L 721,347 L 721,346 L 722,346 L 722,345 L 722,344 L 722,343 L 721,342 L 721,341 L 720,341 L 719,341 L 719,340 L 718,340 L 717,340 L 717,341 L 716,342 L 715,342 L 715,341 L 714,341 L 713,341 L 713,340 L 712,339 L 712,340 L 711,340 L 711,341 L 710,342 L 710,343 L 709,344 L 709,343 L 708,343 L 708,342 L 707,342 L 707,341 L 706,340 L 706,339 L 705,339 L 704,339 L 703,339 L 702,338 L 701,337 L 700,336 L 699,336 L 698,336 L 697,336 L 695,337 L 695,338 L 695,339 L 695,340 L 696,341 L 695,341 L 694,341 L 693,341 L 692,341 L 692,340 L 691,339 L 691,340 L 691,339 L 690,339 L 689,339 L 688,339 L 687,339 L 686,339 L 686,338 L 685,338 L 685,337 L 684,337 L 685,337 L 685,336 L 684,335 L 683,335 L 683,334 L 683,333 L 683,331 L 683,330 L 682,330 L 682,329 L 682,328 L 682,327 L 682,326 L 682,325 L 682,324 L 681,323 L 681,322 L 681,321 L 681,319 L 681,317 L 681,316 L 681,315 L 680,315 L 680,314 L 680,313 L 680,312 L 680,311 L 679,311 L 679,310 L 679,309 L 678,308 L 678,306 L 678,305 L 678,304 L 679,302 L 679,301 L 680,301 L 680,300 L 681,300 L 681,301 L 682,302 L 683,303 L 683,304 L 683,305 L 684,305 L 684,304 L 685,304 L 685,303 L 685,302 L 685,301 L 686,301 L 686,300 L 687,300 L 687,299 L 687,298 L 688,299 L 689,300 L 689,301 L 690,301 L 691,302 L 691,303 L 692,304 L 692,305 L 693,306 L 694,306 L 695,306 L 696,305 L 697,304 L 698,304 L 698,305 L 699,305 L 700,306 L 701,306 L 702,306 L 702,305 L 703,305 L 704,305 L 705,305 L 705,304 L 705,303 L 706,303 L 707,303 L 708,303 L 709,303 L 709,304 L 710,304 L 710,305 L 710,306 L 710,307 L 711,308 L 711,309 L 712,309 L 712,310 L 713,310 L 714,311 L 714,312 L 714,313 L 714,314 L 713,315 L 713,316 L 713,317 L 713,318 L 713,319 L 713,320 L 713,321 L 713,322 L 714,322 L 715,322 L 715,321 L 716,321 L 717,321 L 718,321 L 718,320 L 719,320 L 720,319 L 721,319 L 722,320 L 723,320 L 724,320 L 724,321 L 725,321 L 725,320 L 725,319 L 725,318 L 725,317 L 725,316 L 726,315 L 726,314 L 727,314 L 728,314 L 729,314 L 730,314 L 731,314 L 732,314 L 733,314 L 734,314 L 735,314 L 736,314 L 737,314 L 737,313 L 738,313 L 738,312 L 738,311 L 738,310 L 739,309 L 739,308 L 739,307 L 740,307 L 740,306 L 741,306 L 742,306 L 743,306 L 743,305 L 743,304 L 742,303 L 741,303 L 741,302 L 741,301 L 741,300 L 742,300 L 742,299 L 742,298 L 743,298 L 743,297 L 744,297 L 744,296 L 744,295 L 745,296 L 746,296 L 747,296 L 748,296 L 749,296 L 750,296 L 750,297 L 751,297 L 751,298 L 751,299 L 751,300 L 751,301 L 751,302 L 751,303 L 751,304 L 752,304 L 753,304 L 754,304 L 755,305 L 756,306 L 757,305 L 758,305 L 758,304 L 758,303 L 758,302 L 757,302 L 757,301 L 758,301 L 758,300 L 759,299 L 760,299 L 760,298 L 760,297 L 760,296 L 760,295 L 760,294 L 759,294 L 759,293 L 759,292 L 758,292 L 759,291 L 759,290 L 760,290 L 760,289 L 761,289 L 762,289 L 762,288 L 763,288 L 764,288 L 765,288 L 766,287 L 767,286 L 768,286 L 769,285 L 770,285 L 770,284 L 770,283 L 770,282 L 770,281 L 771,281 L 771,280 L 772,280 L 772,279 L 772,278 L 773,277 L 773,276 L 773,275 L 774,275 L 774,274 L 774,273 L 775,272 L 775,271 L 776,271 L 777,271 L 777,270 L 778,270 L 778,269 L 779,269 L 779,268 L 779,267 L 779,266 L 779,265 L 780,265 L 780,264 L 781,264 L 782,263 L 782,262 L 783,262 L 784,263 L 784,264 " />
</g>
<g id="263" class="st0 dist-block" inkscape:label="Ramanaguda">
<path d="M 662,290 L 663,292 L 664,293 L 665,295 L 666,296 L 666,297 L 667,297 L 667,298 L 668,299 L 669,300 L 670,302 L 671,303 L 672,306 L 674,309 L 675,311 L 676,312 L 677,314 L 678,315 L 679,315 L 680,315 L 681,315 L 681,316 L 681,317 L 681,319 L 681,321 L 681,322 L 681,323 L 682,324 L 682,325 L 682,326 L 682,327 L 682,328 L 682,329 L 682,330 L 683,330 L 683,331 L 683,333 L 683,334 L 683,335 L 684,335 L 685,336 L 685,337 L 684,337 L 685,337 L 685,338 L 686,338 L 686,339 L 687,339 L 688,339 L 689,339 L 690,339 L 691,339 L 691,340 L 691,339 L 692,340 L 692,341 L 693,341 L 694,341 L 695,341 L 696,341 L 695,340 L 695,339 L 695,338 L 695,337 L 697,336 L 698,336 L 699,336 L 700,336 L 701,337 L 702,338 L 703,339 L 704,339 L 705,339 L 706,339 L 706,340 L 707,341 L 707,342 L 708,342 L 708,343 L 709,343 L 709,344 L 710,343 L 710,342 L 711,341 L 711,340 L 712,340 L 712,339 L 713,340 L 713,341 L 714,341 L 715,341 L 715,342 L 716,342 L 717,341 L 717,340 L 718,340 L 719,340 L 719,341 L 720,341 L 721,341 L 721,342 L 722,343 L 722,344 L 722,345 L 722,346 L 721,346 L 721,347 L 721,348 L 721,349 L 721,350 L 720,350 L 721,351 L 722,351 L 722,352 L 723,353 L 723,354 L 724,354 L 724,355 L 723,355 L 723,356 L 722,357 L 721,358 L 721,359 L 720,359 L 721,360 L 721,361 L 721,362 L 722,362 L 722,363 L 721,363 L 721,364 L 722,364 L 722,365 L 722,366 L 722,367 L 722,368 L 723,368 L 724,368 L 724,369 L 725,369 L 725,370 L 725,371 L 726,372 L 727,373 L 727,374 L 728,374 L 729,374 L 729,375 L 728,375 L 728,376 L 727,376 L 726,376 L 726,375 L 725,375 L 725,376 L 725,377 L 724,377 L 723,377 L 722,377 L 721,376 L 721,375 L 720,375 L 720,376 L 720,377 L 720,378 L 720,379 L 720,380 L 720,381 L 721,382 L 721,383 L 721,384 L 722,385 L 722,386 L 722,387 L 722,388 L 723,389 L 723,390 L 723,391 L 723,392 L 724,393 L 725,394 L 725,395 L 725,396 L 725,397 L 724,397 L 723,397 L 722,398 L 721,398 L 720,398 L 720,399 L 720,400 L 719,401 L 719,400 L 719,399 L 719,398 L 719,397 L 718,397 L 717,397 L 717,396 L 716,396 L 715,396 L 714,396 L 714,395 L 713,395 L 712,395 L 712,394 L 711,394 L 710,394 L 710,393 L 709,393 L 709,394 L 708,395 L 709,396 L 709,397 L 708,397 L 707,397 L 707,398 L 706,398 L 706,399 L 705,399 L 704,400 L 703,400 L 702,400 L 702,401 L 701,402 L 701,403 L 700,403 L 700,404 L 699,405 L 698,405 L 698,404 L 698,403 L 699,403 L 699,402 L 700,401 L 699,400 L 699,399 L 698,399 L 698,398 L 697,397 L 697,396 L 696,396 L 696,397 L 696,398 L 696,399 L 695,399 L 695,398 L 694,398 L 693,398 L 693,399 L 692,400 L 692,401 L 693,402 L 693,403 L 694,404 L 694,405 L 695,406 L 696,406 L 696,407 L 695,407 L 694,407 L 693,407 L 692,407 L 691,407 L 691,406 L 691,405 L 691,404 L 690,404 L 689,405 L 688,405 L 688,406 L 689,406 L 689,407 L 689,408 L 689,409 L 688,410 L 688,411 L 687,411 L 686,411 L 685,411 L 685,412 L 684,412 L 683,412 L 684,413 L 685,414 L 686,414 L 686,415 L 686,416 L 687,416 L 687,417 L 687,418 L 689,418 L 690,418 L 690,419 L 690,420 L 689,420 L 688,420 L 687,421 L 686,421 L 685,422 L 685,423 L 684,423 L 684,424 L 683,424 L 683,423 L 682,423 L 683,422 L 682,422 L 682,421 L 681,421 L 680,421 L 680,422 L 679,422 L 678,422 L 677,422 L 676,422 L 675,422 L 674,422 L 674,421 L 673,421 L 673,420 L 673,419 L 672,419 L 672,418 L 672,417 L 671,417 L 670,417 L 670,416 L 669,415 L 668,415 L 668,414 L 668,413 L 668,412 L 668,411 L 667,411 L 666,411 L 665,411 L 665,410 L 664,410 L 663,410 L 663,409 L 663,408 L 662,408 L 662,407 L 662,406 L 662,405 L 663,405 L 663,404 L 663,403 L 663,402 L 663,401 L 663,400 L 662,400 L 662,399 L 661,399 L 661,398 L 661,397 L 661,396 L 660,396 L 660,395 L 659,395 L 658,395 L 658,394 L 658,393 L 658,392 L 658,391 L 657,391 L 657,390 L 657,389 L 658,389 L 659,389 L 660,389 L 660,388 L 660,387 L 660,386 L 659,385 L 658,385 L 658,386 L 657,386 L 656,386 L 656,385 L 655,385 L 654,385 L 653,385 L 652,385 L 652,384 L 652,383 L 651,383 L 651,382 L 651,381 L 650,381 L 651,380 L 651,379 L 651,378 L 652,378 L 652,377 L 652,376 L 653,376 L 653,375 L 652,375 L 652,374 L 652,373 L 651,373 L 651,372 L 651,371 L 650,371 L 649,371 L 648,371 L 647,371 L 647,370 L 646,368 L 646,367 L 647,365 L 647,364 L 647,363 L 648,363 L 649,363 L 649,364 L 649,365 L 649,366 L 650,366 L 651,366 L 652,367 L 654,368 L 655,368 L 656,368 L 656,367 L 656,366 L 656,365 L 657,365 L 657,364 L 657,363 L 657,362 L 658,360 L 657,358 L 657,356 L 657,355 L 658,355 L 658,356 L 658,357 L 659,358 L 659,359 L 660,359 L 660,358 L 661,358 L 660,358 L 660,357 L 660,356 L 660,355 L 661,354 L 662,353 L 662,352 L 662,351 L 661,351 L 660,351 L 659,351 L 658,351 L 657,351 L 656,351 L 655,351 L 654,351 L 653,351 L 652,351 L 652,350 L 651,350 L 651,349 L 650,348 L 651,347 L 651,346 L 652,345 L 652,344 L 651,343 L 651,342 L 650,342 L 650,341 L 650,340 L 650,339 L 649,339 L 649,338 L 649,337 L 648,337 L 648,336 L 648,335 L 648,334 L 647,334 L 646,334 L 645,335 L 644,335 L 643,335 L 643,336 L 642,336 L 642,337 L 641,337 L 640,338 L 639,338 L 640,334 L 640,331 L 640,330 L 641,329 L 642,328 L 643,327 L 644,327 L 645,327 L 646,327 L 647,327 L 649,327 L 648,327 L 648,326 L 647,326 L 646,325 L 646,324 L 646,323 L 646,322 L 646,321 L 646,320 L 645,320 L 645,319 L 645,318 L 645,317 L 645,316 L 644,316 L 644,315 L 644,314 L 643,313 L 642,312 L 642,311 L 643,311 L 643,310 L 643,309 L 643,308 L 642,308 L 641,308 L 640,307 L 641,306 L 641,305 L 640,304 L 639,304 L 637,305 L 635,305 L 636,305 L 635,303 L 635,302 L 636,302 L 636,301 L 637,301 L 637,300 L 637,299 L 638,299 L 639,299 L 640,299 L 640,298 L 640,295 L 640,294 L 641,294 L 642,295 L 642,296 L 643,296 L 643,297 L 644,297 L 645,297 L 646,298 L 647,298 L 648,298 L 649,299 L 649,298 L 650,298 L 650,297 L 651,296 L 652,296 L 652,295 L 653,293 L 653,292 L 653,291 L 654,291 L 655,290 L 656,290 L 657,290 L 658,290 L 658,289 L 657,288 L 656,286 L 656,285 L 656,284 L 657,284 L 658,284 L 658,285 L 659,286 L 660,287 L 660,288 L 661,289 L 662,290 " />
</g>
<g id="148" class="st0 dist-block" inkscape:label="Kalyanshingpur">
<path d="M 552,163 L 553,163 L 554,163 L 555,163 L 556,163 L 557,163 L 557,162 L 558,163 L 558,162 L 559,162 L 559,163 L 558,163 L 558,164 L 558,165 L 558,166 L 558,167 L 558,168 L 558,169 L 557,169 L 557,170 L 557,171 L 557,172 L 557,173 L 557,174 L 556,175 L 556,176 L 555,176 L 555,177 L 554,178 L 554,179 L 553,180 L 553,181 L 552,182 L 552,183 L 552,184 L 552,185 L 552,186 L 552,187 L 552,188 L 552,189 L 552,190 L 553,190 L 553,191 L 554,191 L 555,191 L 555,192 L 555,193 L 556,194 L 556,195 L 556,196 L 556,197 L 556,198 L 557,198 L 557,199 L 557,200 L 557,201 L 557,202 L 557,203 L 556,203 L 557,203 L 557,204 L 557,205 L 557,206 L 556,206 L 557,206 L 557,207 L 557,208 L 557,209 L 556,209 L 556,210 L 557,210 L 557,211 L 556,211 L 556,212 L 556,213 L 556,214 L 555,214 L 555,215 L 554,216 L 553,217 L 554,217 L 554,218 L 554,219 L 554,220 L 553,220 L 553,221 L 554,222 L 554,223 L 554,224 L 555,225 L 555,226 L 555,227 L 555,228 L 554,228 L 554,229 L 555,229 L 555,230 L 555,231 L 556,231 L 557,231 L 558,231 L 559,231 L 560,231 L 560,230 L 561,230 L 561,229 L 562,229 L 563,229 L 564,229 L 565,229 L 566,228 L 566,229 L 566,230 L 566,231 L 567,231 L 567,232 L 568,233 L 568,234 L 569,234 L 570,234 L 570,235 L 569,235 L 569,236 L 568,237 L 568,238 L 568,239 L 568,240 L 569,240 L 569,241 L 569,242 L 569,243 L 568,244 L 569,244 L 569,245 L 570,245 L 570,246 L 571,246 L 571,247 L 571,248 L 570,249 L 571,249 L 571,250 L 571,251 L 570,251 L 570,252 L 570,253 L 570,254 L 569,254 L 569,255 L 568,256 L 568,257 L 568,258 L 568,259 L 568,260 L 567,260 L 567,261 L 566,261 L 565,262 L 565,263 L 564,264 L 563,265 L 562,265 L 561,265 L 560,265 L 559,265 L 558,265 L 558,266 L 557,266 L 556,266 L 556,265 L 555,265 L 555,266 L 556,267 L 556,269 L 558,271 L 558,272 L 559,273 L 560,274 L 560,275 L 561,276 L 561,277 L 561,278 L 561,279 L 561,280 L 560,280 L 559,280 L 557,280 L 556,280 L 554,280 L 553,280 L 552,280 L 552,281 L 552,282 L 551,282 L 551,283 L 550,283 L 550,284 L 550,285 L 549,285 L 548,284 L 548,283 L 547,282 L 546,282 L 546,283 L 545,283 L 545,284 L 544,284 L 543,284 L 542,284 L 542,283 L 542,282 L 542,281 L 543,281 L 544,281 L 545,281 L 544,280 L 543,280 L 543,279 L 542,279 L 541,278 L 541,276 L 540,275 L 540,274 L 539,273 L 539,272 L 538,272 L 538,271 L 537,271 L 537,272 L 536,272 L 536,273 L 536,274 L 535,275 L 535,276 L 534,276 L 534,277 L 535,279 L 535,280 L 535,281 L 535,282 L 536,282 L 536,283 L 536,284 L 535,284 L 534,284 L 534,285 L 534,286 L 533,286 L 533,285 L 533,284 L 532,283 L 531,283 L 530,283 L 530,284 L 530,285 L 530,286 L 531,286 L 531,287 L 532,287 L 532,288 L 533,288 L 533,289 L 533,290 L 533,291 L 533,292 L 532,293 L 532,294 L 532,295 L 533,295 L 533,296 L 534,297 L 535,298 L 536,299 L 537,300 L 537,301 L 537,302 L 538,302 L 538,303 L 538,304 L 539,304 L 540,305 L 541,306 L 541,307 L 541,308 L 541,309 L 541,310 L 541,311 L 540,311 L 540,312 L 539,312 L 539,313 L 539,314 L 538,314 L 537,314 L 536,314 L 535,314 L 534,314 L 534,313 L 533,313 L 532,313 L 531,313 L 531,312 L 530,312 L 529,312 L 529,311 L 528,310 L 527,309 L 526,309 L 526,310 L 527,310 L 527,311 L 528,311 L 528,312 L 529,312 L 529,313 L 529,314 L 529,315 L 528,316 L 528,317 L 528,318 L 528,319 L 527,319 L 526,318 L 526,319 L 525,319 L 525,320 L 526,320 L 527,320 L 528,319 L 529,318 L 529,317 L 529,316 L 530,316 L 530,315 L 531,315 L 532,315 L 533,315 L 533,316 L 534,318 L 533,318 L 533,319 L 532,320 L 532,321 L 532,322 L 531,322 L 530,322 L 529,322 L 528,322 L 526,322 L 525,322 L 524,322 L 523,322 L 523,321 L 522,321 L 522,322 L 521,322 L 520,322 L 519,322 L 519,321 L 518,321 L 517,321 L 517,322 L 517,323 L 517,324 L 516,324 L 516,325 L 515,325 L 514,325 L 513,326 L 512,326 L 511,326 L 510,326 L 509,326 L 508,326 L 507,325 L 506,325 L 505,325 L 505,324 L 504,324 L 503,323 L 502,323 L 501,323 L 501,324 L 501,325 L 500,325 L 500,326 L 499,326 L 499,325 L 498,325 L 496,325 L 495,325 L 494,325 L 493,324 L 492,322 L 492,320 L 492,318 L 492,316 L 491,314 L 491,311 L 491,309 L 491,308 L 492,307 L 492,306 L 492,305 L 492,304 L 492,303 L 493,303 L 494,303 L 495,303 L 496,302 L 497,302 L 498,302 L 499,302 L 500,301 L 500,299 L 500,298 L 501,297 L 502,296 L 503,294 L 503,293 L 503,292 L 502,292 L 502,291 L 502,290 L 501,290 L 501,289 L 501,290 L 501,289 L 500,289 L 500,288 L 500,287 L 500,286 L 499,285 L 499,284 L 499,282 L 500,281 L 500,280 L 501,280 L 502,280 L 502,279 L 503,279 L 504,279 L 504,278 L 505,278 L 506,278 L 507,277 L 507,276 L 508,275 L 509,274 L 509,273 L 508,272 L 508,271 L 507,270 L 507,269 L 507,268 L 507,267 L 506,267 L 506,266 L 505,266 L 504,267 L 503,267 L 503,266 L 502,266 L 502,265 L 502,264 L 503,264 L 503,263 L 503,262 L 503,261 L 502,261 L 502,260 L 502,259 L 502,258 L 502,257 L 502,256 L 501,255 L 501,254 L 501,253 L 501,252 L 501,251 L 500,250 L 499,250 L 499,251 L 498,251 L 497,251 L 496,251 L 496,250 L 495,250 L 494,250 L 494,249 L 494,248 L 493,248 L 493,247 L 492,247 L 492,246 L 492,247 L 491,247 L 491,248 L 491,249 L 490,249 L 490,250 L 489,250 L 488,251 L 488,252 L 487,252 L 487,253 L 487,254 L 486,254 L 485,254 L 484,253 L 484,252 L 483,252 L 482,252 L 481,252 L 480,252 L 480,251 L 480,250 L 479,250 L 479,249 L 479,248 L 479,247 L 479,246 L 479,245 L 480,245 L 480,244 L 480,243 L 479,243 L 479,244 L 478,244 L 477,244 L 477,243 L 477,242 L 476,241 L 475,241 L 474,240 L 474,239 L 474,238 L 473,238 L 473,237 L 473,236 L 474,236 L 474,235 L 474,234 L 475,234 L 475,233 L 475,232 L 476,232 L 476,231 L 475,231 L 475,230 L 474,230 L 475,230 L 475,229 L 476,229 L 477,229 L 477,228 L 478,228 L 478,227 L 478,226 L 478,225 L 479,224 L 480,224 L 481,223 L 481,222 L 481,221 L 481,220 L 482,220 L 483,220 L 483,219 L 483,218 L 484,217 L 484,216 L 485,216 L 486,216 L 487,216 L 487,215 L 488,215 L 489,216 L 490,216 L 491,216 L 492,216 L 492,215 L 492,214 L 492,213 L 492,212 L 493,212 L 493,211 L 494,211 L 494,210 L 495,210 L 495,209 L 496,208 L 496,207 L 497,207 L 497,206 L 497,205 L 496,205 L 496,204 L 495,204 L 495,203 L 494,203 L 493,202 L 493,201 L 494,201 L 494,200 L 495,200 L 495,199 L 496,199 L 496,198 L 497,198 L 498,198 L 499,198 L 500,198 L 500,197 L 499,196 L 499,195 L 500,194 L 501,193 L 500,192 L 500,191 L 499,191 L 498,191 L 497,190 L 496,190 L 496,189 L 496,188 L 496,187 L 497,186 L 497,185 L 498,185 L 499,185 L 499,186 L 500,186 L 501,186 L 502,186 L 502,185 L 502,184 L 502,183 L 502,182 L 502,181 L 502,180 L 501,179 L 501,178 L 501,177 L 501,176 L 501,175 L 502,174 L 503,174 L 504,174 L 504,175 L 505,175 L 505,176 L 506,176 L 507,176 L 507,177 L 508,177 L 508,178 L 509,178 L 509,179 L 509,180 L 510,180 L 510,179 L 510,178 L 510,177 L 510,176 L 510,177 L 511,177 L 512,177 L 513,177 L 513,178 L 514,178 L 515,179 L 516,179 L 517,179 L 518,178 L 518,179 L 519,179 L 520,179 L 521,179 L 522,179 L 523,179 L 524,179 L 525,178 L 526,178 L 527,178 L 528,178 L 529,177 L 530,177 L 531,177 L 532,176 L 533,176 L 534,175 L 535,175 L 536,175 L 536,174 L 537,174 L 537,173 L 538,173 L 539,173 L 540,173 L 541,173 L 542,173 L 542,174 L 542,175 L 543,175 L 543,176 L 543,177 L 544,177 L 545,177 L 546,177 L 546,176 L 547,176 L 547,175 L 547,174 L 547,173 L 547,172 L 547,171 L 546,170 L 546,169 L 546,168 L 545,168 L 545,167 L 545,166 L 546,166 L 546,165 L 546,164 L 546,163 L 547,163 L 548,163 L 549,163 L 550,163 L 550,162 L 551,162 L 552,163 " />
</g>
<g id="159" class="st0 dist-block" inkscape:label="Kasipur">
<path d="M 422,191 L 422,192 L 422,193 L 421,193 L 421,194 L 422,194 L 422,195 L 423,195 L 424,196 L 424,197 L 425,197 L 425,198 L 425,199 L 426,200 L 426,201 L 427,201 L 427,200 L 428,200 L 429,200 L 429,201 L 430,201 L 431,201 L 431,200 L 432,200 L 432,199 L 433,200 L 434,201 L 434,202 L 434,203 L 433,203 L 433,204 L 432,204 L 432,205 L 432,206 L 432,207 L 433,207 L 434,207 L 434,208 L 434,209 L 435,209 L 435,210 L 436,210 L 436,211 L 437,211 L 436,212 L 435,212 L 435,213 L 434,213 L 434,214 L 434,215 L 435,215 L 436,216 L 437,216 L 437,217 L 438,217 L 438,218 L 439,218 L 440,218 L 440,219 L 441,219 L 441,218 L 442,218 L 442,217 L 442,216 L 442,215 L 443,215 L 444,214 L 445,214 L 446,214 L 446,215 L 447,216 L 447,217 L 448,217 L 448,218 L 449,218 L 450,219 L 450,220 L 451,220 L 451,221 L 452,221 L 453,222 L 453,223 L 454,223 L 454,224 L 455,225 L 455,226 L 455,227 L 454,227 L 453,228 L 453,229 L 452,229 L 451,230 L 451,231 L 451,232 L 451,233 L 452,234 L 453,234 L 453,235 L 452,236 L 452,237 L 453,237 L 453,238 L 454,238 L 454,239 L 454,240 L 455,240 L 456,241 L 455,241 L 456,242 L 457,243 L 457,244 L 457,245 L 457,246 L 457,247 L 458,248 L 459,249 L 459,250 L 460,250 L 461,250 L 461,251 L 462,251 L 462,252 L 463,252 L 464,252 L 464,253 L 465,253 L 465,252 L 466,252 L 466,251 L 465,250 L 465,249 L 465,248 L 466,248 L 466,247 L 465,247 L 465,246 L 465,245 L 466,245 L 466,244 L 466,243 L 466,242 L 466,241 L 465,240 L 465,239 L 465,240 L 466,240 L 466,239 L 466,238 L 466,237 L 466,236 L 466,235 L 467,235 L 466,235 L 466,234 L 467,234 L 468,234 L 469,234 L 470,235 L 470,236 L 470,237 L 471,237 L 472,237 L 472,238 L 472,239 L 473,239 L 473,240 L 473,241 L 474,241 L 474,242 L 474,243 L 474,244 L 473,244 L 472,244 L 472,245 L 473,245 L 474,245 L 475,245 L 476,245 L 476,246 L 477,246 L 478,246 L 478,247 L 477,247 L 477,248 L 478,249 L 479,249 L 479,250 L 480,250 L 480,251 L 480,252 L 481,252 L 482,252 L 483,252 L 484,252 L 484,253 L 485,254 L 486,254 L 487,254 L 487,253 L 487,252 L 488,252 L 488,251 L 489,250 L 490,250 L 490,249 L 491,249 L 491,248 L 491,247 L 492,247 L 492,246 L 492,247 L 493,247 L 493,248 L 494,248 L 494,249 L 494,250 L 495,250 L 496,250 L 496,251 L 497,251 L 498,251 L 499,251 L 499,250 L 500,250 L 501,251 L 501,252 L 501,253 L 501,254 L 501,255 L 502,256 L 502,257 L 502,258 L 502,259 L 502,260 L 502,261 L 503,261 L 503,262 L 503,263 L 503,264 L 502,264 L 502,265 L 502,266 L 503,266 L 503,267 L 504,267 L 505,266 L 506,266 L 506,267 L 507,267 L 507,268 L 507,269 L 507,270 L 508,271 L 508,272 L 509,273 L 509,274 L 508,275 L 507,276 L 507,277 L 506,278 L 505,278 L 504,278 L 504,279 L 503,279 L 502,279 L 502,280 L 501,280 L 500,280 L 500,281 L 499,282 L 499,284 L 499,285 L 500,286 L 500,287 L 500,288 L 500,289 L 501,289 L 501,290 L 501,289 L 501,290 L 502,290 L 502,291 L 502,292 L 503,292 L 503,293 L 503,294 L 502,296 L 501,297 L 500,298 L 500,299 L 500,301 L 499,302 L 498,302 L 497,302 L 496,302 L 495,303 L 494,303 L 493,303 L 492,303 L 492,304 L 492,305 L 492,306 L 492,307 L 491,308 L 491,309 L 491,311 L 491,314 L 492,316 L 492,318 L 492,320 L 492,319 L 491,320 L 490,320 L 489,320 L 488,321 L 487,321 L 485,322 L 485,323 L 485,327 L 486,330 L 485,333 L 485,335 L 485,337 L 486,338 L 486,339 L 486,342 L 487,345 L 489,349 L 490,351 L 490,352 L 490,353 L 490,354 L 489,356 L 485,359 L 483,360 L 480,362 L 481,363 L 480,363 L 480,364 L 479,365 L 479,366 L 479,367 L 478,367 L 478,368 L 477,368 L 476,367 L 475,367 L 474,366 L 473,366 L 472,366 L 472,365 L 471,365 L 470,365 L 469,364 L 469,365 L 469,366 L 469,367 L 469,368 L 469,369 L 469,370 L 470,370 L 471,371 L 471,372 L 470,373 L 469,374 L 468,374 L 467,374 L 467,373 L 466,373 L 465,373 L 465,374 L 464,374 L 463,374 L 463,375 L 463,374 L 462,374 L 462,375 L 461,375 L 460,376 L 460,375 L 459,375 L 459,376 L 458,376 L 458,377 L 457,377 L 456,377 L 456,378 L 455,378 L 455,379 L 456,379 L 455,379 L 455,380 L 455,381 L 454,381 L 454,382 L 453,382 L 454,382 L 454,383 L 453,383 L 453,384 L 454,384 L 454,385 L 453,385 L 452,385 L 451,385 L 450,384 L 449,384 L 448,383 L 448,382 L 447,382 L 447,381 L 448,380 L 448,379 L 447,379 L 446,379 L 445,379 L 444,379 L 443,378 L 442,378 L 442,379 L 441,380 L 441,381 L 441,382 L 441,383 L 441,384 L 440,385 L 440,386 L 440,387 L 441,387 L 441,388 L 441,389 L 441,391 L 441,392 L 440,392 L 440,393 L 440,394 L 440,395 L 440,396 L 439,396 L 439,397 L 438,397 L 437,398 L 436,399 L 435,399 L 435,398 L 434,398 L 434,397 L 434,396 L 434,395 L 434,394 L 433,394 L 433,393 L 432,393 L 432,392 L 431,392 L 431,391 L 431,390 L 430,390 L 430,389 L 430,388 L 429,388 L 429,389 L 428,389 L 427,389 L 427,390 L 426,390 L 426,391 L 426,392 L 425,392 L 425,393 L 424,394 L 424,395 L 424,396 L 423,396 L 423,397 L 423,398 L 422,398 L 422,399 L 421,399 L 421,400 L 420,400 L 419,400 L 418,400 L 417,401 L 416,401 L 416,402 L 416,403 L 416,404 L 415,404 L 415,405 L 415,406 L 415,407 L 414,408 L 413,408 L 413,409 L 413,410 L 412,410 L 413,411 L 414,411 L 415,411 L 415,412 L 415,413 L 414,413 L 414,414 L 413,415 L 413,416 L 413,417 L 413,418 L 412,418 L 412,419 L 411,418 L 410,417 L 409,416 L 408,416 L 408,415 L 407,415 L 406,415 L 405,415 L 405,414 L 405,413 L 404,414 L 403,414 L 402,414 L 401,414 L 400,413 L 399,413 L 398,413 L 397,413 L 397,412 L 396,412 L 395,412 L 394,411 L 393,410 L 393,409 L 392,409 L 392,408 L 392,407 L 392,406 L 392,405 L 393,405 L 393,404 L 394,404 L 395,403 L 396,403 L 397,403 L 396,403 L 396,402 L 396,401 L 397,400 L 397,399 L 396,399 L 396,398 L 395,398 L 395,397 L 394,397 L 394,396 L 393,396 L 392,396 L 391,396 L 390,396 L 389,396 L 389,395 L 388,394 L 388,393 L 388,392 L 388,391 L 388,390 L 388,389 L 389,389 L 389,388 L 388,388 L 388,387 L 388,386 L 388,385 L 387,385 L 387,384 L 386,384 L 386,383 L 385,383 L 385,382 L 384,382 L 384,381 L 383,380 L 382,380 L 381,380 L 381,379 L 380,379 L 380,378 L 379,377 L 378,377 L 377,376 L 376,376 L 376,375 L 377,375 L 377,374 L 377,373 L 378,373 L 378,372 L 377,371 L 377,370 L 377,369 L 377,368 L 377,367 L 377,366 L 377,365 L 377,364 L 378,363 L 378,362 L 377,361 L 376,361 L 375,361 L 375,362 L 375,363 L 374,363 L 374,364 L 373,364 L 373,365 L 372,366 L 371,366 L 370,366 L 368,367 L 367,367 L 366,368 L 365,368 L 365,369 L 364,369 L 363,368 L 363,367 L 362,367 L 361,367 L 361,366 L 360,366 L 359,366 L 358,366 L 357,366 L 356,366 L 355,367 L 355,366 L 354,366 L 353,366 L 352,365 L 351,365 L 350,366 L 350,367 L 349,367 L 348,367 L 347,367 L 346,367 L 345,368 L 344,368 L 344,367 L 344,366 L 343,365 L 342,364 L 341,364 L 340,364 L 341,363 L 342,363 L 343,363 L 342,363 L 342,362 L 343,361 L 343,360 L 342,360 L 341,360 L 341,359 L 341,358 L 340,358 L 340,357 L 339,357 L 338,357 L 338,356 L 337,356 L 337,355 L 336,355 L 335,355 L 334,356 L 334,355 L 333,354 L 333,353 L 333,352 L 332,352 L 331,351 L 331,350 L 331,349 L 332,349 L 332,348 L 333,349 L 334,349 L 334,348 L 334,349 L 335,349 L 336,349 L 336,348 L 337,348 L 338,348 L 339,347 L 340,347 L 340,346 L 340,345 L 341,345 L 341,344 L 341,343 L 340,343 L 339,342 L 338,342 L 338,341 L 337,341 L 337,340 L 337,339 L 338,339 L 339,339 L 340,339 L 340,340 L 341,340 L 341,341 L 342,341 L 342,340 L 343,340 L 343,339 L 344,339 L 345,338 L 346,337 L 347,337 L 347,336 L 347,335 L 347,334 L 348,334 L 349,333 L 350,333 L 350,332 L 351,332 L 352,332 L 352,331 L 351,331 L 351,330 L 350,328 L 350,327 L 350,326 L 348,323 L 347,322 L 346,321 L 345,320 L 346,319 L 347,318 L 347,317 L 347,316 L 346,316 L 345,315 L 345,314 L 345,313 L 345,312 L 345,311 L 346,310 L 346,309 L 347,308 L 348,308 L 348,307 L 349,307 L 349,306 L 350,306 L 351,306 L 351,305 L 352,305 L 352,304 L 353,304 L 354,305 L 355,305 L 356,305 L 357,305 L 358,305 L 359,305 L 359,304 L 359,303 L 360,302 L 361,302 L 361,301 L 361,300 L 360,300 L 360,299 L 361,298 L 361,297 L 361,296 L 361,295 L 361,294 L 362,293 L 362,292 L 363,291 L 364,290 L 365,289 L 365,288 L 366,288 L 365,288 L 366,287 L 366,286 L 366,285 L 367,285 L 367,284 L 367,283 L 367,282 L 366,282 L 366,281 L 367,281 L 367,280 L 367,279 L 366,278 L 365,278 L 365,277 L 365,276 L 365,275 L 366,275 L 366,274 L 366,272 L 366,271 L 367,271 L 367,270 L 368,269 L 368,268 L 369,267 L 369,266 L 369,265 L 370,264 L 369,264 L 369,263 L 368,262 L 367,261 L 366,260 L 365,259 L 364,259 L 363,258 L 362,258 L 362,259 L 361,258 L 361,257 L 360,257 L 361,256 L 361,255 L 361,254 L 361,253 L 360,253 L 360,252 L 360,251 L 360,250 L 361,250 L 361,249 L 360,249 L 360,248 L 360,247 L 359,247 L 359,246 L 358,247 L 357,247 L 357,246 L 356,246 L 356,245 L 355,245 L 355,244 L 355,243 L 355,242 L 356,242 L 357,242 L 357,241 L 357,240 L 358,240 L 359,240 L 358,241 L 359,241 L 359,240 L 360,239 L 360,238 L 361,238 L 362,238 L 362,239 L 362,240 L 363,240 L 364,240 L 365,240 L 367,240 L 368,240 L 369,240 L 370,240 L 371,240 L 372,240 L 373,240 L 374,240 L 375,240 L 376,239 L 377,239 L 377,238 L 378,238 L 379,239 L 380,238 L 381,237 L 382,236 L 383,235 L 384,234 L 385,233 L 386,232 L 387,232 L 387,231 L 387,230 L 387,229 L 387,228 L 387,227 L 386,226 L 386,225 L 387,225 L 387,224 L 387,223 L 387,222 L 387,221 L 387,220 L 387,219 L 388,219 L 388,218 L 388,217 L 389,217 L 390,217 L 391,217 L 392,217 L 392,216 L 393,216 L 394,216 L 395,216 L 395,215 L 396,214 L 397,214 L 398,214 L 399,214 L 399,213 L 400,212 L 400,211 L 400,210 L 400,209 L 400,208 L 399,208 L 399,207 L 399,206 L 399,205 L 400,205 L 400,204 L 400,203 L 401,202 L 402,201 L 403,201 L 403,200 L 403,199 L 404,199 L 404,198 L 404,197 L 404,196 L 404,195 L 405,195 L 406,195 L 406,194 L 407,194 L 407,193 L 408,192 L 409,192 L 410,192 L 411,192 L 412,192 L 413,191 L 414,191 L 414,192 L 415,192 L 415,191 L 416,191 L 417,191 L 418,191 L 418,190 L 418,191 L 419,191 L 420,191 L 421,191 L 422,191 " />
</g>
<g id="177" class="st0 dist-block" inkscape:label="Kolnara">
<path d="M 569,265 L 569,266 L 569,267 L 569,268 L 568,269 L 568,270 L 567,270 L 567,271 L 567,272 L 567,273 L 568,274 L 569,275 L 570,276 L 571,276 L 571,277 L 572,277 L 572,278 L 573,278 L 573,279 L 573,280 L 573,281 L 572,281 L 572,282 L 573,282 L 573,281 L 574,281 L 575,280 L 576,279 L 576,278 L 577,277 L 577,276 L 577,275 L 578,275 L 578,274 L 578,273 L 579,273 L 580,273 L 581,273 L 581,274 L 581,275 L 582,275 L 582,274 L 583,274 L 584,274 L 585,274 L 585,275 L 585,276 L 585,277 L 585,278 L 584,279 L 583,280 L 582,280 L 582,281 L 581,281 L 581,282 L 582,282 L 582,285 L 582,286 L 584,288 L 584,289 L 585,289 L 585,290 L 586,290 L 587,290 L 588,289 L 589,289 L 590,289 L 591,290 L 592,291 L 592,292 L 592,293 L 592,294 L 591,295 L 590,296 L 589,296 L 588,296 L 587,296 L 586,295 L 585,295 L 584,294 L 584,293 L 584,292 L 583,292 L 582,292 L 581,292 L 581,291 L 580,292 L 579,293 L 578,293 L 578,294 L 578,295 L 577,296 L 577,295 L 576,295 L 576,296 L 576,297 L 576,298 L 576,297 L 575,297 L 574,298 L 574,299 L 575,299 L 575,300 L 576,300 L 577,301 L 577,300 L 578,300 L 579,300 L 580,300 L 580,299 L 581,299 L 582,299 L 583,300 L 584,301 L 585,301 L 586,301 L 587,301 L 587,300 L 588,299 L 589,299 L 590,299 L 590,298 L 591,298 L 592,299 L 592,300 L 591,300 L 591,301 L 590,301 L 590,302 L 590,303 L 591,303 L 592,303 L 593,304 L 594,304 L 594,303 L 594,302 L 594,301 L 595,301 L 595,300 L 596,301 L 598,303 L 598,304 L 598,305 L 598,306 L 597,306 L 597,307 L 596,307 L 596,308 L 597,308 L 597,309 L 599,309 L 600,309 L 601,310 L 602,309 L 602,308 L 602,307 L 603,306 L 603,305 L 604,304 L 604,303 L 604,302 L 605,302 L 606,301 L 607,301 L 608,301 L 609,301 L 609,300 L 610,300 L 611,300 L 612,300 L 613,300 L 614,300 L 615,300 L 617,301 L 618,302 L 618,301 L 619,300 L 620,300 L 621,301 L 621,300 L 621,299 L 622,299 L 623,299 L 624,299 L 624,300 L 625,299 L 626,298 L 627,298 L 628,297 L 629,296 L 629,295 L 628,295 L 628,294 L 628,293 L 628,292 L 629,292 L 630,292 L 631,292 L 631,293 L 632,293 L 633,293 L 633,294 L 634,294 L 634,295 L 634,296 L 635,296 L 636,296 L 636,297 L 635,298 L 634,298 L 633,299 L 632,299 L 632,300 L 632,301 L 633,301 L 634,301 L 634,300 L 634,299 L 635,299 L 636,298 L 637,299 L 638,299 L 637,299 L 637,300 L 637,301 L 636,301 L 636,302 L 635,302 L 635,303 L 636,305 L 635,305 L 637,305 L 639,304 L 640,304 L 641,305 L 641,306 L 640,307 L 641,308 L 642,308 L 643,308 L 643,309 L 643,310 L 643,311 L 642,311 L 642,312 L 643,313 L 644,314 L 644,315 L 644,316 L 645,316 L 645,317 L 645,318 L 645,319 L 645,320 L 646,320 L 646,321 L 646,322 L 646,323 L 646,324 L 646,325 L 647,326 L 648,326 L 648,327 L 649,327 L 647,327 L 646,327 L 645,327 L 644,327 L 643,327 L 642,328 L 641,329 L 640,330 L 640,331 L 640,334 L 639,338 L 640,338 L 641,337 L 642,337 L 642,336 L 643,336 L 643,335 L 644,335 L 645,335 L 646,334 L 647,334 L 648,334 L 648,335 L 648,336 L 648,337 L 649,337 L 649,338 L 649,339 L 650,339 L 650,340 L 650,341 L 650,342 L 651,342 L 651,343 L 652,344 L 652,345 L 651,346 L 651,347 L 650,348 L 651,349 L 651,350 L 652,350 L 652,351 L 653,351 L 654,351 L 655,351 L 656,351 L 657,351 L 658,351 L 659,351 L 660,351 L 661,351 L 662,351 L 662,352 L 662,353 L 661,354 L 660,355 L 660,356 L 660,357 L 660,358 L 661,358 L 660,358 L 660,359 L 659,359 L 659,358 L 658,357 L 658,356 L 658,355 L 657,355 L 657,356 L 657,358 L 658,360 L 657,362 L 657,363 L 657,364 L 657,365 L 656,365 L 656,366 L 656,367 L 656,368 L 655,368 L 654,368 L 652,367 L 651,366 L 650,366 L 649,366 L 649,365 L 649,364 L 649,363 L 648,363 L 647,363 L 647,364 L 647,365 L 646,367 L 646,368 L 647,370 L 647,371 L 648,371 L 649,371 L 650,371 L 651,371 L 651,372 L 651,373 L 651,372 L 650,372 L 649,372 L 648,371 L 648,372 L 649,373 L 649,374 L 649,375 L 649,376 L 649,377 L 648,377 L 648,378 L 647,378 L 646,378 L 646,379 L 646,380 L 646,381 L 645,381 L 644,382 L 644,383 L 643,382 L 642,382 L 641,382 L 641,381 L 640,381 L 640,382 L 639,383 L 638,383 L 637,384 L 637,385 L 637,386 L 636,386 L 636,387 L 636,388 L 636,389 L 636,390 L 636,391 L 637,391 L 637,392 L 638,393 L 638,394 L 639,394 L 639,395 L 639,396 L 640,396 L 640,397 L 640,398 L 641,398 L 641,399 L 641,400 L 641,401 L 640,401 L 639,402 L 638,402 L 637,401 L 636,401 L 636,402 L 635,402 L 634,402 L 633,402 L 633,403 L 632,403 L 632,404 L 631,404 L 630,403 L 629,401 L 628,400 L 628,399 L 627,398 L 627,397 L 628,397 L 628,396 L 628,395 L 627,394 L 627,392 L 627,391 L 627,390 L 626,390 L 626,389 L 625,389 L 624,390 L 623,391 L 623,392 L 622,392 L 622,393 L 622,394 L 621,394 L 620,394 L 620,393 L 620,392 L 620,391 L 619,390 L 618,389 L 617,389 L 616,389 L 615,389 L 615,388 L 614,388 L 614,387 L 614,386 L 613,386 L 613,387 L 613,386 L 612,386 L 610,385 L 610,384 L 610,383 L 611,383 L 611,382 L 611,380 L 611,379 L 612,379 L 612,378 L 611,378 L 611,377 L 610,376 L 610,374 L 609,372 L 609,371 L 610,371 L 610,370 L 609,370 L 608,370 L 606,370 L 605,370 L 605,369 L 604,368 L 604,367 L 605,366 L 606,365 L 606,364 L 606,363 L 606,362 L 605,361 L 605,359 L 604,357 L 604,356 L 604,355 L 603,354 L 603,353 L 603,354 L 602,354 L 601,354 L 600,355 L 599,355 L 598,355 L 598,356 L 597,356 L 597,355 L 596,355 L 595,355 L 594,355 L 594,354 L 593,354 L 592,355 L 591,356 L 591,357 L 590,357 L 589,358 L 588,359 L 587,359 L 587,358 L 587,357 L 587,356 L 587,354 L 586,353 L 587,353 L 587,352 L 587,351 L 588,352 L 588,353 L 589,353 L 589,352 L 589,351 L 589,350 L 589,349 L 590,349 L 590,348 L 589,347 L 588,347 L 586,347 L 585,347 L 584,347 L 584,346 L 583,345 L 582,345 L 581,345 L 580,345 L 579,344 L 578,344 L 577,344 L 577,345 L 577,346 L 577,347 L 578,347 L 578,348 L 577,348 L 576,347 L 575,347 L 575,346 L 574,346 L 575,345 L 575,344 L 574,344 L 573,343 L 572,342 L 571,342 L 571,341 L 572,341 L 573,341 L 573,340 L 574,340 L 574,339 L 573,339 L 573,338 L 573,337 L 573,336 L 573,335 L 572,335 L 572,334 L 571,334 L 570,334 L 570,333 L 571,332 L 572,331 L 572,330 L 573,330 L 572,329 L 572,328 L 571,328 L 571,327 L 570,327 L 570,326 L 570,325 L 570,324 L 570,323 L 570,322 L 570,321 L 570,320 L 570,319 L 570,318 L 571,317 L 571,316 L 571,315 L 571,314 L 572,314 L 572,313 L 571,313 L 571,312 L 570,312 L 570,311 L 569,311 L 569,310 L 568,310 L 567,311 L 567,312 L 567,313 L 566,314 L 565,314 L 565,315 L 564,315 L 564,316 L 563,316 L 563,317 L 563,318 L 562,319 L 562,320 L 562,321 L 562,322 L 561,322 L 560,321 L 560,320 L 560,319 L 560,318 L 560,317 L 559,316 L 559,315 L 558,315 L 557,315 L 556,315 L 555,316 L 555,315 L 554,315 L 553,315 L 554,315 L 553,316 L 552,316 L 551,316 L 550,316 L 550,317 L 549,317 L 548,317 L 547,318 L 546,318 L 545,318 L 544,318 L 544,317 L 544,316 L 543,315 L 543,314 L 542,314 L 541,314 L 541,313 L 540,313 L 539,314 L 539,315 L 538,315 L 537,315 L 536,315 L 536,316 L 536,317 L 535,318 L 534,318 L 533,316 L 533,315 L 532,315 L 531,315 L 530,315 L 530,316 L 529,316 L 529,317 L 529,318 L 528,319 L 527,320 L 526,320 L 525,320 L 525,319 L 526,319 L 526,318 L 527,319 L 528,319 L 528,318 L 528,317 L 528,316 L 529,315 L 529,314 L 529,313 L 529,312 L 528,312 L 528,311 L 527,311 L 527,310 L 526,310 L 526,309 L 527,309 L 528,310 L 529,311 L 529,312 L 530,312 L 531,312 L 531,313 L 532,313 L 533,313 L 534,313 L 534,314 L 535,314 L 536,314 L 537,314 L 538,314 L 539,314 L 539,313 L 539,312 L 540,312 L 540,311 L 541,311 L 541,310 L 541,309 L 541,308 L 541,307 L 541,306 L 540,305 L 539,304 L 538,304 L 538,303 L 538,302 L 537,302 L 537,301 L 537,300 L 536,299 L 535,298 L 534,297 L 533,296 L 533,295 L 532,295 L 532,294 L 532,293 L 533,292 L 533,291 L 533,290 L 533,289 L 533,288 L 532,288 L 532,287 L 531,287 L 531,286 L 530,286 L 530,285 L 530,284 L 530,283 L 531,283 L 532,283 L 533,284 L 533,285 L 533,286 L 534,286 L 534,285 L 534,284 L 535,284 L 536,284 L 536,283 L 536,282 L 535,282 L 535,281 L 535,280 L 535,279 L 534,277 L 534,276 L 535,276 L 535,275 L 536,274 L 536,273 L 536,272 L 537,272 L 537,271 L 538,271 L 538,272 L 539,272 L 539,273 L 540,274 L 540,275 L 541,276 L 541,278 L 542,279 L 543,279 L 543,280 L 544,280 L 545,281 L 544,281 L 543,281 L 542,281 L 542,282 L 542,283 L 542,284 L 543,284 L 544,284 L 545,284 L 545,283 L 546,283 L 546,282 L 547,282 L 548,283 L 548,284 L 549,285 L 550,285 L 550,284 L 550,283 L 551,283 L 551,282 L 552,282 L 552,281 L 552,280 L 553,280 L 554,280 L 556,280 L 557,280 L 559,280 L 560,280 L 561,280 L 561,279 L 561,278 L 561,277 L 561,276 L 560,275 L 560,274 L 559,273 L 558,272 L 558,271 L 556,269 L 556,267 L 555,266 L 555,265 L 556,265 L 556,266 L 557,266 L 558,266 L 558,265 L 559,265 L 560,265 L 561,265 L 562,265 L 563,265 L 564,264 L 565,263 L 565,262 L 566,261 L 567,261 L 567,260 L 568,260 L 568,261 L 568,262 L 569,263 L 569,264 L 569,265 " />
</g>
<g id="270" class="st0 dist-block" inkscape:label="Rayagada">
<path d="M 570,322 L 570,323 L 570,324 L 570,325 L 570,326 L 570,327 L 571,327 L 571,328 L 572,328 L 572,329 L 573,330 L 572,330 L 572,331 L 571,332 L 570,333 L 570,334 L 571,334 L 572,334 L 572,335 L 573,335 L 573,336 L 573,337 L 573,338 L 573,339 L 574,339 L 574,340 L 573,340 L 573,341 L 572,341 L 571,341 L 571,342 L 572,342 L 573,343 L 574,344 L 575,344 L 575,345 L 574,346 L 575,346 L 575,347 L 576,347 L 577,348 L 578,348 L 578,347 L 577,347 L 577,346 L 577,345 L 577,344 L 578,344 L 579,344 L 580,345 L 581,345 L 582,345 L 583,345 L 584,346 L 584,347 L 585,347 L 586,347 L 588,347 L 589,347 L 590,348 L 590,349 L 589,349 L 589,350 L 589,351 L 589,352 L 589,353 L 588,353 L 588,352 L 587,351 L 587,352 L 587,353 L 586,353 L 587,354 L 587,356 L 587,357 L 587,358 L 587,359 L 588,359 L 589,358 L 590,357 L 591,357 L 591,356 L 592,355 L 593,354 L 594,354 L 594,355 L 595,355 L 596,355 L 597,355 L 597,356 L 598,356 L 598,355 L 599,355 L 600,355 L 601,354 L 602,354 L 603,354 L 603,353 L 603,354 L 604,355 L 604,356 L 604,357 L 605,359 L 605,361 L 606,362 L 606,363 L 606,364 L 606,365 L 605,366 L 604,367 L 604,368 L 605,369 L 605,370 L 606,370 L 608,370 L 609,370 L 610,370 L 610,371 L 609,371 L 609,372 L 610,374 L 610,376 L 611,377 L 611,378 L 612,378 L 612,379 L 611,379 L 611,380 L 611,382 L 611,383 L 610,383 L 610,384 L 610,385 L 612,386 L 613,386 L 613,387 L 613,386 L 614,386 L 614,387 L 614,388 L 615,388 L 615,389 L 616,389 L 617,389 L 618,389 L 619,390 L 620,391 L 620,392 L 620,393 L 620,394 L 621,394 L 622,394 L 622,393 L 622,392 L 623,392 L 623,391 L 624,390 L 625,389 L 626,389 L 626,390 L 627,390 L 627,391 L 627,392 L 627,394 L 628,395 L 628,396 L 628,397 L 627,397 L 627,398 L 628,399 L 628,400 L 629,401 L 630,403 L 631,404 L 630,405 L 630,406 L 630,407 L 630,408 L 631,408 L 631,409 L 631,410 L 631,411 L 631,412 L 631,413 L 630,413 L 630,414 L 630,415 L 630,416 L 630,417 L 629,417 L 629,416 L 628,416 L 627,416 L 626,416 L 625,416 L 624,416 L 623,416 L 622,416 L 622,417 L 621,417 L 622,417 L 621,417 L 621,418 L 621,417 L 621,416 L 620,416 L 620,415 L 620,414 L 620,413 L 621,413 L 621,412 L 621,411 L 622,411 L 622,410 L 622,409 L 622,408 L 622,407 L 621,407 L 621,406 L 621,405 L 620,405 L 620,404 L 619,404 L 618,404 L 617,404 L 617,405 L 616,406 L 616,407 L 615,407 L 615,408 L 615,409 L 615,410 L 616,410 L 616,411 L 616,412 L 617,412 L 617,413 L 617,414 L 618,414 L 618,415 L 618,416 L 618,417 L 618,418 L 617,418 L 616,418 L 616,419 L 616,420 L 615,420 L 615,421 L 614,422 L 614,423 L 613,424 L 612,424 L 612,425 L 611,425 L 611,426 L 611,427 L 611,428 L 611,429 L 611,430 L 611,431 L 611,432 L 610,432 L 610,433 L 610,434 L 610,435 L 610,436 L 610,437 L 610,438 L 609,438 L 609,437 L 608,437 L 608,436 L 607,436 L 607,437 L 606,437 L 606,436 L 605,436 L 605,437 L 605,436 L 604,436 L 604,437 L 603,437 L 603,436 L 602,436 L 601,436 L 601,435 L 600,435 L 599,435 L 599,434 L 598,434 L 597,434 L 596,434 L 595,434 L 595,433 L 594,433 L 594,432 L 594,431 L 593,431 L 593,430 L 593,429 L 592,428 L 593,427 L 593,426 L 594,426 L 595,426 L 596,426 L 597,426 L 598,426 L 598,427 L 599,428 L 599,429 L 600,429 L 600,430 L 601,429 L 601,428 L 601,427 L 601,426 L 602,426 L 602,425 L 602,424 L 601,424 L 601,423 L 601,422 L 600,422 L 600,421 L 600,420 L 601,420 L 601,419 L 601,418 L 601,417 L 601,416 L 600,416 L 600,415 L 600,414 L 599,414 L 599,413 L 599,412 L 599,411 L 598,412 L 597,412 L 597,413 L 596,413 L 595,413 L 595,414 L 595,415 L 594,415 L 594,414 L 593,414 L 593,413 L 592,413 L 592,412 L 591,412 L 591,411 L 590,410 L 589,409 L 588,409 L 587,408 L 587,407 L 587,406 L 587,405 L 587,404 L 588,404 L 588,403 L 589,403 L 589,402 L 588,402 L 588,401 L 587,401 L 586,401 L 585,401 L 585,400 L 584,400 L 583,400 L 582,401 L 581,401 L 582,401 L 581,401 L 581,402 L 581,403 L 582,404 L 582,403 L 583,404 L 583,403 L 584,403 L 584,404 L 585,404 L 585,405 L 585,406 L 585,407 L 584,407 L 584,408 L 583,408 L 583,407 L 582,407 L 582,406 L 581,406 L 580,407 L 579,408 L 579,409 L 580,409 L 580,410 L 580,411 L 579,411 L 579,412 L 579,413 L 579,414 L 580,414 L 581,414 L 581,415 L 582,415 L 582,416 L 581,416 L 581,417 L 581,418 L 581,419 L 582,419 L 582,420 L 582,421 L 582,422 L 582,423 L 583,423 L 584,424 L 584,425 L 585,425 L 586,426 L 587,426 L 587,427 L 587,428 L 587,429 L 586,429 L 586,430 L 586,431 L 586,432 L 585,432 L 585,433 L 585,434 L 586,434 L 586,435 L 587,435 L 587,436 L 586,437 L 586,438 L 585,438 L 585,439 L 584,439 L 583,439 L 582,439 L 582,438 L 581,438 L 580,437 L 579,437 L 578,436 L 577,436 L 575,436 L 574,436 L 574,437 L 573,437 L 573,438 L 573,439 L 573,440 L 574,441 L 575,441 L 575,442 L 575,443 L 575,444 L 575,445 L 575,446 L 576,446 L 577,446 L 578,445 L 579,445 L 580,445 L 580,446 L 580,447 L 579,448 L 579,450 L 579,451 L 580,451 L 581,452 L 581,453 L 581,454 L 581,455 L 581,456 L 580,457 L 579,457 L 579,458 L 579,459 L 578,460 L 578,461 L 577,461 L 577,462 L 576,462 L 575,462 L 575,461 L 574,461 L 573,461 L 572,461 L 572,460 L 571,460 L 570,460 L 570,459 L 570,458 L 570,457 L 571,457 L 571,456 L 570,456 L 570,455 L 569,455 L 569,454 L 568,454 L 568,453 L 568,452 L 567,452 L 566,452 L 566,451 L 565,451 L 564,451 L 564,450 L 563,450 L 563,449 L 563,448 L 562,448 L 561,448 L 561,447 L 560,447 L 559,446 L 558,447 L 558,446 L 558,445 L 559,445 L 559,444 L 559,443 L 560,442 L 560,441 L 559,441 L 558,441 L 558,440 L 557,440 L 557,441 L 556,441 L 556,440 L 555,440 L 555,439 L 554,439 L 553,439 L 554,439 L 554,438 L 553,438 L 553,439 L 553,438 L 552,438 L 552,437 L 551,437 L 551,438 L 551,437 L 550,437 L 550,438 L 549,439 L 548,439 L 547,439 L 547,440 L 546,440 L 545,440 L 545,441 L 545,440 L 544,440 L 543,440 L 542,440 L 541,440 L 540,440 L 539,440 L 539,439 L 538,439 L 538,438 L 538,437 L 537,437 L 537,436 L 538,436 L 538,435 L 538,434 L 537,434 L 536,433 L 535,433 L 535,432 L 534,433 L 533,433 L 532,433 L 531,433 L 530,433 L 530,432 L 530,431 L 530,429 L 532,427 L 533,426 L 533,425 L 534,424 L 535,424 L 536,423 L 536,421 L 536,420 L 536,419 L 536,418 L 535,418 L 534,418 L 533,418 L 531,418 L 530,418 L 530,417 L 529,417 L 529,416 L 528,416 L 528,415 L 528,414 L 527,413 L 527,412 L 528,410 L 529,410 L 529,409 L 529,408 L 529,407 L 529,406 L 528,405 L 528,404 L 527,404 L 527,403 L 527,401 L 527,400 L 528,399 L 527,399 L 527,398 L 527,397 L 528,396 L 527,395 L 526,395 L 525,396 L 524,396 L 523,396 L 522,396 L 521,395 L 521,394 L 521,392 L 520,391 L 519,390 L 518,390 L 517,390 L 516,389 L 515,389 L 515,388 L 514,389 L 513,389 L 513,390 L 512,390 L 511,390 L 511,389 L 511,388 L 511,387 L 511,386 L 510,386 L 509,387 L 509,388 L 508,389 L 507,390 L 506,390 L 504,389 L 504,388 L 504,387 L 504,386 L 505,385 L 504,385 L 504,384 L 503,385 L 502,386 L 502,388 L 501,390 L 501,391 L 500,392 L 500,394 L 499,395 L 499,396 L 499,397 L 499,398 L 498,400 L 497,400 L 497,401 L 497,402 L 497,403 L 496,404 L 496,405 L 495,407 L 494,409 L 494,410 L 494,409 L 495,410 L 494,411 L 495,411 L 495,412 L 496,412 L 497,413 L 496,414 L 497,415 L 497,416 L 496,417 L 495,418 L 495,419 L 495,420 L 494,421 L 493,423 L 492,424 L 491,425 L 490,425 L 489,426 L 488,426 L 488,427 L 487,427 L 486,428 L 485,428 L 484,428 L 484,429 L 483,428 L 482,428 L 483,429 L 482,429 L 483,430 L 482,430 L 483,430 L 483,431 L 483,432 L 483,433 L 483,434 L 483,435 L 482,435 L 482,436 L 483,436 L 483,437 L 483,438 L 483,439 L 483,440 L 483,441 L 483,442 L 483,443 L 483,444 L 482,444 L 482,445 L 481,445 L 481,446 L 480,446 L 479,447 L 477,447 L 476,447 L 475,447 L 475,448 L 474,449 L 473,450 L 472,451 L 471,452 L 470,453 L 469,454 L 469,455 L 468,456 L 468,457 L 467,457 L 466,457 L 465,457 L 464,457 L 463,457 L 462,457 L 461,456 L 461,455 L 461,454 L 461,453 L 462,453 L 462,452 L 462,451 L 463,451 L 463,450 L 463,449 L 464,448 L 464,447 L 465,447 L 465,446 L 465,445 L 466,444 L 466,443 L 466,442 L 466,441 L 465,441 L 465,440 L 465,439 L 465,438 L 464,438 L 463,438 L 463,437 L 463,436 L 463,435 L 462,434 L 462,433 L 462,432 L 462,431 L 463,431 L 463,430 L 463,429 L 463,428 L 463,427 L 463,426 L 463,425 L 464,425 L 464,424 L 464,423 L 465,423 L 465,422 L 465,421 L 465,420 L 465,419 L 466,419 L 466,418 L 466,417 L 466,416 L 466,415 L 465,415 L 465,414 L 464,414 L 464,413 L 463,413 L 464,413 L 464,412 L 465,412 L 465,411 L 466,411 L 466,410 L 466,409 L 467,408 L 467,407 L 467,406 L 467,405 L 466,405 L 466,404 L 465,404 L 464,404 L 463,404 L 463,403 L 464,403 L 464,402 L 464,401 L 464,400 L 464,399 L 465,397 L 464,397 L 463,397 L 462,397 L 461,397 L 461,396 L 460,396 L 461,396 L 461,395 L 462,395 L 462,394 L 463,394 L 463,393 L 464,393 L 464,392 L 465,392 L 465,391 L 465,390 L 466,389 L 467,389 L 468,388 L 468,387 L 468,386 L 469,386 L 470,386 L 470,385 L 471,385 L 471,384 L 471,383 L 471,382 L 471,381 L 472,381 L 473,381 L 473,380 L 474,380 L 475,380 L 476,380 L 476,379 L 477,379 L 478,379 L 478,380 L 478,381 L 478,382 L 478,383 L 479,384 L 479,385 L 480,385 L 481,385 L 482,385 L 483,385 L 483,384 L 484,384 L 485,383 L 486,383 L 487,383 L 488,383 L 488,382 L 487,382 L 487,381 L 486,381 L 486,380 L 486,379 L 486,378 L 486,377 L 486,376 L 487,375 L 488,375 L 489,375 L 489,374 L 490,374 L 490,373 L 491,373 L 491,372 L 492,372 L 493,372 L 493,371 L 493,370 L 493,369 L 493,368 L 492,368 L 491,368 L 490,368 L 489,368 L 488,367 L 487,367 L 487,366 L 486,365 L 485,365 L 485,364 L 484,364 L 483,364 L 482,364 L 482,363 L 481,363 L 480,362 L 483,360 L 485,359 L 489,356 L 490,354 L 490,353 L 490,352 L 490,351 L 489,349 L 487,345 L 486,342 L 486,339 L 486,338 L 485,337 L 485,335 L 485,333 L 486,330 L 485,327 L 485,323 L 485,322 L 487,321 L 488,321 L 489,320 L 490,320 L 491,320 L 492,319 L 492,320 L 492,322 L 493,324 L 494,325 L 495,325 L 496,325 L 498,325 L 499,325 L 499,326 L 500,326 L 500,325 L 501,325 L 501,324 L 501,323 L 502,323 L 503,323 L 504,324 L 505,324 L 505,325 L 506,325 L 507,325 L 508,326 L 509,326 L 510,326 L 511,326 L 512,326 L 513,326 L 514,325 L 515,325 L 516,325 L 516,324 L 517,324 L 517,323 L 517,322 L 517,321 L 518,321 L 519,321 L 519,322 L 520,322 L 521,322 L 522,322 L 522,321 L 523,321 L 523,322 L 524,322 L 525,322 L 526,322 L 528,322 L 529,322 L 530,322 L 531,322 L 532,322 L 532,321 L 532,320 L 533,319 L 533,318 L 534,318 L 535,318 L 536,317 L 536,316 L 536,315 L 537,315 L 538,315 L 539,315 L 539,314 L 540,313 L 541,313 L 541,314 L 542,314 L 543,314 L 543,315 L 544,316 L 544,317 L 544,318 L 545,318 L 546,318 L 547,318 L 548,317 L 549,317 L 550,317 L 550,316 L 551,316 L 552,316 L 553,316 L 554,315 L 553,315 L 554,315 L 555,315 L 555,316 L 556,315 L 557,315 L 558,315 L 559,315 L 559,316 L 560,317 L 560,318 L 560,319 L 560,320 L 560,321 L 561,322 L 562,322 L 562,321 L 562,320 L 562,319 L 563,318 L 563,317 L 563,316 L 564,316 L 564,315 L 565,315 L 565,314 L 566,314 L 567,313 L 567,312 L 567,311 L 568,310 L 569,310 L 569,311 L 570,311 L 570,312 L 571,312 L 571,313 L 572,313 L 572,314 L 571,314 L 571,315 L 571,316 L 571,317 L 570,318 L 570,319 L 570,320 L 570,321 L 570,322 " />
</g>
</g>
</g>
<g id="block_labels" inkscape:groupmode="layer" inkscape:label="block_labels">
<g stroke="none" fill="rgb(0,0,0)">
<text id="block_labels_1" x="612" y="237" class="st4" inkscape:label="Bissam_Cuttack_lbl">Bissam_Cuttack</text>
<text id="block_labels_2" x="722" y="190" class="st4" inkscape:label="Chandrapur_lbl">Chandrapur</text>
<text id="block_labels_3" x="712" y="270" class="st4" inkscape:label="Gudari_lbl">Gudari</text>
<text id="block_labels_4" x="753" y="402" class="st4" inkscape:label="Gunupur_lbl">Gunupur</text>
<text id="block_labels_5" x="603" y="110"  class="st4" inkscape:label="Muniguda_lbl">Muniguda</text>
<text id="block_labels_6" x="757" y="317" class="st4" inkscape:label="Padmapur_lbl">Padmapur</text>
<text id="block_labels_7" x="680" y="359" class="st4" inkscape:label="Ramanguda_lbl">Ramanguda</text>
<text id="block_labels_8" x="524" y="243" class="st4" inkscape:label="Kalyanasingpur_lbl">Kalyanasingpur</text>
<text id="block_labels_9" x="422" y="305" class="st4" inkscape:label="Kashipur_lbl">Kashipur</text>
<text id="block_labels_10" x="602" y="329" class="st4" inkscape:label="Kolnara_lbl">Kolnara</text>
<text id="block_labels_11" x="543" y="383" class="st4" inkscape:label="Rayagada_lbl">Rayagada</text>
</g>
</g>
<!-- QGIS extent for clipping, eg in Inkscape -->
</svg>